<?xml version="1.0" encoding="utf-8"?>
<!-- Generator: Adobe Illustrator 25.0.0, SVG Export Plug-In . SVG Version: 6.00 Build 0)  -->
<svg version="1.1" id="Capa_1" xmlns="http://www.w3.org/2000/svg" xmlns:xlink="http://www.w3.org/1999/xlink" x="0px" y="0px"
	 viewBox="0 0 32 18.62" style="enable-background:new 0 0 32 18.62;" xml:space="preserve">
<style type="text/css">
	.st0{fill:#FF4B55;}
	.st1{fill:#464655;}
	.st2{fill:#73AF00;}
	.st3{fill:#F5F5F5;}
	.st4{fill:#41479B;}
	.st5{fill:#FFF5DC;}
	.st6{fill:#D27D69;}
	.st7{fill:#FFE15A;}
	.st8{fill:#B95546;}
	.st9{fill:#DCBE82;}
	.st10{fill:#D2AA73;}
	.st11{fill:#4173CD;}
	.st12{fill:#82AFFF;}
	.st13{fill:#F09146;}
	.st14{fill:#FFB400;}
	.st15{fill:#965032;}
	.st16{fill:#BE7855;}
	.st17{fill:#FFBE3C;}
	.st18{fill:#EAF3F5;}
	.st19{fill:#8C5A28;}
	.st20{fill:#F0C850;}
	.st21{fill:#FF6E55;}
	.st22{fill:#FFBE5A;}
	.st23{fill:#3CC8FF;}
	.st24{fill:#825546;}
	.st25{fill:#FFD255;}
	.st26{fill:#FFD25A;}
	.st27{fill:#509664;}
	.st28{fill:#F0AA00;}
	.st29{fill:#A561CD;}
	.st30{fill:#B34900;}
	.st31{fill:#64B496;}
	.st32{fill:#FF6B71;}
	.st33{fill:#5F64B9;}
	.st34{fill:#F5F0F0;}
	.st35{fill:#5A4646;}
	.st36{fill:#E6E1CD;}
	.st37{fill:#FFD0AF;}
	.st38{fill:#FFAF94;}
	.st39{fill:#8CB400;}
	.st40{fill:#69C3FF;}
	.st41{fill:#009B64;}
	.st42{fill:#5AA0E6;}
	.st43{fill:#FFC88C;}
	.st44{fill:#E1E1E1;}
	.st45{fill:#966446;}
	.st46{fill:#BE915A;}
	.st47{fill:#B9B9B9;}
	.st48{fill:#F0C727;}
	.st49{fill:#50AF69;}
	.st50{fill:#FFE6E6;}
	.st51{fill:#FFB750;}
	.st52{fill:#FFC455;}
	.st53{fill:#FFCD55;}
	.st54{fill:#9BC800;}
	.st55{fill:#FFE14E;}
	.st56{fill:#FFB14E;}
	.st57{fill:#B46446;}
	.st58{fill:#5FA000;}
	.st59{fill:#F2DD30;}
	.st60{fill:#FFC855;}
	.st61{fill:#A0A0A0;}
	.st62{fill:#69B469;}
	.st63{fill:#F4E08F;}
	.st64{fill:#ECD077;}
	.st65{fill:#FCF0A8;}
	.st66{fill:#FAB446;}
	.st67{fill:#C8414B;}
	.st68{fill:#FF9B46;}
	.st69{fill:#FF9B55;}
	.st70{fill:#82C3D2;}
	.st71{fill:#5AA587;}
	.st72{fill:#CDCDCD;}
	.st73{fill:#B4A08C;}
	.st74{fill:#FFD250;}
	.st75{fill:#00C3A0;}
	.st76{fill:#00AADC;}
	.st77{fill:#732D37;}
	.st78{fill:#AAD264;}
	.st79{fill:#874150;}
	.st80{fill:#783C46;}
	.st81{fill:#FFB478;}
	.st82{fill:#9B4B5A;}
	.st83{fill:#FFCD5A;}
	.st84{fill:#FFAA5A;}
	.st85{fill:#FF875A;}
	.st86{fill:#E6B432;}
	.st87{fill:#C86464;}
	.st88{fill:#FFF5E1;}
	.st89{fill:#963C3C;}
	.st90{fill:#5A8250;}
	.st91{fill:#AFEBFF;}
	.st92{fill:#557DE6;}
	.st93{fill:#D23741;}
	.st94{fill:#64C86E;}
	.st95{fill:#873250;}
	.st96{fill:#41AA5A;}
	.st97{fill:#8CD7FF;}
	.st98{fill:#6EC86E;}
	.st99{fill:#FFF0E1;}
	.st100{fill:#FFC75A;}
	.st101{fill:#FFD350;}
	.st102{fill:#FFBE50;}
	.st103{fill:#A54B50;}
	.st104{fill:#C87878;}
	.st105{fill:#FF1722;}
	.st106{fill:#FFB441;}
	.st107{fill:#5064AA;}
	.st108{fill:#FFA0D2;}
	.st109{fill:#FF7350;}
	.st110{fill:#245DBD;}
	.st111{fill:#D35A10;}
	.st112{fill:#FFA033;}
	.st113{fill:#FF9480;}
	.st114{fill:#FFA0E4;}
	.st115{fill:#696E7D;}
	.st116{fill:#FFFCFF;}
	.st117{fill:#EBEBEB;}
	.st118{fill:#FF4B57;}
	.st119{fill:#D2D2D2;}
	.st120{fill:#F0C814;}
	.st121{fill:#F7B518;}
	.st122{fill:#2C2F38;}
	.st123{fill:#4C8056;}
	.st124{fill:#F0C419;}
	.st125{fill:#C03A2B;}
	.st126{fill:#EA3F3F;}
	.st127{fill:#E4E3E1;}
	.st128{fill:#2472B2;}
</style>
<g>
	<path class="st3" d="M31.42,0.04H15.98v18.51h15.43c0.3,0,0.55-0.22,0.55-0.49V0.53C31.97,0.26,31.72,0.04,31.42,0.04L31.42,0.04z
		 M31.42,0.04"/>
	<path class="st7" d="M0.55,18.55h15.43V0.04H0.55C0.25,0.04,0,0.26,0,0.53v17.53C0,18.33,0.25,18.55,0.55,18.55L0.55,18.55z
		 M0.55,18.55"/>
	<path class="st117" d="M25.49,4.82l-0.04,0.06c0.12,0.05,0.19,0.11,0.19,0.18l-0.02-0.32C25.6,4.78,25.55,4.81,25.49,4.82
		L25.49,4.82z M25.49,4.82"/>
	<path class="st117" d="M22.63,4.88l-0.04-0.06c-0.06,0-0.11-0.03-0.13-0.08l-0.02,0.32C22.44,4.99,22.51,4.93,22.63,4.88
		L22.63,4.88z M22.63,4.88"/>
	<path class="st117" d="M22.6,4.53c0.09,0,0.16,0.06,0.16,0.14c0,0.03-0.01,0.05-0.03,0.08l0.04,0.07c0.12-0.04,0.27-0.07,0.44-0.09
		L23.2,4.67c-0.07-0.02-0.12-0.07-0.12-0.13c0-0.08,0.07-0.14,0.16-0.14c0.09,0,0.16,0.06,0.16,0.14c0,0.04-0.02,0.08-0.05,0.1
		l0.02,0.08c0.09-0.01,0.18-0.02,0.28-0.02c-0.01-0.03-0.01-0.05-0.01-0.08c0-0.2,0.18-0.35,0.4-0.35c0.22,0,0.4,0.16,0.4,0.35
		c0,0.03,0,0.06-0.01,0.08c0.1,0.01,0.19,0.01,0.28,0.02l0.02-0.08c-0.03-0.03-0.05-0.06-0.05-0.1c0-0.08,0.07-0.14,0.16-0.14
		c0.09,0,0.16,0.06,0.16,0.14c0,0.06-0.05,0.12-0.12,0.13l-0.02,0.06c0.17,0.02,0.32,0.06,0.44,0.09l0.04-0.07
		c-0.02-0.02-0.03-0.05-0.03-0.08c0-0.08,0.07-0.14,0.16-0.14c0.06,0,0.11,0.03,0.13,0.07L25.6,4.39c-0.16-0.16-0.8-0.28-1.56-0.28
		c-0.76,0-1.4,0.12-1.56,0.28L22.47,4.6C22.5,4.56,22.55,4.53,22.6,4.53L22.6,4.53z M22.6,4.53"/>
	<path class="st86" d="M24.29,2.87c0.04-0.05,0.07-0.11,0.07-0.17c0-0.13-0.1-0.24-0.24-0.27V2.25c0.05-0.02,0.08-0.07,0.08-0.12
		c0-0.08-0.07-0.14-0.16-0.14c-0.09,0-0.16,0.06-0.16,0.14c0,0.05,0.03,0.09,0.08,0.12v0.17c-0.14,0.03-0.24,0.14-0.24,0.27
		c0,0.07,0.03,0.13,0.07,0.17c0.08-0.02,0.16-0.03,0.25-0.03C24.13,2.84,24.21,2.85,24.29,2.87L24.29,2.87z M24.29,2.87"/>
	<path class="st117" d="M23.37,3.59l-0.01-0.05c-0.07-0.02-0.12-0.07-0.12-0.13c0-0.08,0.07-0.14,0.16-0.14
		c0.09,0,0.16,0.06,0.16,0.14c0,0.04-0.02,0.08-0.05,0.1l0.02,0.06c0.16-0.02,0.33-0.02,0.51-0.02c-0.13,0-0.24-0.09-0.24-0.21
		c0-0.12,0.11-0.21,0.24-0.21c0.13,0,0.24,0.09,0.24,0.21c0,0.12-0.11,0.21-0.24,0.21c0.18,0,0.35,0.01,0.51,0.02l0.02-0.06
		c-0.03-0.03-0.05-0.06-0.05-0.1c0-0.08,0.07-0.14,0.16-0.14c0.09,0,0.16,0.06,0.16,0.14c0,0.06-0.05,0.12-0.12,0.13l-0.01,0.05
		c0.08,0.01,0.16,0.02,0.22,0.04l0.12-0.21c-0.2-0.28-0.47-0.47-0.76-0.55c-0.08-0.02-0.16-0.03-0.25-0.03
		c-0.09,0-0.17,0.01-0.25,0.03c-0.3,0.07-0.56,0.27-0.76,0.55l0.12,0.21C23.22,3.61,23.29,3.6,23.37,3.59L23.37,3.59z M23.37,3.59"
		/>
	<path class="st86" d="M23.88,15.15v-0.31c0-0.03,0.01-0.06,0.01-0.1c0,0-0.01,0-0.01-0.01c-0.05-0.02-0.1-0.04-0.16-0.04
		c-0.06,0-0.11,0.02-0.16,0.04c-0.1,0.05-0.16,0.14-0.16,0.24c0,0.08,0.03,0.14,0.09,0.2c0.07-0.03,0.15-0.05,0.23-0.05
		C23.78,15.13,23.83,15.14,23.88,15.15L23.88,15.15z M23.88,15.15"/>
	<path class="st86" d="M24.2,14.04c-0.1,0.05-0.16,0.14-0.16,0.24c0,0.08,0.03,0.14,0.09,0.2c0.07-0.03,0.15-0.05,0.23-0.05
		c0.08,0,0.16,0.02,0.23,0.05c0.06-0.05,0.09-0.12,0.09-0.2c0-0.1-0.06-0.19-0.16-0.24c-0.05-0.02-0.1-0.04-0.16-0.04
		S24.25,14.01,24.2,14.04L24.2,14.04z M24.2,14.04"/>
	<path class="st118" d="M24.13,14.48c-0.12,0.06-0.2,0.16-0.24,0.27c-0.01,0.03-0.01,0.06-0.01,0.1v0.31
		c-0.05-0.02-0.1-0.03-0.16-0.03c-0.08,0-0.16,0.02-0.23,0.05c-0.15,0.07-0.25,0.21-0.25,0.37v0.56h0.96v-0.56
		c0-0.05-0.01-0.1-0.03-0.14h0.67v-0.56c0-0.16-0.1-0.3-0.25-0.37c-0.07-0.03-0.15-0.05-0.23-0.05
		C24.28,14.42,24.2,14.44,24.13,14.48L24.13,14.48z M24.13,14.48"/>
	<path class="st86" d="M24.2,8.8l0.27,0.24l0.09-0.08c0.02-0.02,0.05-0.03,0.08-0.04L26,7.72l0.87,0.77l0.56-0.5l-0.23-0.2
		l-0.11,0.1l-0.23-0.2l0.11-0.1l-0.11-0.1l0.23-0.2l0.11,0.1l0.11-0.1l0.23,0.2l-0.11,0.1l0.23,0.2l0.57-0.5l-0.87-0.77L27.95,6
		c-0.03-0.01-0.06-0.03-0.08-0.05l-0.32-0.28c-0.02-0.02-0.04-0.05-0.05-0.07l-3.33,2.94c0.02,0.02,0.04,0.05,0.04,0.09V8.8z
		 M24.2,8.8"/>
	<path class="st86" d="M23.84,9.64l-0.45-0.4l-1.41,1.24c-0.12,0.11-0.12,0.29,0,0.4c0.06,0.06,0.14,0.08,0.23,0.08
		c0.08,0,0.16-0.03,0.23-0.08l1.1-0.97L23.84,9.64z M23.84,9.64"/>
	<path class="st119" d="M19.47,11.1c0.01-0.02,0.01-0.05,0.01-0.07c0-0.12-0.11-0.21-0.24-0.21c-0.13,0-0.24,0.1-0.24,0.21
		c0,0.12,0.11,0.21,0.24,0.21c0.03,0,0.05,0,0.08-0.01C19.37,11.19,19.42,11.14,19.47,11.1L19.47,11.1z M19.47,11.1"/>
	<path class="st119" d="M19.33,13.09c-0.02-0.01-0.05-0.01-0.08-0.01c-0.13,0-0.24,0.09-0.24,0.21c0,0.12,0.11,0.21,0.24,0.21
		c0.13,0,0.24-0.09,0.24-0.21c0-0.03-0.01-0.05-0.01-0.07C19.42,13.18,19.37,13.14,19.33,13.09L19.33,13.09z M19.33,13.09"/>
	<path class="st119" d="M21.73,11.23c0.02,0.01,0.05,0.01,0.08,0.01c0.13,0,0.24-0.09,0.24-0.21c0-0.12-0.11-0.21-0.24-0.21
		c-0.13,0-0.24,0.1-0.24,0.21c0,0.02,0.01,0.05,0.01,0.07C21.63,11.14,21.68,11.19,21.73,11.23L21.73,11.23z M21.73,11.23"/>
	<path class="st119" d="M21.57,13.29c0,0.12,0.11,0.21,0.24,0.21c0.07,0,0.14-0.03,0.18-0.08c-0.15-0.05-0.29-0.1-0.42-0.16
		C21.57,13.28,21.57,13.28,21.57,13.29L21.57,13.29z M21.57,13.29"/>
	<path class="st86" d="M21.23,13.09c-0.03-0.02-0.05-0.05-0.06-0.09c-0.03,0.01-0.06,0.01-0.08,0.01c-0.19,0-0.35-0.12-0.39-0.27
		c-0.04,0.04-0.1,0.06-0.17,0.06c-0.07,0-0.13-0.02-0.17-0.06c-0.04,0.16-0.2,0.27-0.39,0.27c-0.22,0-0.4-0.16-0.4-0.35
		c0-0.17,0.13-0.31,0.31-0.34c-0.04-0.04-0.07-0.09-0.07-0.15c0-0.06,0.03-0.11,0.07-0.15c-0.18-0.04-0.31-0.18-0.31-0.34
		c0-0.19,0.18-0.35,0.4-0.35c0.19,0,0.35,0.12,0.39,0.27c0.04-0.04,0.1-0.06,0.17-0.06c0.07,0,0.13,0.02,0.17,0.06
		c0.04-0.16,0.2-0.27,0.39-0.27c0.22,0,0.4,0.16,0.4,0.35c0,0.17-0.13,0.31-0.31,0.34c0.04,0.04,0.07,0.09,0.07,0.15
		c0,0.06-0.03,0.11-0.07,0.15c0.18,0.04,0.31,0.18,0.31,0.34c0,0.07-0.03,0.14-0.07,0.2c0,0,0,0,0,0c0.1,0.07,0.22,0.13,0.35,0.18
		c0.04-0.04,0.08-0.09,0.11-0.14c0.11-0.15,0.18-0.32,0.22-0.5c0.02-0.08,0.03-0.16,0.03-0.24c0-0.36-0.15-0.68-0.4-0.93
		c-0.05-0.05-0.09-0.09-0.15-0.13c-0.28-0.22-0.65-0.35-1.05-0.35c-0.4,0-0.77,0.13-1.05,0.35c-0.05,0.04-0.1,0.08-0.15,0.13
		c-0.25,0.25-0.4,0.57-0.4,0.93c0,0.36,0.15,0.68,0.4,0.93c0.05,0.05,0.09,0.09,0.15,0.13c0.28,0.22,0.65,0.35,1.05,0.35
		c0.38,0,0.74-0.12,1.01-0.32C21.43,13.2,21.32,13.15,21.23,13.09L21.23,13.09z M21.76,11.88c0.03,0.09,0.04,0.19,0.04,0.29
		c0,0.1-0.02,0.19-0.04,0.29c-0.05-0.11-0.13-0.21-0.23-0.29C21.64,12.09,21.72,11.99,21.76,11.88L21.76,11.88z M20.85,11.07
		c-0.13,0.04-0.24,0.11-0.32,0.2c-0.08-0.09-0.19-0.16-0.32-0.2c0.1-0.02,0.21-0.04,0.32-0.04C20.64,11.03,20.75,11.05,20.85,11.07
		L20.85,11.07z M19.29,11.88c0.05,0.11,0.13,0.21,0.23,0.29c-0.1,0.07-0.18,0.17-0.23,0.29c-0.03-0.09-0.04-0.19-0.04-0.29
		C19.25,12.06,19.26,11.97,19.29,11.88L19.29,11.88z M20.2,13.25c0.13-0.04,0.24-0.11,0.32-0.2c0.08,0.09,0.19,0.16,0.32,0.2
		c-0.1,0.02-0.21,0.04-0.32,0.04C20.41,13.29,20.31,13.28,20.2,13.25L20.2,13.25z M20.2,13.25"/>
	<path class="st120" d="M20.29,12.16c0-0.12-0.11-0.21-0.24-0.21c-0.07,0-0.13,0.02-0.17,0.06c-0.04,0.04-0.07,0.09-0.07,0.15
		c0,0.06,0.03,0.11,0.07,0.15c0.04,0.04,0.1,0.06,0.17,0.06C20.18,12.37,20.29,12.28,20.29,12.16L20.29,12.16z M20.29,12.16"/>
	<path class="st120" d="M20.77,12.16c0,0.12,0.11,0.21,0.24,0.21c0.07,0,0.12-0.02,0.17-0.06c0.04-0.04,0.07-0.09,0.07-0.15
		c0-0.06-0.03-0.11-0.07-0.15c-0.04-0.04-0.1-0.06-0.17-0.06C20.87,11.95,20.77,12.04,20.77,12.16L20.77,12.16z M20.77,12.16"/>
	<path class="st120" d="M20.53,11.95c0.13,0,0.24-0.09,0.24-0.21c0-0.06-0.03-0.11-0.07-0.15c-0.04-0.04-0.1-0.06-0.17-0.06
		c-0.07,0-0.13,0.02-0.17,0.06c-0.04,0.04-0.07,0.09-0.07,0.15C20.29,11.86,20.39,11.95,20.53,11.95L20.53,11.95z M20.53,11.95"/>
	<path class="st120" d="M20.53,12.37c-0.13,0-0.24,0.09-0.24,0.21c0,0.06,0.03,0.11,0.07,0.15c0.04,0.04,0.1,0.06,0.17,0.06
		c0.07,0,0.13-0.02,0.17-0.06c0.04-0.04,0.07-0.09,0.07-0.15C20.77,12.47,20.66,12.37,20.53,12.37L20.53,12.37z M20.53,12.37"/>
	<path class="st119" d="M27.87,5.96c0.02,0.02,0.05,0.04,0.08,0.05c0.03,0.01,0.06,0.02,0.09,0.02c0.06,0,0.12-0.02,0.17-0.06
		c0.08-0.07,0.09-0.19,0.02-0.27l0.09-0.31c0.01,0,0.02,0.01,0.04,0.01c0.09,0,0.16-0.06,0.16-0.14c0-0.08-0.07-0.14-0.16-0.14
		c-0.09,0-0.16,0.06-0.16,0.14c0,0.01,0,0.02,0.01,0.03l-0.35,0.08c-0.09-0.06-0.22-0.05-0.3,0.02c-0.07,0.06-0.09,0.15-0.05,0.23
		c0.01,0.03,0.03,0.05,0.05,0.07L27.87,5.96z M27.87,5.96"/>
	<path class="st119" d="M23.88,9.28V8.63c0-0.03,0.01-0.06,0.04-0.09L20.59,5.6c-0.01,0.03-0.03,0.05-0.05,0.07l-0.32,0.28
		C20.19,5.98,20.17,5.99,20.14,6l0.59,0.52l-0.87,0.77l0.56,0.5l0.23-0.2l-0.11-0.1l0.23-0.2l0.11,0.1l0.11-0.1l0.23,0.2l-0.11,0.1
		l0.11,0.1l-0.23,0.2l-0.11-0.1l-0.23,0.2l0.56,0.5l0.87-0.77l1.35,1.19c0.03,0.01,0.06,0.02,0.08,0.04L23.88,9.28z M23.88,9.28"/>
	<path class="st119" d="M24.25,9.64l0.31,0.27l1.1,0.97c0.06,0.05,0.14,0.08,0.23,0.08c0.08,0,0.16-0.03,0.23-0.08
		c0.13-0.11,0.13-0.29,0-0.4L24.7,9.24L24.25,9.64z M24.25,9.64"/>
	<path class="st119" d="M24.2,9.2v0.08l0.27-0.24L24.2,8.8V9.2z M24.2,9.2"/>
	<path class="st119" d="M28.76,11.23c0.02,0.01,0.05,0.01,0.08,0.01c0.13,0,0.24-0.09,0.24-0.21c0-0.12-0.11-0.21-0.24-0.21
		c-0.13,0-0.24,0.1-0.24,0.21c0,0.02,0.01,0.05,0.01,0.07C28.66,11.14,28.71,11.19,28.76,11.23L28.76,11.23z M28.76,11.23"/>
	<path class="st119" d="M28.84,13.08c-0.03,0-0.05,0.01-0.08,0.01c-0.05,0.05-0.09,0.09-0.15,0.13c-0.01,0.02-0.01,0.05-0.01,0.07
		c0,0.12,0.11,0.21,0.24,0.21c0.13,0,0.24-0.09,0.24-0.21C29.08,13.17,28.97,13.08,28.84,13.08L28.84,13.08z M28.84,13.08"/>
	<path class="st119" d="M26.51,11.1c0.01-0.02,0.01-0.05,0.01-0.07c0-0.12-0.11-0.21-0.24-0.21c-0.13,0-0.24,0.1-0.24,0.21
		c0,0.12,0.11,0.21,0.24,0.21c0.03,0,0.05,0,0.08-0.01C26.41,11.19,26.45,11.14,26.51,11.1L26.51,11.1z M26.51,11.1"/>
	<path class="st119" d="M26.28,13.5c0.13,0,0.24-0.09,0.24-0.21c0-0.01,0-0.02,0-0.03c-0.13,0.06-0.27,0.11-0.42,0.16
		C26.14,13.47,26.21,13.5,26.28,13.5L26.28,13.5z M26.28,13.5"/>
	<path class="st86" d="M28.76,13.09c0.25-0.25,0.4-0.57,0.4-0.93c0-0.36-0.15-0.68-0.4-0.93c-0.05-0.05-0.09-0.09-0.15-0.13
		c-0.28-0.22-0.65-0.35-1.05-0.35c-0.4,0-0.77,0.13-1.05,0.35c-0.05,0.04-0.1,0.08-0.15,0.13c-0.25,0.25-0.4,0.57-0.4,0.93
		c0,0.08,0.01,0.17,0.03,0.25c0.04,0.18,0.11,0.35,0.22,0.5c0.03,0.05,0.07,0.09,0.11,0.14c0.13-0.06,0.25-0.12,0.35-0.18
		c0,0,0,0,0,0c-0.04-0.06-0.07-0.13-0.07-0.2c0-0.17,0.13-0.31,0.31-0.34c-0.04-0.04-0.07-0.09-0.07-0.15
		c0-0.06,0.03-0.11,0.07-0.15c-0.18-0.04-0.31-0.18-0.31-0.34c0-0.19,0.18-0.35,0.4-0.35c0.19,0,0.35,0.12,0.39,0.28
		c0.04-0.04,0.1-0.06,0.17-0.06c0.07,0,0.13,0.02,0.17,0.06c0.04-0.16,0.2-0.28,0.39-0.28c0.22,0,0.4,0.16,0.4,0.35
		c0,0.17-0.13,0.31-0.31,0.34c0.04,0.04,0.07,0.09,0.07,0.15c0,0.06-0.03,0.11-0.07,0.15c0.18,0.04,0.31,0.18,0.31,0.34
		c0,0.19-0.18,0.35-0.4,0.35c-0.19,0-0.35-0.12-0.39-0.28c-0.04,0.04-0.1,0.06-0.17,0.06c-0.07,0-0.13-0.02-0.17-0.06
		c-0.04,0.16-0.2,0.28-0.39,0.28c-0.03,0-0.06,0-0.08-0.01c-0.01,0.03-0.03,0.06-0.06,0.09c-0.09,0.06-0.2,0.11-0.31,0.17
		c0.28,0.2,0.63,0.32,1.01,0.32c0.4,0,0.77-0.13,1.05-0.35C28.66,13.18,28.71,13.14,28.76,13.09L28.76,13.09z M26.32,12.45
		c-0.03-0.09-0.04-0.19-0.04-0.29c0-0.1,0.02-0.19,0.04-0.29c0.05,0.11,0.13,0.21,0.23,0.29C26.45,12.24,26.37,12.33,26.32,12.45
		L26.32,12.45z M27.56,11.27c-0.08-0.09-0.19-0.16-0.32-0.2c0.1-0.02,0.21-0.04,0.32-0.04c0.11,0,0.22,0.01,0.32,0.04
		C27.75,11.11,27.64,11.18,27.56,11.27L27.56,11.27z M28.8,11.88c0.03,0.09,0.04,0.19,0.04,0.29c0,0.1-0.02,0.19-0.04,0.29
		c-0.05-0.11-0.13-0.21-0.23-0.29C28.67,12.09,28.75,11.99,28.8,11.88L28.8,11.88z M27.24,13.25c0.13-0.04,0.24-0.11,0.32-0.2
		c0.08,0.09,0.19,0.16,0.32,0.2c-0.1,0.02-0.21,0.04-0.32,0.04C27.45,13.29,27.34,13.28,27.24,13.25L27.24,13.25z M27.24,13.25"/>
	<path class="st120" d="M27.8,12.16c0,0.12,0.11,0.21,0.24,0.21c0.07,0,0.13-0.02,0.17-0.06c0.04-0.04,0.07-0.09,0.07-0.15
		c0-0.06-0.03-0.11-0.07-0.15c-0.04-0.04-0.1-0.06-0.17-0.06C27.91,11.95,27.8,12.04,27.8,12.16L27.8,12.16z M27.8,12.16"/>
	<path class="st120" d="M27.32,12.16c0-0.12-0.11-0.21-0.24-0.21c-0.07,0-0.13,0.02-0.17,0.06c-0.04,0.04-0.07,0.09-0.07,0.15
		c0,0.06,0.03,0.11,0.07,0.15c0.04,0.04,0.1,0.06,0.17,0.06C27.21,12.37,27.32,12.28,27.32,12.16L27.32,12.16z M27.32,12.16"/>
	<path class="st120" d="M27.56,11.95c0.13,0,0.24-0.09,0.24-0.21c0-0.06-0.03-0.11-0.07-0.15c-0.04-0.04-0.1-0.06-0.17-0.06
		c-0.07,0-0.13,0.02-0.17,0.06c-0.04,0.04-0.07,0.09-0.07,0.15C27.32,11.86,27.43,11.95,27.56,11.95L27.56,11.95z M27.56,11.95"/>
	<path class="st120" d="M27.56,12.37c-0.13,0-0.24,0.09-0.24,0.21c0,0.06,0.03,0.11,0.07,0.15c0.04,0.04,0.1,0.06,0.17,0.06
		c0.07,0,0.13-0.02,0.17-0.06c0.04-0.04,0.07-0.09,0.07-0.15C27.8,12.47,27.69,12.37,27.56,12.37L27.56,12.37z M27.56,12.37"/>
	<path class="st121" d="M20.54,5.67c0.02-0.02,0.04-0.05,0.05-0.07c0.03-0.08,0.02-0.17-0.05-0.23c-0.08-0.07-0.21-0.08-0.3-0.02
		l-0.35-0.08c0-0.01,0.01-0.02,0.01-0.03c0-0.08-0.07-0.14-0.16-0.14c-0.09,0-0.16,0.06-0.16,0.14c0,0.08,0.07,0.14,0.16,0.14
		c0.01,0,0.03,0,0.04-0.01l0.09,0.31c-0.06,0.08-0.06,0.19,0.02,0.27c0.05,0.04,0.11,0.06,0.17,0.06c0.03,0,0.06-0.01,0.09-0.02
		c0.03-0.01,0.06-0.03,0.08-0.05L20.54,5.67z M20.54,5.67"/>
	<path class="st0" d="M26.85,13.09c0.03-0.02,0.05-0.05,0.06-0.09c0.01-0.04,0-0.08-0.03-0.11c-0.05-0.06-0.15-0.08-0.22-0.03
		c0,0,0,0-0.01,0c-0.1,0.07-0.22,0.13-0.35,0.18c-0.47,0.2-1.1,0.33-1.79,0.38v-1.98c0.7,0.84,1.38,1.29,1.68,1.47
		c-0.1-0.15-0.18-0.32-0.22-0.5c-0.39-0.28-0.93-0.76-1.46-1.47V9.97c0.01-0.02,0.02-0.04,0.03-0.07l-0.31-0.27l0.55-0.48
		c0.06-0.06,0.06-0.14,0-0.2c-0.04-0.04-0.1-0.05-0.15-0.04c-0.03,0.01-0.06,0.02-0.08,0.04l-0.09,0.08L24.2,9.28V8.63
		c0-0.03-0.01-0.06-0.04-0.09c-0.03-0.03-0.07-0.06-0.12-0.06c-0.05,0-0.09,0.02-0.12,0.06c-0.02,0.02-0.04,0.05-0.04,0.09v0.65
		l-0.37-0.32c-0.02-0.02-0.05-0.03-0.08-0.04c-0.05-0.01-0.11,0-0.15,0.04c-0.06,0.06-0.06,0.14,0,0.2l0.55,0.48l-0.31,0.27
		c0.01,0.02,0.02,0.04,0.03,0.07v0.96c-0.53,0.71-1.08,1.19-1.46,1.47c-0.04,0.18-0.11,0.35-0.22,0.5c0.3-0.18,0.98-0.63,1.68-1.47
		v1.98c-0.69-0.04-1.32-0.18-1.79-0.38c-0.13-0.06-0.25-0.12-0.35-0.18c0,0,0,0,0,0c-0.07-0.04-0.17-0.03-0.22,0.03
		c-0.03,0.03-0.03,0.07-0.03,0.11c0.01,0.03,0.03,0.06,0.06,0.09c0.09,0.06,0.2,0.11,0.31,0.17c0.01,0,0.02,0.01,0.03,0.01
		c0.13,0.06,0.27,0.11,0.42,0.16c0.45,0.15,0.99,0.24,1.58,0.27v1.04c0.05-0.02,0.1-0.04,0.16-0.04s0.11,0.01,0.16,0.04v-1.03
		c0.05,0,0.11,0,0.16,0c0.05,0,0.11,0,0.16,0v0.32c0.05-0.02,0.1-0.04,0.16-0.04s0.11,0.01,0.16,0.04V13.7
		c0.58-0.03,1.12-0.13,1.58-0.27c0.15-0.05,0.29-0.1,0.42-0.16c0.01,0,0.02-0.01,0.03-0.01C26.66,13.2,26.76,13.15,26.85,13.09
		L26.85,13.09z M24.04,13.43c-0.05,0-0.11,0-0.16,0v-2.41c0.05-0.07,0.11-0.15,0.16-0.23c0.05,0.08,0.11,0.16,0.16,0.23v2.41
		C24.15,13.43,24.1,13.43,24.04,13.43L24.04,13.43z M24.04,13.43"/>
	<path class="st86" d="M24.04,5.35c0.88,0,1.6,0.13,1.6,0.3V5.06c0-0.06-0.07-0.13-0.19-0.18l0.04-0.06c0.06,0,0.11-0.03,0.13-0.08
		c0.01-0.02,0.02-0.04,0.02-0.06c0-0.03-0.01-0.05-0.03-0.07c-0.03-0.04-0.08-0.07-0.13-0.07c-0.09,0-0.16,0.06-0.16,0.14
		c0,0.03,0.01,0.05,0.03,0.08l-0.04,0.07c-0.12-0.04-0.27-0.07-0.44-0.09l0.02-0.06C24.95,4.65,25,4.6,25,4.53
		c0-0.08-0.07-0.14-0.16-0.14c-0.09,0-0.16,0.06-0.16,0.14c0,0.04,0.02,0.08,0.05,0.1l-0.02,0.08c-0.09-0.01-0.18-0.02-0.28-0.02
		c0.01-0.03,0.01-0.05,0.01-0.08c0-0.2-0.18-0.35-0.4-0.35c-0.22,0-0.4,0.16-0.4,0.35c0,0.03,0,0.06,0.01,0.08
		c-0.1,0.01-0.19,0.01-0.28,0.02l-0.02-0.08c0.03-0.03,0.05-0.06,0.05-0.1c0-0.08-0.07-0.14-0.16-0.14c-0.09,0-0.16,0.06-0.16,0.14
		c0,0.06,0.05,0.12,0.12,0.13l0.02,0.06c-0.17,0.02-0.32,0.06-0.44,0.09l-0.04-0.07c0.02-0.02,0.03-0.05,0.03-0.08
		c0-0.08-0.07-0.14-0.16-0.14c-0.06,0-0.11,0.03-0.13,0.07c-0.01,0.02-0.03,0.05-0.03,0.07c0,0.02,0.01,0.04,0.02,0.06
		c0.02,0.04,0.07,0.07,0.13,0.08l0.04,0.06c-0.12,0.05-0.19,0.11-0.19,0.18v0.59C22.44,5.48,23.16,5.35,24.04,5.35L24.04,5.35z
		 M24.04,5.35"/>
	<path class="st86" d="M22.44,5.66L22.44,5.66c0-0.01,0-0.01,0-0.02V5.66z M22.44,5.66"/>
	<path class="st86" d="M25.64,5.66V5.65C25.64,5.65,25.64,5.66,25.64,5.66L25.64,5.66z M25.64,5.66"/>
	<path class="st117" d="M22.76,5.95c0,0.03-0.01,0.05-0.03,0.07l0.06,0.11c0.11-0.05,0.25-0.09,0.42-0.12L23.2,5.94
		c-0.07-0.02-0.12-0.07-0.12-0.13c0-0.08,0.07-0.14,0.16-0.14c0.09,0,0.16,0.06,0.16,0.14c0,0.04-0.02,0.08-0.05,0.1l0.02,0.08
		c0.15-0.02,0.32-0.03,0.51-0.04V5.82c-0.05-0.04-0.08-0.09-0.08-0.16c0-0.12,0.11-0.21,0.24-0.21c0.13,0,0.24,0.09,0.24,0.21
		c0,0.06-0.03,0.12-0.08,0.16v0.13c0.18,0,0.35,0.02,0.51,0.04l0.02-0.08c-0.03-0.03-0.05-0.06-0.05-0.1c0-0.08,0.07-0.14,0.16-0.14
		c0.09,0,0.16,0.06,0.16,0.14c0,0.06-0.05,0.12-0.12,0.13l-0.02,0.07c0.17,0.03,0.32,0.07,0.42,0.12l0.06-0.11
		C25.33,6,25.32,5.98,25.32,5.95c0-0.08,0.07-0.14,0.16-0.14c0.04,0,0.07,0.01,0.1,0.03c0.04-0.08,0.05-0.14,0.06-0.18
		c0,0,0-0.01,0-0.02c0-0.16-0.72-0.3-1.6-0.3c-0.88,0-1.6,0.13-1.6,0.3c0,0,0,0.01,0,0.02c0,0.04,0.02,0.1,0.06,0.18
		c0.03-0.02,0.06-0.03,0.1-0.03C22.69,5.81,22.76,5.87,22.76,5.95L22.76,5.95z M22.76,5.95"/>
	<path class="st86" d="M22.44,5.95c0,0.07,0.07,0.13,0.15,0.14l0.07,0.12c-0.04,0.03-0.06,0.07-0.06,0.1c0,0.04,0.03,0.08,0.08,0.12
		l0.24,0.37c0-0.16,0.5-0.28,1.12-0.28c0.62,0,1.12,0.13,1.12,0.28l0.24-0.37c0.05-0.04,0.08-0.08,0.08-0.12
		c0-0.04-0.02-0.07-0.06-0.1l0.07-0.12c0.08-0.01,0.15-0.06,0.15-0.14c0-0.04-0.02-0.08-0.06-0.11c-0.03-0.02-0.06-0.03-0.1-0.03
		c-0.09,0-0.16,0.06-0.16,0.14c0,0.03,0.01,0.05,0.03,0.07l-0.06,0.11c-0.11-0.05-0.25-0.09-0.42-0.12l0.02-0.07
		C24.95,5.92,25,5.87,25,5.81c0-0.08-0.07-0.14-0.16-0.14c-0.09,0-0.16,0.06-0.16,0.14c0,0.04,0.02,0.08,0.05,0.1l-0.02,0.08
		c-0.15-0.02-0.32-0.03-0.51-0.04V5.82c0.05-0.04,0.08-0.09,0.08-0.16c0-0.12-0.11-0.21-0.24-0.21c-0.13,0-0.24,0.09-0.24,0.21
		c0,0.06,0.03,0.12,0.08,0.16v0.13c-0.18,0-0.35,0.02-0.51,0.04l-0.02-0.08c0.03-0.03,0.05-0.06,0.05-0.1
		c0-0.08-0.07-0.14-0.16-0.14c-0.09,0-0.16,0.06-0.16,0.14c0,0.06,0.05,0.12,0.12,0.13l0.02,0.07c-0.17,0.03-0.32,0.07-0.42,0.12
		l-0.06-0.11c0.02-0.02,0.03-0.05,0.03-0.07c0-0.08-0.07-0.14-0.16-0.14c-0.04,0-0.07,0.01-0.1,0.03
		C22.47,5.87,22.44,5.9,22.44,5.95L22.44,5.95z M22.44,5.95"/>
	<path class="st117" d="M25.16,6.79c0,0.16-0.5,0.28-1.12,0.28c-0.62,0-1.12-0.13-1.12-0.28c0-0.16,0.5-0.28,1.12-0.28
		C24.66,6.51,25.16,6.64,25.16,6.79L25.16,6.79z M25.16,6.79"/>
	<path class="st86" d="M25.6,4.39l-0.28-0.56c0-0.04-0.03-0.07-0.08-0.1l0.23-0.4c0.04-0.07,0.01-0.15-0.07-0.19
		c-0.08-0.03-0.18-0.01-0.21,0.06l-0.12,0.22l-0.12,0.21c-0.07-0.01-0.14-0.03-0.22-0.04l0.01-0.05c0.07-0.02,0.12-0.07,0.12-0.13
		c0-0.08-0.07-0.14-0.16-0.14c-0.09,0-0.16,0.06-0.16,0.14c0,0.04,0.02,0.08,0.05,0.1l-0.02,0.06c-0.16-0.02-0.33-0.02-0.51-0.02
		s-0.35,0.01-0.51,0.02l-0.02-0.06c0.03-0.03,0.05-0.06,0.05-0.1c0-0.08-0.07-0.14-0.16-0.14c-0.09,0-0.16,0.06-0.16,0.14
		c0,0.06,0.05,0.12,0.11,0.13l0.01,0.05c-0.08,0.01-0.16,0.02-0.22,0.04l-0.12-0.21L22.91,3.2c-0.04-0.07-0.14-0.1-0.21-0.06
		c-0.08,0.04-0.11,0.12-0.07,0.19l0.23,0.4c-0.05,0.03-0.08,0.06-0.08,0.1l-0.28,0.56c0.16-0.16,0.8-0.28,1.56-0.28
		C24.81,4.11,25.45,4.23,25.6,4.39L25.6,4.39z M25.6,4.39"/>
	<path class="st86" d="M24.28,3.33c0,0.12-0.11,0.21-0.24,0.21c-0.13,0-0.24-0.09-0.24-0.21c0-0.12,0.11-0.21,0.24-0.21
		C24.18,3.12,24.28,3.22,24.28,3.33L24.28,3.33z M24.28,3.33"/>
</g>
</svg>
