<?xml version="1.0" encoding="utf-8"?>
<!-- Generator: Adobe Illustrator 25.0.0, SVG Export Plug-In . SVG Version: 6.00 Build 0)  -->
<svg version="1.1" id="Capa_1" xmlns="http://www.w3.org/2000/svg" xmlns:xlink="http://www.w3.org/1999/xlink" x="0px" y="0px"
	 viewBox="0 0 32 18.62" style="enable-background:new 0 0 32 18.62;" xml:space="preserve">
<style type="text/css">
	.st0{fill:#FF4B55;}
	.st1{fill:#464655;}
	.st2{fill:#73AF00;}
	.st3{fill:#F5F5F5;}
	.st4{fill:#41479B;}
	.st5{fill:#FFF5DC;}
	.st6{fill:#D27D69;}
	.st7{fill:#FFE15A;}
	.st8{fill:#B95546;}
	.st9{fill:#DCBE82;}
	.st10{fill:#D2AA73;}
	.st11{fill:#4173CD;}
	.st12{fill:#82AFFF;}
	.st13{fill:#F09146;}
	.st14{fill:#FFB400;}
	.st15{fill:#965032;}
	.st16{fill:#BE7855;}
	.st17{fill:#FFBE3C;}
	.st18{fill:#EAF3F5;}
	.st19{fill:#8C5A28;}
	.st20{fill:#F0C850;}
	.st21{fill:#FF6E55;}
	.st22{fill:#FFBE5A;}
	.st23{fill:#3CC8FF;}
	.st24{fill:#825546;}
	.st25{fill:#FFD255;}
	.st26{fill:#FFD25A;}
	.st27{fill:#509664;}
	.st28{fill:#F0AA00;}
	.st29{fill:#A561CD;}
	.st30{fill:#B34900;}
	.st31{fill:#64B496;}
	.st32{fill:#FF6B71;}
	.st33{fill:#5F64B9;}
	.st34{fill:#F5F0F0;}
	.st35{fill:#5A4646;}
	.st36{fill:#E6E1CD;}
	.st37{fill:#FFD0AF;}
	.st38{fill:#FFAF94;}
	.st39{fill:#8CB400;}
	.st40{fill:#69C3FF;}
	.st41{fill:#009B64;}
	.st42{fill:#5AA0E6;}
	.st43{fill:#FFC88C;}
	.st44{fill:#E1E1E1;}
	.st45{fill:#966446;}
	.st46{fill:#BE915A;}
	.st47{fill:#B9B9B9;}
	.st48{fill:#F0C727;}
	.st49{fill:#50AF69;}
	.st50{fill:#FFE6E6;}
	.st51{fill:#FFB750;}
	.st52{fill:#FFC455;}
	.st53{fill:#FFCD55;}
	.st54{fill:#9BC800;}
	.st55{fill:#FFE14E;}
	.st56{fill:#FFB14E;}
	.st57{fill:#B46446;}
	.st58{fill:#5FA000;}
	.st59{fill:#F2DD30;}
	.st60{fill:#FFC855;}
	.st61{fill:#A0A0A0;}
	.st62{fill:#69B469;}
	.st63{fill:#F4E08F;}
	.st64{fill:#ECD077;}
	.st65{fill:#FCF0A8;}
	.st66{fill:#FAB446;}
	.st67{fill:#C8414B;}
	.st68{fill:#FF9B46;}
	.st69{fill:#FF9B55;}
	.st70{fill:#82C3D2;}
	.st71{fill:#5AA587;}
	.st72{fill:#CDCDCD;}
	.st73{fill:#B4A08C;}
	.st74{fill:#FFD250;}
	.st75{fill:#00C3A0;}
	.st76{fill:#00AADC;}
	.st77{fill:#732D37;}
	.st78{fill:#AAD264;}
	.st79{fill:#874150;}
	.st80{fill:#783C46;}
	.st81{fill:#FFB478;}
	.st82{fill:#9B4B5A;}
	.st83{fill:#FFCD5A;}
	.st84{fill:#FFAA5A;}
	.st85{fill:#FF875A;}
	.st86{fill:#E6B432;}
	.st87{fill:#C86464;}
	.st88{fill:#FFF5E1;}
	.st89{fill:#963C3C;}
	.st90{fill:#5A8250;}
	.st91{fill:#AFEBFF;}
	.st92{fill:#557DE6;}
	.st93{fill:#D23741;}
	.st94{fill:#64C86E;}
	.st95{fill:#873250;}
	.st96{fill:#41AA5A;}
	.st97{fill:#8CD7FF;}
	.st98{fill:#6EC86E;}
	.st99{fill:#FFF0E1;}
	.st100{fill:#FFC75A;}
	.st101{fill:#FFD350;}
	.st102{fill:#FFBE50;}
	.st103{fill:#A54B50;}
	.st104{fill:#C87878;}
	.st105{fill:#FF1722;}
	.st106{fill:#FFB441;}
	.st107{fill:#5064AA;}
	.st108{fill:#FFA0D2;}
	.st109{fill:#FF7350;}
	.st110{fill:#245DBD;}
	.st111{fill:#D35A10;}
	.st112{fill:#FFA033;}
	.st113{fill:#FF9480;}
	.st114{fill:#FFA0E4;}
	.st115{fill:#696E7D;}
	.st116{fill:#FFFCFF;}
	.st117{fill:#EBEBEB;}
	.st118{fill:#FF4B57;}
	.st119{fill:#D2D2D2;}
	.st120{fill:#F0C814;}
	.st121{fill:#F7B518;}
	.st122{fill:#2C2F38;}
	.st123{fill:#4C8056;}
	.st124{fill:#F0C419;}
	.st125{fill:#C03A2B;}
	.st126{fill:#EA3F3F;}
	.st127{fill:#E4E3E1;}
	.st128{fill:#2472B2;}
</style>
<g>
	<path class="st4" d="M10.66,18.55H0.55c-0.3,0-0.55-0.22-0.55-0.49V0.53c0-0.27,0.25-0.49,0.55-0.49h10.11V18.55z M10.66,18.55"/>
	<rect x="10.66" y="0.04" class="st7" width="10.66" height="18.51"/>
	<path class="st0" d="M31.42,18.55H21.31V0.04h10.11c0.3,0,0.55,0.22,0.55,0.49v17.53C31.97,18.33,31.72,18.55,31.42,18.55
		L31.42,18.55z M31.42,18.55"/>
	<path class="st9" d="M19.73,10.88c0-0.14-0.13-0.26-0.29-0.26c-0.03,0-0.07,0.01-0.1,0.02c-0.14-0.11-0.4-0.39-0.14-0.79
		c0.04,0.02,0.08,0.04,0.13,0.04c0.12,0,0.21-0.08,0.21-0.18c0-0.08-0.06-0.15-0.14-0.17c0.21-0.1,0.52-0.3,0.5-0.68
		c-0.02-0.54-0.53-0.84-0.84-0.72c0-0.01,0-0.02,0-0.02c0-0.1-0.09-0.18-0.21-0.18c-0.07,0-0.13,0.03-0.17,0.08
		c-0.01-0.05-0.01-0.16,0.13-0.26c0.27-0.2,0.57-0.69,0.02-1.03c-0.3-0.19-0.89-0.28-1.08-0.02C17.68,6.8,17.75,6.96,17.84,7
		c-0.16,0.08-0.45,0.19-0.68,0.1c-0.33-0.13-0.14-0.38-0.07-0.5c0.13-0.2,0.05-0.53-0.39-0.53c-0.29,0-0.43,0.26-0.72,0.26
		c-0.29,0-0.43-0.26-0.72-0.26c-0.43,0-0.52,0.33-0.39,0.53c0.07,0.11,0.27,0.37-0.07,0.5c-0.23,0.09-0.53-0.03-0.68-0.1
		c0.1-0.04,0.16-0.2,0.08-0.31c-0.19-0.26-0.78-0.17-1.08,0.02c-0.55,0.34-0.25,0.83,0.02,1.03c0.14,0.11,0.14,0.21,0.13,0.26
		c-0.04-0.05-0.1-0.08-0.17-0.08c-0.11,0-0.21,0.08-0.21,0.18c0,0.01,0,0.02,0,0.02c-0.31-0.12-0.81,0.18-0.84,0.72
		c-0.02,0.38,0.29,0.59,0.5,0.68c-0.08,0.03-0.14,0.09-0.14,0.17c0,0.1,0.09,0.18,0.21,0.18c0.05,0,0.09-0.01,0.13-0.04
		c0.26,0.39,0,0.67-0.14,0.79c-0.03-0.01-0.06-0.02-0.1-0.02c-0.16,0-0.29,0.11-0.29,0.26c0,0.13,0.11,0.24,0.26,0.25
		c-0.2,0.18-0.38,0.58,0.01,1.03c0.43,0.5,1.44,0.46,1.93,0.47c0.31,0.01,0.54,0.15,0.67,0.25c-0.08,0.04-0.14,0.13-0.14,0.22
		c0,0.13,0.11,0.23,0.25,0.25c0.05,0.07,0.14,0.12,0.25,0.12c0.12,0,0.21-0.06,0.26-0.15c0.15,0.11,0.26,0.16,0.26,0.16
		s0.1-0.05,0.26-0.16c0.05,0.09,0.15,0.15,0.26,0.15c0.1,0,0.19-0.05,0.25-0.12c0.14-0.02,0.25-0.12,0.25-0.25
		c0-0.09-0.06-0.17-0.14-0.22c0.13-0.1,0.36-0.24,0.67-0.25c0.49-0.02,1.5,0.02,1.93-0.47c0.39-0.45,0.21-0.85,0.01-1.03
		C19.62,11.12,19.73,11.01,19.73,10.88L19.73,10.88z M19.73,10.88"/>
	<path class="st10" d="M13.38,7.59v3.71c0,0.42,0.39,0.77,0.87,0.77h1.16c0.43,0,0.58,0.26,0.58,0.26s0.14-0.26,0.58-0.26h1.16
		c0.48,0,0.87-0.34,0.87-0.77V7.59c0-0.07-0.06-0.13-0.14-0.13h-4.92C13.44,7.46,13.38,7.52,13.38,7.59L13.38,7.59z M13.38,7.59"/>
	<rect x="13.67" y="7.72" class="st0" width="2.17" height="1.92"/>
	<path class="st0" d="M15.84,11.82c-1.2,0-2.17-0.86-2.17-1.92h2.17V11.82z M15.84,11.82"/>
	<path class="st7" d="M16.13,11.82V9.9h2.17C18.3,10.96,17.33,11.82,16.13,11.82L16.13,11.82z M16.13,11.82"/>
	<rect x="16.13" y="7.72" class="st7" width="0.31" height="1.92"/>
	<rect x="16.44" y="7.72" class="st0" width="0.31" height="1.92"/>
	<rect x="16.75" y="7.72" class="st7" width="0.31" height="1.92"/>
	<rect x="17.06" y="7.72" class="st0" width="0.31" height="1.92"/>
	<rect x="17.37" y="7.72" class="st7" width="0.31" height="1.92"/>
	<rect x="17.99" y="7.72" class="st7" width="0.31" height="1.92"/>
	<rect x="17.68" y="7.72" class="st0" width="0.31" height="1.92"/>
	<rect x="14.39" y="9.9" class="st0" width="0.24" height="1.92"/>
	<rect x="14.63" y="9.9" class="st7" width="0.24" height="1.92"/>
	<rect x="15.12" y="9.9" class="st7" width="0.24" height="1.92"/>
	<rect x="14.87" y="9.9" class="st0" width="0.24" height="1.92"/>
	<rect x="15.6" y="9.9" class="st7" width="0.24" height="1.92"/>
	<rect x="15.36" y="9.9" class="st0" width="0.24" height="1.92"/>
	<path class="st7" d="M13.91,11.72V9.9h-0.24v1.41C13.67,11.48,13.76,11.63,13.91,11.72L13.91,11.72z M13.91,11.72"/>
	<path class="st0" d="M14.15,11.81V9.9h-0.24v1.82C13.98,11.76,14.06,11.79,14.15,11.81L14.15,11.81z M14.15,11.81"/>
	<path class="st7" d="M14.15,9.9v1.91c0.03,0,0.06,0.01,0.1,0.01h0.14V9.9H14.15z M14.15,9.9"/>
	<path class="st3" d="M13.99,9.53c-0.01,0-0.02,0-0.03-0.01c-0.14-0.08-0.15-0.17-0.14-0.21c0.01-0.06,0.06-0.11,0.13-0.13
		c0.06-0.02,0.13,0,0.17,0.05c0.09,0.09,0.18,0.13,0.26,0.1c0.06-0.02,0.1-0.07,0.1-0.11c0-0.03,0.03-0.05,0.06-0.05
		c0.03,0,0.06,0.02,0.06,0.05c0,0.09-0.07,0.18-0.17,0.21c-0.07,0.02-0.22,0.04-0.39-0.13c-0.02-0.02-0.04-0.02-0.05-0.01
		c-0.02,0.01-0.04,0.02-0.05,0.04c-0.01,0.03,0.03,0.08,0.09,0.11c0.03,0.02,0.03,0.05,0.02,0.07C14.03,9.52,14.01,9.53,13.99,9.53
		L13.99,9.53z M13.99,9.53"/>
	<path class="st3" d="M15.52,9.53c-0.02,0-0.04-0.01-0.05-0.02c-0.02-0.02-0.01-0.05,0.02-0.07c0.07-0.04,0.1-0.08,0.09-0.11
		c0-0.02-0.03-0.04-0.05-0.04c-0.01,0-0.04,0-0.05,0.01c-0.17,0.17-0.31,0.16-0.39,0.13C15,9.39,14.92,9.3,14.92,9.22
		c0-0.03,0.03-0.05,0.06-0.05c0.03,0,0.06,0.02,0.06,0.05c0,0.04,0.04,0.09,0.1,0.11c0.08,0.03,0.17-0.01,0.26-0.1
		c0.04-0.04,0.11-0.06,0.17-0.05c0.07,0.02,0.12,0.07,0.13,0.13c0.01,0.04,0,0.13-0.14,0.21C15.54,9.53,15.53,9.53,15.52,9.53
		L15.52,9.53z M15.52,9.53"/>
	<path class="st7" d="M13.96,9.59c-0.01,0-0.02,0-0.03-0.01c-0.02-0.02-0.03-0.05-0.01-0.07l1.24-1.44
		c0.01-0.02,0.02-0.04,0.02-0.08c0.01-0.06,0.02-0.13,0.12-0.18c0.06-0.03,0.14-0.03,0.2,0c0.07,0.04,0.11,0.11,0.1,0.18
		c-0.01,0.04-0.03,0.12-0.16,0.16c-0.03,0.01-0.06,0-0.07-0.03c-0.01-0.03,0-0.06,0.03-0.06c0.04-0.01,0.08-0.04,0.09-0.08
		c0-0.03-0.02-0.07-0.05-0.09c-0.02-0.01-0.05-0.02-0.08,0c-0.05,0.03-0.06,0.06-0.07,0.11c-0.01,0.04-0.01,0.08-0.04,0.12L14,9.57
		C13.99,9.58,13.98,9.59,13.96,9.59L13.96,9.59z M13.96,9.59"/>
	<path class="st7" d="M14.76,8.01l-0.57,0.61l0.23,0.61h0.68l0.23-0.61L14.76,8.01z M14.76,8.01"/>
	<path class="st3" d="M14.76,7.93L14.13,8.6l0.25,0.67h0.77L15.4,8.6L14.76,7.93z M14.25,8.62l0.45-0.48v1.02h-0.24L14.25,8.62z
		 M15.06,9.17h-0.24V8.15l0.45,0.48L15.06,9.17z M15.06,9.17"/>
	<path class="st0" d="M17.77,10.5l0.01-0.11c0,0,0.11-0.07,0.06-0.14c-0.05-0.07-0.12-0.08-0.25-0.06
		c-0.13,0.02-0.34,0.01-0.43,0.02c-0.09,0.01-0.14,0.05-0.28,0.01l0.04-0.08c0,0-0.07,0.01-0.11,0.02
		c-0.02,0.01-0.07-0.05-0.13-0.04c-0.05,0.01-0.1,0.1-0.18,0.15l0.04,0.08c0,0,0.05-0.02,0.09,0c0.04,0.02,0.05,0.04,0.11,0.04
		l0.04,0.02c0,0-0.01,0.08,0.05,0.12c0,0-0.07,0.08-0.06,0.09c0.01,0.01,0.07,0.11,0.09,0.17l0.05-0.09c0,0-0.08-0.06-0.06-0.07
		c0.01-0.01,0.07-0.02,0.06-0.04c-0.01-0.02,0.04,0,0.09,0.01c0,0,0,0.08,0.01,0.09c0.01,0.01,0.03,0.05,0.03,0.09
		c0,0.04-0.05,0.06-0.05,0.06l0.08,0.02c0,0,0.02-0.03,0.03-0.02c0,0-0.01-0.21,0.03-0.24c0,0,0.19,0.03,0.27-0.01
		c0,0,0.01,0.01,0.03,0.02c-0.01,0.02-0.02,0.04-0.01,0.04c0.01,0.01,0.03,0.01,0.04,0c0,0,0.01-0.01,0.01-0.03
		c0.01,0,0.02,0.01,0.03,0.01c0,0.02,0,0.03,0,0.03c0.01,0.01,0.03,0,0.03-0.01c0,0,0-0.01,0-0.02c0.01,0,0.03,0,0.05-0.01
		l-0.1,0.14l-0.05,0.02l0.06,0.03l0.06-0.02c0,0,0.05-0.12,0.14-0.16c0,0,0.06,0.13-0.01,0.2l0.07,0.03l0.03-0.06
		c0,0-0.01-0.11,0.03-0.19L17.77,10.5z M17.77,10.5"/>
	<path class="st11" d="M16.68,10.14c0,0-0.03-0.02-0.04-0.06c-0.01-0.03-0.02-0.05-0.05-0.05c0,0,0.02,0.02,0.02,0.05
		c0,0.03,0,0.08,0.02,0.09L16.68,10.14z M16.68,10.14"/>
	<path class="st11" d="M16.94,10.23c0,0-0.04,0.12-0.15,0.18l-0.04-0.02c0,0,0.12-0.09,0.14-0.17L16.94,10.23z M16.94,10.23"/>
	<path class="st11" d="M16.74,10.17c0,0,0.05-0.02,0.04-0.06c-0.01-0.04-0.01-0.07,0.01-0.08c0,0,0,0.03,0.02,0.05
		c0.02,0.02,0.03,0.07,0,0.1C16.81,10.18,16.78,10.2,16.74,10.17L16.74,10.17z M16.74,10.17"/>
	<path class="st11" d="M16.75,10.52c-0.01,0-0.01-0.01-0.01-0.02l0.02-0.03c0.01-0.02,0-0.04-0.02-0.05c-0.02-0.01-0.05,0-0.06,0.02
		l-0.02,0.03c0,0.01-0.01,0.01-0.02,0.01l-0.01,0.02c0,0,0.02,0.01,0.04,0.02l0,0c0,0.01,0,0.02,0.01,0.02c0.01,0,0.02,0,0.02-0.01
		l0,0c0.02,0.01,0.04,0.02,0.04,0.02L16.75,10.52z M16.75,10.52"/>
	<path class="st11" d="M16.89,10.73l0.04,0.01l-0.04,0.1l-0.04-0.05L16.89,10.73z M16.89,10.73"/>
	<path class="st11" d="M16.99,10.84l-0.03,0.04h0.1l0-0.02L16.99,10.84z M16.99,10.84"/>
	<path class="st11" d="M17.5,10.81v0.02h-0.12l0.06-0.05L17.5,10.81z M17.5,10.81"/>
	<path class="st11" d="M17.69,10.83l-0.06,0.05h0.12l0-0.02L17.69,10.83z M17.69,10.83"/>
	<path class="st0" d="M17.77,11.3l0.01-0.11c0,0,0.11-0.07,0.06-0.14c-0.05-0.07-0.12-0.08-0.25-0.06C17.45,11,17.24,11,17.15,11
		c-0.09,0.01-0.14,0.05-0.28,0.01l0.04-0.08c0,0-0.07,0.01-0.11,0.02c-0.02,0.01-0.07-0.05-0.13-0.04c-0.05,0.01-0.1,0.1-0.18,0.15
		l0.04,0.08c0,0,0.05-0.02,0.09,0c0.04,0.02,0.05,0.04,0.11,0.04l0.04,0.02c0,0-0.01,0.08,0.05,0.12c0,0-0.07,0.08-0.06,0.09
		c0.01,0.01,0.07,0.11,0.09,0.17l0.05-0.09c0,0-0.08-0.06-0.06-0.07c0.01-0.01,0.07-0.02,0.06-0.04c-0.01-0.02,0.04,0,0.09,0.01
		c0,0,0,0.08,0.01,0.09c0.01,0.01,0.03,0.05,0.03,0.09c0,0.04-0.05,0.06-0.05,0.06l0.08,0.02c0,0,0.02-0.03,0.03-0.02
		c0,0-0.01-0.21,0.03-0.24c0,0,0.19,0.03,0.27-0.01c0,0,0.01,0.01,0.03,0.02c-0.01,0.02-0.02,0.04-0.01,0.04
		c0.01,0.01,0.03,0.01,0.04,0c0,0,0.01-0.01,0.01-0.03c0.01,0,0.02,0.01,0.03,0.01c0,0.02,0,0.03,0,0.03c0.01,0.01,0.03,0,0.03-0.01
		c0,0,0-0.01,0-0.02c0.01,0,0.03,0,0.05-0.01l-0.1,0.14l-0.05,0.02l0.06,0.03l0.06-0.02c0,0,0.05-0.12,0.14-0.16
		c0,0,0.06,0.13-0.01,0.2l0.07,0.03l0.03-0.06c0,0-0.01-0.11,0.03-0.19L17.77,11.3z M17.77,11.3"/>
	<path class="st11" d="M16.68,10.94c0,0-0.03-0.02-0.04-0.06c-0.01-0.03-0.02-0.05-0.05-0.05c0,0,0.02,0.02,0.02,0.05
		c0,0.03,0,0.08,0.02,0.09L16.68,10.94z M16.68,10.94"/>
	<path class="st11" d="M16.94,11.03c0,0-0.04,0.12-0.15,0.18l-0.04-0.02c0,0,0.12-0.09,0.14-0.17L16.94,11.03z M16.94,11.03"/>
	<path class="st11" d="M16.74,10.96c0,0,0.05-0.02,0.04-0.06c-0.01-0.04-0.01-0.07,0.01-0.08c0,0,0,0.03,0.02,0.05
		c0.02,0.02,0.03,0.07,0,0.1C16.81,10.98,16.78,11,16.74,10.96L16.74,10.96z M16.74,10.96"/>
	<path class="st11" d="M16.75,11.31c-0.01,0-0.01-0.01-0.01-0.02l0.02-0.03c0.01-0.02,0-0.04-0.02-0.05c-0.02-0.01-0.05,0-0.06,0.02
		l-0.02,0.03c0,0.01-0.01,0.01-0.02,0.01l-0.01,0.02c0,0,0.02,0.01,0.04,0.02l0,0c0,0.01,0,0.02,0.01,0.02c0.01,0,0.02,0,0.02-0.01
		l0,0c0.02,0.01,0.04,0.02,0.04,0.02L16.75,11.31z M16.75,11.31"/>
	<path class="st11" d="M16.89,11.53l0.04,0.01l-0.04,0.1l-0.04-0.05L16.89,11.53z M16.89,11.53"/>
	<path class="st11" d="M16.99,11.63l-0.03,0.04h0.1l0-0.02L16.99,11.63z M16.99,11.63"/>
	<path class="st11" d="M17.5,11.6v0.02h-0.12l0.06-0.05L17.5,11.6z M17.5,11.6"/>
	<path class="st11" d="M17.69,11.62l-0.06,0.05h0.12l0-0.02L17.69,11.62z M17.69,11.62"/>
</g>
</svg>
