<?xml version="1.0" encoding="utf-8"?>
<!-- Generator: Adobe Illustrator 25.0.0, SVG Export Plug-In . SVG Version: 6.00 Build 0)  -->
<svg version="1.1" id="Capa_1" xmlns="http://www.w3.org/2000/svg" xmlns:xlink="http://www.w3.org/1999/xlink" x="0px" y="0px"
	 viewBox="0 0 32 20" style="enable-background:new 0 0 32 20;" xml:space="preserve">
<style type="text/css">
	.st0{fill:#FF4B55;}
	.st1{fill:#464655;}
	.st2{fill:#73AF00;}
	.st3{fill:#F5F5F5;}
	.st4{fill:#41479B;}
	.st5{fill:#FFF5DC;}
	.st6{fill:#D27D69;}
	.st7{fill:#FFE15A;}
	.st8{fill:#B95546;}
	.st9{fill:#DCBE82;}
	.st10{fill:#D2AA73;}
	.st11{fill:#4173CD;}
	.st12{fill:#82AFFF;}
	.st13{fill:#F09146;}
	.st14{fill:#FFB400;}
	.st15{fill:#965032;}
	.st16{fill:#BE7855;}
	.st17{fill:#FFBE3C;}
	.st18{fill:#EAF3F5;}
	.st19{fill:#8C5A28;}
	.st20{fill:#F0C850;}
	.st21{fill:#FF6E55;}
	.st22{fill:#FFBE5A;}
	.st23{fill:#3CC8FF;}
	.st24{fill:#825546;}
	.st25{fill:#FFD255;}
	.st26{fill:#FFD25A;}
	.st27{fill:#509664;}
	.st28{fill:#F0AA00;}
	.st29{fill:#A561CD;}
	.st30{fill:#B34900;}
	.st31{fill:#64B496;}
	.st32{fill:#FF6B71;}
	.st33{fill:#5F64B9;}
	.st34{fill:#F5F0F0;}
	.st35{fill:#5A4646;}
	.st36{fill:#E6E1CD;}
	.st37{fill:#FFD0AF;}
	.st38{fill:#FFAF94;}
	.st39{fill:#8CB400;}
	.st40{fill:#69C3FF;}
	.st41{fill:#009B64;}
	.st42{fill:#5AA0E6;}
	.st43{fill:#FFC88C;}
	.st44{fill:#E1E1E1;}
	.st45{fill:#966446;}
	.st46{fill:#BE915A;}
	.st47{fill:#B9B9B9;}
	.st48{fill:#F0C727;}
	.st49{fill:#50AF69;}
	.st50{fill:#FFE6E6;}
	.st51{fill:#FFB750;}
	.st52{fill:#FFC455;}
	.st53{fill:#FFCD55;}
	.st54{fill:#9BC800;}
	.st55{fill:#FFE14E;}
	.st56{fill:#FFB14E;}
	.st57{fill:#B46446;}
	.st58{fill:#5FA000;}
	.st59{fill:#F2DD30;}
	.st60{fill:#FFC855;}
	.st61{fill:#A0A0A0;}
	.st62{fill:#69B469;}
	.st63{fill:#F4E08F;}
	.st64{fill:#ECD077;}
	.st65{fill:#FCF0A8;}
	.st66{fill:#FAB446;}
	.st67{fill:#C8414B;}
	.st68{fill:#FF9B46;}
	.st69{fill:#FF9B55;}
	.st70{fill:#82C3D2;}
	.st71{fill:#5AA587;}
	.st72{fill:#CDCDCD;}
	.st73{fill:#B4A08C;}
	.st74{fill:#FFD250;}
	.st75{fill:#00C3A0;}
	.st76{fill:#00AADC;}
	.st77{fill:#732D37;}
	.st78{fill:#AAD264;}
	.st79{fill:#874150;}
	.st80{fill:#783C46;}
	.st81{fill:#FFB478;}
	.st82{fill:#9B4B5A;}
	.st83{fill:#FFCD5A;}
	.st84{fill:#FFAA5A;}
	.st85{fill:#FF875A;}
	.st86{fill:#E6B432;}
	.st87{fill:#C86464;}
	.st88{fill:#FFF5E1;}
	.st89{fill:#963C3C;}
	.st90{fill:#5A8250;}
	.st91{fill:#AFEBFF;}
	.st92{fill:#557DE6;}
	.st93{fill:#D23741;}
	.st94{fill:#64C86E;}
	.st95{fill:#873250;}
	.st96{fill:#41AA5A;}
	.st97{fill:#8CD7FF;}
	.st98{fill:#6EC86E;}
	.st99{fill:#FFF0E1;}
	.st100{fill:#FFC75A;}
	.st101{fill:#FFD350;}
	.st102{fill:#FFBE50;}
	.st103{fill:#A54B50;}
	.st104{fill:#C87878;}
	.st105{fill:#FF1722;}
	.st106{fill:#FFB441;}
	.st107{fill:#5064AA;}
	.st108{fill:#FFA0D2;}
	.st109{fill:#FF7350;}
	.st110{fill:#245DBD;}
	.st111{fill:#D35A10;}
	.st112{fill:#FFA033;}
	.st113{fill:#FF9480;}
	.st114{fill:#FFA0E4;}
	.st115{fill:#696E7D;}
	.st116{fill:#FFFCFF;}
	.st117{fill:#EBEBEB;}
	.st118{fill:#FF4B57;}
	.st119{fill:#D2D2D2;}
	.st120{fill:#F0C814;}
	.st121{fill:#F7B518;}
	.st122{fill:#2C2F38;}
	.st123{fill:#4C8056;}
	.st124{fill:#F0C419;}
	.st125{fill:#C03A2B;}
	.st126{fill:#EA3F3F;}
	.st127{fill:#E4E3E1;}
	.st128{fill:#2472B2;}
</style>
<g>
	<path class="st1" d="M10.67,20H0.55C0.25,20,0,19.76,0,19.47V0.53C0,0.24,0.25,0,0.55,0h10.12V20z M10.67,20"/>
	<rect x="10.67" y="0" class="st0" width="10.67" height="20"/>
	<path class="st2" d="M31.45,20H21.33V0h10.12C31.75,0,32,0.24,32,0.53v18.95C32,19.76,31.75,20,31.45,20L31.45,20z M31.45,20"/>
	<path class="st3" d="M17.44,11.03h-2.88l0.16-0.31h2.56L17.44,11.03z M17.44,11.03"/>
	<path class="st3" d="M17.44,8.59h-2.88l0.16,0.31h2.56L17.44,8.59z M17.44,8.59"/>
	<path class="st3" d="M16.8,8.74h-1.6l0.32-0.31h0.96L16.8,8.74z M16.8,8.74"/>
	<rect x="14.72" y="10.27" class="st3" width="0.48" height="0.31"/>
	<rect x="14.72" y="9.81" class="st3" width="0.48" height="0.31"/>
	<rect x="14.72" y="9.05" class="st3" width="0.48" height="0.31"/>
	<rect x="14.72" y="9.51" class="st3" width="0.48" height="0.15"/>
	<rect x="16.8" y="10.27" class="st3" width="0.48" height="0.31"/>
	<rect x="16.8" y="9.81" class="st3" width="0.48" height="0.31"/>
	<rect x="16.8" y="9.05" class="st3" width="0.48" height="0.31"/>
	<rect x="16.8" y="9.51" class="st3" width="0.48" height="0.15"/>
	<rect x="14.88" y="7.83" class="st3" width="0.32" height="0.61"/>
	<path class="st3" d="M15.2,7.67h-0.32V7.52c0-0.08,0.07-0.15,0.16-0.15c0.09,0,0.16,0.07,0.16,0.15V7.67z M15.2,7.67"/>
	<rect x="16.8" y="7.83" class="st3" width="0.32" height="0.61"/>
	<path class="st3" d="M17.12,7.67H16.8V7.52c0-0.08,0.07-0.15,0.16-0.15c0.09,0,0.16,0.07,0.16,0.15V7.67z M17.12,7.67"/>
	<path class="st3" d="M16,9.05c-0.35,0-0.64,0.27-0.64,0.61v0.92h1.28V9.66C16.64,9.32,16.35,9.05,16,9.05L16,9.05z M16,9.05"/>
	<path class="st3" d="M14.94,10.01l-0.87-0.97c0.01-0.02,0.01-0.03,0.01-0.05c0-0.08-0.07-0.15-0.16-0.15
		c-0.09,0-0.16,0.07-0.16,0.15c0,0.08,0.07,0.15,0.16,0.15c0.01,0,0.02,0,0.03-0.01l0.09,0.1l-0.44,0.97l0.48,0.46l0.41-0.92
		l0.32,0.36L14.94,10.01z M14.16,10.33l-0.38-0.37l0.17-0.38l0.38,0.37L14.16,10.33z M14.16,10.33"/>
	<path class="st3" d="M17.18,10.11l0.32-0.36l0.41,0.92l0.48-0.46l-0.44-0.97l0.09-0.1c0.01,0,0.02,0.01,0.03,0.01
		c0.09,0,0.16-0.07,0.16-0.15c0-0.08-0.07-0.15-0.16-0.15c-0.09,0-0.16,0.07-0.16,0.15c0,0.02,0,0.03,0.01,0.05l-0.87,0.97
		L17.18,10.11z M17.67,9.94l0.38-0.37l0.17,0.38l-0.38,0.37L17.67,9.94z M17.67,9.94"/>
	<path class="st3" d="M16.18,7.55c-0.05-0.01-0.1-0.04-0.12-0.08c-0.02-0.03-0.04-0.06-0.06-0.1c-0.02,0.04-0.04,0.07-0.06,0.1
		c-0.03,0.04-0.07,0.07-0.12,0.08c-0.26,0.07-0.46,0.31-0.46,0.58c0,0.05,0.01,0.1,0.02,0.15h1.23c0.01-0.05,0.02-0.1,0.02-0.15
		C16.64,7.86,16.45,7.62,16.18,7.55L16.18,7.55z M16.18,7.55"/>
	<path class="st3" d="M12.33,9.79c-0.01-0.09-0.01-0.19-0.01-0.29c0-0.2,0.02-0.39,0.05-0.58c0.05,0.03,0.09,0.06,0.14,0.1
		c-0.02,0.16-0.04,0.32-0.04,0.48c0,0.11,0.01,0.22,0.02,0.33l0.34,0.1C12.81,9.8,12.8,9.65,12.8,9.51c0-0.07,0-0.15,0.01-0.22
		c0.18,0.19,0.32,0.41,0.32,0.66c0,0.01,0.51-0.72-0.42-1.53L12.7,8.76l-0.54-0.01c-0.05,0-0.09,0.03-0.1,0.08
		C12.02,9.05,12,9.28,12,9.51c0,0.06,0,0.13,0,0.19L12.33,9.79z M12.33,9.79"/>
	<path class="st3" d="M13.75,6.73c0.07-0.05,0.08-0.15,0.03-0.21c-0.05-0.07-0.15-0.08-0.22-0.03c-0.72,0.53-1.22,1.27-1.44,2.09
		l0.33,0C12.66,7.85,13.11,7.2,13.75,6.73L13.75,6.73z M13.75,6.73"/>
	<path class="st3" d="M13.54,7.11c-0.35,0.32-0.61,0.71-0.79,1.12c0.1,0.08,0.18,0.16,0.25,0.23c0.16-0.42,0.42-0.81,0.77-1.14
		c0.06-0.06,0.06-0.16,0-0.22C13.7,7.05,13.6,7.05,13.54,7.11L13.54,7.11z M13.54,7.11"/>
	<path class="st3" d="M12.98,11.51c-0.24-0.32-0.42-0.69-0.53-1.08l0.19,0.07c0.12,0.36,0.29,0.69,0.52,0.98l0.35-0.06
		c-0.2-0.24-0.36-0.5-0.48-0.79l0.21,0.07c0.12,0.25,0.27,0.48,0.45,0.68l0.37-0.06c-0.14-0.14-0.27-0.3-0.38-0.47l-0.21-0.41
		c-0.07-0.13-0.18-0.22-0.32-0.26l-0.5-0.14l-0.12-0.03l-0.17-0.05l-0.33-0.1l-0.18-0.05l0.11,0.32c0.02,0.07,0.07,0.13,0.14,0.17
		c0.1,0.46,0.29,0.89,0.55,1.28L12.98,11.51z M12.98,11.51"/>
	<path class="st3" d="M19.3,8.76l-0.01-0.34c-0.93,0.81-0.42,1.54-0.42,1.53c0-0.25,0.14-0.48,0.32-0.66
		c0.01,0.07,0.01,0.14,0.01,0.22c0,0.15-0.01,0.29-0.04,0.43l0.34-0.1c0.01-0.11,0.02-0.22,0.02-0.33c0-0.16-0.01-0.32-0.04-0.48
		c0.05-0.04,0.1-0.07,0.14-0.1c0.03,0.19,0.05,0.38,0.05,0.58c0,0.1-0.01,0.19-0.01,0.29l0.33-0.09C20,9.63,20,9.57,20,9.51
		c0-0.23-0.02-0.45-0.06-0.67c-0.01-0.05-0.05-0.08-0.1-0.08L19.3,8.76z M19.3,8.76"/>
	<path class="st3" d="M19.55,8.58l0.33,0c-0.22-0.82-0.71-1.55-1.44-2.09c-0.07-0.05-0.17-0.04-0.22,0.03
		c-0.05,0.07-0.04,0.16,0.03,0.21C18.89,7.2,19.34,7.85,19.55,8.58L19.55,8.58z M19.55,8.58"/>
	<path class="st3" d="M19.25,8.23c-0.18-0.42-0.44-0.8-0.79-1.12c-0.06-0.06-0.16-0.06-0.23,0c-0.06,0.06-0.06,0.16,0,0.22
		c0.35,0.33,0.61,0.71,0.77,1.14C19.07,8.39,19.15,8.31,19.25,8.23L19.25,8.23z M19.25,8.23"/>
	<path class="st3" d="M19.98,9.86l-0.33,0.1l-0.17,0.05l-0.12,0.03l-0.5,0.14c-0.14,0.04-0.26,0.13-0.32,0.26l-0.21,0.41
		c-0.11,0.17-0.24,0.33-0.38,0.47l0.37,0.06c0.18-0.2,0.33-0.43,0.45-0.68l0.21-0.07c-0.12,0.29-0.28,0.55-0.48,0.79l0.35,0.06
		c0.23-0.3,0.4-0.63,0.52-0.98l0.19-0.07c-0.11,0.39-0.29,0.76-0.53,1.08l0.35,0.06c0.26-0.38,0.45-0.81,0.55-1.28
		c0.06-0.04,0.11-0.1,0.14-0.16l0.11-0.32L19.98,9.86z M19.98,9.86"/>
	<path class="st3" d="M17.67,11.55L17.67,11.55C17.19,11.9,16.62,12.1,16,12.1s-1.19-0.2-1.66-0.54l-0.01-0.01
		c-0.06-0.06-0.15-0.09-0.24-0.07l-1.61,0.32l0.36,0.3c0.1,0.08,0.22,0.12,0.34,0.11c0.29,0.27,0.62,0.51,0.98,0.69l-0.1,0.18
		c0.58,0.3,1.24,0.47,1.94,0.47c0.7,0,1.36-0.17,1.94-0.47l-0.1-0.18c0.36-0.18,0.69-0.41,0.98-0.69c0.12,0.01,0.25-0.03,0.34-0.11
		l0.36-0.3l-1.61-0.32C17.82,11.46,17.73,11.49,17.67,11.55L17.67,11.55z M14.31,12.62c-0.29-0.14-0.56-0.33-0.79-0.53l0.16-0.07
		c0.22,0.18,0.46,0.34,0.71,0.47L14.31,12.62z M18.48,12.09c-0.24,0.21-0.5,0.39-0.79,0.53l-0.08-0.13c0.26-0.13,0.5-0.29,0.71-0.47
		L18.48,12.09z M16,12.56c-0.76,0-1.46-0.26-2.01-0.68l0.16-0.07c0.52,0.38,1.16,0.6,1.85,0.6s1.33-0.22,1.85-0.6l0.16,0.07
		C17.46,12.3,16.76,12.56,16,12.56L16,12.56z M16,12.56"/>
	<path class="st3" d="M14.24,11.33c0.07,0.06,0.14,0.11,0.21,0.16h3.08c0.07-0.05,0.15-0.1,0.21-0.16l-0.16-0.15h-3.2L14.24,11.33z
		 M14.24,11.33"/>
</g>
</svg>
