<?xml version="1.0" encoding="utf-8"?>
<!-- Generator: Adobe Illustrator 25.0.0, SVG Export Plug-In . SVG Version: 6.00 Build 0)  -->
<svg version="1.1" id="Capa_1" xmlns="http://www.w3.org/2000/svg" xmlns:xlink="http://www.w3.org/1999/xlink" x="0px" y="0px"
	 viewBox="0 0 32 18.62" style="enable-background:new 0 0 32 18.62;" xml:space="preserve">
<style type="text/css">
	.st0{fill:#FF4B55;}
	.st1{fill:#464655;}
	.st2{fill:#73AF00;}
	.st3{fill:#F5F5F5;}
	.st4{fill:#41479B;}
	.st5{fill:#FFF5DC;}
	.st6{fill:#D27D69;}
	.st7{fill:#FFE15A;}
	.st8{fill:#B95546;}
	.st9{fill:#DCBE82;}
	.st10{fill:#D2AA73;}
	.st11{fill:#4173CD;}
	.st12{fill:#82AFFF;}
	.st13{fill:#F09146;}
	.st14{fill:#FFB400;}
	.st15{fill:#965032;}
	.st16{fill:#BE7855;}
	.st17{fill:#FFBE3C;}
	.st18{fill:#EAF3F5;}
	.st19{fill:#8C5A28;}
	.st20{fill:#F0C850;}
	.st21{fill:#FF6E55;}
	.st22{fill:#FFBE5A;}
	.st23{fill:#3CC8FF;}
	.st24{fill:#825546;}
	.st25{fill:#FFD255;}
	.st26{fill:#FFD25A;}
	.st27{fill:#509664;}
	.st28{fill:#F0AA00;}
	.st29{fill:#A561CD;}
	.st30{fill:#B34900;}
	.st31{fill:#64B496;}
	.st32{fill:#FF6B71;}
	.st33{fill:#5F64B9;}
	.st34{fill:#F5F0F0;}
	.st35{fill:#5A4646;}
	.st36{fill:#E6E1CD;}
	.st37{fill:#FFD0AF;}
	.st38{fill:#FFAF94;}
	.st39{fill:#8CB400;}
	.st40{fill:#69C3FF;}
	.st41{fill:#009B64;}
	.st42{fill:#5AA0E6;}
	.st43{fill:#FFC88C;}
	.st44{fill:#E1E1E1;}
	.st45{fill:#966446;}
	.st46{fill:#BE915A;}
	.st47{fill:#B9B9B9;}
	.st48{fill:#F0C727;}
	.st49{fill:#50AF69;}
	.st50{fill:#FFE6E6;}
	.st51{fill:#FFB750;}
	.st52{fill:#FFC455;}
	.st53{fill:#FFCD55;}
	.st54{fill:#9BC800;}
	.st55{fill:#FFE14E;}
	.st56{fill:#FFB14E;}
	.st57{fill:#B46446;}
	.st58{fill:#5FA000;}
	.st59{fill:#F2DD30;}
	.st60{fill:#FFC855;}
	.st61{fill:#A0A0A0;}
	.st62{fill:#69B469;}
	.st63{fill:#F4E08F;}
	.st64{fill:#ECD077;}
	.st65{fill:#FCF0A8;}
	.st66{fill:#FAB446;}
	.st67{fill:#C8414B;}
	.st68{fill:#FF9B46;}
	.st69{fill:#FF9B55;}
	.st70{fill:#82C3D2;}
	.st71{fill:#5AA587;}
	.st72{fill:#CDCDCD;}
	.st73{fill:#B4A08C;}
	.st74{fill:#FFD250;}
	.st75{fill:#00C3A0;}
	.st76{fill:#00AADC;}
	.st77{fill:#732D37;}
	.st78{fill:#AAD264;}
	.st79{fill:#874150;}
	.st80{fill:#783C46;}
	.st81{fill:#FFB478;}
	.st82{fill:#9B4B5A;}
	.st83{fill:#FFCD5A;}
	.st84{fill:#FFAA5A;}
	.st85{fill:#FF875A;}
	.st86{fill:#E6B432;}
	.st87{fill:#C86464;}
	.st88{fill:#FFF5E1;}
	.st89{fill:#963C3C;}
	.st90{fill:#5A8250;}
	.st91{fill:#AFEBFF;}
	.st92{fill:#557DE6;}
	.st93{fill:#D23741;}
	.st94{fill:#64C86E;}
	.st95{fill:#873250;}
	.st96{fill:#41AA5A;}
	.st97{fill:#8CD7FF;}
	.st98{fill:#6EC86E;}
	.st99{fill:#FFF0E1;}
	.st100{fill:#FFC75A;}
	.st101{fill:#FFD350;}
	.st102{fill:#FFBE50;}
	.st103{fill:#A54B50;}
	.st104{fill:#C87878;}
	.st105{fill:#FF1722;}
	.st106{fill:#FFB441;}
	.st107{fill:#5064AA;}
	.st108{fill:#FFA0D2;}
	.st109{fill:#FF7350;}
	.st110{fill:#245DBD;}
	.st111{fill:#D35A10;}
	.st112{fill:#FFA033;}
	.st113{fill:#FF9480;}
	.st114{fill:#FFA0E4;}
	.st115{fill:#696E7D;}
	.st116{fill:#FFFCFF;}
	.st117{fill:#EBEBEB;}
	.st118{fill:#FF4B57;}
	.st119{fill:#D2D2D2;}
	.st120{fill:#F0C814;}
	.st121{fill:#F7B518;}
	.st122{fill:#2C2F38;}
	.st123{fill:#4C8056;}
	.st124{fill:#F0C419;}
	.st125{fill:#C03A2B;}
	.st126{fill:#EA3F3F;}
	.st127{fill:#E4E3E1;}
	.st128{fill:#2472B2;}
</style>
<g>
	<path class="st0" d="M31.42,18.55H0.55c-0.3,0-0.55-0.22-0.55-0.49V0.53c0-0.27,0.25-0.49,0.55-0.49h30.87
		c0.3,0,0.55,0.22,0.55,0.49v17.53C31.97,18.33,31.72,18.55,31.42,18.55L31.42,18.55z M31.42,18.55"/>
	<path class="st1" d="M22.01,11.6c-0.3-0.17-0.48,0.1-0.48,0.1l-0.88,0.09l0.44-0.33c0.32,0.02,0.36-0.06,0.45-0.18
		c0.09-0.11,0.45-0.06,0.45-0.06c-0.05-0.35-0.55-0.15-0.55-0.15c-0.4-0.04-0.47,0.25-0.47,0.25l-0.63,0.43l-1.38-0.36
		c0.14-0.14,0.26-0.28,0.27-0.36c0.03-0.14-1.02-0.38-1.34-0.67c-0.32-0.29-0.44-0.76-0.29-0.88c0.15-0.12,0.28,0.22,0.44,0.51
		c0.16,0.28,0.46,0.51,0.65,0.37c0.2-0.14-0.21-0.36-0.39-0.66c-0.18-0.3,0.14-0.42,0.29-0.39c0.15,0.03,0.24,0.66,0.6,0.98
		c0.36,0.32,0.68,0.26,0.71,0.06c0.03-0.2-0.59-0.45-0.71-0.63c-0.13-0.17-0.16-0.51,0.05-0.52c0.21-0.01,0.96,0.99,1.61,1.37
		c0.7,0.42,1.26-0.07,1.17-0.27c-0.09-0.2-0.52-0.12-1.01-0.23c-0.49-0.11-1-0.7-1.15-1.02c-0.15-0.32-0.03-0.32,0.06-0.29
		c0.09,0.03,0.41,0.46,1.04,0.78c0.63,0.33,1.07,0.02,1.12-0.06c0.05-0.08,0.25-0.42-0.4-0.34c-0.74,0.09-1.15-0.29-1.46-0.5
		c-0.3-0.21-0.42-0.49-0.28-0.6c0.14-0.11,0.59,0.4,1.28,0.56c0.63,0.15,0.89-0.09,0.87-0.31c-0.02-0.22-0.16-0.13-0.88-0.19
		c-0.71-0.06-1.21-0.65-1.24-0.69c-0.03-0.04-0.02-0.25,0.34-0.05c0.36,0.21,1.01,0.33,1.39,0.31c0.38-0.02,0.46-0.46,0.28-0.54
		c-0.18-0.08-0.22,0.04-0.64,0.11c-0.41,0.08-1.19-0.3-1.38-0.47c-0.19-0.18,0.02-0.29,0.11-0.27c0.09,0.02,0.71,0.33,1.27,0.32
		c0.55-0.02,0.78-0.46,0.77-0.6c-0.02-0.14-0.17-0.25-0.4-0.11c-0.23,0.14-0.54,0.3-1.06,0.22c-0.52-0.08-0.76-0.38-0.69-0.49
		c0.07-0.11,0.57,0.08,1.36,0.01c0.79-0.08,0.83-0.69,0.75-0.81c-0.08-0.12-0.27-0.08-0.53,0.14c-0.27,0.22-0.78,0.27-1.19,0.27
		c-0.4,0-0.41-0.17-0.35-0.3c0.06-0.12,0.49-0.09,1.09-0.26c0.6-0.17,0.95-0.59,1.04-0.86c0.09-0.27-0.14-0.47-0.23-0.47
		c-0.09,0-0.03-0.12-0.45,0.4c-0.41,0.53-1.5,0.73-1.5,0.73c-0.08-0.13-0.2-0.18-0.2-0.18c-0.73,0.13-1.61,0.69-1.61,0.69
		s0.16,0.44-0.04,0.79c-0.25,0.44-1.11,0.17-0.88-0.53c0.19-0.58,0.95-0.93,1.58-1c0.64-0.06,0.67-0.28,0.67-0.28
		s-0.67,0.19-0.68-0.07c0.14,0.02,0.34,0.04,0.69,0.01c0.51-0.04,0.8-0.36,0.57-0.43c-0.23-0.07-0.13,0.14-0.52,0.3
		c-0.28,0.11-0.57,0.06-0.71,0.02c0.13-0.26,0.7-0.13,0.7-0.13c0.01-0.45-0.67-0.29-0.67-0.29c-0.3-0.57-2.04,0.09-2.04,0.09
		l0.41,0.29c-1.01,0.5-1.22,1.44-1.22,1.44s-0.21-0.94-1.22-1.44l0.41-0.29c0,0-1.75-0.66-2.04-0.09c0,0-0.68-0.16-0.67,0.29
		c0,0,0.57-0.13,0.7,0.13c-0.15,0.04-0.44,0.09-0.71-0.02c-0.39-0.16-0.29-0.37-0.52-0.3C11.7,3.74,11.99,4.06,12.5,4.1
		c0.34,0.03,0.55,0.02,0.69-0.01c-0.01,0.26-0.68,0.07-0.68,0.07s0.03,0.21,0.67,0.28c0.64,0.06,1.39,0.41,1.58,1
		c0.23,0.7-0.63,0.98-0.88,0.53c-0.19-0.34-0.04-0.79-0.04-0.79s-0.88-0.56-1.61-0.69c0,0-0.12,0.05-0.2,0.17
		c0,0-1.09-0.21-1.5-0.73c-0.41-0.53-0.35-0.4-0.45-0.4c-0.09,0-0.33,0.21-0.23,0.47c0.09,0.27,0.44,0.69,1.04,0.86
		c0.6,0.17,1.03,0.14,1.09,0.26c0.06,0.12,0.05,0.3-0.35,0.3c-0.4,0-0.92-0.05-1.19-0.27C10.18,4.94,9.99,4.9,9.91,5.02
		c-0.08,0.12-0.04,0.74,0.75,0.81c0.79,0.08,1.29-0.12,1.36-0.01c0.07,0.11-0.17,0.42-0.69,0.49c-0.52,0.08-0.83-0.08-1.06-0.22
		c-0.23-0.14-0.39-0.02-0.4,0.11c-0.02,0.14,0.22,0.59,0.77,0.6c0.55,0.02,1.17-0.3,1.27-0.32c0.09-0.02,0.3,0.1,0.11,0.27
		c-0.19,0.17-0.96,0.55-1.38,0.47C10.22,7.17,10.18,7.05,10,7.13c-0.18,0.08-0.1,0.53,0.28,0.54c0.38,0.02,1.02-0.11,1.39-0.31
		c0.36-0.21,0.37,0.01,0.34,0.05c-0.03,0.04-0.53,0.63-1.24,0.69C10.05,8.16,9.9,8.06,9.89,8.29c-0.02,0.22,0.24,0.46,0.87,0.31
		c0.69-0.16,1.14-0.68,1.28-0.56c0.14,0.11,0.02,0.4-0.28,0.6c-0.3,0.21-0.72,0.59-1.46,0.5C9.65,9.06,9.85,9.4,9.9,9.47
		c0.05,0.08,0.49,0.39,1.12,0.06c0.63-0.33,0.96-0.75,1.04-0.78c0.09-0.03,0.21-0.03,0.06,0.29c-0.15,0.32-0.65,0.91-1.15,1.02
		c-0.49,0.11-0.92,0.03-1.01,0.23c-0.09,0.2,0.47,0.69,1.17,0.27c0.64-0.38,1.4-1.38,1.61-1.37c0.21,0.01,0.17,0.35,0.05,0.52
		c-0.13,0.17-0.75,0.42-0.71,0.63c0.03,0.2,0.36,0.26,0.71-0.06c0.36-0.32,0.45-0.95,0.6-0.98c0.15-0.03,0.47,0.08,0.29,0.39
		c-0.18,0.3-0.59,0.52-0.39,0.66c0.2,0.14,0.49-0.08,0.65-0.37c0.16-0.28,0.29-0.63,0.44-0.51c0.15,0.12,0.03,0.59-0.29,0.88
		c-0.32,0.29-1.37,0.53-1.34,0.67c0.02,0.08,0.13,0.22,0.27,0.36l-1.38,0.36l-0.63-0.43c0,0-0.07-0.29-0.47-0.25
		c0,0-0.5-0.2-0.55,0.15c0,0,0.36-0.05,0.45,0.06c0.09,0.11,0.13,0.2,0.45,0.18l0.44,0.33l-0.88-0.09c0,0-0.18-0.27-0.48-0.1
		c0,0-0.38-0.11-0.47,0.21c0,0,0.33-0.05,0.41-0.02c0,0,0.13,0.26,0.54,0.11l0.87,0.04l-0.49,0.21c0,0-0.62-0.18-0.59,0.28
		c0,0-0.18,0.18-0.02,0.37c0,0,0.03-0.2,0.2-0.28c0,0,0.32,0.11,0.53-0.22l0.63-0.33l0.62,0.27c0,0-0.02,0.3,0.44,0.18
		c0,0,0.16,0.09,0.2,0.21c0,0,0.2-0.19-0.12-0.41c0,0-0.08-0.26-0.46-0.16l-0.35-0.16l1.31-0.34c0.23,0.19,0.47,0.35,0.56,0.32
		c0.17-0.05,0.3-0.21,0.42-0.42c0.12-0.22,0.64-0.97,0.9-0.97c0.26,0.01,0.38,0.19,0.31,0.52c-0.06,0.33-0.57,0.95-0.9,1.08
		c-0.33,0.13-0.38,0.19-0.68,0.17c-0.3-0.02-0.4,0.09-0.34,0.24c0.07,0.15,0.41,0.25,0.74,0.14c0.36-0.12,0.5-0.29,0.64-0.19
		c0.14,0.1-0.15,0.46-0.53,0.56c-0.39,0.11-0.68,0.04-0.62,0.25c0.06,0.21,0.47,0.23,0.74,0.09c0.27-0.14,0.57-0.52,0.65-0.4
		c0.08,0.12,0.03,0.43-0.23,0.6c-0.26,0.17-0.55,0.07-0.61,0.22c-0.09,0.22,0.22,0.37,0.45,0.28c0.23-0.08,0.5-0.34,0.62-0.57
		c0.12-0.23,0.34-0.03,0.28,0.18c-0.07,0.21-0.01,0.39-0.51,0.72l0.92,1.25l0.92-1.25c-0.49-0.33-0.44-0.51-0.51-0.72
		c-0.07-0.21,0.15-0.41,0.28-0.18c0.12,0.23,0.39,0.49,0.62,0.57c0.23,0.08,0.53-0.06,0.45-0.28c-0.06-0.15-0.35-0.05-0.61-0.22
		c-0.26-0.17-0.31-0.48-0.23-0.6c0.08-0.12,0.38,0.26,0.65,0.4c0.27,0.14,0.68,0.12,0.74-0.09c0.06-0.21-0.23-0.14-0.62-0.25
		c-0.39-0.11-0.67-0.46-0.53-0.56c0.14-0.1,0.28,0.07,0.64,0.19c0.33,0.11,0.67,0.02,0.74-0.14c0.07-0.15-0.03-0.27-0.34-0.24
		c-0.3,0.02-0.35-0.04-0.68-0.17c-0.33-0.13-0.83-0.76-0.9-1.08c-0.06-0.33,0.05-0.51,0.31-0.52c0.26-0.01,0.78,0.75,0.9,0.97
		c0.12,0.22,0.25,0.37,0.42,0.42c0.09,0.03,0.33-0.13,0.56-0.32l1.31,0.34l-0.35,0.16c-0.38-0.1-0.46,0.16-0.46,0.16
		c-0.32,0.22-0.12,0.41-0.12,0.41c0.04-0.12,0.2-0.21,0.2-0.21c0.46,0.12,0.44-0.18,0.44-0.18l0.62-0.27l0.63,0.33
		c0.21,0.33,0.53,0.22,0.53,0.22c0.16,0.08,0.2,0.28,0.2,0.28c0.16-0.18-0.02-0.37-0.02-0.37c0.03-0.46-0.59-0.28-0.59-0.28
		l-0.49-0.21l0.87-0.04c0.41,0.15,0.54-0.11,0.54-0.11c0.09-0.04,0.41,0.02,0.41,0.02C22.39,11.5,22.01,11.6,22.01,11.6L22.01,11.6z
		 M22.01,11.6"/>
</g>
</svg>
