<?xml version="1.0" encoding="utf-8"?>
<!-- Generator: Adobe Illustrator 25.0.1, SVG Export Plug-In . SVG Version: 6.00 Build 0)  -->
<svg version="1.1" id="Capa_1" xmlns="http://www.w3.org/2000/svg" xmlns:xlink="http://www.w3.org/1999/xlink" x="0px" y="0px"
	 viewBox="0 0 32 18.6" style="enable-background:new 0 0 32 18.6;" xml:space="preserve">
<style type="text/css">
	.st0{fill:#FFFFFF;}
	.st1{fill:#FF0000;}
	.st2{fill:#002689;}
	.st3{fill:#F5F5F5;}
</style>
<g>
	<rect class="st0" width="32" height="18.5"/>
	<rect x="11.4" class="st1" width="9" height="18.6"/>
	<rect x="0" y="5.3" class="st2" width="32" height="8.9"/>
	<g>
		<polygon class="st3" points="18.4,11.2 18.7,11.8 19.4,11.9 18.9,12.4 19,13.1 18.4,12.8 17.8,13.1 17.9,12.4 17.4,11.9 
			18.1,11.8 		"/>
		<polygon class="st3" points="14.1,11.2 14.4,11.8 15.1,11.9 14.6,12.4 14.7,13.1 14.1,12.8 13.5,13.1 13.6,12.4 13.1,11.9 
			13.8,11.8 		"/>
		<polygon class="st3" points="15.8,6.1 16.1,6.7 16.8,6.8 16.3,7.3 16.5,8 15.8,7.7 15.2,8 15.3,7.3 14.8,6.8 15.5,6.7 		"/>
		<polygon class="st3" points="21,8.2 21.3,8.8 22,8.9 21.5,9.4 21.6,10.1 21,9.8 20.4,10.1 20.5,9.4 20,8.9 20.7,8.8 		"/>
		<polygon class="st3" points="11,8.2 11.3,8.8 12,8.9 11.5,9.4 11.6,10.1 11,9.8 10.4,10.1 10.5,9.4 10,8.9 10.7,8.8 		"/>
	</g>
</g>
</svg>
