<?xml version="1.0" encoding="utf-8"?>
<!-- Generator: Adobe Illustrator 25.0.0, SVG Export Plug-In . SVG Version: 6.00 Build 0)  -->
<svg version="1.1" id="Capa_1" xmlns="http://www.w3.org/2000/svg" xmlns:xlink="http://www.w3.org/1999/xlink" x="0px" y="0px"
	 viewBox="0 0 32 18.62" style="enable-background:new 0 0 32 18.62;" xml:space="preserve">
<style type="text/css">
	.st0{fill:#FF4B55;}
	.st1{fill:#464655;}
	.st2{fill:#73AF00;}
	.st3{fill:#F5F5F5;}
	.st4{fill:#41479B;}
	.st5{fill:#FFF5DC;}
	.st6{fill:#D27D69;}
	.st7{fill:#FFE15A;}
	.st8{fill:#B95546;}
	.st9{fill:#DCBE82;}
	.st10{fill:#D2AA73;}
	.st11{fill:#4173CD;}
	.st12{fill:#82AFFF;}
	.st13{fill:#F09146;}
	.st14{fill:#FFB400;}
	.st15{fill:#965032;}
	.st16{fill:#BE7855;}
	.st17{fill:#FFBE3C;}
	.st18{fill:#EAF3F5;}
	.st19{fill:#8C5A28;}
	.st20{fill:#F0C850;}
	.st21{fill:#FF6E55;}
	.st22{fill:#FFBE5A;}
	.st23{fill:#3CC8FF;}
	.st24{fill:#825546;}
	.st25{fill:#FFD255;}
	.st26{fill:#FFD25A;}
	.st27{fill:#509664;}
	.st28{fill:#F0AA00;}
	.st29{fill:#A561CD;}
	.st30{fill:#B34900;}
	.st31{fill:#64B496;}
	.st32{fill:#FF6B71;}
	.st33{fill:#5F64B9;}
	.st34{fill:#F5F0F0;}
	.st35{fill:#5A4646;}
	.st36{fill:#E6E1CD;}
	.st37{fill:#FFD0AF;}
	.st38{fill:#FFAF94;}
	.st39{fill:#8CB400;}
	.st40{fill:#69C3FF;}
	.st41{fill:#009B64;}
	.st42{fill:#5AA0E6;}
	.st43{fill:#FFC88C;}
	.st44{fill:#E1E1E1;}
	.st45{fill:#966446;}
	.st46{fill:#BE915A;}
	.st47{fill:#B9B9B9;}
	.st48{fill:#F0C727;}
	.st49{fill:#50AF69;}
	.st50{fill:#FFE6E6;}
	.st51{fill:#FFB750;}
	.st52{fill:#FFC455;}
	.st53{fill:#FFCD55;}
	.st54{fill:#9BC800;}
	.st55{fill:#FFE14E;}
	.st56{fill:#FFB14E;}
	.st57{fill:#B46446;}
	.st58{fill:#5FA000;}
	.st59{fill:#F2DD30;}
	.st60{fill:#FFC855;}
	.st61{fill:#A0A0A0;}
	.st62{fill:#69B469;}
	.st63{fill:#F4E08F;}
	.st64{fill:#ECD077;}
	.st65{fill:#FCF0A8;}
	.st66{fill:#FAB446;}
	.st67{fill:#C8414B;}
	.st68{fill:#FF9B46;}
	.st69{fill:#FF9B55;}
	.st70{fill:#82C3D2;}
	.st71{fill:#5AA587;}
	.st72{fill:#CDCDCD;}
	.st73{fill:#B4A08C;}
	.st74{fill:#FFD250;}
	.st75{fill:#00C3A0;}
	.st76{fill:#00AADC;}
	.st77{fill:#732D37;}
	.st78{fill:#AAD264;}
	.st79{fill:#874150;}
	.st80{fill:#783C46;}
	.st81{fill:#FFB478;}
	.st82{fill:#9B4B5A;}
	.st83{fill:#FFCD5A;}
	.st84{fill:#FFAA5A;}
	.st85{fill:#FF875A;}
	.st86{fill:#E6B432;}
	.st87{fill:#C86464;}
	.st88{fill:#FFF5E1;}
	.st89{fill:#963C3C;}
	.st90{fill:#5A8250;}
	.st91{fill:#AFEBFF;}
	.st92{fill:#557DE6;}
	.st93{fill:#D23741;}
	.st94{fill:#64C86E;}
	.st95{fill:#873250;}
	.st96{fill:#41AA5A;}
	.st97{fill:#8CD7FF;}
	.st98{fill:#6EC86E;}
	.st99{fill:#FFF0E1;}
	.st100{fill:#FFC75A;}
	.st101{fill:#FFD350;}
	.st102{fill:#FFBE50;}
	.st103{fill:#A54B50;}
	.st104{fill:#C87878;}
	.st105{fill:#FF1722;}
	.st106{fill:#FFB441;}
	.st107{fill:#5064AA;}
	.st108{fill:#FFA0D2;}
	.st109{fill:#FF7350;}
	.st110{fill:#245DBD;}
	.st111{fill:#D35A10;}
	.st112{fill:#FFA033;}
	.st113{fill:#FF9480;}
	.st114{fill:#FFA0E4;}
	.st115{fill:#696E7D;}
	.st116{fill:#FFFCFF;}
	.st117{fill:#EBEBEB;}
	.st118{fill:#FF4B57;}
	.st119{fill:#D2D2D2;}
	.st120{fill:#F0C814;}
	.st121{fill:#F7B518;}
	.st122{fill:#2C2F38;}
	.st123{fill:#4C8056;}
	.st124{fill:#F0C419;}
	.st125{fill:#C03A2B;}
	.st126{fill:#EA3F3F;}
	.st127{fill:#E4E3E1;}
	.st128{fill:#2472B2;}
</style>
<g>
	<path class="st0" d="M31.97,9.3H0V0.53c0-0.27,0.25-0.49,0.55-0.49h30.87c0.3,0,0.55,0.22,0.55,0.49V9.3z M31.97,9.3"/>
	<path class="st1" d="M0,9.3h31.97v8.77c0,0.27-0.25,0.49-0.55,0.49H0.55c-0.3,0-0.55-0.22-0.55-0.49V9.3z M0,9.3"/>
	<path class="st7" d="M14.73,5.23l0.38,1l1.19,0.01c0.09,0,0.13,0.1,0.06,0.15L15.4,7.02l0.36,1c0.03,0.08-0.07,0.14-0.15,0.09
		L14.64,7.5l-0.97,0.61c-0.08,0.05-0.18-0.02-0.15-0.09l0.36-1l-0.96-0.63c-0.07-0.05-0.04-0.15,0.06-0.15l1.19-0.01l0.38-1
		C14.58,5.15,14.7,5.15,14.73,5.23L14.73,5.23z M14.73,5.23"/>
	<path class="st7" d="M19.82,13.71c0,0-6.82-4.55-7.02-4.69c-0.31-0.23-0.55-0.64-0.56-1.14c0,0-0.74,0.67-0.59,1.35
		c0.17,0.8,0.68,1.08,1.35,1.47c0.47,0.27,4.19,2.34,6.36,3.55L19.82,13.71z M19.82,13.71"/>
	<path class="st7" d="M21.86,15.04c-0.09-0.06-0.8-0.52-1.79-1.17l-0.36,0.58c0.73,0.41,1.21,0.67,1.21,0.67s0.07,0.79,0.79,0.66
		C21.98,15.73,22.19,15.24,21.86,15.04L21.86,15.04z M21.86,15.04"/>
	<path class="st7" d="M15.98,12.94c-0.52,0.16-1.07,0.25-1.65,0.25c-1.46,0-2.77-0.56-3.68-1.45l-0.81,0.64
		c0.27,0.27,0.56,0.52,0.89,0.73l-0.16,0.25l1.19,0.61l0.16-0.24c0.54,0.21,1.12,0.35,1.73,0.41v0.28h1.38v-0.28
		c0.61-0.06,1.19-0.2,1.73-0.41l0.16,0.24l0.47-0.24C16.91,13.47,16.44,13.2,15.98,12.94L15.98,12.94z M15.98,12.94"/>
	<path class="st7" d="M20.35,8.2c-0.07-0.54-0.23-1.05-0.46-1.52l0.27-0.14l-0.69-1.05L19.2,5.63c-0.36-0.42-0.78-0.8-1.26-1.11
		l0.16-0.25L16.9,3.66L16.75,3.9c-0.45-0.17-0.92-0.29-1.42-0.37l-0.18,0.96c2.35,0.34,4.15,2.14,4.15,4.32
		c0,1.17-0.52,2.23-1.37,3.02c0.29,0.2,0.58,0.39,0.87,0.58c0.14-0.13,0.28-0.27,0.4-0.41l0.28,0.14l0.69-1.05l-0.27-0.14
		c0.23-0.48,0.39-0.99,0.46-1.52h0.32V8.2L20.35,8.2L20.35,8.2z M20.35,8.2"/>
</g>
</svg>
