<?xml version="1.0" encoding="utf-8"?>
<!-- Generator: Adobe Illustrator 25.0.0, SVG Export Plug-In . SVG Version: 6.00 Build 0)  -->
<svg version="1.1" id="Capa_1" xmlns="http://www.w3.org/2000/svg" xmlns:xlink="http://www.w3.org/1999/xlink" x="0px" y="0px"
	 viewBox="0 0 32 18.62" style="enable-background:new 0 0 32 18.62;" xml:space="preserve">
<style type="text/css">
	.st0{fill:#FF4B55;}
	.st1{fill:#464655;}
	.st2{fill:#73AF00;}
	.st3{fill:#F5F5F5;}
	.st4{fill:#41479B;}
	.st5{fill:#FFF5DC;}
	.st6{fill:#D27D69;}
	.st7{fill:#FFE15A;}
	.st8{fill:#B95546;}
	.st9{fill:#DCBE82;}
	.st10{fill:#D2AA73;}
	.st11{fill:#4173CD;}
	.st12{fill:#82AFFF;}
	.st13{fill:#F09146;}
	.st14{fill:#FFB400;}
	.st15{fill:#965032;}
	.st16{fill:#BE7855;}
	.st17{fill:#FFBE3C;}
	.st18{fill:#EAF3F5;}
	.st19{fill:#8C5A28;}
	.st20{fill:#F0C850;}
	.st21{fill:#FF6E55;}
	.st22{fill:#FFBE5A;}
	.st23{fill:#3CC8FF;}
	.st24{fill:#825546;}
	.st25{fill:#FFD255;}
	.st26{fill:#FFD25A;}
	.st27{fill:#509664;}
	.st28{fill:#F0AA00;}
	.st29{fill:#A561CD;}
	.st30{fill:#B34900;}
	.st31{fill:#64B496;}
	.st32{fill:#FF6B71;}
	.st33{fill:#5F64B9;}
	.st34{fill:#F5F0F0;}
	.st35{fill:#5A4646;}
	.st36{fill:#E6E1CD;}
	.st37{fill:#FFD0AF;}
	.st38{fill:#FFAF94;}
	.st39{fill:#8CB400;}
	.st40{fill:#69C3FF;}
	.st41{fill:#009B64;}
	.st42{fill:#5AA0E6;}
	.st43{fill:#FFC88C;}
	.st44{fill:#E1E1E1;}
	.st45{fill:#966446;}
	.st46{fill:#BE915A;}
	.st47{fill:#B9B9B9;}
	.st48{fill:#F0C727;}
	.st49{fill:#50AF69;}
	.st50{fill:#FFE6E6;}
	.st51{fill:#FFB750;}
	.st52{fill:#FFC455;}
	.st53{fill:#FFCD55;}
	.st54{fill:#9BC800;}
	.st55{fill:#FFE14E;}
	.st56{fill:#FFB14E;}
	.st57{fill:#B46446;}
	.st58{fill:#5FA000;}
	.st59{fill:#F2DD30;}
	.st60{fill:#FFC855;}
	.st61{fill:#A0A0A0;}
	.st62{fill:#69B469;}
	.st63{fill:#F4E08F;}
	.st64{fill:#ECD077;}
	.st65{fill:#FCF0A8;}
	.st66{fill:#FAB446;}
	.st67{fill:#C8414B;}
	.st68{fill:#FF9B46;}
	.st69{fill:#FF9B55;}
	.st70{fill:#82C3D2;}
	.st71{fill:#5AA587;}
	.st72{fill:#CDCDCD;}
	.st73{fill:#B4A08C;}
	.st74{fill:#FFD250;}
	.st75{fill:#00C3A0;}
	.st76{fill:#00AADC;}
	.st77{fill:#732D37;}
	.st78{fill:#AAD264;}
	.st79{fill:#874150;}
	.st80{fill:#783C46;}
	.st81{fill:#FFB478;}
	.st82{fill:#9B4B5A;}
	.st83{fill:#FFCD5A;}
	.st84{fill:#FFAA5A;}
	.st85{fill:#FF875A;}
	.st86{fill:#E6B432;}
	.st87{fill:#C86464;}
	.st88{fill:#FFF5E1;}
	.st89{fill:#963C3C;}
	.st90{fill:#5A8250;}
	.st91{fill:#AFEBFF;}
	.st92{fill:#557DE6;}
	.st93{fill:#D23741;}
	.st94{fill:#64C86E;}
	.st95{fill:#873250;}
	.st96{fill:#41AA5A;}
	.st97{fill:#8CD7FF;}
	.st98{fill:#6EC86E;}
	.st99{fill:#FFF0E1;}
	.st100{fill:#FFC75A;}
	.st101{fill:#FFD350;}
	.st102{fill:#FFBE50;}
	.st103{fill:#A54B50;}
	.st104{fill:#C87878;}
	.st105{fill:#FF1722;}
	.st106{fill:#FFB441;}
	.st107{fill:#5064AA;}
	.st108{fill:#FFA0D2;}
	.st109{fill:#FF7350;}
	.st110{fill:#245DBD;}
	.st111{fill:#D35A10;}
	.st112{fill:#FFA033;}
	.st113{fill:#FF9480;}
	.st114{fill:#FFA0E4;}
	.st115{fill:#696E7D;}
	.st116{fill:#FFFCFF;}
	.st117{fill:#EBEBEB;}
	.st118{fill:#FF4B57;}
	.st119{fill:#D2D2D2;}
	.st120{fill:#F0C814;}
	.st121{fill:#F7B518;}
	.st122{fill:#2C2F38;}
	.st123{fill:#4C8056;}
	.st124{fill:#F0C419;}
	.st125{fill:#C03A2B;}
	.st126{fill:#EA3F3F;}
	.st127{fill:#E4E3E1;}
	.st128{fill:#2472B2;}
</style>
<g>
	<path class="st12" d="M31.97,6.21H0V0.53c0-0.27,0.25-0.49,0.55-0.49h30.87c0.3,0,0.55,0.22,0.55,0.49V6.21z M31.97,6.21"/>
	<path class="st12" d="M31.42,18.55H0.55c-0.3,0-0.55-0.22-0.55-0.49v-5.68h31.97v5.68C31.97,18.33,31.72,18.55,31.42,18.55
		L31.42,18.55z M31.42,18.55"/>
	<rect x="0" y="6.21" class="st3" width="31.97" height="6.17"/>
	<path class="st13" d="M18.74,9.18h-1.98c0.04-0.02,0.07-0.05,0.09-0.07c0.05-0.04,0.09-0.08,0.19-0.11
		c0.1-0.04,0.16-0.04,0.22-0.04c0.08,0,0.17,0,0.33-0.06c0.15-0.06,0.22-0.11,0.28-0.16c0.05-0.04,0.09-0.08,0.19-0.11
		c0.1-0.04,0.16-0.04,0.22-0.04c0.08,0,0.17,0,0.33-0.06L18.5,8.3c-0.1,0.04-0.16,0.04-0.22,0.04c-0.08,0-0.17,0-0.33,0.06
		c-0.15,0.06-0.22,0.11-0.28,0.16c-0.05,0.04-0.09,0.08-0.19,0.11c-0.1,0.04-0.16,0.04-0.22,0.04c-0.08,0-0.17,0-0.33,0.06
		c-0.15,0.06-0.22,0.11-0.28,0.16C16.61,8.97,16.57,9,16.47,9.04l1.56-1.38l-0.19-0.17l-1.4,1.24c0.01-0.04,0.01-0.08,0.01-0.11
		c0-0.06,0-0.11,0.04-0.2c0.04-0.09,0.08-0.12,0.13-0.17c0.06-0.05,0.12-0.11,0.19-0.25c0.06-0.13,0.06-0.22,0.06-0.29
		c0-0.06,0-0.11,0.04-0.2c0.04-0.09,0.08-0.12,0.13-0.17c0.06-0.05,0.12-0.11,0.19-0.24l-0.25-0.09c-0.04,0.09-0.08,0.12-0.13,0.17
		c-0.06,0.05-0.12,0.11-0.18,0.24c-0.06,0.13-0.06,0.22-0.06,0.29c0,0.06,0,0.11-0.04,0.2c-0.04,0.09-0.08,0.12-0.13,0.17
		c-0.06,0.05-0.12,0.11-0.19,0.24c-0.06,0.13-0.06,0.22-0.06,0.29c0,0.06,0,0.11-0.04,0.19V6.86h-0.28v1.75
		c-0.03-0.03-0.06-0.06-0.08-0.08c-0.05-0.04-0.09-0.08-0.13-0.17c-0.04-0.09-0.04-0.14-0.04-0.2c0-0.07,0-0.15-0.06-0.29
		c-0.06-0.13-0.13-0.19-0.19-0.24c-0.05-0.04-0.08-0.08-0.13-0.17c-0.04-0.09-0.04-0.14-0.04-0.2c0-0.07,0-0.15-0.06-0.29
		l-0.25,0.09c0.04,0.09,0.04,0.14,0.04,0.2c0,0.07,0,0.15,0.06,0.29c0.06,0.13,0.13,0.19,0.18,0.24c0.05,0.04,0.08,0.08,0.13,0.17
		c0.04,0.09,0.04,0.14,0.04,0.2c0,0.07,0,0.15,0.06,0.29c0.06,0.13,0.13,0.19,0.19,0.24c0.05,0.04,0.08,0.08,0.12,0.16l-1.56-1.38
		l-0.19,0.17l1.56,1.38c-0.09-0.03-0.13-0.07-0.17-0.1c-0.06-0.05-0.13-0.11-0.28-0.16c-0.15-0.06-0.24-0.06-0.33-0.06
		c-0.07,0-0.12,0-0.23-0.04c-0.1-0.04-0.14-0.07-0.19-0.11c-0.06-0.05-0.13-0.11-0.28-0.16c-0.15-0.06-0.25-0.06-0.33-0.06
		c-0.07,0-0.12,0-0.23-0.04l-0.11,0.23c0.15,0.06,0.25,0.06,0.33,0.06c0.07,0,0.12,0,0.23,0.04c0.1,0.04,0.14,0.07,0.19,0.11
		c0.06,0.05,0.13,0.11,0.28,0.16c0.15,0.06,0.25,0.06,0.33,0.06c0.07,0,0.12,0,0.23,0.04c0.1,0.04,0.14,0.07,0.19,0.11
		c0.02,0.02,0.05,0.04,0.09,0.07h-1.99v0.24h2.2c-0.09,0.03-0.14,0.03-0.2,0.03c-0.08,0-0.17,0-0.33,0.06
		c-0.15,0.06-0.22,0.11-0.28,0.16c-0.05,0.04-0.09,0.08-0.19,0.11c-0.1,0.04-0.16,0.04-0.23,0.04c-0.08,0-0.18,0-0.33,0.06
		c-0.15,0.06-0.22,0.11-0.28,0.16c-0.05,0.04-0.09,0.08-0.19,0.11l0.11,0.23c0.15-0.06,0.22-0.11,0.28-0.16
		c0.05-0.04,0.09-0.08,0.19-0.11c0.1-0.04,0.16-0.04,0.23-0.04c0.08,0,0.18,0,0.33-0.06c0.15-0.06,0.22-0.11,0.28-0.16
		C14.86,9.81,14.9,9.77,15,9.74c0.1-0.04,0.16-0.04,0.23-0.04c0.03,0,0.07,0,0.12-0.01l-1.41,1.24l0.19,0.17l1.56-1.38
		c-0.04,0.08-0.07,0.11-0.12,0.15c-0.06,0.05-0.12,0.11-0.19,0.25c-0.06,0.13-0.06,0.22-0.07,0.29c0,0.06,0,0.11-0.04,0.2
		c-0.04,0.09-0.08,0.13-0.13,0.17c-0.06,0.05-0.12,0.11-0.19,0.25c-0.06,0.13-0.06,0.22-0.07,0.29c0,0.06,0,0.11-0.04,0.2l0.25,0.09
		c0.06-0.13,0.06-0.22,0.07-0.29c0-0.06,0-0.11,0.04-0.2c0.04-0.09,0.08-0.13,0.13-0.17c0.06-0.05,0.12-0.11,0.19-0.25
		c0.06-0.13,0.06-0.22,0.07-0.29c0-0.06,0-0.11,0.04-0.2c0.04-0.09,0.08-0.13,0.13-0.17c0.02-0.02,0.05-0.05,0.08-0.08v1.76h0.28
		V9.79c0.03,0.08,0.04,0.12,0.04,0.18c0,0.07,0,0.15,0.06,0.29c0.06,0.13,0.13,0.19,0.19,0.25c0.05,0.04,0.09,0.08,0.13,0.17
		c0.04,0.09,0.04,0.14,0.04,0.2c0,0.07,0,0.16,0.07,0.29c0.06,0.13,0.13,0.19,0.19,0.25c0.05,0.04,0.09,0.08,0.13,0.17l0.25-0.09
		c-0.06-0.13-0.13-0.19-0.19-0.25c-0.05-0.04-0.09-0.08-0.13-0.17c-0.04-0.09-0.04-0.14-0.04-0.2c0-0.07,0-0.15-0.07-0.29
		c-0.06-0.13-0.13-0.19-0.19-0.25c-0.05-0.04-0.09-0.08-0.13-0.17c-0.04-0.09-0.04-0.14-0.04-0.2c0-0.03,0-0.07-0.01-0.1l1.41,1.24
		l0.19-0.17l-1.4-1.24c0.05,0.01,0.09,0.01,0.12,0.01c0.07,0,0.12,0,0.22,0.04c0.1,0.04,0.14,0.07,0.19,0.11
		c0.06,0.05,0.13,0.11,0.28,0.16c0.15,0.06,0.24,0.06,0.33,0.06c0.07,0,0.12,0,0.22,0.04c0.1,0.04,0.14,0.07,0.19,0.11
		c0.06,0.05,0.12,0.11,0.28,0.16l0.11-0.23c-0.1-0.04-0.14-0.07-0.19-0.11C18.31,10,18.25,9.94,18.1,9.89
		c-0.15-0.06-0.24-0.06-0.33-0.06c-0.07,0-0.12,0-0.22-0.04c-0.1-0.04-0.14-0.07-0.19-0.11c-0.06-0.05-0.13-0.11-0.28-0.16
		c-0.15-0.06-0.24-0.06-0.33-0.06c-0.07,0-0.12,0-0.22-0.04h2.21V9.18z M18.74,9.18"/>
	<path class="st7" d="M17.36,9.3c0,0.67-0.62,1.22-1.38,1.22c-0.76,0-1.38-0.55-1.38-1.22c0-0.67,0.62-1.22,1.38-1.22
		C16.75,8.08,17.36,8.63,17.36,9.3L17.36,9.3z M17.36,9.3"/>
</g>
</svg>
