<?xml version="1.0" encoding="utf-8"?>
<!-- Generator: Adobe Illustrator 25.0.0, SVG Export Plug-In . SVG Version: 6.00 Build 0)  -->
<svg version="1.1" id="Capa_1" xmlns="http://www.w3.org/2000/svg" xmlns:xlink="http://www.w3.org/1999/xlink" x="0px" y="0px"
	 viewBox="0 0 32 18.62" style="enable-background:new 0 0 32 18.62;" xml:space="preserve">
<style type="text/css">
	.st0{fill:#FF4B55;}
	.st1{fill:#464655;}
	.st2{fill:#73AF00;}
	.st3{fill:#F5F5F5;}
	.st4{fill:#41479B;}
	.st5{fill:#FFF5DC;}
	.st6{fill:#D27D69;}
	.st7{fill:#FFE15A;}
	.st8{fill:#B95546;}
	.st9{fill:#DCBE82;}
	.st10{fill:#D2AA73;}
	.st11{fill:#4173CD;}
	.st12{fill:#82AFFF;}
	.st13{fill:#F09146;}
	.st14{fill:#FFB400;}
	.st15{fill:#965032;}
	.st16{fill:#BE7855;}
	.st17{fill:#FFBE3C;}
	.st18{fill:#EAF3F5;}
	.st19{fill:#8C5A28;}
	.st20{fill:#F0C850;}
	.st21{fill:#FF6E55;}
	.st22{fill:#FFBE5A;}
	.st23{fill:#3CC8FF;}
	.st24{fill:#825546;}
	.st25{fill:#FFD255;}
	.st26{fill:#FFD25A;}
	.st27{fill:#509664;}
	.st28{fill:#F0AA00;}
	.st29{fill:#A561CD;}
	.st30{fill:#B34900;}
	.st31{fill:#64B496;}
	.st32{fill:#FF6B71;}
	.st33{fill:#5F64B9;}
	.st34{fill:#F5F0F0;}
	.st35{fill:#5A4646;}
	.st36{fill:#E6E1CD;}
	.st37{fill:#FFD0AF;}
	.st38{fill:#FFAF94;}
	.st39{fill:#8CB400;}
	.st40{fill:#69C3FF;}
	.st41{fill:#009B64;}
	.st42{fill:#5AA0E6;}
	.st43{fill:#FFC88C;}
	.st44{fill:#E1E1E1;}
	.st45{fill:#966446;}
	.st46{fill:#BE915A;}
	.st47{fill:#B9B9B9;}
	.st48{fill:#F0C727;}
	.st49{fill:#50AF69;}
	.st50{fill:#FFE6E6;}
	.st51{fill:#FFB750;}
	.st52{fill:#FFC455;}
	.st53{fill:#FFCD55;}
	.st54{fill:#9BC800;}
	.st55{fill:#FFE14E;}
	.st56{fill:#FFB14E;}
	.st57{fill:#B46446;}
	.st58{fill:#5FA000;}
	.st59{fill:#F2DD30;}
	.st60{fill:#FFC855;}
	.st61{fill:#A0A0A0;}
	.st62{fill:#69B469;}
	.st63{fill:#F4E08F;}
	.st64{fill:#ECD077;}
	.st65{fill:#FCF0A8;}
	.st66{fill:#FAB446;}
	.st67{fill:#C8414B;}
	.st68{fill:#FF9B46;}
	.st69{fill:#FF9B55;}
	.st70{fill:#82C3D2;}
	.st71{fill:#5AA587;}
	.st72{fill:#CDCDCD;}
	.st73{fill:#B4A08C;}
	.st74{fill:#FFD250;}
	.st75{fill:#00C3A0;}
	.st76{fill:#00AADC;}
	.st77{fill:#732D37;}
	.st78{fill:#AAD264;}
	.st79{fill:#874150;}
	.st80{fill:#783C46;}
	.st81{fill:#FFB478;}
	.st82{fill:#9B4B5A;}
	.st83{fill:#FFCD5A;}
	.st84{fill:#FFAA5A;}
	.st85{fill:#FF875A;}
	.st86{fill:#E6B432;}
	.st87{fill:#C86464;}
	.st88{fill:#FFF5E1;}
	.st89{fill:#963C3C;}
	.st90{fill:#5A8250;}
	.st91{fill:#AFEBFF;}
	.st92{fill:#557DE6;}
	.st93{fill:#D23741;}
	.st94{fill:#64C86E;}
	.st95{fill:#873250;}
	.st96{fill:#41AA5A;}
	.st97{fill:#8CD7FF;}
	.st98{fill:#6EC86E;}
	.st99{fill:#FFF0E1;}
	.st100{fill:#FFC75A;}
	.st101{fill:#FFD350;}
	.st102{fill:#FFBE50;}
	.st103{fill:#A54B50;}
	.st104{fill:#C87878;}
	.st105{fill:#FF1722;}
	.st106{fill:#FFB441;}
	.st107{fill:#5064AA;}
	.st108{fill:#FFA0D2;}
	.st109{fill:#FF7350;}
	.st110{fill:#245DBD;}
	.st111{fill:#D35A10;}
	.st112{fill:#FFA033;}
	.st113{fill:#FF9480;}
	.st114{fill:#FFA0E4;}
	.st115{fill:#696E7D;}
	.st116{fill:#FFFCFF;}
	.st117{fill:#EBEBEB;}
	.st118{fill:#FF4B57;}
	.st119{fill:#D2D2D2;}
	.st120{fill:#F0C814;}
	.st121{fill:#F7B518;}
	.st122{fill:#2C2F38;}
	.st123{fill:#4C8056;}
	.st124{fill:#F0C419;}
	.st125{fill:#C03A2B;}
	.st126{fill:#EA3F3F;}
	.st127{fill:#E4E3E1;}
	.st128{fill:#2472B2;}
</style>
<g>
	<path class="st4" d="M31.42,18.55H0.55c-0.3,0-0.55-0.22-0.55-0.49V0.53c0-0.27,0.25-0.49,0.55-0.49h30.87
		c0.3,0,0.55,0.22,0.55,0.49v17.53C31.97,18.33,31.72,18.55,31.42,18.55L31.42,18.55z M31.42,18.55"/>
	<path class="st0" d="M31.97,18.06v-0.54L3.54,9.3l28.43-8.23V0.53c0-0.18-0.11-0.32-0.27-0.41L0,9.3l31.7,9.18
		C31.86,18.39,31.97,18.24,31.97,18.06L31.97,18.06z M31.97,18.06"/>
	<path class="st3" d="M3.54,9.3l28.43,8.23V1.07L3.54,9.3z M3.54,9.3"/>
	<path class="st5" d="M28.6,6.9c0,0,1.89,0.07,2.06-0.06c0.18-0.13,0.21-0.98-0.42-1.1c-0.62-0.13-2.32,0.69-2.32,0.69L28.6,6.9z
		 M28.6,6.9"/>
	<path class="st6" d="M24.91,8.22c0,0-0.02,0.05-0.03,0.25c-0.01,0.21,0.03,0.74,0.77,0.98l-0.17,0.63l0.78,0.41
		c0,0,0.58-0.75,0.61-1.39C26.89,8.48,24.91,8.22,24.91,8.22L24.91,8.22z M24.91,8.22"/>
	<path class="st6" d="M22.57,7.79l0.3-0.27c0,0-0.62,0.34-0.86,0.03c-0.31-0.4,0.11-0.81,0.54-0.99c0.43-0.18,1.3-0.04,1.3-0.04
		l0.54,1.23l-1.65,0.92L22.57,7.79z M22.57,7.79"/>
	<path class="st6" d="M27.68,5.45l1.47-0.16c0,0-0.43,0.55-1.28,0.96c0,0,0.88,0,1.14,0.27c0.26,0.27-0.26,0.52-0.45,0.61
		c-0.19,0.08-1.86,0.99-1.86,0.99l-1.49-0.16L27.68,5.45z M27.68,5.45"/>
	<path class="st6" d="M28.77,4.45c0,0,0.32-0.66,0.31-1.12L28,3.98c0,0,0.25-0.1,0.16-0.48l-3.52,1.69l-0.71,1.12l2.18,0.59
		L28.77,4.45z M28.77,4.45"/>
	<path class="st7" d="M26.12,9.59l-0.37,0.52c0,0-0.66-0.13-0.88,0.01c-0.22,0.14-0.25,0.67,0.14,0.71c0,0,0.27,0.15,0.43,0.03
		c0,0,0.33,0.11,0.38-0.07c0.06-0.18-0.02-0.34-0.02-0.34h0.23l0.41-0.64L26.12,9.59z M26.12,9.59"/>
	<path class="st8" d="M22.83,8.47c0,0,1.02-0.45,1.02-1.13s-0.95-0.72-1.72-0.49c0,0-0.46-0.32-0.07-0.64
		c0.53-0.44,2.82-1.36,2.82-1.36l-0.26,1.13c0,0,0.91,0.42,1.28,0.23c0.31-0.17,3.33-2.26,3.33-2.26s-0.26,1.13-2.05,2.26
		l-0.19,0.84c-0.04,0.18-0.18,0.34-0.37,0.43L25.9,7.79c0,0,2.05,0.23,2.05,0.45c0,0.23-0.51,1.36-1.54,1.81L25.9,9.6l0.26-0.68
		c0,0-0.77-0.23-1.28-0.45c0,0-0.77,0.23-1.28,0.23C23.09,8.7,22.83,8.47,22.83,8.47L22.83,8.47z M22.83,8.47"/>
	<path class="st5" d="M21.29,9.6V9.13c0-0.13,0.06-0.26,0.17-0.36l1.11-0.98l0.26,0.45h1.02L23.6,8.47V8.7l-1.28,0.68L21.29,9.6z
		 M21.29,9.6"/>
	<path class="st7" d="M21.81,9.37h-0.51c0,0-0.51,0.68,0,0.68c0,0,0.77-0.45,1.02-0.68C22.32,9.37,22.32,9.15,21.81,9.37L21.81,9.37
		z M21.81,9.37"/>
	<path class="st7" d="M28.05,10.38h-3.54c-0.03-0.03-0.07-0.05-0.12-0.05c0,0-0.62-0.23-0.71-0.23h-0.07
		c-0.09,0-0.16,0.06-0.16,0.14v0.13h-0.81v-0.13c0-0.08-0.07-0.14-0.16-0.14h-0.07c-0.09,0-0.16,0.06-0.16,0.14v0
		c-0.35-0.01-1.09-0.05-1.47-0.16l-2.05,0.45l2.05,0.45c0.38-0.11,1.12-0.15,1.47-0.16v0c0,0.08,0.07,0.14,0.16,0.14h0.07
		c0.09,0,0.16-0.06,0.16-0.14v-0.13h0.81v0.13c0,0.08,0.07,0.14,0.16,0.14h0.07c0.09,0,0.71-0.23,0.71-0.23
		c0.05,0,0.09-0.02,0.12-0.05h3.54c0.1,0,0.18-0.07,0.18-0.16C28.23,10.45,28.15,10.38,28.05,10.38L28.05,10.38z M28.05,10.38"/>
	<path class="st7" d="M27.89,10.99c-0.21-0.04-2.66,0.34-2.66,0.34s-0.15-0.13,0.3-0.5l-0.21-0.05c0,0-0.47,0.29-0.66,0.33
		c-0.17,0.03-0.53,0.19-0.61,0.4l-1.49,0.22l0.03,0.11l1.46-0.15c0.07,0.2,0.3,0.24,0.46,0.18c0,0,0.21,0.08,0.41-0.06
		c0,0,0.38,0.06,0.41-0.25L28,11.2C28,11.2,28.11,11.02,27.89,10.99L27.89,10.99z M27.89,10.99"/>
	<path class="st7" d="M26.38,12.58c0,0-0.2,0.24-0.7,0.03c-0.5-0.21-1.09,0.02-1.41-0.05c-0.32-0.07-0.8-0.24-1.25-0.08
		c-0.45,0.15-0.69,0.14-0.6-0.05c0.1-0.19,0.15-0.33,0-0.4l0.17-0.19l-0.03-0.11c0,0-0.85-0.29-1.43,0.11
		c-0.58,0.41-0.41,1.33,0.55,1.39c0,0,0.3,0.33,1.03,0.24c0,0,0.48,0.29,1.3,0.16c0,0,0.03,0.08,0.57,0.05
		c0.53-0.04,1.13,0.02,1.02,0.34c0,0,0.39-0.07,0.16-0.39c0,0,0.47-0.02,0.79,0.23c0,0,0.02-0.28-0.29-0.43c0,0,0.52-0.16,0.81,0
		c0,0-0.19-0.36-0.7-0.31c0,0,0.37-0.26,0.54-0.2c0,0-0.16-0.17-0.63,0C26.29,12.92,26.59,12.76,26.38,12.58L26.38,12.58z
		 M26.38,12.58"/>
</g>
</svg>
