<?xml version="1.0" encoding="utf-8"?>
<!-- Generator: Adobe Illustrator 25.0.0, SVG Export Plug-In . SVG Version: 6.00 Build 0)  -->
<svg version="1.1" id="Capa_1" xmlns="http://www.w3.org/2000/svg" xmlns:xlink="http://www.w3.org/1999/xlink" x="0px" y="0px"
	 viewBox="0 0 32 18.62" style="enable-background:new 0 0 32 18.62;" xml:space="preserve">
<style type="text/css">
	.st0{fill:#FF4B55;}
	.st1{fill:#464655;}
	.st2{fill:#73AF00;}
	.st3{fill:#F5F5F5;}
	.st4{fill:#41479B;}
	.st5{fill:#FFF5DC;}
	.st6{fill:#D27D69;}
	.st7{fill:#FFE15A;}
	.st8{fill:#B95546;}
	.st9{fill:#DCBE82;}
	.st10{fill:#D2AA73;}
	.st11{fill:#4173CD;}
	.st12{fill:#82AFFF;}
	.st13{fill:#F09146;}
	.st14{fill:#FFB400;}
	.st15{fill:#965032;}
	.st16{fill:#BE7855;}
	.st17{fill:#FFBE3C;}
	.st18{fill:#EAF3F5;}
	.st19{fill:#8C5A28;}
	.st20{fill:#F0C850;}
	.st21{fill:#FF6E55;}
	.st22{fill:#FFBE5A;}
	.st23{fill:#3CC8FF;}
	.st24{fill:#825546;}
	.st25{fill:#FFD255;}
	.st26{fill:#FFD25A;}
	.st27{fill:#509664;}
	.st28{fill:#F0AA00;}
	.st29{fill:#A561CD;}
	.st30{fill:#B34900;}
	.st31{fill:#64B496;}
	.st32{fill:#FF6B71;}
	.st33{fill:#5F64B9;}
	.st34{fill:#F5F0F0;}
	.st35{fill:#5A4646;}
	.st36{fill:#E6E1CD;}
	.st37{fill:#FFD0AF;}
	.st38{fill:#FFAF94;}
	.st39{fill:#8CB400;}
	.st40{fill:#69C3FF;}
	.st41{fill:#009B64;}
	.st42{fill:#5AA0E6;}
	.st43{fill:#FFC88C;}
	.st44{fill:#E1E1E1;}
	.st45{fill:#966446;}
	.st46{fill:#BE915A;}
	.st47{fill:#B9B9B9;}
	.st48{fill:#F0C727;}
	.st49{fill:#50AF69;}
	.st50{fill:#FFE6E6;}
	.st51{fill:#FFB750;}
	.st52{fill:#FFC455;}
	.st53{fill:#FFCD55;}
	.st54{fill:#9BC800;}
	.st55{fill:#FFE14E;}
	.st56{fill:#FFB14E;}
	.st57{fill:#B46446;}
	.st58{fill:#5FA000;}
	.st59{fill:#F2DD30;}
	.st60{fill:#FFC855;}
	.st61{fill:#A0A0A0;}
	.st62{fill:#69B469;}
	.st63{fill:#F4E08F;}
	.st64{fill:#ECD077;}
	.st65{fill:#FCF0A8;}
	.st66{fill:#FAB446;}
	.st67{fill:#C8414B;}
	.st68{fill:#FF9B46;}
	.st69{fill:#FF9B55;}
	.st70{fill:#82C3D2;}
	.st71{fill:#5AA587;}
	.st72{fill:#CDCDCD;}
	.st73{fill:#B4A08C;}
	.st74{fill:#FFD250;}
	.st75{fill:#00C3A0;}
	.st76{fill:#00AADC;}
	.st77{fill:#732D37;}
	.st78{fill:#AAD264;}
	.st79{fill:#874150;}
	.st80{fill:#783C46;}
	.st81{fill:#FFB478;}
	.st82{fill:#9B4B5A;}
	.st83{fill:#FFCD5A;}
	.st84{fill:#FFAA5A;}
	.st85{fill:#FF875A;}
	.st86{fill:#E6B432;}
	.st87{fill:#C86464;}
	.st88{fill:#FFF5E1;}
	.st89{fill:#963C3C;}
	.st90{fill:#5A8250;}
	.st91{fill:#AFEBFF;}
	.st92{fill:#557DE6;}
	.st93{fill:#D23741;}
	.st94{fill:#64C86E;}
	.st95{fill:#873250;}
	.st96{fill:#41AA5A;}
	.st97{fill:#8CD7FF;}
	.st98{fill:#6EC86E;}
	.st99{fill:#FFF0E1;}
	.st100{fill:#FFC75A;}
	.st101{fill:#FFD350;}
	.st102{fill:#FFBE50;}
	.st103{fill:#A54B50;}
	.st104{fill:#C87878;}
	.st105{fill:#FF1722;}
	.st106{fill:#FFB441;}
	.st107{fill:#5064AA;}
	.st108{fill:#FFA0D2;}
	.st109{fill:#FF7350;}
	.st110{fill:#245DBD;}
	.st111{fill:#D35A10;}
	.st112{fill:#FFA033;}
	.st113{fill:#FF9480;}
	.st114{fill:#FFA0E4;}
	.st115{fill:#696E7D;}
	.st116{fill:#FFFCFF;}
	.st117{fill:#EBEBEB;}
	.st118{fill:#FF4B57;}
	.st119{fill:#D2D2D2;}
	.st120{fill:#F0C814;}
	.st121{fill:#F7B518;}
	.st122{fill:#2C2F38;}
	.st123{fill:#4C8056;}
	.st124{fill:#F0C419;}
	.st125{fill:#C03A2B;}
	.st126{fill:#EA3F3F;}
	.st127{fill:#E4E3E1;}
	.st128{fill:#2472B2;}
</style>
<g>
	<path class="st4" d="M31.42,18.55H0.55c-0.3,0-0.55-0.22-0.55-0.49V0.53c0-0.27,0.25-0.49,0.55-0.49h30.87
		c0.3,0,0.55,0.22,0.55,0.49v17.53C31.97,18.33,31.72,18.55,31.42,18.55L31.42,18.55z M31.42,18.55"/>
	<path class="st3" d="M15.43,0.04h-0.96L9.37,3V0.04H6.61V3L1.51,0.04H0.55C0.25,0.04,0,0.26,0,0.53v0.39l4.38,2.54H0v2.44h4.38
		L0,8.42v0.39C0,9.08,0.25,9.3,0.55,9.3h0.96l5.11-2.96V9.3h2.76V6.34l5.11,2.96h0.96c0.3,0,0.55-0.22,0.55-0.49V8.42L11.6,5.89
		h4.38V3.45H11.6l4.38-2.54V0.53C15.98,0.26,15.74,0.04,15.43,0.04L15.43,0.04z M15.43,0.04"/>
	<path class="st0" d="M15.98,3.94H8.82v-3.9H7.17v3.9H0V5.4h7.17v3.9h1.65V5.4h7.17V3.94z M15.98,3.94"/>
	<path class="st0" d="M6.06,3.45l-5.8-3.33C0.11,0.21,0,0.36,0,0.53v0.03l5.05,2.9H6.06z M6.06,3.45"/>
	<path class="st0" d="M10.38,3.45l5.52-3.16c-0.1-0.14-0.27-0.24-0.47-0.24h-0.12L9.37,3.45H10.38z M10.38,3.45"/>
	<path class="st0" d="M5.59,5.89L0.08,9.05C0.17,9.19,0.35,9.3,0.55,9.3h0.1L6.6,5.89H5.59z M5.59,5.89"/>
	<path class="st0" d="M15.98,8.85l-5.16-2.96H9.8l5.86,3.36C15.84,9.18,15.96,9.03,15.98,8.85L15.98,8.85z M15.98,8.85"/>
	<path class="st3" d="M8.16,11.95l0.42,1.21l1.33-0.47c0.11-0.04,0.22,0.07,0.15,0.16l-0.81,1.04l1.25,0.63
		c0.11,0.05,0.07,0.2-0.05,0.2L9,14.83l0.22,1.25c0.02,0.11-0.13,0.17-0.21,0.09l-0.97-0.93l-0.97,0.93
		c-0.08,0.08-0.23,0.02-0.21-0.09l0.22-1.25l-1.43-0.09c-0.12-0.01-0.16-0.15-0.05-0.2l1.25-0.63l-0.81-1.04
		c-0.07-0.09,0.03-0.2,0.15-0.16l1.33,0.47l0.42-1.21C7.96,11.85,8.12,11.85,8.16,11.95L8.16,11.95z M8.16,11.95"/>
	<path class="st3" d="M24.56,3.32l0.2,0.59l0.65-0.23c0.06-0.02,0.11,0.04,0.07,0.08l-0.4,0.51l0.61,0.31
		c0.05,0.03,0.03,0.1-0.03,0.1l-0.7,0.04l0.11,0.61c0.01,0.05-0.06,0.08-0.1,0.04L24.5,4.93l-0.47,0.46
		c-0.04,0.04-0.11,0.01-0.1-0.04l0.11-0.61l-0.7-0.04c-0.06,0-0.08-0.07-0.03-0.1l0.61-0.31l-0.4-0.51
		c-0.03-0.04,0.02-0.1,0.07-0.08l0.65,0.23l0.2-0.59C24.46,3.27,24.54,3.27,24.56,3.32L24.56,3.32z M24.56,3.32"/>
	<path class="st3" d="M20.02,7.87l0.2,0.59l0.65-0.23c0.06-0.02,0.11,0.04,0.07,0.08l-0.4,0.51l0.61,0.31
		c0.05,0.03,0.03,0.1-0.03,0.1l-0.7,0.04l0.11,0.61c0.01,0.05-0.06,0.08-0.1,0.04l-0.47-0.46l-0.47,0.46
		c-0.04,0.04-0.11,0.01-0.1-0.04l0.11-0.61l-0.7-0.04c-0.06,0-0.08-0.07-0.03-0.1l0.61-0.31l-0.4-0.51
		c-0.03-0.04,0.02-0.1,0.07-0.08l0.65,0.23l0.2-0.59C19.93,7.82,20.01,7.82,20.02,7.87L20.02,7.87z M20.02,7.87"/>
	<path class="st3" d="M28.84,5.93l0.2,0.59l0.65-0.23c0.06-0.02,0.11,0.04,0.07,0.08l-0.4,0.51l0.61,0.31
		c0.05,0.03,0.03,0.1-0.03,0.1l-0.7,0.04l0.11,0.61c0.01,0.05-0.06,0.08-0.1,0.04l-0.47-0.46l-0.47,0.46
		c-0.04,0.04-0.11,0.01-0.1-0.04l0.11-0.61l-0.7-0.04c-0.06,0-0.08-0.07-0.03-0.1l0.61-0.31l-0.4-0.51
		c-0.03-0.04,0.02-0.1,0.07-0.08l0.65,0.23l0.2-0.59C28.74,5.88,28.83,5.88,28.84,5.93L28.84,5.93z M28.84,5.93"/>
	<path class="st3" d="M24.56,13.72l0.2,0.59l0.65-0.23c0.06-0.02,0.11,0.04,0.07,0.08l-0.4,0.51l0.61,0.31
		c0.05,0.03,0.03,0.1-0.03,0.1l-0.7,0.04l0.11,0.61c0.01,0.05-0.06,0.08-0.1,0.04l-0.47-0.46l-0.47,0.46
		c-0.04,0.04-0.11,0.01-0.1-0.04l0.11-0.61l-0.7-0.04c-0.06,0-0.08-0.07-0.03-0.1l0.61-0.31l-0.4-0.51
		c-0.03-0.04,0.02-0.1,0.07-0.08l0.65,0.23l0.2-0.59C24.46,13.67,24.54,13.67,24.56,13.72L24.56,13.72z M24.56,13.72"/>
	<path class="st3" d="M26.13,8.94l-0.16,0.43l-0.52,0c-0.07,0-0.09,0.08-0.04,0.11l0.41,0.27l-0.16,0.43
		c-0.02,0.06,0.05,0.1,0.11,0.07L26.19,10l0.42,0.27c0.05,0.03,0.13-0.01,0.11-0.07l-0.16-0.43l0.41-0.27
		c0.05-0.04,0.03-0.11-0.04-0.11l-0.52,0l-0.16-0.43C26.24,8.88,26.15,8.88,26.13,8.94L26.13,8.94z M26.13,8.94"/>
</g>
</svg>
