<?xml version="1.0" encoding="utf-8"?>
<!-- Generator: Adobe Illustrator 25.0.0, SVG Export Plug-In . SVG Version: 6.00 Build 0)  -->
<svg version="1.1" id="Capa_1" xmlns="http://www.w3.org/2000/svg" xmlns:xlink="http://www.w3.org/1999/xlink" x="0px" y="0px"
	 viewBox="0 0 32 18.62" style="enable-background:new 0 0 32 18.62;" xml:space="preserve">
<style type="text/css">
	.st0{fill:#FF4B55;}
	.st1{fill:#464655;}
	.st2{fill:#73AF00;}
	.st3{fill:#F5F5F5;}
	.st4{fill:#41479B;}
	.st5{fill:#FFF5DC;}
	.st6{fill:#D27D69;}
	.st7{fill:#FFE15A;}
	.st8{fill:#B95546;}
	.st9{fill:#DCBE82;}
	.st10{fill:#D2AA73;}
	.st11{fill:#4173CD;}
	.st12{fill:#82AFFF;}
	.st13{fill:#F09146;}
	.st14{fill:#FFB400;}
	.st15{fill:#965032;}
	.st16{fill:#BE7855;}
	.st17{fill:#FFBE3C;}
	.st18{fill:#EAF3F5;}
	.st19{fill:#8C5A28;}
	.st20{fill:#F0C850;}
	.st21{fill:#FF6E55;}
	.st22{fill:#FFBE5A;}
	.st23{fill:#3CC8FF;}
	.st24{fill:#825546;}
	.st25{fill:#FFD255;}
	.st26{fill:#FFD25A;}
	.st27{fill:#509664;}
	.st28{fill:#F0AA00;}
	.st29{fill:#A561CD;}
	.st30{fill:#B34900;}
	.st31{fill:#64B496;}
	.st32{fill:#FF6B71;}
	.st33{fill:#5F64B9;}
	.st34{fill:#F5F0F0;}
	.st35{fill:#5A4646;}
	.st36{fill:#E6E1CD;}
	.st37{fill:#FFD0AF;}
	.st38{fill:#FFAF94;}
	.st39{fill:#8CB400;}
	.st40{fill:#69C3FF;}
	.st41{fill:#009B64;}
	.st42{fill:#5AA0E6;}
	.st43{fill:#FFC88C;}
	.st44{fill:#E1E1E1;}
	.st45{fill:#966446;}
	.st46{fill:#BE915A;}
	.st47{fill:#B9B9B9;}
	.st48{fill:#F0C727;}
	.st49{fill:#50AF69;}
	.st50{fill:#FFE6E6;}
	.st51{fill:#FFB750;}
	.st52{fill:#FFC455;}
	.st53{fill:#FFCD55;}
	.st54{fill:#9BC800;}
	.st55{fill:#FFE14E;}
	.st56{fill:#FFB14E;}
	.st57{fill:#B46446;}
	.st58{fill:#5FA000;}
	.st59{fill:#F2DD30;}
	.st60{fill:#FFC855;}
	.st61{fill:#A0A0A0;}
	.st62{fill:#69B469;}
	.st63{fill:#F4E08F;}
	.st64{fill:#ECD077;}
	.st65{fill:#FCF0A8;}
	.st66{fill:#FAB446;}
	.st67{fill:#C8414B;}
	.st68{fill:#FF9B46;}
	.st69{fill:#FF9B55;}
	.st70{fill:#82C3D2;}
	.st71{fill:#5AA587;}
	.st72{fill:#CDCDCD;}
	.st73{fill:#B4A08C;}
	.st74{fill:#FFD250;}
	.st75{fill:#00C3A0;}
	.st76{fill:#00AADC;}
	.st77{fill:#732D37;}
	.st78{fill:#AAD264;}
	.st79{fill:#874150;}
	.st80{fill:#783C46;}
	.st81{fill:#FFB478;}
	.st82{fill:#9B4B5A;}
	.st83{fill:#FFCD5A;}
	.st84{fill:#FFAA5A;}
	.st85{fill:#FF875A;}
	.st86{fill:#E6B432;}
	.st87{fill:#C86464;}
	.st88{fill:#FFF5E1;}
	.st89{fill:#963C3C;}
	.st90{fill:#5A8250;}
	.st91{fill:#AFEBFF;}
	.st92{fill:#557DE6;}
	.st93{fill:#D23741;}
	.st94{fill:#64C86E;}
	.st95{fill:#873250;}
	.st96{fill:#41AA5A;}
	.st97{fill:#8CD7FF;}
	.st98{fill:#6EC86E;}
	.st99{fill:#FFF0E1;}
	.st100{fill:#FFC75A;}
	.st101{fill:#FFD350;}
	.st102{fill:#FFBE50;}
	.st103{fill:#A54B50;}
	.st104{fill:#C87878;}
	.st105{fill:#FF1722;}
	.st106{fill:#FFB441;}
	.st107{fill:#5064AA;}
	.st108{fill:#FFA0D2;}
	.st109{fill:#FF7350;}
	.st110{fill:#245DBD;}
	.st111{fill:#D35A10;}
	.st112{fill:#FFA033;}
	.st113{fill:#FF9480;}
	.st114{fill:#FFA0E4;}
	.st115{fill:#696E7D;}
	.st116{fill:#FFFCFF;}
	.st117{fill:#EBEBEB;}
	.st118{fill:#FF4B57;}
	.st119{fill:#D2D2D2;}
	.st120{fill:#F0C814;}
	.st121{fill:#F7B518;}
	.st122{fill:#2C2F38;}
	.st123{fill:#4C8056;}
	.st124{fill:#F0C419;}
	.st125{fill:#C03A2B;}
	.st126{fill:#EA3F3F;}
	.st127{fill:#E4E3E1;}
	.st128{fill:#2472B2;}
</style>
<g>
	<path class="st0" d="M31.42,18.55H0.55c-0.3,0-0.55-0.22-0.55-0.49V0.53c0-0.27,0.25-0.49,0.55-0.49h30.87
		c0.3,0,0.55,0.22,0.55,0.49v17.53C31.97,18.33,31.72,18.55,31.42,18.55L31.42,18.55z M31.42,18.55"/>
	<path class="st4" d="M15.43,9.3H0.55C0.25,9.3,0,9.08,0,8.81V0.53c0-0.27,0.25-0.49,0.55-0.49h14.88c0.3,0,0.55,0.22,0.55,0.49
		v8.28C15.98,9.08,15.74,9.3,15.43,9.3L15.43,9.3z M15.43,9.3"/>
	<path class="st3" d="M15.43,0.04h-0.96L9.37,3V0.04H6.61V3L1.51,0.04H0.55C0.25,0.04,0,0.26,0,0.53v0.39l4.38,2.54H0v2.44h4.38
		L0,8.42v0.39C0,9.08,0.25,9.3,0.55,9.3h0.96l5.11-2.96V9.3h2.76V6.34l5.11,2.96h0.96c0.3,0,0.55-0.22,0.55-0.49V8.42L11.6,5.89
		h4.38V3.45H11.6l4.38-2.54V0.53C15.98,0.26,15.74,0.04,15.43,0.04L15.43,0.04z M15.43,0.04"/>
	<path class="st0" d="M15.98,3.94H8.82v-3.9H7.17v3.9H0V5.4h7.17v3.9h1.65V5.4h7.17V3.94z M15.98,3.94"/>
	<path class="st0" d="M6.06,3.45l-5.8-3.33C0.11,0.21,0,0.36,0,0.53v0.03l5.05,2.9H6.06z M6.06,3.45"/>
	<path class="st0" d="M10.38,3.45l5.52-3.16c-0.1-0.14-0.27-0.24-0.47-0.24h-0.12L9.37,3.45H10.38z M10.38,3.45"/>
	<path class="st0" d="M5.59,5.89L0.08,9.05C0.17,9.19,0.35,9.3,0.55,9.3h0.1L6.6,5.89H5.59z M5.59,5.89"/>
	<path class="st0" d="M15.98,8.85l-5.16-2.96H9.8l5.86,3.36C15.84,9.18,15.96,9.03,15.98,8.85L15.98,8.85z M15.98,8.85"/>
	<path class="st3" d="M20.04,4.78c-0.11,0-0.2,0.08-0.2,0.17v6.44c0,0.52,0.39,2.26,4.13,2.78c3.74-0.52,4.13-2.26,4.13-2.78V4.95
		c0-0.1-0.09-0.17-0.2-0.17H20.04z M20.04,4.78"/>
	<path class="st2" d="M23.98,14.17c3.12-0.44,3.91-1.72,4.09-2.44h-8.18C20.06,12.45,20.85,13.73,23.98,14.17L23.98,14.17z
		 M23.98,14.17"/>
	<path class="st12" d="M26.54,8.43c0,0,0.2-0.17,0-0.52l-2.56-0.1l-2.56,0.1c-0.2,0.35,0,0.52,0,0.52c-0.2,0.17-0.2,0.35-0.2,0.35
		h0.39l0.43,0.62l1.94,0.94l1.94-0.94l0.43-0.62h0.39C26.73,8.78,26.73,8.6,26.54,8.43L26.54,8.43z M26.54,8.43"/>
	<path class="st3" d="M25.91,9.4c0,0-0.12-0.24-0.45-0.21c0,0-0.18-0.21-0.48-0.15c0,0-0.35-0.18-0.56,0.15c0,0-0.65-0.06-0.69,0.38
		c0,0,1.01,1.35,1.04,1.37c0.02,0.01,1.21,0.01,1.21,0.01l0.55-0.54l-0.54-0.69L25.91,9.4z M25.91,9.4"/>
	<path class="st20" d="M24,9.83c0,0-0.86-1.24-0.98-1.35c-0.12-0.1-0.35-0.2-0.59-0.02c0,0-0.71-0.05-0.62,0.43l0.21,0.72
		c0,0-0.18,0.5-0.26,0.55c-0.08,0.05-0.39,0.19-0.39,0.19l0.17,0.6l2.3-0.1L24,9.83z M24,9.83"/>
	<path class="st15" d="M24.99,9.28L24.99,9.28l-0.07-0.13c-0.01-0.01-0.01-0.02-0.03-0.02c-0.01,0-0.03,0-0.04,0L24.44,9.3
		l-0.51-0.73c0.02-0.02,0.03-0.04,0.02-0.07c-0.01-0.03-0.06-0.05-0.09-0.04l-0.11,0.04l-0.08-0.2c-0.01-0.02-0.04-0.03-0.06-0.03
		c-0.03,0.01-0.04,0.03-0.03,0.06l0.08,0.2l-0.12,0.04c-0.04,0.01-0.06,0.05-0.04,0.08c0.01,0.03,0.04,0.04,0.07,0.04
		c0,0,0.01,0,0.01,0l0.17,0.89l-0.11,0.04c-0.02,0.01-0.04,0.03-0.03,0.05l0.06,0.15c0,0.03,0,0.07-0.01,0.12L22.96,8.9
		c0.03-0.02,0.04-0.05,0.03-0.08c-0.01-0.03-0.06-0.05-0.09-0.04l-0.11,0.04l-0.08-0.2c-0.01-0.02-0.04-0.04-0.06-0.03
		c-0.03,0.01-0.04,0.03-0.03,0.06l0.08,0.2l-0.12,0.04c-0.04,0.01-0.06,0.05-0.04,0.08c0.01,0.02,0.04,0.04,0.06,0.04l0.3,1.64
		c-0.04,0.01-0.08,0.03-0.12,0.04c0,0-0.14,0.59-0.03,0.62c0.11,0.03,1.21,0.33,1.21,0.33s1.52-0.64,1.55-0.65
		c0.03-0.01,0.1-0.43,0.1-0.43L24.99,9.28z M24.9,9.32l-0.13,0.05l-0.04-0.09l0.12-0.05L24.9,9.32z M24.13,9.51l0.1-0.04l0.04,0.09
		L24.17,9.6L24.13,9.51z M24.08,9.63l-0.12,0.05l-0.04-0.08l0.13-0.05L24.08,9.63z M24.37,9.52l-0.04-0.09l0.11-0.04l0.04,0.09
		L24.37,9.52z M24.53,9.35l0.11-0.04l0.04,0.09l-0.11,0.04L24.53,9.35z M23.84,8.59l0.51,0.74L24.1,9.43l-0.31-0.82L23.84,8.59z
		 M23.66,8.65l0.04-0.01l0.31,0.82l-0.19,0.07L23.66,8.65z M23.82,9.63l0.04,0.08l-0.12,0.05l-0.03-0.08L23.82,9.63z M22.87,8.93
		l0.75,1.13c-0.04,0.1-0.11,0.21-0.23,0.32l-0.55-1.43L22.87,8.93z M22.69,8.99l0.05-0.02l0.56,1.47c-0.09,0.06-0.19,0.12-0.32,0.18
		L22.69,8.99z M22.69,8.99"/>
	<path class="st0" d="M26.71,7.64c-0.05-0.07-0.22-0.04-0.22-0.04s-0.05-0.08-0.17-0.09C26.19,7.5,26.17,7.6,26.17,7.6
		s-0.02-0.02-0.16-0.01c-0.14,0-0.11,0.21-0.11,0.21s-0.05,0-0.23-0.05c-0.18-0.05-0.3-0.01-0.3-0.01
		c-0.01-0.08-0.06-0.14-0.06-0.14c-0.15,0.05-0.27-0.01-0.3-0.05c-0.03-0.05,0.05-0.12,0.05-0.18c0-0.06-0.1-0.06-0.13-0.11
		c-0.03-0.05,0-0.08,0.09-0.12c0.09-0.04,0.17-0.17,0.12-0.27c-0.06-0.11-0.22-0.09-0.22-0.09c0.06,0.01,0.1,0.1,0.01,0.12
		c-0.09,0.02-0.17-0.27-0.17-0.27c0.21,0.12,0.36,0.05,0.4-0.06c0.04-0.11-0.07-0.18-0.07-0.18c-0.09,0.13-0.24,0.02-0.16-0.07
		c0.08-0.08,0.09-0.22,0.09-0.22c-0.18,0.08-0.3-0.02-0.3-0.02c0.24-0.15,0.17-0.36,0.17-0.36C24.8,5.67,24.6,5.7,24.6,5.7
		c0.04-0.07,0.03-0.2,0.03-0.2c-0.1-0.01-0.22,0.04-0.22,0.04c0.03-0.1-0.01-0.28-0.01-0.28c-0.07,0.01-0.21,0.05-0.21,0.05
		c-0.06-0.12-0.22-0.18-0.22-0.18s-0.16,0.07-0.22,0.18c0,0-0.14-0.04-0.21-0.05c0,0-0.05,0.18-0.01,0.28c0,0-0.11-0.06-0.22-0.04
		c0,0-0.01,0.13,0.03,0.2c0,0-0.19-0.03-0.28,0.01c0,0-0.07,0.21,0.17,0.36c0,0-0.11,0.1-0.3,0.02c0,0,0.01,0.14,0.09,0.22
		c0.08,0.08-0.07,0.19-0.16,0.07c0,0-0.11,0.07-0.07,0.18c0.04,0.11,0.19,0.18,0.4,0.06c0,0-0.08,0.29-0.17,0.27
		c-0.09-0.02-0.04-0.11,0.01-0.12c0,0-0.16-0.02-0.22,0.09c-0.06,0.11,0.03,0.24,0.12,0.27c0.09,0.04,0.12,0.07,0.09,0.12
		C23,7.29,22.9,7.29,22.9,7.35c0,0.06,0.07,0.13,0.05,0.18c-0.03,0.05-0.15,0.11-0.3,0.05c0,0-0.05,0.06-0.06,0.14
		c0,0-0.12-0.04-0.3,0.01c-0.18,0.05-0.23,0.05-0.23,0.05s0.03-0.2-0.11-0.21c-0.14,0-0.16,0.01-0.16,0.01s-0.02-0.1-0.15-0.09
		c-0.13,0.01-0.17,0.09-0.17,0.09s-0.17-0.03-0.22,0.04c-0.05,0.07-0.06,0.18,0.04,0.23c0.1,0.05,0.36,0.24,0.36,0.24l0.37,0.14
		l1.29-0.51l0.68,0.16l0.68-0.16l1.29,0.51l0.37-0.14c0,0,0.26-0.19,0.36-0.24C26.77,7.83,26.77,7.72,26.71,7.64L26.71,7.64z
		 M26.71,7.64"/>
	<path class="st3" d="M23.57,5.8c0,0,0.01,0.15,0.27,0.11C23.84,5.91,23.84,5.75,23.57,5.8L23.57,5.8z M23.57,5.8"/>
	<path class="st0" d="M22.62,11.86c0,0-0.18-0.01-0.38,0.12c-0.19,0.13-0.27,0.04-0.47,0.04c-0.19,0-0.24,0.18-0.24,0.18
		s-0.37,0.08-0.22,0.32c0.09,0.15,0.22,0.15,0.31,0.13c0,0.1,0.02,0.21,0.15,0.23c0.25,0.04,0.36-0.08,0.31-0.27
		c0,0,0.03,0.19,0.2,0.18c0.17-0.01,0.28-0.09,0.26-0.28c-0.02-0.2,0.28-0.08,0.5-0.36L22.62,11.86z M22.62,11.86"/>
	<path class="st12" d="M21.54,12.56c0,0-0.11,0.13-0.08,0.26c0,0-0.25-0.07-0.11-0.39C21.35,12.44,21.52,12.4,21.54,12.56
		L21.54,12.56z M21.54,12.56"/>
	<path class="st12" d="M21.93,12.74c0,0-0.07,0.17,0.02,0.32c0,0-0.31-0.01-0.25-0.34C21.71,12.71,21.81,12.62,21.93,12.74
		L21.93,12.74z M21.93,12.74"/>
	<path class="st12" d="M22.24,12.72c0,0,0.06,0.14,0,0.28c0,0,0.25-0.01,0.21-0.33C22.45,12.67,22.31,12.62,22.24,12.72L22.24,12.72
		z M22.24,12.72"/>
	<path class="st0" d="M22.01,9.47c-0.02-0.17-1.21-0.27-1.14,0.62c0,0-0.13,0-0.2,0.11c-0.06,0.11-0.2,0.08-0.25,0.04
		c0,0,0.01,0.2,0.28,0.19c0,0-0.09,0.06-0.07,0.15c0.01,0.09,0.08,0.2,0.08,0.28c0,0.08-0.09,0.18-0.09,0.18s0.21-0.06,0.23-0.2
		c0.01-0.13-0.02-0.25,0.02-0.31c0,0-0.02,0.09,0.07,0.21c0.09,0.12,0.1,0.26,0.06,0.35c0,0,0.23-0.1,0.19-0.3
		c-0.04-0.2-0.09-0.18-0.07-0.29c0,0,0.24,0.22,0.2,0.41c0,0,0.08-0.08,0.07-0.24c-0.01-0.16-0.13-0.26-0.13-0.26
		S22.09,10.05,22.01,9.47L22.01,9.47z M22.01,9.47"/>
	<path class="st0" d="M25.33,11.86c0,0,0.18-0.01,0.38,0.12c0.19,0.13,0.27,0.04,0.47,0.04c0.19,0,0.24,0.18,0.24,0.18
		s0.37,0.08,0.22,0.32c-0.09,0.15-0.22,0.15-0.31,0.13c0,0.1-0.02,0.21-0.16,0.23c-0.25,0.04-0.36-0.08-0.31-0.27
		c0,0-0.03,0.19-0.2,0.18c-0.17-0.01-0.28-0.09-0.26-0.28c0.02-0.2-0.28-0.08-0.5-0.36L25.33,11.86z M25.33,11.86"/>
	<path class="st12" d="M26.41,12.56c0,0,0.11,0.13,0.08,0.26c0,0,0.25-0.07,0.11-0.39C26.61,12.44,26.44,12.4,26.41,12.56
		L26.41,12.56z M26.41,12.56"/>
	<path class="st12" d="M26.02,12.74c0,0,0.07,0.17-0.02,0.32c0,0,0.31-0.01,0.25-0.34C26.24,12.71,26.15,12.62,26.02,12.74
		L26.02,12.74z M26.02,12.74"/>
	<path class="st12" d="M25.72,12.72c0,0-0.06,0.14,0,0.28c0,0-0.25-0.01-0.21-0.33C25.51,12.67,25.64,12.62,25.72,12.72L25.72,12.72
		z M25.72,12.72"/>
	<path class="st0" d="M25.94,9.47c0.02-0.17,1.21-0.27,1.14,0.62c0,0,0.13,0,0.2,0.11c0.06,0.11,0.2,0.08,0.25,0.04
		c0,0-0.01,0.2-0.28,0.19c0,0,0.09,0.06,0.08,0.15c-0.01,0.09-0.09,0.2-0.08,0.28c0,0.08,0.09,0.18,0.09,0.18s-0.21-0.06-0.23-0.2
		c-0.01-0.13,0.02-0.25-0.02-0.31c0,0,0.02,0.09-0.07,0.21c-0.09,0.12-0.1,0.26-0.06,0.35c0,0-0.23-0.1-0.19-0.3
		c0.04-0.2,0.09-0.18,0.07-0.29c0,0-0.24,0.22-0.2,0.41c0,0-0.08-0.08-0.07-0.24c0.01-0.16,0.13-0.26,0.13-0.26
		S25.86,10.05,25.94,9.47L25.94,9.47z M25.94,9.47"/>
	<path class="st7" d="M26.43,7.97c-0.05-0.03-0.11-0.02-0.14,0.02c-0.06,0.08-0.14,0.13-0.25,0.15c-0.35,0.05-0.86-0.25-1.01-0.35
		c-0.21-0.14-0.48-0.16-0.65-0.07c-0.07,0.02-0.28,0.08-0.4,0.08c-0.12,0-0.33-0.06-0.4-0.08c-0.18-0.1-0.44-0.07-0.65,0.07
		c-0.15,0.1-0.66,0.4-1.01,0.35c-0.11-0.02-0.19-0.07-0.25-0.15c-0.03-0.04-0.09-0.05-0.14-0.02c-0.05,0.03-0.06,0.08-0.03,0.12
		c0.09,0.12,0.22,0.2,0.38,0.22c0.04,0.01,0.08,0.01,0.12,0.01c0.38,0,0.8-0.24,1.03-0.39c0.17-0.11,0.37-0.11,0.46-0.05
		c0.02,0.02,0.05,0.04,0.04,0.07c0,0.02-0.02,0.03-0.04,0.04c0-0.03,0-0.05-0.03-0.08c-0.04-0.03-0.1-0.03-0.14,0
		c-0.05,0.04-0.06,0.12-0.01,0.17c0.04,0.06,0.13,0.1,0.24,0.07c0.06-0.02,0.1-0.05,0.13-0.1c0.15-0.04,0.29-0.04,0.29-0.04
		s0.14,0,0.29,0.04c0.03,0.04,0.07,0.08,0.13,0.1c0.11,0.04,0.2-0.01,0.24-0.07c0.04-0.06,0.04-0.13-0.01-0.17
		c-0.04-0.03-0.1-0.03-0.14,0C24.46,7.95,24.45,7.98,24.45,8c-0.02-0.01-0.03-0.03-0.04-0.04c-0.01-0.03,0.02-0.06,0.04-0.07
		c0.09-0.07,0.28-0.07,0.46,0.05c0.23,0.15,0.66,0.39,1.03,0.39c0.04,0,0.08,0,0.12-0.01c0.16-0.03,0.29-0.1,0.38-0.22
		C26.48,8.05,26.47,7.99,26.43,7.97L26.43,7.97z M26.43,7.97"/>
	<path class="st12" d="M21.47,8.06c0,0-0.02-0.19-0.02-0.26c-0.01-0.06-0.14-0.11-0.19-0.05C21.2,7.82,21.19,7.94,21.47,8.06
		L21.47,8.06z M21.47,8.06"/>
	<path class="st12" d="M21.52,8c0,0,0.19-0.14,0.17-0.21c-0.02-0.07-0.08-0.11-0.14-0.09C21.48,7.72,21.45,7.85,21.52,8L21.52,8z
		 M21.52,8"/>
	<path class="st12" d="M21.89,7.89c0.03-0.02,0.04-0.14-0.04-0.16c-0.08-0.01-0.18,0.09-0.17,0.22C21.68,7.96,21.84,7.94,21.89,7.89
		L21.89,7.89z M21.89,7.89"/>
	<path class="st12" d="M21.81,7.96c-0.09,0.03-0.18,0.09-0.18,0.09s0.16,0.1,0.27,0.07C22.02,8.09,21.97,7.92,21.81,7.96L21.81,7.96
		z M21.81,7.96"/>
	<path class="st3" d="M24.38,5.8c0,0-0.01,0.15-0.27,0.11C24.11,5.91,24.12,5.75,24.38,5.8L24.38,5.8z M24.38,5.8"/>
	<path class="st12" d="M26.48,8.06c0,0,0.02-0.19,0.02-0.26c0.01-0.06,0.14-0.11,0.19-0.05C26.75,7.82,26.76,7.94,26.48,8.06
		L26.48,8.06z M26.48,8.06"/>
	<path class="st12" d="M26.44,8c0,0-0.19-0.14-0.17-0.21c0.02-0.07,0.08-0.11,0.14-0.09C26.47,7.72,26.5,7.85,26.44,8L26.44,8z
		 M26.44,8"/>
	<path class="st12" d="M26.06,7.89c-0.03-0.02-0.04-0.14,0.04-0.16c0.08-0.01,0.18,0.09,0.17,0.22C26.27,7.96,26.11,7.94,26.06,7.89
		L26.06,7.89z M26.06,7.89"/>
	<path class="st12" d="M26.14,7.96c0.09,0.03,0.18,0.09,0.18,0.09s-0.16,0.1-0.27,0.07C25.93,8.09,25.99,7.92,26.14,7.96L26.14,7.96
		z M26.14,7.96"/>
	<path class="st1" d="M23.87,6.16l0.08,0.07c0.01,0.01,0.03,0.01,0.05,0l0.08-0.07c0.02-0.02,0.01-0.05-0.02-0.05H23.9
		C23.87,6.11,23.85,6.14,23.87,6.16L23.87,6.16z M23.87,6.16"/>
	<path class="st1" d="M23.83,6.45c-0.06,0-0.11-0.02-0.14-0.05c-0.04-0.04-0.05-0.08-0.04-0.13c0-0.02,0.02-0.03,0.04-0.03
		c0.02,0,0.03,0.02,0.03,0.04c-0.01,0.03,0,0.06,0.02,0.08c0.02,0.02,0.06,0.03,0.1,0.03c0.09,0,0.1-0.08,0.1-0.08l0-0.14
		c0-0.02,0.02-0.03,0.03-0.03c0.02,0,0.03,0.01,0.03,0.03v0.14C24,6.36,23.96,6.44,23.83,6.45C23.84,6.45,23.84,6.45,23.83,6.45
		L23.83,6.45z M23.83,6.45"/>
	<path class="st1" d="M24.12,6.45C24.12,6.45,24.11,6.45,24.12,6.45c-0.12,0-0.17-0.09-0.18-0.13l0-0.15c0-0.02,0.02-0.03,0.03-0.03
		c0.02,0,0.03,0.01,0.03,0.03v0.14c0,0,0.02,0.07,0.1,0.08c0.04,0,0.07-0.01,0.1-0.03c0.02-0.02,0.03-0.05,0.02-0.08
		c0-0.02,0.01-0.03,0.03-0.03c0.02,0,0.04,0.01,0.04,0.03c0.01,0.05-0.01,0.1-0.04,0.13C24.23,6.43,24.18,6.45,24.12,6.45
		L24.12,6.45z M24.12,6.45"/>
	<path class="st3" d="M25.16,10.86c0,0-0.25-0.35-0.53-0.12c-0.29,0.23-0.39,0.51-0.72,0.49c-0.18-0.01-0.27-0.08-0.32-0.15
		c0.09-0.06,0.15-0.16,0.08-0.3c-0.15-0.31-0.69-0.22-0.84,0.12c0,0,0.17-0.5-0.43-0.33c0,0-0.07-0.35-0.42-0.25
		c-0.19,0.05-0.26,0.15-0.28,0.24c-0.07-0.01-0.17-0.01-0.25,0.05l0.43,1.04l0.66,0.01l0.15,0.2l0.86,0.48l0.16,0.29h0.54
		c0,0,0.04-0.3,0.33-0.38c0.29-0.09,0.75-0.27,0.8-0.43l0.05-0.16l0.52,0.01c0.06-0.04,0.44-0.59,0.44-0.59l0.18-0.72
		C26.48,10.33,25.35,10.2,25.16,10.86L25.16,10.86z M25.16,10.86"/>
	<path class="st3" d="M26.58,10.33L26.58,10.33C26.58,10.34,26.58,10.34,26.58,10.33L26.58,10.33z M26.58,10.33"/>
	<path class="st7" d="M23,11.97c-0.21-0.08-0.29-0.18-0.31-0.24c-0.02-0.05-0.02-0.09-0.01-0.1c0.01-0.03,0.03-0.05,0.05-0.05
		c0.01,0,0.03,0,0.04,0.01c0.01,0.01,0.01,0.03,0,0.03c-0.04,0.03-0.04,0.09,0,0.12c0.04,0.03,0.1,0.04,0.14,0
		c0.04-0.03,0.06-0.08,0.07-0.13c0-0.06-0.02-0.11-0.06-0.15c-0.04-0.04-0.12-0.07-0.21-0.06c-0.02,0-0.04,0.01-0.06,0.02
		c0.01-0.12-0.04-0.18-0.08-0.21c-0.06-0.04-0.16-0.04-0.24,0c-0.08,0.04-0.12,0.11-0.11,0.19c0.01,0.05,0.06,0.08,0.11,0.07
		c0.05-0.01,0.1-0.05,0.09-0.1c0.01-0.01,0.03-0.01,0.03-0.01c0,0,0.01,0.02,0,0.08c-0.02,0.1-0.08,0.16-0.17,0.18
		c-0.11,0.03-0.25-0.01-0.34-0.1c-0.12-0.11-0.36-0.72-0.51-1.12c0.62-0.26,0.7-0.69,0.69-0.94c-0.02-0.37-0.27-0.74-0.54-0.82
		c-0.11-0.03-0.27-0.04-0.39,0.02C21.1,8.7,21.06,8.74,21.04,8.8c-0.04,0.12,0.04,0.22,0.15,0.25c0.11,0.03,0.21-0.01,0.25-0.1
		c0.02-0.04,0-0.1-0.05-0.11c-0.05-0.02-0.11,0-0.13,0.05c0,0-0.02,0-0.03-0.01c-0.01-0.01-0.01-0.01-0.01-0.02
		c0-0.01,0.01-0.02,0.04-0.04c0.06-0.03,0.17-0.03,0.24-0.01c0.16,0.04,0.39,0.32,0.41,0.66c0.01,0.21-0.06,0.58-0.65,0.8
		c-0.05,0.02-0.07,0.06-0.06,0.11c0.04,0.11,0.38,1.07,0.57,1.26c0.1,0.1,0.26,0.16,0.41,0.16c0.04,0,0.08,0,0.12-0.01
		c0.07-0.02,0.12-0.05,0.17-0.08c0,0.03,0.01,0.06,0.03,0.1c0.04,0.08,0.14,0.23,0.44,0.34c0.6,0.21,0.65,0.35,0.65,0.4
		c0,0.03-0.02,0.04-0.03,0.05c-0.01,0-0.01,0.01-0.02,0.01c0.02-0.03,0.03-0.06,0.01-0.09c-0.03-0.04-0.09-0.06-0.13-0.03
		c-0.07,0.03-0.11,0.11-0.07,0.2c0.03,0.07,0.1,0.11,0.19,0.11c0.01,0,0.03,0,0.04,0c0.12-0.02,0.21-0.11,0.22-0.22
		C23.81,12.29,23.36,12.1,23,11.97L23,11.97z M23,11.97"/>
	<path class="st7" d="M24.95,11.97c0.21-0.08,0.29-0.18,0.31-0.24c0.02-0.05,0.02-0.09,0.01-0.1c-0.01-0.03-0.03-0.05-0.05-0.05
		c-0.01,0-0.03,0-0.04,0.01c-0.01,0.01-0.01,0.03,0,0.03c0.04,0.03,0.04,0.09,0,0.12c-0.04,0.03-0.1,0.04-0.14,0
		c-0.04-0.03-0.06-0.08-0.07-0.13c0-0.06,0.02-0.11,0.06-0.15c0.04-0.04,0.12-0.07,0.21-0.06c0.02,0,0.04,0.01,0.06,0.02
		c-0.01-0.12,0.04-0.18,0.08-0.21c0.06-0.04,0.16-0.04,0.24,0c0.08,0.04,0.12,0.11,0.11,0.19c-0.01,0.05-0.06,0.08-0.11,0.07
		c-0.05-0.01-0.1-0.05-0.09-0.1c-0.01-0.01-0.03-0.01-0.03-0.01c0,0-0.01,0.02,0,0.08c0.02,0.1,0.08,0.16,0.17,0.18
		c0.11,0.03,0.25-0.01,0.34-0.1c0.12-0.11,0.36-0.72,0.51-1.12c-0.62-0.26-0.7-0.69-0.69-0.94c0.02-0.37,0.27-0.74,0.54-0.82
		c0.11-0.03,0.27-0.04,0.39,0.02c0.07,0.03,0.11,0.08,0.13,0.14c0.04,0.12-0.04,0.22-0.15,0.25c-0.11,0.03-0.21-0.01-0.25-0.1
		c-0.02-0.04,0-0.1,0.05-0.11c0.05-0.02,0.11,0,0.13,0.05c0,0,0.02,0,0.03-0.01c0.01-0.01,0.01-0.01,0.01-0.02
		c0-0.01-0.01-0.02-0.04-0.04c-0.06-0.03-0.17-0.03-0.24-0.01c-0.16,0.04-0.39,0.32-0.41,0.66c-0.01,0.21,0.06,0.58,0.65,0.8
		c0.05,0.02,0.07,0.06,0.06,0.11c-0.04,0.11-0.38,1.07-0.57,1.26c-0.1,0.1-0.26,0.16-0.41,0.16c-0.04,0-0.08,0-0.12-0.01
		c-0.07-0.02-0.12-0.05-0.17-0.08c0,0.03-0.01,0.06-0.03,0.1c-0.04,0.08-0.14,0.23-0.44,0.34c-0.6,0.21-0.65,0.35-0.65,0.4
		c0,0.03,0.02,0.04,0.03,0.05c0.01,0,0.01,0.01,0.02,0.01c-0.02-0.03-0.03-0.06-0.01-0.09c0.03-0.04,0.09-0.06,0.13-0.03
		c0.07,0.03,0.11,0.11,0.07,0.2c-0.03,0.07-0.1,0.11-0.19,0.11c-0.01,0-0.03,0-0.04,0c-0.12-0.02-0.21-0.11-0.22-0.22
		C24.14,12.29,24.59,12.1,24.95,11.97L24.95,11.97z M24.95,11.97"/>
</g>
</svg>
