<?xml version="1.0" encoding="utf-8"?>
<!-- Generator: Adobe Illustrator 25.0.0, SVG Export Plug-In . SVG Version: 6.00 Build 0)  -->
<svg version="1.1" id="Capa_1" xmlns="http://www.w3.org/2000/svg" xmlns:xlink="http://www.w3.org/1999/xlink" x="0px" y="0px"
	 viewBox="0 0 32 18.62" style="enable-background:new 0 0 32 18.62;" xml:space="preserve">
<style type="text/css">
	.st0{fill:#FF4B55;}
	.st1{fill:#464655;}
	.st2{fill:#73AF00;}
	.st3{fill:#F5F5F5;}
	.st4{fill:#41479B;}
	.st5{fill:#FFF5DC;}
	.st6{fill:#D27D69;}
	.st7{fill:#FFE15A;}
	.st8{fill:#B95546;}
	.st9{fill:#DCBE82;}
	.st10{fill:#D2AA73;}
	.st11{fill:#4173CD;}
	.st12{fill:#82AFFF;}
	.st13{fill:#F09146;}
	.st14{fill:#FFB400;}
	.st15{fill:#965032;}
	.st16{fill:#BE7855;}
	.st17{fill:#FFBE3C;}
	.st18{fill:#EAF3F5;}
	.st19{fill:#8C5A28;}
	.st20{fill:#F0C850;}
	.st21{fill:#FF6E55;}
	.st22{fill:#FFBE5A;}
	.st23{fill:#3CC8FF;}
	.st24{fill:#825546;}
	.st25{fill:#FFD255;}
	.st26{fill:#FFD25A;}
	.st27{fill:#509664;}
	.st28{fill:#F0AA00;}
	.st29{fill:#A561CD;}
	.st30{fill:#B34900;}
	.st31{fill:#64B496;}
	.st32{fill:#FF6B71;}
	.st33{fill:#5F64B9;}
	.st34{fill:#F5F0F0;}
	.st35{fill:#5A4646;}
	.st36{fill:#E6E1CD;}
	.st37{fill:#FFD0AF;}
	.st38{fill:#FFAF94;}
	.st39{fill:#8CB400;}
	.st40{fill:#69C3FF;}
	.st41{fill:#009B64;}
	.st42{fill:#5AA0E6;}
	.st43{fill:#FFC88C;}
	.st44{fill:#E1E1E1;}
	.st45{fill:#966446;}
	.st46{fill:#BE915A;}
	.st47{fill:#B9B9B9;}
	.st48{fill:#F0C727;}
	.st49{fill:#50AF69;}
	.st50{fill:#FFE6E6;}
	.st51{fill:#FFB750;}
	.st52{fill:#FFC455;}
	.st53{fill:#FFCD55;}
	.st54{fill:#9BC800;}
	.st55{fill:#FFE14E;}
	.st56{fill:#FFB14E;}
	.st57{fill:#B46446;}
	.st58{fill:#5FA000;}
	.st59{fill:#F2DD30;}
	.st60{fill:#FFC855;}
	.st61{fill:#A0A0A0;}
	.st62{fill:#69B469;}
	.st63{fill:#F4E08F;}
	.st64{fill:#ECD077;}
	.st65{fill:#FCF0A8;}
	.st66{fill:#FAB446;}
	.st67{fill:#C8414B;}
	.st68{fill:#FF9B46;}
	.st69{fill:#FF9B55;}
	.st70{fill:#82C3D2;}
	.st71{fill:#5AA587;}
	.st72{fill:#CDCDCD;}
	.st73{fill:#B4A08C;}
	.st74{fill:#FFD250;}
	.st75{fill:#00C3A0;}
	.st76{fill:#00AADC;}
	.st77{fill:#732D37;}
	.st78{fill:#AAD264;}
	.st79{fill:#874150;}
	.st80{fill:#783C46;}
	.st81{fill:#FFB478;}
	.st82{fill:#9B4B5A;}
	.st83{fill:#FFCD5A;}
	.st84{fill:#FFAA5A;}
	.st85{fill:#FF875A;}
	.st86{fill:#E6B432;}
	.st87{fill:#C86464;}
	.st88{fill:#FFF5E1;}
	.st89{fill:#963C3C;}
	.st90{fill:#5A8250;}
	.st91{fill:#AFEBFF;}
	.st92{fill:#557DE6;}
	.st93{fill:#D23741;}
	.st94{fill:#64C86E;}
	.st95{fill:#873250;}
	.st96{fill:#41AA5A;}
	.st97{fill:#8CD7FF;}
	.st98{fill:#6EC86E;}
	.st99{fill:#FFF0E1;}
	.st100{fill:#FFC75A;}
	.st101{fill:#FFD350;}
	.st102{fill:#FFBE50;}
	.st103{fill:#A54B50;}
	.st104{fill:#C87878;}
	.st105{fill:#FF1722;}
	.st106{fill:#FFB441;}
	.st107{fill:#5064AA;}
	.st108{fill:#FFA0D2;}
	.st109{fill:#FF7350;}
	.st110{fill:#245DBD;}
	.st111{fill:#D35A10;}
	.st112{fill:#FFA033;}
	.st113{fill:#FF9480;}
	.st114{fill:#FFA0E4;}
	.st115{fill:#696E7D;}
	.st116{fill:#FFFCFF;}
	.st117{fill:#EBEBEB;}
	.st118{fill:#FF4B57;}
	.st119{fill:#D2D2D2;}
	.st120{fill:#F0C814;}
	.st121{fill:#F7B518;}
	.st122{fill:#2C2F38;}
	.st123{fill:#4C8056;}
	.st124{fill:#F0C419;}
	.st125{fill:#C03A2B;}
	.st126{fill:#EA3F3F;}
	.st127{fill:#E4E3E1;}
	.st128{fill:#2472B2;}
</style>
<g>
	<path class="st2" d="M0,12.38h31.97v5.68c0,0.27-0.25,0.49-0.55,0.49H0.55c-0.3,0-0.55-0.22-0.55-0.49V12.38z M0,12.38"/>
	<path class="st0" d="M0.55,0.04h30.87c0.3,0,0.55,0.22,0.55,0.49v5.68H0V0.53C0,0.26,0.25,0.04,0.55,0.04L0.55,0.04z M0.55,0.04"/>
	<rect x="0" y="6.21" class="st7" width="31.97" height="6.17"/>
	<path class="st2" d="M15.27,6.54l-0.04,0.04c-0.02,0.03-0.06,0.07-0.09,0.12c-0.07,0.11-0.15,0.28-0.15,0.49
		c0,0.1,0.02,0.22,0.06,0.32c0.04,0.11,0.11,0.21,0.2,0.3c0.09,0.09,0.2,0.16,0.33,0.21c0.06,0.03,0.13,0.04,0.2,0.06
		c0.03,0.01,0.07,0.01,0.1,0.02c0.02,0,0.04,0,0.05,0l0.03,0l0.01,0l0.01,0l0,0h0c-0.01,0,0.01,0-0.01,0c0.04,0,0.09,0,0.13-0.01
		c0.03-0.01,0.06-0.01,0.09-0.01c0.07-0.01,0.14-0.03,0.2-0.06c0.12-0.05,0.24-0.12,0.33-0.21c0.09-0.09,0.16-0.19,0.2-0.3
		c0.04-0.11,0.06-0.21,0.06-0.32c0-0.2-0.08-0.37-0.15-0.48c-0.04-0.06-0.07-0.1-0.09-0.13c-0.02-0.03-0.04-0.04-0.04-0.04l0,0
		c-0.02-0.03-0.02-0.07,0.01-0.09c0.02-0.02,0.06-0.02,0.08,0c0,0,0.02,0.01,0.06,0.03C16.88,6.5,16.94,6.54,17,6.59
		c0.12,0.11,0.28,0.29,0.33,0.57c0.03,0.13,0.03,0.29-0.01,0.45c-0.04,0.16-0.11,0.32-0.24,0.46c-0.12,0.14-0.28,0.27-0.48,0.36
		c-0.1,0.04-0.2,0.08-0.3,0.1c-0.05,0.01-0.12,0.02-0.17,0.03C16.08,8.55,16.04,8.55,16,8.56h-0.02l0,0l-0.01,0l-0.02,0l-0.04,0
		c-0.03,0-0.05,0-0.08-0.01c-0.05-0.01-0.11-0.01-0.16-0.03c-0.11-0.02-0.21-0.06-0.3-0.1C15.16,8.34,15,8.21,14.88,8.07
		c-0.12-0.14-0.2-0.31-0.24-0.46c-0.04-0.17-0.04-0.31-0.01-0.45c0.06-0.27,0.21-0.46,0.33-0.57c0.06-0.05,0.12-0.09,0.15-0.11
		c0.04-0.02,0.06-0.03,0.06-0.03c0.03-0.02,0.08-0.01,0.1,0.02C15.29,6.49,15.29,6.52,15.27,6.54L15.27,6.54z M15.27,6.54"/>
	<path class="st0" d="M15.85,11.39v0.77c0,0.08-0.11,0.12-0.17,0.06l-0.05-0.04c-0.04-0.04-0.06-0.08-0.06-0.13v-0.66H15.85z
		 M15.85,11.39"/>
	<path class="st7" d="M15.43,11.26v0.56c0,0.03,0.02,0.07,0.04,0.09l0.1,0.09v-0.73H15.43z M15.43,11.26"/>
	<path class="st2" d="M15.29,11.26v0.3c0,0.04,0.02,0.08,0.05,0.11l0.08,0.08v-0.49H15.29z M15.29,11.26"/>
	<path class="st0" d="M16.12,11.39v0.77c0,0.08,0.11,0.12,0.17,0.06l0.05-0.04c0.04-0.04,0.06-0.08,0.06-0.13v-0.66H16.12z
		 M16.12,11.39"/>
	<path class="st7" d="M16.54,11.26v0.56c0,0.03-0.02,0.07-0.04,0.09L16.4,12v-0.73H16.54z M16.54,11.26"/>
	<path class="st2" d="M16.68,11.26v0.3c0,0.04-0.02,0.08-0.05,0.11l-0.09,0.08v-0.49H16.68z M16.68,11.26"/>
	<path class="st0" d="M16.68,9.06l1.52-0.98v2.01c0,0.58-0.53,1.05-1.18,1.05c-0.22,0-0.44-0.05-0.63-0.16l-0.82-0.45V9.04
		L16.68,9.06z M16.68,9.06"/>
	<path class="st7" d="M17.65,8.44v1.41c0,0.58-0.53,1.05-1.18,1.05c-0.1,0-0.2-0.01-0.29-0.03l-0.6-0.33V9.04l1.11,0.02L17.65,8.44z
		 M17.65,8.44"/>
	<path class="st2" d="M17.23,8.71v0.91c0,0.58-0.53,1.05-1.18,1.05c-0.1,0-0.2-0.01-0.29-0.03l-0.19-0.1V9.04l1.11,0.02L17.23,8.71z
		 M17.23,8.71"/>
	<path class="st3" d="M18.28,7.86l0.61-0.27l-0.44,0.49H18.2L18.28,7.86z M18.28,7.86"/>
	<path class="st0" d="M17.51,9.67l1.52-0.98v2.01c0,0.58-0.53,1.05-1.18,1.05c-0.22,0-0.44-0.06-0.63-0.16l-0.82-0.45V9.66
		L17.51,9.67z M17.51,9.67"/>
	<path class="st2" d="M18.06,9.32v0.91c0,0.58-0.53,1.05-1.18,1.05c-0.1,0-0.2-0.01-0.29-0.03l-0.19-0.1V9.66l1.11,0.02L18.06,9.32z
		 M18.06,9.32"/>
	<path class="st3" d="M19.11,8.47l0.61-0.27l-0.44,0.49h-0.25L19.11,8.47z M19.11,8.47"/>
	<path class="st0" d="M17.09,9.43l1.52-0.98v2.01c0,0.58-0.53,1.05-1.18,1.05c-0.22,0-0.44-0.06-0.63-0.16l-0.82-0.45V9.41
		L17.09,9.43z M17.09,9.43"/>
	<path class="st7" d="M18.06,8.81v1.41c0,0.58-0.53,1.05-1.18,1.05c-0.1,0-0.2-0.01-0.29-0.03l-0.6-0.33V9.41l1.11,0.02L18.06,8.81z
		 M18.06,8.81"/>
	<path class="st2" d="M17.65,9.07v0.91c0,0.58-0.53,1.05-1.18,1.05c-0.1,0-0.2-0.01-0.29-0.03l-0.19-0.1V9.41l1.11,0.02L17.65,9.07z
		 M17.65,9.07"/>
	<path class="st3" d="M18.7,8.23l0.61-0.27l-0.44,0.49h-0.25L18.7,8.23z M18.7,8.23"/>
	<path class="st0" d="M15.29,9.06l-1.52-0.98v2.01c0,0.58,0.53,1.05,1.18,1.05c0.22,0,0.44-0.05,0.63-0.16l0.82-0.45V9.04
		L15.29,9.06z M15.29,9.06"/>
	<path class="st7" d="M14.32,8.44v1.41c0,0.58,0.53,1.05,1.18,1.05c0.1,0,0.2-0.01,0.29-0.03l0.6-0.33V9.04l-1.11,0.02L14.32,8.44z
		 M14.32,8.44"/>
	<path class="st2" d="M14.74,8.71v0.91c0,0.58,0.53,1.05,1.18,1.05c0.1,0,0.2-0.01,0.29-0.03l0.19-0.1V9.04l-1.11,0.02L14.74,8.71z
		 M14.74,8.71"/>
	<path class="st3" d="M13.69,7.86l-0.61-0.27l0.44,0.49h0.25L13.69,7.86z M13.69,7.86"/>
	<path class="st0" d="M14.46,9.67l-1.52-0.98v2.01c0,0.58,0.53,1.05,1.18,1.05c0.22,0,0.44-0.06,0.63-0.16l0.82-0.45V9.66
		L14.46,9.67z M14.46,9.67"/>
	<path class="st2" d="M13.91,9.32v0.91c0,0.58,0.53,1.05,1.18,1.05c0.1,0,0.2-0.01,0.29-0.03l0.19-0.1V9.66l-1.11,0.02L13.91,9.32z
		 M13.91,9.32"/>
	<path class="st3" d="M12.85,8.47L12.24,8.2l0.44,0.49h0.25L12.85,8.47z M12.85,8.47"/>
	<path class="st0" d="M14.88,9.43l-1.52-0.98v2.01c0,0.58,0.53,1.05,1.18,1.05c0.22,0,0.44-0.06,0.63-0.16l0.82-0.45V9.41
		L14.88,9.43z M14.88,9.43"/>
	<path class="st7" d="M13.91,8.81v1.41c0,0.58,0.53,1.05,1.18,1.05c0.1,0,0.2-0.01,0.29-0.03l0.6-0.33V9.41l-1.11,0.02L13.91,8.81z
		 M13.91,8.81"/>
	<path class="st2" d="M14.32,9.07v0.91c0,0.58,0.53,1.05,1.18,1.05c0.1,0,0.2-0.01,0.29-0.03l0.19-0.1V9.41l-1.11,0.02L14.32,9.07z
		 M14.32,9.07"/>
	<path class="st22" d="M14.17,11.25l-0.18-0.16c-0.11-0.1-0.11-0.26,0.01-0.35l3.02-2.51l0.39,0.35l-2.84,2.67
		C14.46,11.34,14.28,11.35,14.17,11.25L14.17,11.25z M14.17,11.25"/>
	<path class="st22" d="M14.22,11.17c0,0.07-0.06,0.12-0.14,0.12c-0.08,0-0.14-0.05-0.14-0.12c0-0.07,0.06-0.12,0.14-0.12
		C14.16,11.05,14.22,11.1,14.22,11.17L14.22,11.17z M14.22,11.17"/>
	<path class="st3" d="M17.02,8.23c0.05-0.05,0.19-0.01,0.29,0.09c0.11,0.1,0.15,0.21,0.1,0.26c-0.05,0.05-0.19,0.01-0.29-0.09
		C17.01,8.39,16.96,8.27,17.02,8.23L17.02,8.23z M17.02,8.23"/>
	<path class="st22" d="M17.8,11.25l0.18-0.16c0.11-0.1,0.11-0.26-0.01-0.35l-3.02-2.51l-0.39,0.35l2.84,2.67
		C17.51,11.34,17.69,11.35,17.8,11.25L17.8,11.25z M17.8,11.25"/>
	<path class="st22" d="M18.03,11.17c0,0.07-0.06,0.12-0.14,0.12c-0.08,0-0.14-0.05-0.14-0.12c0-0.07,0.06-0.12,0.14-0.12
		C17.97,11.05,18.03,11.1,18.03,11.17L18.03,11.17z M18.03,11.17"/>
	<path class="st3" d="M14.95,8.23c0.05,0.05,0.01,0.16-0.1,0.26c-0.11,0.1-0.24,0.13-0.29,0.09c-0.05-0.05-0.01-0.16,0.1-0.26
		C14.77,8.22,14.9,8.18,14.95,8.23L14.95,8.23z M14.95,8.23"/>
	<path class="st22" d="M17.21,9.86c0,0.71-0.55,1.28-1.22,1.28c-0.68,0-1.23-0.58-1.23-1.28c0-0.71,0.55-1.29,1.23-1.29
		C16.66,8.57,17.21,9.15,17.21,9.86L17.21,9.86z M17.21,9.86"/>
	<path class="st0" d="M15.98,8.69l0.06,0.25l0.15-0.22l-0.03,0.26l0.22-0.17l-0.11,0.24l0.27-0.1l-0.19,0.19l0.29-0.02l-0.25,0.13
		l0.28,0.06l-0.28,0.06l0.25,0.13l-0.29-0.02l0.19,0.19l-0.27-0.1l0.11,0.24l-0.22-0.17l0.03,0.25l-0.15-0.22l-0.06,0.25l-0.06-0.25
		l-0.15,0.22l0.03-0.25L15.58,9.8l0.11-0.24l-0.27,0.1l0.19-0.19L15.33,9.5l0.25-0.13l-0.28-0.06l0.28-0.06l-0.25-0.13l0.29,0.02
		l-0.19-0.19l0.27,0.1l-0.11-0.24l0.22,0.17l-0.03-0.26l0.15,0.22L15.98,8.69z M15.98,8.69"/>
	<path class="st2" d="M17.52,9.83c0,0-0.46,0.11-0.76-0.11c-0.33-0.25-0.58-0.36-0.69-0.41c-0.04-0.02-0.08-0.02-0.11,0
		c-0.08,0.03-0.22,0.1-0.34,0.19c-0.18,0.14-0.74,0.42-0.85,0.42v0.61l0.88,0.67l1.04-0.03L17.52,9.83z M17.52,9.83"/>
	<path class="st23" d="M15.98,11.45c-0.88,0-1.59-0.71-1.59-1.59c0-0.88,0.71-1.59,1.59-1.59c0.88,0,1.59,0.71,1.59,1.59
		C17.58,10.73,16.86,11.45,15.98,11.45L15.98,11.45z M15.98,8.63c-0.65,0-1.18,0.55-1.18,1.22c0,0.67,0.53,1.22,1.18,1.22
		c0.65,0,1.18-0.55,1.18-1.22C17.16,9.18,16.63,8.63,15.98,8.63L15.98,8.63z M15.98,8.63"/>
	<path class="st22" d="M15.75,11.12l0.03,0.08l0.1,0c0.01,0,0.02,0.01,0.01,0.02l-0.08,0.05l0.03,0.08c0,0.01-0.01,0.02-0.02,0.01
		l-0.08-0.05l-0.08,0.05c-0.01,0.01-0.02,0-0.02-0.01l0.03-0.08l-0.08-0.05c-0.01-0.01,0-0.02,0.01-0.02l0.1,0l0.03-0.08
		C15.73,11.11,15.74,11.11,15.75,11.12L15.75,11.12z M15.75,11.12"/>
	<path class="st22" d="M15.31,10.95l0.03,0.08l0.1,0c0.01,0,0.02,0.01,0.01,0.02l-0.08,0.05l0.03,0.08c0,0.01-0.01,0.02-0.02,0.01
		l-0.08-0.05l-0.08,0.05c-0.01,0.01-0.02,0-0.02-0.01l0.03-0.08l-0.08-0.05c-0.01-0.01,0-0.02,0.01-0.02l0.1,0l0.03-0.08
		C15.29,10.94,15.31,10.94,15.31,10.95L15.31,10.95z M15.31,10.95"/>
	<path class="st22" d="M14.96,10.67L15,10.75l0.1,0c0.01,0,0.02,0.01,0.01,0.02l-0.08,0.05l0.03,0.08c0,0.01-0.01,0.02-0.02,0.01
		l-0.08-0.05l-0.08,0.05c-0.01,0.01-0.02,0-0.02-0.01l0.03-0.08l-0.08-0.05c-0.01-0.01,0-0.02,0.01-0.02l0.1,0l0.03-0.08
		C14.94,10.66,14.96,10.66,14.96,10.67L14.96,10.67z M14.96,10.67"/>
	<path class="st22" d="M14.73,10.3l0.03,0.08l0.1,0c0.01,0,0.02,0.01,0.01,0.02l-0.08,0.05l0.03,0.08c0,0.01-0.01,0.02-0.02,0.01
		l-0.08-0.05l-0.08,0.05c-0.01,0.01-0.02,0-0.02-0.01l0.03-0.08l-0.08-0.05c-0.01-0.01,0-0.02,0.01-0.02l0.1,0l0.03-0.08
		C14.71,10.29,14.72,10.29,14.73,10.3L14.73,10.3z M14.73,10.3"/>
	<path class="st22" d="M14.62,9.87l0.03,0.08l0.1,0c0.01,0,0.02,0.01,0.01,0.02l-0.08,0.05l0.03,0.08c0,0.01-0.01,0.02-0.02,0.01
		l-0.08-0.05l-0.08,0.05c-0.01,0.01-0.02,0-0.02-0.01l0.03-0.08l-0.08-0.05c-0.01-0.01,0-0.02,0.01-0.02l0.1,0l0.03-0.08
		C14.6,9.86,14.62,9.86,14.62,9.87L14.62,9.87z M14.62,9.87"/>
	<path class="st22" d="M16.22,11.12l-0.03,0.08l-0.1,0c-0.01,0-0.02,0.01-0.01,0.02l0.08,0.05l-0.03,0.08
		c0,0.01,0.01,0.02,0.02,0.01l0.08-0.05l0.08,0.05c0.01,0.01,0.02,0,0.02-0.01l-0.03-0.08l0.08-0.05c0.01-0.01,0-0.02-0.01-0.02
		l-0.1,0l-0.03-0.08C16.24,11.11,16.23,11.11,16.22,11.12L16.22,11.12z M16.22,11.12"/>
	<path class="st22" d="M16.66,10.95l-0.03,0.08l-0.1,0c-0.01,0-0.02,0.01-0.01,0.02l0.08,0.05l-0.03,0.08
		c0,0.01,0.01,0.02,0.02,0.01l0.08-0.05l0.08,0.05c0.01,0.01,0.02,0,0.02-0.01l-0.03-0.08l0.08-0.05c0.01-0.01,0-0.02-0.01-0.02
		l-0.1,0l-0.03-0.08C16.68,10.94,16.66,10.94,16.66,10.95L16.66,10.95z M16.66,10.95"/>
	<path class="st22" d="M17,10.67l-0.03,0.08l-0.1,0c-0.01,0-0.02,0.01-0.01,0.02l0.08,0.05l-0.03,0.08c0,0.01,0.01,0.02,0.02,0.01
		l0.08-0.05l0.08,0.05c0.01,0.01,0.02,0,0.02-0.01l-0.03-0.08l0.08-0.05c0.01-0.01,0-0.02-0.01-0.02l-0.1,0l-0.03-0.08
		C17.02,10.66,17.01,10.66,17,10.67L17,10.67z M17,10.67"/>
	<path class="st22" d="M17.24,10.3l-0.03,0.08l-0.1,0c-0.01,0-0.02,0.01-0.01,0.02l0.08,0.05l-0.03,0.08c0,0.01,0.01,0.02,0.02,0.01
		l0.08-0.05l0.08,0.05c0.01,0.01,0.02,0,0.02-0.01l-0.03-0.08l0.08-0.05c0.01-0.01,0-0.02-0.01-0.02l-0.1,0l-0.03-0.08
		C17.26,10.29,17.24,10.29,17.24,10.3L17.24,10.3z M17.24,10.3"/>
	<path class="st22" d="M17.34,9.87l-0.03,0.08l-0.1,0c-0.01,0-0.02,0.01-0.01,0.02l0.08,0.05l-0.03,0.08c0,0.01,0.01,0.02,0.02,0.01
		l0.08-0.05l0.08,0.05c0.01,0.01,0.02,0,0.02-0.01l-0.03-0.08l0.08-0.05c0.01-0.01,0-0.02-0.01-0.02l-0.1,0l-0.03-0.08
		C17.37,9.86,17.35,9.86,17.34,9.87L17.34,9.87z M17.34,9.87"/>
	<path class="st3" d="M15.38,10.64l0.05,0.19h0.02V10.7c0,0,0.03,0.09,0.08,0.13h0.04c-0.02-0.02-0.05-0.06-0.05-0.11
		c0-0.06,0.05-0.07,0.05-0.13h0.05v0.24h0.03l0.05-0.21c0,0,0.04,0.13,0.12,0.21h0.03c-0.02-0.03-0.08-0.12-0.07-0.24
		c0,0,0.07-0.03,0.07-0.12v-0.13c0-0.02,0.02-0.04,0.05-0.04h0.03c0,0-0.05-0.09-0.1-0.1v-0.05l-0.04,0.05
		c-0.04,0.01-0.06,0.04-0.06,0.07v0.08c0,0.02-0.02,0.04-0.05,0.04h-0.17c-0.05,0-0.13,0.05-0.13,0.1c0,0.06,0.05,0.1,0.05,0.1
		L15.38,10.64z M15.38,10.64"/>
	<path class="st22" d="M16.16,10.45h-0.02c-0.13,0.01-0.2,0.08-0.2,0.08l0.13,0.11v0.21h0.15v-0.21l0.13-0.11
		C16.36,10.53,16.29,10.45,16.16,10.45L16.16,10.45z M16.16,10.45"/>
	<rect x="16.43" y="10.1" class="st3" width="0.05" height="0.75"/>
	<path class="st3" d="M16.45,10.09l-0.25,0.27c0,0-0.03-0.13,0.11-0.25L16,10.16c0,0,0.1-0.16,0.35-0.14l-0.26-0.19
		c0,0,0.23-0.01,0.34,0.14c0,0,0.06-0.17,0.25-0.18l-0.15,0.2c0,0,0.15-0.07,0.36-0.01l-0.31,0.07c0,0,0.17,0.02,0.24,0.24
		l-0.27-0.16c0,0,0.08,0.09,0.05,0.25L16.45,10.09z M16.45,10.09"/>
	<path class="st3" d="M13.27,8.23l-0.61-0.27l0.44,0.49h0.25L13.27,8.23z M13.27,8.23"/>
	<path class="st24" d="M16.42,7.92l1.64-0.45l-0.87-0.29C17.03,7.13,16.87,7.1,16.7,7.1h-0.16c-0.08,0-0.14,0.05-0.14,0.12v0.12
		h-0.83V7.23c0-0.07-0.06-0.12-0.14-0.12h-0.16c-0.17,0-0.33,0.03-0.49,0.08l-0.87,0.29l1.64,0.45c0.08,0.02,0.12,0.1,0.08,0.17
		l-0.2,0.36h1.11l-0.2-0.36C16.3,8.02,16.34,7.94,16.42,7.92L16.42,7.92z M16.42,7.92"/>
	<path class="st3" d="M16.26,7.47c0,0.14-0.12,0.24-0.28,0.24c-0.15,0-0.28-0.11-0.28-0.24c0-0.14,0.12-0.24,0.28-0.24
		C16.14,7.23,16.26,7.33,16.26,7.47L16.26,7.47z M16.26,7.47"/>
	<path class="st22" d="M16.12,7.47c0,0.07-0.06,0.12-0.14,0.12h-0.55l0.24-0.21c0.03-0.02,0.06-0.04,0.1-0.04h0.22
		C16.06,7.35,16.12,7.4,16.12,7.47L16.12,7.47z M16.12,7.47"/>
</g>
</svg>
