<?xml version="1.0" encoding="utf-8"?>
<!-- Generator: Adobe Illustrator 25.0.0, SVG Export Plug-In . SVG Version: 6.00 Build 0)  -->
<svg version="1.1" id="Capa_1" xmlns="http://www.w3.org/2000/svg" xmlns:xlink="http://www.w3.org/1999/xlink" x="0px" y="0px"
	 viewBox="0 0 32 18.62" style="enable-background:new 0 0 32 18.62;" xml:space="preserve">
<style type="text/css">
	.st0{fill:#FF4B55;}
	.st1{fill:#464655;}
	.st2{fill:#73AF00;}
	.st3{fill:#F5F5F5;}
	.st4{fill:#41479B;}
	.st5{fill:#FFF5DC;}
	.st6{fill:#D27D69;}
	.st7{fill:#FFE15A;}
	.st8{fill:#B95546;}
	.st9{fill:#DCBE82;}
	.st10{fill:#D2AA73;}
	.st11{fill:#4173CD;}
	.st12{fill:#82AFFF;}
	.st13{fill:#F09146;}
	.st14{fill:#FFB400;}
	.st15{fill:#965032;}
	.st16{fill:#BE7855;}
	.st17{fill:#FFBE3C;}
	.st18{fill:#EAF3F5;}
	.st19{fill:#8C5A28;}
	.st20{fill:#F0C850;}
	.st21{fill:#FF6E55;}
	.st22{fill:#FFBE5A;}
	.st23{fill:#3CC8FF;}
	.st24{fill:#825546;}
	.st25{fill:#FFD255;}
	.st26{fill:#FFD25A;}
	.st27{fill:#509664;}
	.st28{fill:#F0AA00;}
	.st29{fill:#A561CD;}
	.st30{fill:#B34900;}
	.st31{fill:#64B496;}
	.st32{fill:#FF6B71;}
	.st33{fill:#5F64B9;}
	.st34{fill:#F5F0F0;}
	.st35{fill:#5A4646;}
	.st36{fill:#E6E1CD;}
	.st37{fill:#FFD0AF;}
	.st38{fill:#FFAF94;}
	.st39{fill:#8CB400;}
	.st40{fill:#69C3FF;}
	.st41{fill:#009B64;}
	.st42{fill:#5AA0E6;}
	.st43{fill:#FFC88C;}
	.st44{fill:#E1E1E1;}
	.st45{fill:#966446;}
	.st46{fill:#BE915A;}
	.st47{fill:#B9B9B9;}
	.st48{fill:#F0C727;}
	.st49{fill:#50AF69;}
	.st50{fill:#FFE6E6;}
	.st51{fill:#FFB750;}
	.st52{fill:#FFC455;}
	.st53{fill:#FFCD55;}
	.st54{fill:#9BC800;}
	.st55{fill:#FFE14E;}
	.st56{fill:#FFB14E;}
	.st57{fill:#B46446;}
	.st58{fill:#5FA000;}
	.st59{fill:#F2DD30;}
	.st60{fill:#FFC855;}
	.st61{fill:#A0A0A0;}
	.st62{fill:#69B469;}
	.st63{fill:#F4E08F;}
	.st64{fill:#ECD077;}
	.st65{fill:#FCF0A8;}
	.st66{fill:#FAB446;}
	.st67{fill:#C8414B;}
	.st68{fill:#FF9B46;}
	.st69{fill:#FF9B55;}
	.st70{fill:#82C3D2;}
	.st71{fill:#5AA587;}
	.st72{fill:#CDCDCD;}
	.st73{fill:#B4A08C;}
	.st74{fill:#FFD250;}
	.st75{fill:#00C3A0;}
	.st76{fill:#00AADC;}
	.st77{fill:#732D37;}
	.st78{fill:#AAD264;}
	.st79{fill:#874150;}
	.st80{fill:#783C46;}
	.st81{fill:#FFB478;}
	.st82{fill:#9B4B5A;}
	.st83{fill:#FFCD5A;}
	.st84{fill:#FFAA5A;}
	.st85{fill:#FF875A;}
	.st86{fill:#E6B432;}
	.st87{fill:#C86464;}
	.st88{fill:#FFF5E1;}
	.st89{fill:#963C3C;}
	.st90{fill:#5A8250;}
	.st91{fill:#AFEBFF;}
	.st92{fill:#557DE6;}
	.st93{fill:#D23741;}
	.st94{fill:#64C86E;}
	.st95{fill:#873250;}
	.st96{fill:#41AA5A;}
	.st97{fill:#8CD7FF;}
	.st98{fill:#6EC86E;}
	.st99{fill:#FFF0E1;}
	.st100{fill:#FFC75A;}
	.st101{fill:#FFD350;}
	.st102{fill:#FFBE50;}
	.st103{fill:#A54B50;}
	.st104{fill:#C87878;}
	.st105{fill:#FF1722;}
	.st106{fill:#FFB441;}
	.st107{fill:#5064AA;}
	.st108{fill:#FFA0D2;}
	.st109{fill:#FF7350;}
	.st110{fill:#245DBD;}
	.st111{fill:#D35A10;}
	.st112{fill:#FFA033;}
	.st113{fill:#FF9480;}
	.st114{fill:#FFA0E4;}
	.st115{fill:#696E7D;}
	.st116{fill:#FFFCFF;}
	.st117{fill:#EBEBEB;}
	.st118{fill:#FF4B57;}
	.st119{fill:#D2D2D2;}
	.st120{fill:#F0C814;}
	.st121{fill:#F7B518;}
	.st122{fill:#2C2F38;}
	.st123{fill:#4C8056;}
	.st124{fill:#F0C419;}
	.st125{fill:#C03A2B;}
	.st126{fill:#EA3F3F;}
	.st127{fill:#E4E3E1;}
	.st128{fill:#2472B2;}
</style>
<g>
	<path class="st2" d="M31.42,18.55H0.55c-0.3,0-0.55-0.22-0.55-0.49V0.53c0-0.27,0.25-0.49,0.55-0.49h30.87
		c0.3,0,0.55,0.22,0.55,0.49v17.53C31.97,18.33,31.72,18.55,31.42,18.55L31.42,18.55z M31.42,18.55"/>
	<path class="st7" d="M15.7,2.63L4.08,8.88c-0.35,0.19-0.35,0.64,0,0.83l11.62,6.25c0.18,0.09,0.4,0.09,0.57,0l11.62-6.25
		c0.35-0.19,0.35-0.64,0-0.83L16.27,2.63C16.09,2.54,15.87,2.54,15.7,2.63L15.7,2.63z M15.7,2.63"/>
	<path class="st4" d="M20.39,9.3c0,2.15-1.97,3.9-4.41,3.9c-2.44,0-4.41-1.74-4.41-3.9c0-2.15,1.97-3.9,4.41-3.9
		C18.42,5.4,20.39,7.15,20.39,9.3L20.39,9.3z M20.39,9.3"/>
	<path class="st3" d="M12.2,7.3c-0.21,0.31-0.37,0.64-0.47,1c2.44-0.16,6.06,0.44,8.36,2.42c0.15-0.34,0.25-0.7,0.29-1.08
		C18,7.87,14.71,7.24,12.2,7.3L12.2,7.3z M12.2,7.3"/>
	<path class="st3" d="M16.17,10.63l0.12,0.31l0.37,0c0.05,0,0.07,0.05,0.03,0.08l-0.3,0.19l0.11,0.31c0.01,0.04-0.04,0.07-0.08,0.05
		l-0.3-0.19l-0.3,0.19c-0.04,0.02-0.09-0.01-0.08-0.05l0.11-0.31l-0.3-0.19c-0.04-0.03-0.02-0.08,0.03-0.08l0.37,0l0.12-0.31
		C16.09,10.59,16.15,10.59,16.17,10.63L16.17,10.63z M16.17,10.63"/>
	<path class="st3" d="M17.61,11.43l0.05,0.13l0.16,0c0.02,0,0.03,0.02,0.01,0.03l-0.13,0.08l0.05,0.13
		c0.01,0.02-0.02,0.03-0.03,0.02l-0.13-0.08l-0.13,0.08c-0.02,0.01-0.04,0-0.03-0.02l0.05-0.13l-0.13-0.08
		c-0.02-0.01-0.01-0.03,0.01-0.03l0.16,0l0.05-0.13C17.58,11.41,17.6,11.41,17.61,11.43L17.61,11.43z M17.61,11.43"/>
	<path class="st3" d="M15.54,10.04l0.05,0.13l0.16,0c0.02,0,0.03,0.02,0.01,0.03l-0.13,0.08l0.05,0.13
		c0.01,0.02-0.02,0.03-0.03,0.02l-0.13-0.08l-0.13,0.08c-0.02,0.01-0.04,0-0.03-0.02l0.05-0.13l-0.13-0.08
		c-0.02-0.01-0.01-0.03,0.01-0.03l0.16,0l0.05-0.13C15.51,10.02,15.54,10.02,15.54,10.04L15.54,10.04z M15.54,10.04"/>
	<path class="st3" d="M12.75,9.87l0.05,0.13l0.16,0c0.02,0,0.03,0.02,0.01,0.03l-0.13,0.08l0.05,0.13c0.01,0.02-0.02,0.03-0.03,0.02
		l-0.13-0.08l-0.13,0.08c-0.02,0.01-0.04,0-0.03-0.02l0.05-0.13l-0.13-0.08c-0.02-0.01-0.01-0.03,0.01-0.03l0.16,0l0.05-0.13
		C12.71,9.86,12.74,9.86,12.75,9.87L12.75,9.87z M12.75,9.87"/>
	<path class="st3" d="M15.09,11.39l0.05,0.13l0.16,0c0.02,0,0.03,0.02,0.01,0.03l-0.13,0.08l0.05,0.13
		c0.01,0.02-0.02,0.03-0.03,0.02l-0.13-0.08l-0.13,0.08c-0.02,0.01-0.04,0-0.03-0.02l0.05-0.13l-0.13-0.08
		c-0.02-0.01-0.01-0.03,0.01-0.03l0.16,0l0.05-0.13C15.05,11.37,15.08,11.37,15.09,11.39L15.09,11.39z M15.09,11.39"/>
	<path class="st3" d="M13.8,9.78l0.04,0.11l0.13,0c0.02,0,0.02,0.02,0.01,0.03l-0.11,0.07l0.04,0.11c0.01,0.01-0.01,0.03-0.03,0.02
		l-0.11-0.07l-0.11,0.07c-0.01,0.01-0.03,0-0.03-0.02l0.04-0.11l-0.11-0.07c-0.01-0.01-0.01-0.03,0.01-0.03l0.13,0l0.04-0.11
		C13.77,9.77,13.79,9.77,13.8,9.78L13.8,9.78z M13.8,9.78"/>
	<path class="st3" d="M17.72,7.52l0.05,0.14l0.16,0c0.02,0,0.03,0.02,0.01,0.04l-0.13,0.09l0.05,0.14c0.01,0.02-0.02,0.03-0.03,0.02
		L17.7,7.86l-0.13,0.08c-0.02,0.01-0.04,0-0.03-0.02l0.05-0.14l-0.13-0.09c-0.02-0.01-0.01-0.04,0.01-0.04l0.16,0l0.05-0.14
		C17.69,7.5,17.71,7.5,17.72,7.52L17.72,7.52z M17.72,7.52"/>
	<path class="st3" d="M12.93,9.11l0.04,0.11l0.13,0c0.02,0,0.02,0.02,0.01,0.03L13,9.32l0.04,0.11c0,0.01-0.01,0.03-0.03,0.02
		l-0.11-0.07L12.8,9.45c-0.01,0.01-0.03,0-0.03-0.02l0.04-0.11l-0.1-0.07c-0.01-0.01-0.01-0.03,0.01-0.03l0.13,0l0.04-0.11
		C12.9,9.1,12.92,9.1,12.93,9.11L12.93,9.11z M12.93,9.11"/>
	<path class="st3" d="M13.56,10.65l0.06,0.17l0.2,0c0.03,0,0.04,0.03,0.02,0.04l-0.16,0.1l0.06,0.17c0.01,0.02-0.02,0.04-0.04,0.03
		l-0.16-0.1l-0.16,0.1c-0.02,0.01-0.05,0-0.04-0.03l0.06-0.17l-0.16-0.1c-0.02-0.01-0.01-0.04,0.02-0.04l0.2,0l0.06-0.17
		C13.51,10.63,13.55,10.63,13.56,10.65L13.56,10.65z M13.56,10.65"/>
	<path class="st3" d="M18.41,11.47l0.04,0.1l0.12,0c0.02,0,0.02,0.02,0.01,0.03l-0.1,0.07l0.04,0.1c0,0.01-0.01,0.02-0.03,0.02
		l-0.1-0.06l-0.1,0.06c-0.01,0.01-0.03,0-0.03-0.02l0.04-0.1l-0.1-0.07c-0.01-0.01-0.01-0.03,0.01-0.03l0.12,0l0.04-0.1
		C18.39,11.45,18.41,11.45,18.41,11.47L18.41,11.47z M18.41,11.47"/>
	<path class="st3" d="M18.85,10.67l0.05,0.13l0.16,0c0.02,0,0.03,0.02,0.01,0.03l-0.13,0.08l0.05,0.13
		c0.01,0.02-0.02,0.03-0.03,0.02L18.83,11l-0.13,0.08c-0.02,0.01-0.04,0-0.03-0.02l0.05-0.13l-0.13-0.08
		c-0.02-0.01-0.01-0.03,0.01-0.03l0.16,0l0.05-0.13C18.81,10.65,18.84,10.65,18.85,10.67L18.85,10.67z M18.85,10.67"/>
</g>
</svg>
