<?xml version="1.0" encoding="utf-8"?>
<!-- Generator: Adobe Illustrator 25.0.0, SVG Export Plug-In . SVG Version: 6.00 Build 0)  -->
<svg version="1.1" id="Capa_1" xmlns="http://www.w3.org/2000/svg" xmlns:xlink="http://www.w3.org/1999/xlink" x="0px" y="0px"
	 viewBox="0 0 32 18.62" style="enable-background:new 0 0 32 18.62;" xml:space="preserve">
<style type="text/css">
	.st0{fill:#FF4B55;}
	.st1{fill:#464655;}
	.st2{fill:#73AF00;}
	.st3{fill:#F5F5F5;}
	.st4{fill:#41479B;}
	.st5{fill:#FFF5DC;}
	.st6{fill:#D27D69;}
	.st7{fill:#FFE15A;}
	.st8{fill:#B95546;}
	.st9{fill:#DCBE82;}
	.st10{fill:#D2AA73;}
	.st11{fill:#4173CD;}
	.st12{fill:#82AFFF;}
	.st13{fill:#F09146;}
	.st14{fill:#FFB400;}
	.st15{fill:#965032;}
	.st16{fill:#BE7855;}
	.st17{fill:#FFBE3C;}
	.st18{fill:#EAF3F5;}
	.st19{fill:#8C5A28;}
	.st20{fill:#F0C850;}
	.st21{fill:#FF6E55;}
	.st22{fill:#FFBE5A;}
	.st23{fill:#3CC8FF;}
	.st24{fill:#825546;}
	.st25{fill:#FFD255;}
	.st26{fill:#FFD25A;}
	.st27{fill:#509664;}
	.st28{fill:#F0AA00;}
	.st29{fill:#A561CD;}
	.st30{fill:#B34900;}
	.st31{fill:#64B496;}
	.st32{fill:#FF6B71;}
	.st33{fill:#5F64B9;}
	.st34{fill:#F5F0F0;}
	.st35{fill:#5A4646;}
	.st36{fill:#E6E1CD;}
	.st37{fill:#FFD0AF;}
	.st38{fill:#FFAF94;}
	.st39{fill:#8CB400;}
	.st40{fill:#69C3FF;}
	.st41{fill:#009B64;}
	.st42{fill:#5AA0E6;}
	.st43{fill:#FFC88C;}
	.st44{fill:#E1E1E1;}
	.st45{fill:#966446;}
	.st46{fill:#BE915A;}
	.st47{fill:#B9B9B9;}
	.st48{fill:#F0C727;}
	.st49{fill:#50AF69;}
	.st50{fill:#FFE6E6;}
	.st51{fill:#FFB750;}
	.st52{fill:#FFC455;}
	.st53{fill:#FFCD55;}
	.st54{fill:#9BC800;}
	.st55{fill:#FFE14E;}
	.st56{fill:#FFB14E;}
	.st57{fill:#B46446;}
	.st58{fill:#5FA000;}
	.st59{fill:#F2DD30;}
	.st60{fill:#FFC855;}
	.st61{fill:#A0A0A0;}
	.st62{fill:#69B469;}
	.st63{fill:#F4E08F;}
	.st64{fill:#ECD077;}
	.st65{fill:#FCF0A8;}
	.st66{fill:#FAB446;}
	.st67{fill:#C8414B;}
	.st68{fill:#FF9B46;}
	.st69{fill:#FF9B55;}
	.st70{fill:#82C3D2;}
	.st71{fill:#5AA587;}
	.st72{fill:#CDCDCD;}
	.st73{fill:#B4A08C;}
	.st74{fill:#FFD250;}
	.st75{fill:#00C3A0;}
	.st76{fill:#00AADC;}
	.st77{fill:#732D37;}
	.st78{fill:#AAD264;}
	.st79{fill:#874150;}
	.st80{fill:#783C46;}
	.st81{fill:#FFB478;}
	.st82{fill:#9B4B5A;}
	.st83{fill:#FFCD5A;}
	.st84{fill:#FFAA5A;}
	.st85{fill:#FF875A;}
	.st86{fill:#E6B432;}
	.st87{fill:#C86464;}
	.st88{fill:#FFF5E1;}
	.st89{fill:#963C3C;}
	.st90{fill:#5A8250;}
	.st91{fill:#AFEBFF;}
	.st92{fill:#557DE6;}
	.st93{fill:#D23741;}
	.st94{fill:#64C86E;}
	.st95{fill:#873250;}
	.st96{fill:#41AA5A;}
	.st97{fill:#8CD7FF;}
	.st98{fill:#6EC86E;}
	.st99{fill:#FFF0E1;}
	.st100{fill:#FFC75A;}
	.st101{fill:#FFD350;}
	.st102{fill:#FFBE50;}
	.st103{fill:#A54B50;}
	.st104{fill:#C87878;}
	.st105{fill:#FF1722;}
	.st106{fill:#FFB441;}
	.st107{fill:#5064AA;}
	.st108{fill:#FFA0D2;}
	.st109{fill:#FF7350;}
	.st110{fill:#245DBD;}
	.st111{fill:#D35A10;}
	.st112{fill:#FFA033;}
	.st113{fill:#FF9480;}
	.st114{fill:#FFA0E4;}
	.st115{fill:#696E7D;}
	.st116{fill:#FFFCFF;}
	.st117{fill:#EBEBEB;}
	.st118{fill:#FF4B57;}
	.st119{fill:#D2D2D2;}
	.st120{fill:#F0C814;}
	.st121{fill:#F7B518;}
	.st122{fill:#2C2F38;}
	.st123{fill:#4C8056;}
	.st124{fill:#F0C419;}
	.st125{fill:#C03A2B;}
	.st126{fill:#EA3F3F;}
	.st127{fill:#E4E3E1;}
	.st128{fill:#2472B2;}
</style>
<g>
	<path class="st21" d="M31.42,0.04H0.55C0.25,0.04,0,0.26,0,0.53v17.53c0,0.27,0.25,0.49,0.55,0.49h30.87c0.3,0,0.55-0.22,0.55-0.49
		V0.53C31.97,0.26,31.72,0.04,31.42,0.04L31.42,0.04z M31.42,0.04"/>
	<path class="st7" d="M0.2,18.43L31.77,0.16c-0.1-0.07-0.21-0.12-0.35-0.12H0.55C0.25,0.04,0,0.26,0,0.53v17.53
		C0,18.22,0.08,18.34,0.2,18.43L0.2,18.43z M0.2,18.43"/>
	<path class="st5" d="M17.58,5c-0.28,0.05-0.71-0.08-0.71-0.08c0.09,0.14,0.33,0.23,0.55,0.29c-0.17,0.02-0.37,0.02-0.6,0.02
		c-0.89-0.02-1.31,0.5-1.31,0.5c0.32-0.18,0.64-0.18,1.13-0.11c0.48,0.06,1.51-0.21,1.51-0.21l0.09-0.35
		C18.24,5.05,17.85,4.94,17.58,5L17.58,5z M17.58,5"/>
	<path class="st5" d="M18.49,3.36c0,0,0.46,0.09,0.93,0.32c-0.03,0.01-0.06,0.03-0.08,0.05c-0.15-0.07-0.33-0.12-0.57-0.14
		c0,0,0.24,0.06,0.48,0.22c-0.06,0.06-0.11,0.14-0.15,0.2c-0.52-0.49-1.08-0.16-1.08-0.16c0.69-0.05,0.86,0.35,0.9,0.54
		c-0.13-0.08-0.26-0.14-0.38-0.2c0.02-0.01,0.03-0.02,0.05-0.03c0,0-0.04,0-0.1,0.01c-0.89-0.38-1.32-0.08-1.32-0.08
		c0.39-0.04,0.76,0.05,1.05,0.16C18.08,4.3,18,4.42,18.07,4.61c-0.5-0.12-1.12-0.24-1.43-0.16c-0.55,0.13-0.38,0.59-0.38,0.59
		s0.01-0.31,0.39-0.38C16.93,4.6,18.33,5,18.33,5l0.45-0.19L18.6,4.66c0,0-0.36-0.13-0.21-0.35c0.26,0.12,0.42,0.24,0.42,0.24
		l0.11-0.14c0.01,0.04,0.01,0.07,0.01,0.07l0.32-0.12l0.07-0.09c0.03-0.13,0.07-0.23,0.13-0.3c0.09,0.1,0.17,0.23,0.21,0.38
		l0.29,0.03c0,0-0.05-0.29-0.37-0.53c0.03-0.02,0.06-0.03,0.08-0.04c0.21,0.13,0.41,0.3,0.55,0.51l0.53-0.01
		C20.73,4.32,19.86,3.46,18.49,3.36L18.49,3.36z M18.49,3.36"/>
	<path class="st5" d="M24.2,7.49c0,0.32-0.3,0.59-0.66,0.59c-0.37,0-0.66-0.26-0.66-0.59c0-0.32,0.3-0.59,0.66-0.59
		C23.91,6.9,24.2,7.16,24.2,7.49L24.2,7.49z M24.2,7.49"/>
	<path class="st5" d="M22.88,12.42c0,0.43-0.4,0.79-0.89,0.79c-0.49,0-0.89-0.35-0.89-0.79c0-0.43,0.4-0.79,0.89-0.79
		C22.49,11.63,22.88,11.98,22.88,12.42L22.88,12.42z M22.88,12.42"/>
	<path class="st5" d="M15.92,12.03c0,0.34-0.32,0.62-0.7,0.62c-0.39,0-0.7-0.28-0.7-0.62c0-0.34,0.32-0.62,0.7-0.62
		C15.61,11.41,15.92,11.69,15.92,12.03L15.92,12.03z M15.92,12.03"/>
	<path class="st5" d="M14.41,14.99c0,0.4-0.36,0.72-0.81,0.72c-0.45,0-0.81-0.32-0.81-0.72c0-0.4,0.36-0.72,0.81-0.72
		C14.05,14.27,14.41,14.59,14.41,14.99L14.41,14.99z M14.41,14.99"/>
	<path class="st5" d="M21.35,5.96c0,0,1.52,0.48,1.89,0.64c0.52,0.23,1.34-0.44,1.91,0.08c0,0-0.1-0.35-0.57-0.37
		c0,0,0.01-0.34-0.44-0.32c0,0,0.33,0.21,0.14,0.36c0,0-0.13-0.25-0.49-0.21c0,0,0.28,0.1,0.21,0.24c0,0-0.44,0.19-0.64,0.07
		c-0.2-0.12-1.76-0.87-2.26-0.88L21.35,5.96z M21.35,5.96"/>
	<path class="st3" d="M20.96,6.38c0,0,0.33,0.09,0.8,0.52c0.22,0.2,0.79,0.22,0.7-0.18c-0.09-0.39-1.19-0.64-1.31-0.64
		C21.03,6.09,20.96,6.38,20.96,6.38L20.96,6.38z M20.96,6.38"/>
	<path class="st5" d="M23.33,5.51L22.71,5.7c0,0,0.07,0.37-0.29,0.54c-0.22,0.1-0.37,0.36-0.36,0.55c0,0,0.21-0.25,0.5-0.39
		c0.07-0.03,0.13-0.06,0.19-0.09c-0.01,0.13-0.01,0.27,0,0.39c0.06,0.36-0.07,0.48-0.07,0.48s0.35-0.24,0.31-0.62
		c-0.02-0.15,0.01-0.25,0.05-0.33c0.03,0.27,0.19,0.39,0.19,0.39c-0.12-0.21,0.13-0.44,0.23-0.62C23.58,5.81,23.33,5.51,23.33,5.51
		L23.33,5.51z M23.33,5.51"/>
	<path class="st5" d="M24.91,4.75c-0.25-0.07-0.48,0.06-0.62,0.17c-0.06,0.05-0.22,0.07-0.38,0.08c0.11-0.07,0.22-0.15,0.28-0.22
		c0.13-0.15,0.38-0.18,0.59-0.24c0.21-0.06,0.3-0.29,0.3-0.29s-0.11,0.14-0.42,0.13c-0.31-0.01-0.42-0.03-0.62,0.17
		c-0.06,0.06-0.15,0.11-0.25,0.14c0-0.09,0.01-0.2,0.04-0.27c0.05-0.14,0.29-0.25,0.3-0.52c0.01-0.28,0.03-0.25,0.21-0.41
		c0.18-0.16,0.23-0.47,0.18-0.37c-0.05,0.1-0.29,0.22-0.49,0.38c-0.2,0.16-0.06,0.35-0.16,0.49c-0.1,0.14-0.35,0.18-0.36,0.45
		c-0.01,0.27-0.23,0.43-0.23,0.43s-0.53,0.26,0.1,0.46c0.63,0.2,1.14-0.36,1.45-0.35c0.7,0.03,0.88-0.17,0.88-0.17
		C25.58,4.81,25.28,4.86,24.91,4.75L24.91,4.75z M24.91,4.75"/>
	<path class="st5" d="M17.26,9.07c-0.04-0.03-0.72-0.69-0.95-0.79l0.05,0.17c0,0-0.15-0.01-0.42-0.3c-0.27-0.29-0.46-0.37-0.46-0.37
		s0.19,0.26,0.18,0.43c0,0-0.41-0.03-0.84,0.16c0,0-0.2-0.34-0.37-0.4c0,0,0.06,0.36-0.08,0.45c-0.14,0.09,1.31,0.69,1.5,0.71
		C16.07,9.14,17.26,9.07,17.26,9.07L17.26,9.07z M17.26,9.07"/>
	<path class="st5" d="M18.16,7.77c-0.01,0-0.09,0.04-0.18,0.1c-0.04-0.21-0.13-0.64-0.13-0.66c0-0.03-0.67-0.86-0.69-0.89
		c0,0,0,0,0,0c0.07-0.14,0.14-0.38-0.26-0.19c-0.54,0.25-0.76,0.84-0.76,0.84c0.12-0.11,0.34-0.2,0.51-0.26c0,0.07,0,0.16-0.11,0.3
		c-0.23,0.3-0.1,0.41-0.1,0.41c0.18-0.27,0.57-0.3,0.57-0.3c-0.06,0.32,0.15,0.51,0.15,0.51l0.17-0.17
		c-0.02,0.25,0.13,0.52,0.23,0.66c-0.04,0.02-0.07,0.03-0.1,0.03c-0.17,0.02-0.44,0.13-0.44,0.13s0.22-0.04,0.34,0.04
		c0.12,0.08,0.32,0.15,0.42,0.13c0,0-0.05,0.23,0.01,0.31c0,0-0.14-0.03-0.3-0.03c-0.16,0-0.28-0.09-0.28-0.09s0.3,0.38,0.51,0.45
		c0.22,0.08,0.59-0.21,0.59-0.21S18.2,7.78,18.16,7.77L18.16,7.77z M18.16,7.77"/>
	<path class="st5" d="M13.05,13.25c0,0-0.19,0.02-0.37,0.25l-0.08-0.24c0,0-0.22,0.14-0.45,0.05c0,0,0.22-0.04,0.26-0.22
		c0.04-0.17,0.12-0.19,0.12-0.19s-0.15-0.14-0.31-0.13c0,0,0.44-0.2,0.67-0.01C13.13,12.95,13.05,13.25,13.05,13.25L13.05,13.25z
		 M13.05,13.25"/>
	<path class="st5" d="M18.28,11.31c0,0-0.19,0.02-0.37,0.25l-0.08-0.24c0,0-0.22,0.14-0.45,0.05c0,0,0.22-0.04,0.26-0.22
		c0.04-0.17,0.12-0.19,0.12-0.19s-0.15-0.14-0.31-0.13c0,0,0.44-0.2,0.67-0.01C18.36,11.02,18.28,11.31,18.28,11.31L18.28,11.31z
		 M18.28,11.31"/>
	<path class="st5" d="M21.49,8.83c0,0-0.09,0.15,0.02,0.41l-0.27-0.08c0,0,0,0.24-0.21,0.36c0,0,0.08-0.18-0.05-0.31
		c-0.14-0.13-0.11-0.2-0.11-0.2s-0.21,0.03-0.3,0.15c0,0,0.06-0.43,0.38-0.49C21.26,8.6,21.49,8.83,21.49,8.83L21.49,8.83z
		 M21.49,8.83"/>
	<path class="st21" d="M22.44,11.78l0.19,0.1C22.58,11.84,22.51,11.81,22.44,11.78L22.44,11.78z M22.44,11.78"/>
	<path class="st5" d="M11.64,12.63c0,0-0.88,1.09-1.89,1.33l0.36-0.4c0,0-0.47,0.37-1.01,0.45l0.64-0.66c0,0-1.43,1.18-3.27,1.42
		c0,0,1.42-0.8,1.71-1.07c0,0-0.69,0.24-1.32,0.25c0,0,1.79-0.61,2.09-0.86c0,0-0.71,0.14-1.16,0.01c0,0,1.54-0.39,1.76-0.34
		c0,0-0.89-0.31-1.42-0.28c0,0,0.91-0.19,1.97,0l-0.23-0.22c0,0,0.6-0.14,1.2-0.17c0.59-0.04,0.3-0.08,0.3-0.08l0.07-0.17
		c0,0-0.39,0.04-0.7,0c0,0,0.95-0.47,1.22-0.68c0.27-0.21,0.09-0.11,0.09-0.11s-0.49,0.15-0.67,0.17c0,0,0.44-0.45,0.58-0.75
		c0,0-0.41,0.14-0.75,0c0,0,0.42-0.11,0.62-0.29c0.21-0.18,0.51-0.64,0.51-0.64l-0.36,0.14c0,0,0.31-0.47,0.59-0.59
		c0,0-0.47,0.03-0.62-0.07c0,0,0.5-0.1,0.65-0.21c0.15-0.11,0.47-0.38,0.81-0.28c0,0,0.47-0.38,0.31-0.63c0,0,0.3,0.02,0.46,0.18
		c0.16,0.16,0.4,0.3,0.4,0.3l-1.27,0.88l-0.97,2.78L11.64,12.63z M11.64,12.63"/>
	<path class="st3" d="M24.1,7.38c0.37,0.52-0.09,0.58-0.09,0.58c-0.07-0.5-0.54-0.44-0.54-0.44l0.13,0.37
		c-0.79,0.09-0.73-0.61-0.73-0.61c-0.12,0.09-0.32,0.45-0.32,0.45s-2.14,0.63-3.58-1.24c0,0-0.04-0.33,0.08-0.49L18.15,5.4L17,5.54
		c0,0-0.45,0.91,0.1,1.47c0.55,0.56,1.21,1.35,1.09,1.71c-0.07,0.22-0.28,0.31-0.57,0.29c-0.2-0.01-0.44-0.08-0.7-0.18
		C16.29,8.56,14.75,8,13.64,8.46c-1.11,0.45-1.23,1.24-1.44,1.85c-0.19,0.54-0.62,1.92-3.64,3.19c-0.14,0.06-0.07,0.25,0.08,0.22
		c1.31-0.29,3.1-0.77,3.65-1.34l0.45,0.01L12.57,13c0,0,0.58,0.16,0.67,0.9c0,0-1.01,0.24-0.44,1.01c0,0,0.09-0.56,0.79-0.59
		c0,0,0.16,0.18,0.5,0.21c0,0,0.18,0.25,0.09,0.46c0,0,0.7-0.19,0.11-0.94c0,0,0.66-0.14,0.75,0.59c0,0,0.43-1.19-1.09-1.1
		c0,0,0-0.21-0.4-0.59c0,0-0.1-0.21,0-0.51c0.03-0.09,0.06-0.18,0.08-0.28c0.08,0.04,0.21,0.09,0.38,0.09c0,0,0.25,0.36,0.98,0.3
		c0,0-0.53-0.22-0.48-0.64c0.05-0.42,0.67-0.65,0.94-0.48c0,0-0.07-0.55-1.04-0.19c0,0,0-0.41,0.51-0.44c0,0-0.83-0.56-1.02,0.51
		l-0.34,0.08c-0.17-0.41-0.38-1.37,0.56-1.71c0.99-0.37,2.03,0.46,3.87,0.54c0,0-0.18,0.96,0.42,1.19c0.59,0.24,2.05,0.46,2.05,0.46
		c-0.01,1.38,1.12,1.2,1.12,1.2c-0.55-0.29-0.55-0.85-0.21-1.18c0.46-0.44,1.27-0.02,1.27-0.02c-0.01-0.67-1.08-0.57-1.08-0.57
		c0.17-0.44,0.83-0.55,0.83-0.55c-0.92-0.3-1.68,0.58-1.68,0.58l-1.56-0.39c0,0-0.06-0.28,0.31-0.64c0.37-0.37,0.68-0.98,0.58-1.64
		c0,0,0.43-0.27,0.96,0c0.53,0.26,1.68-0.31,1.68-0.31c0.49,0.56,1.67,0.45,1.83-0.22C24.67,7.46,24.1,7.38,24.1,7.38L24.1,7.38z
		 M24.1,7.38"/>
	<path class="st3" d="M22.46,5.77c-0.29-0.15-0.82-0.28-1,0.07c-0.18,0.35-0.38,0.7-0.99,0.68c-0.61-0.02-0.89,0.45-1.32,0.31
		c0,0,0.4-0.11,0.47-0.28c0.08-0.17,0.4-0.47,0.4-0.47l-0.04-0.31c0,0-0.73,0.04-0.95,0.22C18.82,6.18,18,5.83,18,5.83l0.1-0.76
		c0,0,0.63-0.86,1.51-0.8c0.88,0.06,1.03-0.14,1.45-0.11c0.43,0.03,0.64,0.41,1.1,0.5c0.45,0.09,1.36-0.08,1.48,0.17
		c0.12,0.24-0.23,0.34-0.32,0.68C23.25,5.85,23.06,6.08,22.46,5.77L22.46,5.77z M22.46,5.77"/>
	<path class="st5" d="M19.89,5.56c0,0-0.43,0.25-0.78,0.15c-0.36-0.11-0.67-0.07-1.04,0.03c0,0,0.67-0.07,0.95,0.16
		S20,5.97,20.05,5.88L19.89,5.56z M19.89,5.56"/>
	<path class="st5" d="M20.11,6.14c0,0-0.42,0.26-0.83,0.19c-0.42-0.07-0.79,0.08-0.79,0.08s0.31-0.3,0.72-0.24
		c0.42,0.05,0.56-0.31,0.56-0.31l0.28,0.02L20.11,6.14z M20.11,6.14"/>
	<path class="st5" d="M21,5.82c0,0.27-0.25,0.49-0.55,0.49c-0.31,0-0.55-0.22-0.55-0.49c0-0.27,0.25-0.49,0.55-0.49
		C20.75,5.33,21,5.55,21,5.82L21,5.82z M21,5.82"/>
	<path class="st5" d="M20.12,5.45c0,0-0.22-0.24-0.76-0.15c-0.54,0.1-0.67-0.08-0.67-0.08s0.26,0.35,0.66,0.31
		c0.41-0.04,0.57,0.2,0.57,0.2L20.12,5.45z M20.12,5.45"/>
	<path class="st5" d="M21.95,4.84c0.05-0.06,0.11-0.12,0.19-0.16c0.05-0.03,0.1-0.04,0.15-0.05c0.01-0.07,0-0.14-0.04-0.2
		c-0.09-0.14-0.29-0.2-0.43-0.12c-0.15,0.08-0.19,0.25-0.1,0.39C21.78,4.77,21.86,4.82,21.95,4.84L21.95,4.84z M21.95,4.84"/>
	<path class="st5" d="M21.46,5.4c0.03-0.07,0.07-0.14,0.14-0.2c0.04-0.04,0.08-0.07,0.13-0.09c-0.01-0.07-0.04-0.13-0.11-0.18
		c-0.14-0.11-0.34-0.12-0.46-0.01c-0.12,0.11-0.1,0.29,0.03,0.4C21.28,5.38,21.37,5.41,21.46,5.4L21.46,5.4z M21.46,5.4"/>
</g>
</svg>
