<?xml version="1.0" encoding="utf-8"?>
<!-- Generator: Adobe Illustrator 25.0.0, SVG Export Plug-In . SVG Version: 6.00 Build 0)  -->
<svg version="1.1" id="Capa_1" xmlns="http://www.w3.org/2000/svg" xmlns:xlink="http://www.w3.org/1999/xlink" x="0px" y="0px"
	 viewBox="0 0 32 18.62" style="enable-background:new 0 0 32 18.62;" xml:space="preserve">
<style type="text/css">
	.st0{fill:#FF4B55;}
	.st1{fill:#464655;}
	.st2{fill:#73AF00;}
	.st3{fill:#F5F5F5;}
	.st4{fill:#41479B;}
	.st5{fill:#FFF5DC;}
	.st6{fill:#D27D69;}
	.st7{fill:#FFE15A;}
	.st8{fill:#B95546;}
	.st9{fill:#DCBE82;}
	.st10{fill:#D2AA73;}
	.st11{fill:#4173CD;}
	.st12{fill:#82AFFF;}
	.st13{fill:#F09146;}
	.st14{fill:#FFB400;}
	.st15{fill:#965032;}
	.st16{fill:#BE7855;}
	.st17{fill:#FFBE3C;}
	.st18{fill:#EAF3F5;}
	.st19{fill:#8C5A28;}
	.st20{fill:#F0C850;}
	.st21{fill:#FF6E55;}
	.st22{fill:#FFBE5A;}
	.st23{fill:#3CC8FF;}
	.st24{fill:#825546;}
	.st25{fill:#FFD255;}
	.st26{fill:#FFD25A;}
	.st27{fill:#509664;}
	.st28{fill:#F0AA00;}
	.st29{fill:#A561CD;}
	.st30{fill:#B34900;}
	.st31{fill:#64B496;}
	.st32{fill:#FF6B71;}
	.st33{fill:#5F64B9;}
	.st34{fill:#F5F0F0;}
	.st35{fill:#5A4646;}
	.st36{fill:#E6E1CD;}
	.st37{fill:#FFD0AF;}
	.st38{fill:#FFAF94;}
	.st39{fill:#8CB400;}
	.st40{fill:#69C3FF;}
	.st41{fill:#009B64;}
	.st42{fill:#5AA0E6;}
	.st43{fill:#FFC88C;}
	.st44{fill:#E1E1E1;}
	.st45{fill:#966446;}
	.st46{fill:#BE915A;}
	.st47{fill:#B9B9B9;}
	.st48{fill:#F0C727;}
	.st49{fill:#50AF69;}
	.st50{fill:#FFE6E6;}
	.st51{fill:#FFB750;}
	.st52{fill:#FFC455;}
	.st53{fill:#FFCD55;}
	.st54{fill:#9BC800;}
	.st55{fill:#FFE14E;}
	.st56{fill:#FFB14E;}
	.st57{fill:#B46446;}
	.st58{fill:#5FA000;}
	.st59{fill:#F2DD30;}
	.st60{fill:#FFC855;}
	.st61{fill:#A0A0A0;}
	.st62{fill:#69B469;}
	.st63{fill:#F4E08F;}
	.st64{fill:#ECD077;}
	.st65{fill:#FCF0A8;}
	.st66{fill:#FAB446;}
	.st67{fill:#C8414B;}
	.st68{fill:#FF9B46;}
	.st69{fill:#FF9B55;}
	.st70{fill:#82C3D2;}
	.st71{fill:#5AA587;}
	.st72{fill:#CDCDCD;}
	.st73{fill:#B4A08C;}
	.st74{fill:#FFD250;}
	.st75{fill:#00C3A0;}
	.st76{fill:#00AADC;}
	.st77{fill:#732D37;}
	.st78{fill:#AAD264;}
	.st79{fill:#874150;}
	.st80{fill:#783C46;}
	.st81{fill:#FFB478;}
	.st82{fill:#9B4B5A;}
	.st83{fill:#FFCD5A;}
	.st84{fill:#FFAA5A;}
	.st85{fill:#FF875A;}
	.st86{fill:#E6B432;}
	.st87{fill:#C86464;}
	.st88{fill:#FFF5E1;}
	.st89{fill:#963C3C;}
	.st90{fill:#5A8250;}
	.st91{fill:#AFEBFF;}
	.st92{fill:#557DE6;}
	.st93{fill:#D23741;}
	.st94{fill:#64C86E;}
	.st95{fill:#873250;}
	.st96{fill:#41AA5A;}
	.st97{fill:#8CD7FF;}
	.st98{fill:#6EC86E;}
	.st99{fill:#FFF0E1;}
	.st100{fill:#FFC75A;}
	.st101{fill:#FFD350;}
	.st102{fill:#FFBE50;}
	.st103{fill:#A54B50;}
	.st104{fill:#C87878;}
	.st105{fill:#FF1722;}
	.st106{fill:#FFB441;}
	.st107{fill:#5064AA;}
	.st108{fill:#FFA0D2;}
	.st109{fill:#FF7350;}
	.st110{fill:#245DBD;}
	.st111{fill:#D35A10;}
	.st112{fill:#FFA033;}
	.st113{fill:#FF9480;}
	.st114{fill:#FFA0E4;}
	.st115{fill:#696E7D;}
	.st116{fill:#FFFCFF;}
	.st117{fill:#EBEBEB;}
	.st118{fill:#FF4B57;}
	.st119{fill:#D2D2D2;}
	.st120{fill:#F0C814;}
	.st121{fill:#F7B518;}
	.st122{fill:#2C2F38;}
	.st123{fill:#4C8056;}
	.st124{fill:#F0C419;}
	.st125{fill:#C03A2B;}
	.st126{fill:#EA3F3F;}
	.st127{fill:#E4E3E1;}
	.st128{fill:#2472B2;}
</style>
<g>
	<path class="st2" d="M31.42,18.55H0.55c-0.3,0-0.55-0.22-0.55-0.49v-4.38h31.97v4.38C31.97,18.33,31.72,18.55,31.42,18.55
		L31.42,18.55z M31.42,18.55"/>
	<path class="st0" d="M31.42,0.04H0.55C0.25,0.04,0,0.26,0,0.53v13.15h31.97V0.53C31.97,0.26,31.72,0.04,31.42,0.04L31.42,0.04z
		 M31.42,0.04"/>
	<path class="st3" d="M4.41,18.55H0.55c-0.3,0-0.55-0.22-0.55-0.49V0.53c0-0.27,0.25-0.49,0.55-0.49h3.86V18.55z M4.41,18.55"/>
	<path class="st0" d="M0.55,17.74h0.19v-0.48H0.55V17.74z M2.11,17.74h0.2v-0.48h-0.2V17.74z M3.66,17.74h0.19v-0.48H3.66V17.74z
		 M1.33,16.45h0.19v-0.4H1.33V16.45z M2.89,16.45h0.19v-0.4H2.89V16.45z M0.55,15.4h0.19v-0.48H0.55V15.4z M2.11,15.4h0.2v-0.48
		h-0.2V15.4z M3.66,15.4h0.19v-0.48H3.66V15.4z M0.94,16.05h0.19v-0.41h0.2v-0.4h0.19v0.4h0.2v0.41h0.19v0.4H1.72v0.41h-0.2v0.41
		H1.33v-0.41h-0.2v-0.41H0.94V16.05z M2.5,16.05h0.19v-0.41h0.19v-0.4h0.19v0.4h0.19v0.41h0.2v0.4h-0.2v0.41H3.08v0.41H2.89v-0.41
		H2.69v-0.41H2.5V16.05z M2.89,14.43v0.4h-0.2v0.41H2.5v0.4H2.3v0.41h-0.2v-0.41H1.91v-0.4H1.72v-0.41h-0.2v-0.4H1.33v0.4h-0.2v0.41
		H0.94v0.4h-0.2v0.41H0.55v0.4h0.19v0.41h0.2v0.41h0.19v0.4h0.2v0.4h0.19v-0.4h0.19v-0.4h0.19v-0.41h0.19v-0.41h0.2v0.41h0.2v0.41
		h0.19v0.4h0.19v0.4h0.19v-0.4h0.19v-0.4h0.2v-0.41h0.19v-0.41h0.19v-0.4H3.66v-0.41H3.47v-0.4h-0.2v-0.41H3.08v-0.4H2.89z
		 M3.37,14.03h0.1v-0.16h0.1v0.16h0.1v0.16h-0.1v0.16h-0.1v-0.16h-0.1V14.03z M3.37,13.46v0.24h-0.1v0.24h-0.1v0.32h0.1v0.24h0.1
		v0.24h0.29v-0.24h0.1v-0.24h0.1v-0.32h-0.1V13.7h-0.1v-0.24H3.37z M0.75,14.02h0.1v-0.16h0.1v0.16h0.1v0.16h-0.1v0.16h-0.1v-0.16
		h-0.1V14.02z M0.75,13.46v0.24h-0.1v0.24h-0.1v0.33h0.1v0.24h0.1v0.24h0.29v-0.24h0.1v-0.24h0.1v-0.33h-0.1V13.7h-0.1v-0.24H0.75z
		 M1.82,14.02h0.1v-0.16h0.1v0.16h0.1v0.16h-0.1v0.16h-0.1v-0.16h-0.1V14.02z M2.3,14.02h0.1v-0.16h0.1v0.16h0.1v0.16H2.5v0.16H2.4
		v-0.16H2.3V14.02z M2.3,13.46v0.24h-0.2v-0.24H1.82v0.24h-0.1v0.24h-0.1v0.33h0.1v0.24h0.1v0.24h0.29v-0.24h0.2v0.24h0.29v-0.24
		h0.1v-0.24h0.1v-0.33h-0.1V13.7h-0.1v-0.24H2.3z M0.55,13.3h0.19v-0.48H0.55V13.3z M2.11,13.3h0.2v-0.48h-0.2V13.3z M3.66,13.3
		h0.19v-0.48H3.66V13.3z M0.55,11.28h0.19v-0.32H0.55V11.28z M3.66,11.28h0.19v-0.32H3.66V11.28z M2.11,10.15h0.2v-0.4h-0.2V10.15z
		 M0.55,9.06v0.49h0.19V9.06H0.55z M1.62,9.06v0.49h0.2V9.06H1.62z M2.59,9.06v0.49h0.19V9.06H2.59z M3.66,9.06v0.49h0.19V9.06H3.66
		z M2.4,8.77v0.16H2.3v0.12h-0.2V8.93h-0.1V8.77H1.82v0.24h0.1v0.12h0.1v0.32h-0.1v0.12h-0.1v0.24h0.19V9.66h0.1V9.54h0.2v0.12h0.1
		v0.16h0.19V9.58H2.5V9.46H2.4V9.14h0.1V9.01h0.1V8.77H2.4z M2.11,8.85h0.2v-0.4h-0.2V8.85z M0.55,7.64h0.19V7.32H0.55V7.64z
		 M3.66,7.64h0.19V7.32H3.66V7.64z M0.55,5.79h0.19V5.3H0.55V5.79z M2.11,5.79h0.2V5.3h-0.2V5.79z M3.66,5.79h0.19V5.3H3.66V5.79z
		 M1.33,9.31V9.14h0.19V8.86h0.2V8.53h0.29V8.15h0.1V7.97h0.2v0.18h0.1v0.38h0.29v0.33h0.19v0.28h0.19v0.32H2.89v0.29H2.69v0.32H2.4
		v0.38H2.3v0.18h-0.2v-0.18h-0.1v-0.38H1.72V9.75h-0.2V9.46H1.33V9.31z M2.89,4.81v0.41h-0.2v0.4H2.5v0.41H2.3v0.4h-0.2v-0.4H1.91
		V5.62H1.72v-0.4h-0.2V4.81H1.33v0.41h-0.2v0.4h-0.2v0.41H0.75v0.4H0.55v0.41h0.19v0.41h0.19v0.4h0.19v0.4h0.2v-0.4h0.19v-0.4h0.2
		V6.84h-0.2V6.35h0.2v0.33h0.19v0.65h0.1v0.4l-0.29,0v0.32h-0.2v0.24H1.33v0.41h-0.2V8.29H0.94V8.05H0.75V7.8h-0.2v0.73h0.19v0.33
		h0.19v0.28h0.19v0.32H0.94v0.29H0.75v0.32H0.55v0.73h0.19v-0.24h0.19v-0.24h0.19v-0.4h0.2v0.4h0.19v0.24h0.2v0.33l0.29,0v0.4h-0.1
		v0.65H1.72v0.33h-0.2v-0.49h0.2v-0.4h-0.2v-0.4H1.33v-0.41h-0.2v0.41h-0.2v0.4H0.75v0.4H0.55v0.41h0.19v0.4h0.2v0.41h0.19v0.41h0.2
		v0.4h0.19v-0.4h0.2v-0.41h0.19v-0.41h0.19v-0.4h0.2v0.4h0.2v0.41h0.19v0.41h0.19v0.4h0.19v-0.4h0.19v-0.41h0.2v-0.41h0.19v-0.4
		h0.19v-0.41H3.66v-0.4H3.47v-0.4h-0.2v-0.41H3.08v0.41H2.89v0.4h-0.2v0.4h0.2v0.49h-0.2v-0.33H2.5v-0.65H2.4v-0.4h0.29v-0.33h0.19
		v-0.24h0.19v-0.4h0.19v0.4h0.2v0.24h0.19v0.25h0.19v-0.73H3.67V9.75H3.47V9.46h-0.2V9.14h0.2V8.86h0.19V8.53h0.19V7.8H3.67v0.24
		H3.47v0.24h-0.2v0.41H3.08V8.29H2.89V8.05H2.69V7.72H2.4v-0.4h0.1V6.67h0.19V6.35h0.2v0.49h-0.2v0.41h0.2v0.4h0.19v0.4h0.19v-0.4
		h0.19v-0.4h0.19V6.84h0.19V6.43H3.66v-0.4H3.47V5.62h-0.2v-0.4H3.08V4.81L2.89,4.81L2.89,4.81z M0.75,4.41h0.1V4.25h0.1v0.16h0.1
		v0.16h-0.1v0.16h-0.1V4.57h-0.1V4.41z M0.75,4.09h-0.1v0.24h-0.1v0.32h0.1V4.9h0.1v0.24h0.29V4.9h0.1V4.65h0.1V4.33h-0.1V4.09h-0.1
		V3.85H0.75V4.09z M1.82,4.41h0.1V4.25h0.1v0.16h0.1v0.16h-0.1v0.16h-0.1V4.57h-0.1V4.41z M2.3,4.41h0.1V4.25h0.1v0.16h0.1v0.16H2.5
		v0.16H2.4V4.57H2.3V4.41z M1.82,4.09h-0.1v0.24h-0.1v0.32h0.1V4.9h0.1v0.24h0.29V4.9h0.2v0.24h0.29V4.9h0.1V4.65h0.1V4.33h-0.1
		V4.09h-0.1V3.85H2.3v0.24h-0.2V3.85H1.82V4.09z M3.37,4.41h0.1V4.25h0.1v0.16h0.1v0.16h-0.1v0.16h-0.1V4.57h-0.1V4.41z M3.37,3.84
		v0.24h-0.1v0.24h-0.1v0.32h0.1v0.24h0.1v0.24h0.29V4.89h0.1V4.65h0.1V4.33h-0.1V4.09h-0.1V3.84H3.37z M0.55,3.68h0.19V3.2H0.55
		V3.68z M2.11,3.68h0.2V3.2h-0.2V3.68z M3.66,3.68h0.19V3.2H3.66V3.68z M1.33,2.55h0.19V2.15H1.33V2.55z M2.89,2.55h0.19V2.15H2.89
		V2.55z M0.55,1.34h0.19V0.86H0.55V1.34z M2.11,1.34h0.2V0.86h-0.2V1.34z M3.66,1.34h0.19V0.86H3.66V1.34z M0.94,2.15h0.19v-0.4h0.2
		V1.34h0.19v0.41h0.2v0.4h0.19v0.41H1.72v0.4h-0.2v0.41H1.33V2.96h-0.2v-0.4H0.94V2.15z M2.5,2.15h0.19v-0.4h0.19V1.34h0.19v0.41
		h0.19v0.4h0.2v0.41h-0.2v0.4H3.08v0.41H2.89V2.96H2.69v-0.4H2.5V2.15z M2.89,0.53v0.41H2.69v0.4H2.5v0.41H2.3v0.4h-0.2v-0.4h-0.2
		V1.34H1.72v-0.4H1.53V0.53H1.33v0.41h-0.2v0.4H0.94v0.41h-0.2v0.4H0.55v0.41h0.19v0.4h0.2v0.41h0.19v0.41h0.2v0.4h0.19v-0.4h0.2
		V3.36h0.19V2.96h0.19v-0.4h0.2v0.4h0.2v0.41h0.19v0.41h0.2v0.4h0.19v-0.4h0.19V3.36h0.2V2.96h0.19v-0.4h0.19V2.15H3.67v-0.4h-0.2
		V1.34H3.28v-0.4H3.08V0.53H2.89z M2.89,0.53"/>
</g>
</svg>
