<?xml version="1.0" encoding="utf-8"?>
<!-- Generator: Adobe Illustrator 25.0.0, SVG Export Plug-In . SVG Version: 6.00 Build 0)  -->
<svg version="1.1" id="Capa_1" xmlns="http://www.w3.org/2000/svg" xmlns:xlink="http://www.w3.org/1999/xlink" x="0px" y="0px"
	 viewBox="0 0 32 18.62" style="enable-background:new 0 0 32 18.62;" xml:space="preserve">
<style type="text/css">
	.st0{fill:#FF4B55;}
	.st1{fill:#464655;}
	.st2{fill:#73AF00;}
	.st3{fill:#F5F5F5;}
	.st4{fill:#41479B;}
	.st5{fill:#FFF5DC;}
	.st6{fill:#D27D69;}
	.st7{fill:#FFE15A;}
	.st8{fill:#B95546;}
	.st9{fill:#DCBE82;}
	.st10{fill:#D2AA73;}
	.st11{fill:#4173CD;}
	.st12{fill:#82AFFF;}
	.st13{fill:#F09146;}
	.st14{fill:#FFB400;}
	.st15{fill:#965032;}
	.st16{fill:#BE7855;}
	.st17{fill:#FFBE3C;}
	.st18{fill:#EAF3F5;}
	.st19{fill:#8C5A28;}
	.st20{fill:#F0C850;}
	.st21{fill:#FF6E55;}
	.st22{fill:#FFBE5A;}
	.st23{fill:#3CC8FF;}
	.st24{fill:#825546;}
	.st25{fill:#FFD255;}
	.st26{fill:#FFD25A;}
	.st27{fill:#509664;}
	.st28{fill:#F0AA00;}
	.st29{fill:#A561CD;}
	.st30{fill:#B34900;}
	.st31{fill:#64B496;}
	.st32{fill:#FF6B71;}
	.st33{fill:#5F64B9;}
	.st34{fill:#F5F0F0;}
	.st35{fill:#5A4646;}
	.st36{fill:#E6E1CD;}
	.st37{fill:#FFD0AF;}
	.st38{fill:#FFAF94;}
	.st39{fill:#8CB400;}
	.st40{fill:#69C3FF;}
	.st41{fill:#009B64;}
	.st42{fill:#5AA0E6;}
	.st43{fill:#FFC88C;}
	.st44{fill:#E1E1E1;}
	.st45{fill:#966446;}
	.st46{fill:#BE915A;}
	.st47{fill:#B9B9B9;}
	.st48{fill:#F0C727;}
	.st49{fill:#50AF69;}
	.st50{fill:#FFE6E6;}
	.st51{fill:#FFB750;}
	.st52{fill:#FFC455;}
	.st53{fill:#FFCD55;}
	.st54{fill:#9BC800;}
	.st55{fill:#FFE14E;}
	.st56{fill:#FFB14E;}
	.st57{fill:#B46446;}
	.st58{fill:#5FA000;}
	.st59{fill:#F2DD30;}
	.st60{fill:#FFC855;}
	.st61{fill:#A0A0A0;}
	.st62{fill:#69B469;}
	.st63{fill:#F4E08F;}
	.st64{fill:#ECD077;}
	.st65{fill:#FCF0A8;}
	.st66{fill:#FAB446;}
	.st67{fill:#C8414B;}
	.st68{fill:#FF9B46;}
	.st69{fill:#FF9B55;}
	.st70{fill:#82C3D2;}
	.st71{fill:#5AA587;}
	.st72{fill:#CDCDCD;}
	.st73{fill:#B4A08C;}
	.st74{fill:#FFD250;}
	.st75{fill:#00C3A0;}
	.st76{fill:#00AADC;}
	.st77{fill:#732D37;}
	.st78{fill:#AAD264;}
	.st79{fill:#874150;}
	.st80{fill:#783C46;}
	.st81{fill:#FFB478;}
	.st82{fill:#9B4B5A;}
	.st83{fill:#FFCD5A;}
	.st84{fill:#FFAA5A;}
	.st85{fill:#FF875A;}
	.st86{fill:#E6B432;}
	.st87{fill:#C86464;}
	.st88{fill:#FFF5E1;}
	.st89{fill:#963C3C;}
	.st90{fill:#5A8250;}
	.st91{fill:#AFEBFF;}
	.st92{fill:#557DE6;}
	.st93{fill:#D23741;}
	.st94{fill:#64C86E;}
	.st95{fill:#873250;}
	.st96{fill:#41AA5A;}
	.st97{fill:#8CD7FF;}
	.st98{fill:#6EC86E;}
	.st99{fill:#FFF0E1;}
	.st100{fill:#FFC75A;}
	.st101{fill:#FFD350;}
	.st102{fill:#FFBE50;}
	.st103{fill:#A54B50;}
	.st104{fill:#C87878;}
	.st105{fill:#FF1722;}
	.st106{fill:#FFB441;}
	.st107{fill:#5064AA;}
	.st108{fill:#FFA0D2;}
	.st109{fill:#FF7350;}
	.st110{fill:#245DBD;}
	.st111{fill:#D35A10;}
	.st112{fill:#FFA033;}
	.st113{fill:#FF9480;}
	.st114{fill:#FFA0E4;}
	.st115{fill:#696E7D;}
	.st116{fill:#FFFCFF;}
	.st117{fill:#EBEBEB;}
	.st118{fill:#FF4B57;}
	.st119{fill:#D2D2D2;}
	.st120{fill:#F0C814;}
	.st121{fill:#F7B518;}
	.st122{fill:#2C2F38;}
	.st123{fill:#4C8056;}
	.st124{fill:#F0C419;}
	.st125{fill:#C03A2B;}
	.st126{fill:#EA3F3F;}
	.st127{fill:#E4E3E1;}
	.st128{fill:#2472B2;}
</style>
<g>
	<path class="st0" d="M31.97,1.99H0V0.53c0-0.27,0.25-0.49,0.55-0.49h30.87c0.3,0,0.55,0.22,0.55,0.49V1.99z M31.97,1.99"/>
	<path class="st0" d="M0,16.6h31.97v1.46c0,0.27-0.25,0.49-0.55,0.49H0.55c-0.3,0-0.55-0.22-0.55-0.49V16.6z M0,16.6"/>
	<rect x="0" y="1.99" class="st4" width="31.97" height="14.61"/>
	<path class="st3" d="M23.15,9.3c0,3.5-3.21,6.33-7.17,6.33S8.82,12.79,8.82,9.3c0-3.5,3.21-6.33,7.17-6.33S23.15,5.8,23.15,9.3
		L23.15,9.3z M23.15,9.3"/>
	<path class="st12" d="M14.61,12.63l-1.11,0.16c-0.14,0.02-0.27-0.07-0.27-0.2v-0.37h1.37V12.63z M14.61,12.63"/>
	<path class="st12" d="M17.35,12.63l1.11,0.16c0.14,0.02,0.27-0.07,0.27-0.2v-0.37h-1.37V12.63z M17.35,12.63"/>
	<path class="st15" d="M15.75,6.06h-0.1c-0.11,0-0.22-0.06-0.27-0.15l-0.17-0.3l0.15-0.07l0.17,0.3c0.02,0.04,0.07,0.06,0.12,0.06
		h0.1V6.06z M15.75,6.06"/>
	<path class="st15" d="M13.98,5.74l0.28,0.5l-0.15,0.07l-0.28-0.5L13.98,5.74z M13.98,5.74"/>
	<path class="st15" d="M16.3,8.39l-0.47-0.41c-0.1-0.09-0.16-0.21-0.16-0.34V7.49c0-0.05-0.01-0.1-0.04-0.15l-0.12-0.21
		c-0.02-0.04-0.07-0.07-0.13-0.07h-0.4c-0.12,0-0.23-0.06-0.28-0.15l-0.17-0.29l0.15-0.07l0.17,0.29c0.02,0.04,0.07,0.07,0.13,0.07
		h0.4c0.12,0,0.23,0.06,0.28,0.15l0.12,0.21c0.04,0.07,0.06,0.14,0.06,0.22v0.14c0,0.09,0.04,0.17,0.11,0.23l0.18,0.16V7.31
		c0-0.19-0.07-0.38-0.21-0.53c-0.16-0.18-0.25-0.4-0.25-0.62V5.58h0.17v0.59c0,0.19,0.07,0.38,0.21,0.53
		c0.16,0.18,0.25,0.4,0.25,0.62V8.39z M16.3,8.39"/>
	<path class="st15" d="M15.89,7.99h-0.25c-0.16,0-0.3-0.09-0.35-0.22l-0.06-0.15l0.16-0.05l0.06,0.15c0.03,0.07,0.11,0.12,0.19,0.12
		h0.25V7.99z M15.89,7.99"/>
	<path class="st15" d="M16.59,5.34l0.16,0.06l-0.96,1.93l-0.16-0.06L16.59,5.34z M16.59,5.34"/>
	<path class="st15" d="M16.98,7.07h-0.83V6.91h0.66V6.18h0.17V7.07z M16.98,7.07"/>
	<path class="st2" d="M15.41,7.8h-0.69c-0.19,0-0.34-0.14-0.34-0.3c0-0.17,0.15-0.3,0.34-0.3h0.69c0.19,0,0.34,0.14,0.34,0.3
		C15.75,7.66,15.6,7.8,15.41,7.8L15.41,7.8z M15.41,7.8"/>
	<path class="st2" d="M17.01,7.8h-0.69c-0.19,0-0.34-0.14-0.34-0.3c0-0.17,0.15-0.3,0.34-0.3h0.69c0.19,0,0.34,0.14,0.34,0.3
		C17.35,7.66,17.2,7.8,17.01,7.8L17.01,7.8z M17.01,7.8"/>
	<path class="st2" d="M17.7,7.19h-0.91c-0.19,0-0.34-0.14-0.34-0.3c0-0.17,0.15-0.3,0.34-0.3h0.91c0.19,0,0.34,0.14,0.34,0.3
		C18.04,7.06,17.88,7.19,17.7,7.19L17.7,7.19z M17.7,7.19"/>
	<path class="st2" d="M17.92,6.38h-1.6c-0.19,0-0.34-0.14-0.34-0.3c0-0.17,0.15-0.3,0.34-0.3h1.6c0.19,0,0.34,0.14,0.34,0.3
		C18.27,6.25,18.11,6.38,17.92,6.38L17.92,6.38z M17.92,6.38"/>
	<path class="st2" d="M17.01,5.58h-0.46c-0.19,0-0.34-0.14-0.34-0.3c0-0.17,0.15-0.3,0.34-0.3h0.46c0.19,0,0.34,0.14,0.34,0.3
		C17.35,5.44,17.2,5.58,17.01,5.58L17.01,5.58z M17.01,5.58"/>
	<path class="st2" d="M14.04,5.98h-0.23c-0.19,0-0.34-0.14-0.34-0.3c0-0.17,0.15-0.3,0.34-0.3h0.23c0.19,0,0.34,0.14,0.34,0.3
		C14.38,5.85,14.23,5.98,14.04,5.98L14.04,5.98z M14.04,5.98"/>
	<path class="st2" d="M15.64,5.78h-0.69c-0.19,0-0.34-0.14-0.34-0.3c0-0.17,0.15-0.3,0.34-0.3h0.69c0.19,0,0.34,0.14,0.34,0.3
		C15.98,5.64,15.83,5.78,15.64,5.78L15.64,5.78z M15.64,5.78"/>
	<path class="st2" d="M15.41,6.79h-1.37c-0.19,0-0.34-0.14-0.34-0.3c0-0.17,0.15-0.3,0.34-0.3h1.37c0.19,0,0.34,0.14,0.34,0.3
		C15.75,6.65,15.6,6.79,15.41,6.79L15.41,6.79z M15.41,6.79"/>
	<path class="st2" d="M19.41,11.01h-6.86c-0.25,0-0.46,0.18-0.46,0.4c0,0.22,0.2,0.4,0.46,0.4h1.83c0,0.22,0.2,0.4,0.46,0.4h2.29
		c0.25,0,0.46-0.18,0.46-0.4h1.83c0.25,0,0.46-0.18,0.46-0.4C19.87,11.19,19.66,11.01,19.41,11.01L19.41,11.01z M19.41,11.01"/>
	<path class="st16" d="M20.54,7.43c-0.02-0.03-0.11,0.01-0.16-0.01c-0.69-0.23-1.62-0.64-2.22-0.92l-0.12-0.17l-1.15-0.49
		c-0.07-0.03-0.16-0.01-0.2,0.06l-0.06,0.09c-0.04,0.07-0.01,0.15,0.06,0.19l1.09,0.5l0.31-0.02l1.2,0.55c0,0,0.82,0.37,0.86,0.4
		c0.04,0.03,0.07,0.18,0.15,0.17C20.36,7.74,20.61,7.56,20.54,7.43L20.54,7.43z M20.54,7.43"/>
	<path class="st17" d="M12.96,11.31c0,0,0.08,0.3,0,0.33c-0.07,0.03-0.45,0.03-0.44-0.04c0.01-0.07,0.06-0.32,0.06-0.32L12.96,11.31
		z M12.96,11.31"/>
	<path class="st17" d="M13.6,11.15c0,0-0.06,0.22,0.06,0.23c0.12,0.01,0.82,0,0.84-0.01c0.02-0.02,0.04-0.06,0.04-0.06l-0.65-0.16
		H13.6z M13.6,11.15"/>
	<path class="st18" d="M12.88,8.37c0,0-0.17,0.36-0.23,1.6c-0.02,0.33,0.03,0.25-0.16,1.31l0.22,0.1c0.06,0.03,0.14,0.03,0.2-0.01
		l0.21-0.11c0,0-0.1-1.19,0.24-1.87c0,0,0.18,0.29,0.18,0.51s-0.01,1.27-0.01,1.27s0.4,0.06,0.58,0.04c0,0-0.11-2.28-0.23-2.82
		L12.88,8.37z M12.88,8.37"/>
	<path class="st15" d="M12.92,8.22c0,0-0.07,0.04-0.03,0.15c0,0,0.52,0.2,1.01,0.03c0,0,0.05-0.07-0.01-0.15L12.92,8.22z
		 M12.92,8.22"/>
	<path class="st15" d="M12.22,7.13c-0.3,0.1-0.75,0.34-0.72,0.53c0.03,0.19,0.18,0.15,0.23,0.1c0.05-0.05,0.19-0.2,0.23-0.23
		c0.04-0.03,0.75-0.35,0.75-0.35l1.86-0.84c0,0,0.01-0.08-0.1-0.15C14.47,6.2,13.33,6.76,12.22,7.13L12.22,7.13z M12.22,7.13"/>
	<path class="st17" d="M13.09,6.18l-0.01,0.07c0,0-0.03,0.45,0.14,0.56c0,0,0.04,0.09-0.02,0.14c-0.06,0.04-0.62,0.3-0.62,0.3
		s-0.15,0.27-0.14,0.42c0,0-0.14-0.05-0.12-0.11c0.01-0.06,0.1-0.22,0.07-0.29c-0.02-0.08-0.12-0.05-0.12-0.05s-0.05,0.04,0.03,0.07
		l-0.02,0.09l-0.3,0.16l0.07,0.07c0,0,0,0.56,0.37,0.63c0,0,0.2,0.01,0.43-0.38c0,0,0.12,0.2,0.08,0.37c0,0,0.41,0.2,0.96,0.03
		l0.01-0.34c0,0,0.09,0.52,0.38,0.47c0,0,0.81-0.28,0.68-0.38c-0.31-0.24-0.69-0.04-0.69-0.04c-0.02-0.35-0.05-0.81-0.1-0.86
		c-0.09-0.08-0.35-0.04-0.4-0.14c-0.05-0.11-0.04-0.29,0.02-0.51c0.06-0.21-0.23-0.37-0.23-0.37L13.09,6.18z M13.09,6.18"/>
	<path class="st1" d="M13.08,6.25c0,0,0.29,0.07,0.52-0.01l0.1,0.22h0.06c0,0,0.14-0.4-0.05-0.4c0,0,0-0.13-0.32-0.13
		C13.12,5.93,13.03,6.09,13.08,6.25L13.08,6.25z M13.08,6.25"/>
	<path class="st15" d="M19.04,11.31c0,0-0.08,0.3,0,0.33c0.07,0.03,0.45,0.03,0.44-0.04c-0.01-0.07-0.06-0.32-0.06-0.32L19.04,11.31
		z M19.04,11.31"/>
	<path class="st15" d="M18.4,11.15c0,0,0.06,0.22-0.06,0.23c-0.12,0.01-0.82,0-0.84-0.01c-0.02-0.02-0.04-0.06-0.04-0.06l0.65-0.16
		H18.4z M18.4,11.15"/>
	<path class="st18" d="M19.12,8.37c0,0,0.17,0.36,0.23,1.6c0.02,0.33-0.03,0.25,0.16,1.31l-0.22,0.1c-0.06,0.03-0.14,0.03-0.2-0.01
		l-0.21-0.11c0,0,0.1-1.19-0.24-1.87c0,0-0.18,0.29-0.18,0.51s0.01,1.27,0.01,1.27s-0.4,0.06-0.58,0.04c0,0,0.11-2.28,0.23-2.82
		L19.12,8.37z M19.12,8.37"/>
	<path class="st16" d="M19.08,8.22c0,0,0.07,0.04,0.03,0.15c0,0-0.52,0.2-1.01,0.03c0,0-0.05-0.07,0.01-0.15L19.08,8.22z
		 M19.08,8.22"/>
	<path class="st15" d="M18.9,6.18l0.01,0.07c0,0,0.03,0.45-0.14,0.56c0,0-0.04,0.09,0.02,0.14c0.06,0.04,0.62,0.3,0.62,0.3
		s0.15,0.27,0.14,0.42c0,0,0.14-0.05,0.12-0.11c-0.01-0.06-0.1-0.22-0.07-0.29c0.02-0.08,0.12-0.05,0.12-0.05s0.05,0.04-0.03,0.07
		l0.03,0.09l0.3,0.16l-0.07,0.07c0,0,0,0.56-0.37,0.63c0,0-0.2,0.01-0.43-0.38c0,0-0.13,0.2-0.08,0.37c0,0-0.41,0.2-0.96,0.03
		l-0.01-0.34c0,0-0.09,0.52-0.38,0.47c0,0-0.81-0.28-0.68-0.38c0.31-0.24,0.69-0.04,0.69-0.04c0.02-0.35,0.05-0.81,0.1-0.86
		c0.09-0.08,0.35-0.04,0.4-0.14c0.05-0.11,0.04-0.29-0.02-0.51c-0.06-0.21,0.23-0.37,0.23-0.37L18.9,6.18z M18.9,6.18"/>
	<path class="st1" d="M18.92,6.25c0,0-0.29,0.07-0.52-0.01l-0.1,0.22h-0.06c0,0-0.14-0.4,0.05-0.4c0,0,0-0.13,0.32-0.13
		C18.88,5.93,18.97,6.09,18.92,6.25L18.92,6.25z M18.92,6.25"/>
	<path class="st18" d="M14.02,6.41c-0.02-0.05,0.02-0.07,0.02-0.07s0.29-0.14,0.32-0.14c0.06,0,0.12,0.09,0.12,0.16
		c0,0.07,0.11,0.27,0.33,0.31c0,0-0.28,0.33-0.67,0.29C14.14,6.98,14.17,6.75,14.02,6.41L14.02,6.41z M14.02,6.41"/>
	<path class="st12" d="M14.42,7.98c-0.09,0-0.16,0.07-0.16,0.15V9.8c0,0.4,0.21,1.82,1.71,2.22c1.5-0.4,1.71-1.82,1.71-2.22V8.13
		c0-0.08-0.07-0.15-0.16-0.15H14.42z M14.42,7.98"/>
	<path class="st7" d="M17.69,9.8V8.13c0-0.08-0.07-0.15-0.16-0.15h-1.56V9.4l1.51,1.33C17.65,10.34,17.69,9.97,17.69,9.8L17.69,9.8z
		 M17.69,9.8"/>
	<path class="st18" d="M14.27,9.8V8.13c0-0.08,0.07-0.15,0.16-0.15h1.56V9.4l-1.51,1.33C14.31,10.34,14.27,9.97,14.27,9.8L14.27,9.8
		z M14.27,9.8"/>
	<path class="st19" d="M14.97,10.68l0.4,0.37h1.1l0.23-0.27l-0.27,0.1h-0.89L14.97,10.68z M14.97,10.68"/>
	<path class="st3" d="M15.4,10.21l-0.06,0.54l-0.28-0.09C15.06,10.65,15.19,10.39,15.4,10.21L15.4,10.21z M15.4,10.21"/>
	<rect x="15.94" y="9.99" class="st19" width="0.04" height="0.92"/>
	<rect x="16.32" y="10.07" class="st19" width="0.04" height="0.84"/>
	<rect x="15.56" y="10.07" class="st19" width="0.04" height="0.84"/>
	<path class="st3" d="M16.1,10.82h-0.27c-0.02,0-0.03-0.01-0.03-0.03v-0.13c0-0.02,0.01-0.03,0.03-0.03h0.27
		c0.02,0,0.03,0.01,0.03,0.03v0.13C16.13,10.81,16.12,10.82,16.1,10.82L16.1,10.82z M16.1,10.82"/>
	<path class="st3" d="M16.1,10.56h-0.27c-0.02,0-0.03-0.01-0.03-0.03V10.4c0-0.02,0.01-0.03,0.03-0.03h0.27
		c0.02,0,0.03,0.01,0.03,0.03v0.13C16.13,10.55,16.12,10.56,16.1,10.56L16.1,10.56z M16.1,10.56"/>
	<path class="st3" d="M16.1,10.33h-0.27c-0.02,0-0.03-0.01-0.03-0.03v-0.13c0-0.02,0.01-0.03,0.03-0.03h0.27
		c0.02,0,0.03,0.01,0.03,0.03v0.13C16.13,10.31,16.12,10.33,16.1,10.33L16.1,10.33z M16.1,10.33"/>
	<path class="st3" d="M16.45,10.82h-0.23c-0.02,0-0.03-0.01-0.03-0.03v-0.13c0-0.02,0.01-0.03,0.03-0.03h0.23
		c0.02,0,0.03,0.01,0.03,0.03v0.13C16.49,10.81,16.47,10.82,16.45,10.82L16.45,10.82z M16.45,10.82"/>
	<path class="st3" d="M16.45,10.59h-0.23c-0.02,0-0.03-0.01-0.03-0.03v-0.1c0-0.02,0.01-0.03,0.03-0.03h0.23
		c0.02,0,0.03,0.01,0.03,0.03v0.1C16.49,10.57,16.47,10.59,16.45,10.59L16.45,10.59z M16.45,10.59"/>
	<path class="st3" d="M16.45,10.35h-0.23c-0.02,0-0.03-0.01-0.03-0.03v-0.08c0-0.02,0.01-0.03,0.03-0.03h0.23
		c0.02,0,0.03,0.01,0.03,0.03v0.08C16.49,10.34,16.47,10.35,16.45,10.35L16.45,10.35z M16.45,10.35"/>
	<path class="st3" d="M15.7,10.82h-0.23c-0.02,0-0.03-0.01-0.03-0.03v-0.13c0-0.02,0.02-0.03,0.03-0.03h0.23
		c0.02,0,0.03,0.01,0.03,0.03v0.13C15.73,10.81,15.72,10.82,15.7,10.82L15.7,10.82z M15.7,10.82"/>
	<path class="st3" d="M15.7,10.59h-0.23c-0.02,0-0.03-0.01-0.03-0.03v-0.1c0-0.02,0.02-0.03,0.03-0.03h0.23
		c0.02,0,0.03,0.01,0.03,0.03v0.1C15.73,10.57,15.72,10.59,15.7,10.59L15.7,10.59z M15.7,10.59"/>
	<path class="st3" d="M15.7,10.35h-0.23c-0.02,0-0.03-0.01-0.03-0.03v-0.08c0-0.02,0.02-0.03,0.03-0.03h0.23
		c0.02,0,0.03,0.01,0.03,0.03v0.08C15.73,10.34,15.72,10.35,15.7,10.35L15.7,10.35z M15.7,10.35"/>
	<path class="st0" d="M16.32,10.07v0.11l-0.18-0.06L16.32,10.07z M16.32,10.07"/>
	<path class="st0" d="M15.56,10.07v0.11l-0.18-0.06L15.56,10.07z M15.56,10.07"/>
	<path class="st0" d="M15.94,9.99v0.11l-0.18-0.06L15.94,9.99z M15.94,9.99"/>
	<path class="st11" d="M17.34,11.01h-2.72c0.04,0.07,0.09,0.14,0.13,0.2h2.45C17.26,11.15,17.3,11.08,17.34,11.01L17.34,11.01z
		 M17.34,11.01"/>
	<path class="st2" d="M17.21,11.21h-2.45c0.11,0.14,0.24,0.28,0.4,0.4h1.65C16.96,11.49,17.1,11.36,17.21,11.21L17.21,11.21z
		 M17.21,11.21"/>
	<path class="st7" d="M15.15,11.62c0.22,0.17,0.49,0.31,0.83,0.4c0.34-0.09,0.61-0.23,0.83-0.4H15.15z M15.15,11.62"/>
	<path class="st16" d="M15.69,9.51c0,0-0.02,0.01-0.03,0c-0.01-0.01-0.04-0.01-0.02-0.05c0.01-0.02,0.03-0.06,0.01-0.06
		c-0.01-0.01-0.02-0.02-0.03-0.03c-0.02-0.02-0.05-0.05-0.08-0.08c-0.06-0.06-0.13-0.13-0.21-0.19c-0.04-0.03-0.08-0.07-0.13-0.1
		c-0.05-0.03-0.09-0.07-0.14-0.1c-0.03-0.01-0.06-0.02-0.09-0.03c-0.03-0.01-0.05-0.03-0.07-0.05c-0.04-0.04-0.09-0.07-0.13-0.1
		c-0.08-0.07-0.16-0.13-0.22-0.19c-0.06-0.05-0.11-0.1-0.14-0.13c-0.03-0.03-0.03-0.08,0-0.11l0.1-0.09c0.04-0.03,0.09-0.03,0.13,0
		c0.04,0.03,0.09,0.08,0.15,0.13c0.06,0.06,0.13,0.12,0.2,0.2c0.04,0.04,0.07,0.08,0.11,0.12c0.02,0.02,0.04,0.04,0.05,0.06
		c0.01,0.03,0.02,0.06,0.03,0.08c0.03,0.04,0.07,0.08,0.11,0.12c0.04,0.04,0.08,0.08,0.11,0.12c0.07,0.08,0.15,0.14,0.21,0.2
		c0.03,0.03,0.06,0.05,0.09,0.07c0.01,0.01,0.03,0.02,0.04,0.03c0.01,0.01,0.05,0,0.07-0.01c0.05-0.01,0.05,0.01,0.06,0.02
		c0,0.02,0,0.03,0,0.03L15.69,9.51z M15.69,9.51"/>
	<path class="st15" d="M14.57,9.67c-0.02,0-0.04,0-0.05-0.01c-0.04-0.02-0.05-0.07-0.02-0.11l0.81-0.98
		c0.03-0.03,0.08-0.04,0.12-0.02c0.04,0.02,0.05,0.07,0.02,0.11l-0.81,0.98C14.62,9.66,14.59,9.67,14.57,9.67L14.57,9.67z
		 M14.57,9.67"/>
	<path class="st3" d="M15.22,8.51l0.42,0.25l0.18-0.22l-0.4-0.28L15.22,8.51z M15.22,8.51"/>
	<path class="st15" d="M16.35,8.42l1.09,1.18c0,0,0.15,0.01,0.13-0.1l-1.12-1.17L16.35,8.42z M16.35,8.42"/>
	<path class="st18" d="M16.1,8.58c0,0,0.31-0.05,0.43-0.22l0.17,0.18c0,0-0.28,0.18-0.31,0.37C16.4,8.91,16.16,8.86,16.1,8.58
		L16.1,8.58z M16.1,8.58"/>
	<path class="st15" d="M17.28,8.46c-0.02,0-0.04-0.01-0.05-0.03c-0.03-0.05-0.04-0.1-0.02-0.14c0.03-0.06,0.1-0.07,0.1-0.08
		c0.03-0.01,0.06,0.01,0.07,0.04c0.01,0.03-0.01,0.05-0.04,0.06c-0.01,0-0.02,0.01-0.03,0.02c-0.01,0.01,0,0.03,0.01,0.05
		c0.01,0.02,0,0.05-0.02,0.07C17.29,8.46,17.28,8.46,17.28,8.46L17.28,8.46z M17.28,8.46"/>
	<path class="st15" d="M16.38,9.19c0-0.02-0.01-0.03-0.03-0.04c-0.06-0.03-0.11-0.03-0.16-0.01c-0.06,0.03-0.08,0.08-0.09,0.09
		c-0.01,0.03,0.01,0.05,0.04,0.06c0.03,0.01,0.06-0.01,0.07-0.03c0-0.01,0.01-0.02,0.02-0.03c0.01,0,0.03,0,0.06,0.01
		c0.03,0.01,0.06,0,0.08-0.02C16.38,9.21,16.38,9.2,16.38,9.19L16.38,9.19z M16.38,9.19"/>
	<path class="st18" d="M17.31,8.35l-1.02,0.89l0.24,0.24l1-0.89L17.31,8.35z M17.31,8.35"/>
	<path class="st17" d="M12.12,7.07c0.07-0.01,0.13,0.07,0.07,0.13c-0.06,0.06-0.24,0.17-0.3,0.16C11.79,7.34,11.73,7.15,12.12,7.07
		L12.12,7.07z M12.12,7.07"/>
	<path class="st15" d="M19.88,7.16c-0.06-0.01-0.12,0.07-0.06,0.13c0.06,0.06,0.22,0.17,0.27,0.16C20.18,7.42,20.24,7.24,19.88,7.16
		L19.88,7.16z M19.88,7.16"/>
	<path class="st1" d="M17.54,7.98c0.09,0,0.16,0.07,0.16,0.15V9.8c0,0.4-0.21,1.82-1.71,2.22c-1.5-0.4-1.71-1.82-1.71-2.22V8.13
		c0-0.08,0.07-0.15,0.16-0.15H17.54 M17.54,7.88h-3.12c-0.15,0-0.27,0.11-0.27,0.25V9.8c0,0.1,0.01,0.61,0.31,1.15
		c0.31,0.58,0.82,0.99,1.49,1.16l0.03,0.01l0.03-0.01c0.67-0.18,1.18-0.58,1.49-1.16c0.29-0.55,0.31-1.06,0.31-1.15V8.13
		C17.81,7.99,17.69,7.88,17.54,7.88L17.54,7.88z M17.54,7.88"/>
	<path class="st18" d="M18.72,12.05c-0.49-0.14-1.01-0.08-1.5,0.21c-0.63,0.37-1.04,0.37-1.24,0.37c-0.2,0-0.62,0-1.24-0.37
		c-0.49-0.29-1.01-0.36-1.5-0.21v0.43c0.31-0.13,0.74-0.18,1.24,0.12c0.74,0.44,1.27,0.44,1.5,0.44c0.23,0,0.75,0,1.5-0.44
		c0.51-0.3,0.94-0.24,1.24-0.12V12.05z M18.72,12.05"/>
	<path class="st15" d="M15.98,14.34c-3.21,0-5.83-2.31-5.83-5.15s2.61-5.15,5.83-5.15c3.21,0,5.83,2.31,5.83,5.15
		S19.2,14.34,15.98,14.34L15.98,14.34z M15.98,4.24c-3.09,0-5.6,2.22-5.6,4.95c0,2.73,2.51,4.95,5.6,4.95c3.09,0,5.6-2.22,5.6-4.95
		C21.58,6.46,19.07,4.24,15.98,4.24L15.98,4.24z M15.98,4.24"/>
	<path class="st2" d="M9.6,9.62c0,0-0.02-0.63,0.66-0.63c0,0,0.01,0.25-0.23,0.36C9.83,9.44,9.6,9.62,9.6,9.62L9.6,9.62z M9.6,9.62"
		/>
	<path class="st2" d="M10.93,9.62c0,0,0.02-0.63-0.66-0.63c0,0-0.01,0.25,0.23,0.36C10.7,9.44,10.93,9.62,10.93,9.62L10.93,9.62z
		 M10.93,9.62"/>
	<path class="st2" d="M22.35,8.99c0,0,0.02,0.63-0.66,0.63c0,0-0.01-0.25,0.23-0.36C22.12,9.18,22.35,8.99,22.35,8.99L22.35,8.99z
		 M22.35,8.99"/>
	<path class="st2" d="M21.03,8.99c0,0-0.02,0.63,0.66,0.63c0,0,0.01-0.25-0.23-0.36C21.26,9.18,21.03,8.99,21.03,8.99L21.03,8.99z
		 M21.03,8.99"/>
	<path class="st2" d="M16.34,14.94c0,0-0.71,0.02-0.71-0.58c0,0,0.28-0.01,0.4,0.21C16.13,14.74,16.34,14.94,16.34,14.94
		L16.34,14.94z M16.34,14.94"/>
	<path class="st2" d="M16.34,13.77c0,0-0.71-0.02-0.71,0.58c0,0,0.28,0.01,0.4-0.21C16.13,13.97,16.34,13.77,16.34,13.77
		L16.34,13.77z M16.34,13.77"/>
	<path class="st2" d="M15.62,3.67c0,0,0.71-0.02,0.71,0.58c0,0-0.28,0.01-0.4-0.21C15.83,3.88,15.62,3.67,15.62,3.67L15.62,3.67z
		 M15.62,3.67"/>
	<path class="st2" d="M15.62,4.84c0,0,0.71,0.02,0.71-0.59c0,0-0.28-0.01-0.4,0.21C15.83,4.64,15.62,4.84,15.62,4.84L15.62,4.84z
		 M15.62,4.84"/>
	<path class="st2" d="M11.72,13.51c0,0-0.52-0.43-0.04-0.86c0,0,0.21,0.17,0.12,0.4C11.74,13.24,11.72,13.51,11.72,13.51
		L11.72,13.51z M11.72,13.51"/>
	<path class="st2" d="M12.66,12.69c0,0-0.49-0.46-0.97-0.03c0,0,0.19,0.18,0.45,0.11C12.35,12.7,12.66,12.69,12.66,12.69
		L12.66,12.69z M12.66,12.69"/>
	<path class="st2" d="M20.23,5.1c0,0,0.52,0.43,0.04,0.86c0,0-0.21-0.17-0.12-0.4C20.22,5.37,20.23,5.1,20.23,5.1L20.23,5.1z
		 M20.23,5.1"/>
	<path class="st2" d="M19.3,5.93c0,0,0.49,0.46,0.97,0.03c0,0-0.19-0.18-0.45-0.11C19.61,5.92,19.3,5.93,19.3,5.93L19.3,5.93z
		 M19.3,5.93"/>
	<path class="st2" d="M20.74,13.07c0,0-0.49,0.46-0.97,0.03c0,0,0.19-0.18,0.45-0.11C20.43,13.05,20.74,13.07,20.74,13.07
		L20.74,13.07z M20.74,13.07"/>
	<path class="st2" d="M19.8,12.24c0,0-0.52,0.43-0.04,0.86c0,0,0.21-0.17,0.12-0.4C19.82,12.51,19.8,12.24,19.8,12.24L19.8,12.24z
		 M19.8,12.24"/>
	<path class="st2" d="M11.22,5.55c0,0,0.49-0.46,0.97-0.03c0,0-0.19,0.18-0.45,0.11C11.53,5.56,11.22,5.55,11.22,5.55L11.22,5.55z
		 M11.22,5.55"/>
	<path class="st2" d="M12.15,6.37c0,0,0.52-0.43,0.04-0.86c0,0-0.21,0.17-0.12,0.4C12.14,6.1,12.15,6.37,12.15,6.37L12.15,6.37z
		 M12.15,6.37"/>
	<path class="st2" d="M10.23,11.75c0,0-0.3-0.57,0.34-0.81c0,0,0.12,0.22-0.06,0.41C10.36,11.51,10.23,11.75,10.23,11.75
		L10.23,11.75z M10.23,11.75"/>
	<path class="st2" d="M11.45,11.31c0,0-0.25-0.59-0.88-0.36c0,0,0.09,0.23,0.37,0.25C11.16,11.21,11.45,11.31,11.45,11.31
		L11.45,11.31z M11.45,11.31"/>
	<path class="st2" d="M21.73,6.86c0,0,0.3,0.58-0.34,0.81c0,0-0.12-0.22,0.06-0.41C21.6,7.11,21.73,6.86,21.73,6.86L21.73,6.86z
		 M21.73,6.86"/>
	<path class="st2" d="M20.51,7.31c0,0,0.25,0.59,0.88,0.36c0,0-0.09-0.23-0.37-0.25C20.8,7.4,20.51,7.31,20.51,7.31L20.51,7.31z
		 M20.51,7.31"/>
	<path class="st2" d="M18.75,14.39c0,0-0.65,0.26-0.91-0.3c0,0,0.25-0.11,0.46,0.05C18.47,14.27,18.75,14.39,18.75,14.39
		L18.75,14.39z M18.75,14.39"/>
	<path class="st2" d="M18.24,13.31c0,0-0.67,0.22-0.41,0.78c0,0,0.26-0.08,0.28-0.33C18.14,13.57,18.24,13.31,18.24,13.31
		L18.24,13.31z M18.24,13.31"/>
	<path class="st2" d="M13.21,4.22c0,0,0.65-0.26,0.91,0.3c0,0-0.25,0.11-0.46-0.05C13.49,4.34,13.21,4.22,13.21,4.22L13.21,4.22z
		 M13.21,4.22"/>
	<path class="st2" d="M13.72,5.3c0,0,0.67-0.22,0.41-0.78c0,0-0.26,0.08-0.28,0.33C13.82,5.05,13.72,5.3,13.72,5.3L13.72,5.3z
		 M13.72,5.3"/>
	<path class="st2" d="M13.87,14.63c0,0-0.67-0.22-0.41-0.78c0,0,0.27,0.08,0.28,0.33C13.76,14.37,13.87,14.63,13.87,14.63
		L13.87,14.63z M13.87,14.63"/>
	<path class="st2" d="M14.38,13.55c0,0-0.65-0.26-0.91,0.3c0,0,0.25,0.11,0.46-0.05C14.1,13.67,14.38,13.55,14.38,13.55L14.38,13.55
		z M14.38,13.55"/>
	<path class="st2" d="M18.09,3.98c0,0,0.67,0.22,0.41,0.78c0,0-0.27-0.08-0.28-0.33C18.19,4.24,18.09,3.98,18.09,3.98L18.09,3.98z
		 M18.09,3.98"/>
	<path class="st2" d="M17.58,5.06c0,0,0.65,0.26,0.91-0.3c0,0-0.25-0.11-0.46,0.05C17.86,4.95,17.58,5.06,17.58,5.06L17.58,5.06z
		 M17.58,5.06"/>
	<path class="st2" d="M22,11.17c0,0-0.25,0.59-0.89,0.36c0,0,0.09-0.23,0.37-0.25C21.71,11.26,22,11.17,22,11.17L22,11.17z
		 M22,11.17"/>
	<path class="st2" d="M20.78,10.72c0,0-0.3,0.58,0.34,0.81c0,0,0.12-0.22-0.06-0.41C20.91,10.97,20.78,10.72,20.78,10.72
		L20.78,10.72z M20.78,10.72"/>
	<path class="st2" d="M9.95,7.44c0,0,0.25-0.59,0.88-0.36c0,0-0.09,0.23-0.37,0.25C10.24,7.35,9.95,7.44,9.95,7.44L9.95,7.44z
		 M9.95,7.44"/>
	<path class="st2" d="M11.18,7.89c0,0,0.3-0.58-0.34-0.81c0,0-0.12,0.22,0.06,0.41C11.05,7.64,11.18,7.89,11.18,7.89L11.18,7.89z
		 M11.18,7.89"/>
	<path class="st2" d="M9.8,10.72c0,0-0.16-0.62,0.51-0.73c0,0,0.07,0.24-0.15,0.39C9.98,10.49,9.8,10.72,9.8,10.72L9.8,10.72z
		 M9.8,10.72"/>
	<path class="st2" d="M11.1,10.49c0,0-0.12-0.62-0.79-0.51c0,0,0.04,0.25,0.31,0.31C10.83,10.35,11.1,10.49,11.1,10.49L11.1,10.49z
		 M11.1,10.49"/>
	<path class="st2" d="M22.16,7.9c0,0,0.16,0.61-0.51,0.73c0,0-0.07-0.24,0.15-0.39C21.98,8.12,22.16,7.9,22.16,7.9L22.16,7.9z
		 M22.16,7.9"/>
	<path class="st2" d="M20.86,8.13c0,0,0.12,0.62,0.79,0.51c0,0-0.04-0.25-0.31-0.31C21.13,8.27,20.86,8.13,20.86,8.13L20.86,8.13z
		 M20.86,8.13"/>
	<path class="st2" d="M17.57,14.77c0,0-0.7,0.14-0.83-0.45c0,0,0.27-0.06,0.44,0.13C17.32,14.61,17.57,14.77,17.57,14.77
		L17.57,14.77z M17.57,14.77"/>
	<path class="st2" d="M17.31,13.62c0,0-0.71,0.1-0.57,0.7c0,0,0.28-0.04,0.35-0.27C17.15,13.86,17.31,13.62,17.31,13.62L17.31,13.62
		z M17.31,13.62"/>
	<path class="st2" d="M14.38,3.84c0,0,0.7-0.14,0.83,0.45c0,0-0.27,0.06-0.44-0.13C14.63,4.01,14.38,3.84,14.38,3.84L14.38,3.84z
		 M14.38,3.84"/>
	<path class="st2" d="M14.64,4.99c0,0,0.71-0.1,0.57-0.7c0,0-0.28,0.04-0.35,0.27C14.8,4.76,14.64,4.99,14.64,4.99L14.64,4.99z
		 M14.64,4.99"/>
	<path class="st2" d="M12.73,14.17c0,0-0.61-0.33-0.23-0.84c0,0,0.24,0.13,0.21,0.37C12.69,13.9,12.73,14.17,12.73,14.17
		L12.73,14.17z M12.73,14.17"/>
	<path class="st2" d="M13.47,13.19c0,0-0.58-0.37-0.96,0.14c0,0,0.23,0.15,0.47,0.03C13.17,13.26,13.47,13.19,13.47,13.19
		L13.47,13.19z M13.47,13.19"/>
	<path class="st2" d="M19.22,4.45c0,0,0.61,0.33,0.23,0.84c0,0-0.24-0.13-0.21-0.37C19.27,4.72,19.22,4.45,19.22,4.45L19.22,4.45z
		 M19.22,4.45"/>
	<path class="st2" d="M18.49,5.42c0,0,0.58,0.37,0.96-0.14c0,0-0.23-0.15-0.47-0.03C18.79,5.36,18.49,5.42,18.49,5.42L18.49,5.42z
		 M18.49,5.42"/>
	<path class="st2" d="M21.48,12.17c0,0-0.38,0.54-0.95,0.2c0,0,0.14-0.21,0.42-0.18C21.17,12.22,21.48,12.17,21.48,12.17
		L21.48,12.17z M21.48,12.17"/>
	<path class="st2" d="M20.38,11.52c0,0-0.42,0.51,0.15,0.85c0,0,0.17-0.2,0.03-0.41C20.45,11.79,20.38,11.52,20.38,11.52
		L20.38,11.52z M20.38,11.52"/>
	<path class="st2" d="M10.48,6.44c0,0,0.38-0.54,0.95-0.2c0,0-0.14,0.21-0.42,0.18C10.79,6.4,10.48,6.44,10.48,6.44L10.48,6.44z
		 M10.48,6.44"/>
	<path class="st2" d="M11.58,7.09c0,0,0.42-0.51-0.15-0.85c0,0-0.17,0.2-0.03,0.41C11.51,6.82,11.58,7.09,11.58,7.09L11.58,7.09z
		 M11.58,7.09"/>
	<path class="st2" d="M10.88,12.7c0,0-0.42-0.51,0.15-0.85c0,0,0.17,0.2,0.03,0.41C10.95,12.43,10.88,12.7,10.88,12.7L10.88,12.7z
		 M10.88,12.7"/>
	<path class="st2" d="M11.98,12.05c0,0-0.38-0.54-0.95-0.2c0,0,0.14,0.21,0.42,0.18C11.67,12.01,11.98,12.05,11.98,12.05
		L11.98,12.05z M11.98,12.05"/>
	<path class="st2" d="M21.08,5.92c0,0,0.42,0.51-0.15,0.85c0,0-0.17-0.2-0.03-0.41C21.01,6.18,21.08,5.92,21.08,5.92L21.08,5.92z
		 M21.08,5.92"/>
	<path class="st2" d="M19.98,6.57c0,0,0.38,0.54,0.95,0.2c0,0-0.14-0.21-0.42-0.18C20.29,6.61,19.98,6.57,19.98,6.57L19.98,6.57z
		 M19.98,6.57"/>
	<path class="st2" d="M19.82,13.81c0,0-0.58,0.37-0.96-0.14c0,0,0.23-0.15,0.47-0.03C19.52,13.75,19.82,13.81,19.82,13.81
		L19.82,13.81z M19.82,13.81"/>
	<path class="st2" d="M19.08,12.84c0,0-0.61,0.33-0.23,0.84c0,0,0.24-0.13,0.21-0.37C19.03,13.11,19.08,12.84,19.08,12.84
		L19.08,12.84z M19.08,12.84"/>
	<path class="st2" d="M12.14,4.8c0,0,0.58-0.37,0.96,0.14c0,0-0.23,0.15-0.47,0.03C12.44,4.86,12.14,4.8,12.14,4.8L12.14,4.8z
		 M12.14,4.8"/>
	<path class="st2" d="M12.88,5.77c0,0,0.61-0.33,0.23-0.84c0,0-0.24,0.13-0.21,0.37C12.92,5.5,12.88,5.77,12.88,5.77L12.88,5.77z
		 M12.88,5.77"/>
	<path class="st2" d="M15.09,14.89c0,0-0.71-0.1-0.57-0.7c0,0,0.28,0.04,0.35,0.27C14.92,14.66,15.09,14.89,15.09,14.89L15.09,14.89
		z M15.09,14.89"/>
	<path class="st2" d="M15.34,13.75c0,0-0.7-0.14-0.83,0.45c0,0,0.27,0.06,0.44-0.13C15.09,13.91,15.34,13.75,15.34,13.75
		L15.34,13.75z M15.34,13.75"/>
	<path class="st2" d="M16.87,3.72c0,0,0.71,0.1,0.57,0.7c0,0-0.28-0.04-0.35-0.27C17.03,3.96,16.87,3.72,16.87,3.72L16.87,3.72z
		 M16.87,3.72"/>
	<path class="st2" d="M16.61,4.87c0,0,0.7,0.14,0.83-0.45c0,0-0.27-0.06-0.44,0.13C16.86,4.71,16.61,4.87,16.61,4.87L16.61,4.87z
		 M16.61,4.87"/>
	<path class="st2" d="M22.3,10.1c0,0-0.12,0.62-0.79,0.5c0,0,0.04-0.25,0.31-0.31C22.04,10.24,22.3,10.1,22.3,10.1L22.3,10.1z
		 M22.3,10.1"/>
	<path class="st2" d="M21,9.87c0,0-0.16,0.62,0.51,0.73c0,0,0.07-0.24-0.15-0.39C21.18,10.09,21,9.87,21,9.87L21,9.87z M21,9.87"/>
	<path class="st2" d="M9.66,8.52c0,0,0.12-0.62,0.79-0.51c0,0-0.04,0.25-0.31,0.31C9.92,8.38,9.66,8.52,9.66,8.52L9.66,8.52z
		 M9.66,8.52"/>
	<path class="st2" d="M10.96,8.75c0,0,0.16-0.62-0.51-0.73c0,0-0.07,0.24,0.15,0.39C10.77,8.53,10.96,8.75,10.96,8.75L10.96,8.75z
		 M10.96,8.75"/>
</g>
</svg>
