<?xml version="1.0" encoding="utf-8"?>
<!-- Generator: Adobe Illustrator 25.0.0, SVG Export Plug-In . SVG Version: 6.00 Build 0)  -->
<svg version="1.1" id="Capa_1" xmlns="http://www.w3.org/2000/svg" xmlns:xlink="http://www.w3.org/1999/xlink" x="0px" y="0px"
	 viewBox="0 0 32 18.62" style="enable-background:new 0 0 32 18.62;" xml:space="preserve">
<style type="text/css">
	.st0{fill:#FF4B55;}
	.st1{fill:#464655;}
	.st2{fill:#73AF00;}
	.st3{fill:#F5F5F5;}
	.st4{fill:#41479B;}
	.st5{fill:#FFF5DC;}
	.st6{fill:#D27D69;}
	.st7{fill:#FFE15A;}
	.st8{fill:#B95546;}
	.st9{fill:#DCBE82;}
	.st10{fill:#D2AA73;}
	.st11{fill:#4173CD;}
	.st12{fill:#82AFFF;}
	.st13{fill:#F09146;}
	.st14{fill:#FFB400;}
	.st15{fill:#965032;}
	.st16{fill:#BE7855;}
	.st17{fill:#FFBE3C;}
	.st18{fill:#EAF3F5;}
	.st19{fill:#8C5A28;}
	.st20{fill:#F0C850;}
	.st21{fill:#FF6E55;}
	.st22{fill:#FFBE5A;}
	.st23{fill:#3CC8FF;}
	.st24{fill:#825546;}
	.st25{fill:#FFD255;}
	.st26{fill:#FFD25A;}
	.st27{fill:#509664;}
	.st28{fill:#F0AA00;}
	.st29{fill:#A561CD;}
	.st30{fill:#B34900;}
	.st31{fill:#64B496;}
	.st32{fill:#FF6B71;}
	.st33{fill:#5F64B9;}
	.st34{fill:#F5F0F0;}
	.st35{fill:#5A4646;}
	.st36{fill:#E6E1CD;}
	.st37{fill:#FFD0AF;}
	.st38{fill:#FFAF94;}
	.st39{fill:#8CB400;}
	.st40{fill:#69C3FF;}
	.st41{fill:#009B64;}
	.st42{fill:#5AA0E6;}
	.st43{fill:#FFC88C;}
	.st44{fill:#E1E1E1;}
	.st45{fill:#966446;}
	.st46{fill:#BE915A;}
	.st47{fill:#B9B9B9;}
	.st48{fill:#F0C727;}
	.st49{fill:#50AF69;}
	.st50{fill:#FFE6E6;}
	.st51{fill:#FFB750;}
	.st52{fill:#FFC455;}
	.st53{fill:#FFCD55;}
	.st54{fill:#9BC800;}
	.st55{fill:#FFE14E;}
	.st56{fill:#FFB14E;}
	.st57{fill:#B46446;}
	.st58{fill:#5FA000;}
	.st59{fill:#F2DD30;}
	.st60{fill:#FFC855;}
	.st61{fill:#A0A0A0;}
	.st62{fill:#69B469;}
	.st63{fill:#F4E08F;}
	.st64{fill:#ECD077;}
	.st65{fill:#FCF0A8;}
	.st66{fill:#FAB446;}
	.st67{fill:#C8414B;}
	.st68{fill:#FF9B46;}
	.st69{fill:#FF9B55;}
	.st70{fill:#82C3D2;}
	.st71{fill:#5AA587;}
	.st72{fill:#CDCDCD;}
	.st73{fill:#B4A08C;}
	.st74{fill:#FFD250;}
	.st75{fill:#00C3A0;}
	.st76{fill:#00AADC;}
	.st77{fill:#732D37;}
	.st78{fill:#AAD264;}
	.st79{fill:#874150;}
	.st80{fill:#783C46;}
	.st81{fill:#FFB478;}
	.st82{fill:#9B4B5A;}
	.st83{fill:#FFCD5A;}
	.st84{fill:#FFAA5A;}
	.st85{fill:#FF875A;}
	.st86{fill:#E6B432;}
	.st87{fill:#C86464;}
	.st88{fill:#FFF5E1;}
	.st89{fill:#963C3C;}
	.st90{fill:#5A8250;}
	.st91{fill:#AFEBFF;}
	.st92{fill:#557DE6;}
	.st93{fill:#D23741;}
	.st94{fill:#64C86E;}
	.st95{fill:#873250;}
	.st96{fill:#41AA5A;}
	.st97{fill:#8CD7FF;}
	.st98{fill:#6EC86E;}
	.st99{fill:#FFF0E1;}
	.st100{fill:#FFC75A;}
	.st101{fill:#FFD350;}
	.st102{fill:#FFBE50;}
	.st103{fill:#A54B50;}
	.st104{fill:#C87878;}
	.st105{fill:#FF1722;}
	.st106{fill:#FFB441;}
	.st107{fill:#5064AA;}
	.st108{fill:#FFA0D2;}
	.st109{fill:#FF7350;}
	.st110{fill:#245DBD;}
	.st111{fill:#D35A10;}
	.st112{fill:#FFA033;}
	.st113{fill:#FF9480;}
	.st114{fill:#FFA0E4;}
	.st115{fill:#696E7D;}
	.st116{fill:#FFFCFF;}
	.st117{fill:#EBEBEB;}
	.st118{fill:#FF4B57;}
	.st119{fill:#D2D2D2;}
	.st120{fill:#F0C814;}
	.st121{fill:#F7B518;}
	.st122{fill:#2C2F38;}
	.st123{fill:#4C8056;}
	.st124{fill:#F0C419;}
	.st125{fill:#C03A2B;}
	.st126{fill:#EA3F3F;}
	.st127{fill:#E4E3E1;}
	.st128{fill:#2472B2;}
</style>
<g>
	<path class="st0" d="M31.42,18.55H0.55c-0.3,0-0.55-0.22-0.55-0.49V0.53c0-0.27,0.25-0.49,0.55-0.49h30.87
		c0.3,0,0.55,0.22,0.55,0.49v17.53C31.97,18.33,31.72,18.55,31.42,18.55L31.42,18.55z M31.42,18.55"/>
	<path class="st7" d="M5.31,2.94l0.53,1.39l1.66,0.01c0.21,0,0.3,0.24,0.13,0.36L6.29,5.57l0.5,1.4C6.85,7.15,6.62,7.3,6.45,7.19
		L5.1,6.34L3.74,7.19C3.57,7.3,3.34,7.15,3.4,6.97l0.5-1.4L2.57,4.7C2.39,4.59,2.48,4.34,2.7,4.34l1.66-0.01l0.53-1.39
		C4.95,2.76,5.24,2.76,5.31,2.94L5.31,2.94z M5.31,2.94"/>
	<path class="st7" d="M11.34,3.28l0.38,0.45l0.61-0.17c0.08-0.02,0.14,0.06,0.1,0.12l-0.37,0.46l0.37,0.46
		c0.05,0.06-0.02,0.14-0.1,0.12l-0.61-0.17L11.33,5c-0.05,0.06-0.15,0.03-0.15-0.04l0-0.56l-0.6-0.18c-0.08-0.02-0.08-0.12,0-0.14
		l0.6-0.18l0.01-0.56C11.18,3.25,11.29,3.22,11.34,3.28L11.34,3.28z M11.34,3.28"/>
	<path class="st7" d="M9.04,1.93l0.63,0.06l0.27-0.51c0.04-0.07,0.14-0.05,0.16,0.02l0.13,0.55l0.63,0.07
		c0.08,0.01,0.1,0.11,0.03,0.14l-0.55,0.28l0.12,0.55c0.02,0.07-0.08,0.12-0.14,0.07L9.86,2.78L9.3,3.05
		c-0.07,0.04-0.15-0.03-0.12-0.1l0.26-0.51L8.98,2.06C8.92,2.01,8.96,1.92,9.04,1.93L9.04,1.93z M9.04,1.93"/>
	<path class="st7" d="M10.05,7.38L9.67,7.84L9.06,7.67c-0.08-0.02-0.14,0.06-0.1,0.12l0.37,0.46L8.97,8.7
		c-0.05,0.06,0.02,0.14,0.1,0.12l0.61-0.17l0.38,0.45c0.05,0.06,0.15,0.03,0.15-0.05l0-0.56l0.6-0.18c0.08-0.02,0.08-0.12,0-0.14
		l-0.61-0.18L10.2,7.43C10.2,7.36,10.09,7.33,10.05,7.38L10.05,7.38z M10.05,7.38"/>
	<path class="st7" d="M12.34,6.11l-0.63,0.06l-0.27-0.51c-0.04-0.07-0.15-0.05-0.16,0.02l-0.13,0.55L10.51,6.3
		c-0.08,0.01-0.1,0.1-0.03,0.14l0.55,0.28l-0.12,0.55c-0.02,0.07,0.08,0.12,0.14,0.07l0.47-0.38l0.56,0.27
		c0.07,0.04,0.15-0.03,0.12-0.1l-0.26-0.51l0.47-0.38C12.47,6.19,12.42,6.1,12.34,6.11L12.34,6.11z M12.34,6.11"/>
</g>
</svg>
