<?xml version="1.0" encoding="utf-8"?>
<!-- Generator: Adobe Illustrator 25.0.0, SVG Export Plug-In . SVG Version: 6.00 Build 0)  -->
<svg version="1.1" id="Capa_1" xmlns="http://www.w3.org/2000/svg" xmlns:xlink="http://www.w3.org/1999/xlink" x="0px" y="0px"
	 viewBox="0 0 32 18.62" style="enable-background:new 0 0 32 18.62;" xml:space="preserve">
<style type="text/css">
	.st0{fill:#FF4B55;}
	.st1{fill:#464655;}
	.st2{fill:#73AF00;}
	.st3{fill:#F5F5F5;}
	.st4{fill:#41479B;}
	.st5{fill:#FFF5DC;}
	.st6{fill:#D27D69;}
	.st7{fill:#FFE15A;}
	.st8{fill:#B95546;}
	.st9{fill:#DCBE82;}
	.st10{fill:#D2AA73;}
	.st11{fill:#4173CD;}
	.st12{fill:#82AFFF;}
	.st13{fill:#F09146;}
	.st14{fill:#FFB400;}
	.st15{fill:#965032;}
	.st16{fill:#BE7855;}
	.st17{fill:#FFBE3C;}
	.st18{fill:#EAF3F5;}
	.st19{fill:#8C5A28;}
	.st20{fill:#F0C850;}
	.st21{fill:#FF6E55;}
	.st22{fill:#FFBE5A;}
	.st23{fill:#3CC8FF;}
	.st24{fill:#825546;}
	.st25{fill:#FFD255;}
	.st26{fill:#FFD25A;}
	.st27{fill:#509664;}
	.st28{fill:#F0AA00;}
	.st29{fill:#A561CD;}
	.st30{fill:#B34900;}
	.st31{fill:#64B496;}
	.st32{fill:#FF6B71;}
	.st33{fill:#5F64B9;}
	.st34{fill:#F5F0F0;}
	.st35{fill:#5A4646;}
	.st36{fill:#E6E1CD;}
	.st37{fill:#FFD0AF;}
	.st38{fill:#FFAF94;}
	.st39{fill:#8CB400;}
	.st40{fill:#69C3FF;}
	.st41{fill:#009B64;}
	.st42{fill:#5AA0E6;}
	.st43{fill:#FFC88C;}
	.st44{fill:#E1E1E1;}
	.st45{fill:#966446;}
	.st46{fill:#BE915A;}
	.st47{fill:#B9B9B9;}
	.st48{fill:#F0C727;}
	.st49{fill:#50AF69;}
	.st50{fill:#FFE6E6;}
	.st51{fill:#FFB750;}
	.st52{fill:#FFC455;}
	.st53{fill:#FFCD55;}
	.st54{fill:#9BC800;}
	.st55{fill:#FFE14E;}
	.st56{fill:#FFB14E;}
	.st57{fill:#B46446;}
	.st58{fill:#5FA000;}
	.st59{fill:#F2DD30;}
	.st60{fill:#FFC855;}
	.st61{fill:#A0A0A0;}
	.st62{fill:#69B469;}
	.st63{fill:#F4E08F;}
	.st64{fill:#ECD077;}
	.st65{fill:#FCF0A8;}
	.st66{fill:#FAB446;}
	.st67{fill:#C8414B;}
	.st68{fill:#FF9B46;}
	.st69{fill:#FF9B55;}
	.st70{fill:#82C3D2;}
	.st71{fill:#5AA587;}
	.st72{fill:#CDCDCD;}
	.st73{fill:#B4A08C;}
	.st74{fill:#FFD250;}
	.st75{fill:#00C3A0;}
	.st76{fill:#00AADC;}
	.st77{fill:#732D37;}
	.st78{fill:#AAD264;}
	.st79{fill:#874150;}
	.st80{fill:#783C46;}
	.st81{fill:#FFB478;}
	.st82{fill:#9B4B5A;}
	.st83{fill:#FFCD5A;}
	.st84{fill:#FFAA5A;}
	.st85{fill:#FF875A;}
	.st86{fill:#E6B432;}
	.st87{fill:#C86464;}
	.st88{fill:#FFF5E1;}
	.st89{fill:#963C3C;}
	.st90{fill:#5A8250;}
	.st91{fill:#AFEBFF;}
	.st92{fill:#557DE6;}
	.st93{fill:#D23741;}
	.st94{fill:#64C86E;}
	.st95{fill:#873250;}
	.st96{fill:#41AA5A;}
	.st97{fill:#8CD7FF;}
	.st98{fill:#6EC86E;}
	.st99{fill:#FFF0E1;}
	.st100{fill:#FFC75A;}
	.st101{fill:#FFD350;}
	.st102{fill:#FFBE50;}
	.st103{fill:#A54B50;}
	.st104{fill:#C87878;}
	.st105{fill:#FF1722;}
	.st106{fill:#FFB441;}
	.st107{fill:#5064AA;}
	.st108{fill:#FFA0D2;}
	.st109{fill:#FF7350;}
	.st110{fill:#245DBD;}
	.st111{fill:#D35A10;}
	.st112{fill:#FFA033;}
	.st113{fill:#FF9480;}
	.st114{fill:#FFA0E4;}
	.st115{fill:#696E7D;}
	.st116{fill:#FFFCFF;}
	.st117{fill:#EBEBEB;}
	.st118{fill:#FF4B57;}
	.st119{fill:#D2D2D2;}
	.st120{fill:#F0C814;}
	.st121{fill:#F7B518;}
	.st122{fill:#2C2F38;}
	.st123{fill:#4C8056;}
	.st124{fill:#F0C419;}
	.st125{fill:#C03A2B;}
	.st126{fill:#EA3F3F;}
	.st127{fill:#E4E3E1;}
	.st128{fill:#2472B2;}
</style>
<g>
	<rect x="0" y="6.38" class="st0" width="31.97" height="5.84"/>
	<path class="st4" d="M0.55,0.04h30.87c0.3,0,0.55,0.22,0.55,0.49v2.68H0V0.53C0,0.26,0.25,0.04,0.55,0.04L0.55,0.04z M0.55,0.04"/>
	<rect x="0" y="3.21" class="st3" width="31.97" height="3.17"/>
	<path class="st4" d="M31.42,18.55H0.55c-0.3,0-0.55-0.22-0.55-0.49v-2.68h31.97v2.68C31.97,18.33,31.72,18.55,31.42,18.55
		L31.42,18.55z M31.42,18.55"/>
	<rect x="0" y="12.22" class="st3" width="31.97" height="3.17"/>
	<path class="st3" d="M11.22,9.3c0,1.34-1.15,2.44-2.58,2.44S6.06,10.64,6.06,9.3c0-1.35,1.15-2.44,2.58-2.44S11.22,7.95,11.22,9.3
		L11.22,9.3z M11.22,9.3"/>
	<rect x="7.31" y="8.36" class="st23" width="2.67" height="1.18"/>
	<path class="st7" d="M7.66,9.03l0.03,0.26l0.12-0.24L7.75,9.3l0.2-0.19L7.8,9.33L8.06,9.2L7.84,9.38l0.29-0.05L7.86,9.43l0.29,0.03
		L7.86,9.48l0.27,0.11L7.84,9.53l0.22,0.17L7.8,9.58L7.95,9.8l-0.2-0.19l0.06,0.26L7.69,9.63L7.66,9.88L7.63,9.63L7.51,9.86
		l0.06-0.26L7.38,9.8l0.15-0.23L7.27,9.71l0.22-0.17L7.2,9.59l0.27-0.11L7.18,9.46l0.29-0.03L7.2,9.32l0.29,0.05L7.27,9.2l0.26,0.13
		L7.38,9.11l0.2,0.19L7.51,9.05l0.12,0.24L7.66,9.03z M7.66,9.03"/>
	<path class="st4" d="M9.17,11.18H8.11l-0.98-0.71V9.46h3.11v1.02L9.17,11.18z M9.17,11.18"/>
	<path class="st2" d="M9.71,9.14c0-0.02-0.02-0.04-0.04-0.04c-0.02,0-0.04,0.02-0.04,0.04h0c0,0.14-0.09,0.32-0.2,0.46
		C9.27,9.43,9.21,9.23,9.19,9.11C9.18,9.05,9.1,9.01,9.04,9.04C9.01,9.05,8.99,9.08,8.99,9.11C8.92,9.49,8.72,9.66,8.58,9.73
		C8.38,9.55,8.32,9.28,8.3,9.12c-0.01-0.06-0.09-0.1-0.15-0.07C8.12,9.06,8.1,9.08,8.09,9.1C7.82,9.85,7.04,9.93,7.04,9.93v0.24
		h3.11V9.77C9.8,9.69,9.71,9.14,9.71,9.14L9.71,9.14z M9.71,9.14"/>
	<path class="st28" d="M10.15,8.43C9.8,8.28,9.8,8.12,9.8,8.12S9.35,7.96,9,7.96c0,0,0.09-0.16-0.09-0.16H8.37
		c-0.18,0-0.09,0.16-0.09,0.16c-0.36,0-0.8,0.16-0.8,0.16s0,0.16-0.36,0.31C6.77,8.59,6.77,8.94,6.77,8.94
		c0,0.07,0.06,0.12,0.13,0.12c0.07,0,0.13-0.05,0.13-0.12c0-0.01,0-0.03-0.01-0.04l0.01,0l0.89-0.55h1.42l0.89,0.55l0.01,0
		c0,0.01-0.01,0.02-0.01,0.04c0,0.07,0.06,0.12,0.13,0.12c0.07,0,0.13-0.05,0.13-0.12C10.51,8.94,10.51,8.59,10.15,8.43L10.15,8.43z
		 M10.15,8.43"/>
	<path class="st28" d="M10.42,9.38c-0.09,0-0.36,0-0.36-0.24c0-0.24,0.36-0.24,0.36-0.24L9.89,8.75c-0.18,0.55,0.18,0.55,0.18,1.26
		c0,0.63-0.8,1.02-1.07,1.02c-0.27,0-0.36,0.16-0.36,0.16s-0.09-0.16-0.36-0.16c-0.27,0-1.07-0.39-1.07-1.02
		c0-0.71,0.36-0.71,0.18-1.26L6.86,8.91c0,0,0.36,0,0.36,0.24c0,0.24-0.27,0.24-0.36,0.24c-0.09,0-0.44,0-0.44,0.39
		c0,0.39,0.44,0.86,1.07,1.18c0.62,0.31,0.36,0.63,1.16,0.63c0.8,0,0.53-0.31,1.16-0.63c0.62-0.31,1.07-0.79,1.07-1.18
		C10.86,9.38,10.51,9.38,10.42,9.38L10.42,9.38z M10.42,9.38"/>
	<path class="st2" d="M8.46,8.15L8.25,8.06C8.21,8.05,8.17,8.04,8.14,8.05C8,8.08,7.65,8.17,7.4,8.43l0.27,0.08L8.46,8.15z
		 M8.46,8.15"/>
	<path class="st2" d="M8.82,8.15l0.21-0.09c0.04-0.01,0.08-0.02,0.11-0.01c0.14,0.03,0.48,0.12,0.74,0.38L9.62,8.51L8.82,8.15z
		 M8.82,8.15"/>
	<path class="st2" d="M8.67,8.2l0.16-0.14c0.01-0.01,0.01-0.02,0-0.03c-0.01-0.01-0.02-0.01-0.03,0L8.64,8.17L8.48,8.03
		c-0.01-0.01-0.02-0.01-0.03,0c-0.01,0.01-0.01,0.02,0,0.03L8.61,8.2L8.45,8.34c-0.01,0.01-0.01,0.02,0,0.03
		c0,0,0.01,0.01,0.02,0.01c0.01,0,0.01,0,0.02-0.01l0.16-0.14L8.8,8.37c0,0,0.01,0.01,0.02,0.01c0.01,0,0.01,0,0.02-0.01
		c0.01-0.01,0.01-0.02,0-0.03L8.67,8.2z M8.67,8.2"/>
	<path class="st3" d="M10.42,8.91c0-0.13-0.14-0.19-0.27-0.22V8.63C9.99,8.61,9.89,8.56,9.73,8.46C9.67,8.42,9.6,8.38,9.51,8.33
		C9.2,8.17,8.96,8.14,8.82,8.15v0.13H8.46V8.15C8.32,8.14,8.08,8.17,7.77,8.33C7.69,8.38,7.62,8.42,7.55,8.46
		C7.39,8.56,7.3,8.61,7.13,8.63v0.06C7.01,8.71,6.86,8.77,6.86,8.91l0.27-0.08v0.04c0.25-0.02,0.4-0.1,0.57-0.21
		c0.06-0.04,0.13-0.08,0.21-0.12c0.2-0.11,0.36-0.14,0.46-0.15v0.13h0.53V8.38c0.1,0.01,0.26,0.04,0.46,0.15
		c0.08,0.04,0.15,0.08,0.21,0.12c0.18,0.11,0.32,0.19,0.57,0.21V8.83L10.42,8.91z M10.42,8.91"/>
	<path class="st23" d="M9.71,7.67v-0.1H9.46C9.5,7.54,9.53,7.5,9.53,7.45c0-0.22-0.56-0.28-0.89-0.28c-0.33,0-0.89,0.06-0.89,0.28
		c0,0.05,0.03,0.08,0.07,0.12H7.57v0.1c-0.22,0.04-0.4,0.15-0.4,0.15l0.1,0.13c0,0,0.25-0.14,0.48-0.14V7.73h1.78v0.08
		c0.24,0,0.48,0.14,0.48,0.14l0.1-0.13C10.1,7.81,9.93,7.71,9.71,7.67L9.71,7.67z M9,7.55V7.49c0-0.04-0.04-0.07-0.08-0.06
		L8.64,7.49L8.37,7.43C8.33,7.42,8.29,7.45,8.29,7.49v0.06c-0.2-0.03-0.32-0.07-0.35-0.1c0.05-0.04,0.28-0.12,0.71-0.12
		S9.3,7.41,9.35,7.45C9.31,7.48,9.2,7.52,9,7.55L9,7.55z M9,7.55"/>
	<path class="st3" d="M8.65,8.54L8.67,8.6l0.07,0c0.01,0,0.01,0.01,0.01,0.02L8.69,8.65l0.02,0.06c0,0.01-0.01,0.01-0.01,0.01
		L8.64,8.69L8.59,8.72c-0.01,0-0.02,0-0.01-0.01l0.02-0.06L8.53,8.62c-0.01,0,0-0.02,0.01-0.02l0.07,0l0.02-0.06
		C8.64,8.53,8.65,8.53,8.65,8.54L8.65,8.54z M8.65,8.54"/>
	<path class="st3" d="M8.3,8.56l0.03,0.06L8.4,8.61c0.01,0,0.01,0.01,0.01,0.01L8.36,8.67l0.03,0.06c0,0.01-0.01,0.01-0.01,0.01
		L8.31,8.71L8.26,8.75c-0.01,0.01-0.02,0-0.02-0.01l0.01-0.06L8.2,8.65c-0.01,0-0.01-0.01,0-0.02l0.07-0.01l0.02-0.06
		C8.29,8.56,8.3,8.55,8.3,8.56L8.3,8.56z M8.3,8.56"/>
	<path class="st3" d="M7.95,8.65L7.99,8.7l0.07-0.02c0.01,0,0.02,0.01,0.01,0.01L8.03,8.74l0.04,0.05c0.01,0.01,0,0.02-0.01,0.01
		L7.99,8.79L7.95,8.84c-0.01,0.01-0.02,0-0.02,0l0-0.06L7.86,8.75c-0.01,0-0.01-0.01,0-0.02l0.07-0.02V8.65
		C7.93,8.64,7.94,8.64,7.95,8.65L7.95,8.65z M7.95,8.65"/>
	<path class="st3" d="M7.59,8.78l0.05,0.04L7.7,8.8c0.01,0,0.02,0,0.01,0.01L7.68,8.87l0.05,0.05c0.01,0.01,0,0.02-0.01,0.01
		L7.65,8.91L7.62,8.97c0,0.01-0.02,0.01-0.02,0L7.59,8.9L7.52,8.89c-0.01,0-0.01-0.01,0-0.02l0.06-0.03L7.57,8.79
		C7.57,8.78,7.58,8.77,7.59,8.78L7.59,8.78z M7.59,8.78"/>
	<path class="st3" d="M8.98,8.56L8.95,8.62L8.88,8.61c-0.01,0-0.01,0.01-0.01,0.01l0.05,0.04L8.9,8.73c0,0.01,0.01,0.01,0.01,0.01
		l0.06-0.03l0.05,0.04c0.01,0.01,0.02,0,0.02-0.01L9.03,8.68l0.06-0.03c0.01,0,0.01-0.01,0-0.02L9.02,8.63L9,8.56
		C9,8.56,8.99,8.55,8.98,8.56L8.98,8.56z M8.98,8.56"/>
	<path class="st3" d="M9.34,8.65L9.3,8.7L9.23,8.68c-0.01,0-0.02,0.01-0.01,0.01l0.04,0.05L9.22,8.79c-0.01,0.01,0,0.02,0.01,0.01
		L9.3,8.79l0.04,0.05c0.01,0.01,0.02,0,0.02,0l0-0.06l0.07-0.02c0.01,0,0.01-0.01,0-0.02L9.36,8.71V8.65
		C9.36,8.64,9.35,8.64,9.34,8.65L9.34,8.65z M9.34,8.65"/>
	<path class="st3" d="M9.7,8.78L9.65,8.82L9.59,8.8c-0.01,0-0.02,0-0.01,0.01l0.03,0.06L9.56,8.91c-0.01,0.01,0,0.02,0.01,0.01
		l0.07-0.01l0.03,0.06c0,0.01,0.02,0.01,0.02,0L9.7,8.9l0.07-0.01c0.01,0,0.01-0.01,0-0.02L9.71,8.85l0.01-0.06
		C9.72,8.78,9.71,8.77,9.7,8.78L9.7,8.78z M9.7,8.78"/>
	<path class="st19" d="M8.03,10.43l0.45,0.27h0.55l0.25-0.19l-0.19,0.07H8.44L8.03,10.43z M8.03,10.43"/>
	<path class="st3" d="M8.34,10.08l-0.04,0.39l-0.2-0.07C8.09,10.4,8.18,10.22,8.34,10.08L8.34,10.08z M8.34,10.08"/>
	<rect x="8.73" y="9.93" class="st19" width="0.03" height="0.66"/>
	<rect x="9" y="9.98" class="st19" width="0.03" height="0.61"/>
	<rect x="8.46" y="9.98" class="st19" width="0.03" height="0.61"/>
	<path class="st3" d="M8.83,10.53H8.65c-0.02,0-0.03-0.01-0.03-0.03v-0.08c0-0.02,0.02-0.03,0.03-0.03h0.18
		c0.02,0,0.03,0.01,0.03,0.03v0.08C8.87,10.51,8.85,10.53,8.83,10.53L8.83,10.53z M8.83,10.53"/>
	<path class="st3" d="M8.83,10.34H8.65c-0.02,0-0.03-0.01-0.03-0.03v-0.08c0-0.02,0.02-0.03,0.03-0.03h0.18
		c0.02,0,0.03,0.01,0.03,0.03v0.08C8.87,10.33,8.85,10.34,8.83,10.34L8.83,10.34z M8.83,10.34"/>
	<path class="st3" d="M8.83,10.17H8.65c-0.02,0-0.03-0.01-0.03-0.03v-0.08c0-0.02,0.02-0.03,0.03-0.03h0.18
		c0.02,0,0.03,0.01,0.03,0.03v0.08C8.87,10.16,8.85,10.17,8.83,10.17L8.83,10.17z M8.83,10.17"/>
	<path class="st3" d="M9.09,10.53H8.94c-0.02,0-0.03-0.01-0.03-0.03v-0.08c0-0.02,0.02-0.03,0.03-0.03h0.15
		c0.02,0,0.03,0.01,0.03,0.03v0.08C9.12,10.51,9.11,10.53,9.09,10.53L9.09,10.53z M9.09,10.53"/>
	<path class="st3" d="M9.09,10.36H8.94c-0.02,0-0.03-0.01-0.03-0.03v-0.06c0-0.02,0.02-0.03,0.03-0.03h0.15
		c0.02,0,0.03,0.01,0.03,0.03v0.06C9.12,10.34,9.11,10.36,9.09,10.36L9.09,10.36z M9.09,10.36"/>
	<path class="st3" d="M9.09,10.19H8.94c-0.02,0-0.03-0.01-0.03-0.03v-0.04c0-0.02,0.02-0.03,0.03-0.03h0.15
		c0.02,0,0.03,0.01,0.03,0.03v0.04C9.12,10.17,9.11,10.19,9.09,10.19L9.09,10.19z M9.09,10.19"/>
	<path class="st3" d="M8.54,10.53H8.4c-0.02,0-0.03-0.01-0.03-0.03v-0.08c0-0.02,0.02-0.03,0.03-0.03h0.15
		c0.02,0,0.03,0.01,0.03,0.03v0.08C8.58,10.51,8.56,10.53,8.54,10.53L8.54,10.53z M8.54,10.53"/>
	<path class="st3" d="M8.54,10.36H8.4c-0.02,0-0.03-0.01-0.03-0.03v-0.06c0-0.02,0.02-0.03,0.03-0.03h0.15
		c0.02,0,0.03,0.01,0.03,0.03v0.06C8.58,10.34,8.56,10.36,8.54,10.36L8.54,10.36z M8.54,10.36"/>
	<path class="st3" d="M8.54,10.19H8.4c-0.02,0-0.03-0.01-0.03-0.03v-0.04c0-0.02,0.02-0.03,0.03-0.03h0.15
		c0.02,0,0.03,0.01,0.03,0.03v0.04C8.58,10.17,8.56,10.19,8.54,10.19L8.54,10.19z M8.54,10.19"/>
	<path class="st3" d="M8.49,9.98v0.08l0.13-0.04L8.49,9.98z M8.49,9.98"/>
	<path class="st3" d="M9.03,9.98v0.08l0.13-0.04L9.03,9.98z M9.03,9.98"/>
	<path class="st3" d="M8.76,9.93v0.08l0.13-0.04L8.76,9.93z M8.76,9.93"/>
	<path class="st19" d="M8.41,9.4l0.16,0.09h0.19l0.09-0.07L8.78,9.45H8.55L8.41,9.4z M8.41,9.4"/>
	<path class="st3" d="M8.52,9.28L8.5,9.41L8.43,9.39C8.43,9.39,8.46,9.32,8.52,9.28L8.52,9.28z M8.52,9.28"/>
	<rect x="8.65" y="9.22" class="st19" width="0.01" height="0.23"/>
	<rect x="8.75" y="9.24" class="st19" width="0.01" height="0.21"/>
	<rect x="8.56" y="9.24" class="st19" width="0.01" height="0.21"/>
	<path class="st3" d="M8.69,9.43H8.63c-0.01,0-0.01,0-0.01-0.01V9.39c0-0.01,0.01-0.01,0.01-0.01h0.06c0.01,0,0.01,0,0.01,0.01v0.03
		C8.7,9.43,8.7,9.43,8.69,9.43L8.69,9.43z M8.69,9.43"/>
	<path class="st3" d="M8.69,9.37H8.63c-0.01,0-0.01,0-0.01-0.01V9.33c0-0.01,0.01-0.01,0.01-0.01h0.06c0.01,0,0.01,0,0.01,0.01v0.03
		C8.7,9.36,8.7,9.37,8.69,9.37L8.69,9.37z M8.69,9.37"/>
	<path class="st3" d="M8.69,9.31H8.63c-0.01,0-0.01,0-0.01-0.01V9.27c0-0.01,0.01-0.01,0.01-0.01h0.06c0.01,0,0.01,0,0.01,0.01V9.3
		C8.7,9.3,8.7,9.31,8.69,9.31L8.69,9.31z M8.69,9.31"/>
	<path class="st3" d="M8.78,9.43H8.73c-0.01,0-0.01,0-0.01-0.01V9.39c0-0.01,0.01-0.01,0.01-0.01h0.05c0.01,0,0.01,0,0.01,0.01v0.03
		C8.79,9.43,8.79,9.43,8.78,9.43L8.78,9.43z M8.78,9.43"/>
	<path class="st3" d="M8.78,9.37H8.73c-0.01,0-0.01,0-0.01-0.01V9.34c0-0.01,0.01-0.01,0.01-0.01h0.05c0.01,0,0.01,0,0.01,0.01v0.02
		C8.79,9.37,8.79,9.37,8.78,9.37L8.78,9.37z M8.78,9.37"/>
	<path class="st3" d="M8.78,9.31H8.73c-0.01,0-0.01,0-0.01-0.01V9.29c0-0.01,0.01-0.01,0.01-0.01h0.05c0.01,0,0.01,0,0.01,0.01V9.3
		C8.79,9.31,8.79,9.31,8.78,9.31L8.78,9.31z M8.78,9.31"/>
	<path class="st3" d="M8.59,9.43H8.54c-0.01,0-0.01,0-0.01-0.01V9.39c0-0.01,0.01-0.01,0.01-0.01h0.05c0.01,0,0.01,0,0.01,0.01v0.03
		C8.6,9.43,8.6,9.43,8.59,9.43L8.59,9.43z M8.59,9.43"/>
	<path class="st3" d="M8.59,9.37H8.54c-0.01,0-0.01,0-0.01-0.01V9.34c0-0.01,0.01-0.01,0.01-0.01h0.05c0.01,0,0.01,0,0.01,0.01v0.02
		C8.6,9.37,8.6,9.37,8.59,9.37L8.59,9.37z M8.59,9.37"/>
	<path class="st3" d="M8.59,9.31H8.54c-0.01,0-0.01,0-0.01-0.01V9.29c0-0.01,0.01-0.01,0.01-0.01h0.05c0.01,0,0.01,0,0.01,0.01V9.3
		C8.6,9.31,8.6,9.31,8.59,9.31L8.59,9.31z M8.59,9.31"/>
	<path class="st3" d="M8.57,9.24v0.03l0.05-0.01L8.57,9.24z M8.57,9.24"/>
	<path class="st3" d="M8.76,9.24v0.03L8.8,9.26L8.76,9.24z M8.76,9.24"/>
	<path class="st3" d="M8.66,9.22v0.03l0.05-0.01L8.66,9.22z M8.66,9.22"/>
	<path class="st3" d="M8.3,8.98H8.18c-0.04,0-0.08-0.03-0.08-0.07c0-0.04,0.03-0.07,0.08-0.07H8.3c0.04,0,0.08,0.03,0.08,0.07
		C8.37,8.95,8.34,8.98,8.3,8.98L8.3,8.98z M8.3,8.98"/>
	<path class="st3" d="M9.18,8.98H9.1c-0.04,0-0.08-0.03-0.08-0.07c0-0.04,0.03-0.07,0.08-0.07h0.08c0.04,0,0.08,0.03,0.08,0.07
		C9.25,8.95,9.22,8.98,9.18,8.98L9.18,8.98z M9.18,8.98"/>
	<path class="st3" d="M9.72,9.08H9.65c-0.02,0-0.04-0.02-0.04-0.04V9.04C9.61,9.02,9.63,9,9.65,9h0.07c0.02,0,0.04,0.02,0.04,0.04
		v0.01C9.76,9.07,9.74,9.08,9.72,9.08L9.72,9.08z M9.72,9.08"/>
</g>
</svg>
