<?xml version="1.0" encoding="utf-8"?>
<!-- Generator: Adobe Illustrator 25.0.0, SVG Export Plug-In . SVG Version: 6.00 Build 0)  -->
<svg version="1.1" id="Capa_1" xmlns="http://www.w3.org/2000/svg" xmlns:xlink="http://www.w3.org/1999/xlink" x="0px" y="0px"
	 viewBox="0 0 32 18.62" style="enable-background:new 0 0 32 18.62;" xml:space="preserve">
<style type="text/css">
	.st0{fill:#FF4B55;}
	.st1{fill:#464655;}
	.st2{fill:#73AF00;}
	.st3{fill:#F5F5F5;}
	.st4{fill:#41479B;}
	.st5{fill:#FFF5DC;}
	.st6{fill:#D27D69;}
	.st7{fill:#FFE15A;}
	.st8{fill:#B95546;}
	.st9{fill:#DCBE82;}
	.st10{fill:#D2AA73;}
	.st11{fill:#4173CD;}
	.st12{fill:#82AFFF;}
	.st13{fill:#F09146;}
	.st14{fill:#FFB400;}
	.st15{fill:#965032;}
	.st16{fill:#BE7855;}
	.st17{fill:#FFBE3C;}
	.st18{fill:#EAF3F5;}
	.st19{fill:#8C5A28;}
	.st20{fill:#F0C850;}
	.st21{fill:#FF6E55;}
	.st22{fill:#FFBE5A;}
	.st23{fill:#3CC8FF;}
	.st24{fill:#825546;}
	.st25{fill:#FFD255;}
	.st26{fill:#FFD25A;}
	.st27{fill:#509664;}
	.st28{fill:#F0AA00;}
	.st29{fill:#A561CD;}
	.st30{fill:#B34900;}
	.st31{fill:#64B496;}
	.st32{fill:#FF6B71;}
	.st33{fill:#5F64B9;}
	.st34{fill:#F5F0F0;}
	.st35{fill:#5A4646;}
	.st36{fill:#E6E1CD;}
	.st37{fill:#FFD0AF;}
	.st38{fill:#FFAF94;}
	.st39{fill:#8CB400;}
	.st40{fill:#69C3FF;}
	.st41{fill:#009B64;}
	.st42{fill:#5AA0E6;}
	.st43{fill:#FFC88C;}
	.st44{fill:#E1E1E1;}
	.st45{fill:#966446;}
	.st46{fill:#BE915A;}
	.st47{fill:#B9B9B9;}
	.st48{fill:#F0C727;}
	.st49{fill:#50AF69;}
	.st50{fill:#FFE6E6;}
	.st51{fill:#FFB750;}
	.st52{fill:#FFC455;}
	.st53{fill:#FFCD55;}
	.st54{fill:#9BC800;}
	.st55{fill:#FFE14E;}
	.st56{fill:#FFB14E;}
	.st57{fill:#B46446;}
	.st58{fill:#5FA000;}
	.st59{fill:#F2DD30;}
	.st60{fill:#FFC855;}
	.st61{fill:#A0A0A0;}
	.st62{fill:#69B469;}
	.st63{fill:#F4E08F;}
	.st64{fill:#ECD077;}
	.st65{fill:#FCF0A8;}
	.st66{fill:#FAB446;}
	.st67{fill:#C8414B;}
	.st68{fill:#FF9B46;}
	.st69{fill:#FF9B55;}
	.st70{fill:#82C3D2;}
	.st71{fill:#5AA587;}
	.st72{fill:#CDCDCD;}
	.st73{fill:#B4A08C;}
	.st74{fill:#FFD250;}
	.st75{fill:#00C3A0;}
	.st76{fill:#00AADC;}
	.st77{fill:#732D37;}
	.st78{fill:#AAD264;}
	.st79{fill:#874150;}
	.st80{fill:#783C46;}
	.st81{fill:#FFB478;}
	.st82{fill:#9B4B5A;}
	.st83{fill:#FFCD5A;}
	.st84{fill:#FFAA5A;}
	.st85{fill:#FF875A;}
	.st86{fill:#E6B432;}
	.st87{fill:#C86464;}
	.st88{fill:#FFF5E1;}
	.st89{fill:#963C3C;}
	.st90{fill:#5A8250;}
	.st91{fill:#AFEBFF;}
	.st92{fill:#557DE6;}
	.st93{fill:#D23741;}
	.st94{fill:#64C86E;}
	.st95{fill:#873250;}
	.st96{fill:#41AA5A;}
	.st97{fill:#8CD7FF;}
	.st98{fill:#6EC86E;}
	.st99{fill:#FFF0E1;}
	.st100{fill:#FFC75A;}
	.st101{fill:#FFD350;}
	.st102{fill:#FFBE50;}
	.st103{fill:#A54B50;}
	.st104{fill:#C87878;}
	.st105{fill:#FF1722;}
	.st106{fill:#FFB441;}
	.st107{fill:#5064AA;}
	.st108{fill:#FFA0D2;}
	.st109{fill:#FF7350;}
	.st110{fill:#245DBD;}
	.st111{fill:#D35A10;}
	.st112{fill:#FFA033;}
	.st113{fill:#FF9480;}
	.st114{fill:#FFA0E4;}
	.st115{fill:#696E7D;}
	.st116{fill:#FFFCFF;}
	.st117{fill:#EBEBEB;}
	.st118{fill:#FF4B57;}
	.st119{fill:#D2D2D2;}
	.st120{fill:#F0C814;}
	.st121{fill:#F7B518;}
	.st122{fill:#2C2F38;}
	.st123{fill:#4C8056;}
	.st124{fill:#F0C419;}
	.st125{fill:#C03A2B;}
	.st126{fill:#EA3F3F;}
	.st127{fill:#E4E3E1;}
	.st128{fill:#2472B2;}
</style>
<g>
	<path class="st2" d="M31.42,18.55H0.55c-0.3,0-0.55-0.22-0.55-0.49V0.53c0-0.27,0.25-0.49,0.55-0.49h30.87
		c0.3,0,0.55,0.22,0.55,0.49v17.53C31.97,18.33,31.72,18.55,31.42,18.55L31.42,18.55z M31.42,18.55"/>
	<rect y="7.35" class="st7" width="31.97" height="1.3"/>
	<rect y="8.65" class="st1" width="31.97" height="1.3"/>
	<rect y="9.95" class="st3" width="31.97" height="1.3"/>
	<rect x="13.78" y="0.04" class="st7" width="1.47" height="18.51"/>
	<rect x="15.25" y="0.04" class="st1" width="1.47" height="18.51"/>
	<rect x="16.72" y="0.04" class="st3" width="1.47" height="18.51"/>
	<path class="st0" d="M21.5,9.3c0,2.69-2.47,4.87-5.51,4.87s-5.51-2.18-5.51-4.87c0-2.69,2.47-4.87,5.51-4.87S21.5,6.61,21.5,9.3
		L21.5,9.3z M21.5,9.3"/>
	<path class="st2" d="M15.51,10.14c0,0-0.06,0.4,0.37,0.99h0.85l-0.19-0.72L15.51,10.14z M15.51,10.14"/>
	<path class="st29" d="M15.45,7.47c0,0-1.39,2.01,0.65,3.21l0.21-1.14l0.14-1.47l-0.21-0.63L15.45,7.47z M15.45,7.47"/>
	<path class="st2" d="M15.45,7.47c0,0-0.16,0.23-0.29,0.59c0.18,0.17,0.67,0.37,1.27,0.28l0.02-0.27l-0.21-0.63L15.45,7.47z
		 M15.45,7.47"/>
	<path class="st29" d="M15.19,7.18c0,0,0.02-0.4,0.46-0.4c0.56,0,1.01,0.11,1.73,1.43c0,0-0.64,0.56-1.05-0.21
		c-0.12-0.23-0.16-0.5-0.16-0.5s-0.5,0.15-0.84-0.02L15.19,7.18z M15.19,7.18"/>
	<path class="st7" d="M15.41,7.37l-0.1-0.24c0,0-0.58-0.08-0.33,0.53c0,0,0.02-0.12,0.16-0.11C15.28,7.57,15.43,7.47,15.41,7.37
		L15.41,7.37z M15.41,7.37"/>
	<path class="st2" d="M16.37,9.68c0,0-0.6,0.42-0.27,1.4c0.18,0.52,0.9,1.1,0.9,1.1s0.53-1.23,0.36-1.71
		C17.26,10.18,16.37,9.68,16.37,9.68L16.37,9.68z M16.37,9.68"/>
	<path class="st2" d="M17.52,11.26c0,0-1.56-1.32-1.67-2.35c-0.1-1.04,0.57-0.87,0.7-0.8C16.84,8.27,17.58,8.93,17.52,11.26
		L17.52,11.26z M17.52,11.26"/>
	<path class="st30" d="M17.33,11.56h-2.59c-0.05,0-0.1-0.04-0.1-0.09v-0.17c0-0.05,0.04-0.09,0.1-0.09h2.59
		c0.05,0,0.1,0.04,0.1,0.09v0.17C17.42,11.52,17.38,11.56,17.33,11.56L17.33,11.56z M17.33,11.56"/>
	<path class="st7" d="M16.7,11.24c-0.09,0.03-0.27,0.07-0.23,0.22c0.03,0.11,0.27,0.1,0.23,0.22c-0.03,0.08-0.51,0.09-0.7,0.07
		c-0.11-0.01-0.36-0.07-0.33-0.32c0.03-0.25,0.14-0.29,0.27-0.33c0.13-0.04,0.69-0.03,0.77,0.03C16.75,11.14,16.76,11.21,16.7,11.24
		L16.7,11.24z M16.7,11.24"/>
	<path class="st2" d="M16.04,4.95l0.13,0.33l0.4,0c0.05,0,0.07,0.06,0.03,0.09l-0.32,0.21l0.12,0.33c0.02,0.04-0.04,0.08-0.08,0.05
		l-0.32-0.2l-0.32,0.2c-0.04,0.03-0.1-0.01-0.08-0.05l0.12-0.33l-0.32-0.21c-0.04-0.03-0.02-0.08,0.03-0.09l0.4,0l0.13-0.33
		C15.95,4.9,16.02,4.9,16.04,4.95L16.04,4.95z M16.04,4.95"/>
	<path class="st2" d="M16.04,12.72l0.13,0.33l0.4,0c0.05,0,0.07,0.06,0.03,0.09l-0.32,0.21l0.12,0.33c0.02,0.04-0.04,0.08-0.08,0.05
		l-0.32-0.2l-0.32,0.2c-0.04,0.03-0.1-0.01-0.08-0.05l0.12-0.33l-0.32-0.21c-0.04-0.03-0.02-0.08,0.03-0.09l0.4,0l0.13-0.33
		C15.95,12.67,16.02,12.67,16.04,12.72L16.04,12.72z M16.04,12.72"/>
	<path class="st2" d="M16.04,4.95l0.13,0.33l0.4,0c0.05,0,0.07,0.06,0.03,0.09l-0.32,0.21l0.12,0.33c0.02,0.04-0.04,0.08-0.08,0.05
		l-0.32-0.2l-0.32,0.2c-0.04,0.03-0.1-0.01-0.08-0.05l0.12-0.33l-0.32-0.21c-0.04-0.03-0.02-0.08,0.03-0.09l0.4,0l0.13-0.33
		C15.95,4.9,16.02,4.9,16.04,4.95L16.04,4.95z M16.04,4.95"/>
	<path class="st2" d="M16.04,12.72l0.13,0.33l0.4,0c0.05,0,0.07,0.06,0.03,0.09l-0.32,0.21l0.12,0.33c0.02,0.04-0.04,0.08-0.08,0.05
		l-0.32-0.2l-0.32,0.2c-0.04,0.03-0.1-0.01-0.08-0.05l0.12-0.33l-0.32-0.21c-0.04-0.03-0.02-0.08,0.03-0.09l0.4,0l0.13-0.33
		C15.95,12.67,16.02,12.67,16.04,12.72L16.04,12.72z M16.04,12.72"/>
	<path class="st2" d="M12.97,5.74l0.11,0.34l-0.32,0.2c-0.04,0.03-0.02,0.08,0.03,0.09l0.4,0.01l0.12,0.34
		c0.01,0.04,0.08,0.04,0.1,0l0.14-0.33l0.4,0.01c0.05,0,0.07-0.06,0.03-0.08l-0.31-0.22l0.13-0.33c0.02-0.04-0.04-0.08-0.08-0.05
		l-0.33,0.2l-0.32-0.21C13.01,5.67,12.96,5.7,12.97,5.74L12.97,5.74z M12.97,5.74"/>
	<path class="st2" d="M17.96,12.15l0.11,0.34l-0.32,0.2c-0.04,0.03-0.02,0.08,0.03,0.09l0.4,0.01l0.12,0.34
		c0.01,0.04,0.08,0.04,0.1,0l0.14-0.33l0.4,0.01c0.05,0,0.07-0.06,0.03-0.08l-0.31-0.22l0.13-0.33c0.02-0.04-0.04-0.08-0.08-0.05
		l-0.33,0.2l-0.32-0.21C18,12.07,17.94,12.1,17.96,12.15L17.96,12.15z M17.96,12.15"/>
	<path class="st2" d="M11.11,7.97l0.32,0.21L11.3,8.52c-0.02,0.04,0.04,0.08,0.08,0.05l0.32-0.2l0.32,0.21
		c0.04,0.03,0.1-0.01,0.08-0.05l-0.12-0.34l0.32-0.21c0.04-0.03,0.02-0.08-0.03-0.09l-0.4-0.01l-0.12-0.33
		c-0.02-0.04-0.08-0.04-0.1,0l-0.13,0.33l-0.4,0C11.09,7.89,11.07,7.95,11.11,7.97L11.11,7.97z M11.11,7.97"/>
	<path class="st2" d="M19.44,10.45l0.32,0.21l-0.12,0.33c-0.02,0.04,0.04,0.08,0.08,0.05l0.32-0.2l0.32,0.21
		c0.04,0.03,0.1-0.01,0.08-0.05l-0.12-0.34l0.32-0.21c0.04-0.03,0.02-0.08-0.03-0.09l-0.4-0.01l-0.12-0.33
		c-0.02-0.04-0.08-0.04-0.1,0l-0.13,0.33l-0.4,0C19.42,10.37,19.4,10.42,19.44,10.45L19.44,10.45z M19.44,10.45"/>
	<path class="st2" d="M18.79,5.74l-0.11,0.34L19,6.28c0.04,0.03,0.02,0.08-0.03,0.09l-0.4,0.01l-0.12,0.34
		c-0.02,0.04-0.08,0.04-0.1,0l-0.14-0.33l-0.4,0.01c-0.05,0-0.07-0.06-0.03-0.08l0.31-0.22l-0.13-0.33
		c-0.02-0.04,0.04-0.08,0.08-0.05l0.33,0.2l0.32-0.21C18.75,5.67,18.8,5.7,18.79,5.74L18.79,5.74z M18.79,5.74"/>
	<path class="st2" d="M13.8,12.15l-0.11,0.34l0.32,0.2c0.04,0.03,0.02,0.08-0.03,0.09l-0.4,0.01l-0.12,0.34
		c-0.02,0.04-0.08,0.04-0.1,0l-0.14-0.33l-0.4,0.01c-0.05,0-0.07-0.06-0.03-0.08l0.31-0.22l-0.13-0.33
		c-0.02-0.04,0.04-0.08,0.08-0.05l0.33,0.2l0.32-0.21C13.76,12.07,13.82,12.1,13.8,12.15L13.8,12.15z M13.8,12.15"/>
	<path class="st2" d="M20.65,7.97l-0.32,0.21l0.12,0.33c0.02,0.04-0.04,0.08-0.08,0.05l-0.32-0.2l-0.32,0.21
		c-0.04,0.03-0.1-0.01-0.08-0.05l0.12-0.34l-0.32-0.21C19.4,7.96,19.42,7.9,19.47,7.9l0.4-0.01l0.12-0.33c0.02-0.04,0.08-0.04,0.1,0
		l0.13,0.33l0.4,0C20.67,7.89,20.69,7.95,20.65,7.97L20.65,7.97z M20.65,7.97"/>
	<path class="st2" d="M12.32,10.45L12,10.66l0.12,0.33c0.02,0.04-0.04,0.08-0.08,0.05l-0.32-0.2l-0.32,0.21
		c-0.04,0.03-0.1-0.01-0.08-0.05l0.12-0.34l-0.32-0.21c-0.04-0.03-0.02-0.08,0.03-0.09l0.4-0.01l0.12-0.33
		c0.02-0.04,0.08-0.04,0.1,0l0.13,0.33l0.4,0C12.33,10.37,12.36,10.42,12.32,10.45L12.32,10.45z M12.32,10.45"/>
</g>
</svg>
