<?xml version="1.0" encoding="utf-8"?>
<!-- Generator: Adobe Illustrator 25.0.0, SVG Export Plug-In . SVG Version: 6.00 Build 0)  -->
<svg version="1.1" id="Capa_1" xmlns="http://www.w3.org/2000/svg" xmlns:xlink="http://www.w3.org/1999/xlink" x="0px" y="0px"
	 viewBox="0 0 32 18.62" style="enable-background:new 0 0 32 18.62;" xml:space="preserve">
<style type="text/css">
	.st0{fill:#FF4B55;}
	.st1{fill:#464655;}
	.st2{fill:#73AF00;}
	.st3{fill:#F5F5F5;}
	.st4{fill:#41479B;}
	.st5{fill:#FFF5DC;}
	.st6{fill:#D27D69;}
	.st7{fill:#FFE15A;}
	.st8{fill:#B95546;}
	.st9{fill:#DCBE82;}
	.st10{fill:#D2AA73;}
	.st11{fill:#4173CD;}
	.st12{fill:#82AFFF;}
	.st13{fill:#F09146;}
	.st14{fill:#FFB400;}
	.st15{fill:#965032;}
	.st16{fill:#BE7855;}
	.st17{fill:#FFBE3C;}
	.st18{fill:#EAF3F5;}
	.st19{fill:#8C5A28;}
	.st20{fill:#F0C850;}
	.st21{fill:#FF6E55;}
	.st22{fill:#FFBE5A;}
	.st23{fill:#3CC8FF;}
	.st24{fill:#825546;}
	.st25{fill:#FFD255;}
	.st26{fill:#FFD25A;}
	.st27{fill:#509664;}
	.st28{fill:#F0AA00;}
	.st29{fill:#A561CD;}
	.st30{fill:#B34900;}
	.st31{fill:#64B496;}
	.st32{fill:#FF6B71;}
	.st33{fill:#5F64B9;}
	.st34{fill:#F5F0F0;}
	.st35{fill:#5A4646;}
	.st36{fill:#E6E1CD;}
	.st37{fill:#FFD0AF;}
	.st38{fill:#FFAF94;}
	.st39{fill:#8CB400;}
	.st40{fill:#69C3FF;}
	.st41{fill:#009B64;}
	.st42{fill:#5AA0E6;}
	.st43{fill:#FFC88C;}
	.st44{fill:#E1E1E1;}
	.st45{fill:#966446;}
	.st46{fill:#BE915A;}
	.st47{fill:#B9B9B9;}
	.st48{fill:#F0C727;}
	.st49{fill:#50AF69;}
	.st50{fill:#FFE6E6;}
	.st51{fill:#FFB750;}
	.st52{fill:#FFC455;}
	.st53{fill:#FFCD55;}
	.st54{fill:#9BC800;}
	.st55{fill:#FFE14E;}
	.st56{fill:#FFB14E;}
	.st57{fill:#B46446;}
	.st58{fill:#5FA000;}
	.st59{fill:#F2DD30;}
	.st60{fill:#FFC855;}
	.st61{fill:#A0A0A0;}
	.st62{fill:#69B469;}
	.st63{fill:#F4E08F;}
	.st64{fill:#ECD077;}
	.st65{fill:#FCF0A8;}
	.st66{fill:#FAB446;}
	.st67{fill:#C8414B;}
	.st68{fill:#FF9B46;}
	.st69{fill:#FF9B55;}
	.st70{fill:#82C3D2;}
	.st71{fill:#5AA587;}
	.st72{fill:#CDCDCD;}
	.st73{fill:#B4A08C;}
	.st74{fill:#FFD250;}
	.st75{fill:#00C3A0;}
	.st76{fill:#00AADC;}
	.st77{fill:#732D37;}
	.st78{fill:#AAD264;}
	.st79{fill:#874150;}
	.st80{fill:#783C46;}
	.st81{fill:#FFB478;}
	.st82{fill:#9B4B5A;}
	.st83{fill:#FFCD5A;}
	.st84{fill:#FFAA5A;}
	.st85{fill:#FF875A;}
	.st86{fill:#E6B432;}
	.st87{fill:#C86464;}
	.st88{fill:#FFF5E1;}
	.st89{fill:#963C3C;}
	.st90{fill:#5A8250;}
	.st91{fill:#AFEBFF;}
	.st92{fill:#557DE6;}
	.st93{fill:#D23741;}
	.st94{fill:#64C86E;}
	.st95{fill:#873250;}
	.st96{fill:#41AA5A;}
	.st97{fill:#8CD7FF;}
	.st98{fill:#6EC86E;}
	.st99{fill:#FFF0E1;}
	.st100{fill:#FFC75A;}
	.st101{fill:#FFD350;}
	.st102{fill:#FFBE50;}
	.st103{fill:#A54B50;}
	.st104{fill:#C87878;}
	.st105{fill:#FF1722;}
	.st106{fill:#FFB441;}
	.st107{fill:#5064AA;}
	.st108{fill:#FFA0D2;}
	.st109{fill:#FF7350;}
	.st110{fill:#245DBD;}
	.st111{fill:#D35A10;}
	.st112{fill:#FFA033;}
	.st113{fill:#FF9480;}
	.st114{fill:#FFA0E4;}
	.st115{fill:#696E7D;}
	.st116{fill:#FFFCFF;}
	.st117{fill:#EBEBEB;}
	.st118{fill:#FF4B57;}
	.st119{fill:#D2D2D2;}
	.st120{fill:#F0C814;}
	.st121{fill:#F7B518;}
	.st122{fill:#2C2F38;}
	.st123{fill:#4C8056;}
	.st124{fill:#F0C419;}
	.st125{fill:#C03A2B;}
	.st126{fill:#EA3F3F;}
	.st127{fill:#E4E3E1;}
	.st128{fill:#2472B2;}
</style>
<g>
	<path class="st3" d="M31.42,18.55H0.55c-0.3,0-0.55-0.22-0.55-0.49V0.53c0-0.27,0.25-0.49,0.55-0.49h30.87
		c0.3,0,0.55,0.22,0.55,0.49v17.53C31.97,18.33,31.72,18.55,31.42,18.55L31.42,18.55z M31.42,18.55"/>
	<path class="st4" d="M13.23,7.35H0.55C0.25,7.35,0,7.13,0,6.86V0.53c0-0.27,0.25-0.49,0.55-0.49h12.68c0.3,0,0.55,0.22,0.55,0.49
		v6.33C13.78,7.13,13.53,7.35,13.23,7.35L13.23,7.35z M13.23,7.35"/>
	<path class="st4" d="M31.42,18.55H18.74c-0.3,0-0.55-0.22-0.55-0.49v-6.33c0-0.27,0.25-0.49,0.55-0.49h12.68
		c0.3,0,0.55,0.22,0.55,0.49v6.33C31.97,18.33,31.72,18.55,31.42,18.55L31.42,18.55z M31.42,18.55"/>
	<path class="st0" d="M31.42,7.35H18.74c-0.3,0-0.55-0.22-0.55-0.49V0.53c0-0.27,0.25-0.49,0.55-0.49h12.68
		c0.3,0,0.55,0.22,0.55,0.49v6.33C31.97,7.13,31.72,7.35,31.42,7.35L31.42,7.35z M31.42,7.35"/>
	<path class="st0" d="M13.23,18.55H0.55c-0.3,0-0.55-0.22-0.55-0.49v-6.33c0-0.27,0.25-0.49,0.55-0.49h12.68
		c0.3,0,0.55,0.22,0.55,0.49v6.33C13.78,18.33,13.53,18.55,13.23,18.55L13.23,18.55z M13.23,18.55"/>
	<path class="st31" d="M15.67,10.69c0,0,0.33,0.11,0.29,0.47l0.13,0c0,0-0.08-0.42-0.15-0.47C15.86,10.63,15.67,10.69,15.67,10.69
		L15.67,10.69z M15.67,10.69"/>
	<path class="st31" d="M16,10.63c-0.14,0-0.38,0-0.64-0.06c0.06-0.05,0.14-0.16,0.14-0.34c0-0.29-0.23-0.11-0.23-0.11
		s-0.15,0.11-0.06,0.41c-0.09-0.03-0.17-0.07-0.26-0.12c0.05-0.06,0.15-0.19,0.21-0.4c0,0-0.38-0.07-0.48,0.18
		c-0.06-0.07-0.12-0.15-0.16-0.24c0.1,0,0.23-0.06,0.23-0.38c0,0-0.25,0-0.31,0.19c-0.03-0.08-0.05-0.16-0.06-0.25
		c0.1,0.03,0.35,0.04,0.35-0.44c0,0-0.3,0-0.37,0.24c0-0.06-0.01-0.12,0-0.19c0.15-0.07,0.35-0.22,0.33-0.53
		c0,0-0.14,0.03-0.27,0.12c0.03-0.12,0.01-0.29-0.19-0.43c0,0-0.19,0.29,0.09,0.53c-0.02,0.03-0.04,0.06-0.06,0.1
		c-0.06-0.08-0.16-0.16-0.32-0.21c0,0-0.07,0.39,0.34,0.55c0.01,0.23,0.05,0.43,0.12,0.61c-0.12-0.09-0.21-0.22-0.21-0.22
		c0-0.43-0.4-0.45-0.4-0.45c-0.08,0.5,0.34,0.52,0.34,0.52l0.23,0.22c-0.49-0.07-0.49,0.29-0.49,0.29c0.33,0.07,0.49-0.07,0.49-0.07
		l0.18,0.08c-0.31,0.01-0.42,0.28-0.42,0.28c0.4,0.06,0.68-0.02,0.78-0.06c0.4,0.25,0.89,0.25,1.11,0.25L16,10.63L16,10.63z
		 M16,10.63"/>
	<path class="st31" d="M15.97,10.63c0.14,0,0.38,0,0.64-0.06c-0.06-0.05-0.14-0.16-0.14-0.34c0-0.29,0.23-0.11,0.23-0.11
		s0.15,0.11,0.06,0.41c0.09-0.03,0.17-0.07,0.26-0.12c-0.05-0.06-0.15-0.19-0.21-0.4c0,0,0.38-0.07,0.48,0.18
		c0.06-0.07,0.12-0.15,0.16-0.24c-0.1,0-0.23-0.06-0.23-0.38c0,0,0.25,0,0.31,0.19c0.03-0.08,0.05-0.16,0.06-0.25
		c-0.1,0.03-0.35,0.04-0.35-0.44c0,0,0.3,0,0.38,0.24c0-0.06,0.01-0.12,0-0.19c-0.15-0.07-0.35-0.22-0.33-0.53
		c0,0,0.14,0.03,0.27,0.12c-0.03-0.12-0.01-0.29,0.19-0.43c0,0,0.19,0.29-0.09,0.53c0.02,0.03,0.04,0.06,0.06,0.1
		c0.06-0.08,0.16-0.16,0.32-0.21c0,0,0.07,0.39-0.34,0.55c-0.01,0.23-0.05,0.43-0.12,0.61c0.12-0.09,0.21-0.22,0.21-0.22
		c0-0.43,0.4-0.45,0.4-0.45c0.08,0.5-0.34,0.52-0.34,0.52l-0.23,0.22c0.49-0.07,0.49,0.29,0.49,0.29c-0.33,0.07-0.49-0.07-0.49-0.07
		l-0.18,0.08c0.31,0.01,0.42,0.28,0.42,0.28c-0.4,0.06-0.68-0.02-0.78-0.06c-0.4,0.25-0.89,0.25-1.11,0.25V10.63z M15.97,10.63"/>
	<path class="st4" d="M14.6,7.47c-0.29,0.16-0.54,0.37-0.75,0.62c0.09,0.06,0.18,0.11,0.26,0.17c0.18-0.22,0.4-0.4,0.66-0.54
		L14.6,7.47z M14.6,7.47"/>
	<path class="st32" d="M15.99,9.36h1.15v0.58c0,0.16-0.15,0.29-0.33,0.29h-0.49c-0.13,0-0.25,0.06-0.33,0.15L15.99,9.36z
		 M15.99,9.36"/>
	<path class="st33" d="M16.23,8.71v-0.8h1.23L17.13,8.2v0.8h-0.9V8.71z M16.23,8.71"/>
	<rect x="16.72" y="8.99" class="st3" width="0.41" height="0.36"/>
	<path class="st32" d="M15.99,9.36h-1.15v0.58c0,0.16,0.15,0.29,0.33,0.29h0.49c0.13,0,0.25,0.06,0.33,0.15V9.36z M15.99,9.36"/>
	<path class="st3" d="M15.78,10.24c0.08,0.02,0.15,0.07,0.2,0.13h0c0.05-0.06,0.12-0.1,0.2-0.13v-0.6h-0.41V10.24z M15.78,10.24"/>
	<path class="st33" d="M15.74,8.71v-0.8h-1.23l0.33,0.29v0.8h0.9V8.71z M15.74,8.71"/>
	<rect x="14.84" y="8.99" class="st3" width="0.41" height="0.36"/>
	<path class="st4" d="M15.25,8.27v0.22l0.25,0.14V8.49L15.25,8.27z M15.25,8.27"/>
	<path class="st3" d="M15.49,8.49v0.22l0.33,0.14V8.78L15.49,8.49z M15.49,8.49"/>
	<path class="st4" d="M16.72,8.27v0.22l-0.25,0.14V8.49L16.72,8.27z M16.72,8.27"/>
	<path class="st3" d="M16.48,8.49v0.22l-0.33,0.14V8.78L16.48,8.49z M16.48,8.49"/>
	<path class="st0" d="M16.48,9.86h-0.99c-0.22,0-0.41-0.16-0.41-0.36V8.38l0.91,0.54l0.89-0.54V9.5C16.89,9.7,16.7,9.86,16.48,9.86
		L16.48,9.86z M16.48,9.86"/>
	<path class="st4" d="M15.41,8.56l-0.33-0.22v0.8l0.33,0.14V8.56z M15.41,8.56"/>
	<path class="st4" d="M16.56,8.56l0.33-0.22v0.8l-0.33,0.14V8.56z M16.56,8.56"/>
	<rect x="15.49" y="9.28" class="st4" width="0.98" height="0.36"/>
	<path class="st0" d="M15.49,8.63l0.49,0.22l0.49-0.22v0.65h-0.98V8.63z M15.49,8.63"/>
	<path class="st3" d="M16.35,8.7v0.73c0,0.06-0.06,0.11-0.12,0.11h-0.49c-0.07,0-0.12-0.05-0.12-0.11V8.7l-0.25-0.15v0.87
		c0,0.18,0.17,0.33,0.37,0.33h0.49c0.2,0,0.37-0.15,0.37-0.33V8.55L16.35,8.7z M16.35,8.7"/>
	<path class="st3" d="M16.44,9.21c-0.14,0.01-0.29,0.02-0.45,0.07c-0.16-0.05-0.32-0.06-0.45-0.07c-0.23-0.02-0.37-0.04-0.45-0.16
		v0.21c0.12,0.07,0.27,0.08,0.43,0.09c0.14,0.01,0.29,0.02,0.44,0.07l0.03,0.01l0.03-0.01c0.15-0.05,0.3-0.06,0.44-0.07
		c0.16-0.01,0.31-0.03,0.43-0.09V9.05C16.81,9.17,16.67,9.19,16.44,9.21L16.44,9.21z M16.44,9.21"/>
	<path class="st7" d="M16.15,8.52h-0.12V8.42h-0.08v0.11h-0.12V8.6h0.12v0.33h0.08V8.6h0.12V8.52z M16.15,8.52"/>
	<path class="st1" d="M15.18,8.24l0.04-0.04l0.72,0.64L15.9,8.87L15.18,8.24z M15.18,8.24"/>
	<path class="st7" d="M15.07,8.1l0.09,0.16l0.09-0.08L15.07,8.1z M15.07,8.1"/>
	<path class="st1" d="M15.34,8.13l0.05-0.03l0.6,0.73l-0.05,0.03L15.34,8.13z M15.34,8.13"/>
	<path class="st7" d="M15.25,7.97l0.06,0.17l0.1-0.07L15.25,7.97z M15.25,7.97"/>
	<path class="st1" d="M15.04,8.37l0.04-0.05l0.83,0.52l-0.04,0.05L15.04,8.37z M15.04,8.37"/>
	<path class="st7" d="M14.9,8.26l0.12,0.14l0.07-0.09L14.9,8.26z M14.9,8.26"/>
	<path class="st1" d="M16.07,8.87l-0.05-0.04l0.72-0.64l0.05,0.04L16.07,8.87z M16.07,8.87"/>
	<path class="st7" d="M16.91,8.1l-0.09,0.16l-0.09-0.08L16.91,8.1z M16.91,8.1"/>
	<path class="st1" d="M16.03,8.85l-0.05-0.03l0.6-0.73l0.05,0.03L16.03,8.85z M16.03,8.85"/>
	<path class="st7" d="M16.72,7.97l-0.06,0.17l-0.1-0.07L16.72,7.97z M16.72,7.97"/>
	<path class="st1" d="M16.09,8.89l-0.04-0.05l0.83-0.52l0.04,0.05L16.09,8.89z M16.09,8.89"/>
	<path class="st7" d="M17.07,8.26L16.95,8.4l-0.07-0.09L17.07,8.26z M17.07,8.26"/>
	<path class="st3" d="M15.94,10.2c0,0-0.32-0.3-0.26-0.58c0.05-0.22,0.2-0.47,0.32-0.53c0,0,0.17-0.01,0.12,0.12
		c-0.04,0.13-0.09,0.16-0.08,0.29C16.08,9.72,16.12,9.98,15.94,10.2L15.94,10.2z M15.94,10.2"/>
	<path class="st4" d="M16.04,9.1c-0.02,0-0.04,0-0.04,0c-0.12,0.06-0.27,0.3-0.32,0.53c-0.03,0.13,0.02,0.26,0.09,0.36
		C15.73,9.53,15.88,9.37,16.04,9.1L16.04,9.1z M16.04,9.1"/>
	<path class="st0" d="M16.05,9.51c-0.01-0.13,0.04-0.16,0.08-0.29c0.03-0.09-0.04-0.11-0.09-0.12c0,0-0.11,0.21-0.11,0.36
		c-0.01,0.13,0.03,0.64,0.02,0.74C16.12,9.98,16.08,9.72,16.05,9.51L16.05,9.51z M16.05,9.51"/>
	<path class="st34" d="M15.84,9.21C15.9,9.15,16,9.13,16.09,9.14C16.04,9.02,16,8.9,15.96,8.77c-0.09-0.01-0.18,0.01-0.25,0.07
		C15.75,8.97,15.79,9.09,15.84,9.21L15.84,9.21z M15.84,9.21"/>
	<path class="st3" d="M16.09,9.14c0.07-0.06,0.16-0.08,0.25-0.07c-0.04-0.12-0.09-0.24-0.13-0.37c-0.09-0.01-0.18,0.01-0.25,0.07
		C16,8.9,16.04,9.02,16.09,9.14L16.09,9.14z M16.09,9.14"/>
	<path class="st33" d="M15.61,7.55c-0.44-0.01-0.88,0.09-1.27,0.28c-0.05-0.08-0.11-0.17-0.16-0.25c0.44-0.22,0.94-0.33,1.44-0.32
		C15.62,7.36,15.61,7.46,15.61,7.55L15.61,7.55z M15.61,7.55"/>
	<path class="st4" d="M17.37,7.47c0.29,0.16,0.54,0.37,0.75,0.62c-0.09,0.06-0.18,0.11-0.26,0.17c-0.18-0.22-0.4-0.4-0.66-0.54
		L17.37,7.47z M17.37,7.47"/>
	<path class="st33" d="M16.36,7.55c0.44-0.01,0.88,0.09,1.27,0.28c0.05-0.08,0.11-0.17,0.16-0.25c-0.44-0.22-0.94-0.33-1.44-0.32
		C16.35,7.36,16.36,7.46,16.36,7.55L16.36,7.55z M16.36,7.55"/>
	<path class="st4" d="M16.64,7.47c-0.43-0.1-0.88-0.1-1.31,0c-0.03-0.09-0.06-0.19-0.09-0.28c0.49-0.12,1-0.12,1.48,0
		C16.7,7.29,16.67,7.38,16.64,7.47L16.64,7.47z M16.64,7.47"/>
	<path class="st32" d="M14.89,10.72c-0.35,0.08-0.7,0.19-1.03,0.33c0.05,0.09,0.09,0.17,0.14,0.26c0.32-0.13,0.65-0.24,1-0.32
		L14.89,10.72z M14.89,10.72"/>
	<path class="st32" d="M17.08,10.72c0.35,0.08,0.7,0.19,1.03,0.33c-0.05,0.09-0.09,0.17-0.14,0.26c-0.32-0.13-0.65-0.24-1-0.32
		L17.08,10.72z M17.08,10.72"/>
	<path class="st0" d="M17.3,10.94c-0.86-0.18-1.76-0.18-2.62,0c-0.03-0.09-0.05-0.19-0.08-0.28c0.91-0.19,1.86-0.19,2.77,0
		C17.35,10.76,17.33,10.85,17.3,10.94L17.3,10.94z M17.3,10.94"/>
	<path class="st0" d="M15.99,11.02l-0.23,0.05c-0.05,0.01-0.1-0.02-0.1-0.07v-0.1c0-0.05,0.05-0.08,0.1-0.07l0.23,0.05V11.02z
		 M15.99,11.02"/>
	<path class="st0" d="M15.99,10.88l0.23-0.05c0.05-0.01,0.1,0.02,0.1,0.07V11c0,0.05-0.05,0.08-0.1,0.07l-0.23-0.05V10.88z
		 M15.99,10.88"/>
	<path class="st32" d="M16,11.02h-0.04c-0.04,0-0.06-0.03-0.06-0.06v-0.03c0-0.03,0.03-0.06,0.06-0.06H16
		c0.04,0,0.06,0.03,0.06,0.06v0.03C16.07,11,16.04,11.02,16,11.02L16,11.02z M16,11.02"/>
</g>
</svg>
