<?xml version="1.0" encoding="utf-8"?>
<!-- Generator: Adobe Illustrator 25.0.0, SVG Export Plug-In . SVG Version: 6.00 Build 0)  -->
<svg version="1.1" id="Capa_1" xmlns="http://www.w3.org/2000/svg" xmlns:xlink="http://www.w3.org/1999/xlink" x="0px" y="0px"
	 viewBox="0 0 32 18.62" style="enable-background:new 0 0 32 18.62;" xml:space="preserve">
<style type="text/css">
	.st0{fill:#FF4B55;}
	.st1{fill:#464655;}
	.st2{fill:#73AF00;}
	.st3{fill:#F5F5F5;}
	.st4{fill:#41479B;}
	.st5{fill:#FFF5DC;}
	.st6{fill:#D27D69;}
	.st7{fill:#FFE15A;}
	.st8{fill:#B95546;}
	.st9{fill:#DCBE82;}
	.st10{fill:#D2AA73;}
	.st11{fill:#4173CD;}
	.st12{fill:#82AFFF;}
	.st13{fill:#F09146;}
	.st14{fill:#FFB400;}
	.st15{fill:#965032;}
	.st16{fill:#BE7855;}
	.st17{fill:#FFBE3C;}
	.st18{fill:#EAF3F5;}
	.st19{fill:#8C5A28;}
	.st20{fill:#F0C850;}
	.st21{fill:#FF6E55;}
	.st22{fill:#FFBE5A;}
	.st23{fill:#3CC8FF;}
	.st24{fill:#825546;}
	.st25{fill:#FFD255;}
	.st26{fill:#FFD25A;}
	.st27{fill:#509664;}
	.st28{fill:#F0AA00;}
	.st29{fill:#A561CD;}
	.st30{fill:#B34900;}
	.st31{fill:#64B496;}
	.st32{fill:#FF6B71;}
	.st33{fill:#5F64B9;}
	.st34{fill:#F5F0F0;}
	.st35{fill:#5A4646;}
	.st36{fill:#E6E1CD;}
	.st37{fill:#FFD0AF;}
	.st38{fill:#FFAF94;}
	.st39{fill:#8CB400;}
	.st40{fill:#69C3FF;}
	.st41{fill:#009B64;}
	.st42{fill:#5AA0E6;}
	.st43{fill:#FFC88C;}
	.st44{fill:#E1E1E1;}
	.st45{fill:#966446;}
	.st46{fill:#BE915A;}
	.st47{fill:#B9B9B9;}
	.st48{fill:#F0C727;}
	.st49{fill:#50AF69;}
	.st50{fill:#FFE6E6;}
	.st51{fill:#FFB750;}
	.st52{fill:#FFC455;}
	.st53{fill:#FFCD55;}
	.st54{fill:#9BC800;}
	.st55{fill:#FFE14E;}
	.st56{fill:#FFB14E;}
	.st57{fill:#B46446;}
	.st58{fill:#5FA000;}
	.st59{fill:#F2DD30;}
	.st60{fill:#FFC855;}
	.st61{fill:#A0A0A0;}
	.st62{fill:#69B469;}
	.st63{fill:#F4E08F;}
	.st64{fill:#ECD077;}
	.st65{fill:#FCF0A8;}
	.st66{fill:#FAB446;}
	.st67{fill:#C8414B;}
	.st68{fill:#FF9B46;}
	.st69{fill:#FF9B55;}
	.st70{fill:#82C3D2;}
	.st71{fill:#5AA587;}
	.st72{fill:#CDCDCD;}
	.st73{fill:#B4A08C;}
	.st74{fill:#FFD250;}
	.st75{fill:#00C3A0;}
	.st76{fill:#00AADC;}
	.st77{fill:#732D37;}
	.st78{fill:#AAD264;}
	.st79{fill:#874150;}
	.st80{fill:#783C46;}
	.st81{fill:#FFB478;}
	.st82{fill:#9B4B5A;}
	.st83{fill:#FFCD5A;}
	.st84{fill:#FFAA5A;}
	.st85{fill:#FF875A;}
	.st86{fill:#E6B432;}
	.st87{fill:#C86464;}
	.st88{fill:#FFF5E1;}
	.st89{fill:#963C3C;}
	.st90{fill:#5A8250;}
	.st91{fill:#AFEBFF;}
	.st92{fill:#557DE6;}
	.st93{fill:#D23741;}
	.st94{fill:#64C86E;}
	.st95{fill:#873250;}
	.st96{fill:#41AA5A;}
	.st97{fill:#8CD7FF;}
	.st98{fill:#6EC86E;}
	.st99{fill:#FFF0E1;}
	.st100{fill:#FFC75A;}
	.st101{fill:#FFD350;}
	.st102{fill:#FFBE50;}
	.st103{fill:#A54B50;}
	.st104{fill:#C87878;}
	.st105{fill:#FF1722;}
	.st106{fill:#FFB441;}
	.st107{fill:#5064AA;}
	.st108{fill:#FFA0D2;}
	.st109{fill:#FF7350;}
	.st110{fill:#245DBD;}
	.st111{fill:#D35A10;}
	.st112{fill:#FFA033;}
	.st113{fill:#FF9480;}
	.st114{fill:#FFA0E4;}
	.st115{fill:#696E7D;}
	.st116{fill:#FFFCFF;}
	.st117{fill:#EBEBEB;}
	.st118{fill:#FF4B57;}
	.st119{fill:#D2D2D2;}
	.st120{fill:#F0C814;}
	.st121{fill:#F7B518;}
	.st122{fill:#2C2F38;}
	.st123{fill:#4C8056;}
	.st124{fill:#F0C419;}
	.st125{fill:#C03A2B;}
	.st126{fill:#EA3F3F;}
	.st127{fill:#E4E3E1;}
	.st128{fill:#2472B2;}
</style>
<g>
	<path class="st0" d="M31.97,13.92H0v4.14c0,0.27,0.25,0.49,0.55,0.49h30.87c0.3,0,0.55-0.22,0.55-0.49V13.92z M31.97,13.92"/>
	<path class="st7" d="M31.97,9.3H0V0.53c0-0.27,0.25-0.49,0.55-0.49h30.87c0.3,0,0.55,0.22,0.55,0.49V9.3z M31.97,9.3"/>
	<rect y="9.3" class="st4" width="31.97" height="4.63"/>
	<path class="st7" d="M15.41,9.57l4.03-3.05v4.41c0,0.74-0.68,1.35-1.52,1.35c-0.38,0-0.74-0.12-1.02-0.35l-1.48-1.18V9.57z
		 M15.41,9.57"/>
	<path class="st0" d="M17.53,11.31l-1.17-0.93V8.85l2.11-1.6v3.69c0,0.28-0.25,0.5-0.57,0.5C17.77,11.43,17.64,11.39,17.53,11.31
		L17.53,11.31z M17.53,11.31"/>
	<path class="st4" d="M16.94,8.41v1.74l0.96,0.76V7.68l0.58-0.44v3.69c0,0.28-0.25,0.5-0.57,0.5c-0.14,0-0.27-0.05-0.38-0.13
		l-1.17-0.93V8.85L16.94,8.41z M16.94,8.41"/>
	<path class="st7" d="M16.56,9.57l-4.03-3.05v4.41c0,0.74,0.68,1.35,1.52,1.35c0.38,0,0.74-0.12,1.02-0.35l1.48-1.18V9.57z
		 M16.56,9.57"/>
	<path class="st0" d="M14.44,11.31l1.16-0.93V8.85l-2.11-1.6v3.69c0,0.28,0.25,0.5,0.57,0.5C14.2,11.43,14.33,11.39,14.44,11.31
		L14.44,11.31z M14.44,11.31"/>
	<path class="st4" d="M15.03,8.41v1.74l-0.96,0.76V7.68l-0.58-0.44v3.69c0,0.28,0.25,0.5,0.57,0.5c0.14,0,0.27-0.05,0.38-0.13
		l1.16-0.93V8.85L15.03,8.41z M15.03,8.41"/>
	<rect x="19.3" y="6.54" class="st4" width="0.28" height="1.46"/>
	<rect x="12.39" y="6.54" class="st4" width="0.28" height="1.46"/>
	<path class="st35" d="M15.41,5.84c0,0,0.38-1.61-0.96-1.4C13.11,4.66,13.11,5,11.58,5.67c0,0,1.73,0.34,2.49,0.17
		c0,0,0.58,0.68,1.15,0.85h0.58L15.41,5.84z M15.41,5.84"/>
	<path class="st35" d="M16.56,5.84c0,0-0.38-1.61,0.96-1.4c1.34,0.21,1.34,0.55,2.88,1.23c0,0-1.73,0.34-2.49,0.17
		c0,0-0.57,0.68-1.15,0.85h-0.57L16.56,5.84z M16.56,5.84"/>
	<path class="st35" d="M16.56,6.69h-1.15V5.84c0-0.28,0.25-0.5,0.57-0.5h0.01c0.31,0,0.57,0.22,0.57,0.5V6.69z M16.56,6.69"/>
	<path class="st36" d="M16.37,5.84c0,0.19-0.17,0.34-0.38,0.34c-0.21,0-0.38-0.15-0.38-0.34c0-0.19,0.17-0.34,0.38-0.34
		C16.2,5.51,16.37,5.66,16.37,5.84L16.37,5.84z M16.37,5.84"/>
	<path class="st37" d="M15.16,5.63l0.72,0.34c0.06,0.03,0.14,0.02,0.18-0.02c0.06-0.05,0.06-0.14,0-0.19L15.6,5.34h-0.11
		C15.31,5.34,15.16,5.47,15.16,5.63L15.16,5.63z M15.16,5.63"/>
	<path class="st38" d="M15.41,5.67h-0.58l0.25-0.26c0.05-0.05,0.12-0.08,0.19-0.08h0.32v0.17C15.6,5.6,15.52,5.67,15.41,5.67
		L15.41,5.67z M15.41,5.67"/>
	<path class="st39" d="M17.62,6.69c-0.13-0.14-0.16-0.32-0.09-0.47c0.18-0.03,0.38,0.03,0.51,0.16c0.11,0.12,0.14,0.26,0.11,0.4
		c0.04,0.06,0.09,0.13,0.14,0.22c0-0.01,0-0.02,0.01-0.04c0.05-0.14,0.17-0.24,0.32-0.27c0.11,0.1,0.16,0.24,0.11,0.38
		c-0.04,0.12-0.14,0.21-0.26,0.25c0.05,0.1,0.1,0.2,0.14,0.31c0-0.01,0-0.01,0.01-0.02c0.06-0.14,0.2-0.22,0.35-0.24
		c0.09,0.11,0.12,0.25,0.06,0.39c-0.05,0.12-0.17,0.2-0.3,0.23c0.07,0.23,0.11,0.48,0.11,0.73h-0.19c0-0.22-0.04-0.43-0.09-0.64
		c-0.12,0.03-0.25,0.03-0.36-0.04c-0.14-0.08-0.21-0.21-0.21-0.34c0.13-0.06,0.3-0.07,0.44,0.01c0,0,0.01,0.01,0.01,0.01
		c-0.04-0.1-0.09-0.2-0.13-0.3c-0.11,0.05-0.25,0.06-0.37,0c-0.15-0.06-0.24-0.19-0.25-0.32c0.13-0.08,0.29-0.1,0.44-0.03
		c-0.05-0.09-0.1-0.16-0.14-0.22C17.84,6.84,17.71,6.79,17.62,6.69L17.62,6.69z M17.62,6.69"/>
	<path class="st39" d="M14.35,6.69c0.13-0.14,0.16-0.32,0.09-0.47c-0.18-0.03-0.38,0.03-0.51,0.16c-0.11,0.12-0.14,0.26-0.11,0.4
		C13.78,6.84,13.74,6.91,13.69,7c0-0.01,0-0.02-0.01-0.04c-0.05-0.14-0.17-0.24-0.32-0.27c-0.11,0.1-0.15,0.24-0.11,0.38
		c0.04,0.12,0.14,0.21,0.26,0.25c-0.05,0.1-0.1,0.2-0.14,0.31c0-0.01,0-0.01-0.01-0.02c-0.06-0.14-0.2-0.22-0.35-0.24
		c-0.09,0.11-0.12,0.25-0.06,0.39C13,7.89,13.12,7.97,13.25,8c-0.07,0.23-0.11,0.48-0.11,0.73h0.19c0-0.22,0.04-0.43,0.09-0.64
		c0.12,0.03,0.25,0.03,0.36-0.04C13.93,7.97,14,7.84,14,7.71c-0.13-0.06-0.3-0.07-0.44,0.01c-0.01,0-0.01,0.01-0.01,0.01
		c0.04-0.1,0.08-0.2,0.13-0.3c0.11,0.05,0.25,0.06,0.37,0c0.15-0.06,0.24-0.19,0.25-0.32c-0.12-0.08-0.29-0.1-0.44-0.03
		c0.05-0.09,0.1-0.16,0.14-0.22C14.13,6.84,14.26,6.79,14.35,6.69L14.35,6.69z M14.35,6.69"/>
	<path class="st7" d="M15.98,10.42l-4.03-3.05v4.41c0,0.74,0.68,1.35,1.52,1.35c0.38,0,0.74-0.12,1.02-0.35l1.48-1.18V10.42z
		 M15.98,10.42"/>
	<path class="st0" d="M13.86,12.15l1.17-0.93V9.69l-2.11-1.6v3.69c0,0.28,0.25,0.5,0.57,0.5C13.62,12.28,13.76,12.24,13.86,12.15
		L13.86,12.15z M13.86,12.15"/>
	<path class="st4" d="M14.45,9.26V11l-0.96,0.76V8.53L12.92,8.1v3.69c0,0.28,0.25,0.5,0.57,0.5c0.14,0,0.27-0.05,0.38-0.13
		l1.17-0.93V9.69L14.45,9.26z M14.45,9.26"/>
	<path class="st7" d="M15.98,10.42l4.03-3.05v4.41c0,0.74-0.68,1.35-1.52,1.35c-0.38,0-0.74-0.12-1.02-0.35l-1.48-1.18V10.42z
		 M15.98,10.42"/>
	<path class="st0" d="M18.11,12.15l-1.17-0.93V9.69l2.11-1.6v3.69c0,0.28-0.25,0.5-0.57,0.5C18.35,12.28,18.21,12.24,18.11,12.15
		L18.11,12.15z M18.11,12.15"/>
	<path class="st4" d="M17.52,9.26V11l0.96,0.76V8.53l0.58-0.44v3.69c0,0.28-0.25,0.5-0.57,0.5c-0.14,0-0.27-0.05-0.38-0.13
		l-1.17-0.93V9.69L17.52,9.26z M17.52,9.26"/>
	<path class="st40" d="M17.9,9.23c0,1.4-0.86,2.54-1.92,2.54c-1.06,0-1.92-1.14-1.92-2.54c0-1.4,0.86-2.54,1.92-2.54
		C17.04,6.69,17.9,7.83,17.9,9.23L17.9,9.23z M17.9,9.23"/>
	<path class="st41" d="M14.26,9.91h3.45l0.19-0.68l-0.87,0.13c-0.17,0.03-0.35-0.02-0.49-0.12l-0.99-0.75
		c-0.09-0.07-0.2-0.1-0.32-0.1c-0.13,0-0.25,0.05-0.35,0.13l-0.62,0.55V9.91z M14.26,9.91"/>
	<path class="st3" d="M15.8,9.12l0.33-0.19l-0.59-0.44c-0.09-0.07-0.2-0.1-0.32-0.1c-0.13,0-0.25,0.05-0.35,0.13l-0.62,0.55v0.17
		l0.96-0.17l0.17,0.07C15.52,9.2,15.68,9.19,15.8,9.12L15.8,9.12z M15.8,9.12"/>
	<path class="st42" d="M14.26,9.91l0.19,1.02l0.96,0.85h0.58l0.77-0.17l0.77-0.68l0.19-1.02H14.26z M14.26,9.91"/>
	<path class="st43" d="M15.98,11.94c-1.16,0-2.11-1.22-2.11-2.71s0.95-2.71,2.11-2.71c1.16,0,2.11,1.22,2.11,2.71
		S17.15,11.94,15.98,11.94L15.98,11.94z M15.98,6.86c-0.95,0-1.73,1.06-1.73,2.37c0,1.31,0.77,2.37,1.73,2.37
		c0.95,0,1.73-1.06,1.73-2.37C17.71,7.92,16.94,6.86,15.98,6.86L15.98,6.86z M15.98,6.86"/>
	<path class="st44" d="M14.63,11.76c-0.16-0.2-0.4-0.32-0.67-0.32c-0.27,0-0.51,0.13-0.67,0.32c0.27,0.07,0.5,0.26,0.6,0.52
		c0.04,0.1,0.07,0.22,0.07,0.34C13.96,12.2,14.25,11.85,14.63,11.76L14.63,11.76z M14.63,11.76"/>
	<path class="st44" d="M14.11,12.29c0,0-0.01,0.23-0.15,0.33l-0.01,0c-0.13-0.11-0.15-0.33-0.15-0.33L14.11,12.29z M14.11,12.29"/>
	<path class="st45" d="M18.38,12.37h-4.8c-0.05,0-0.09-0.04-0.09-0.08v0c0-0.05,0.04-0.08,0.09-0.08h4.8c0.05,0,0.09,0.04,0.09,0.08
		v0C18.48,12.33,18.43,12.37,18.38,12.37L18.38,12.37z M18.38,12.37"/>
	<path class="st46" d="M16.95,12.62h-1.93c-0.21,0-0.38-0.15-0.38-0.33v-0.01c0-0.18,0.17-0.33,0.38-0.33h1.93
		c0.21,0,0.38,0.15,0.38,0.33v0.01C17.33,12.47,17.16,12.62,16.95,12.62L16.95,12.62z M16.95,12.62"/>
	<path class="st47" d="M14.26,12.2h-0.67c-0.05,0-0.1,0.04-0.1,0.08c0,0.05,0.04,0.08,0.1,0.08h0.67V12.2z M14.26,12.2"/>
	<path class="st0" d="M15.98,12.62v1.55l-0.77-0.19l0.38-1.36H15.98z M15.98,12.62"/>
	<path class="st4" d="M15.79,12.62l-0.38,1.19l-0.77-0.17l0.58-1.02H15.79z M15.79,12.62"/>
	<path class="st7" d="M15.03,12.62l-0.58,0.68l0.58,0.17l0.38-0.85H15.03z M15.03,12.62"/>
	<path class="st0" d="M15.98,12.62v1.55l0.77-0.19l-0.38-1.36H15.98z M15.98,12.62"/>
	<path class="st4" d="M16.18,12.62l0.38,1.19l0.77-0.17l-0.58-1.02H16.18z M16.18,12.62"/>
	<path class="st7" d="M16.94,12.62l0.58,0.68l-0.58,0.17l-0.38-0.85H16.94z M16.94,12.62"/>
	<path class="st4" d="M12.1,8.83l-0.28-0.25V7.37h0.28V8.83z M12.1,8.83"/>
	<path class="st4" d="M20.15,8.58l-0.28,0.25V7.37h0.28V8.58z M20.15,8.58"/>
</g>
</svg>
