<?xml version="1.0" encoding="utf-8"?>
<!-- Generator: Adobe Illustrator 25.0.0, SVG Export Plug-In . SVG Version: 6.00 Build 0)  -->
<svg version="1.1" id="Capa_1" xmlns="http://www.w3.org/2000/svg" xmlns:xlink="http://www.w3.org/1999/xlink" x="0px" y="0px"
	 viewBox="0 0 32 18.62" style="enable-background:new 0 0 32 18.62;" xml:space="preserve">
<style type="text/css">
	.st0{fill:#FF4B55;}
	.st1{fill:#464655;}
	.st2{fill:#73AF00;}
	.st3{fill:#F5F5F5;}
	.st4{fill:#41479B;}
	.st5{fill:#FFF5DC;}
	.st6{fill:#D27D69;}
	.st7{fill:#FFE15A;}
	.st8{fill:#B95546;}
	.st9{fill:#DCBE82;}
	.st10{fill:#D2AA73;}
	.st11{fill:#4173CD;}
	.st12{fill:#82AFFF;}
	.st13{fill:#F09146;}
	.st14{fill:#FFB400;}
	.st15{fill:#965032;}
	.st16{fill:#BE7855;}
	.st17{fill:#FFBE3C;}
	.st18{fill:#EAF3F5;}
	.st19{fill:#8C5A28;}
	.st20{fill:#F0C850;}
	.st21{fill:#FF6E55;}
	.st22{fill:#FFBE5A;}
	.st23{fill:#3CC8FF;}
	.st24{fill:#825546;}
	.st25{fill:#FFD255;}
	.st26{fill:#FFD25A;}
	.st27{fill:#509664;}
	.st28{fill:#F0AA00;}
	.st29{fill:#A561CD;}
	.st30{fill:#B34900;}
	.st31{fill:#64B496;}
	.st32{fill:#FF6B71;}
	.st33{fill:#5F64B9;}
	.st34{fill:#F5F0F0;}
	.st35{fill:#5A4646;}
	.st36{fill:#E6E1CD;}
	.st37{fill:#FFD0AF;}
	.st38{fill:#FFAF94;}
	.st39{fill:#8CB400;}
	.st40{fill:#69C3FF;}
	.st41{fill:#009B64;}
	.st42{fill:#5AA0E6;}
	.st43{fill:#FFC88C;}
	.st44{fill:#E1E1E1;}
	.st45{fill:#966446;}
	.st46{fill:#BE915A;}
	.st47{fill:#B9B9B9;}
	.st48{fill:#F0C727;}
	.st49{fill:#50AF69;}
	.st50{fill:#FFE6E6;}
	.st51{fill:#FFB750;}
	.st52{fill:#FFC455;}
	.st53{fill:#FFCD55;}
	.st54{fill:#9BC800;}
	.st55{fill:#FFE14E;}
	.st56{fill:#FFB14E;}
	.st57{fill:#B46446;}
	.st58{fill:#5FA000;}
	.st59{fill:#F2DD30;}
	.st60{fill:#FFC855;}
	.st61{fill:#A0A0A0;}
	.st62{fill:#69B469;}
	.st63{fill:#F4E08F;}
	.st64{fill:#ECD077;}
	.st65{fill:#FCF0A8;}
	.st66{fill:#FAB446;}
	.st67{fill:#C8414B;}
	.st68{fill:#FF9B46;}
	.st69{fill:#FF9B55;}
	.st70{fill:#82C3D2;}
	.st71{fill:#5AA587;}
	.st72{fill:#CDCDCD;}
	.st73{fill:#B4A08C;}
	.st74{fill:#FFD250;}
	.st75{fill:#00C3A0;}
	.st76{fill:#00AADC;}
	.st77{fill:#732D37;}
	.st78{fill:#AAD264;}
	.st79{fill:#874150;}
	.st80{fill:#783C46;}
	.st81{fill:#FFB478;}
	.st82{fill:#9B4B5A;}
	.st83{fill:#FFCD5A;}
	.st84{fill:#FFAA5A;}
	.st85{fill:#FF875A;}
	.st86{fill:#E6B432;}
	.st87{fill:#C86464;}
	.st88{fill:#FFF5E1;}
	.st89{fill:#963C3C;}
	.st90{fill:#5A8250;}
	.st91{fill:#AFEBFF;}
	.st92{fill:#557DE6;}
	.st93{fill:#D23741;}
	.st94{fill:#64C86E;}
	.st95{fill:#873250;}
	.st96{fill:#41AA5A;}
	.st97{fill:#8CD7FF;}
	.st98{fill:#6EC86E;}
	.st99{fill:#FFF0E1;}
	.st100{fill:#FFC75A;}
	.st101{fill:#FFD350;}
	.st102{fill:#FFBE50;}
	.st103{fill:#A54B50;}
	.st104{fill:#C87878;}
	.st105{fill:#FF1722;}
	.st106{fill:#FFB441;}
	.st107{fill:#5064AA;}
	.st108{fill:#FFA0D2;}
	.st109{fill:#FF7350;}
	.st110{fill:#245DBD;}
	.st111{fill:#D35A10;}
	.st112{fill:#FFA033;}
	.st113{fill:#FF9480;}
	.st114{fill:#FFA0E4;}
	.st115{fill:#696E7D;}
	.st116{fill:#FFFCFF;}
	.st117{fill:#EBEBEB;}
	.st118{fill:#FF4B57;}
	.st119{fill:#D2D2D2;}
	.st120{fill:#F0C814;}
	.st121{fill:#F7B518;}
	.st122{fill:#2C2F38;}
	.st123{fill:#4C8056;}
	.st124{fill:#F0C419;}
	.st125{fill:#C03A2B;}
	.st126{fill:#EA3F3F;}
	.st127{fill:#E4E3E1;}
	.st128{fill:#2472B2;}
</style>
<g>
	<path class="st67" d="M0.55,18.55h30.87c0.3,0,0.55-0.22,0.55-0.49V0.53c0-0.27-0.25-0.49-0.55-0.49H0.55C0.25,0.04,0,0.26,0,0.53
		v17.53C0,18.33,0.25,18.55,0.55,18.55L0.55,18.55z M0.55,18.55"/>
	<rect y="3.94" class="st74" width="31.97" height="10.71"/>
	<path class="st67" d="M13.5,9.3l0.47-1.86c0.04-0.17-0.1-0.33-0.3-0.33h-0.33c-0.2,0-0.35,0.16-0.3,0.33L13.5,9.3z M13.5,9.3"/>
	<rect x="12.95" y="8.32" class="st3" width="1.1" height="4.14"/>
	<rect x="12.68" y="7.84" class="st66" width="1.65" height="0.49"/>
	<rect x="11.58" y="9.3" class="st67" width="2.76" height="0.49"/>
	<path class="st67" d="M14.33,11.25l-1.65-0.49v-0.49l1.65,0.49V11.25z M14.33,11.25"/>
	<path class="st67" d="M5.24,9.3L5.7,7.44c0.04-0.17-0.1-0.33-0.3-0.33H5.07c-0.2,0-0.35,0.16-0.3,0.33L5.24,9.3z M5.24,9.3"/>
	<path class="st3" d="M7.17,7.84c-0.3,0-0.55,0.22-0.55,0.49v3.17c0,0.59,0.63,1.7,2.76,1.7c2.13,0,2.76-1.11,2.76-1.7V8.32
		c0-0.27-0.25-0.49-0.55-0.49H7.17z M7.17,7.84"/>
	<path class="st67" d="M9.37,10.27H6.61V8.32c0-0.27,0.25-0.49,0.55-0.49h2.2V10.27z M9.37,10.27"/>
	<path class="st67" d="M9.37,10.27h2.76v1.22c0,0.67-0.62,1.22-1.38,1.22s-1.38-0.54-1.38-1.22V10.27z M9.37,10.27"/>
	<path class="st66" d="M6.61,10.27h2.76v1.22c0,0.67-0.62,1.22-1.38,1.22c-0.76,0-1.38-0.54-1.38-1.22V10.27z M6.61,10.27"/>
	<path class="st67" d="M8.82,12.46v-2.19H8.27v2.41C8.47,12.65,8.66,12.57,8.82,12.46L8.82,12.46z M8.82,12.46"/>
	<path class="st67" d="M7.72,12.68v-2.41H7.17v2.19C7.33,12.57,7.51,12.65,7.72,12.68L7.72,12.68z M7.72,12.68"/>
	<rect x="7.17" y="9.3" class="st106" width="1.65" height="0.49"/>
	<rect x="7.17" y="8.32" class="st66" width="1.65" height="0.49"/>
	<rect x="7.44" y="8.61" class="st66" width="1.1" height="0.88"/>
	<rect x="4.68" y="8.32" class="st3" width="1.1" height="4.14"/>
	<rect x="4.41" y="12.22" class="st66" width="1.65" height="0.49"/>
	<rect x="4.41" y="7.84" class="st66" width="1.65" height="0.49"/>
	<rect x="4.13" y="12.71" class="st107" width="2.2" height="0.49"/>
	<rect x="12.95" y="12.22" class="st66" width="1.65" height="0.49"/>
	<rect x="12.4" y="12.71" class="st107" width="2.2" height="0.49"/>
	<rect x="7.72" y="7.35" class="st66" width="3.31" height="0.49"/>
	<rect x="9.09" y="5.89" class="st106" width="0.55" height="1.46"/>
	<path class="st3" d="M8.82,6.62c-0.46,0-0.83-0.33-0.83-0.73c0-0.4,0.37-0.73,0.83-0.73c0.46,0,0.83,0.33,0.83,0.73
		C9.65,6.29,9.28,6.62,8.82,6.62L8.82,6.62z M8.82,5.65c-0.15,0-0.28,0.11-0.28,0.24c0,0.13,0.12,0.24,0.28,0.24
		c0.15,0,0.28-0.11,0.28-0.24C9.09,5.75,8.97,5.65,8.82,5.65L8.82,5.65z M8.82,5.65"/>
	<path class="st3" d="M9.92,6.62c-0.46,0-0.83-0.33-0.83-0.73c0-0.4,0.37-0.73,0.83-0.73c0.46,0,0.83,0.33,0.83,0.73
		C10.75,6.29,10.38,6.62,9.92,6.62L9.92,6.62z M9.92,5.65c-0.15,0-0.28,0.11-0.28,0.24c0,0.13,0.12,0.24,0.28,0.24
		c0.15,0,0.28-0.11,0.28-0.24C10.2,5.75,10.07,5.65,9.92,5.65L9.92,5.65z M9.92,5.65"/>
	<path class="st3" d="M11.02,7.11c-0.46,0-0.83-0.33-0.83-0.73c0-0.4,0.37-0.73,0.83-0.73s0.83,0.33,0.83,0.73
		C11.85,6.78,11.48,7.11,11.02,7.11L11.02,7.11z M11.02,6.13c-0.15,0-0.28,0.11-0.28,0.24c0,0.13,0.12,0.24,0.28,0.24
		c0.15,0,0.28-0.11,0.28-0.24C11.3,6.24,11.18,6.13,11.02,6.13L11.02,6.13z M11.02,6.13"/>
	<path class="st3" d="M7.72,7.11c-0.46,0-0.83-0.33-0.83-0.73c0-0.4,0.37-0.73,0.83-0.73c0.46,0,0.83,0.33,0.83,0.73
		C8.54,6.78,8.17,7.11,7.72,7.11L7.72,7.11z M7.72,6.13c-0.15,0-0.28,0.11-0.28,0.24c0,0.13,0.12,0.24,0.28,0.24
		c0.15,0,0.28-0.11,0.28-0.24C7.99,6.24,7.87,6.13,7.72,6.13L7.72,6.13z M7.72,6.13"/>
	<path class="st66" d="M11.02,11.25v0.24c0,0.13-0.12,0.24-0.28,0.24c-0.15,0-0.28-0.11-0.28-0.24v-0.24H11.02 M11.58,10.76H9.92
		v0.73c0,0.4,0.37,0.73,0.83,0.73c0.46,0,0.83-0.33,0.83-0.73L11.58,10.76L11.58,10.76z M11.58,10.76"/>
	<path class="st108" d="M10.75,9.79c-0.3,0-0.55-0.22-0.55-0.49V8.81c0-0.27,0.25-0.49,0.55-0.49c0.3,0,0.55,0.22,0.55,0.49V9.3
		C11.3,9.57,11.05,9.79,10.75,9.79L10.75,9.79z M10.75,9.79"/>
	<path class="st107" d="M10.2,10.27c0,0.4-0.37,0.73-0.83,0.73c-0.46,0-0.83-0.33-0.83-0.73c0-0.4,0.37-0.73,0.83-0.73
		C9.83,9.54,10.2,9.87,10.2,10.27L10.2,10.27z M10.2,10.27"/>
	<rect x="9.09" y="4.91" class="st66" width="0.55" height="1.46"/>
	<path class="st67" d="M7.72,7.35L7.17,6.86l0.32-0.29c0.5-0.44,1.18-0.69,1.88-0.69c0.71,0,1.38,0.25,1.88,0.69l0.32,0.29
		l-0.55,0.49H7.72z M7.72,7.35"/>
	<path class="st74" d="M9.65,6.86c0,0.13-0.12,0.24-0.28,0.24C9.22,7.11,9.09,7,9.09,6.86c0-0.13,0.12-0.24,0.28-0.24
		C9.52,6.62,9.65,6.73,9.65,6.86L9.65,6.86z M9.65,6.86"/>
	<path class="st74" d="M8.54,6.86c0,0.13-0.12,0.24-0.28,0.24C8.12,7.11,7.99,7,7.99,6.86c0-0.13,0.12-0.24,0.28-0.24
		C8.42,6.62,8.54,6.73,8.54,6.86L8.54,6.86z M8.54,6.86"/>
	<path class="st74" d="M10.75,6.86c0,0.13-0.12,0.24-0.28,0.24c-0.15,0-0.28-0.11-0.28-0.24c0-0.13,0.12-0.24,0.28-0.24
		C10.62,6.62,10.75,6.73,10.75,6.86L10.75,6.86z M10.75,6.86"/>
	<rect x="4.41" y="9.3" class="st67" width="2.76" height="0.49"/>
	<path class="st67" d="M4.41,11.25l1.65-0.49v-0.49l-1.65,0.49V11.25z M4.41,11.25"/>
</g>
</svg>
