<?xml version="1.0" encoding="utf-8"?>
<!-- Generator: Adobe Illustrator 25.0.0, SVG Export Plug-In . SVG Version: 6.00 Build 0)  -->
<svg version="1.1" id="Capa_1" xmlns="http://www.w3.org/2000/svg" xmlns:xlink="http://www.w3.org/1999/xlink" x="0px" y="0px"
	 viewBox="0 0 32 18.62" style="enable-background:new 0 0 32 18.62;" xml:space="preserve">
<style type="text/css">
	.st0{fill:#FF4B55;}
	.st1{fill:#464655;}
	.st2{fill:#73AF00;}
	.st3{fill:#F5F5F5;}
	.st4{fill:#41479B;}
	.st5{fill:#FFF5DC;}
	.st6{fill:#D27D69;}
	.st7{fill:#FFE15A;}
	.st8{fill:#B95546;}
	.st9{fill:#DCBE82;}
	.st10{fill:#D2AA73;}
	.st11{fill:#4173CD;}
	.st12{fill:#82AFFF;}
	.st13{fill:#F09146;}
	.st14{fill:#FFB400;}
	.st15{fill:#965032;}
	.st16{fill:#BE7855;}
	.st17{fill:#FFBE3C;}
	.st18{fill:#EAF3F5;}
	.st19{fill:#8C5A28;}
	.st20{fill:#F0C850;}
	.st21{fill:#FF6E55;}
	.st22{fill:#FFBE5A;}
	.st23{fill:#3CC8FF;}
	.st24{fill:#825546;}
	.st25{fill:#FFD255;}
	.st26{fill:#FFD25A;}
	.st27{fill:#509664;}
	.st28{fill:#F0AA00;}
	.st29{fill:#A561CD;}
	.st30{fill:#B34900;}
	.st31{fill:#64B496;}
	.st32{fill:#FF6B71;}
	.st33{fill:#5F64B9;}
	.st34{fill:#F5F0F0;}
	.st35{fill:#5A4646;}
	.st36{fill:#E6E1CD;}
	.st37{fill:#FFD0AF;}
	.st38{fill:#FFAF94;}
	.st39{fill:#8CB400;}
	.st40{fill:#69C3FF;}
	.st41{fill:#009B64;}
	.st42{fill:#5AA0E6;}
	.st43{fill:#FFC88C;}
	.st44{fill:#E1E1E1;}
	.st45{fill:#966446;}
	.st46{fill:#BE915A;}
	.st47{fill:#B9B9B9;}
	.st48{fill:#F0C727;}
	.st49{fill:#50AF69;}
	.st50{fill:#FFE6E6;}
	.st51{fill:#FFB750;}
	.st52{fill:#FFC455;}
	.st53{fill:#FFCD55;}
	.st54{fill:#9BC800;}
	.st55{fill:#FFE14E;}
	.st56{fill:#FFB14E;}
	.st57{fill:#B46446;}
	.st58{fill:#5FA000;}
	.st59{fill:#F2DD30;}
	.st60{fill:#FFC855;}
	.st61{fill:#A0A0A0;}
	.st62{fill:#69B469;}
	.st63{fill:#F4E08F;}
	.st64{fill:#ECD077;}
	.st65{fill:#FCF0A8;}
	.st66{fill:#FAB446;}
	.st67{fill:#C8414B;}
	.st68{fill:#FF9B46;}
	.st69{fill:#FF9B55;}
	.st70{fill:#82C3D2;}
	.st71{fill:#5AA587;}
	.st72{fill:#CDCDCD;}
	.st73{fill:#B4A08C;}
	.st74{fill:#FFD250;}
	.st75{fill:#00C3A0;}
	.st76{fill:#00AADC;}
	.st77{fill:#732D37;}
	.st78{fill:#AAD264;}
	.st79{fill:#874150;}
	.st80{fill:#783C46;}
	.st81{fill:#FFB478;}
	.st82{fill:#9B4B5A;}
	.st83{fill:#FFCD5A;}
	.st84{fill:#FFAA5A;}
	.st85{fill:#FF875A;}
	.st86{fill:#E6B432;}
	.st87{fill:#C86464;}
	.st88{fill:#FFF5E1;}
	.st89{fill:#963C3C;}
	.st90{fill:#5A8250;}
	.st91{fill:#AFEBFF;}
	.st92{fill:#557DE6;}
	.st93{fill:#D23741;}
	.st94{fill:#64C86E;}
	.st95{fill:#873250;}
	.st96{fill:#41AA5A;}
	.st97{fill:#8CD7FF;}
	.st98{fill:#6EC86E;}
	.st99{fill:#FFF0E1;}
	.st100{fill:#FFC75A;}
	.st101{fill:#FFD350;}
	.st102{fill:#FFBE50;}
	.st103{fill:#A54B50;}
	.st104{fill:#C87878;}
	.st105{fill:#FF1722;}
	.st106{fill:#FFB441;}
	.st107{fill:#5064AA;}
	.st108{fill:#FFA0D2;}
	.st109{fill:#FF7350;}
	.st110{fill:#245DBD;}
	.st111{fill:#D35A10;}
	.st112{fill:#FFA033;}
	.st113{fill:#FF9480;}
	.st114{fill:#FFA0E4;}
	.st115{fill:#696E7D;}
	.st116{fill:#FFFCFF;}
	.st117{fill:#EBEBEB;}
	.st118{fill:#FF4B57;}
	.st119{fill:#D2D2D2;}
	.st120{fill:#F0C814;}
	.st121{fill:#F7B518;}
	.st122{fill:#2C2F38;}
	.st123{fill:#4C8056;}
	.st124{fill:#F0C419;}
	.st125{fill:#C03A2B;}
	.st126{fill:#EA3F3F;}
	.st127{fill:#E4E3E1;}
	.st128{fill:#2472B2;}
</style>
<g>
	<path class="st0" d="M31.42,18.55H0.55c-0.3,0-0.55-0.22-0.55-0.49V0.53c0-0.27,0.25-0.49,0.55-0.49h30.87
		c0.3,0,0.55,0.22,0.55,0.49v17.53C31.97,18.33,31.72,18.55,31.42,18.55L31.42,18.55z M31.42,18.55"/>
	<rect x="3.31" y="2.97" class="st7" width="25.35" height="12.66"/>
	<path class="st2" d="M3.31,2.97L15.98,9.3L3.31,15.63V2.97z M3.31,2.97"/>
	<path class="st2" d="M28.66,2.97L15.98,9.3l12.68,6.33V2.97z M28.66,2.97"/>
	<path class="st0" d="M18.19,9.3c0,1.08-0.99,1.95-2.2,1.95c-1.22,0-2.2-0.87-2.2-1.95c0-1.08,0.99-1.95,2.2-1.95
		C17.2,7.35,18.19,8.22,18.19,9.3L18.19,9.3z M18.19,9.3"/>
	<path class="st7" d="M16.12,7.87l0.34,0.91l1.09,0.01c0.14,0,0.2,0.16,0.09,0.23L16.77,9.6l0.33,0.92
		c0.04,0.12-0.11,0.22-0.23,0.14l-0.89-0.56l-0.89,0.56c-0.11,0.07-0.27-0.03-0.23-0.14L15.2,9.6l-0.88-0.57
		c-0.11-0.07-0.05-0.23,0.09-0.23l1.09-0.01l0.34-0.91C15.89,7.75,16.08,7.75,16.12,7.87L16.12,7.87z M16.12,7.87"/>
	<path class="st7" d="M16.07,0.69l0.2,0.54l0.64,0c0.08,0,0.12,0.09,0.05,0.14l-0.52,0.34l0.19,0.54c0.02,0.07-0.07,0.13-0.13,0.09
		l-0.52-0.33l-0.52,0.33c-0.07,0.04-0.16-0.02-0.13-0.09l0.19-0.54L15,1.37c-0.07-0.04-0.03-0.14,0.05-0.14l0.64,0l0.2-0.54
		C15.93,0.62,16.04,0.62,16.07,0.69L16.07,0.69z M16.07,0.69"/>
	<path class="st7" d="M23.32,0.69l0.2,0.54l0.64,0c0.08,0,0.12,0.09,0.05,0.14L23.7,1.71l0.19,0.54c0.02,0.07-0.07,0.13-0.13,0.09
		l-0.52-0.33l-0.52,0.33c-0.07,0.04-0.16-0.02-0.13-0.09l0.19-0.54l-0.52-0.34c-0.07-0.04-0.03-0.14,0.05-0.14l0.64,0l0.2-0.54
		C23.18,0.62,23.29,0.62,23.32,0.69L23.32,0.69z M23.32,0.69"/>
	<path class="st7" d="M8.82,0.69l0.2,0.54l0.64,0c0.08,0,0.12,0.09,0.05,0.14L9.2,1.71l0.19,0.54c0.02,0.07-0.07,0.13-0.13,0.09
		L8.73,2.01L8.21,2.34C8.14,2.38,8.05,2.32,8.08,2.25l0.19-0.54L7.75,1.37C7.68,1.33,7.72,1.24,7.8,1.23l0.64,0l0.2-0.54
		C8.68,0.62,8.79,0.62,8.82,0.69L8.82,0.69z M8.82,0.69"/>
	<path class="st7" d="M16.07,16.25l0.2,0.54l0.64,0c0.08,0,0.12,0.09,0.05,0.14l-0.52,0.34l0.19,0.54c0.02,0.07-0.07,0.13-0.13,0.09
		l-0.52-0.33l-0.52,0.33c-0.07,0.04-0.16-0.02-0.13-0.09l0.19-0.54L15,16.93c-0.07-0.04-0.03-0.14,0.05-0.14l0.64,0l0.2-0.54
		C15.93,16.18,16.04,16.18,16.07,16.25L16.07,16.25z M16.07,16.25"/>
	<path class="st7" d="M23.32,16.25l0.2,0.54l0.64,0c0.08,0,0.12,0.09,0.05,0.14l-0.52,0.34l0.19,0.54c0.02,0.07-0.07,0.13-0.13,0.09
		l-0.52-0.33l-0.52,0.33c-0.07,0.04-0.16-0.02-0.13-0.09l0.19-0.54l-0.52-0.34c-0.07-0.04-0.03-0.14,0.05-0.14l0.64,0l0.2-0.54
		C23.18,16.18,23.29,16.18,23.32,16.25L23.32,16.25z M23.32,16.25"/>
	<path class="st7" d="M8.82,16.25l0.2,0.54l0.64,0c0.08,0,0.12,0.09,0.05,0.14L9.2,17.27l0.19,0.54c0.02,0.07-0.07,0.13-0.13,0.09
		l-0.52-0.33L8.21,17.9c-0.07,0.04-0.16-0.02-0.13-0.09l0.19-0.54l-0.52-0.34c-0.07-0.04-0.03-0.14,0.05-0.14l0.64,0l0.2-0.54
		C8.68,16.18,8.79,16.18,8.82,16.25L8.82,16.25z M8.82,16.25"/>
	<path class="st7" d="M7.37,8.08H5.99V9.3c0,0.67,0.62,1.22,1.38,1.22c0.76,0,1.38-0.55,1.38-1.22C8.75,8.63,8.13,8.08,7.37,8.08
		L7.37,8.08z M7.37,8.08"/>
	<path class="st0" d="M8.75,10.52l-0.76-0.13L7.37,9.3L8.6,9.85L8.75,10.52z M8.75,10.52"/>
</g>
</svg>
