<?xml version="1.0" encoding="utf-8"?>
<!-- Generator: Adobe Illustrator 25.0.0, SVG Export Plug-In . SVG Version: 6.00 Build 0)  -->
<svg version="1.1" id="Capa_1" xmlns="http://www.w3.org/2000/svg" xmlns:xlink="http://www.w3.org/1999/xlink" x="0px" y="0px"
	 viewBox="0 0 32 18.62" style="enable-background:new 0 0 32 18.62;" xml:space="preserve">
<style type="text/css">
	.st0{fill:#FF4B55;}
	.st1{fill:#464655;}
	.st2{fill:#73AF00;}
	.st3{fill:#F5F5F5;}
	.st4{fill:#41479B;}
	.st5{fill:#FFF5DC;}
	.st6{fill:#D27D69;}
	.st7{fill:#FFE15A;}
	.st8{fill:#B95546;}
	.st9{fill:#DCBE82;}
	.st10{fill:#D2AA73;}
	.st11{fill:#4173CD;}
	.st12{fill:#82AFFF;}
	.st13{fill:#F09146;}
	.st14{fill:#FFB400;}
	.st15{fill:#965032;}
	.st16{fill:#BE7855;}
	.st17{fill:#FFBE3C;}
	.st18{fill:#EAF3F5;}
	.st19{fill:#8C5A28;}
	.st20{fill:#F0C850;}
	.st21{fill:#FF6E55;}
	.st22{fill:#FFBE5A;}
	.st23{fill:#3CC8FF;}
	.st24{fill:#825546;}
	.st25{fill:#FFD255;}
	.st26{fill:#FFD25A;}
	.st27{fill:#509664;}
	.st28{fill:#F0AA00;}
	.st29{fill:#A561CD;}
	.st30{fill:#B34900;}
	.st31{fill:#64B496;}
	.st32{fill:#FF6B71;}
	.st33{fill:#5F64B9;}
	.st34{fill:#F5F0F0;}
	.st35{fill:#5A4646;}
	.st36{fill:#E6E1CD;}
	.st37{fill:#FFD0AF;}
	.st38{fill:#FFAF94;}
	.st39{fill:#8CB400;}
	.st40{fill:#69C3FF;}
	.st41{fill:#009B64;}
	.st42{fill:#5AA0E6;}
	.st43{fill:#FFC88C;}
	.st44{fill:#E1E1E1;}
	.st45{fill:#966446;}
	.st46{fill:#BE915A;}
	.st47{fill:#B9B9B9;}
	.st48{fill:#F0C727;}
	.st49{fill:#50AF69;}
	.st50{fill:#FFE6E6;}
	.st51{fill:#FFB750;}
	.st52{fill:#FFC455;}
	.st53{fill:#FFCD55;}
	.st54{fill:#9BC800;}
	.st55{fill:#FFE14E;}
	.st56{fill:#FFB14E;}
	.st57{fill:#B46446;}
	.st58{fill:#5FA000;}
	.st59{fill:#F2DD30;}
	.st60{fill:#FFC855;}
	.st61{fill:#A0A0A0;}
	.st62{fill:#69B469;}
	.st63{fill:#F4E08F;}
	.st64{fill:#ECD077;}
	.st65{fill:#FCF0A8;}
	.st66{fill:#FAB446;}
	.st67{fill:#C8414B;}
	.st68{fill:#FF9B46;}
	.st69{fill:#FF9B55;}
	.st70{fill:#82C3D2;}
	.st71{fill:#5AA587;}
	.st72{fill:#CDCDCD;}
	.st73{fill:#B4A08C;}
	.st74{fill:#FFD250;}
	.st75{fill:#00C3A0;}
	.st76{fill:#00AADC;}
	.st77{fill:#732D37;}
	.st78{fill:#AAD264;}
	.st79{fill:#874150;}
	.st80{fill:#783C46;}
	.st81{fill:#FFB478;}
	.st82{fill:#9B4B5A;}
	.st83{fill:#FFCD5A;}
	.st84{fill:#FFAA5A;}
	.st85{fill:#FF875A;}
	.st86{fill:#E6B432;}
	.st87{fill:#C86464;}
	.st88{fill:#FFF5E1;}
	.st89{fill:#963C3C;}
	.st90{fill:#5A8250;}
	.st91{fill:#AFEBFF;}
	.st92{fill:#557DE6;}
	.st93{fill:#D23741;}
	.st94{fill:#64C86E;}
	.st95{fill:#873250;}
	.st96{fill:#41AA5A;}
	.st97{fill:#8CD7FF;}
	.st98{fill:#6EC86E;}
	.st99{fill:#FFF0E1;}
	.st100{fill:#FFC75A;}
	.st101{fill:#FFD350;}
	.st102{fill:#FFBE50;}
	.st103{fill:#A54B50;}
	.st104{fill:#C87878;}
	.st105{fill:#FF1722;}
	.st106{fill:#FFB441;}
	.st107{fill:#5064AA;}
	.st108{fill:#FFA0D2;}
	.st109{fill:#FF7350;}
	.st110{fill:#245DBD;}
	.st111{fill:#D35A10;}
	.st112{fill:#FFA033;}
	.st113{fill:#FF9480;}
	.st114{fill:#FFA0E4;}
	.st115{fill:#696E7D;}
	.st116{fill:#FFFCFF;}
	.st117{fill:#EBEBEB;}
	.st118{fill:#FF4B57;}
	.st119{fill:#D2D2D2;}
	.st120{fill:#F0C814;}
	.st121{fill:#F7B518;}
	.st122{fill:#2C2F38;}
	.st123{fill:#4C8056;}
	.st124{fill:#F0C419;}
	.st125{fill:#C03A2B;}
	.st126{fill:#EA3F3F;}
	.st127{fill:#E4E3E1;}
	.st128{fill:#2472B2;}
</style>
<g>
	<path class="st3" d="M31.42,18.55H0.55c-0.3,0-0.55-0.22-0.55-0.49V0.53c0-0.27,0.25-0.49,0.55-0.49h30.87
		c0.3,0,0.55,0.22,0.55,0.49v17.53C31.97,18.33,31.72,18.55,31.42,18.55L31.42,18.55z M31.42,18.55"/>
	<path class="st0" d="M31.42,18.55H0.55c-0.3,0-0.55-0.22-0.55-0.49v-5.84h31.97v5.84C31.97,18.33,31.72,18.55,31.42,18.55
		L31.42,18.55z M31.42,18.55"/>
	<path class="st0" d="M22.05,6.86V5.89h-1.1V3.45h0.55V2.48h-3.31v0.97h0.55v2.44h-1.65V2.48h0.55V1.51h-3.31v0.97h0.55v3.41h-1.65
		V3.45h0.55V2.48h-3.31v0.97h0.55v2.44h-1.1v0.97h0.55v3.9H9.92v0.97h12.13v-0.97H21.5v-3.9H22.05z M22.05,6.86"/>
	<path class="st1" d="M17.09,11.25h-2.2V9.3c0-0.54,0.49-0.97,1.1-0.97c0.61,0,1.1,0.44,1.1,0.97V11.25z M17.09,11.25"/>
	<path class="st1" d="M15.98,4.43c-0.3,0-0.55,0.22-0.55,0.49v1.46h1.1V4.91C16.54,4.65,16.29,4.43,15.98,4.43L15.98,4.43z
		 M15.98,4.43"/>
	<path class="st1" d="M19.84,4.91c-0.3,0-0.55,0.22-0.55,0.49v0.97h1.1V5.4C20.39,5.13,20.15,4.91,19.84,4.91L19.84,4.91z
		 M19.84,4.91"/>
	<path class="st1" d="M12.13,4.91c-0.3,0-0.55,0.22-0.55,0.49v0.97h1.1V5.4C12.68,5.13,12.43,4.91,12.13,4.91L12.13,4.91z
		 M12.13,4.91"/>
	<path class="st1" d="M20.39,11.25h-2.2V9.79c0-0.54,0.49-0.97,1.1-0.97s1.1,0.44,1.1,0.97V11.25z M20.39,11.25"/>
	<path class="st1" d="M13.78,11.25h-2.2V9.79c0-0.54,0.49-0.97,1.1-0.97c0.61,0,1.1,0.44,1.1,0.97V11.25z M13.78,11.25"/>
	<path class="st7" d="M17.5,12.95c0-0.08-0.05-0.16-0.12-0.2l-1.12-0.66v-0.21l0.95-0.42c0.14-0.06,0.19-0.21,0.12-0.33
		c-0.07-0.12-0.23-0.17-0.37-0.11l-0.98,0.43l-0.98-0.43c-0.14-0.06-0.3-0.01-0.37,0.11c-0.07,0.12-0.01,0.27,0.12,0.33l0.95,0.42
		v0.21l-1.12,0.66c-0.08,0.05-0.12,0.12-0.12,0.2c0,0.08,0.05,0.16,0.12,0.2l1.12,0.66v2.06h-1.1v0.37c0,0.13,0.12,0.24,0.28,0.24
		c0.11,0,0.2-0.05,0.24-0.13h0.58v0.49h-0.59c-0.05-0.07-0.14-0.12-0.24-0.12c-0.15,0-0.28,0.11-0.28,0.24v0.37h1.1v0.24
		c0,0.13,0.12,0.24,0.28,0.24c0.15,0,0.28-0.11,0.28-0.24v-3.77l1.12-0.66C17.45,13.11,17.5,13.03,17.5,12.95L17.5,12.95z
		 M15.98,13.39l-0.74-0.44l0.74-0.44l0.74,0.44L15.98,13.39z M15.98,13.39"/>
</g>
</svg>
