<?xml version="1.0" encoding="utf-8"?>
<!-- Generator: Adobe Illustrator 25.0.0, SVG Export Plug-In . SVG Version: 6.00 Build 0)  -->
<svg version="1.1" id="Capa_1" xmlns="http://www.w3.org/2000/svg" xmlns:xlink="http://www.w3.org/1999/xlink" x="0px" y="0px"
	 viewBox="0 0 32 18.62" style="enable-background:new 0 0 32 18.62;" xml:space="preserve">
<style type="text/css">
	.st0{fill:#FF4B55;}
	.st1{fill:#464655;}
	.st2{fill:#73AF00;}
	.st3{fill:#F5F5F5;}
	.st4{fill:#41479B;}
	.st5{fill:#FFF5DC;}
	.st6{fill:#D27D69;}
	.st7{fill:#FFE15A;}
	.st8{fill:#B95546;}
	.st9{fill:#DCBE82;}
	.st10{fill:#D2AA73;}
	.st11{fill:#4173CD;}
	.st12{fill:#82AFFF;}
	.st13{fill:#F09146;}
	.st14{fill:#FFB400;}
	.st15{fill:#965032;}
	.st16{fill:#BE7855;}
	.st17{fill:#FFBE3C;}
	.st18{fill:#EAF3F5;}
	.st19{fill:#8C5A28;}
	.st20{fill:#F0C850;}
	.st21{fill:#FF6E55;}
	.st22{fill:#FFBE5A;}
	.st23{fill:#3CC8FF;}
	.st24{fill:#825546;}
	.st25{fill:#FFD255;}
	.st26{fill:#FFD25A;}
	.st27{fill:#509664;}
	.st28{fill:#F0AA00;}
	.st29{fill:#A561CD;}
	.st30{fill:#B34900;}
	.st31{fill:#64B496;}
	.st32{fill:#FF6B71;}
	.st33{fill:#5F64B9;}
	.st34{fill:#F5F0F0;}
	.st35{fill:#5A4646;}
	.st36{fill:#E6E1CD;}
	.st37{fill:#FFD0AF;}
	.st38{fill:#FFAF94;}
	.st39{fill:#8CB400;}
	.st40{fill:#69C3FF;}
	.st41{fill:#009B64;}
	.st42{fill:#5AA0E6;}
	.st43{fill:#FFC88C;}
	.st44{fill:#E1E1E1;}
	.st45{fill:#966446;}
	.st46{fill:#BE915A;}
	.st47{fill:#B9B9B9;}
	.st48{fill:#F0C727;}
	.st49{fill:#50AF69;}
	.st50{fill:#FFE6E6;}
	.st51{fill:#FFB750;}
	.st52{fill:#FFC455;}
	.st53{fill:#FFCD55;}
	.st54{fill:#9BC800;}
	.st55{fill:#FFE14E;}
	.st56{fill:#FFB14E;}
	.st57{fill:#B46446;}
	.st58{fill:#5FA000;}
	.st59{fill:#F2DD30;}
	.st60{fill:#FFC855;}
	.st61{fill:#A0A0A0;}
	.st62{fill:#69B469;}
	.st63{fill:#F4E08F;}
	.st64{fill:#ECD077;}
	.st65{fill:#FCF0A8;}
	.st66{fill:#FAB446;}
	.st67{fill:#C8414B;}
	.st68{fill:#FF9B46;}
	.st69{fill:#FF9B55;}
	.st70{fill:#82C3D2;}
	.st71{fill:#5AA587;}
	.st72{fill:#CDCDCD;}
	.st73{fill:#B4A08C;}
	.st74{fill:#FFD250;}
	.st75{fill:#00C3A0;}
	.st76{fill:#00AADC;}
	.st77{fill:#732D37;}
	.st78{fill:#AAD264;}
	.st79{fill:#874150;}
	.st80{fill:#783C46;}
	.st81{fill:#FFB478;}
	.st82{fill:#9B4B5A;}
	.st83{fill:#FFCD5A;}
	.st84{fill:#FFAA5A;}
	.st85{fill:#FF875A;}
	.st86{fill:#E6B432;}
	.st87{fill:#C86464;}
	.st88{fill:#FFF5E1;}
	.st89{fill:#963C3C;}
	.st90{fill:#5A8250;}
	.st91{fill:#AFEBFF;}
	.st92{fill:#557DE6;}
	.st93{fill:#D23741;}
	.st94{fill:#64C86E;}
	.st95{fill:#873250;}
	.st96{fill:#41AA5A;}
	.st97{fill:#8CD7FF;}
	.st98{fill:#6EC86E;}
	.st99{fill:#FFF0E1;}
	.st100{fill:#FFC75A;}
	.st101{fill:#FFD350;}
	.st102{fill:#FFBE50;}
	.st103{fill:#A54B50;}
	.st104{fill:#C87878;}
	.st105{fill:#FF1722;}
	.st106{fill:#FFB441;}
	.st107{fill:#5064AA;}
	.st108{fill:#FFA0D2;}
	.st109{fill:#FF7350;}
	.st110{fill:#245DBD;}
	.st111{fill:#D35A10;}
	.st112{fill:#FFA033;}
	.st113{fill:#FF9480;}
	.st114{fill:#FFA0E4;}
	.st115{fill:#696E7D;}
	.st116{fill:#FFFCFF;}
	.st117{fill:#EBEBEB;}
	.st118{fill:#FF4B57;}
	.st119{fill:#D2D2D2;}
	.st120{fill:#F0C814;}
	.st121{fill:#F7B518;}
	.st122{fill:#2C2F38;}
	.st123{fill:#4C8056;}
	.st124{fill:#F0C419;}
	.st125{fill:#C03A2B;}
	.st126{fill:#EA3F3F;}
	.st127{fill:#E4E3E1;}
	.st128{fill:#2472B2;}
</style>
<g>
	<path class="st12" d="M10.66,18.55H0.55c-0.3,0-0.55-0.22-0.55-0.49V0.53c0-0.27,0.25-0.49,0.55-0.49h10.11V18.55z M10.66,18.55"/>
	<rect x="10.66" y="0.04" class="st3" width="10.66" height="18.51"/>
	<path class="st12" d="M31.42,18.55H21.31V0.04h10.11c0.3,0,0.55,0.22,0.55,0.49v17.53C31.97,18.33,31.72,18.55,31.42,18.55
		L31.42,18.55z M31.42,18.55"/>
	<path class="st60" d="M15.85,6.88l-0.32,0.14l0.29,0.11L15.85,6.88z M15.85,6.88"/>
	<path class="st2" d="M15.98,12.04c-1.76,0-3.19-1.26-3.19-2.81c0-0.96,0.55-1.85,1.47-2.37l0.08,0.11c-0.88,0.5-1.4,1.34-1.4,2.26
		c0,1.48,1.36,2.68,3.03,2.68V12.04z M15.98,12.04"/>
	<path class="st2" d="M14.16,12.21c0.12,0.02,0.31-0.01,0.5-0.09c0.19-0.08,0.34-0.19,0.4-0.28c-0.12-0.02-0.31,0.01-0.5,0.09
		C14.37,12.01,14.22,12.12,14.16,12.21L14.16,12.21z M14.16,12.21"/>
	<path class="st2" d="M15.06,11.84c0.02-0.11-0.01-0.27-0.1-0.44c-0.09-0.17-0.21-0.3-0.32-0.35c-0.02,0.11,0.01,0.27,0.1,0.44
		C14.83,11.66,14.95,11.79,15.06,11.84L15.06,11.84z M15.06,11.84"/>
	<path class="st2" d="M13.53,11.87c0.12,0.04,0.31,0.03,0.51-0.02c0.2-0.05,0.36-0.14,0.44-0.23c-0.12-0.04-0.31-0.03-0.51,0.02
		C13.76,11.69,13.6,11.78,13.53,11.87L13.53,11.87z M13.53,11.87"/>
	<path class="st2" d="M14.48,11.62c0.04-0.1,0.04-0.27-0.02-0.45c-0.06-0.18-0.16-0.32-0.26-0.39c-0.04,0.1-0.04,0.27,0.02,0.45
		C14.28,11.41,14.38,11.55,14.48,11.62L14.48,11.62z M14.48,11.62"/>
	<path class="st2" d="M12.94,11.4c0.11,0.06,0.29,0.08,0.51,0.06c0.21-0.02,0.39-0.08,0.48-0.16c-0.11-0.06-0.29-0.08-0.51-0.06
		C13.21,11.26,13.03,11.32,12.94,11.4L12.94,11.4z M12.94,11.4"/>
	<path class="st2" d="M13.92,11.3c0.06-0.09,0.09-0.26,0.07-0.45c-0.02-0.19-0.09-0.34-0.18-0.42c-0.06,0.09-0.09,0.26-0.07,0.45
		C13.77,11.07,13.84,11.22,13.92,11.3L13.92,11.3z M13.92,11.3"/>
	<path class="st2" d="M12.45,10.75c0.09,0.07,0.27,0.13,0.49,0.14c0.21,0.01,0.4-0.02,0.5-0.08c-0.09-0.07-0.27-0.13-0.49-0.14
		C12.74,10.66,12.56,10.69,12.45,10.75L12.45,10.75z M12.45,10.75"/>
	<path class="st2" d="M13.44,10.81c0.08-0.08,0.14-0.24,0.16-0.43c0.01-0.19-0.02-0.35-0.09-0.44c-0.08,0.08-0.14,0.24-0.16,0.43
		C13.34,10.56,13.37,10.72,13.44,10.81L13.44,10.81z M13.44,10.81"/>
	<path class="st2" d="M12.17,10.04c0.08,0.09,0.24,0.17,0.44,0.23c0.2,0.05,0.39,0.05,0.51,0.02c-0.08-0.09-0.24-0.17-0.44-0.23
		C12.48,10,12.29,10,12.17,10.04L12.17,10.04z M12.17,10.04"/>
	<path class="st2" d="M13.12,10.28c0.1-0.07,0.2-0.21,0.26-0.39c0.06-0.18,0.06-0.35,0.02-0.45c-0.1,0.07-0.2,0.21-0.26,0.39
		C13.08,10.01,13.08,10.18,13.12,10.28L13.12,10.28z M13.12,10.28"/>
	<path class="st2" d="M12.05,9.2c0.05,0.1,0.18,0.22,0.36,0.32c0.18,0.1,0.36,0.14,0.49,0.13c-0.05-0.1-0.18-0.22-0.36-0.32
		C12.36,9.24,12.17,9.19,12.05,9.2L12.05,9.2z M12.05,9.2"/>
	<path class="st2" d="M12.9,9.65c0.11-0.04,0.25-0.16,0.36-0.32c0.11-0.16,0.16-0.32,0.15-0.43c-0.11,0.04-0.25,0.16-0.36,0.32
		C12.94,9.38,12.89,9.55,12.9,9.65L12.9,9.65z M12.9,9.65"/>
	<path class="st2" d="M12.16,8.42c0.02,0.11,0.12,0.25,0.28,0.38c0.15,0.13,0.32,0.21,0.45,0.22c-0.02-0.11-0.12-0.25-0.28-0.38
		C12.45,8.51,12.29,8.43,12.16,8.42L12.16,8.42z M12.16,8.42"/>
	<path class="st2" d="M12.89,9.01c0.12-0.02,0.28-0.11,0.43-0.24c0.15-0.14,0.23-0.29,0.25-0.39c-0.12,0.02-0.28,0.11-0.43,0.24
		C12.99,8.76,12.9,8.91,12.89,9.01L12.89,9.01z M12.89,9.01"/>
	<path class="st2" d="M12.61,7.56c-0.03,0.11,0.01,0.27,0.09,0.44c0.09,0.17,0.21,0.3,0.32,0.35c0.03-0.11-0.01-0.27-0.09-0.44
		C12.84,7.75,12.72,7.62,12.61,7.56L12.61,7.56z M12.61,7.56"/>
	<path class="st2" d="M13.02,8.36c0.12,0.02,0.31,0,0.5-0.08c0.19-0.08,0.34-0.19,0.4-0.28c-0.12-0.02-0.31,0-0.5,0.08
		C13.23,8.16,13.08,8.26,13.02,8.36L13.02,8.36z M13.02,8.36"/>
	<path class="st2" d="M13.15,6.93c-0.06,0.1-0.08,0.26-0.04,0.45c0.03,0.19,0.11,0.34,0.2,0.41c0.06-0.1,0.08-0.26,0.04-0.45
		C13.31,7.16,13.23,7.01,13.15,6.93L13.15,6.93z M13.15,6.93"/>
	<path class="st2" d="M13.3,7.8c0.11,0.05,0.3,0.07,0.51,0.04c0.21-0.03,0.38-0.1,0.47-0.18c-0.11-0.05-0.3-0.07-0.51-0.04
		C13.56,7.65,13.39,7.72,13.3,7.8L13.3,7.8z M13.3,7.8"/>
	<path class="st2" d="M13.67,6.49c-0.07,0.09-0.12,0.25-0.12,0.44c0,0.19,0.05,0.35,0.13,0.44c0.07-0.09,0.12-0.25,0.12-0.44
		C13.8,6.74,13.75,6.58,13.67,6.49L13.67,6.49z M13.67,6.49"/>
	<path class="st2" d="M13.68,7.37c0.1,0.06,0.28,0.11,0.5,0.11c0.21,0,0.4-0.05,0.49-0.11c-0.1-0.06-0.28-0.11-0.5-0.11
		C13.96,7.26,13.78,7.3,13.68,7.37L13.68,7.37z M13.68,7.37"/>
	<path class="st2" d="M13.94,7.14C14.06,7.15,14.24,7.1,14.42,7c0.18-0.1,0.31-0.22,0.36-0.32c-0.12-0.01-0.31,0.04-0.49,0.14
		C14.11,6.91,13.98,7.04,13.94,7.14L13.94,7.14z M13.94,7.14"/>
	<path class="st2" d="M15.98,12.04V11.9c1.67,0,3.03-1.2,3.03-2.68c0-0.92-0.52-1.76-1.4-2.26l0.08-0.11
		c0.92,0.52,1.47,1.41,1.47,2.37C19.17,10.77,17.74,12.04,15.98,12.04L15.98,12.04z M15.98,12.04"/>
	<path class="st2" d="M17.81,12.21c-0.12,0.02-0.31-0.01-0.5-0.09c-0.19-0.08-0.34-0.19-0.4-0.28c0.12-0.02,0.31,0.01,0.5,0.09
		C17.6,12.01,17.75,12.12,17.81,12.21L17.81,12.21z M17.81,12.21"/>
	<path class="st2" d="M16.91,11.84c-0.02-0.11,0.01-0.27,0.1-0.44c0.09-0.17,0.21-0.3,0.32-0.35c0.02,0.11-0.01,0.27-0.1,0.44
		C17.14,11.66,17.02,11.79,16.91,11.84L16.91,11.84z M16.91,11.84"/>
	<path class="st2" d="M18.44,11.87c-0.12,0.04-0.31,0.03-0.51-0.02c-0.2-0.05-0.36-0.14-0.44-0.23c0.12-0.04,0.31-0.03,0.51,0.02
		C18.21,11.69,18.37,11.78,18.44,11.87L18.44,11.87z M18.44,11.87"/>
	<path class="st2" d="M17.49,11.62c-0.04-0.1-0.04-0.27,0.02-0.45c0.06-0.18,0.16-0.32,0.26-0.39c0.04,0.1,0.04,0.27-0.02,0.45
		C17.69,11.41,17.59,11.55,17.49,11.62L17.49,11.62z M17.49,11.62"/>
	<path class="st2" d="M19.03,11.4c-0.11,0.06-0.29,0.08-0.51,0.06c-0.21-0.02-0.39-0.08-0.48-0.16c0.11-0.06,0.29-0.08,0.51-0.06
		C18.76,11.26,18.94,11.32,19.03,11.4L19.03,11.4z M19.03,11.4"/>
	<path class="st2" d="M18.05,11.3c-0.06-0.09-0.09-0.26-0.07-0.45c0.02-0.19,0.09-0.34,0.18-0.42c0.06,0.09,0.09,0.26,0.07,0.45
		C18.2,11.07,18.13,11.22,18.05,11.3L18.05,11.3z M18.05,11.3"/>
	<path class="st2" d="M19.51,10.75c-0.09,0.07-0.27,0.13-0.49,0.14c-0.21,0.01-0.4-0.02-0.5-0.08c0.09-0.07,0.27-0.13,0.49-0.14
		C19.22,10.66,19.41,10.69,19.51,10.75L19.51,10.75z M19.51,10.75"/>
	<path class="st2" d="M18.53,10.81c-0.08-0.08-0.14-0.24-0.16-0.43c-0.01-0.19,0.02-0.35,0.09-0.44c0.08,0.08,0.14,0.24,0.16,0.43
		C18.63,10.56,18.59,10.72,18.53,10.81L18.53,10.81z M18.53,10.81"/>
	<path class="st2" d="M19.8,10.04c-0.08,0.09-0.24,0.17-0.44,0.23c-0.2,0.05-0.39,0.05-0.51,0.02c0.08-0.09,0.24-0.17,0.44-0.23
		C19.49,10,19.68,10,19.8,10.04L19.8,10.04z M19.8,10.04"/>
	<path class="st2" d="M18.85,10.28c-0.1-0.07-0.2-0.21-0.26-0.39c-0.06-0.18-0.06-0.35-0.02-0.45c0.1,0.07,0.2,0.21,0.26,0.39
		C18.89,10.01,18.89,10.18,18.85,10.28L18.85,10.28z M18.85,10.28"/>
	<path class="st2" d="M19.92,9.2c-0.05,0.1-0.18,0.22-0.36,0.32c-0.18,0.1-0.36,0.14-0.49,0.13c0.05-0.1,0.18-0.22,0.36-0.32
		C19.61,9.24,19.8,9.19,19.92,9.2L19.92,9.2z M19.92,9.2"/>
	<path class="st2" d="M19.07,9.65c-0.11-0.04-0.25-0.16-0.36-0.32c-0.11-0.16-0.16-0.32-0.15-0.43c0.11,0.04,0.25,0.16,0.36,0.32
		C19.03,9.38,19.08,9.55,19.07,9.65L19.07,9.65z M19.07,9.65"/>
	<path class="st2" d="M19.81,8.42c-0.02,0.11-0.12,0.25-0.28,0.38C19.37,8.92,19.21,9,19.08,9.01c0.02-0.11,0.12-0.25,0.28-0.38
		C19.51,8.51,19.68,8.43,19.81,8.42L19.81,8.42z M19.81,8.42"/>
	<path class="st2" d="M19.08,9.01c-0.12-0.02-0.28-0.11-0.43-0.24c-0.15-0.14-0.23-0.29-0.25-0.39c0.12,0.02,0.28,0.11,0.43,0.24
		C18.98,8.76,19.07,8.91,19.08,9.01L19.08,9.01z M19.08,9.01"/>
	<path class="st2" d="M19.36,7.56c0.03,0.11-0.01,0.27-0.09,0.44c-0.09,0.17-0.21,0.3-0.32,0.35c-0.03-0.11,0.01-0.27,0.09-0.44
		C19.13,7.75,19.25,7.62,19.36,7.56L19.36,7.56z M19.36,7.56"/>
	<path class="st2" d="M18.95,8.36c-0.12,0.02-0.31,0-0.5-0.08C18.25,8.2,18.11,8.09,18.05,8c0.12-0.02,0.31,0,0.5,0.08
		C18.74,8.16,18.89,8.26,18.95,8.36L18.95,8.36z M18.95,8.36"/>
	<path class="st2" d="M18.82,6.93c0.06,0.1,0.08,0.26,0.04,0.45c-0.03,0.19-0.11,0.34-0.2,0.41c-0.06-0.1-0.08-0.26-0.04-0.45
		C18.66,7.16,18.73,7.01,18.82,6.93L18.82,6.93z M18.82,6.93"/>
	<path class="st2" d="M18.67,7.8c-0.11,0.05-0.3,0.07-0.51,0.04c-0.21-0.03-0.38-0.1-0.47-0.18c0.11-0.05,0.3-0.07,0.51-0.04
		C18.41,7.65,18.58,7.72,18.67,7.8L18.67,7.8z M18.67,7.8"/>
	<path class="st2" d="M18.3,6.49c0.07,0.09,0.12,0.25,0.12,0.44c0,0.19-0.05,0.35-0.13,0.44c-0.07-0.09-0.12-0.25-0.12-0.44
		C18.17,6.74,18.22,6.58,18.3,6.49L18.3,6.49z M18.3,6.49"/>
	<path class="st2" d="M18.29,7.37c-0.1,0.06-0.28,0.11-0.5,0.11c-0.21,0-0.39-0.05-0.49-0.11c0.1-0.06,0.28-0.11,0.5-0.11
		C18.01,7.26,18.19,7.3,18.29,7.37L18.29,7.37z M18.29,7.37"/>
	<path class="st2" d="M18.03,7.14C17.91,7.15,17.73,7.1,17.55,7c-0.18-0.1-0.31-0.22-0.36-0.32c0.12-0.01,0.31,0.04,0.49,0.14
		C17.86,6.91,17.99,7.04,18.03,7.14L18.03,7.14z M18.03,7.14"/>
	<path class="st45" d="M14.25,11.41l-0.55,0.49l-0.27-0.48l0.82-0.72l0.27,0.24l-0.08,0.21C14.39,11.25,14.33,11.34,14.25,11.41
		L14.25,11.41z M14.25,11.41"/>
	<path class="st47" d="M17.23,7.81l-3,2.65c-0.08,0.07-0.08,0.17,0,0.24l0.14,0.12l0.54-0.48l2.18-2.17l0.27-0.24L17.23,7.81z
		 M17.23,7.81"/>
	<path class="st45" d="M14.97,10.05c-0.04,0.03-0.06,0.08-0.06,0.12v0.17l2.18-2.17L14.97,10.05z M14.97,10.05"/>
	<path class="st61" d="M17.37,7.93l-0.14-0.12L17.1,7.93l0.14,0.12l0.14,0.12l1.5-1.56L17.37,7.93z M17.37,7.93"/>
	<path class="st45" d="M17.88,11.41l0.55,0.49l0.27-0.48l-0.82-0.72l-0.27,0.24l0.08,0.21C17.73,11.25,17.79,11.34,17.88,11.41
		L17.88,11.41z M17.88,11.41"/>
	<path class="st47" d="M14.89,7.81l3,2.65c0.08,0.07,0.08,0.17,0,0.24l-0.14,0.12l-0.54-0.48l-2.18-2.17l-0.27-0.24L14.89,7.81z
		 M14.89,7.81"/>
	<path class="st45" d="M17.15,10.05c0.04,0.03,0.06,0.08,0.06,0.12v0.17l-2.18-2.17L17.15,10.05z M17.15,10.05"/>
	<path class="st61" d="M14.75,7.93l0.14-0.12l0.14,0.12l-0.14,0.12l-0.14,0.12l-1.5-1.56L14.75,7.93z M14.75,7.93"/>
	<path class="st47" d="M14.94,11.31l0.14,0.11c0.49-0.48,1.36-1.32,2.73-2.4C17.8,9.02,16.67,9.64,14.94,11.31L14.94,11.31z
		 M14.94,11.31"/>
	<path class="st7" d="M14.56,11.8c-0.05-0.04-0.05-0.11-0.01-0.15l0.29-0.28c0.04-0.04,0.12-0.05,0.17-0.01
		c0.05,0.04,0.05,0.11,0.01,0.15l-0.29,0.28C14.68,11.84,14.61,11.84,14.56,11.8L14.56,11.8z M14.56,11.8"/>
	<path class="st60" d="M14.83,11.23l-0.08,0.03c-0.07,0.03-0.25,0.12-0.29,0.25c-0.02,0.06,0.01,0.12,0.06,0.18
		c0.01-0.01,0.01-0.02,0.02-0.03l0.04-0.04c-0.02-0.03-0.04-0.06-0.03-0.09c0.02-0.08,0.14-0.15,0.22-0.19l0.35,0.28l0.09-0.08
		L14.83,11.23z M14.83,11.23"/>
	<path class="st47" d="M17.18,11.45l-0.14,0.11c-0.49-0.48-1.36-1.32-2.73-2.4C14.31,9.15,15.45,9.77,17.18,11.45L17.18,11.45z
		 M17.18,11.45"/>
	<path class="st7" d="M17.56,11.94c0.05-0.04,0.05-0.11,0.01-0.15l-0.29-0.28c-0.04-0.04-0.12-0.05-0.17-0.01
		c-0.05,0.04-0.05,0.11-0.01,0.15l0.29,0.28C17.44,11.97,17.51,11.98,17.56,11.94L17.56,11.94z M17.56,11.94"/>
	<path class="st60" d="M17.29,11.36l0.08,0.03c0.07,0.03,0.25,0.12,0.29,0.25c0.01,0.06-0.01,0.12-0.06,0.18
		c-0.01-0.01-0.01-0.02-0.02-0.03l-0.04-0.04c0.02-0.03,0.04-0.06,0.03-0.09c-0.02-0.08-0.14-0.15-0.22-0.19l-0.35,0.28l-0.09-0.08
		L17.29,11.36z M17.29,11.36"/>
	<path class="st62" d="M16.12,7.02c0.01-0.02,0.02-0.05,0.02-0.08c0-0.11-0.1-0.2-0.23-0.2c-0.13,0-0.23,0.09-0.23,0.2
		c0,0.07,0.04,0.12,0.09,0.16c-0.08,0.58,0.57,0.63,0.82,0.71c0.38,0.12,0.85,0.37,0.82,1.07c-0.03,0.68-0.52,1.34-0.52,1.34
		l0.4-0.49c-0.15,0.55-0.49,1.26-1.31,2.09c0,0,0.56-0.49,1.03-1.11c-0.34,0.72-0.73,1.38-0.73,1.38s0.68-0.78,1.22-2.12
		C18.17,8.36,16.78,7.38,16.12,7.02L16.12,7.02z M16.12,7.02"/>
	<rect x="14.92" y="9.42" class="st63" width="0.61" height="0.27"/>
	<path class="st64" d="M15.23,9.69c0,0.15-0.14,0.27-0.3,0.27c-0.17,0-0.3-0.12-0.3-0.27c0-0.15,0.14-0.27,0.3-0.27
		C15.09,9.42,15.23,9.54,15.23,9.69L15.23,9.69z M15.23,9.69"/>
	<path class="st64" d="M15.23,7.95c0,0.15-0.14,0.27-0.3,0.27c-0.17,0-0.3-0.12-0.3-0.27c0-0.15,0.14-0.27,0.3-0.27
		C15.09,7.68,15.23,7.8,15.23,7.95L15.23,7.95z M15.23,7.95"/>
	<path class="st65" d="M16.74,8.22c0.17,0,0.3-0.12,0.3-0.27c0-0.15-0.14-0.27-0.3-0.27h-1.82c0.17,0,0.3,0.12,0.3,0.27
		c0,0.15-0.14,0.27-0.3,0.27c-0.17,0-0.3-0.12-0.3-0.27c0,0.45,0.43,0.99,0.56,1.47c0,0,0.04,0.12,0.04,0.27
		c0,0.15-0.14,0.27-0.3,0.27h1.82c0.17,0,0.3-0.12,0.3-0.27c0-0.45-0.43-0.99-0.56-1.47H16.74z M16.74,8.22"/>
	<path class="st63" d="M15.23,7.95c0,0.15-0.14,0.27-0.3,0.27h1.82c0.17,0,0.3-0.12,0.3-0.27H15.23z M15.23,7.95"/>
	<path class="st63" d="M15.23,9.69c0,0.15-0.14,0.27-0.3,0.27h1.82c0.17,0,0.3-0.12,0.3-0.27H15.23z M15.23,9.69"/>
</g>
</svg>
