<?xml version="1.0" encoding="utf-8"?>
<!-- Generator: Adobe Illustrator 25.0.0, SVG Export Plug-In . SVG Version: 6.00 Build 0)  -->
<svg version="1.1" id="Capa_1" xmlns="http://www.w3.org/2000/svg" xmlns:xlink="http://www.w3.org/1999/xlink" x="0px" y="0px"
	 viewBox="0 0 32 18.62" style="enable-background:new 0 0 32 18.62;" xml:space="preserve">
<style type="text/css">
	.st0{fill:#FF4B55;}
	.st1{fill:#464655;}
	.st2{fill:#73AF00;}
	.st3{fill:#F5F5F5;}
	.st4{fill:#41479B;}
	.st5{fill:#FFF5DC;}
	.st6{fill:#D27D69;}
	.st7{fill:#FFE15A;}
	.st8{fill:#B95546;}
	.st9{fill:#DCBE82;}
	.st10{fill:#D2AA73;}
	.st11{fill:#4173CD;}
	.st12{fill:#82AFFF;}
	.st13{fill:#F09146;}
	.st14{fill:#FFB400;}
	.st15{fill:#965032;}
	.st16{fill:#BE7855;}
	.st17{fill:#FFBE3C;}
	.st18{fill:#EAF3F5;}
	.st19{fill:#8C5A28;}
	.st20{fill:#F0C850;}
	.st21{fill:#FF6E55;}
	.st22{fill:#FFBE5A;}
	.st23{fill:#3CC8FF;}
	.st24{fill:#825546;}
	.st25{fill:#FFD255;}
	.st26{fill:#FFD25A;}
	.st27{fill:#509664;}
	.st28{fill:#F0AA00;}
	.st29{fill:#A561CD;}
	.st30{fill:#B34900;}
	.st31{fill:#64B496;}
	.st32{fill:#FF6B71;}
	.st33{fill:#5F64B9;}
	.st34{fill:#F5F0F0;}
	.st35{fill:#5A4646;}
	.st36{fill:#E6E1CD;}
	.st37{fill:#FFD0AF;}
	.st38{fill:#FFAF94;}
	.st39{fill:#8CB400;}
	.st40{fill:#69C3FF;}
	.st41{fill:#009B64;}
	.st42{fill:#5AA0E6;}
	.st43{fill:#FFC88C;}
	.st44{fill:#E1E1E1;}
	.st45{fill:#966446;}
	.st46{fill:#BE915A;}
	.st47{fill:#B9B9B9;}
	.st48{fill:#F0C727;}
	.st49{fill:#50AF69;}
	.st50{fill:#FFE6E6;}
	.st51{fill:#FFB750;}
	.st52{fill:#FFC455;}
	.st53{fill:#FFCD55;}
	.st54{fill:#9BC800;}
	.st55{fill:#FFE14E;}
	.st56{fill:#FFB14E;}
	.st57{fill:#B46446;}
	.st58{fill:#5FA000;}
	.st59{fill:#F2DD30;}
	.st60{fill:#FFC855;}
	.st61{fill:#A0A0A0;}
	.st62{fill:#69B469;}
	.st63{fill:#F4E08F;}
	.st64{fill:#ECD077;}
	.st65{fill:#FCF0A8;}
	.st66{fill:#FAB446;}
	.st67{fill:#C8414B;}
	.st68{fill:#FF9B46;}
	.st69{fill:#FF9B55;}
	.st70{fill:#82C3D2;}
	.st71{fill:#5AA587;}
	.st72{fill:#CDCDCD;}
	.st73{fill:#B4A08C;}
	.st74{fill:#FFD250;}
	.st75{fill:#00C3A0;}
	.st76{fill:#00AADC;}
	.st77{fill:#732D37;}
	.st78{fill:#AAD264;}
	.st79{fill:#874150;}
	.st80{fill:#783C46;}
	.st81{fill:#FFB478;}
	.st82{fill:#9B4B5A;}
	.st83{fill:#FFCD5A;}
	.st84{fill:#FFAA5A;}
	.st85{fill:#FF875A;}
	.st86{fill:#E6B432;}
	.st87{fill:#C86464;}
	.st88{fill:#FFF5E1;}
	.st89{fill:#963C3C;}
	.st90{fill:#5A8250;}
	.st91{fill:#AFEBFF;}
	.st92{fill:#557DE6;}
	.st93{fill:#D23741;}
	.st94{fill:#64C86E;}
	.st95{fill:#873250;}
	.st96{fill:#41AA5A;}
	.st97{fill:#8CD7FF;}
	.st98{fill:#6EC86E;}
	.st99{fill:#FFF0E1;}
	.st100{fill:#FFC75A;}
	.st101{fill:#FFD350;}
	.st102{fill:#FFBE50;}
	.st103{fill:#A54B50;}
	.st104{fill:#C87878;}
	.st105{fill:#FF1722;}
	.st106{fill:#FFB441;}
	.st107{fill:#5064AA;}
	.st108{fill:#FFA0D2;}
	.st109{fill:#FF7350;}
	.st110{fill:#245DBD;}
	.st111{fill:#D35A10;}
	.st112{fill:#FFA033;}
	.st113{fill:#FF9480;}
	.st114{fill:#FFA0E4;}
	.st115{fill:#696E7D;}
	.st116{fill:#FFFCFF;}
	.st117{fill:#EBEBEB;}
	.st118{fill:#FF4B57;}
	.st119{fill:#D2D2D2;}
	.st120{fill:#F0C814;}
	.st121{fill:#F7B518;}
	.st122{fill:#2C2F38;}
	.st123{fill:#4C8056;}
	.st124{fill:#F0C419;}
	.st125{fill:#C03A2B;}
	.st126{fill:#EA3F3F;}
	.st127{fill:#E4E3E1;}
	.st128{fill:#2472B2;}
</style>
<g>
	<path class="st0" d="M31.42,18.55H0.55c-0.3,0-0.55-0.22-0.55-0.49V0.53c0-0.27,0.25-0.49,0.55-0.49h30.87
		c0.3,0,0.55,0.22,0.55,0.49v17.53C31.97,18.33,31.72,18.55,31.42,18.55L31.42,18.55z M31.42,18.55"/>
	<path class="st3" d="M14.02,10.01c-0.69,0.01-1.47-0.19-2.16-0.86C11.81,9.11,11.82,9.04,11.87,9l0,0
		c0.05-0.04,0.13-0.03,0.17,0.01c1.04,1.01,2.33,0.83,3.11,0.59c-0.29,0.01-0.64-0.01-0.87-0.14c-0.96-0.56-0.53-1.15-1.17-1.87
		C12.48,6.87,11.9,6.89,11,7.01c-0.89,0.12-1.18-0.46-1.26-0.78C9.73,6.17,9.63,6.17,9.61,6.22c-1.11,2.65,2.23,5.93,5.66,3.57
		C14.93,9.91,14.49,10.01,14.02,10.01L14.02,10.01z M11.51,9.11c-0.02,0.05-0.1,0.05-0.11,0l-0.13-0.37l-0.44-0.01
		c-0.06,0-0.08-0.07-0.03-0.1l0.36-0.22l-0.12-0.37c-0.02-0.05,0.05-0.09,0.09-0.06l0.35,0.23l0.37-0.22
		C11.9,7.96,11.96,8,11.94,8.05L11.8,8.42l0.35,0.24c0.04,0.03,0.02,0.09-0.04,0.09l-0.44-0.01L11.51,9.11z M11.51,9.11"/>
	<path class="st3" d="M16.48,8.25c0.55-0.37,1.31-0.63,2.31-0.46c0.07,0.01,0.11,0.07,0.1,0.13l0,0c-0.01,0.06-0.08,0.09-0.15,0.08
		c-1.52-0.26-2.43,0.57-2.88,1.17c0.22-0.16,0.52-0.33,0.8-0.35c1.15-0.06,1.2,0.64,2.2,0.88c0.99,0.23,1.44-0.08,2.08-0.66
		c0.63-0.57,1.25-0.26,1.54-0.05c0.05,0.04,0.13-0.01,0.11-0.06c-0.91-2.71-5.81-3.57-6.95,0.14C15.82,8.82,16.1,8.51,16.48,8.25
		L16.48,8.25z M19.09,7.64c-0.02-0.05,0.05-0.09,0.09-0.06l0.36,0.23l0.36-0.22c0.05-0.03,0.11,0.01,0.09,0.06l-0.14,0.37l0.35,0.23
		c0.05,0.03,0.02,0.09-0.04,0.09l-0.44,0l-0.14,0.37c-0.02,0.05-0.1,0.05-0.11,0l-0.13-0.37l-0.44-0.01c-0.06,0-0.08-0.07-0.03-0.09
		l0.36-0.23L19.09,7.64z M19.09,7.64"/>
	<path class="st3" d="M14.64,8.5c-0.27-0.57-0.36-1.28,0.07-2.09c0.03-0.06,0.11-0.08,0.17-0.05h0c0.06,0.03,0.08,0.09,0.05,0.15
		c-0.66,1.24,0.02,2.22,0.56,2.76c-0.12-0.23-0.24-0.53-0.18-0.77c0.22-1,1.01-0.87,1.52-1.67c0.51-0.79,0.27-1.25-0.2-1.94
		c-0.46-0.68,0.03-1.13,0.33-1.33c0.05-0.03,0.02-0.11-0.04-0.11c-3.2,0.1-5.36,4.08-1.59,5.98C15.09,9.21,14.82,8.89,14.64,8.5
		L14.64,8.5z M14.63,6.12c-0.06,0-0.08-0.06-0.04-0.09l0.34-0.25l-0.15-0.36c-0.02-0.05,0.04-0.09,0.09-0.06l0.37,0.21l0.35-0.24
		c0.04-0.03,0.11,0.01,0.09,0.05l-0.11,0.38l0.37,0.22c0.05,0.03,0.03,0.09-0.03,0.1l-0.44,0.02l-0.12,0.37
		c-0.02,0.05-0.09,0.05-0.11,0L15.07,6.1L14.63,6.12z M14.63,6.12"/>
	<path class="st3" d="M17.13,9.79c0.57,0.35,1.09,0.9,1.22,1.79c0.01,0.06-0.04,0.12-0.11,0.12h0c-0.07,0.01-0.13-0.04-0.14-0.1
		c-0.2-1.36-1.38-1.86-2.17-2.05c0.24,0.13,0.52,0.33,0.63,0.56c0.43,0.94-0.31,1.21-0.25,2.13c0.06,0.91,0.54,1.18,1.36,1.54
		c0.81,0.35,0.67,0.97,0.53,1.28c-0.02,0.06,0.05,0.1,0.1,0.07c2.63-1.62,2.01-5.99-2.33-5.79C16.31,9.41,16.73,9.55,17.13,9.79
		L17.13,9.79z M18.6,11.79c0.05-0.03,0.11,0.01,0.09,0.06l-0.14,0.37l0.35,0.23c0.05,0.03,0.02,0.09-0.04,0.09l-0.44,0l-0.14,0.37
		c-0.02,0.05-0.09,0.05-0.11,0l-0.14-0.37l-0.44-0.01c-0.06,0-0.08-0.07-0.03-0.09l0.36-0.23l-0.13-0.37
		c-0.02-0.05,0.05-0.09,0.09-0.06l0.36,0.23L18.6,11.79z M18.6,11.79"/>
	<path class="st3" d="M15.69,10.89c-0.2,0.59-0.64,1.19-1.56,1.57c-0.06,0.03-0.14,0-0.17-0.06h0c-0.03-0.06,0-0.12,0.06-0.14
		c1.4-0.58,1.59-1.72,1.55-2.45c-0.07,0.24-0.2,0.54-0.41,0.7c-0.89,0.65-1.4,0.1-2.37,0.43c-0.96,0.33-1.11,0.81-1.24,1.61
		c-0.13,0.79-0.84,0.86-1.21,0.84c-0.07,0-0.1,0.07-0.04,0.11c2.54,1.72,7.07-0.13,5.53-3.72C15.85,10.09,15.83,10.48,15.69,10.89
		L15.69,10.89z M13.98,12.74c0.05,0.03,0.02,0.09-0.04,0.09l-0.44,0l-0.14,0.37c-0.02,0.05-0.1,0.05-0.11,0l-0.13-0.37l-0.44-0.01
		c-0.06,0-0.08-0.07-0.03-0.09L13,12.49l-0.13-0.37c-0.02-0.05,0.05-0.09,0.09-0.06l0.35,0.23l0.36-0.22
		c0.05-0.03,0.11,0.01,0.09,0.06l-0.14,0.37L13.98,12.74z M13.98,12.74"/>
</g>
</svg>
