<?xml version="1.0" encoding="utf-8"?>
<!-- Generator: Adobe Illustrator 25.0.0, SVG Export Plug-In . SVG Version: 6.00 Build 0)  -->
<svg version="1.1" id="Capa_1" xmlns="http://www.w3.org/2000/svg" xmlns:xlink="http://www.w3.org/1999/xlink" x="0px" y="0px"
	 viewBox="0 0 32 18.62" style="enable-background:new 0 0 32 18.62;" xml:space="preserve">
<style type="text/css">
	.st0{fill:#FF4B55;}
	.st1{fill:#464655;}
	.st2{fill:#73AF00;}
	.st3{fill:#F5F5F5;}
	.st4{fill:#41479B;}
	.st5{fill:#FFF5DC;}
	.st6{fill:#D27D69;}
	.st7{fill:#FFE15A;}
	.st8{fill:#B95546;}
	.st9{fill:#DCBE82;}
	.st10{fill:#D2AA73;}
	.st11{fill:#4173CD;}
	.st12{fill:#82AFFF;}
	.st13{fill:#F09146;}
	.st14{fill:#FFB400;}
	.st15{fill:#965032;}
	.st16{fill:#BE7855;}
	.st17{fill:#FFBE3C;}
	.st18{fill:#EAF3F5;}
	.st19{fill:#8C5A28;}
	.st20{fill:#F0C850;}
	.st21{fill:#FF6E55;}
	.st22{fill:#FFBE5A;}
	.st23{fill:#3CC8FF;}
	.st24{fill:#825546;}
	.st25{fill:#FFD255;}
	.st26{fill:#FFD25A;}
	.st27{fill:#509664;}
	.st28{fill:#F0AA00;}
	.st29{fill:#A561CD;}
	.st30{fill:#B34900;}
	.st31{fill:#64B496;}
	.st32{fill:#FF6B71;}
	.st33{fill:#5F64B9;}
	.st34{fill:#F5F0F0;}
	.st35{fill:#5A4646;}
	.st36{fill:#E6E1CD;}
	.st37{fill:#FFD0AF;}
	.st38{fill:#FFAF94;}
	.st39{fill:#8CB400;}
	.st40{fill:#69C3FF;}
	.st41{fill:#009B64;}
	.st42{fill:#5AA0E6;}
	.st43{fill:#FFC88C;}
	.st44{fill:#E1E1E1;}
	.st45{fill:#966446;}
	.st46{fill:#BE915A;}
	.st47{fill:#B9B9B9;}
	.st48{fill:#F0C727;}
	.st49{fill:#50AF69;}
	.st50{fill:#FFE6E6;}
	.st51{fill:#FFB750;}
	.st52{fill:#FFC455;}
	.st53{fill:#FFCD55;}
	.st54{fill:#9BC800;}
	.st55{fill:#FFE14E;}
	.st56{fill:#FFB14E;}
	.st57{fill:#B46446;}
	.st58{fill:#5FA000;}
	.st59{fill:#F2DD30;}
	.st60{fill:#FFC855;}
	.st61{fill:#A0A0A0;}
	.st62{fill:#69B469;}
	.st63{fill:#F4E08F;}
	.st64{fill:#ECD077;}
	.st65{fill:#FCF0A8;}
	.st66{fill:#FAB446;}
	.st67{fill:#C8414B;}
	.st68{fill:#FF9B46;}
	.st69{fill:#FF9B55;}
	.st70{fill:#82C3D2;}
	.st71{fill:#5AA587;}
	.st72{fill:#CDCDCD;}
	.st73{fill:#B4A08C;}
	.st74{fill:#FFD250;}
	.st75{fill:#00C3A0;}
	.st76{fill:#00AADC;}
	.st77{fill:#732D37;}
	.st78{fill:#AAD264;}
	.st79{fill:#874150;}
	.st80{fill:#783C46;}
	.st81{fill:#FFB478;}
	.st82{fill:#9B4B5A;}
	.st83{fill:#FFCD5A;}
	.st84{fill:#FFAA5A;}
	.st85{fill:#FF875A;}
	.st86{fill:#E6B432;}
	.st87{fill:#C86464;}
	.st88{fill:#FFF5E1;}
	.st89{fill:#963C3C;}
	.st90{fill:#5A8250;}
	.st91{fill:#AFEBFF;}
	.st92{fill:#557DE6;}
	.st93{fill:#D23741;}
	.st94{fill:#64C86E;}
	.st95{fill:#873250;}
	.st96{fill:#41AA5A;}
	.st97{fill:#8CD7FF;}
	.st98{fill:#6EC86E;}
	.st99{fill:#FFF0E1;}
	.st100{fill:#FFC75A;}
	.st101{fill:#FFD350;}
	.st102{fill:#FFBE50;}
	.st103{fill:#A54B50;}
	.st104{fill:#C87878;}
	.st105{fill:#FF1722;}
	.st106{fill:#FFB441;}
	.st107{fill:#5064AA;}
	.st108{fill:#FFA0D2;}
	.st109{fill:#FF7350;}
	.st110{fill:#245DBD;}
	.st111{fill:#D35A10;}
	.st112{fill:#FFA033;}
	.st113{fill:#FF9480;}
	.st114{fill:#FFA0E4;}
	.st115{fill:#696E7D;}
	.st116{fill:#FFFCFF;}
	.st117{fill:#EBEBEB;}
	.st118{fill:#FF4B57;}
	.st119{fill:#D2D2D2;}
	.st120{fill:#F0C814;}
	.st121{fill:#F7B518;}
	.st122{fill:#2C2F38;}
	.st123{fill:#4C8056;}
	.st124{fill:#F0C419;}
	.st125{fill:#C03A2B;}
	.st126{fill:#EA3F3F;}
	.st127{fill:#E4E3E1;}
	.st128{fill:#2472B2;}
</style>
<g>
	<path class="st4" d="M0,12.38h31.97v5.68c0,0.27-0.25,0.49-0.55,0.49H0.55c-0.3,0-0.55-0.22-0.55-0.49V12.38z M0,12.38"/>
	<path class="st0" d="M0.55,0.04h30.87c0.3,0,0.55,0.22,0.55,0.49v5.68H0V0.53C0,0.26,0.25,0.04,0.55,0.04L0.55,0.04z M0.55,0.04"/>
	<rect x="0" y="6.21" class="st3" width="31.97" height="6.17"/>
	<rect x="12.13" y="6.38" class="st0" width="1.54" height="1.56"/>
	<rect x="15.21" y="6.38" class="st0" width="1.54" height="1.56"/>
	<rect x="13.67" y="7.93" class="st0" width="1.54" height="1.56"/>
	<rect x="18.3" y="6.38" class="st0" width="1.54" height="1.56"/>
	<rect x="16.76" y="7.93" class="st0" width="1.54" height="1.56"/>
	<rect x="13.67" y="6.38" class="st3" width="1.54" height="1.56"/>
	<rect x="16.76" y="6.38" class="st3" width="1.54" height="1.56"/>
	<rect x="12.13" y="7.93" class="st3" width="1.54" height="1.56"/>
	<rect x="15.21" y="7.93" class="st3" width="1.54" height="1.56"/>
	<rect x="18.3" y="7.93" class="st3" width="1.54" height="1.56"/>
	<rect x="15.21" y="9.49" class="st0" width="1.54" height="1.56"/>
	<rect x="13.67" y="11.05" class="st0" width="1.54" height="1.56"/>
	<rect x="16.76" y="11.05" class="st0" width="1.54" height="1.56"/>
	<rect x="13.67" y="9.49" class="st3" width="1.54" height="1.56"/>
	<rect x="16.76" y="9.49" class="st3" width="1.54" height="1.56"/>
	<rect x="15.21" y="11.05" class="st3" width="1.54" height="1.56"/>
	<path class="st0" d="M19.84,6.38v4.38c0,1.88-1.73,3.41-3.86,3.41c-2.13,0-3.86-1.53-3.86-3.41V6.38H19.84 M20.12,6.13h-8.27v4.63
		c0,2.01,1.85,3.65,4.13,3.65c2.28,0,4.13-1.64,4.13-3.65V6.13z M20.12,6.13"/>
	<path class="st0" d="M13.67,11.05V9.49h-1.54v1.27c0,0.1,0.01,0.2,0.02,0.29H13.67z M13.67,11.05"/>
	<path class="st3" d="M19.83,11.05H18.3v1.56h0.92C19.56,12.15,19.77,11.62,19.83,11.05L19.83,11.05z M19.83,11.05"/>
	<path class="st3" d="M12.75,12.61h0.92v-1.56h-1.53C12.2,11.62,12.41,12.15,12.75,12.61L12.75,12.61z M12.75,12.61"/>
	<path class="st0" d="M18.3,11.05h1.53c0.01-0.1,0.02-0.19,0.02-0.29V9.49H18.3V11.05z M18.3,11.05"/>
	<path class="st0" d="M13.67,13.48v-0.87h-0.92C12.99,12.95,13.31,13.24,13.67,13.48L13.67,13.48z M13.67,13.48"/>
	<path class="st0" d="M19.22,12.61H18.3v0.87C18.66,13.24,18.97,12.95,19.22,12.61L19.22,12.61z M19.22,12.61"/>
	<path class="st3" d="M13.67,13.48c0.45,0.3,0.97,0.52,1.54,0.62v-1.49h-1.54V13.48z M13.67,13.48"/>
	<path class="st3" d="M16.76,14.1c0.57-0.1,1.09-0.32,1.54-0.62v-0.87h-1.54V14.1z M16.76,14.1"/>
	<path class="st0" d="M16.76,12.61h-1.54v1.49c0.25,0.04,0.51,0.07,0.77,0.07s0.52-0.02,0.77-0.07V12.61z M16.76,12.61"/>
	<path class="st11" d="M13.19,3.8c-0.34-0.05-0.68-0.08-1.03-0.1c-0.27,0.2-0.53,0.4-0.77,0.62c0.25,0.53,0.49,1.05,0.74,1.57
		c0.49-0.18,1-0.33,1.51-0.43C13.49,4.9,13.34,4.35,13.19,3.8L13.19,3.8z M13.19,3.8"/>
	<path class="st11" d="M16.92,3.54c-0.3-0.13-0.61-0.26-0.94-0.37c-0.32,0.11-0.64,0.24-0.94,0.37c0.05,0.57,0.1,1.13,0.15,1.7
		c0.52-0.04,1.05-0.04,1.57,0C16.82,4.67,16.87,4.1,16.92,3.54L16.92,3.54z M16.92,3.54"/>
	<path class="st11" d="M20.58,4.31c-0.24-0.21-0.5-0.42-0.77-0.62c-0.35,0.02-0.69,0.05-1.03,0.1c-0.15,0.55-0.3,1.11-0.45,1.66
		c0.51,0.11,1.02,0.25,1.51,0.43C20.09,5.36,20.33,4.84,20.58,4.31L20.58,4.31z M20.58,4.31"/>
	<path class="st4" d="M15.05,3.54c-0.32-0.09-0.65-0.17-0.99-0.24c-0.3,0.16-0.59,0.32-0.86,0.5c0.15,0.55,0.3,1.11,0.45,1.66
		c0.51-0.11,1.03-0.18,1.56-0.22C15.15,4.67,15.1,4.1,15.05,3.54L15.05,3.54z M15.05,3.54"/>
	<path class="st4" d="M18.78,3.8c-0.28-0.18-0.56-0.34-0.86-0.5c-0.34,0.07-0.67,0.15-0.99,0.24c-0.05,0.57-0.1,1.13-0.15,1.7
		c0.52,0.04,1.04,0.11,1.56,0.22C18.48,4.9,18.63,4.35,18.78,3.8L18.78,3.8z M18.78,3.8"/>
	<path class="st0" d="M15.11,4.22c-0.58,0.04-1.16,0.12-1.74,0.24c-0.03-0.11-0.06-0.22-0.09-0.33c0.59-0.12,1.19-0.21,1.8-0.25
		C15.09,3.99,15.1,4.1,15.11,4.22L15.11,4.22z M15.11,4.22"/>
	<path class="st0" d="M15.17,4.9c-0.54,0.04-1.08,0.11-1.62,0.23c-0.03-0.11-0.06-0.22-0.09-0.33c0.55-0.12,1.11-0.19,1.68-0.23
		C15.15,4.67,15.16,4.78,15.17,4.9L15.17,4.9z M15.17,4.9"/>
	<path class="st7" d="M17.82,5.01c-0.13-0.02-0.27-0.04-0.4-0.06c-0.22-0.03-0.39-0.19-0.37-0.38c0.02-0.19,0.23-0.32,0.47-0.29
		c0.15,0.02,0.29,0.04,0.43,0.06c0.24,0.04,0.4,0.23,0.35,0.41C18.25,4.93,18.04,5.05,17.82,5.01L17.82,5.01z M17.82,5.01"/>
	<path class="st0" d="M19.99,5.57c-0.51-0.19-1.04-0.34-1.57-0.45c0.03-0.11,0.06-0.22,0.09-0.33c0.55,0.12,1.1,0.27,1.63,0.47
		C20.09,5.36,20.04,5.47,19.99,5.57L19.99,5.57z M19.99,5.57"/>
	<path class="st7" d="M19.85,4.55c-0.05,0.13-0.24,0.2-0.41,0.15c-0.17-0.05-0.28-0.2-0.24-0.33c0.04-0.14,0.23-0.21,0.41-0.15
		C19.8,4.26,19.91,4.42,19.85,4.55L19.85,4.55z M19.85,4.55"/>
	<path class="st7" d="M12.76,4.37c0.04,0.14-0.06,0.28-0.24,0.33c-0.17,0.05-0.36-0.01-0.41-0.15c-0.05-0.13,0.05-0.29,0.23-0.34
		C12.53,4.16,12.72,4.23,12.76,4.37L12.76,4.37z M12.76,4.37"/>
	<path class="st7" d="M15.9,4.14c0,0.11-0.11,0.2-0.26,0.21c-0.14,0-0.26-0.08-0.27-0.19c-0.01-0.11,0.11-0.21,0.26-0.21
		C15.77,3.94,15.9,4.03,15.9,4.14L15.9,4.14z M15.9,4.14"/>
	<path class="st7" d="M16.6,4.16c-0.01,0.11-0.13,0.2-0.27,0.19c-0.14,0-0.26-0.1-0.26-0.21c0-0.11,0.12-0.2,0.27-0.2
		C16.49,3.95,16.61,4.04,16.6,4.16L16.6,4.16z M16.6,4.16"/>
	<path class="st7" d="M16.23,4.67c0,0.11-0.12,0.2-0.25,0.2c-0.13,0-0.25-0.09-0.25-0.2c0-0.11,0.11-0.21,0.25-0.21
		C16.13,4.46,16.24,4.56,16.23,4.67L16.23,4.67z M16.23,4.67"/>
</g>
</svg>
