<?xml version="1.0" encoding="utf-8"?>
<!-- Generator: Adobe Illustrator 25.0.0, SVG Export Plug-In . SVG Version: 6.00 Build 0)  -->
<svg version="1.1" id="Capa_1" xmlns="http://www.w3.org/2000/svg" xmlns:xlink="http://www.w3.org/1999/xlink" x="0px" y="0px"
	 viewBox="0 0 32 18.62" style="enable-background:new 0 0 32 18.62;" xml:space="preserve">
<style type="text/css">
	.st0{fill:#FF4B55;}
	.st1{fill:#464655;}
	.st2{fill:#73AF00;}
	.st3{fill:#F5F5F5;}
	.st4{fill:#41479B;}
	.st5{fill:#FFF5DC;}
	.st6{fill:#D27D69;}
	.st7{fill:#FFE15A;}
	.st8{fill:#B95546;}
	.st9{fill:#DCBE82;}
	.st10{fill:#D2AA73;}
	.st11{fill:#4173CD;}
	.st12{fill:#82AFFF;}
	.st13{fill:#F09146;}
	.st14{fill:#FFB400;}
	.st15{fill:#965032;}
	.st16{fill:#BE7855;}
	.st17{fill:#FFBE3C;}
	.st18{fill:#EAF3F5;}
	.st19{fill:#8C5A28;}
	.st20{fill:#F0C850;}
	.st21{fill:#FF6E55;}
	.st22{fill:#FFBE5A;}
	.st23{fill:#3CC8FF;}
	.st24{fill:#825546;}
	.st25{fill:#FFD255;}
	.st26{fill:#FFD25A;}
	.st27{fill:#509664;}
	.st28{fill:#F0AA00;}
	.st29{fill:#A561CD;}
	.st30{fill:#B34900;}
	.st31{fill:#64B496;}
	.st32{fill:#FF6B71;}
	.st33{fill:#5F64B9;}
	.st34{fill:#F5F0F0;}
	.st35{fill:#5A4646;}
	.st36{fill:#E6E1CD;}
	.st37{fill:#FFD0AF;}
	.st38{fill:#FFAF94;}
	.st39{fill:#8CB400;}
	.st40{fill:#69C3FF;}
	.st41{fill:#009B64;}
	.st42{fill:#5AA0E6;}
	.st43{fill:#FFC88C;}
	.st44{fill:#E1E1E1;}
	.st45{fill:#966446;}
	.st46{fill:#BE915A;}
	.st47{fill:#B9B9B9;}
	.st48{fill:#F0C727;}
	.st49{fill:#50AF69;}
	.st50{fill:#FFE6E6;}
	.st51{fill:#FFB750;}
	.st52{fill:#FFC455;}
	.st53{fill:#FFCD55;}
	.st54{fill:#9BC800;}
	.st55{fill:#FFE14E;}
	.st56{fill:#FFB14E;}
	.st57{fill:#B46446;}
	.st58{fill:#5FA000;}
	.st59{fill:#F2DD30;}
	.st60{fill:#FFC855;}
	.st61{fill:#A0A0A0;}
	.st62{fill:#69B469;}
	.st63{fill:#F4E08F;}
	.st64{fill:#ECD077;}
	.st65{fill:#FCF0A8;}
	.st66{fill:#FAB446;}
	.st67{fill:#C8414B;}
	.st68{fill:#FF9B46;}
	.st69{fill:#FF9B55;}
	.st70{fill:#82C3D2;}
	.st71{fill:#5AA587;}
	.st72{fill:#CDCDCD;}
	.st73{fill:#B4A08C;}
	.st74{fill:#FFD250;}
	.st75{fill:#00C3A0;}
	.st76{fill:#00AADC;}
	.st77{fill:#732D37;}
	.st78{fill:#AAD264;}
	.st79{fill:#874150;}
	.st80{fill:#783C46;}
	.st81{fill:#FFB478;}
	.st82{fill:#9B4B5A;}
	.st83{fill:#FFCD5A;}
	.st84{fill:#FFAA5A;}
	.st85{fill:#FF875A;}
	.st86{fill:#E6B432;}
	.st87{fill:#C86464;}
	.st88{fill:#FFF5E1;}
	.st89{fill:#963C3C;}
	.st90{fill:#5A8250;}
	.st91{fill:#AFEBFF;}
	.st92{fill:#557DE6;}
	.st93{fill:#D23741;}
	.st94{fill:#64C86E;}
	.st95{fill:#873250;}
	.st96{fill:#41AA5A;}
	.st97{fill:#8CD7FF;}
	.st98{fill:#6EC86E;}
	.st99{fill:#FFF0E1;}
	.st100{fill:#FFC75A;}
	.st101{fill:#FFD350;}
	.st102{fill:#FFBE50;}
	.st103{fill:#A54B50;}
	.st104{fill:#C87878;}
	.st105{fill:#FF1722;}
	.st106{fill:#FFB441;}
	.st107{fill:#5064AA;}
	.st108{fill:#FFA0D2;}
	.st109{fill:#FF7350;}
	.st110{fill:#245DBD;}
	.st111{fill:#D35A10;}
	.st112{fill:#FFA033;}
	.st113{fill:#FF9480;}
	.st114{fill:#FFA0E4;}
	.st115{fill:#696E7D;}
	.st116{fill:#FFFCFF;}
	.st117{fill:#EBEBEB;}
	.st118{fill:#FF4B57;}
	.st119{fill:#D2D2D2;}
	.st120{fill:#F0C814;}
	.st121{fill:#F7B518;}
	.st122{fill:#2C2F38;}
	.st123{fill:#4C8056;}
	.st124{fill:#F0C419;}
	.st125{fill:#C03A2B;}
	.st126{fill:#EA3F3F;}
	.st127{fill:#E4E3E1;}
	.st128{fill:#2472B2;}
</style>
<g>
	<path class="st0" d="M31.42,18.55H0.55c-0.3,0-0.55-0.22-0.55-0.49V0.53c0-0.27,0.25-0.49,0.55-0.49h30.87
		c0.3,0,0.55,0.22,0.55,0.49v17.53C31.97,18.33,31.72,18.55,31.42,18.55L31.42,18.55z M31.42,18.55"/>
	<path class="st7" d="M16.06,9.32L15.91,9.4c-0.26-0.34-0.25-1.16-0.25-1.17c0-0.02-0.01-0.05-0.04-0.06l-1.14-0.44l0.01-0.1
		c0.6,0.06,1.29,0.31,1.3,0.31c0.02,0.01,0.05,0.01,0.07-0.01l0.95-0.7l0.2,0.16c-0.3,0.32-1.02,0.77-1.03,0.77
		c-0.03,0.01-0.04,0.03-0.04,0.06L16.06,9.32z M16.06,9.32"/>
	<path class="st7" d="M20.22,4.33c0.02,0.01,0.05,0.01,0.07-0.01l0.25-0.16l-0.08,0.2c-0.01,0.02,0,0.05,0.02,0.07l0.12,0.09
		c-0.03,0.05-0.05,0.12-0.05,0.18l-0.17,0.08c-0.01,0.01-0.03,0.02-0.03,0.03l-0.13,0.28l-0.07-0.23c-0.01-0.03-0.04-0.05-0.08-0.04
		l-0.31,0.04L20,4.61c0.01-0.01,0.02-0.03,0.02-0.05l-0.06-0.33L20.22,4.33z M20.22,4.33"/>
	<path class="st7" d="M17.39,13.36c-0.02,0.01-0.03,0.04-0.03,0.06l0.04,0.27l-0.16-0.16c-0.02-0.02-0.05-0.02-0.07-0.02l-0.15,0.05
		c-0.03-0.05-0.09-0.09-0.16-0.13l0.01-0.17c0-0.01,0-0.03-0.01-0.04l-0.21-0.23l0.26,0.06c0.03,0.01,0.07-0.01,0.08-0.04l0.11-0.26
		l0.13,0.32c0.01,0.02,0.02,0.03,0.04,0.04l0.36,0.12L17.39,13.36z M17.39,13.36"/>
	<path class="st7" d="M9.81,7.01c0-0.02-0.02-0.04-0.05-0.05L9.48,6.88l0.23-0.06c0.03-0.01,0.05-0.03,0.05-0.05l0.02-0.14
		c0.07,0,0.14-0.03,0.2-0.07l0.17,0.08c0.01,0.01,0.03,0.01,0.05,0.01l0.33-0.06l-0.17,0.18c-0.02,0.02-0.02,0.06,0,0.08l0.21,0.21
		l-0.38-0.04c-0.02,0-0.04,0-0.06,0.02L9.85,7.26L9.81,7.01z M9.81,7.01"/>
	<path class="st3" d="M15.88,15.29c-0.17,0.3-0.53,0.55-0.62,0.56c-0.02,0-0.03,0-0.04-0.01c-0.04-0.04-0.06-0.15-0.01-0.3
		c0.01-0.01,0.01-0.03,0.02-0.06L15.88,15.29z M15.88,15.29"/>
	<path class="st3" d="M16.01,14.98c-0.02,0.06-0.04,0.12-0.06,0.16l-0.67,0.2c0.02-0.05,0.04-0.11,0.06-0.18L16.01,14.98z
		 M16.01,14.98"/>
	<path class="st7" d="M16.16,14.65c-0.03,0.07-0.06,0.13-0.09,0.19l-0.69,0.19c0.02-0.07,0.04-0.13,0.06-0.2L16.16,14.65z
		 M16.16,14.65"/>
	<path class="st3" d="M16.29,14.41c-0.02,0.03-0.04,0.06-0.06,0.1l-0.75,0.18c0.03-0.11,0.06-0.23,0.08-0.32L16.29,14.41z
		 M16.29,14.41"/>
	<path class="st3" d="M16.5,14.15c-0.04,0.04-0.09,0.08-0.13,0.14l-0.79-0.05c0.01-0.06,0.02-0.12,0.02-0.16
		c0-0.03,0-0.06-0.01-0.09c0.03,0,0.06,0,0.09,0c0.2,0,0.34-0.03,0.44-0.08C16.24,14.05,16.39,14.12,16.5,14.15L16.5,14.15z
		 M16.5,14.15"/>
	<path class="st3" d="M16.66,14.05c-0.05,0-0.27-0.02-0.42-0.21c0.07-0.06,0.11-0.12,0.13-0.16c0.08-0.21-0.49-0.52-0.85-0.7
		c-0.17-0.08-0.3-0.24-0.41-0.42c0.01,0,0.02,0,0.04,0c0.18,0,0.32-0.07,0.39-0.13c0.07,0.1,0.13,0.19,0.18,0.27
		c0.25,0.38,0.37,0.55,0.64,0.71c0.01,0,0.02,0.01,0.03,0.01c0.13,0.01,0.51,0.09,0.53,0.23C16.95,13.86,16.87,13.98,16.66,14.05
		L16.66,14.05z M16.66,14.05"/>
	<path class="st3" d="M16.24,13.64c-0.03,0.08-0.16,0.25-0.66,0.22c-0.04-0.25-0.17-0.43-0.37-0.52c-0.26-0.11-1.24-0.73-1.69-1.1
		c0.09-0.25,0.32-0.45,0.65-0.56c0.05-0.02,0.09-0.03,0.12-0.05c0.09,0.06,0.17,0.13,0.23,0.21c0.1,0.13,0.19,0.29,0.28,0.46
		c0.17,0.31,0.35,0.64,0.65,0.78C16,13.35,16.27,13.58,16.24,13.64L16.24,13.64z M16.24,13.64"/>
	<path class="st3" d="M15.47,12.33c-0.05,0.05-0.23,0.15-0.44,0.1c-0.03-0.06-0.06-0.11-0.1-0.17c-0.1-0.18-0.19-0.34-0.3-0.48
		c-0.06-0.08-0.14-0.15-0.23-0.21c0.12-0.1,0.14-0.2,0.15-0.29c0.22,0.17,0.42,0.37,0.61,0.63C15.29,12.07,15.38,12.21,15.47,12.33
		L15.47,12.33z M15.47,12.33"/>
	<path class="st3" d="M14.43,11.19c0,0.02-0.01,0.04-0.01,0.06c-0.01,0.08-0.01,0.16-0.12,0.24c-0.23-0.15-0.5-0.25-0.73-0.31
		c0.1-0.1,0.17-0.19,0.21-0.28h0C14,10.95,14.22,11.05,14.43,11.19L14.43,11.19z M14.43,11.19"/>
	<path class="st3" d="M14.16,11.55c-0.01,0-0.03,0.01-0.04,0.02c-0.35,0.11-0.6,0.32-0.71,0.58c-0.14-0.12-0.23-0.23-0.31-0.31
		c-0.09-0.1-0.16-0.17-0.25-0.23c0.25-0.11,0.45-0.22,0.6-0.33h0.01C13.67,11.33,13.93,11.42,14.16,11.55L14.16,11.55z M14.16,11.55
		"/>
	<path class="st3" d="M13.32,11.21c-0.14,0.1-0.35,0.21-0.63,0.33c-0.07-0.01-0.13-0.03-0.19-0.04c-0.14-0.02-0.22-0.04-0.29-0.11
		c-0.04-0.04-0.12-0.15-0.2-0.29c0.01,0,0.02,0.01,0.03,0.01c0.08,0.02,0.19-0.01,0.33-0.06c0.17-0.05,0.39-0.11,0.58-0.09
		c0.17,0.02,0.22,0.08,0.28,0.15C13.26,11.15,13.29,11.18,13.32,11.21L13.32,11.21z M13.32,11.21"/>
	<path class="st7" d="M13.65,10.84c-0.02,0.08-0.08,0.17-0.22,0.29c-0.03-0.02-0.06-0.05-0.08-0.08c-0.06-0.08-0.14-0.17-0.37-0.2
		c-0.22-0.03-0.46,0.04-0.64,0.1c-0.1,0.03-0.22,0.07-0.26,0.06c-0.05-0.01-0.11-0.08-0.11-0.14c0-0.08,0.07-0.11,0.14-0.13
		c0.14-0.04,0.32-0.01,0.49,0.02c0.17,0.03,0.34,0.06,0.47,0.01c0.09-0.03,0.2-0.13,0.32-0.28c0.09,0.02,0.16,0.04,0.21,0.1
		C13.66,10.67,13.67,10.75,13.65,10.84L13.65,10.84z M13.65,10.84"/>
	<path class="st3" d="M13.23,10.47c-0.09,0.09-0.16,0.16-0.22,0.18c-0.09,0.03-0.24,0.01-0.4-0.02c-0.18-0.03-0.38-0.06-0.55-0.01
		c-0.11,0.03-0.16,0.07-0.2,0.12c-0.03-0.13-0.03-0.26,0.04-0.37c0.07-0.11,0.16-0.2,0.25-0.29c0.12,0.01,0.22,0.04,0.53,0.28
		c0.11,0.08,0.28,0.09,0.45,0.1C13.17,10.47,13.2,10.47,13.23,10.47L13.23,10.47z M13.23,10.47"/>
	<path class="st3" d="M15.79,9.46c-0.31,0.18-1.69,0.98-1.98,1.09c-0.01,0-0.02,0.01-0.03,0.02c-0.01,0.01-0.01,0.02-0.02,0.03
		c-0.01-0.03-0.03-0.06-0.06-0.09c-0.06-0.07-0.14-0.11-0.23-0.13c0.04-0.05,0.08-0.1,0.13-0.15c0.2-0.24,0.43-0.51,0.69-0.75
		c0.45-0.41,1.05-0.69,1.25-0.77C15.58,8.97,15.65,9.27,15.79,9.46L15.79,9.46z M15.79,9.46"/>
	<path class="st3" d="M15.54,8.58c-0.14,0.06-0.83,0.34-1.34,0.82c-0.27,0.25-0.51,0.53-0.7,0.77c-0.06,0.07-0.11,0.13-0.17,0.2
		c-0.06,0-0.12-0.01-0.18-0.01c-0.15-0.01-0.3-0.02-0.37-0.07c-0.27-0.21-0.39-0.27-0.51-0.29c0.01-0.01,0.02-0.02,0.03-0.03
		c0.17-0.16,0.36-0.32,0.5-0.55c0.25-0.39,1.08-1.25,1.62-1.56l1.1,0.42C15.52,8.33,15.53,8.44,15.54,8.58L15.54,8.58z M15.54,8.58"
		/>
	<path class="st3" d="M8.53,4.96C8.3,4.69,8.21,4.29,8.24,4.21c0-0.01,0.02-0.02,0.03-0.03C8.33,4.17,8.45,4.2,8.58,4.31
		c0.01,0.01,0.03,0.02,0.05,0.04L8.53,4.96z M8.53,4.96"/>
	<path class="st3" d="M8.79,5.19c-0.05-0.04-0.1-0.09-0.14-0.12l0.1-0.62C8.8,4.49,8.85,4.53,8.9,4.58L8.79,5.19z M8.79,5.19"/>
	<path class="st7" d="M9.06,5.46C9.01,5.4,8.96,5.35,8.91,5.3l0.12-0.62C9.08,4.72,9.14,4.77,9.2,4.81L9.06,5.46z M9.06,5.46"/>
	<path class="st3" d="M9.24,5.67C9.22,5.64,9.2,5.61,9.17,5.58l0.15-0.68c0.1,0.08,0.2,0.15,0.29,0.21L9.24,5.67z M9.24,5.67"/>
	<path class="st3" d="M9.41,5.95C9.39,5.9,9.36,5.85,9.32,5.79l0.41-0.6c0.06,0.04,0.11,0.07,0.15,0.09
		c0.03,0.01,0.06,0.03,0.1,0.04C9.97,5.34,9.95,5.36,9.94,5.38C9.85,5.54,9.82,5.67,9.82,5.77C9.62,5.79,9.49,5.88,9.41,5.95
		L9.41,5.95z M9.41,5.95"/>
	<path class="st3" d="M9.44,6.13c0.03-0.04,0.15-0.2,0.41-0.24c0.02,0.08,0.07,0.14,0.1,0.17c0.17,0.16,0.75-0.16,1.08-0.36
		c0.16-0.09,0.37-0.13,0.61-0.14c-0.01,0.01-0.01,0.02-0.02,0.03c-0.08,0.14-0.07,0.28-0.04,0.37c-0.13,0.01-0.25,0.02-0.35,0.03
		c-0.49,0.03-0.72,0.05-1.01,0.18c-0.01,0-0.02,0.01-0.02,0.02c-0.07,0.1-0.31,0.36-0.47,0.31C9.51,6.44,9.41,6.32,9.44,6.13
		L9.44,6.13z M9.44,6.13"/>
	<path class="st3" d="M10.04,5.98c-0.07-0.06-0.19-0.24,0.07-0.62c0.28,0.08,0.52,0.06,0.69-0.06c0.23-0.16,1.29-0.66,1.87-0.85
		c0.21,0.18,0.31,0.46,0.28,0.76c0,0.04-0.01,0.08-0.01,0.12c-0.1,0.04-0.21,0.07-0.32,0.09c-0.17,0.02-0.38,0.02-0.59,0.02
		c-0.39,0-0.8-0.01-1.08,0.16C10.44,5.91,10.09,6.02,10.04,5.98L10.04,5.98z M10.04,5.98"/>
	<path class="st3" d="M11.71,5.95c-0.02-0.06-0.05-0.25,0.1-0.39c0.07,0,0.14,0,0.21,0c0.22,0,0.43,0,0.62-0.02
		c0.11-0.01,0.22-0.05,0.32-0.09C13,5.59,13.1,5.65,13.18,5.7c-0.27,0.1-0.57,0.17-0.91,0.2C12.06,5.92,11.88,5.94,11.71,5.95
		L11.71,5.95z M11.71,5.95"/>
	<path class="st3" d="M13.33,5.64c-0.02-0.01-0.04-0.02-0.06-0.03c-0.08-0.04-0.16-0.08-0.18-0.2c0.25-0.12,0.47-0.29,0.64-0.44
		c0.05,0.13,0.12,0.22,0.19,0.29l0,0C13.76,5.41,13.56,5.54,13.33,5.64L13.33,5.64z M13.33,5.64"/>
	<path class="st3" d="M13.08,5.26c0-0.01,0-0.03,0-0.04c0.04-0.32-0.06-0.62-0.26-0.82C13,4.35,13.15,4.32,13.27,4.3
		c0.14-0.02,0.25-0.05,0.34-0.09c0,0.25,0.03,0.45,0.07,0.62c0,0,0,0,0,0C13.53,4.98,13.32,5.14,13.08,5.26L13.08,5.26z M13.08,5.26
		"/>
	<path class="st3" d="M13.81,4.75c-0.04-0.16-0.06-0.37-0.06-0.65c0.04-0.05,0.09-0.09,0.12-0.13c0.08-0.1,0.14-0.16,0.24-0.18
		c0.06-0.02,0.21-0.03,0.38-0.03c-0.01,0.01-0.02,0.01-0.03,0.02c-0.05,0.06-0.07,0.16-0.09,0.29c-0.03,0.16-0.06,0.36-0.17,0.5
		c-0.1,0.13-0.18,0.14-0.27,0.15C13.89,4.73,13.85,4.74,13.81,4.75L13.81,4.75z M13.81,4.75"/>
	<path class="st7" d="M14.03,5.18c-0.07-0.05-0.14-0.14-0.19-0.3c0.03-0.02,0.07-0.02,0.11-0.03c0.1-0.01,0.23-0.03,0.37-0.2
		c0.13-0.16,0.16-0.38,0.19-0.55c0.01-0.1,0.03-0.2,0.06-0.23c0.03-0.03,0.12-0.05,0.19-0.02c0.08,0.03,0.08,0.11,0.07,0.17
		c-0.02,0.13-0.13,0.26-0.24,0.38c-0.11,0.12-0.21,0.24-0.22,0.37c-0.01,0.09,0.05,0.21,0.13,0.38c-0.06,0.06-0.12,0.11-0.19,0.12
		C14.2,5.26,14.11,5.24,14.03,5.18L14.03,5.18z M14.03,5.18"/>
	<path class="st3" d="M14.6,5.01c-0.06-0.11-0.09-0.2-0.09-0.25c0.01-0.09,0.1-0.19,0.19-0.3c0.11-0.13,0.23-0.27,0.26-0.43
		c0.02-0.09,0-0.16-0.03-0.21c0.15,0.04,0.28,0.09,0.35,0.19c0.08,0.1,0.13,0.21,0.18,0.33c-0.07,0.09-0.13,0.15-0.52,0.29
		c-0.13,0.05-0.22,0.18-0.3,0.31C14.63,4.97,14.61,4.99,14.6,5.01L14.6,5.01z M14.6,5.01"/>
	<path class="st3" d="M14.47,7.49c-0.04-0.33-0.24-1.77-0.22-2.05c0-0.01,0-0.03-0.01-0.04c-0.01-0.01-0.02-0.02-0.02-0.03
		c0.04,0,0.08,0,0.12,0c0.1-0.01,0.17-0.06,0.24-0.12c0.03,0.05,0.06,0.11,0.09,0.17c0.16,0.27,0.33,0.57,0.45,0.88
		c0.22,0.54,0.23,1.14,0.22,1.34C15.07,7.58,14.76,7.52,14.47,7.49L14.47,7.49z M14.47,7.49"/>
	<path class="st3" d="M15.48,7.68c0.01-0.14,0.02-0.81-0.23-1.42c-0.13-0.33-0.31-0.64-0.46-0.9c-0.04-0.08-0.09-0.15-0.12-0.22
		C14.7,5.1,14.73,5.05,14.76,5c0.08-0.12,0.15-0.23,0.24-0.26c0.33-0.12,0.44-0.19,0.52-0.27c0,0.01,0.01,0.02,0.02,0.04
		c0.08,0.21,0.16,0.42,0.33,0.64c0.29,0.37,0.78,1.41,0.85,1.98L15.8,7.81C15.74,7.78,15.63,7.73,15.48,7.68L15.48,7.68z
		 M15.48,7.68"/>
	<path class="st3" d="M22.86,4.56c0.38-0.02,0.8,0.15,0.86,0.21c0.01,0.01,0.01,0.02,0.01,0.04c-0.02,0.05-0.12,0.12-0.3,0.15
		c-0.02,0-0.04,0.01-0.06,0.01L22.86,4.56z M22.86,4.56"/>
	<path class="st3" d="M22.5,4.62c0.07-0.01,0.14-0.02,0.19-0.04l0.52,0.42c-0.06,0.01-0.13,0.02-0.2,0.04L22.5,4.62z M22.5,4.62"/>
	<path class="st7" d="M22.09,4.66c0.08-0.01,0.16-0.01,0.23-0.02l0.52,0.44c-0.07,0.02-0.15,0.03-0.23,0.05L22.09,4.66z M22.09,4.66
		"/>
	<path class="st3" d="M21.79,4.68c0.04,0,0.08,0,0.12,0l0.54,0.49c-0.13,0.03-0.25,0.06-0.36,0.09L21.79,4.68z M21.79,4.68"/>
	<path class="st3" d="M21.44,4.64c0.06,0.02,0.12,0.03,0.2,0.03l0.33,0.64c-0.07,0.02-0.13,0.04-0.17,0.06
		c-0.03,0.02-0.06,0.03-0.09,0.05c-0.01-0.02-0.03-0.05-0.04-0.07c-0.1-0.15-0.2-0.25-0.29-0.3C21.47,4.88,21.46,4.74,21.44,4.64
		L21.44,4.64z M21.44,4.64"/>
	<path class="st3" d="M21.26,4.56c0.02,0.04,0.11,0.22-0.01,0.43c-0.09-0.03-0.17-0.03-0.22-0.02C20.79,5,20.75,5.6,20.75,5.96
		c0,0.17-0.09,0.34-0.22,0.52c0-0.01-0.01-0.02-0.02-0.03c-0.09-0.14-0.23-0.21-0.32-0.24c0.06-0.1,0.12-0.19,0.17-0.27
		c0.25-0.38,0.36-0.55,0.4-0.84c0-0.01,0-0.02,0-0.03c-0.05-0.11-0.16-0.43-0.02-0.52C20.93,4.44,21.09,4.44,21.26,4.56L21.26,4.56z
		 M21.26,4.56"/>
	<path class="st3" d="M21.05,5.09c0.09-0.01,0.33,0,0.54,0.4c-0.23,0.16-0.35,0.34-0.33,0.54c0.02,0.26-0.12,1.31-0.27,1.84
		c-0.29,0.05-0.6-0.03-0.87-0.23c-0.04-0.03-0.07-0.05-0.11-0.07c0.02-0.1,0.05-0.2,0.1-0.29c0.08-0.14,0.19-0.29,0.32-0.44
		c0.22-0.29,0.46-0.58,0.46-0.88C20.89,5.41,20.99,5.1,21.05,5.09L21.05,5.09z M21.05,5.09"/>
	<path class="st3" d="M20.13,6.32c0.07,0.02,0.26,0.1,0.31,0.29c-0.04,0.05-0.08,0.1-0.12,0.16C20.2,6.93,20.08,7.08,20,7.23
		c-0.05,0.09-0.08,0.18-0.1,0.28c-0.15-0.05-0.27-0.02-0.35,0.02c0.06-0.25,0.16-0.51,0.33-0.78C19.97,6.59,20.05,6.45,20.13,6.32
		L20.13,6.32z M20.13,6.32"/>
	<path class="st3" d="M19.51,7.68c0.02-0.01,0.04-0.02,0.07-0.03c0.08-0.04,0.17-0.07,0.29-0.02c-0.03,0.25,0,0.51,0.04,0.71
		c-0.15-0.03-0.27-0.04-0.38-0.02l0,0C19.48,8.12,19.48,7.9,19.51,7.68L19.51,7.68z M19.51,7.68"/>
	<path class="st3" d="M20,7.71c0.01,0.01,0.02,0.01,0.04,0.02c0.28,0.21,0.61,0.31,0.92,0.27c-0.05,0.16-0.11,0.29-0.16,0.39
		c-0.06,0.11-0.1,0.21-0.11,0.3c-0.23-0.14-0.44-0.24-0.62-0.3c0,0,0,0,0,0C20.02,8.19,19.98,7.95,20,7.71L20,7.71z M20,7.71"/>
	<path class="st3" d="M20.07,8.52c0.17,0.06,0.38,0.16,0.64,0.32c0.02,0.06,0.04,0.12,0.05,0.16c0.04,0.12,0.07,0.19,0.04,0.28
		c-0.02,0.05-0.09,0.17-0.19,0.29c0-0.01,0-0.02,0-0.03c-0.02-0.07-0.11-0.14-0.22-0.23c-0.14-0.11-0.3-0.24-0.37-0.4
		c-0.07-0.14-0.03-0.21,0.01-0.29C20.04,8.6,20.06,8.56,20.07,8.52L20.07,8.52z M20.07,8.52"/>
	<path class="st7" d="M19.55,8.45c0.09-0.02,0.21-0.02,0.39,0.03c0,0.04-0.02,0.07-0.04,0.1c-0.05,0.08-0.1,0.19-0.02,0.38
		c0.08,0.19,0.26,0.33,0.41,0.45c0.08,0.07,0.17,0.13,0.18,0.17c0.01,0.04-0.02,0.12-0.09,0.15c-0.07,0.04-0.15,0-0.19-0.05
		c-0.11-0.09-0.16-0.24-0.22-0.39c-0.06-0.15-0.11-0.29-0.22-0.37c-0.08-0.05-0.23-0.09-0.43-0.12c-0.03-0.08-0.04-0.15,0-0.21
		C19.37,8.52,19.45,8.47,19.55,8.45L19.55,8.45z M19.55,8.45"/>
	<path class="st3" d="M19.38,8.95c0.13,0.02,0.24,0.05,0.28,0.08c0.08,0.06,0.13,0.18,0.17,0.31c0.06,0.15,0.12,0.32,0.25,0.43
		c0.08,0.07,0.15,0.09,0.21,0.09c-0.12,0.09-0.25,0.15-0.38,0.15c-0.14,0-0.27-0.03-0.41-0.06c-0.05-0.1-0.07-0.18,0.02-0.55
		c0.03-0.12-0.05-0.26-0.12-0.4C19.41,9,19.39,8.98,19.38,8.95L19.38,8.95z M19.38,8.95"/>
	<path class="st3" d="M17.14,7.46c0.33,0.15,1.79,0.83,2.03,1c0.01,0.01,0.03,0.01,0.04,0.01c0.02,0,0.03,0,0.04,0
		c-0.02,0.03-0.04,0.06-0.06,0.09c-0.04,0.08-0.04,0.16-0.02,0.24c-0.07-0.01-0.13-0.02-0.21-0.03c-0.34-0.04-0.72-0.08-1.08-0.17
		c-0.63-0.15-1.19-0.48-1.37-0.59C16.71,7.86,16.97,7.65,17.14,7.46L17.14,7.46z M17.14,7.46"/>
	<path class="st3" d="M16.39,8.09c0.13,0.08,0.74,0.47,1.46,0.64c0.38,0.09,0.78,0.14,1.1,0.17c0.1,0.01,0.19,0.02,0.27,0.03
		c0.02,0.05,0.05,0.1,0.08,0.14c0.06,0.12,0.13,0.24,0.11,0.32c-0.07,0.3-0.07,0.43-0.04,0.54c-0.01,0-0.03-0.01-0.04-0.01
		c-0.24-0.06-0.49-0.12-0.78-0.12c-0.51,0-1.76-0.23-2.33-0.5l-0.11-1.05C16.15,8.22,16.26,8.16,16.39,8.09L16.39,8.09z M16.39,8.09
		"/>
	<path class="st1" d="M23.85,4.72c-0.01-0.01-0.01-0.02-0.02-0.03c-0.11-0.11-0.73-0.33-1.18-0.23c-0.48,0.11-1.13,0.13-1.29,0.01
		c-0.21-0.16-0.44-0.17-0.66-0.03L20.6,4.37l0.14-0.35c0.01-0.02,0-0.03,0-0.05c0-0.01-0.01-0.01-0.02-0.02
		c-0.02-0.02-0.06-0.02-0.08,0l-0.39,0.26l-0.33-0.15c-0.02-0.01-0.05-0.01-0.07,0c-0.02,0.01-0.03,0.04-0.03,0.06l0.07,0.42
		L19.52,4.9c-0.02,0.02-0.02,0.05-0.01,0.07C19.53,4.98,19.56,5,19.59,5l0.44-0.05l0.11,0.35c0.01,0.03,0.03,0.04,0.06,0.04
		c0.03,0,0.06-0.01,0.07-0.04l0.2-0.42l0.1-0.04c0.02,0.12,0.06,0.22,0.08,0.27c-0.03,0.25-0.14,0.42-0.38,0.78
		c-0.13,0.2-0.3,0.45-0.51,0.82c-0.36,0.6-0.47,1.16-0.34,1.65c-0.04,0-0.1,0-0.16,0c-0.33-0.22-2.03-1-2.1-1.03
		c0,0-0.28-0.21-0.28-0.21c-0.08-0.59-0.58-1.64-0.87-2.03c-0.16-0.2-0.24-0.41-0.32-0.61c-0.07-0.19-0.14-0.36-0.26-0.53
		c-0.27-0.37-1.12-0.32-1.33-0.27c-0.15,0.03-0.23,0.12-0.31,0.23c-0.04,0.04-0.08,0.09-0.13,0.14c-0.08,0.08-0.2,0.1-0.39,0.14
		c-0.15,0.03-0.33,0.06-0.58,0.14c-0.57,0.18-1.71,0.71-1.95,0.88c-0.24,0.16-0.59,0.05-0.77-0.03C9.68,5.05,8.89,4.41,8.68,4.23
		C8.53,4.1,8.36,4.04,8.24,4.06c-0.05,0.01-0.1,0.04-0.12,0.08C8.11,4.16,8.11,4.17,8.1,4.18C8.06,4.32,8.21,4.9,8.56,5.16
		C8.93,5.45,9.32,5.91,9.3,6.1C9.26,6.34,9.39,6.51,9.65,6.6L9.63,6.71l-0.4,0.1c-0.02,0-0.03,0.02-0.04,0.03
		c0,0.01-0.01,0.02-0.01,0.03c0,0.03,0.02,0.05,0.05,0.06l0.46,0.14l0.05,0.33c0,0.02,0.02,0.04,0.04,0.05
		c0.02,0.01,0.05,0,0.07-0.01l0.35-0.29l0.53,0.06c0.03,0,0.06-0.01,0.07-0.03c0.01-0.02,0.01-0.05-0.01-0.07l-0.3-0.29l0.27-0.28
		c0.02-0.02,0.02-0.05,0.01-0.07c-0.02-0.02-0.04-0.03-0.07-0.03l-0.5,0.09l-0.1-0.05c0.1-0.08,0.17-0.17,0.2-0.21
		c0.26-0.12,0.47-0.13,0.94-0.17c0.27-0.02,0.59-0.04,1.05-0.09c0.76-0.08,1.35-0.31,1.74-0.69c0.02,0.03,0.06,0.07,0.09,0.12
		c-0.02,0.36,0.22,2.04,0.23,2.12c0,0,0,0.18,0,0.18c-0.57,0.33-1.39,1.18-1.66,1.59c-0.14,0.21-0.31,0.37-0.48,0.52
		c-0.15,0.14-0.3,0.27-0.42,0.44c-0.25,0.38,0.18,1.03,0.32,1.17c0.1,0.1,0.23,0.12,0.37,0.15c0.06,0.01,0.12,0.02,0.2,0.04
		c0.12,0.03,0.2,0.11,0.31,0.25c0.09,0.11,0.21,0.24,0.4,0.4c0.44,0.37,1.49,1.03,1.76,1.15c0.27,0.11,0.32,0.44,0.32,0.62
		c0,0.26-0.29,1.17-0.39,1.42c-0.06,0.18-0.05,0.34,0.04,0.42c0.04,0.04,0.09,0.06,0.14,0.06c0.01,0,0.02,0,0.04,0
		c0.17-0.03,0.68-0.41,0.8-0.8c0.13-0.42,0.42-0.94,0.62-1.01c0.26-0.08,0.38-0.26,0.35-0.5l0.12-0.04l0.28,0.28
		c0.01,0.01,0.03,0.02,0.05,0.02c0.01,0,0.02,0,0.03-0.01c0.03-0.01,0.04-0.04,0.04-0.06l-0.06-0.43l0.31-0.18
		c0.02-0.01,0.03-0.04,0.03-0.06c0-0.02-0.02-0.04-0.04-0.05l-0.45-0.15l-0.18-0.45c-0.01-0.02-0.04-0.04-0.06-0.04
		c-0.02,0-0.05,0.02-0.07,0.04l-0.16,0.36l-0.4-0.09c-0.03-0.01-0.06,0-0.07,0.03c-0.02,0.02-0.01,0.05,0,0.07l0.32,0.36l0,0.1
		c-0.13-0.04-0.25-0.06-0.3-0.07c-0.23-0.15-0.35-0.31-0.59-0.67c-0.14-0.2-0.3-0.45-0.56-0.79c-0.42-0.57-0.92-0.93-1.47-1.07
		c0.02-0.03,0.04-0.08,0.08-0.12c0.38-0.15,1.97-1.09,2.04-1.13c0,0,0,0,0,0l0.22-0.11c0.6,0.28,1.85,0.5,2.38,0.51
		c0.28,0,0.52,0.06,0.75,0.12c0.21,0.05,0.42,0.1,0.64,0.11c0.5,0.01,0.93-0.64,1.01-0.81c0.05-0.13,0.01-0.23-0.04-0.36
		c-0.02-0.05-0.04-0.1-0.06-0.17c-0.03-0.11,0.02-0.21,0.09-0.36c0.06-0.12,0.13-0.28,0.2-0.5c0.16-0.52,0.3-1.65,0.28-1.92
		c-0.02-0.27,0.28-0.46,0.46-0.55c0.26-0.13,1.3-0.34,1.6-0.39c0.2-0.04,0.36-0.12,0.4-0.23C23.88,4.8,23.88,4.76,23.85,4.72
		L23.85,4.72z M20.54,4.71l-0.17,0.08c-0.01,0.01-0.03,0.02-0.03,0.03l-0.13,0.28l-0.07-0.23c-0.01-0.03-0.04-0.05-0.08-0.04
		l-0.31,0.04L20,4.61c0.01-0.01,0.02-0.03,0.02-0.05l-0.06-0.33l0.25,0.11c0.02,0.01,0.05,0.01,0.07-0.01l0.25-0.16l-0.08,0.2
		c-0.01,0.02,0,0.05,0.02,0.07l0.12,0.09C20.56,4.58,20.55,4.64,20.54,4.71L20.54,4.71z M20.38,5.94c0.25-0.38,0.36-0.55,0.4-0.84
		c0-0.01,0-0.02,0-0.03c-0.05-0.11-0.16-0.43-0.02-0.52c0.18-0.12,0.35-0.12,0.51,0c0.02,0.04,0.11,0.22-0.01,0.43
		c-0.09-0.03-0.17-0.03-0.22-0.02C20.79,5,20.75,5.6,20.75,5.96c0,0.17-0.09,0.34-0.22,0.52c0-0.01-0.01-0.02-0.02-0.03
		c-0.09-0.14-0.23-0.21-0.32-0.24C20.27,6.11,20.33,6.02,20.38,5.94L20.38,5.94z M19.87,6.76c0.1-0.17,0.19-0.31,0.27-0.44
		c0.07,0.02,0.26,0.1,0.31,0.29c-0.04,0.05-0.08,0.1-0.12,0.16C20.2,6.93,20.08,7.08,20,7.23c-0.05,0.09-0.08,0.18-0.1,0.28
		c-0.15-0.05-0.27-0.02-0.35,0.02C19.6,7.28,19.7,7.03,19.87,6.76L19.87,6.76z M19.51,7.68c0.02-0.01,0.04-0.02,0.07-0.03
		c0.08-0.04,0.17-0.07,0.29-0.02c-0.03,0.25,0,0.51,0.04,0.71c-0.15-0.03-0.27-0.04-0.38-0.02l0,0C19.48,8.12,19.48,7.9,19.51,7.68
		L19.51,7.68z M19.21,8.47c0.02,0,0.03,0,0.04,0c-0.02,0.03-0.04,0.06-0.06,0.09c-0.04,0.08-0.04,0.16-0.02,0.24
		c-0.07-0.01-0.13-0.02-0.21-0.03c-0.34-0.04-0.72-0.08-1.08-0.17c-0.63-0.15-1.19-0.48-1.37-0.59c0.17-0.15,0.42-0.32,0.63-0.55
		c0.33,0.15,1.79,0.83,2.03,1C19.19,8.47,19.2,8.47,19.21,8.47L19.21,8.47z M16.06,9.32L15.91,9.4c-0.26-0.34-0.25-1.16-0.25-1.17
		c0-0.02-0.01-0.05-0.04-0.06l-1.14-0.44l0.01-0.1c0.6,0.06,1.29,0.31,1.3,0.31c0.02,0.01,0.05,0.01,0.07-0.01l0.95-0.7l0.2,0.16
		c-0.3,0.32-1.02,0.77-1.03,0.77c-0.03,0.01-0.04,0.03-0.04,0.06L16.06,9.32z M15.52,4.48c0,0.01,0.01,0.02,0.02,0.04
		c0.08,0.21,0.16,0.42,0.33,0.64c0.29,0.37,0.78,1.41,0.85,1.98L15.8,7.81c-0.06-0.03-0.18-0.08-0.32-0.13
		c0.01-0.14,0.02-0.81-0.23-1.42c-0.13-0.33-0.31-0.64-0.46-0.9c-0.04-0.08-0.09-0.15-0.12-0.22C14.7,5.1,14.73,5.05,14.76,5
		c0.08-0.12,0.15-0.23,0.24-0.26C15.32,4.63,15.44,4.56,15.52,4.48L15.52,4.48z M15.29,4.01c0.08,0.1,0.13,0.21,0.18,0.33
		c-0.07,0.09-0.13,0.15-0.52,0.29c-0.13,0.05-0.22,0.18-0.3,0.31c-0.01,0.02-0.03,0.04-0.05,0.06c-0.06-0.11-0.09-0.2-0.09-0.25
		c0.01-0.09,0.1-0.19,0.19-0.3c0.11-0.13,0.23-0.27,0.26-0.43c0.02-0.1,0-0.16-0.03-0.21C15.08,3.85,15.22,3.91,15.29,4.01
		L15.29,4.01z M13.87,3.97c0.08-0.1,0.14-0.16,0.24-0.18c0.06-0.02,0.21-0.03,0.38-0.03c-0.01,0.01-0.02,0.01-0.03,0.02
		c-0.05,0.06-0.07,0.16-0.09,0.29c-0.03,0.16-0.06,0.36-0.17,0.5c-0.1,0.13-0.18,0.14-0.27,0.15c-0.04,0.01-0.08,0.01-0.13,0.03
		c-0.04-0.16-0.06-0.37-0.06-0.65C13.8,4.06,13.84,4.01,13.87,3.97L13.87,3.97z M13.27,4.3c0.14-0.02,0.25-0.05,0.34-0.09
		c0,0.25,0.03,0.45,0.07,0.62c0,0,0,0,0,0c-0.16,0.14-0.36,0.31-0.6,0.43c0-0.01,0-0.03,0-0.04c0.04-0.32-0.06-0.62-0.26-0.82
		C13,4.35,13.15,4.32,13.27,4.3L13.27,4.3z M10.8,5.29c0.23-0.16,1.29-0.66,1.87-0.85c0.21,0.18,0.31,0.46,0.28,0.76
		c0,0.04-0.01,0.08-0.01,0.12c-0.1,0.04-0.21,0.07-0.32,0.09c-0.17,0.02-0.38,0.02-0.59,0.02c-0.39,0-0.8-0.01-1.08,0.16
		c-0.51,0.31-0.86,0.42-0.9,0.38c-0.07-0.06-0.19-0.24,0.07-0.62C10.39,5.43,10.63,5.41,10.8,5.29L10.8,5.29z M8.53,4.96
		C8.3,4.69,8.21,4.29,8.24,4.21c0-0.01,0.02-0.02,0.03-0.03C8.33,4.17,8.45,4.2,8.58,4.31c0.01,0.01,0.03,0.02,0.05,0.04L8.53,4.96z
		 M8.79,5.19c-0.05-0.04-0.1-0.09-0.14-0.12l0.1-0.62C8.8,4.49,8.85,4.53,8.9,4.58L8.79,5.19z M8.91,5.3l0.12-0.62
		C9.08,4.72,9.14,4.77,9.2,4.81L9.06,5.46C9.01,5.4,8.96,5.35,8.91,5.3L8.91,5.3z M9.24,5.67C9.22,5.64,9.2,5.61,9.17,5.58
		l0.15-0.68c0.1,0.08,0.2,0.15,0.29,0.21L9.24,5.67z M9.32,5.79l0.41-0.6c0.06,0.04,0.11,0.07,0.15,0.09
		c0.03,0.01,0.06,0.03,0.1,0.04C9.97,5.34,9.95,5.36,9.94,5.38C9.85,5.54,9.82,5.67,9.82,5.77c-0.2,0.02-0.33,0.11-0.41,0.19
		C9.39,5.9,9.36,5.85,9.32,5.79L9.32,5.79z M10.15,6.65c0.01,0.01,0.03,0.01,0.05,0.01l0.33-0.06l-0.17,0.18
		c-0.02,0.02-0.02,0.06,0,0.08l0.21,0.21l-0.38-0.04c-0.02,0-0.04,0-0.06,0.02L9.85,7.26L9.81,7.01c0-0.02-0.02-0.04-0.05-0.05
		L9.48,6.88l0.23-0.06c0.03-0.01,0.05-0.03,0.05-0.05l0.02-0.14c0.07,0,0.14-0.03,0.2-0.07L10.15,6.65z M11.62,5.59
		c-0.08,0.14-0.07,0.28-0.04,0.37c-0.13,0.01-0.25,0.02-0.35,0.03c-0.49,0.03-0.72,0.05-1.01,0.18c-0.01,0-0.02,0.01-0.02,0.02
		c-0.07,0.1-0.31,0.36-0.47,0.31C9.51,6.44,9.41,6.32,9.44,6.13c0.03-0.04,0.15-0.2,0.41-0.24c0.02,0.08,0.07,0.14,0.1,0.17
		c0.17,0.16,0.75-0.16,1.08-0.36c0.16-0.09,0.37-0.13,0.61-0.14C11.63,5.57,11.63,5.58,11.62,5.59L11.62,5.59z M12.27,5.9
		c-0.21,0.02-0.4,0.04-0.56,0.05c-0.02-0.06-0.05-0.25,0.1-0.39c0.07,0,0.14,0,0.21,0c0.22,0,0.43,0,0.62-0.02
		c0.11-0.01,0.22-0.05,0.32-0.09C13,5.59,13.1,5.65,13.18,5.7C12.92,5.8,12.62,5.86,12.27,5.9L12.27,5.9z M13.92,5.25
		c-0.16,0.15-0.36,0.28-0.59,0.38c-0.02-0.01-0.04-0.02-0.06-0.03c-0.08-0.04-0.16-0.08-0.18-0.2c0.25-0.12,0.47-0.29,0.64-0.44
		C13.78,5.09,13.84,5.18,13.92,5.25C13.92,5.25,13.92,5.25,13.92,5.25L13.92,5.25z M14.03,5.18c-0.07-0.05-0.14-0.14-0.19-0.3
		c0.03-0.02,0.07-0.02,0.11-0.03c0.1-0.01,0.23-0.03,0.37-0.2c0.13-0.16,0.16-0.38,0.19-0.55c0.01-0.1,0.03-0.2,0.06-0.23
		c0.03-0.03,0.12-0.05,0.19-0.02c0.08,0.03,0.08,0.11,0.07,0.17c-0.02,0.13-0.13,0.26-0.24,0.38c-0.11,0.12-0.21,0.24-0.22,0.37
		c-0.01,0.09,0.05,0.21,0.13,0.38c-0.06,0.06-0.12,0.11-0.19,0.12C14.2,5.26,14.11,5.24,14.03,5.18L14.03,5.18z M14.25,5.44
		c0-0.01,0-0.03-0.01-0.04c-0.01-0.01-0.02-0.02-0.02-0.03c0.04,0,0.08,0,0.12,0c0.1-0.01,0.17-0.06,0.24-0.12
		c0.03,0.05,0.06,0.11,0.09,0.17c0.16,0.27,0.33,0.57,0.45,0.88c0.22,0.54,0.23,1.14,0.22,1.34c-0.27-0.05-0.54-0.1-0.87-0.14
		C14.43,7.16,14.23,5.72,14.25,5.44L14.25,5.44z M12.3,9.95c0.17-0.16,0.36-0.32,0.5-0.55c0.25-0.39,1.08-1.25,1.62-1.56l1.1,0.42
		c0,0.06,0,0.17,0.01,0.31c-0.14,0.06-0.83,0.34-1.34,0.82c-0.27,0.25-0.51,0.53-0.7,0.77c-0.06,0.07-0.11,0.13-0.17,0.2
		c-0.06,0-0.12-0.01-0.18-0.01c-0.15-0.01-0.3-0.02-0.37-0.07c-0.27-0.21-0.39-0.27-0.51-0.29C12.28,9.97,12.29,9.96,12.3,9.95
		L12.3,9.95z M11.87,10.74c-0.03-0.13-0.03-0.26,0.04-0.37c0.07-0.11,0.16-0.2,0.25-0.29c0.12,0.01,0.22,0.04,0.53,0.28
		c0.11,0.08,0.28,0.09,0.45,0.1c0.03,0,0.06,0,0.09,0.01c-0.09,0.09-0.16,0.16-0.22,0.18c-0.09,0.03-0.24,0.01-0.4-0.02
		c-0.18-0.03-0.38-0.06-0.55-0.01C11.96,10.65,11.9,10.69,11.87,10.74L11.87,10.74z M12.1,10.74c0.14-0.04,0.32-0.01,0.49,0.02
		c0.17,0.03,0.34,0.06,0.47,0.01c0.09-0.03,0.2-0.13,0.32-0.28c0.09,0.02,0.16,0.04,0.21,0.1c0.06,0.08,0.08,0.17,0.06,0.25
		c-0.02,0.08-0.08,0.17-0.22,0.29c-0.03-0.02-0.06-0.05-0.08-0.08c-0.06-0.08-0.14-0.17-0.37-0.2c-0.22-0.03-0.46,0.04-0.64,0.1
		c-0.1,0.03-0.22,0.07-0.26,0.06c-0.05-0.01-0.11-0.08-0.11-0.14C11.96,10.79,12.04,10.75,12.1,10.74L12.1,10.74z M12.69,11.54
		c-0.07-0.01-0.13-0.03-0.19-0.04c-0.14-0.02-0.22-0.04-0.29-0.11c-0.04-0.04-0.12-0.15-0.2-0.29c0.01,0,0.02,0.01,0.03,0.01
		c0.08,0.02,0.19-0.01,0.33-0.06c0.17-0.05,0.39-0.11,0.58-0.09c0.17,0.02,0.22,0.08,0.28,0.15c0.03,0.03,0.05,0.06,0.09,0.09
		C13.18,11.31,12.98,11.42,12.69,11.54L12.69,11.54z M13.1,11.84c-0.09-0.1-0.16-0.17-0.25-0.23c0.25-0.11,0.45-0.22,0.6-0.33h0.01
		c0.22,0.06,0.48,0.15,0.7,0.28c-0.01,0-0.03,0.01-0.04,0.02c-0.35,0.11-0.6,0.32-0.71,0.58C13.27,12.03,13.17,11.92,13.1,11.84
		L13.1,11.84z M15.21,13.34c-0.26-0.11-1.24-0.73-1.69-1.1c0.09-0.25,0.32-0.45,0.65-0.56c0.05-0.02,0.09-0.03,0.12-0.05
		c0.09,0.06,0.17,0.13,0.23,0.21c0.1,0.13,0.19,0.29,0.28,0.46c0.17,0.31,0.35,0.64,0.65,0.78c0.54,0.26,0.81,0.49,0.78,0.55
		c-0.03,0.08-0.16,0.25-0.66,0.22C15.54,13.61,15.41,13.43,15.21,13.34L15.21,13.34z M15.26,15.86c-0.02,0-0.03,0-0.04-0.01
		c-0.04-0.04-0.06-0.15-0.01-0.3c0.01-0.01,0.01-0.03,0.02-0.06l0.65-0.19C15.72,15.59,15.35,15.84,15.26,15.86L15.26,15.86z
		 M15.95,15.14l-0.67,0.2c0.02-0.05,0.04-0.11,0.06-0.18l0.67-0.18C15.98,15.04,15.96,15.1,15.95,15.14L15.95,15.14z M16.06,14.84
		l-0.69,0.19c0.02-0.07,0.04-0.13,0.06-0.2l0.72-0.17C16.12,14.71,16.09,14.78,16.06,14.84L16.06,14.84z M16.23,14.5l-0.75,0.18
		c0.03-0.11,0.06-0.23,0.08-0.32l0.73,0.05C16.27,14.44,16.25,14.47,16.23,14.5L16.23,14.5z M16.38,14.29l-0.79-0.05
		c0.01-0.06,0.02-0.12,0.02-0.16c0-0.03,0-0.06-0.01-0.09c0.03,0,0.06,0,0.09,0c0.2,0,0.34-0.03,0.44-0.08
		c0.11,0.15,0.26,0.21,0.37,0.24C16.46,14.19,16.42,14.24,16.38,14.29L16.38,14.29z M16.65,12.98l0.26,0.06
		c0.03,0.01,0.07-0.01,0.08-0.04l0.11-0.26l0.13,0.32c0.01,0.02,0.02,0.03,0.04,0.04l0.36,0.12l-0.23,0.14
		c-0.02,0.01-0.03,0.04-0.03,0.06l0.04,0.27l-0.16-0.16c-0.02-0.02-0.05-0.02-0.07-0.02l-0.15,0.05c-0.03-0.05-0.09-0.09-0.16-0.13
		l0.01-0.17c0-0.01,0-0.03-0.01-0.04L16.65,12.98z M15.72,12.7c0.25,0.38,0.37,0.55,0.64,0.71c0.01,0,0.02,0.01,0.03,0.01
		c0.13,0.01,0.51,0.09,0.53,0.23c0.03,0.2-0.05,0.33-0.25,0.4c-0.05,0-0.27-0.02-0.42-0.21c0.07-0.06,0.11-0.12,0.13-0.16
		c0.08-0.21-0.49-0.52-0.85-0.7c-0.17-0.08-0.3-0.24-0.41-0.42c0.01,0,0.02,0,0.04,0c0.18,0,0.32-0.07,0.39-0.13
		C15.61,12.53,15.67,12.62,15.72,12.7L15.72,12.7z M15.17,11.91c0.12,0.16,0.22,0.3,0.3,0.42c-0.05,0.05-0.23,0.15-0.44,0.1
		c-0.03-0.06-0.06-0.11-0.1-0.17c-0.1-0.18-0.19-0.34-0.3-0.48c-0.06-0.08-0.14-0.15-0.23-0.21c0.12-0.1,0.14-0.2,0.15-0.29
		C14.77,11.45,14.98,11.65,15.17,11.91L15.17,11.91z M14.43,11.19c0,0.02-0.01,0.04-0.01,0.06c-0.01,0.08-0.01,0.16-0.12,0.24
		c-0.23-0.15-0.5-0.25-0.73-0.31c0.1-0.1,0.17-0.19,0.21-0.28h0C14,10.95,14.22,11.05,14.43,11.19L14.43,11.19z M13.82,10.55
		c-0.01,0-0.02,0.01-0.03,0.02c-0.01,0.01-0.01,0.02-0.02,0.03c-0.01-0.03-0.03-0.06-0.06-0.09c-0.06-0.07-0.14-0.11-0.23-0.13
		c0.04-0.05,0.08-0.1,0.13-0.15c0.2-0.24,0.43-0.51,0.69-0.75c0.45-0.41,1.05-0.69,1.25-0.77c0.03,0.26,0.1,0.56,0.24,0.75
		C15.48,9.64,14.11,10.44,13.82,10.55L13.82,10.55z M19.4,9.39c-0.07,0.3-0.07,0.43-0.04,0.53c-0.01,0-0.03-0.01-0.04-0.01
		c-0.24-0.06-0.49-0.12-0.78-0.12c-0.51,0-1.76-0.23-2.33-0.5l-0.11-1.05c0.06-0.03,0.17-0.09,0.3-0.16
		c0.13,0.08,0.74,0.47,1.46,0.64c0.38,0.09,0.78,0.14,1.1,0.17c0.1,0.01,0.19,0.02,0.27,0.03c0.02,0.05,0.05,0.1,0.08,0.14
		C19.36,9.2,19.42,9.31,19.4,9.39L19.4,9.39z M19.93,10.02c-0.14,0-0.27-0.03-0.41-0.06c-0.05-0.1-0.07-0.18,0.02-0.55
		c0.03-0.12-0.04-0.26-0.12-0.4C19.41,9,19.39,8.98,19.38,8.95c0.13,0.02,0.24,0.05,0.28,0.08c0.08,0.06,0.13,0.18,0.17,0.31
		c0.06,0.15,0.12,0.32,0.25,0.43c0.08,0.07,0.15,0.09,0.21,0.09C20.19,9.96,20.06,10.03,19.93,10.02L19.93,10.02z M20.38,9.74
		c-0.07,0.04-0.14,0-0.19-0.04c-0.11-0.09-0.16-0.24-0.22-0.39c-0.06-0.15-0.11-0.29-0.22-0.37c-0.08-0.06-0.23-0.09-0.43-0.12
		c-0.03-0.08-0.04-0.15,0-0.21c0.05-0.09,0.13-0.14,0.22-0.17c0.09-0.02,0.21-0.02,0.39,0.03c0,0.04-0.02,0.07-0.04,0.1
		c-0.05,0.08-0.1,0.19-0.02,0.38c0.08,0.19,0.26,0.33,0.41,0.45c0.08,0.07,0.17,0.13,0.18,0.17C20.48,9.63,20.45,9.7,20.38,9.74
		L20.38,9.74z M20.79,9.29c-0.02,0.05-0.09,0.17-0.19,0.29c0-0.01,0-0.02,0-0.03c-0.02-0.07-0.11-0.14-0.22-0.23
		c-0.14-0.11-0.3-0.24-0.37-0.4c-0.07-0.14-0.03-0.21,0.01-0.29c0.02-0.03,0.04-0.07,0.05-0.11c0.17,0.06,0.38,0.16,0.64,0.32
		c0.02,0.06,0.04,0.12,0.06,0.16C20.8,9.13,20.83,9.2,20.79,9.29L20.79,9.29z M20.8,8.39c-0.06,0.11-0.1,0.21-0.11,0.3
		c-0.23-0.14-0.44-0.24-0.62-0.3c0,0,0,0,0,0c-0.05-0.2-0.09-0.44-0.06-0.68c0.01,0.01,0.02,0.01,0.04,0.02
		c0.28,0.21,0.61,0.31,0.92,0.27C20.9,8.16,20.84,8.29,20.8,8.39L20.8,8.39z M21.26,6.03c0.02,0.26-0.12,1.31-0.27,1.84
		c-0.29,0.05-0.6-0.03-0.87-0.23c-0.04-0.03-0.07-0.05-0.11-0.07c0.02-0.1,0.05-0.2,0.1-0.29c0.08-0.14,0.19-0.29,0.32-0.44
		c0.22-0.29,0.46-0.58,0.46-0.88c0-0.55,0.09-0.86,0.16-0.87c0.09-0.01,0.33,0,0.54,0.4C21.37,5.65,21.25,5.83,21.26,6.03
		L21.26,6.03z M21.8,5.37c-0.03,0.02-0.06,0.03-0.09,0.05c-0.01-0.02-0.03-0.05-0.04-0.07c-0.1-0.15-0.2-0.25-0.29-0.3
		c0.09-0.16,0.08-0.3,0.06-0.41c0.06,0.02,0.12,0.03,0.2,0.03l0.33,0.64C21.9,5.33,21.84,5.35,21.8,5.37L21.8,5.37z M22.1,5.26
		l-0.31-0.59c0.04,0,0.08,0,0.12,0l0.54,0.49C22.33,5.2,22.21,5.23,22.1,5.26L22.1,5.26z M22.61,5.13l-0.52-0.47
		c0.08-0.01,0.16-0.01,0.23-0.02l0.52,0.44C22.77,5.1,22.69,5.11,22.61,5.13L22.61,5.13z M23.01,5.05L22.5,4.62
		c0.07-0.01,0.14-0.03,0.19-0.04l0.52,0.42C23.14,5.02,23.08,5.03,23.01,5.05L23.01,5.05z M23.44,4.96c-0.02,0-0.04,0.01-0.06,0.01
		l-0.51-0.41c0.38-0.02,0.8,0.15,0.86,0.21c0.01,0.01,0.01,0.02,0.01,0.04C23.71,4.86,23.61,4.93,23.44,4.96L23.44,4.96z
		 M23.44,4.96"/>
</g>
</svg>
