<?xml version="1.0" encoding="utf-8"?>
<!-- Generator: Adobe Illustrator 25.0.0, SVG Export Plug-In . SVG Version: 6.00 Build 0)  -->
<svg version="1.1" id="Capa_1" xmlns="http://www.w3.org/2000/svg" xmlns:xlink="http://www.w3.org/1999/xlink" x="0px" y="0px"
	 viewBox="0 0 32 18.62" style="enable-background:new 0 0 32 18.62;" xml:space="preserve">
<style type="text/css">
	.st0{fill:#FF4B55;}
	.st1{fill:#464655;}
	.st2{fill:#73AF00;}
	.st3{fill:#F5F5F5;}
	.st4{fill:#41479B;}
	.st5{fill:#FFF5DC;}
	.st6{fill:#D27D69;}
	.st7{fill:#FFE15A;}
	.st8{fill:#B95546;}
	.st9{fill:#DCBE82;}
	.st10{fill:#D2AA73;}
	.st11{fill:#4173CD;}
	.st12{fill:#82AFFF;}
	.st13{fill:#F09146;}
	.st14{fill:#FFB400;}
	.st15{fill:#965032;}
	.st16{fill:#BE7855;}
	.st17{fill:#FFBE3C;}
	.st18{fill:#EAF3F5;}
	.st19{fill:#8C5A28;}
	.st20{fill:#F0C850;}
	.st21{fill:#FF6E55;}
	.st22{fill:#FFBE5A;}
	.st23{fill:#3CC8FF;}
	.st24{fill:#825546;}
	.st25{fill:#FFD255;}
	.st26{fill:#FFD25A;}
	.st27{fill:#509664;}
	.st28{fill:#F0AA00;}
	.st29{fill:#A561CD;}
	.st30{fill:#B34900;}
	.st31{fill:#64B496;}
	.st32{fill:#FF6B71;}
	.st33{fill:#5F64B9;}
	.st34{fill:#F5F0F0;}
	.st35{fill:#5A4646;}
	.st36{fill:#E6E1CD;}
	.st37{fill:#FFD0AF;}
	.st38{fill:#FFAF94;}
	.st39{fill:#8CB400;}
	.st40{fill:#69C3FF;}
	.st41{fill:#009B64;}
	.st42{fill:#5AA0E6;}
	.st43{fill:#FFC88C;}
	.st44{fill:#E1E1E1;}
	.st45{fill:#966446;}
	.st46{fill:#BE915A;}
	.st47{fill:#B9B9B9;}
	.st48{fill:#F0C727;}
	.st49{fill:#50AF69;}
	.st50{fill:#FFE6E6;}
	.st51{fill:#FFB750;}
	.st52{fill:#FFC455;}
	.st53{fill:#FFCD55;}
	.st54{fill:#9BC800;}
	.st55{fill:#FFE14E;}
	.st56{fill:#FFB14E;}
	.st57{fill:#B46446;}
	.st58{fill:#5FA000;}
	.st59{fill:#F2DD30;}
	.st60{fill:#FFC855;}
	.st61{fill:#A0A0A0;}
	.st62{fill:#69B469;}
	.st63{fill:#F4E08F;}
	.st64{fill:#ECD077;}
	.st65{fill:#FCF0A8;}
	.st66{fill:#FAB446;}
	.st67{fill:#C8414B;}
	.st68{fill:#FF9B46;}
	.st69{fill:#FF9B55;}
	.st70{fill:#82C3D2;}
	.st71{fill:#5AA587;}
	.st72{fill:#CDCDCD;}
	.st73{fill:#B4A08C;}
	.st74{fill:#FFD250;}
	.st75{fill:#00C3A0;}
	.st76{fill:#00AADC;}
	.st77{fill:#732D37;}
	.st78{fill:#AAD264;}
	.st79{fill:#874150;}
	.st80{fill:#783C46;}
	.st81{fill:#FFB478;}
	.st82{fill:#9B4B5A;}
	.st83{fill:#FFCD5A;}
	.st84{fill:#FFAA5A;}
	.st85{fill:#FF875A;}
	.st86{fill:#E6B432;}
	.st87{fill:#C86464;}
	.st88{fill:#FFF5E1;}
	.st89{fill:#963C3C;}
	.st90{fill:#5A8250;}
	.st91{fill:#AFEBFF;}
	.st92{fill:#557DE6;}
	.st93{fill:#D23741;}
	.st94{fill:#64C86E;}
	.st95{fill:#873250;}
	.st96{fill:#41AA5A;}
	.st97{fill:#8CD7FF;}
	.st98{fill:#6EC86E;}
	.st99{fill:#FFF0E1;}
	.st100{fill:#FFC75A;}
	.st101{fill:#FFD350;}
	.st102{fill:#FFBE50;}
	.st103{fill:#A54B50;}
	.st104{fill:#C87878;}
	.st105{fill:#FF1722;}
	.st106{fill:#FFB441;}
	.st107{fill:#5064AA;}
	.st108{fill:#FFA0D2;}
	.st109{fill:#FF7350;}
	.st110{fill:#245DBD;}
	.st111{fill:#D35A10;}
	.st112{fill:#FFA033;}
	.st113{fill:#FF9480;}
	.st114{fill:#FFA0E4;}
	.st115{fill:#696E7D;}
	.st116{fill:#FFFCFF;}
	.st117{fill:#EBEBEB;}
	.st118{fill:#FF4B57;}
	.st119{fill:#D2D2D2;}
	.st120{fill:#F0C814;}
	.st121{fill:#F7B518;}
	.st122{fill:#2C2F38;}
	.st123{fill:#4C8056;}
	.st124{fill:#F0C419;}
	.st125{fill:#C03A2B;}
	.st126{fill:#EA3F3F;}
	.st127{fill:#E4E3E1;}
	.st128{fill:#2472B2;}
</style>
<g>
	<path class="st66" d="M31.97,6.21H0V0.53c0-0.27,0.25-0.49,0.55-0.49h30.87c0.3,0,0.55,0.22,0.55,0.49V6.21z M31.97,6.21"/>
	<path class="st2" d="M31.42,18.55H0.55c-0.3,0-0.55-0.22-0.55-0.49v-5.68h31.97v5.68C31.97,18.33,31.72,18.55,31.42,18.55
		L31.42,18.55z M31.42,18.55"/>
	<rect y="6.21" class="st3" width="31.97" height="6.17"/>
	<path class="st4" d="M15.98,11.92c-1.63,0-2.96-1.17-2.96-2.62c0-1.44,1.33-2.62,2.96-2.62c1.63,0,2.96,1.17,2.96,2.62
		C18.95,10.74,17.62,11.92,15.98,11.92L15.98,11.92z M15.98,7.17c-1.33,0-2.41,0.96-2.41,2.13c0,1.18,1.08,2.13,2.41,2.13
		s2.41-0.96,2.41-2.13C18.4,8.12,17.31,7.17,15.98,7.17L15.98,7.17z M15.98,7.17"/>
	<path class="st4" d="M16.32,9.3c0,0.16-0.15,0.3-0.34,0.3c-0.19,0-0.34-0.13-0.34-0.3c0-0.16,0.15-0.3,0.34-0.3
		C16.17,9,16.32,9.13,16.32,9.3L16.32,9.3z M16.32,9.3"/>
	<path class="st4" d="M15.98,9.34l-0.85,0.08L13.3,9.34V9.25l1.83-0.08l0.85,0.08V9.34z M15.98,9.34"/>
	<path class="st4" d="M15.98,9.34l0.85,0.08l1.83-0.08V9.25l-1.83-0.08l-0.85,0.08V9.34z M15.98,9.34"/>
	<path class="st4" d="M15.93,9.3l-0.09-0.75l0.09-1.62h0.1l0.09,1.62L16.03,9.3H15.93z M15.93,9.3"/>
	<path class="st4" d="M15.93,9.3l-0.09,0.75l0.09,1.62h0.1l0.09-1.62L16.03,9.3H15.93z M15.93,9.3"/>
	<path class="st4" d="M15.95,9.33l-0.66-0.48l-1.24-1.2l0.07-0.06l1.36,1.09l0.54,0.59L15.95,9.33z M15.95,9.33"/>
	<path class="st4" d="M15.95,9.33l0.54,0.59l1.36,1.09l0.07-0.06l-1.24-1.2l-0.66-0.48L15.95,9.33z M15.95,9.33"/>
	<path class="st4" d="M15.95,9.27l0.54-0.59l1.36-1.09l0.07,0.06l-1.24,1.2l-0.66,0.48L15.95,9.27z M15.95,9.27"/>
	<path class="st4" d="M15.95,9.27l-0.66,0.48l-1.24,1.2l0.07,0.06l1.36-1.09l0.54-0.59L15.95,9.27z M15.95,9.27"/>
	<path class="st4" d="M16,9.34L15.25,9.7l-1.73,0.55l-0.04-0.08l1.66-0.69l0.82-0.22L16,9.34z M16,9.34"/>
	<path class="st4" d="M16,9.34l0.82-0.22l1.66-0.69l-0.04-0.08L16.72,8.9l-0.76,0.36L16,9.34z M16,9.34"/>
	<path class="st4" d="M15.94,9.31l-0.41-0.67l-0.62-1.53L15,7.09l0.78,1.47l0.25,0.73L15.94,9.31z M15.94,9.31"/>
	<path class="st4" d="M15.94,9.31l0.25,0.73l0.78,1.47l0.09-0.03l-0.62-1.53l-0.41-0.67L15.94,9.31z M15.94,9.31"/>
	<path class="st4" d="M15.97,9.34l-0.82-0.22l-1.66-0.69l0.04-0.08l1.73,0.55L16,9.26L15.97,9.34z M15.97,9.34"/>
	<path class="st4" d="M15.97,9.34l0.76,0.36l1.73,0.55l0.04-0.08l-1.66-0.69L16,9.26L15.97,9.34z M15.97,9.34"/>
	<path class="st4" d="M15.94,9.28l0.25-0.73l0.78-1.47l0.09,0.03l-0.62,1.53l-0.41,0.67L15.94,9.28z M15.94,9.28"/>
	<path class="st4" d="M15.94,9.28l-0.41,0.67l-0.62,1.53L15,11.51l0.78-1.47l0.25-0.73L15.94,9.28z M15.94,9.28"/>
	<path class="st3" d="M16.44,9.3c0,0.22-0.2,0.4-0.45,0.4c-0.25,0-0.45-0.18-0.45-0.4c0-0.22,0.2-0.4,0.45-0.4
		C16.23,8.9,16.44,9.08,16.44,9.3L16.44,9.3z M16.44,9.3"/>
	<path class="st4" d="M16.26,9.3c0,0.13-0.12,0.24-0.27,0.24s-0.27-0.11-0.27-0.24c0-0.13,0.12-0.24,0.27-0.24S16.26,9.17,16.26,9.3
		L16.26,9.3z M16.26,9.3"/>
</g>
</svg>
