<?xml version="1.0" encoding="utf-8"?>
<!-- Generator: Adobe Illustrator 25.0.0, SVG Export Plug-In . SVG Version: 6.00 Build 0)  -->
<svg version="1.1" id="Capa_1" xmlns="http://www.w3.org/2000/svg" xmlns:xlink="http://www.w3.org/1999/xlink" x="0px" y="0px"
	 viewBox="0 0 32 18.62" style="enable-background:new 0 0 32 18.62;" xml:space="preserve">
<style type="text/css">
	.st0{fill:#FF4B55;}
	.st1{fill:#464655;}
	.st2{fill:#73AF00;}
	.st3{fill:#F5F5F5;}
	.st4{fill:#41479B;}
	.st5{fill:#FFF5DC;}
	.st6{fill:#D27D69;}
	.st7{fill:#FFE15A;}
	.st8{fill:#B95546;}
	.st9{fill:#DCBE82;}
	.st10{fill:#D2AA73;}
	.st11{fill:#4173CD;}
	.st12{fill:#82AFFF;}
	.st13{fill:#F09146;}
	.st14{fill:#FFB400;}
	.st15{fill:#965032;}
	.st16{fill:#BE7855;}
	.st17{fill:#FFBE3C;}
	.st18{fill:#EAF3F5;}
	.st19{fill:#8C5A28;}
	.st20{fill:#F0C850;}
	.st21{fill:#FF6E55;}
	.st22{fill:#FFBE5A;}
	.st23{fill:#3CC8FF;}
	.st24{fill:#825546;}
	.st25{fill:#FFD255;}
	.st26{fill:#FFD25A;}
	.st27{fill:#509664;}
	.st28{fill:#F0AA00;}
	.st29{fill:#A561CD;}
	.st30{fill:#B34900;}
	.st31{fill:#64B496;}
	.st32{fill:#FF6B71;}
	.st33{fill:#5F64B9;}
	.st34{fill:#F5F0F0;}
	.st35{fill:#5A4646;}
	.st36{fill:#E6E1CD;}
	.st37{fill:#FFD0AF;}
	.st38{fill:#FFAF94;}
	.st39{fill:#8CB400;}
	.st40{fill:#69C3FF;}
	.st41{fill:#009B64;}
	.st42{fill:#5AA0E6;}
	.st43{fill:#FFC88C;}
	.st44{fill:#E1E1E1;}
	.st45{fill:#966446;}
	.st46{fill:#BE915A;}
	.st47{fill:#B9B9B9;}
	.st48{fill:#F0C727;}
	.st49{fill:#50AF69;}
	.st50{fill:#FFE6E6;}
	.st51{fill:#FFB750;}
	.st52{fill:#FFC455;}
	.st53{fill:#FFCD55;}
	.st54{fill:#9BC800;}
	.st55{fill:#FFE14E;}
	.st56{fill:#FFB14E;}
	.st57{fill:#B46446;}
	.st58{fill:#5FA000;}
	.st59{fill:#F2DD30;}
	.st60{fill:#FFC855;}
	.st61{fill:#A0A0A0;}
	.st62{fill:#69B469;}
	.st63{fill:#F4E08F;}
	.st64{fill:#ECD077;}
	.st65{fill:#FCF0A8;}
	.st66{fill:#FAB446;}
	.st67{fill:#C8414B;}
	.st68{fill:#FF9B46;}
	.st69{fill:#FF9B55;}
	.st70{fill:#82C3D2;}
	.st71{fill:#5AA587;}
	.st72{fill:#CDCDCD;}
	.st73{fill:#B4A08C;}
	.st74{fill:#FFD250;}
	.st75{fill:#00C3A0;}
	.st76{fill:#00AADC;}
	.st77{fill:#732D37;}
	.st78{fill:#AAD264;}
	.st79{fill:#874150;}
	.st80{fill:#783C46;}
	.st81{fill:#FFB478;}
	.st82{fill:#9B4B5A;}
	.st83{fill:#FFCD5A;}
	.st84{fill:#FFAA5A;}
	.st85{fill:#FF875A;}
	.st86{fill:#E6B432;}
	.st87{fill:#C86464;}
	.st88{fill:#FFF5E1;}
	.st89{fill:#963C3C;}
	.st90{fill:#5A8250;}
	.st91{fill:#AFEBFF;}
	.st92{fill:#557DE6;}
	.st93{fill:#D23741;}
	.st94{fill:#64C86E;}
	.st95{fill:#873250;}
	.st96{fill:#41AA5A;}
	.st97{fill:#8CD7FF;}
	.st98{fill:#6EC86E;}
	.st99{fill:#FFF0E1;}
	.st100{fill:#FFC75A;}
	.st101{fill:#FFD350;}
	.st102{fill:#FFBE50;}
	.st103{fill:#A54B50;}
	.st104{fill:#C87878;}
	.st105{fill:#FF1722;}
	.st106{fill:#FFB441;}
	.st107{fill:#5064AA;}
	.st108{fill:#FFA0D2;}
	.st109{fill:#FF7350;}
	.st110{fill:#245DBD;}
	.st111{fill:#D35A10;}
	.st112{fill:#FFA033;}
	.st113{fill:#FF9480;}
	.st114{fill:#FFA0E4;}
	.st115{fill:#696E7D;}
	.st116{fill:#FFFCFF;}
	.st117{fill:#EBEBEB;}
	.st118{fill:#FF4B57;}
	.st119{fill:#D2D2D2;}
	.st120{fill:#F0C814;}
	.st121{fill:#F7B518;}
	.st122{fill:#2C2F38;}
	.st123{fill:#4C8056;}
	.st124{fill:#F0C419;}
	.st125{fill:#C03A2B;}
	.st126{fill:#EA3F3F;}
	.st127{fill:#E4E3E1;}
	.st128{fill:#2472B2;}
</style>
<g>
	<path class="st0" d="M31.97,6.21H0V0.53c0-0.27,0.25-0.49,0.55-0.49h30.87c0.3,0,0.55,0.22,0.55,0.49V6.21z M31.97,6.21"/>
	<path class="st1" d="M31.42,18.55H0.55c-0.3,0-0.55-0.22-0.55-0.49v-5.68h31.97v5.68C31.97,18.33,31.72,18.55,31.42,18.55
		L31.42,18.55z M31.42,18.55"/>
	<rect y="6.21" class="st3" width="31.97" height="6.17"/>
	<path class="st2" d="M19.24,8.06c-0.06-0.03-0.13-0.12-0.11-0.16c0.02-0.04-0.01-0.04,0.11-0.01c0.21,0.05,0.35,0.03,0.49-0.08
		l0.12-0.08l0.14,0.06c0.08,0.03,0.16,0.05,0.18,0.05c0.07-0.01,0.19-0.16,0.19-0.21c0-0.07,0.05-0.05,0.08,0.02
		c0.06,0.13-0.05,0.36-0.19,0.4C20.17,8.07,20.11,8.06,20,8.03c-0.13-0.04-0.15-0.04-0.22,0C19.63,8.13,19.42,8.14,19.24,8.06"/>
	<path class="st2" d="M19.79,7.54c-0.07-0.09-0.16-0.39-0.13-0.47c0.02-0.07,0.05-0.08,0.12-0.06c0.12,0.04,0.15,0.11,0.13,0.36
		C19.89,7.55,19.86,7.62,19.79,7.54"/>
	<path class="st2" d="M15.05,8.9c-0.29,0.15-0.72,0.17-0.72,0.58c-0.63,0.02-1.38,0.05-2.05,0.03c0.18-0.21,1.34-1.15,1.82-1.52
		c0.08-0.06,0.11-0.18,0.06-0.27l-0.01-0.02c-0.07-0.13-0.26-0.16-0.37-0.06c-0.48,0.4-0.95,0.78-1.03,0.85
		c-0.62,0.55-0.8,0.71-0.9,0.8c-0.07,0.06-0.11,0.14-0.11,0.23v0.01c0,0.18,0.17,0.33,0.37,0.33h2.71c0.15,0-0.04-0.47,0.16-0.47
		c0.14,0,0.15,0.17,0.14,0.35c0,0.14-0.13,0.24-0.29,0.24c-1.17,0-2.39,0.01-3.54,0.01c-0.09,0-0.17-0.07-0.17-0.15V9.64
		c0-0.15-0.19-0.24-0.34-0.16c-0.01,0-0.01,0.01-0.02,0.01c-0.08,0.04-0.12,0.12-0.09,0.2c0.02,0.05,0.03,0.11,0.03,0.17
		c0,0.08-0.07,0.15-0.17,0.15c-0.38,0.01-0.79,0.01-0.91-0.18C9.57,9.72,9.43,9.67,9.3,9.72L9.29,9.73
		C9.15,9.79,9.1,9.94,9.17,10.05c0.14,0.22,0.27,0.47,0.2,0.83c-0.05,0.11-0.16,0.18-0.27,0.25c-0.12,0.07-0.05,0.24,0.1,0.21
		c0.35-0.06,0.59-0.3,0.66-0.59h5.4c0.2,0,0.36-0.14,0.36-0.32V9.4C15.57,9.09,15.2,9.11,15.05,8.9L15.05,8.9z M15.05,8.9"/>
	<path class="st2" d="M21.89,7.53c0.08,0.05,0.16,0.09,0.25,0.13c0.1,0.04,0.13,0.15,0.08,0.23c-0.01,0.02-0.03,0.05-0.03,0.07v2.05
		c0.16,0.03,0.25,0,0.32-0.04c0.08-0.05,0.19-0.01,0.22,0.07c0.05,0.18,0.14,0.36,0.19,0.52c0.03,0.1-0.06,0.2-0.17,0.2h-0.91
		c-0.08,0-0.15-0.06-0.15-0.13v-3C21.69,7.54,21.8,7.48,21.89,7.53L21.89,7.53z M21.89,7.53"/>
	<path class="st2" d="M20.79,8.03c0,0.57,0.01,1.18,0.01,1.78c0,0.08-0.07,0.14-0.16,0.14h-0.01c-0.09,0-0.16-0.06-0.16-0.14V8.37
		c0-0.08-0.1-0.12-0.17-0.07l-0.21,0.16c-0.04,0.03-0.07,0.08-0.07,0.13c0,0.23,0,0.92,0,1.21c0,0.08-0.07,0.14-0.16,0.14h-0.01
		c-0.09,0-0.16-0.06-0.16-0.14c0-0.2,0-0.57-0.01-0.84c0-0.08-0.11-0.12-0.17-0.07c-0.22,0.17-0.27,0.21-0.39,0.32
		c0.01,0.05,0.06,0,0.09,0.04v0.28c-0.81-0.13-0.87,0.44-0.84,1.05c0,0.09,0.09,0.16,0.19,0.16h2.53c0.09,0,0.17-0.07,0.17-0.15
		V7.82c0-0.09-0.12-0.14-0.2-0.08c-0.06,0.05-0.13,0.1-0.18,0.15C20.82,7.92,20.79,7.97,20.79,8.03L20.79,8.03z M18.93,9.94
		c-0.05-0.13,0.23-0.17,0.26-0.06C19.2,10.01,18.99,10.02,18.93,9.94L18.93,9.94z M18.93,9.94"/>
	<path class="st2" d="M10.57,10.97c0.1,0,0.17,0.07,0.17,0.15c0,0.09-0.08,0.15-0.17,0.15c-0.1,0-0.18-0.07-0.18-0.15
		C10.39,11.05,10.47,10.97,10.57,10.97"/>
	<path class="st2" d="M16.32,7.59c0.05,0.03,0.1,0.05,0.15,0.07c0.09,0.04,0.13,0.14,0.07,0.22c-0.02,0.02-0.03,0.05-0.04,0.08v2.05
		c0.17,0.03,0.26,0,0.33-0.05c0.07-0.05,0.18-0.01,0.2,0.06c0.04,0.14,0.11,0.28,0.15,0.41c0.06,0.16-0.07,0.32-0.26,0.32h-0.71
		c-0.11,0-0.21-0.08-0.21-0.18V7.75C16.01,7.61,16.19,7.52,16.32,7.59L16.32,7.59z M16.32,7.59"/>
</g>
</svg>
