<?xml version="1.0" encoding="utf-8"?>
<!-- Generator: Adobe Illustrator 25.0.0, SVG Export Plug-In . SVG Version: 6.00 Build 0)  -->
<svg version="1.1" id="Capa_1" xmlns="http://www.w3.org/2000/svg" xmlns:xlink="http://www.w3.org/1999/xlink" x="0px" y="0px"
	 viewBox="0 0 32 18.62" style="enable-background:new 0 0 32 18.62;" xml:space="preserve">
<style type="text/css">
	.st0{fill:#FF4B55;}
	.st1{fill:#464655;}
	.st2{fill:#73AF00;}
	.st3{fill:#F5F5F5;}
	.st4{fill:#41479B;}
	.st5{fill:#FFF5DC;}
	.st6{fill:#D27D69;}
	.st7{fill:#FFE15A;}
	.st8{fill:#B95546;}
	.st9{fill:#DCBE82;}
	.st10{fill:#D2AA73;}
	.st11{fill:#4173CD;}
	.st12{fill:#82AFFF;}
	.st13{fill:#F09146;}
	.st14{fill:#FFB400;}
	.st15{fill:#965032;}
	.st16{fill:#BE7855;}
	.st17{fill:#FFBE3C;}
	.st18{fill:#EAF3F5;}
	.st19{fill:#8C5A28;}
	.st20{fill:#F0C850;}
	.st21{fill:#FF6E55;}
	.st22{fill:#FFBE5A;}
	.st23{fill:#3CC8FF;}
	.st24{fill:#825546;}
	.st25{fill:#FFD255;}
	.st26{fill:#FFD25A;}
	.st27{fill:#509664;}
	.st28{fill:#F0AA00;}
	.st29{fill:#A561CD;}
	.st30{fill:#B34900;}
	.st31{fill:#64B496;}
	.st32{fill:#FF6B71;}
	.st33{fill:#5F64B9;}
	.st34{fill:#F5F0F0;}
	.st35{fill:#5A4646;}
	.st36{fill:#E6E1CD;}
	.st37{fill:#FFD0AF;}
	.st38{fill:#FFAF94;}
	.st39{fill:#8CB400;}
	.st40{fill:#69C3FF;}
	.st41{fill:#009B64;}
	.st42{fill:#5AA0E6;}
	.st43{fill:#FFC88C;}
	.st44{fill:#E1E1E1;}
	.st45{fill:#966446;}
	.st46{fill:#BE915A;}
	.st47{fill:#B9B9B9;}
	.st48{fill:#F0C727;}
	.st49{fill:#50AF69;}
	.st50{fill:#FFE6E6;}
	.st51{fill:#FFB750;}
	.st52{fill:#FFC455;}
	.st53{fill:#FFCD55;}
	.st54{fill:#9BC800;}
	.st55{fill:#FFE14E;}
	.st56{fill:#FFB14E;}
	.st57{fill:#B46446;}
	.st58{fill:#5FA000;}
	.st59{fill:#F2DD30;}
	.st60{fill:#FFC855;}
	.st61{fill:#A0A0A0;}
	.st62{fill:#69B469;}
	.st63{fill:#F4E08F;}
	.st64{fill:#ECD077;}
	.st65{fill:#FCF0A8;}
	.st66{fill:#FAB446;}
	.st67{fill:#C8414B;}
	.st68{fill:#FF9B46;}
	.st69{fill:#FF9B55;}
	.st70{fill:#82C3D2;}
	.st71{fill:#5AA587;}
	.st72{fill:#CDCDCD;}
	.st73{fill:#B4A08C;}
	.st74{fill:#FFD250;}
	.st75{fill:#00C3A0;}
	.st76{fill:#00AADC;}
	.st77{fill:#732D37;}
	.st78{fill:#AAD264;}
	.st79{fill:#874150;}
	.st80{fill:#783C46;}
	.st81{fill:#FFB478;}
	.st82{fill:#9B4B5A;}
	.st83{fill:#FFCD5A;}
	.st84{fill:#FFAA5A;}
	.st85{fill:#FF875A;}
	.st86{fill:#E6B432;}
	.st87{fill:#C86464;}
	.st88{fill:#FFF5E1;}
	.st89{fill:#963C3C;}
	.st90{fill:#5A8250;}
	.st91{fill:#AFEBFF;}
	.st92{fill:#557DE6;}
	.st93{fill:#D23741;}
	.st94{fill:#64C86E;}
	.st95{fill:#873250;}
	.st96{fill:#41AA5A;}
	.st97{fill:#8CD7FF;}
	.st98{fill:#6EC86E;}
	.st99{fill:#FFF0E1;}
	.st100{fill:#FFC75A;}
	.st101{fill:#FFD350;}
	.st102{fill:#FFBE50;}
	.st103{fill:#A54B50;}
	.st104{fill:#C87878;}
	.st105{fill:#FF1722;}
	.st106{fill:#FFB441;}
	.st107{fill:#5064AA;}
	.st108{fill:#FFA0D2;}
	.st109{fill:#FF7350;}
	.st110{fill:#245DBD;}
	.st111{fill:#D35A10;}
	.st112{fill:#FFA033;}
	.st113{fill:#FF9480;}
	.st114{fill:#FFA0E4;}
	.st115{fill:#696E7D;}
	.st116{fill:#FFFCFF;}
	.st117{fill:#EBEBEB;}
	.st118{fill:#FF4B57;}
	.st119{fill:#D2D2D2;}
	.st120{fill:#F0C814;}
	.st121{fill:#F7B518;}
	.st122{fill:#2C2F38;}
	.st123{fill:#4C8056;}
	.st124{fill:#F0C419;}
	.st125{fill:#C03A2B;}
	.st126{fill:#EA3F3F;}
	.st127{fill:#E4E3E1;}
	.st128{fill:#2472B2;}
</style>
<g>
	<path class="st3" d="M31.42,18.55H0.55c-0.3,0-0.55-0.22-0.55-0.49V0.53c0-0.27,0.25-0.49,0.55-0.49h30.87
		c0.3,0,0.55,0.22,0.55,0.49v17.53C31.97,18.33,31.72,18.55,31.42,18.55L31.42,18.55z M31.42,18.55"/>
	<path class="st0" d="M31.97,0.53c0-0.27-0.25-0.49-0.55-0.49h-1.46L15.98,8.13L2.01,0.04H0.55C0.25,0.04,0,0.26,0,0.53v0.68
		L13.97,9.3L0,17.39v0.68c0,0.27,0.25,0.49,0.55,0.49h1.46l13.97-8.09l13.97,8.09h1.46c0.3,0,0.55-0.22,0.55-0.49v-0.68L18,9.3
		l13.97-8.09V0.53z M31.97,0.53"/>
	<path class="st7" d="M17.64,2.17c0,0-0.17-0.23-0.44-0.08c0,0,0.3,0.19,0.1,0.4c-0.22,0.21-0.51,0-0.53-0.15
		c0.08-0.01,0.14-0.06,0.14-0.13c0-0.08-0.07-0.14-0.15-0.14s-0.15,0.06-0.15,0.14c0,0.06,0.04,0.11,0.1,0.13
		c-0.04,0.13-0.43,0.23-0.54,0.01c-0.13-0.24,0.07-0.45,0.34-0.42c0,0-0.05-0.3-0.42-0.18c0,0,0.15-0.35-0.11-0.58
		c-0.26,0.23-0.11,0.58-0.11,0.58c-0.37-0.13-0.42,0.18-0.42,0.18c0.27-0.03,0.47,0.18,0.34,0.42c-0.11,0.22-0.5,0.12-0.54-0.01
		c0.06-0.02,0.1-0.07,0.1-0.13c0-0.08-0.07-0.14-0.15-0.14c-0.09,0-0.15,0.06-0.15,0.14c0,0.07,0.06,0.13,0.14,0.13
		c-0.02,0.15-0.32,0.36-0.53,0.15c-0.2-0.2,0.1-0.4,0.1-0.4c-0.26-0.15-0.44,0.08-0.44,0.08c-0.09-0.31-0.44-0.23-0.44-0.23
		c0.35,0.39,0.61,1.18,0.61,1.18h2.98c0,0,0.26-0.8,0.61-1.18C18.08,1.94,17.73,1.86,17.64,2.17L17.64,2.17z M17.64,2.17"/>
	<path class="st0" d="M17.47,3.12c-0.48-0.15-0.99-0.22-1.49-0.22c-0.5,0-1.01,0.07-1.49,0.22c-0.78,3.02,1.49,3.83,1.49,3.83
		S18.25,6.15,17.47,3.12L17.47,3.12z M17.47,3.12"/>
	<path class="st12" d="M14.9,4.2c0,0-0.07-0.01-0.13,0.03c0,0-0.02-0.08,0.09-0.09C14.96,4.12,14.9,4.2,14.9,4.2L14.9,4.2z
		 M14.9,4.2"/>
	<path class="st12" d="M14.81,4.1c0,0-0.06-0.04-0.14-0.03c0,0,0.02-0.08,0.13-0.05C14.91,4.06,14.81,4.1,14.81,4.1L14.81,4.1z
		 M14.81,4.1"/>
	<path class="st12" d="M14.86,4.14c0,0-0.08-0.01-0.15,0.03c0,0-0.02-0.08,0.1-0.09C14.93,4.06,14.86,4.14,14.86,4.14L14.86,4.14z
		 M14.86,4.14"/>
	<path class="st12" d="M16.21,4.34c0,0-0.07,0-0.12,0.06c0,0-0.04-0.07,0.06-0.11C16.26,4.25,16.21,4.34,16.21,4.34L16.21,4.34z
		 M16.21,4.34"/>
	<path class="st12" d="M16.1,4.26c0,0-0.07-0.03-0.14,0c0,0,0-0.08,0.11-0.07C16.19,4.2,16.1,4.26,16.1,4.26L16.1,4.26z M16.1,4.26"
		/>
	<path class="st12" d="M16.16,4.3c0,0-0.08,0-0.13,0.06c0,0-0.04-0.07,0.07-0.11C16.21,4.2,16.16,4.3,16.16,4.3L16.16,4.3z
		 M16.16,4.3"/>
	<path class="st12" d="M17.04,4.38c0,0-0.03,0-0.08,0.04c0,0-0.03-0.07,0.07-0.1C17.14,4.29,17.04,4.38,17.04,4.38L17.04,4.38z
		 M17.04,4.38"/>
	<path class="st12" d="M16.99,4.29c0,0-0.06-0.03-0.13-0.01c0,0,0.01-0.08,0.11-0.06C17.08,4.23,16.99,4.29,16.99,4.29L16.99,4.29z
		 M16.99,4.29"/>
	<path class="st12" d="M17.04,4.33c0,0-0.08,0-0.13,0.05c0,0-0.04-0.07,0.08-0.1C17.09,4.24,17.04,4.33,17.04,4.33L17.04,4.33z
		 M17.04,4.33"/>
	<path class="st12" d="M14.78,3.72c0,0-0.07-0.04-0.15-0.02c0,0,0.01-0.08,0.14-0.06C14.88,3.67,14.78,3.72,14.78,3.72L14.78,3.72z
		 M14.78,3.72"/>
	<path class="st12" d="M14.77,3.58c0,0-0.04-0.06-0.13-0.06c0,0,0.06-0.08,0.16-0.02C14.9,3.55,14.77,3.58,14.77,3.58L14.77,3.58z
		 M14.77,3.58"/>
	<path class="st12" d="M14.77,3.65c0,0-0.07-0.05-0.16-0.03c0,0,0.02-0.09,0.15-0.06C14.89,3.6,14.77,3.65,14.77,3.65L14.77,3.65z
		 M14.77,3.65"/>
	<path class="st7" d="M16.83,3.92c0.11,0,0.25-0.04,0.27-0.14c0.02-0.12-0.09-0.18-0.25-0.18c-0.11,0-0.41,0.06-0.61,0.06
		c-0.21-0.01-0.21-0.19,0.1-0.17c0.46,0.03,0.54-0.02,0.54-0.02c-0.25,0.04-0.35-0.04-0.61-0.04c-0.26,0-0.32,0.16-0.21,0.25
		c0.12,0.1,0.55,0.03,0.67,0.01c0.11-0.02,0.26-0.02,0.27,0.05c0.01,0.06-0.18,0.06-0.32,0.06c-0.22-0.01-0.53,0.04-0.82,0.06
		c-0.23,0.01-0.27-0.05-0.32-0.11c0.01-0.02,0.02-0.04,0.02-0.07c0-0.01,0-0.02-0.01-0.03c0.02-0.02,0.04-0.04,0.04-0.09
		c0,0-0.06-0.01-0.11,0.01c-0.04-0.03-0.08-0.04-0.14-0.04c-0.05,0-0.1,0.02-0.14,0.04c-0.05-0.02-0.11-0.01-0.11-0.01
		c0.01,0.04,0.03,0.07,0.05,0.09c0,0.01-0.01,0.02-0.01,0.03c0,0.04,0.02,0.08,0.06,0.11c0.02,0.01,0.03,0.03,0.04,0.05l0.01,0.03
		c0,0.01,0.01,0.02,0.02,0.03C15.09,3.88,15,3.78,14.95,3.72c-0.05-0.07-0.09-0.22-0.17-0.23l-0.05,0.22c0,0,0.1,0.21,0.29,0.29
		c0.21,0.1,0.25,0.1,0.33,0.13c0.01,0.03-0.13,0.05-0.28,0.03c-0.1-0.02-0.23-0.15-0.31-0.14l0.09,0.18
		c0.24,0.14,0.45,0.14,0.64,0.11c0.13-0.02,0.18-0.11,0.19-0.15c0.05-0.01,0.11-0.02,0.29-0.06c0.07-0.02,0.16-0.02,0.24-0.03
		c0.02,0.05,0.08,0.11,0.27,0.12c0,0,0.05,0.06-0.11,0.05c-0.16-0.01-0.2-0.06-0.29-0.05l0.08,0.17c0,0,0.2-0.06,0.44-0.04
		c0,0,0.05,0.01,0.07-0.02c0.03-0.03,0.01-0.05-0.01-0.09c-0.01-0.02-0.02-0.07-0.03-0.12c0.09,0.02,0.36-0.03,0.46-0.02
		c0.1,0.01,0.11,0.11,0.09,0.14c-0.02,0.03-0.23,0.01-0.23,0.01l0.07,0.17c0,0,0.02-0.01,0.07-0.05c0.04-0.04,0.22-0.02,0.22-0.05
		V3.97c0-0.01-0.01-0.03-0.03-0.03C16.91,3.98,16.83,3.92,16.83,3.92L16.83,3.92z M16.83,3.92"/>
	<path class="st0" d="M15.28,3.81c0.01,0.01,0.01,0.02,0.01,0.03l0.01,0.03c0,0.01,0.01,0.02,0.02,0.02h0.09
		c0.01,0,0.02-0.01,0.02-0.02l0.01-0.03c0-0.01,0.01-0.02,0.01-0.03H15.28z M15.28,3.81"/>
	<path class="st12" d="M15.36,3.86c-0.02,0-0.04,0-0.03,0.03L15.34,4c0,0.02,0.01,0.03,0.03,0.03c0.01,0,0.03-0.01,0.03-0.03
		l0.01-0.11C15.4,3.87,15.38,3.86,15.36,3.86L15.36,3.86z M15.36,3.86"/>
	<path class="st12" d="M15.09,5.28c0,0-0.06-0.01-0.11,0.03c0,0-0.02-0.06,0.07-0.08C15.15,5.21,15.09,5.28,15.09,5.28L15.09,5.28z
		 M15.09,5.28"/>
	<path class="st12" d="M15.02,5.2c0,0-0.05-0.03-0.11-0.02c0,0,0.02-0.06,0.11-0.04C15.11,5.17,15.02,5.2,15.02,5.2L15.02,5.2z
		 M15.02,5.2"/>
	<path class="st12" d="M15.06,5.23c0,0-0.06-0.01-0.12,0.03c0,0-0.02-0.06,0.08-0.08C15.12,5.17,15.06,5.23,15.06,5.23L15.06,5.23z
		 M15.06,5.23"/>
	<path class="st12" d="M16.17,5.4c0,0-0.06,0-0.1,0.05c0,0-0.03-0.06,0.05-0.09C16.2,5.32,16.17,5.4,16.17,5.4L16.17,5.4z
		 M16.17,5.4"/>
	<path class="st12" d="M16.08,5.33c0,0-0.05-0.02-0.11,0c0,0,0-0.06,0.09-0.06C16.15,5.28,16.08,5.33,16.08,5.33L16.08,5.33z
		 M16.08,5.33"/>
	<path class="st12" d="M16.12,5.36c0,0-0.06,0-0.11,0.05c0,0-0.04-0.06,0.06-0.09C16.17,5.28,16.12,5.36,16.12,5.36L16.12,5.36z
		 M16.12,5.36"/>
	<path class="st12" d="M16.84,5.43c0,0-0.02,0-0.06,0.03c0,0-0.03-0.06,0.06-0.08C16.92,5.35,16.84,5.43,16.84,5.43L16.84,5.43z
		 M16.84,5.43"/>
	<path class="st12" d="M16.8,5.35c0,0-0.05-0.02-0.11-0.01c0,0,0-0.06,0.09-0.05C16.88,5.31,16.8,5.35,16.8,5.35L16.8,5.35z
		 M16.8,5.35"/>
	<path class="st12" d="M16.84,5.38c0,0-0.06,0-0.11,0.04c0,0-0.03-0.06,0.06-0.08C16.89,5.31,16.84,5.38,16.84,5.38L16.84,5.38z
		 M16.84,5.38"/>
	<path class="st12" d="M15,4.89c0,0-0.05-0.03-0.12-0.01c0,0,0.01-0.07,0.11-0.05C15.08,4.85,15,4.89,15,4.89L15,4.89z M15,4.89"/>
	<path class="st12" d="M14.99,4.77c0,0-0.03-0.05-0.11-0.05c0,0,0.05-0.06,0.13-0.02C15.1,4.75,14.99,4.77,14.99,4.77L14.99,4.77z
		 M14.99,4.77"/>
	<path class="st12" d="M14.99,4.84c0,0-0.06-0.04-0.13-0.02c0,0,0.02-0.07,0.12-0.05C15.09,4.79,14.99,4.84,14.99,4.84L14.99,4.84z
		 M14.99,4.84"/>
	<path class="st7" d="M16.67,5.05c0.09,0,0.21-0.03,0.22-0.12c0.02-0.1-0.08-0.15-0.2-0.14c-0.09,0-0.33,0.05-0.5,0.05
		c-0.17-0.01-0.17-0.15,0.08-0.14c0.38,0.02,0.44-0.02,0.44-0.02c-0.2,0.03-0.28-0.03-0.5-0.03c-0.22,0-0.26,0.13-0.17,0.2
		c0.1,0.08,0.45,0.03,0.55,0.01c0.09-0.02,0.21-0.02,0.22,0.04c0.01,0.05-0.15,0.05-0.26,0.05C16.37,4.95,16.11,4.99,15.88,5
		c-0.19,0.01-0.22-0.04-0.26-0.09c0.01-0.02,0.02-0.03,0.02-0.05c0-0.01,0-0.02,0-0.03c0.01-0.01,0.03-0.04,0.04-0.07
		c0,0-0.05-0.01-0.09,0.01c-0.03-0.02-0.07-0.03-0.11-0.03c-0.04,0-0.08,0.01-0.11,0.03c-0.04-0.02-0.09-0.01-0.09-0.01
		c0.01,0.04,0.02,0.06,0.04,0.07c0,0.01,0,0.02,0,0.03c0,0.04,0.02,0.07,0.05,0.09c0.01,0.01,0.03,0.03,0.03,0.04l0.01,0.02
		c0,0.01,0.01,0.02,0.02,0.02c-0.16-0.01-0.23-0.1-0.27-0.15C15.1,4.83,15.07,4.71,15,4.7l-0.04,0.18c0,0,0.08,0.17,0.24,0.24
		c0.18,0.08,0.21,0.08,0.27,0.1c0.01,0.03-0.11,0.04-0.23,0.02c-0.08-0.01-0.19-0.12-0.25-0.11l0.07,0.14
		c0.2,0.11,0.37,0.11,0.52,0.09c0.1-0.02,0.14-0.09,0.15-0.12c0.04-0.01,0.09-0.01,0.23-0.05c0.06-0.01,0.13-0.02,0.2-0.02
		c0.02,0.04,0.06,0.09,0.22,0.09c0,0,0.04,0.05-0.09,0.04c-0.13-0.01-0.16-0.05-0.23-0.04l0.07,0.14c0,0,0.16-0.05,0.36-0.03
		c0,0,0.04,0.01,0.06-0.02c0.02-0.03,0.01-0.04-0.01-0.07c-0.01-0.01-0.02-0.06-0.02-0.1c0.07,0.02,0.3-0.02,0.38-0.02
		c0.08,0.01,0.09,0.09,0.07,0.12c-0.02,0.03-0.19,0-0.19,0l0.06,0.14c0,0,0.02-0.01,0.06-0.04c0.04-0.03,0.18-0.02,0.18-0.04V5.09
		c0-0.01-0.01-0.02-0.03-0.02C16.74,5.1,16.67,5.05,16.67,5.05L16.67,5.05z M16.67,5.05"/>
	<path class="st0" d="M15.41,4.96c0,0.01,0.01,0.02,0.01,0.03l0,0.02c0,0.01,0.01,0.01,0.02,0.01h0.07c0.01,0,0.02-0.01,0.02-0.01
		l0-0.02c0-0.01,0.01-0.02,0.01-0.03H15.41z M15.41,4.96"/>
	<path class="st12" d="M15.47,5.01c-0.02,0-0.03,0-0.03,0.02l0.01,0.09c0,0.01,0.01,0.02,0.02,0.02c0.01,0,0.02-0.01,0.02-0.02
		l0.01-0.09C15.51,5.01,15.49,5.01,15.47,5.01L15.47,5.01z M15.47,5.01"/>
	<path class="st12" d="M15.31,6.14c0,0-0.04-0.01-0.08,0.02c0,0-0.01-0.05,0.05-0.06C15.36,6.09,15.31,6.14,15.31,6.14L15.31,6.14z
		 M15.31,6.14"/>
	<path class="st12" d="M15.26,6.08c0,0-0.03-0.02-0.08-0.02c0,0,0.01-0.05,0.08-0.03C15.32,6.05,15.26,6.08,15.26,6.08L15.26,6.08z
		 M15.26,6.08"/>
	<path class="st12" d="M15.29,6.1c0,0-0.05-0.01-0.09,0.02c0,0-0.01-0.05,0.06-0.06C15.34,6.06,15.29,6.1,15.29,6.1L15.29,6.1z
		 M15.29,6.1"/>
	<path class="st12" d="M16.12,6.23c0,0-0.04,0-0.07,0.04c0,0-0.03-0.04,0.04-0.07C16.15,6.17,16.12,6.23,16.12,6.23L16.12,6.23z
		 M16.12,6.23"/>
	<path class="st12" d="M16.05,6.18c0,0-0.04-0.02-0.08,0c0,0,0-0.05,0.07-0.04C16.11,6.14,16.05,6.18,16.05,6.18L16.05,6.18z
		 M16.05,6.18"/>
	<path class="st12" d="M16.09,6.2c0,0-0.05,0-0.08,0.04c0,0-0.03-0.04,0.04-0.07C16.12,6.14,16.09,6.2,16.09,6.2L16.09,6.2z
		 M16.09,6.2"/>
	<path class="st12" d="M16.63,6.25c0,0-0.02,0-0.05,0.02c0,0-0.02-0.04,0.04-0.06C16.68,6.19,16.63,6.25,16.63,6.25L16.63,6.25z
		 M16.63,6.25"/>
	<path class="st12" d="M16.59,6.19c0,0-0.04-0.02-0.08,0c0,0,0-0.05,0.07-0.04C16.65,6.16,16.59,6.19,16.59,6.19L16.59,6.19z
		 M16.59,6.19"/>
	<path class="st12" d="M16.62,6.22c0,0-0.05,0-0.08,0.03c0,0-0.02-0.04,0.05-0.06C16.66,6.16,16.62,6.22,16.62,6.22L16.62,6.22z
		 M16.62,6.22"/>
	<path class="st12" d="M15.24,5.85c0,0-0.04-0.02-0.09-0.01c0,0,0.01-0.05,0.08-0.04C15.31,5.81,15.24,5.85,15.24,5.85L15.24,5.85z
		 M15.24,5.85"/>
	<path class="st12" d="M15.24,5.76c0,0-0.03-0.04-0.08-0.04c0,0,0.04-0.05,0.1-0.01C15.32,5.75,15.24,5.76,15.24,5.76L15.24,5.76z
		 M15.24,5.76"/>
	<path class="st12" d="M15.24,5.81c0,0-0.04-0.03-0.1-0.02c0,0,0.01-0.05,0.09-0.03C15.31,5.78,15.24,5.81,15.24,5.81L15.24,5.81z
		 M15.24,5.81"/>
	<path class="st7" d="M16.5,5.97c0.07,0,0.15-0.02,0.17-0.09c0.02-0.07-0.06-0.11-0.15-0.11c-0.07,0-0.25,0.04-0.38,0.03
		c-0.13,0-0.13-0.11,0.06-0.1c0.28,0.02,0.33-0.02,0.33-0.02c-0.15,0.03-0.21-0.02-0.37-0.02c-0.16,0-0.19,0.1-0.13,0.15
		c0.07,0.06,0.34,0.02,0.41,0.01c0.07-0.01,0.16-0.01,0.17,0.03c0.01,0.04-0.11,0.04-0.2,0.03c-0.13,0-0.33,0.03-0.5,0.04
		c-0.14,0.01-0.16-0.03-0.2-0.07c0.01-0.01,0.01-0.03,0.01-0.04c0-0.01,0-0.01,0-0.02c0.01-0.01,0.02-0.03,0.03-0.05
		c0,0-0.04-0.01-0.06,0.01c-0.02-0.02-0.05-0.03-0.08-0.03c-0.03,0-0.06,0.01-0.08,0.03c-0.03-0.01-0.06-0.01-0.06-0.01
		c0.01,0.03,0.02,0.04,0.03,0.05c0,0.01,0,0.01,0,0.02c0,0.03,0.01,0.05,0.04,0.07c0.01,0.01,0.02,0.02,0.02,0.03l0,0.02
		c0,0.01,0.01,0.01,0.01,0.02c-0.12-0.01-0.17-0.08-0.2-0.11c-0.03-0.04-0.05-0.13-0.1-0.14l-0.03,0.14c0,0,0.06,0.13,0.18,0.18
		c0.13,0.06,0.16,0.06,0.2,0.08c0.01,0.02-0.08,0.03-0.17,0.02c-0.06-0.01-0.14-0.09-0.19-0.08l0.05,0.11
		c0.15,0.08,0.28,0.08,0.39,0.07c0.08-0.01,0.11-0.07,0.11-0.09c0.03-0.01,0.07-0.01,0.18-0.03c0.05-0.01,0.1-0.02,0.15-0.02
		c0.01,0.03,0.05,0.07,0.16,0.07c0,0,0.03,0.04-0.07,0.03c-0.1-0.01-0.12-0.03-0.18-0.03l0.05,0.1c0,0,0.12-0.04,0.27-0.02
		c0,0,0.03,0.01,0.04-0.01c0.02-0.02,0.01-0.03-0.01-0.05c-0.01-0.01-0.01-0.05-0.02-0.07c0.05,0.01,0.22-0.02,0.28-0.01
		c0.06,0,0.07,0.07,0.06,0.09c-0.01,0.02-0.14,0-0.14,0l0.04,0.1c0,0,0.01-0.01,0.05-0.03c0.03-0.02,0.13-0.01,0.13-0.03V6
		c0-0.01-0.01-0.02-0.02-0.02C16.55,6,16.5,5.97,16.5,5.97L16.5,5.97z M16.5,5.97"/>
	<path class="st0" d="M15.55,5.9c0,0.01,0.01,0.01,0.01,0.02l0,0.02c0,0.01,0.01,0.01,0.01,0.01h0.06c0.01,0,0.01,0,0.01-0.01
		l0-0.02c0-0.01,0-0.01,0.01-0.02H15.55z M15.55,5.9"/>
	<path class="st12" d="M15.6,5.94c-0.01,0-0.02,0-0.02,0.02l0.01,0.07c0,0.01,0.01,0.02,0.02,0.02c0.01,0,0.02-0.01,0.02-0.02
		l0.01-0.07C15.62,5.94,15.61,5.94,15.6,5.94L15.6,5.94z M15.6,5.94"/>
</g>
</svg>
