<?xml version="1.0" encoding="utf-8"?>
<!-- Generator: Adobe Illustrator 25.0.0, SVG Export Plug-In . SVG Version: 6.00 Build 0)  -->
<svg version="1.1" id="Capa_1" xmlns="http://www.w3.org/2000/svg" xmlns:xlink="http://www.w3.org/1999/xlink" x="0px" y="0px"
	 viewBox="0 0 32 18.62" style="enable-background:new 0 0 32 18.62;" xml:space="preserve">
<style type="text/css">
	.st0{fill:#FF4B55;}
	.st1{fill:#464655;}
	.st2{fill:#73AF00;}
	.st3{fill:#F5F5F5;}
	.st4{fill:#41479B;}
	.st5{fill:#FFF5DC;}
	.st6{fill:#D27D69;}
	.st7{fill:#FFE15A;}
	.st8{fill:#B95546;}
	.st9{fill:#DCBE82;}
	.st10{fill:#D2AA73;}
	.st11{fill:#4173CD;}
	.st12{fill:#82AFFF;}
	.st13{fill:#F09146;}
	.st14{fill:#FFB400;}
	.st15{fill:#965032;}
	.st16{fill:#BE7855;}
	.st17{fill:#FFBE3C;}
	.st18{fill:#EAF3F5;}
	.st19{fill:#8C5A28;}
	.st20{fill:#F0C850;}
	.st21{fill:#FF6E55;}
	.st22{fill:#FFBE5A;}
	.st23{fill:#3CC8FF;}
	.st24{fill:#825546;}
	.st25{fill:#FFD255;}
	.st26{fill:#FFD25A;}
	.st27{fill:#509664;}
	.st28{fill:#F0AA00;}
	.st29{fill:#A561CD;}
	.st30{fill:#B34900;}
	.st31{fill:#64B496;}
	.st32{fill:#FF6B71;}
	.st33{fill:#5F64B9;}
	.st34{fill:#F5F0F0;}
	.st35{fill:#5A4646;}
	.st36{fill:#E6E1CD;}
	.st37{fill:#FFD0AF;}
	.st38{fill:#FFAF94;}
	.st39{fill:#8CB400;}
	.st40{fill:#69C3FF;}
	.st41{fill:#009B64;}
	.st42{fill:#5AA0E6;}
	.st43{fill:#FFC88C;}
	.st44{fill:#E1E1E1;}
	.st45{fill:#966446;}
	.st46{fill:#BE915A;}
	.st47{fill:#B9B9B9;}
	.st48{fill:#F0C727;}
	.st49{fill:#50AF69;}
	.st50{fill:#FFE6E6;}
	.st51{fill:#FFB750;}
	.st52{fill:#FFC455;}
	.st53{fill:#FFCD55;}
	.st54{fill:#9BC800;}
	.st55{fill:#FFE14E;}
	.st56{fill:#FFB14E;}
	.st57{fill:#B46446;}
	.st58{fill:#5FA000;}
	.st59{fill:#F2DD30;}
	.st60{fill:#FFC855;}
	.st61{fill:#A0A0A0;}
	.st62{fill:#69B469;}
	.st63{fill:#F4E08F;}
	.st64{fill:#ECD077;}
	.st65{fill:#FCF0A8;}
	.st66{fill:#FAB446;}
	.st67{fill:#C8414B;}
	.st68{fill:#FF9B46;}
	.st69{fill:#FF9B55;}
	.st70{fill:#82C3D2;}
	.st71{fill:#5AA587;}
	.st72{fill:#CDCDCD;}
	.st73{fill:#B4A08C;}
	.st74{fill:#FFD250;}
	.st75{fill:#00C3A0;}
	.st76{fill:#00AADC;}
	.st77{fill:#732D37;}
	.st78{fill:#AAD264;}
	.st79{fill:#874150;}
	.st80{fill:#783C46;}
	.st81{fill:#FFB478;}
	.st82{fill:#9B4B5A;}
	.st83{fill:#FFCD5A;}
	.st84{fill:#FFAA5A;}
	.st85{fill:#FF875A;}
	.st86{fill:#E6B432;}
	.st87{fill:#C86464;}
	.st88{fill:#FFF5E1;}
	.st89{fill:#963C3C;}
	.st90{fill:#5A8250;}
	.st91{fill:#AFEBFF;}
	.st92{fill:#557DE6;}
	.st93{fill:#D23741;}
	.st94{fill:#64C86E;}
	.st95{fill:#873250;}
	.st96{fill:#41AA5A;}
	.st97{fill:#8CD7FF;}
	.st98{fill:#6EC86E;}
	.st99{fill:#FFF0E1;}
	.st100{fill:#FFC75A;}
	.st101{fill:#FFD350;}
	.st102{fill:#FFBE50;}
	.st103{fill:#A54B50;}
	.st104{fill:#C87878;}
	.st105{fill:#FF1722;}
	.st106{fill:#FFB441;}
	.st107{fill:#5064AA;}
	.st108{fill:#FFA0D2;}
	.st109{fill:#FF7350;}
	.st110{fill:#245DBD;}
	.st111{fill:#D35A10;}
	.st112{fill:#FFA033;}
	.st113{fill:#FF9480;}
	.st114{fill:#FFA0E4;}
	.st115{fill:#696E7D;}
	.st116{fill:#FFFCFF;}
	.st117{fill:#EBEBEB;}
	.st118{fill:#FF4B57;}
	.st119{fill:#D2D2D2;}
	.st120{fill:#F0C814;}
	.st121{fill:#F7B518;}
	.st122{fill:#2C2F38;}
	.st123{fill:#4C8056;}
	.st124{fill:#F0C419;}
	.st125{fill:#C03A2B;}
	.st126{fill:#EA3F3F;}
	.st127{fill:#E4E3E1;}
	.st128{fill:#2472B2;}
</style>
<g>
	<path class="st2" d="M0,12.38h31.97v5.68c0,0.27-0.25,0.49-0.55,0.49H0.55c-0.3,0-0.55-0.22-0.55-0.49V12.38z M0,12.38"/>
	<path class="st1" d="M0.55,0.04h30.87c0.3,0,0.55,0.22,0.55,0.49v5.68H0V0.53C0,0.26,0.25,0.04,0.55,0.04L0.55,0.04z M0.55,0.04"/>
	<rect y="6.21" class="st67" width="31.97" height="6.17"/>
	<rect y="5.89" class="st3" width="31.97" height="0.97"/>
	<rect y="11.73" class="st3" width="31.97" height="0.97"/>
	<path class="st3" d="M18.94,5.19c0.44-0.81,0.91-2.68,0.91-2.68s-1.38,1.48-1.82,2.29c-0.09,0.17-0.05,0.36,0.08,0.5l-5.06,9.21
		l0.34,0.15l5.06-9.21C18.65,5.46,18.84,5.36,18.94,5.19L18.94,5.19z M18.94,5.19"/>
	<path class="st3" d="M13.03,5.19c-0.44-0.81-0.91-2.68-0.91-2.68s1.38,1.48,1.82,2.29c0.09,0.17,0.05,0.36-0.08,0.5l5.06,9.21
		l-0.34,0.15l-5.06-9.21C13.32,5.46,13.13,5.36,13.03,5.19L13.03,5.19z M13.03,5.19"/>
	<path class="st67" d="M18.74,9.3c0,2.69-2.25,4.87-2.76,4.87c-0.51,0-2.76-2.18-2.76-4.87s2.25-4.87,2.76-4.87
		C16.49,4.43,18.74,6.61,18.74,9.3L18.74,9.3z M18.74,9.3"/>
	<path class="st1" d="M18.19,11.65c0.32-0.7,0.55-1.5,0.55-2.35c0-0.85-0.23-1.65-0.55-2.35c-0.32,0.7-0.55,1.5-0.55,2.35
		C17.64,10.15,17.86,10.95,18.19,11.65L18.19,11.65z M18.19,11.65"/>
	<path class="st1" d="M13.78,6.95c-0.32,0.7-0.55,1.5-0.55,2.35c0,0.85,0.23,1.65,0.55,2.35c0.32-0.7,0.55-1.5,0.55-2.35
		C14.33,8.45,14.1,7.65,13.78,6.95L13.78,6.95z M13.78,6.95"/>
	<path class="st3" d="M16.54,9.3c0,0.4-0.25,0.73-0.55,0.73c-0.3,0-0.55-0.33-0.55-0.73c0-0.4,0.25-0.73,0.55-0.73
		C16.29,8.57,16.54,8.89,16.54,9.3L16.54,9.3z M16.54,9.3"/>
	<path class="st3" d="M16.07,4.43v4.14c0.15-0.28,0.42-1.09,0.42-2.07C16.48,5.52,16.22,4.7,16.07,4.43L16.07,4.43z M16.07,4.43"/>
	<path class="st3" d="M15.9,4.43c-0.15,0.28-0.42,1.09-0.42,2.07c0,0.98,0.27,1.79,0.42,2.07V4.43z M15.9,4.43"/>
	<path class="st3" d="M16.07,10.03v4.14c0.15-0.28,0.42-1.09,0.42-2.07S16.22,10.31,16.07,10.03L16.07,10.03z M16.07,10.03"/>
	<path class="st3" d="M15.9,10.03c-0.15,0.28-0.42,1.09-0.42,2.07c0,0.98,0.27,1.79,0.42,2.07V10.03z M15.9,10.03"/>
</g>
</svg>
