<?xml version="1.0" encoding="utf-8"?>
<!-- Generator: Adobe Illustrator 25.0.0, SVG Export Plug-In . SVG Version: 6.00 Build 0)  -->
<svg version="1.1" id="Capa_1" xmlns="http://www.w3.org/2000/svg" xmlns:xlink="http://www.w3.org/1999/xlink" x="0px" y="0px"
	 viewBox="0 0 32 18.62" style="enable-background:new 0 0 32 18.62;" xml:space="preserve">
<style type="text/css">
	.st0{fill:#FF4B55;}
	.st1{fill:#464655;}
	.st2{fill:#73AF00;}
	.st3{fill:#F5F5F5;}
	.st4{fill:#41479B;}
	.st5{fill:#FFF5DC;}
	.st6{fill:#D27D69;}
	.st7{fill:#FFE15A;}
	.st8{fill:#B95546;}
	.st9{fill:#DCBE82;}
	.st10{fill:#D2AA73;}
	.st11{fill:#4173CD;}
	.st12{fill:#82AFFF;}
	.st13{fill:#F09146;}
	.st14{fill:#FFB400;}
	.st15{fill:#965032;}
	.st16{fill:#BE7855;}
	.st17{fill:#FFBE3C;}
	.st18{fill:#EAF3F5;}
	.st19{fill:#8C5A28;}
	.st20{fill:#F0C850;}
	.st21{fill:#FF6E55;}
	.st22{fill:#FFBE5A;}
	.st23{fill:#3CC8FF;}
	.st24{fill:#825546;}
	.st25{fill:#FFD255;}
	.st26{fill:#FFD25A;}
	.st27{fill:#509664;}
	.st28{fill:#F0AA00;}
	.st29{fill:#A561CD;}
	.st30{fill:#B34900;}
	.st31{fill:#64B496;}
	.st32{fill:#FF6B71;}
	.st33{fill:#5F64B9;}
	.st34{fill:#F5F0F0;}
	.st35{fill:#5A4646;}
	.st36{fill:#E6E1CD;}
	.st37{fill:#FFD0AF;}
	.st38{fill:#FFAF94;}
	.st39{fill:#8CB400;}
	.st40{fill:#69C3FF;}
	.st41{fill:#009B64;}
	.st42{fill:#5AA0E6;}
	.st43{fill:#FFC88C;}
	.st44{fill:#E1E1E1;}
	.st45{fill:#966446;}
	.st46{fill:#BE915A;}
	.st47{fill:#B9B9B9;}
	.st48{fill:#F0C727;}
	.st49{fill:#50AF69;}
	.st50{fill:#FFE6E6;}
	.st51{fill:#FFB750;}
	.st52{fill:#FFC455;}
	.st53{fill:#FFCD55;}
	.st54{fill:#9BC800;}
	.st55{fill:#FFE14E;}
	.st56{fill:#FFB14E;}
	.st57{fill:#B46446;}
	.st58{fill:#5FA000;}
	.st59{fill:#F2DD30;}
	.st60{fill:#FFC855;}
	.st61{fill:#A0A0A0;}
	.st62{fill:#69B469;}
	.st63{fill:#F4E08F;}
	.st64{fill:#ECD077;}
	.st65{fill:#FCF0A8;}
	.st66{fill:#FAB446;}
	.st67{fill:#C8414B;}
	.st68{fill:#FF9B46;}
	.st69{fill:#FF9B55;}
	.st70{fill:#82C3D2;}
	.st71{fill:#5AA587;}
	.st72{fill:#CDCDCD;}
	.st73{fill:#B4A08C;}
	.st74{fill:#FFD250;}
	.st75{fill:#00C3A0;}
	.st76{fill:#00AADC;}
	.st77{fill:#732D37;}
	.st78{fill:#AAD264;}
	.st79{fill:#874150;}
	.st80{fill:#783C46;}
	.st81{fill:#FFB478;}
	.st82{fill:#9B4B5A;}
	.st83{fill:#FFCD5A;}
	.st84{fill:#FFAA5A;}
	.st85{fill:#FF875A;}
	.st86{fill:#E6B432;}
	.st87{fill:#C86464;}
	.st88{fill:#FFF5E1;}
	.st89{fill:#963C3C;}
	.st90{fill:#5A8250;}
	.st91{fill:#AFEBFF;}
	.st92{fill:#557DE6;}
	.st93{fill:#D23741;}
	.st94{fill:#64C86E;}
	.st95{fill:#873250;}
	.st96{fill:#41AA5A;}
	.st97{fill:#8CD7FF;}
	.st98{fill:#6EC86E;}
	.st99{fill:#FFF0E1;}
	.st100{fill:#FFC75A;}
	.st101{fill:#FFD350;}
	.st102{fill:#FFBE50;}
	.st103{fill:#A54B50;}
	.st104{fill:#C87878;}
	.st105{fill:#FF1722;}
	.st106{fill:#FFB441;}
	.st107{fill:#5064AA;}
	.st108{fill:#FFA0D2;}
	.st109{fill:#FF7350;}
	.st110{fill:#245DBD;}
	.st111{fill:#D35A10;}
	.st112{fill:#FFA033;}
	.st113{fill:#FF9480;}
	.st114{fill:#FFA0E4;}
	.st115{fill:#696E7D;}
	.st116{fill:#FFFCFF;}
	.st117{fill:#EBEBEB;}
	.st118{fill:#FF4B57;}
	.st119{fill:#D2D2D2;}
	.st120{fill:#F0C814;}
	.st121{fill:#F7B518;}
	.st122{fill:#2C2F38;}
	.st123{fill:#4C8056;}
	.st124{fill:#F0C419;}
	.st125{fill:#C03A2B;}
	.st126{fill:#EA3F3F;}
	.st127{fill:#E4E3E1;}
	.st128{fill:#2472B2;}
</style>
<g>
	<path class="st3" d="M31.42,18.55H0.55c-0.3,0-0.55-0.22-0.55-0.49V0.53c0-0.27,0.25-0.49,0.55-0.49h30.87
		c0.3,0,0.55,0.22,0.55,0.49v17.53C31.97,18.33,31.72,18.55,31.42,18.55L31.42,18.55z M31.42,18.55"/>
	<path class="st0" d="M19.04,5.24c-2.53-1.49-5.95-0.88-7.64,1.35c-0.85,1.11-0.5,2.63,0.76,3.38c1.27,0.75,2.97,0.44,3.82-0.68
		c0.84-1.12,2.55-1.42,3.82-0.68c1.27,0.75,1.61,2.26,0.76,3.38C22.26,9.76,21.58,6.74,19.04,5.24"/>
	<path class="st4" d="M11.4,6.6c-0.85,1.11-0.5,2.63,0.76,3.38c1.27,0.75,2.97,0.44,3.82-0.68c0.84-1.12,2.55-1.42,3.82-0.68
		c1.27,0.75,1.61,2.26,0.76,3.38c-1.69,2.24-5.11,2.84-7.64,1.35C10.4,11.86,9.71,8.83,11.4,6.6"/>
	<path class="st1" d="M21.85,3.4l1,1.33C22.93,4.85,22.9,5,22.77,5.07l-0.25,0.15c-0.13,0.07-0.3,0.04-0.38-0.07l-1-1.33
		c-0.08-0.11-0.05-0.26,0.08-0.34l0.26-0.15C21.59,3.26,21.76,3.29,21.85,3.4L21.85,3.4z M21.85,3.4"/>
	<path class="st1" d="M23.39,5.46l1,1.33c0.08,0.11,0.05,0.26-0.08,0.34l-0.26,0.15c-0.13,0.07-0.3,0.04-0.38-0.07l-1-1.33
		c-0.08-0.11-0.05-0.26,0.08-0.34l0.25-0.15C23.14,5.31,23.31,5.34,23.39,5.46L23.39,5.46z M23.39,5.46"/>
	<path class="st1" d="M22.92,2.77l2.55,3.38c0.08,0.11,0.05,0.26-0.08,0.34l-0.26,0.15c-0.13,0.07-0.3,0.04-0.38-0.07L22.2,3.19
		c-0.08-0.11-0.05-0.26,0.08-0.34l0.26-0.15C22.67,2.63,22.84,2.66,22.92,2.77L22.92,2.77z M22.92,2.77"/>
	<path class="st1" d="M23.99,2.14l1,1.33c0.08,0.11,0.05,0.26-0.08,0.34l-0.25,0.15c-0.13,0.07-0.3,0.04-0.38-0.07l-1-1.33
		c-0.08-0.11-0.05-0.26,0.08-0.34l0.26-0.15C23.73,2,23.91,2.03,23.99,2.14L23.99,2.14z M23.99,2.14"/>
	<path class="st1" d="M25.54,4.2l1,1.33c0.08,0.11,0.05,0.26-0.08,0.34l-0.25,0.15c-0.13,0.07-0.3,0.04-0.38-0.07l-1-1.33
		c-0.08-0.11-0.05-0.26,0.08-0.34l0.25-0.15C25.28,4.05,25.45,4.08,25.54,4.2L25.54,4.2z M25.54,4.2"/>
	<path class="st1" d="M8.29,11.39l2.55,3.38c0.08,0.11,0.05,0.26-0.08,0.34l-0.26,0.15c-0.13,0.07-0.3,0.04-0.38-0.07l-2.55-3.38
		c-0.08-0.11-0.05-0.26,0.08-0.34l0.26-0.15C8.03,11.25,8.2,11.28,8.29,11.39L8.29,11.39z M8.29,11.39"/>
	<path class="st1" d="M7.22,12.03l1,1.33c0.08,0.11,0.05,0.26-0.08,0.34l-0.25,0.15c-0.13,0.07-0.3,0.04-0.38-0.07l-1-1.33
		c-0.08-0.11-0.05-0.26,0.08-0.34l0.25-0.15C6.96,11.88,7.13,11.91,7.22,12.03L7.22,12.03z M7.22,12.03"/>
	<path class="st1" d="M8.76,14.08l1,1.33c0.08,0.11,0.05,0.26-0.08,0.34l-0.25,0.15c-0.13,0.07-0.3,0.04-0.38-0.07l-1-1.33
		C7.96,14.38,8,14.23,8.13,14.16l0.26-0.15C8.51,13.93,8.68,13.96,8.76,14.08L8.76,14.08z M8.76,14.08"/>
	<path class="st1" d="M6.15,12.66l2.55,3.38c0.08,0.11,0.05,0.26-0.08,0.34l-0.25,0.15c-0.13,0.07-0.3,0.04-0.38-0.07l-2.55-3.38
		c-0.08-0.11-0.05-0.26,0.08-0.34l0.26-0.15C5.89,12.51,6.06,12.54,6.15,12.66L6.15,12.66z M6.15,12.66"/>
	<path class="st1" d="M7.57,6.78l2.55-3.38c0.08-0.11,0.26-0.14,0.38-0.07l0.26,0.15c0.13,0.07,0.16,0.23,0.08,0.34L8.29,7.2
		C8.2,7.31,8.03,7.35,7.9,7.27L7.65,7.12C7.52,7.05,7.49,6.9,7.57,6.78L7.57,6.78z M7.57,6.78"/>
	<path class="st1" d="M6.5,6.15l2.55-3.38c0.08-0.11,0.26-0.14,0.38-0.07l0.25,0.15c0.13,0.07,0.16,0.23,0.08,0.34L7.22,6.57
		C7.13,6.69,6.96,6.72,6.83,6.64L6.58,6.49C6.45,6.42,6.42,6.27,6.5,6.15L6.5,6.15z M6.5,6.15"/>
	<path class="st1" d="M5.43,5.53l2.55-3.38C8.07,2.03,8.24,2,8.36,2.07l0.25,0.15C8.74,2.3,8.78,2.45,8.69,2.56L6.15,5.95
		C6.06,6.06,5.89,6.09,5.76,6.01L5.51,5.86C5.38,5.79,5.35,5.64,5.43,5.53L5.43,5.53z M5.43,5.53"/>
	<path class="st1" d="M21.14,14.77l1-1.33c0.08-0.11,0.26-0.14,0.38-0.07l0.25,0.15c0.13,0.07,0.16,0.23,0.08,0.34l-1,1.33
		c-0.08,0.11-0.26,0.14-0.38,0.07l-0.26-0.15C21.08,15.03,21.05,14.88,21.14,14.77L21.14,14.77z M21.14,14.77"/>
	<path class="st1" d="M22.68,12.73l1-1.33c0.08-0.11,0.26-0.14,0.38-0.07l0.26,0.15c0.13,0.07,0.16,0.23,0.08,0.34l-1.01,1.33
		c-0.08,0.11-0.25,0.14-0.38,0.07l-0.25-0.15C22.63,12.99,22.6,12.84,22.68,12.73L22.68,12.73z M22.68,12.73"/>
	<path class="st1" d="M22.2,15.41l1-1.33c0.08-0.11,0.26-0.14,0.38-0.07l0.26,0.15c0.13,0.07,0.16,0.23,0.08,0.34l-1,1.33
		c-0.08,0.11-0.26,0.14-0.38,0.07l-0.26-0.15C22.15,15.67,22.12,15.52,22.2,15.41L22.2,15.41z M22.2,15.41"/>
	<path class="st1" d="M23.75,13.35l1-1.33c0.08-0.11,0.26-0.14,0.38-0.07l0.26,0.15c0.13,0.07,0.16,0.23,0.08,0.34l-1,1.33
		c-0.08,0.11-0.26,0.14-0.38,0.07l-0.26-0.15C23.7,13.61,23.67,13.46,23.75,13.35L23.75,13.35z M23.75,13.35"/>
	<path class="st1" d="M23.28,16.03l1-1.33c0.08-0.11,0.25-0.14,0.38-0.07l0.25,0.15c0.13,0.07,0.16,0.23,0.08,0.34l-1,1.33
		c-0.08,0.11-0.26,0.14-0.38,0.07l-0.26-0.15C23.22,16.3,23.19,16.15,23.28,16.03L23.28,16.03z M23.28,16.03"/>
	<path class="st1" d="M24.82,13.99l1-1.33c0.08-0.11,0.26-0.14,0.38-0.07l0.25,0.15c0.13,0.07,0.16,0.23,0.08,0.34l-1,1.33
		c-0.08,0.11-0.25,0.14-0.38,0.07l-0.25-0.15C24.77,14.25,24.74,14.1,24.82,13.99L24.82,13.99z M24.82,13.99"/>
</g>
</svg>
