<?xml version="1.0" encoding="utf-8"?>
<!-- Generator: Adobe Illustrator 25.0.0, SVG Export Plug-In . SVG Version: 6.00 Build 0)  -->
<svg version="1.1" id="Capa_1" xmlns="http://www.w3.org/2000/svg" xmlns:xlink="http://www.w3.org/1999/xlink" x="0px" y="0px"
	 viewBox="0 0 32 18.62" style="enable-background:new 0 0 32 18.62;" xml:space="preserve">
<style type="text/css">
	.st0{fill:#FF4B55;}
	.st1{fill:#464655;}
	.st2{fill:#73AF00;}
	.st3{fill:#F5F5F5;}
	.st4{fill:#41479B;}
	.st5{fill:#FFF5DC;}
	.st6{fill:#D27D69;}
	.st7{fill:#FFE15A;}
	.st8{fill:#B95546;}
	.st9{fill:#DCBE82;}
	.st10{fill:#D2AA73;}
	.st11{fill:#4173CD;}
	.st12{fill:#82AFFF;}
	.st13{fill:#F09146;}
	.st14{fill:#FFB400;}
	.st15{fill:#965032;}
	.st16{fill:#BE7855;}
	.st17{fill:#FFBE3C;}
	.st18{fill:#EAF3F5;}
	.st19{fill:#8C5A28;}
	.st20{fill:#F0C850;}
	.st21{fill:#FF6E55;}
	.st22{fill:#FFBE5A;}
	.st23{fill:#3CC8FF;}
	.st24{fill:#825546;}
	.st25{fill:#FFD255;}
	.st26{fill:#FFD25A;}
	.st27{fill:#509664;}
	.st28{fill:#F0AA00;}
	.st29{fill:#A561CD;}
	.st30{fill:#B34900;}
	.st31{fill:#64B496;}
	.st32{fill:#FF6B71;}
	.st33{fill:#5F64B9;}
	.st34{fill:#F5F0F0;}
	.st35{fill:#5A4646;}
	.st36{fill:#E6E1CD;}
	.st37{fill:#FFD0AF;}
	.st38{fill:#FFAF94;}
	.st39{fill:#8CB400;}
	.st40{fill:#69C3FF;}
	.st41{fill:#009B64;}
	.st42{fill:#5AA0E6;}
	.st43{fill:#FFC88C;}
	.st44{fill:#E1E1E1;}
	.st45{fill:#966446;}
	.st46{fill:#BE915A;}
	.st47{fill:#B9B9B9;}
	.st48{fill:#F0C727;}
	.st49{fill:#50AF69;}
	.st50{fill:#FFE6E6;}
	.st51{fill:#FFB750;}
	.st52{fill:#FFC455;}
	.st53{fill:#FFCD55;}
	.st54{fill:#9BC800;}
	.st55{fill:#FFE14E;}
	.st56{fill:#FFB14E;}
	.st57{fill:#B46446;}
	.st58{fill:#5FA000;}
	.st59{fill:#F2DD30;}
	.st60{fill:#FFC855;}
	.st61{fill:#A0A0A0;}
	.st62{fill:#69B469;}
	.st63{fill:#F4E08F;}
	.st64{fill:#ECD077;}
	.st65{fill:#FCF0A8;}
	.st66{fill:#FAB446;}
	.st67{fill:#C8414B;}
	.st68{fill:#FF9B46;}
	.st69{fill:#FF9B55;}
	.st70{fill:#82C3D2;}
	.st71{fill:#5AA587;}
	.st72{fill:#CDCDCD;}
	.st73{fill:#B4A08C;}
	.st74{fill:#FFD250;}
	.st75{fill:#00C3A0;}
	.st76{fill:#00AADC;}
	.st77{fill:#732D37;}
	.st78{fill:#AAD264;}
	.st79{fill:#874150;}
	.st80{fill:#783C46;}
	.st81{fill:#FFB478;}
	.st82{fill:#9B4B5A;}
	.st83{fill:#FFCD5A;}
	.st84{fill:#FFAA5A;}
	.st85{fill:#FF875A;}
	.st86{fill:#E6B432;}
	.st87{fill:#C86464;}
	.st88{fill:#FFF5E1;}
	.st89{fill:#963C3C;}
	.st90{fill:#5A8250;}
	.st91{fill:#AFEBFF;}
	.st92{fill:#557DE6;}
	.st93{fill:#D23741;}
	.st94{fill:#64C86E;}
	.st95{fill:#873250;}
	.st96{fill:#41AA5A;}
	.st97{fill:#8CD7FF;}
	.st98{fill:#6EC86E;}
	.st99{fill:#FFF0E1;}
	.st100{fill:#FFC75A;}
	.st101{fill:#FFD350;}
	.st102{fill:#FFBE50;}
	.st103{fill:#A54B50;}
	.st104{fill:#C87878;}
	.st105{fill:#FF1722;}
	.st106{fill:#FFB441;}
	.st107{fill:#5064AA;}
	.st108{fill:#FFA0D2;}
	.st109{fill:#FF7350;}
	.st110{fill:#245DBD;}
	.st111{fill:#D35A10;}
	.st112{fill:#FFA033;}
	.st113{fill:#FF9480;}
	.st114{fill:#FFA0E4;}
	.st115{fill:#696E7D;}
	.st116{fill:#FFFCFF;}
	.st117{fill:#EBEBEB;}
	.st118{fill:#FF4B57;}
	.st119{fill:#D2D2D2;}
	.st120{fill:#F0C814;}
	.st121{fill:#F7B518;}
	.st122{fill:#2C2F38;}
	.st123{fill:#4C8056;}
	.st124{fill:#F0C419;}
	.st125{fill:#C03A2B;}
	.st126{fill:#EA3F3F;}
	.st127{fill:#E4E3E1;}
	.st128{fill:#2472B2;}
</style>
<g>
	<path class="st4" d="M31.42,18.55H0.55c-0.3,0-0.55-0.22-0.55-0.49V0.53c0-0.27,0.25-0.49,0.55-0.49h30.87
		c0.3,0,0.55,0.22,0.55,0.49v17.53C31.97,18.33,31.72,18.55,31.42,18.55L31.42,18.55z M31.42,18.55"/>
	<path class="st3" d="M15.43,0.04h-0.96L9.37,3V0.04H6.61V3L1.51,0.04H0.55C0.25,0.04,0,0.26,0,0.53v0.39l4.38,2.54H0v2.44h4.38
		L0,8.42v0.39C0,9.08,0.25,9.3,0.55,9.3h0.96l5.11-2.96V9.3h2.76V6.34l5.11,2.96h0.96c0.3,0,0.55-0.22,0.55-0.49V8.42L11.6,5.89
		h4.38V3.45H11.6l4.38-2.54V0.53C15.98,0.26,15.74,0.04,15.43,0.04L15.43,0.04z M15.43,0.04"/>
	<path class="st0" d="M15.98,3.94H8.82v-3.9H7.17v3.9H0V5.4h7.17v3.9h1.65V5.4h7.17V3.94z M15.98,3.94"/>
	<path class="st0" d="M6.06,3.45l-5.8-3.33C0.11,0.21,0,0.36,0,0.53v0.03l5.05,2.9H6.06z M6.06,3.45"/>
	<path class="st0" d="M10.38,3.45l5.52-3.16c-0.1-0.14-0.27-0.24-0.47-0.24h-0.12L9.37,3.45H10.38z M10.38,3.45"/>
	<path class="st0" d="M5.59,5.89L0.08,9.05C0.17,9.19,0.35,9.3,0.55,9.3h0.1L6.6,5.89H5.59z M5.59,5.89"/>
	<path class="st0" d="M15.98,8.85l-5.16-2.96H9.8l5.86,3.36C15.84,9.18,15.96,9.03,15.98,8.85L15.98,8.85z M15.98,8.85"/>
	<path class="st7" d="M23.97,4.68c0,0-0.23-0.81-0.92-1.22c0,0,0.69,1.02,0.69,1.83L23.97,4.68z M23.97,4.68"/>
	<path class="st7" d="M22.9,3.79c0,0,0.48,0.26,0.74,0.69L23.43,4.9C23.43,4.9,23.26,4.3,22.9,3.79L22.9,3.79z M22.9,3.79"/>
	<path class="st7" d="M22.37,3.89c0,0,0.84,0.23,1.23,0.71l-0.24,0.32C23.36,4.91,23.04,4.37,22.37,3.89L22.37,3.89z M22.37,3.89"/>
	<path class="st7" d="M22.24,4.26c0,0,0.88,0.12,1.28,0.49l-0.1,0.35C23.42,5.1,22.94,4.59,22.24,4.26L22.24,4.26z M22.24,4.26"/>
	<path class="st7" d="M22.27,4.51c0,0,0.85,0.08,1.24,0.47c0.39,0.39-0.14,0.27-0.14,0.27S22.92,4.8,22.27,4.51L22.27,4.51z
		 M22.27,4.51"/>
	<path class="st7" d="M23.97,4.68c0,0,0.23-0.81,0.92-1.22c0,0-0.69,1.02-0.69,1.83L23.97,4.68z M23.97,4.68"/>
	<path class="st7" d="M25.03,3.79c0,0-0.48,0.26-0.74,0.69L24.5,4.9C24.5,4.9,24.67,4.3,25.03,3.79L25.03,3.79z M25.03,3.79"/>
	<path class="st7" d="M25.56,3.89c0,0-0.84,0.23-1.23,0.71l0.24,0.32C24.57,4.91,24.89,4.37,25.56,3.89L25.56,3.89z M25.56,3.89"/>
	<path class="st7" d="M25.69,4.26c0,0-0.88,0.12-1.28,0.49l0.1,0.35C24.51,5.1,25,4.59,25.69,4.26L25.69,4.26z M25.69,4.26"/>
	<path class="st7" d="M25.66,4.51c0,0-0.85,0.08-1.24,0.47c-0.39,0.39,0.14,0.27,0.14,0.27S25.01,4.8,25.66,4.51L25.66,4.51z
		 M25.66,4.51"/>
	<path class="st7" d="M23.97,3.45c0,0-0.23,0.43,0,0.64C24.2,3.88,23.97,3.45,23.97,3.45L23.97,3.45z M23.97,3.45"/>
	<path class="st7" d="M23.74,3.56c0,0-0.03,0.47,0.27,0.6C24.13,3.88,23.74,3.56,23.74,3.56L23.74,3.56z M23.74,3.56"/>
	<path class="st7" d="M24.2,3.56c0,0,0.03,0.47-0.27,0.6C23.8,3.88,24.2,3.56,24.2,3.56L24.2,3.56z M24.2,3.56"/>
	<path class="st7" d="M24.27,3.83c0,0-0.2,0.44-0.54,0.44C23.76,3.97,24.27,3.83,24.27,3.83L24.27,3.83z M24.27,3.83"/>
	<path class="st7" d="M23.66,3.83c0,0,0.2,0.44,0.54,0.44C24.17,3.97,23.66,3.83,23.66,3.83L23.66,3.83z M23.66,3.83"/>
	<path class="st25" d="M24.66,4.88c0,0.45-0.31,0.81-0.69,0.81c-0.38,0-0.69-0.36-0.69-0.81c0-0.45,0.31-0.81,0.69-0.81
		C24.35,4.06,24.66,4.43,24.66,4.88L24.66,4.88z M24.66,4.88"/>
	<path class="st2" d="M22.39,5.71l-0.16-0.22c0,0-0.46,0.1-0.57-0.21l-0.18-0.01c0,0,0.02-0.21,0.23-0.24c0,0,0.12-0.14,0.35-0.11
		c0.22,0.03,0.34,0.19,0.46,0.23c0.13,0.04,0.14,0.18,0.14,0.18l0.97,0.88c0,0-0.28,0.31-0.53,0.42
		C22.85,6.74,21.93,6.24,22.39,5.71L22.39,5.71z M22.39,5.71"/>
	<path class="st2" d="M25.54,5.87c0,0,0.4,0.24,0.42,0.91h-0.67c0,0,0.01-0.45-0.12-0.69L25.54,5.87z M25.54,5.87"/>
	<path class="st2" d="M25.45,5.9c0,0,0.5,0.15,0.81-0.2l-0.53-0.06L25.45,5.9z M25.45,5.9"/>
	<path class="st2" d="M25.3,5.41l0.51,0.15c0.06,0.02,0.09,0.09,0.04,0.13c-0.19,0.19-0.77,0.66-1.71,0.66
		c-1.22,0-1.53-0.68-1.55-0.73c-0.01-0.05-0.08-0.46-0.08-0.46l0.52-0.05L25.3,5.41z M25.3,5.41"/>
	<path class="st0" d="M20.32,11.64h1.34l-0.69,1.18l-0.69-0.81L20.32,11.64z M20.32,11.64"/>
	<path class="st0" d="M27.61,11.64h-1.34l0.69,1.18l0.69-0.81L27.61,11.64z M27.61,11.64"/>
	<path class="st26" d="M20.31,13.64c-0.66,0-1.17-0.31-1.19-0.33l0.53-0.67c0,0,0.45,0.27,0.91,0.15c0.46-0.12,0.76-0.6,0.94-0.99
		l0.86,0.3c-0.36,0.8-0.88,1.3-1.54,1.47C20.64,13.62,20.47,13.64,20.31,13.64L20.31,13.64z M20.31,13.64"/>
	<path class="st26" d="M27.62,13.64c0.66,0,1.17-0.31,1.19-0.33l-0.53-0.67c0,0-0.45,0.27-0.91,0.15c-0.46-0.12-0.76-0.6-0.94-0.99
		l-0.86,0.3c0.36,0.8,0.88,1.3,1.54,1.47C27.29,13.62,27.46,13.64,27.62,13.64L27.62,13.64z M27.62,13.64"/>
	<path class="st0" d="M26.96,9.36h-5.99V7.4c0-0.27,0.25-0.49,0.55-0.49h4.89c0.3,0,0.55,0.22,0.55,0.49V9.36z M26.96,9.36"/>
	<path class="st7" d="M22.6,8.34l-0.07-0.41C22.19,7.92,22,7.57,22,7.57l-0.27,0.13C22.01,8.32,22.6,8.34,22.6,8.34L22.6,8.34z
		 M22.6,8.34"/>
	<path class="st7" d="M26.21,7.92c0.1-0.07,0.32-0.09,0.32-0.09c-0.16-0.14-0.33-0.04-0.33-0.04c0.14-0.12,0.06-0.29,0.06-0.29
		c0,0.05-0.1,0.09-0.1,0.09c0-0.11-0.12-0.22-0.12-0.22l-0.07,0.1c-0.04-0.09-0.2-0.17-0.2-0.17l-0.06,0.23
		c-0.14-0.11-0.4-0.1-0.4-0.1l0.05,0.11c-0.15,0-0.57,0.08-0.82,0.11c-0.25,0.03-0.44-0.03-0.44-0.13c0-0.08,0.21-0.09,0.31-0.09
		c0.07,0.01,0.15,0.03,0.26,0.06c0.22,0.06,0.34-0.03,0.34-0.03c-0.08-0.03-0.08-0.06-0.08-0.06c0.16-0.08,0.31-0.06,0.31-0.06
		c-0.05-0.11-0.29-0.1-0.29-0.1c0.06-0.03,0.11-0.12,0.11-0.12c-0.01,0.01-0.15,0.04-0.33,0.06c-0.14,0.02-0.27,0.11-0.32,0.15
		c-0.14-0.01-0.52-0.01-0.45,0.22c0.08,0.28,0.73,0.18,1.13,0.13c0.4-0.06,0.61-0.01,0.69,0.04c0.09,0.05-0.04,0.2-0.44,0.14
		C24.99,7.81,24.8,7.8,24.7,7.81c-0.12,0.01-0.22,0.03-0.29,0.05c-0.16,0.03-0.77,0.22-0.88-0.06c-0.12-0.28-0.68,0.45-0.68,0.45
		l0.04,0.05l-0.15-0.03c-0.2,0.24-0.81,0.31-0.81,0.31s-0.09-0.14-0.17-0.16c-0.08-0.02-0.11,0.09-0.11,0.09s-0.09,0-0.1,0.08
		c-0.01,0.07,0.06,0.08,0.06,0.08s-0.09,0.11,0.06,0.14c0,0-0.01,0.16,0.2,0.05c0.63,0.07,1.09-0.22,1.29-0.37
		c0.13,0.01,0.33,0,0.49-0.07c0.25-0.11,0.54-0.26,0.71-0.2c0,0,0.13,0.37-0.39,0.37c0,0-0.08-0.09-0.16-0.09
		c-0.03,0-0.07,0.04-0.06,0.07c0,0-0.09,0-0.11,0.04c-0.01,0.04,0.02,0.08,0.09,0.08c0,0-0.05,0.06,0,0.1c0.05,0.04,0.1,0,0.1,0
		s-0.02,0.07,0.03,0.08c0.05,0.01,0.11-0.06,0.13-0.09c0.08,0.01,0.66,0.07,0.79-0.46c0,0,0.29,0.11,0.57,0.09
		c0.28-0.02,0.56,0.02,0.54,0.14c-0.03,0.09-0.09,0.08-0.09,0.08c-0.07-0.02-0.18-0.02-0.2,0.06c-0.02,0.09,0.12,0.09,0.12,0.09
		c0.04,0.08,0.15,0.05,0.15,0.05c0.09,0.06,0.16,0,0.16,0c0.04,0.03,0.08,0.04,0.12,0.01c0.04-0.03,0.02-0.22,0.01-0.29
		c-0.01-0.11-0.02-0.41-0.21-0.42c-0.19,0-0.43,0.09-0.76-0.15c-0.02-0.01-0.03-0.02-0.05-0.03c0.16,0.01,0.27,0.05,0.38,0.07
		C25.68,8.02,26.11,7.99,26.21,7.92L26.21,7.92z M26.21,7.92"/>
	<path class="st7" d="M21.73,7.71c0,0-0.09,0-0.14-0.01c-0.08-0.02-0.09-0.13,0-0.15c0,0-0.1-0.06-0.05-0.13
		c0.04-0.05,0.13-0.05,0.16-0.02c0,0-0.03-0.09,0.06-0.12c0.07-0.02,0.13,0.05,0.13,0.14c0,0,0.1-0.08,0.16-0.03
		c0.04,0.03,0.03,0.08-0.04,0.17C21.94,7.67,21.73,7.71,21.73,7.71L21.73,7.71z M21.73,7.71"/>
	<path class="st4" d="M21.61,7.67c0,0-0.05,0.07-0.19,0.03c0,0,0.12-0.05,0.14-0.09L21.61,7.67z M21.61,7.67"/>
	<path class="st4" d="M21.56,7.45c0,0-0.08-0.04-0.16-0.04c0,0,0.12-0.08,0.23-0.01L21.56,7.45z M21.56,7.45"/>
	<path class="st4" d="M21.74,7.33c0,0,0.02-0.08-0.02-0.12c0,0,0.1,0.04,0.11,0.11L21.74,7.33z M21.74,7.33"/>
	<path class="st4" d="M21.96,7.41c0,0,0.05-0.1,0.01-0.14c0,0,0.13,0.07,0.08,0.18L21.96,7.41z M21.96,7.41"/>
	<path class="st4" d="M21.71,8.48c0,0-0.05-0.09-0.12-0.09c0,0,0.14-0.05,0.2,0.06L21.71,8.48z M21.71,8.48"/>
	<path class="st4" d="M21.59,8.6c0,0-0.09-0.07-0.15-0.04c0,0,0.11-0.09,0.21-0.02L21.59,8.6z M21.59,8.6"/>
	<path class="st4" d="M21.66,8.77c0,0-0.12,0-0.15,0.05c0,0,0.02-0.13,0.15-0.13L21.66,8.77z M21.66,8.77"/>
	<path class="st4" d="M21.76,8.88c0,0-0.05,0.07-0.19,0.03c0,0,0.12-0.05,0.14-0.09L21.76,8.88z M21.76,8.88"/>
	<path class="st4" d="M23.91,8.84c0,0-0.04,0.06-0.16,0.02c0,0,0.09-0.03,0.11-0.06L23.91,8.84z M23.91,8.84"/>
	<path class="st25" d="M22.69,7.53c0,0-0.26,0.39-0.2,0.95c0,0,0.76-0.1,1.1-0.77c0,0,0.08-0.03,0.11-0.1
		c0.03-0.06,0.02-0.16-0.1-0.16c0,0,0.04-0.07,0.09-0.08c0,0-0.08-0.03-0.18-0.01c0,0,0.08-0.07,0.08-0.15c0,0-0.12,0.07-0.19,0.07
		c0,0-0.01-0.11,0.02-0.12c0,0-0.15,0.01-0.23,0.08c0,0-0.05-0.06-0.05-0.12c0,0-0.14,0.05-0.19,0.13c0,0-0.04-0.04-0.04-0.08
		c0,0-0.1,0.11-0.12,0.17c0,0-0.09-0.02-0.14,0.04C22.61,7.43,22.62,7.49,22.69,7.53L22.69,7.53z M22.69,7.53"/>
	<path class="st4" d="M23.79,8.56c0,0-0.03-0.05-0.12-0.06c0,0,0.12-0.05,0.19,0.02L23.79,8.56z M23.79,8.56"/>
	<path class="st4" d="M25.7,8.75c0,0-0.07,0.02-0.1,0.1c0,0-0.03-0.12,0.06-0.18L25.7,8.75z M25.7,8.75"/>
	<path class="st4" d="M25.84,8.79c0,0-0.06,0.05-0.06,0.14c0,0-0.08-0.1-0.01-0.18L25.84,8.79z M25.84,8.79"/>
	<path class="st4" d="M26.15,8.79c0,0-0.02,0.06,0.04,0.12c0,0-0.12-0.03-0.12-0.13L26.15,8.79z M26.15,8.79"/>
	<path class="st4" d="M26,8.81c0,0-0.05,0.04-0.04,0.13c0,0-0.1-0.07-0.04-0.16L26,8.81z M26,8.81"/>
	<path class="st4" d="M23.69,8.66c0,0-0.06-0.02-0.14,0.03c0,0,0.05-0.11,0.16-0.1L23.69,8.66z M23.69,8.66"/>
	<path class="st4" d="M23.78,8.78c0,0-0.06-0.01-0.14,0.04c0,0,0.01-0.1,0.12-0.1L23.78,8.78z M23.78,8.78"/>
	<path class="st3" d="M26.96,9.69c-0.5,0-0.5,0.4-1,0.4c-0.5,0-0.5-0.4-1-0.4c-0.5,0-0.5,0.4-1,0.4c-0.5,0-0.5-0.4-1-0.4
		c-0.5,0-0.5,0.4-1,0.4c-0.5,0-0.5-0.4-1-0.4V8.95c0.5,0,0.5,0.4,1,0.4c0.5,0,0.5-0.4,1-0.4c0.5,0,0.5,0.4,1,0.4
		c0.5,0,0.5-0.4,1-0.4c0.5,0,0.5,0.4,1,0.4c0.5,0,0.5-0.4,1-0.4V9.69z M26.96,9.69"/>
	<path class="st4" d="M25.96,10.09c-0.5,0-0.5-0.4-1-0.4c-0.5,0-0.5,0.4-1,0.4c-0.5,0-0.5-0.4-1-0.4c-0.5,0-0.5,0.4-1,0.4
		c-0.5,0-0.5-0.4-1-0.4c0.01,0.18,0.03,0.44,0.09,0.74c0.41,0.05,0.44,0.39,0.91,0.39c0.5,0,0.5-0.4,1-0.4c0.5,0,0.5,0.4,1,0.4
		c0.5,0,0.5-0.4,1-0.4c0.5,0,0.5,0.4,1,0.4c0.47,0,0.5-0.34,0.91-0.39c0.06-0.31,0.08-0.57,0.09-0.74
		C26.46,9.69,26.46,10.09,25.96,10.09L25.96,10.09z M25.96,10.09"/>
	<path class="st3" d="M25.96,10.82c-0.5,0-0.5-0.4-1-0.4c-0.5,0-0.5,0.4-1,0.4c-0.5,0-0.5-0.4-1-0.4c-0.5,0-0.5,0.4-1,0.4
		c-0.46,0-0.5-0.34-0.91-0.39c0.05,0.24,0.12,0.51,0.22,0.8c0.22,0.11,0.32,0.33,0.69,0.33c0.5,0,0.5-0.4,1-0.4c0.5,0,0.5,0.4,1,0.4
		c0.5,0,0.5-0.4,1-0.4c0.5,0,0.5,0.4,1,0.4c0.37,0,0.47-0.22,0.69-0.33c0.1-0.28,0.17-0.55,0.22-0.8
		C26.47,10.48,26.43,10.82,25.96,10.82L25.96,10.82z M25.96,10.82"/>
	<path class="st4" d="M25.96,11.56c-0.5,0-0.5-0.4-1-0.4c-0.5,0-0.5,0.4-1,0.4c-0.5,0-0.5-0.4-1-0.4c-0.5,0-0.5,0.4-1,0.4
		c-0.37,0-0.47-0.22-0.69-0.33c0.13,0.35,0.3,0.71,0.55,1.05c0.04,0.01,0.09,0.01,0.14,0.01c0.5,0,0.5-0.4,1-0.4
		c0.5,0,0.5,0.4,1,0.4c0.5,0,0.5-0.4,1-0.4c0.5,0,0.5,0.4,1,0.4c0.05,0,0.1-0.01,0.14-0.01c0.25-0.34,0.43-0.7,0.55-1.05
		C26.43,11.34,26.33,11.56,25.96,11.56L25.96,11.56z M25.96,11.56"/>
	<path class="st3" d="M25.96,12.29c-0.5,0-0.5-0.4-1-0.4c-0.5,0-0.5,0.4-1,0.4c-0.5,0-0.5-0.4-1-0.4c-0.5,0-0.5,0.4-1,0.4
		c-0.05,0-0.09-0.01-0.14-0.01c0.16,0.21,0.35,0.42,0.57,0.6c0.15-0.11,0.27-0.25,0.57-0.25c0.5,0,0.5,0.4,1,0.4
		c0.5,0,0.5-0.4,1-0.4c0.3,0,0.42,0.14,0.57,0.25c0.22-0.19,0.41-0.39,0.57-0.61C26.06,12.29,26.01,12.29,25.96,12.29L25.96,12.29z
		 M25.96,12.29"/>
	<path class="st4" d="M25.53,12.88c-0.15-0.11-0.27-0.25-0.57-0.25c-0.5,0-0.5,0.4-1,0.4c-0.5,0-0.5-0.4-1-0.4
		c-0.3,0-0.42,0.14-0.57,0.25c0.4,0.34,0.91,0.61,1.57,0.75C24.62,13.49,25.13,13.22,25.53,12.88L25.53,12.88z M25.53,12.88"/>
	<path class="st3" d="M24.96,8.95c-0.5,0-0.5,0.4-1,0.4c-0.5,0-0.5-0.4-1-0.4c-0.5,0-0.5,0.4-1,0.4c-0.5,0-0.5-0.4-1-0.4v0.61
		c0,0.03,0,0.08,0,0.12c0.5,0,0.5,0.4,1,0.4c0.5,0,0.5-0.4,1-0.4c0.5,0,0.5,0.4,1,0.4c0.5,0,0.5-0.4,1-0.4c0.5,0,0.5,0.4,1,0.4
		c0.5,0,0.5-0.4,1-0.4c0-0.05,0-0.09,0-0.12V8.95c-0.5,0-0.5,0.4-1,0.4C25.46,9.35,25.46,8.95,24.96,8.95L24.96,8.95z M24.96,8.95"
		/>
	<path class="st3" d="M26.73,6.92c0.13,0,0.23,0.09,0.23,0.2v2.44c0,0.03,0,0.08,0,0.12c-0.01,0.18-0.03,0.44-0.09,0.74
		c-0.05,0.24-0.12,0.51-0.22,0.8c-0.13,0.35-0.31,0.71-0.55,1.05c-0.16,0.22-0.35,0.42-0.57,0.61c-0.4,0.34-0.91,0.61-1.57,0.75
		c-0.66-0.14-1.17-0.42-1.57-0.75c-0.22-0.18-0.41-0.39-0.57-0.6c-0.25-0.34-0.43-0.7-0.55-1.05c-0.1-0.28-0.17-0.55-0.22-0.8
		c-0.06-0.31-0.08-0.57-0.09-0.74c0-0.05,0-0.09,0-0.12V7.12c0-0.11,0.1-0.2,0.23-0.2L26.73,6.92 M26.73,6.76H21.2
		c-0.22,0-0.4,0.16-0.4,0.36v2.44c0,0.04,0,0.08,0,0.13c0.01,0.17,0.03,0.43,0.09,0.76c0.05,0.28,0.13,0.56,0.22,0.82
		c0.15,0.4,0.34,0.77,0.57,1.09c0.17,0.23,0.37,0.45,0.59,0.63c0.46,0.38,1.01,0.65,1.65,0.79l0.04,0.01l0.04-0.01
		c0.63-0.14,1.19-0.41,1.65-0.79c0.22-0.18,0.42-0.4,0.59-0.63c0.23-0.32,0.43-0.68,0.57-1.09c0.09-0.26,0.17-0.53,0.22-0.82
		c0.06-0.33,0.08-0.6,0.09-0.76c0-0.05,0-0.09,0-0.13V7.12C27.14,6.92,26.95,6.76,26.73,6.76L26.73,6.76z M26.73,6.76"/>
	<path class="st2" d="M23.97,12.41l-0.63,0.39l0.22-0.65l-0.61-0.41l0.77-0.01l0.25-0.64l0.25,0.64l0.77,0.01l-0.61,0.41l0.22,0.65
		L23.97,12.41z M23.97,12.41"/>
	<path class="st7" d="M23.97,11.2l0.22,0.56l0.67,0.01l-0.53,0.36l0.19,0.57l-0.55-0.34l-0.55,0.34l0.19-0.57l-0.53-0.36l0.67-0.01
		L23.97,11.2 M23.97,10.95l-0.09,0.22l-0.2,0.5l-0.6,0.01l-0.27,0l0.21,0.14l0.48,0.32l-0.17,0.51l-0.08,0.23l0.22-0.14l0.5-0.3
		l0.5,0.3l0.22,0.14l-0.08-0.23l-0.17-0.51l0.48-0.32l0.21-0.14l-0.27,0l-0.6-0.01l-0.2-0.5L23.97,10.95z M23.97,10.95"/>
	<path class="st2" d="M22.58,10.82l-0.63,0.39l0.22-0.65l-0.61-0.41l0.77-0.01l0.25-0.64l0.25,0.64l0.77,0.01l-0.61,0.41l0.22,0.65
		L22.58,10.82z M22.58,10.82"/>
	<path class="st7" d="M22.58,9.61l0.22,0.56l0.67,0.01l-0.53,0.36l0.19,0.57l-0.55-0.34l-0.55,0.34l0.19-0.57l-0.53-0.36l0.67-0.01
		L22.58,9.61 M22.58,9.36l-0.09,0.22l-0.2,0.5l-0.6,0.01l-0.27,0l0.21,0.14l0.48,0.32l-0.17,0.51l-0.08,0.23l0.22-0.14l0.5-0.3
		l0.5,0.3l0.22,0.14l-0.08-0.23l-0.17-0.51l0.48-0.32l0.21-0.14l-0.27,0l-0.6-0.01l-0.2-0.5L22.58,9.36z M22.58,9.36"/>
	<path class="st2" d="M25.34,10.82l-0.63,0.39l0.22-0.65l-0.61-0.41l0.77-0.01l0.25-0.64l0.25,0.64l0.77,0.01l-0.61,0.41l0.22,0.65
		L25.34,10.82z M25.34,10.82"/>
	<path class="st7" d="M25.34,9.61l0.22,0.56l0.67,0.01l-0.53,0.36l0.19,0.57l-0.55-0.34l-0.55,0.34l0.19-0.57l-0.53-0.36l0.67-0.01
		L25.34,9.61 M25.34,9.36l-0.09,0.22l-0.2,0.5l-0.6,0.01l-0.27,0l0.21,0.14l0.48,0.32l-0.18,0.51l-0.08,0.23l0.22-0.14l0.5-0.3
		l0.5,0.3l0.22,0.14l-0.08-0.23l-0.17-0.51l0.48-0.32l0.21-0.14l-0.27,0l-0.6-0.01l-0.2-0.5L25.34,9.36z M25.34,9.36"/>
	<path class="st7" d="M27.61,11.64c-0.57,1.29-1.99,2.2-3.65,2.2c-1.66,0-3.07-0.91-3.65-2.2l-0.86,0.3
		c0.71,1.59,2.46,2.72,4.5,2.72c2.05,0,3.8-1.13,4.5-2.72L27.61,11.64z M27.61,11.64"/>
	<path class="st3" d="M24.43,6.92h-0.69L23.5,6.31h0.69L24.43,6.92z M24.43,6.92"/>
	<path class="st3" d="M25.58,6.92h-0.46l-0.15-0.41h0.21c0.15,0,0.28,0.08,0.33,0.21L25.58,6.92z M25.58,6.92"/>
	<path class="st3" d="M23.04,6.92h-0.46l-0.05-0.14c-0.05-0.13,0.06-0.27,0.22-0.27h0.14L23.04,6.92z M23.04,6.92"/>
	<path class="st4" d="M25.12,6.92h-0.69L24.2,6.31h0.53c0.1,0,0.19,0.06,0.22,0.14L25.12,6.92z M25.12,6.92"/>
	<path class="st4" d="M23.74,6.92h-0.69L22.89,6.5c-0.04-0.1,0.05-0.2,0.16-0.2h0.45L23.74,6.92z M23.74,6.92"/>
	<path class="st27" d="M25.66,5.5c-0.18,0.23-0.68,0.5-1.51,0.5c-0.68,0-1.11-0.36-1.26-0.5c-0.04-0.03-0.05-0.08-0.05-0.13V5.24
		c0-0.06,0.04-0.11,0.09-0.14c0.15-0.08,0.48-0.2,1.15-0.2C24.92,4.9,25.66,5.5,25.66,5.5L25.66,5.5z M25.66,5.5"/>
</g>
</svg>
