<?xml version="1.0" encoding="utf-8"?>
<!-- Generator: Adobe Illustrator 25.0.0, SVG Export Plug-In . SVG Version: 6.00 Build 0)  -->
<svg version="1.1" id="Capa_1" xmlns="http://www.w3.org/2000/svg" xmlns:xlink="http://www.w3.org/1999/xlink" x="0px" y="0px"
	 viewBox="0 0 32 18.62" style="enable-background:new 0 0 32 18.62;" xml:space="preserve">
<style type="text/css">
	.st0{fill:#FF4B55;}
	.st1{fill:#464655;}
	.st2{fill:#73AF00;}
	.st3{fill:#F5F5F5;}
	.st4{fill:#41479B;}
	.st5{fill:#FFF5DC;}
	.st6{fill:#D27D69;}
	.st7{fill:#FFE15A;}
	.st8{fill:#B95546;}
	.st9{fill:#DCBE82;}
	.st10{fill:#D2AA73;}
	.st11{fill:#4173CD;}
	.st12{fill:#82AFFF;}
	.st13{fill:#F09146;}
	.st14{fill:#FFB400;}
	.st15{fill:#965032;}
	.st16{fill:#BE7855;}
	.st17{fill:#FFBE3C;}
	.st18{fill:#EAF3F5;}
	.st19{fill:#8C5A28;}
	.st20{fill:#F0C850;}
	.st21{fill:#FF6E55;}
	.st22{fill:#FFBE5A;}
	.st23{fill:#3CC8FF;}
	.st24{fill:#825546;}
	.st25{fill:#FFD255;}
	.st26{fill:#FFD25A;}
	.st27{fill:#509664;}
	.st28{fill:#F0AA00;}
	.st29{fill:#A561CD;}
	.st30{fill:#B34900;}
	.st31{fill:#64B496;}
	.st32{fill:#FF6B71;}
	.st33{fill:#5F64B9;}
	.st34{fill:#F5F0F0;}
	.st35{fill:#5A4646;}
	.st36{fill:#E6E1CD;}
	.st37{fill:#FFD0AF;}
	.st38{fill:#FFAF94;}
	.st39{fill:#8CB400;}
	.st40{fill:#69C3FF;}
	.st41{fill:#009B64;}
	.st42{fill:#5AA0E6;}
	.st43{fill:#FFC88C;}
	.st44{fill:#E1E1E1;}
	.st45{fill:#966446;}
	.st46{fill:#BE915A;}
	.st47{fill:#B9B9B9;}
	.st48{fill:#F0C727;}
	.st49{fill:#50AF69;}
	.st50{fill:#FFE6E6;}
	.st51{fill:#FFB750;}
	.st52{fill:#FFC455;}
	.st53{fill:#FFCD55;}
	.st54{fill:#9BC800;}
	.st55{fill:#FFE14E;}
	.st56{fill:#FFB14E;}
	.st57{fill:#B46446;}
	.st58{fill:#5FA000;}
	.st59{fill:#F2DD30;}
	.st60{fill:#FFC855;}
	.st61{fill:#A0A0A0;}
	.st62{fill:#69B469;}
	.st63{fill:#F4E08F;}
	.st64{fill:#ECD077;}
	.st65{fill:#FCF0A8;}
	.st66{fill:#FAB446;}
	.st67{fill:#C8414B;}
	.st68{fill:#FF9B46;}
	.st69{fill:#FF9B55;}
	.st70{fill:#82C3D2;}
	.st71{fill:#5AA587;}
	.st72{fill:#CDCDCD;}
	.st73{fill:#B4A08C;}
	.st74{fill:#FFD250;}
	.st75{fill:#00C3A0;}
	.st76{fill:#00AADC;}
	.st77{fill:#732D37;}
	.st78{fill:#AAD264;}
	.st79{fill:#874150;}
	.st80{fill:#783C46;}
	.st81{fill:#FFB478;}
	.st82{fill:#9B4B5A;}
	.st83{fill:#FFCD5A;}
	.st84{fill:#FFAA5A;}
	.st85{fill:#FF875A;}
	.st86{fill:#E6B432;}
	.st87{fill:#C86464;}
	.st88{fill:#FFF5E1;}
	.st89{fill:#963C3C;}
	.st90{fill:#5A8250;}
	.st91{fill:#AFEBFF;}
	.st92{fill:#557DE6;}
	.st93{fill:#D23741;}
	.st94{fill:#64C86E;}
	.st95{fill:#873250;}
	.st96{fill:#41AA5A;}
	.st97{fill:#8CD7FF;}
	.st98{fill:#6EC86E;}
	.st99{fill:#FFF0E1;}
	.st100{fill:#FFC75A;}
	.st101{fill:#FFD350;}
	.st102{fill:#FFBE50;}
	.st103{fill:#A54B50;}
	.st104{fill:#C87878;}
	.st105{fill:#FF1722;}
	.st106{fill:#FFB441;}
	.st107{fill:#5064AA;}
	.st108{fill:#FFA0D2;}
	.st109{fill:#FF7350;}
	.st110{fill:#245DBD;}
	.st111{fill:#D35A10;}
	.st112{fill:#FFA033;}
	.st113{fill:#FF9480;}
	.st114{fill:#FFA0E4;}
	.st115{fill:#696E7D;}
	.st116{fill:#FFFCFF;}
	.st117{fill:#EBEBEB;}
	.st118{fill:#FF4B57;}
	.st119{fill:#D2D2D2;}
	.st120{fill:#F0C814;}
	.st121{fill:#F7B518;}
	.st122{fill:#2C2F38;}
	.st123{fill:#4C8056;}
	.st124{fill:#F0C419;}
	.st125{fill:#C03A2B;}
	.st126{fill:#EA3F3F;}
	.st127{fill:#E4E3E1;}
	.st128{fill:#2472B2;}
</style>
<g>
	<path class="st70" d="M31.42,0.04H0.55C0.25,0.04,0,0.26,0,0.53v17.53c0,0.27,0.25,0.49,0.55,0.49h30.87c0.3,0,0.55-0.22,0.55-0.49
		V0.53C31.97,0.26,31.72,0.04,31.42,0.04L31.42,0.04z M31.42,0.04"/>
	<path class="st7" d="M3.72,2.26C3.67,2.07,3.65,2.01,3.75,1.92c0.05-0.04,0.05-0.11,0-0.15c-0.05-0.04-0.12-0.04-0.17,0
		c-0.19,0.17-0.15,0.35-0.1,0.53C3.33,2.26,3.18,2.29,3.09,2.39C3.05,2.43,2.97,2.57,3.12,2.78c0.04,0.05,0.11,0.06,0.16,0.03
		c0.05-0.03,0.07-0.1,0.04-0.14C3.26,2.58,3.26,2.54,3.28,2.52C3.3,2.5,3.36,2.49,3.42,2.5c0.04,0.01,0.13,0.05,0.13,0.18
		c0,0.1-0.05,0.19-0.14,0.25C3.31,3,3.19,3.01,3.08,2.98C2.94,2.94,2.84,2.81,2.84,2.66c0-0.11,0.03-0.22,0.07-0.31
		C2.92,2.34,3.1,2,3.15,1.88c0.09-0.24,0-0.37-0.07-0.42C2.99,1.39,2.87,1.38,2.76,1.42C2.75,1.43,2.73,1.43,2.72,1.44
		C2.7,1.43,2.69,1.43,2.67,1.42C2.57,1.38,2.44,1.39,2.36,1.46C2.29,1.51,2.2,1.64,2.29,1.88C2.34,2,2.52,2.34,2.52,2.35
		C2.57,2.45,2.6,2.55,2.6,2.66c0,0.15-0.1,0.28-0.24,0.32C2.24,3.01,2.13,3,2.03,2.94C1.94,2.88,1.89,2.78,1.89,2.68
		c0-0.13,0.09-0.17,0.13-0.18C2.08,2.49,2.14,2.5,2.16,2.52c0.02,0.02,0.01,0.07-0.04,0.15C2.08,2.71,2.1,2.78,2.15,2.81
		c0.06,0.03,0.13,0.02,0.16-0.03c0.15-0.21,0.07-0.34,0.03-0.39C2.26,2.29,2.1,2.26,1.95,2.31C2,2.12,2.05,1.94,1.86,1.77
		c-0.05-0.04-0.12-0.04-0.17,0c-0.05,0.04-0.05,0.11,0,0.15c0.09,0.08,0.08,0.15,0.03,0.34C1.69,2.37,1.65,2.51,1.65,2.68
		C1.65,2.8,1.7,2.91,1.78,3h0C1.71,3,1.65,3.04,1.65,3.1c0,0.06,0.05,0.1,0.12,0.1h0C1.7,3.3,1.65,3.41,1.65,3.52
		c0,0.17,0.04,0.31,0.07,0.42C1.77,4.13,1.78,4.2,1.69,4.28c-0.05,0.04-0.05,0.11,0,0.15c0.02,0.02,0.05,0.03,0.08,0.03
		c0.03,0,0.06-0.01,0.08-0.03C2.05,4.26,2,4.08,1.95,3.9C2.1,3.94,2.26,3.91,2.34,3.82c0.04-0.05,0.12-0.18-0.03-0.39
		C2.28,3.38,2.21,3.37,2.15,3.4C2.1,3.43,2.08,3.49,2.12,3.54c0.06,0.08,0.06,0.13,0.04,0.15C2.14,3.71,2.08,3.72,2.02,3.7
		C1.98,3.69,1.89,3.65,1.89,3.52c0-0.1,0.05-0.19,0.14-0.25c0.09-0.06,0.21-0.08,0.33-0.05C2.5,3.26,2.6,3.39,2.6,3.54
		c0,0.11-0.03,0.22-0.08,0.31L1.75,5.4c-0.06,0.13-0.1,0.26-0.1,0.4c0,0.18,0.09,0.34,0.24,0.44C1.75,6.34,1.65,6.5,1.65,6.68
		c0,0.14,0.03,0.27,0.1,0.4l0.78,1.54C2.57,8.72,2.6,8.83,2.6,8.93c0,0.15-0.1,0.28-0.24,0.32C2.24,9.29,2.13,9.27,2.03,9.21
		C1.94,9.15,1.89,9.06,1.89,8.96c0-0.13,0.09-0.17,0.13-0.18c0.06-0.02,0.12-0.01,0.14,0.01c0.02,0.02,0.01,0.07-0.04,0.15
		C2.08,8.98,2.1,9.05,2.15,9.08C2.21,9.11,2.28,9.1,2.32,9.05c0.15-0.21,0.07-0.34,0.03-0.39C2.26,8.57,2.1,8.53,1.95,8.58
		C2,8.39,2.05,8.22,1.86,8.05c-0.05-0.04-0.12-0.04-0.17,0c-0.05,0.04-0.05,0.11,0,0.15c0.09,0.08,0.08,0.15,0.03,0.34
		C1.69,8.65,1.65,8.78,1.65,8.96c0,0.11,0.05,0.22,0.12,0.31h0c-0.07,0-0.12,0.05-0.12,0.1c0,0.06,0.05,0.1,0.12,0.1h0
		C1.7,9.57,1.65,9.68,1.65,9.79c0,0.17,0.04,0.31,0.07,0.42c0.05,0.19,0.06,0.26-0.03,0.34c-0.05,0.04-0.05,0.11,0,0.15
		c0.02,0.02,0.05,0.03,0.08,0.03c0.03,0,0.06-0.01,0.08-0.03c0.19-0.17,0.15-0.35,0.1-0.53c0.15,0.04,0.31,0.01,0.39-0.08
		c0.04-0.05,0.12-0.18-0.03-0.39C2.28,9.65,2.21,9.64,2.15,9.67C2.1,9.7,2.08,9.77,2.12,9.81c0.06,0.08,0.06,0.13,0.04,0.15
		C2.14,9.98,2.08,9.99,2.02,9.97C1.98,9.96,1.89,9.92,1.89,9.79c0-0.1,0.05-0.19,0.14-0.25c0.09-0.06,0.21-0.08,0.33-0.05
		C2.5,9.53,2.6,9.66,2.6,9.81c0,0.11-0.03,0.22-0.08,0.31l-0.78,1.54c-0.06,0.13-0.1,0.26-0.1,0.4c0,0.18,0.09,0.34,0.24,0.44
		c-0.14,0.1-0.24,0.26-0.24,0.44c0,0.14,0.03,0.27,0.1,0.4l0.78,1.54c0.05,0.1,0.08,0.21,0.08,0.31c0,0.15-0.1,0.28-0.24,0.32
		c-0.11,0.03-0.23,0.01-0.33-0.05c-0.09-0.06-0.14-0.15-0.14-0.25c0-0.13,0.09-0.17,0.13-0.18c0.06-0.02,0.12-0.01,0.14,0.01
		c0.02,0.02,0.01,0.07-0.04,0.15c-0.04,0.05-0.02,0.11,0.04,0.14c0.06,0.03,0.13,0.02,0.16-0.03c0.15-0.21,0.07-0.34,0.03-0.39
		c-0.08-0.09-0.24-0.13-0.39-0.08c0.05-0.19,0.1-0.36-0.1-0.53c-0.05-0.04-0.12-0.04-0.17,0c-0.05,0.04-0.05,0.11,0,0.15
		c0.09,0.08,0.08,0.15,0.03,0.34c-0.03,0.11-0.07,0.25-0.07,0.42c0,0.16,0.09,0.32,0.24,0.42c-0.15,0.1-0.24,0.25-0.24,0.42
		c0,0.17,0.04,0.31,0.07,0.42c0.05,0.19,0.06,0.26-0.03,0.34c-0.05,0.04-0.05,0.11,0,0.15c0.02,0.02,0.05,0.03,0.08,0.03
		c0.03,0,0.06-0.01,0.08-0.03c0.19-0.17,0.15-0.35,0.1-0.53c0.15,0.04,0.31,0.01,0.39-0.08c0.04-0.05,0.12-0.18-0.03-0.39
		c-0.04-0.05-0.11-0.06-0.16-0.03c-0.06,0.03-0.07,0.1-0.04,0.14c0.06,0.08,0.06,0.13,0.04,0.15c-0.02,0.02-0.08,0.03-0.14,0.01
		c-0.04-0.01-0.13-0.05-0.13-0.18c0-0.1,0.05-0.19,0.14-0.25c0.09-0.06,0.21-0.08,0.33-0.05c0.14,0.04,0.24,0.17,0.24,0.32
		c0,0.11-0.03,0.22-0.07,0.31c-0.01,0.01-0.19,0.35-0.23,0.47c-0.09,0.24,0,0.37,0.07,0.42c0.05,0.04,0.13,0.07,0.2,0.07
		c0.04,0,0.08-0.01,0.12-0.02c0.02-0.01,0.03-0.02,0.04-0.02c0.01,0.01,0.03,0.02,0.04,0.02c0.04,0.02,0.08,0.02,0.12,0.02
		c0.07,0,0.14-0.02,0.2-0.07c0.06-0.05,0.16-0.17,0.07-0.42c-0.05-0.12-0.23-0.45-0.23-0.47c-0.05-0.1-0.08-0.21-0.08-0.31
		c0-0.15,0.1-0.28,0.24-0.32c0.11-0.03,0.23-0.01,0.33,0.05c0.09,0.06,0.14,0.15,0.14,0.25c0,0.13-0.09,0.17-0.13,0.18
		c-0.06,0.02-0.12,0.01-0.14-0.01c-0.02-0.02-0.01-0.07,0.04-0.15c0.04-0.05,0.02-0.11-0.04-0.14c-0.06-0.03-0.13-0.02-0.16,0.03
		c-0.15,0.21-0.07,0.34-0.03,0.39c0.08,0.09,0.24,0.13,0.39,0.08c-0.05,0.19-0.1,0.36,0.1,0.53C3.6,17,3.63,17.01,3.66,17.01
		c0.03,0,0.06-0.01,0.08-0.03c0.05-0.04,0.05-0.11,0-0.15c-0.09-0.08-0.08-0.15-0.03-0.34c0.03-0.11,0.07-0.25,0.07-0.42
		c0-0.16-0.09-0.32-0.24-0.42c0.15-0.1,0.24-0.25,0.24-0.42c0-0.17-0.04-0.31-0.07-0.42c-0.05-0.19-0.06-0.26,0.03-0.34
		c0.05-0.04,0.05-0.11,0-0.15c-0.05-0.04-0.12-0.04-0.17,0c-0.19,0.17-0.15,0.35-0.1,0.53c-0.15-0.04-0.31-0.01-0.39,0.08
		c-0.04,0.05-0.12,0.18,0.03,0.39c0.04,0.05,0.11,0.06,0.16,0.03c0.06-0.03,0.07-0.1,0.04-0.14c-0.06-0.08-0.06-0.13-0.04-0.15
		c0.02-0.02,0.08-0.03,0.14-0.01c0.04,0.01,0.13,0.05,0.13,0.18c0,0.1-0.05,0.19-0.14,0.25c-0.09,0.06-0.21,0.08-0.33,0.05
		c-0.14-0.04-0.24-0.17-0.24-0.32c0-0.11,0.03-0.22,0.08-0.31l0.77-1.54c0.06-0.13,0.1-0.26,0.1-0.4c0-0.18-0.09-0.34-0.24-0.44
		c0.14-0.1,0.24-0.26,0.24-0.44c0-0.14-0.03-0.27-0.1-0.4l-0.77-1.54c-0.05-0.1-0.08-0.21-0.08-0.31c0-0.15,0.1-0.28,0.24-0.32
		C3.19,9.46,3.31,9.48,3.4,9.54C3.49,9.6,3.55,9.69,3.55,9.79c0,0.13-0.09,0.17-0.13,0.18C3.36,9.99,3.3,9.98,3.28,9.96
		C3.26,9.94,3.26,9.89,3.32,9.81C3.36,9.77,3.34,9.7,3.29,9.67C3.23,9.64,3.16,9.65,3.12,9.7c-0.15,0.21-0.07,0.34-0.03,0.39
		c0.08,0.09,0.24,0.13,0.39,0.08c-0.05,0.19-0.1,0.36,0.1,0.53c0.02,0.02,0.05,0.03,0.08,0.03c0.03,0,0.06-0.01,0.08-0.03
		c0.05-0.04,0.05-0.11,0-0.15c-0.09-0.08-0.08-0.15-0.03-0.34c0.03-0.11,0.07-0.25,0.07-0.42c0-0.11-0.05-0.22-0.12-0.31h0
		c0.07,0,0.12-0.05,0.12-0.1c0-0.06-0.05-0.1-0.12-0.1h0c0.08-0.09,0.12-0.2,0.12-0.31c0-0.17-0.04-0.31-0.07-0.42
		C3.67,8.35,3.65,8.28,3.75,8.19c0.05-0.04,0.05-0.11,0-0.15c-0.05-0.04-0.12-0.04-0.17,0c-0.19,0.17-0.15,0.35-0.1,0.53
		C3.33,8.53,3.18,8.57,3.09,8.66C3.05,8.71,2.97,8.84,3.12,9.05C3.16,9.1,3.23,9.11,3.29,9.08c0.06-0.03,0.07-0.1,0.04-0.14
		C3.26,8.86,3.26,8.81,3.28,8.79C3.3,8.77,3.36,8.76,3.42,8.78c0.04,0.01,0.13,0.05,0.13,0.18c0,0.1-0.05,0.19-0.14,0.25
		C3.31,9.27,3.19,9.29,3.08,9.25C2.94,9.22,2.84,9.08,2.84,8.93c0-0.11,0.03-0.22,0.08-0.31l0.77-1.54c0.06-0.13,0.1-0.26,0.1-0.4
		c0-0.18-0.09-0.34-0.24-0.44c0.14-0.1,0.24-0.26,0.24-0.44c0-0.14-0.03-0.27-0.1-0.4L2.91,3.86c-0.05-0.1-0.08-0.21-0.08-0.31
		c0-0.15,0.1-0.28,0.24-0.32C3.19,3.19,3.31,3.21,3.4,3.27c0.09,0.06,0.14,0.15,0.14,0.25c0,0.13-0.09,0.17-0.13,0.18
		C3.36,3.72,3.3,3.71,3.28,3.69C3.26,3.67,3.26,3.62,3.32,3.54C3.36,3.49,3.34,3.43,3.29,3.4C3.23,3.37,3.16,3.38,3.12,3.43
		C2.97,3.64,3.05,3.77,3.09,3.82C3.18,3.91,3.33,3.94,3.49,3.9c-0.05,0.19-0.1,0.36,0.1,0.53C3.6,4.45,3.64,4.46,3.67,4.46
		c0.03,0,0.06-0.01,0.08-0.03c0.05-0.04,0.05-0.11,0-0.15C3.65,4.2,3.67,4.13,3.72,3.94c0.03-0.11,0.07-0.25,0.07-0.42
		c0-0.11-0.05-0.22-0.12-0.31h0c0.07,0,0.12-0.05,0.12-0.1C3.78,3.04,3.73,3,3.67,3h0c0.08-0.09,0.12-0.2,0.12-0.31
		C3.78,2.51,3.75,2.37,3.72,2.26L3.72,2.26z M2.52,1.81c-0.04-0.11-0.03-0.17,0-0.2C2.53,1.6,2.56,1.6,2.58,1.61
		C2.6,1.62,2.6,1.63,2.6,1.64c0,0.06,0.05,0.1,0.12,0.1c0.07,0,0.12-0.05,0.12-0.1c0-0.01,0-0.02,0.02-0.03
		C2.88,1.6,2.9,1.6,2.92,1.62c0.03,0.02,0.04,0.09,0,0.2C2.89,1.9,2.78,2.11,2.72,2.22C2.66,2.11,2.55,1.9,2.52,1.81L2.52,1.81z
		 M2.72,6.13c0.03,0.04,0.07,0.08,0.12,0.11C2.79,6.27,2.75,6.31,2.72,6.35C2.68,6.31,2.65,6.27,2.6,6.24
		C2.65,6.21,2.68,6.17,2.72,6.13L2.72,6.13z M2.72,12.4c0.03,0.04,0.07,0.08,0.12,0.11c-0.05,0.03-0.08,0.07-0.12,0.11
		c-0.03-0.04-0.07-0.08-0.12-0.11C2.65,12.48,2.68,12.44,2.72,12.4L2.72,12.4z M2.92,16.93c0.04,0.11,0.03,0.17,0,0.2
		c-0.02,0.01-0.05,0.01-0.06,0.01c-0.02-0.01-0.02-0.02-0.02-0.03c0-0.06-0.05-0.1-0.12-0.1c-0.07,0-0.12,0.05-0.12,0.1
		c0,0.01,0,0.02-0.02,0.03c-0.02,0.01-0.04,0.01-0.06-0.01c-0.03-0.02-0.04-0.09,0-0.2c0.03-0.08,0.14-0.29,0.2-0.41
		C2.78,16.64,2.89,16.85,2.92,16.93L2.92,16.93z M2.84,15.65c-0.04,0.03-0.08,0.07-0.12,0.11c-0.03-0.04-0.07-0.08-0.12-0.11
		c0.04-0.03,0.08-0.07,0.12-0.11C2.75,15.58,2.79,15.62,2.84,15.65L2.84,15.65z M3.47,13.27l-0.75,1.5l-0.75-1.5
		c-0.05-0.1-0.08-0.21-0.08-0.31c0-0.15,0.1-0.28,0.24-0.32c0.11-0.03,0.23-0.01,0.33,0.05c0.09,0.06,0.14,0.15,0.14,0.25
		c0,0.13-0.09,0.17-0.13,0.18c-0.06,0.02-0.12,0.01-0.14-0.01c-0.02-0.02-0.01-0.07,0.04-0.15c0.04-0.05,0.02-0.11-0.04-0.14
		c-0.06-0.03-0.13-0.02-0.16,0.03c-0.15,0.21-0.07,0.34-0.03,0.39c0.09,0.1,0.25,0.13,0.4,0.08c0.02-0.01,0.04-0.01,0.05-0.02v0.26
		h0c0-0.06-0.05-0.1-0.12-0.1c-0.07,0-0.12,0.05-0.12,0.1c0,0.07,0.05,0.19,0.24,0.22v0.2c0,0.06,0.05,0.1,0.12,0.1
		c0.07,0,0.12-0.05,0.12-0.1v-0.2c0.18-0.04,0.24-0.16,0.24-0.22c0-0.06-0.05-0.11-0.12-0.11c-0.07,0-0.12,0.04-0.12,0.1
		c0,0,0,0,0,0v-0.26c0.02,0.01,0.04,0.01,0.05,0.02c0.15,0.05,0.32,0.01,0.4-0.08c0.04-0.05,0.12-0.18-0.03-0.39
		c-0.04-0.05-0.11-0.06-0.16-0.03c-0.05,0.03-0.07,0.1-0.04,0.14c0.06,0.08,0.06,0.13,0.04,0.15c-0.02,0.02-0.08,0.03-0.14,0.01
		c-0.04-0.01-0.13-0.05-0.13-0.18c0-0.1,0.05-0.19,0.14-0.25c0.09-0.06,0.21-0.08,0.33-0.05c0.14,0.04,0.24,0.17,0.24,0.32
		C3.55,13.06,3.52,13.17,3.47,13.27L3.47,13.27z M3.47,11.76c0.05,0.1,0.08,0.21,0.08,0.31c0,0.15-0.1,0.28-0.24,0.32
		c-0.11,0.03-0.23,0.01-0.33-0.05c-0.09-0.06-0.14-0.15-0.14-0.25c0-0.13,0.09-0.17,0.13-0.18c0.06-0.02,0.12-0.01,0.14,0.01
		c0.02,0.02,0.01,0.07-0.04,0.15c-0.04,0.05-0.02,0.11,0.04,0.14c0.06,0.03,0.13,0.02,0.16-0.03c0.15-0.21,0.07-0.34,0.03-0.39
		c-0.09-0.1-0.25-0.13-0.4-0.08c-0.02,0.01-0.04,0.01-0.05,0.02v-0.26l0,0c0,0.05,0.06,0.1,0.12,0.1c0.07,0,0.12-0.05,0.12-0.1
		c0-0.07-0.05-0.19-0.24-0.22v-0.2c0-0.06-0.05-0.1-0.12-0.1c-0.07,0-0.12,0.05-0.12,0.1v0.2c-0.18,0.04-0.24,0.15-0.24,0.22
		c0,0.06,0.05,0.11,0.12,0.11c0.07,0,0.12-0.04,0.12-0.1c0,0,0,0,0,0v0.26c-0.02-0.01-0.04-0.01-0.05-0.02
		c-0.15-0.05-0.32-0.01-0.4,0.08c-0.04,0.05-0.12,0.18,0.03,0.39c0.04,0.05,0.11,0.06,0.16,0.03c0.06-0.03,0.07-0.1,0.04-0.14
		c-0.06-0.08-0.06-0.13-0.04-0.15c0.02-0.02,0.08-0.03,0.14-0.01c0.04,0.01,0.13,0.05,0.13,0.18c0,0.1-0.05,0.19-0.14,0.25
		c-0.09,0.06-0.21,0.08-0.33,0.05c-0.14-0.04-0.24-0.17-0.24-0.32c0-0.11,0.03-0.22,0.08-0.31l0.75-1.5L3.47,11.76z M2.84,9.37
		C2.79,9.41,2.75,9.44,2.72,9.48C2.69,9.44,2.65,9.41,2.6,9.37c0.04-0.03,0.08-0.07,0.12-0.11C2.75,9.31,2.79,9.34,2.84,9.37
		L2.84,9.37z M3.47,6.99l-0.75,1.5l-0.75-1.5C1.92,6.9,1.89,6.79,1.89,6.68c0-0.15,0.1-0.28,0.24-0.32C2.25,6.33,2.36,6.34,2.46,6.4
		C2.55,6.46,2.6,6.56,2.6,6.66c0,0.13-0.09,0.17-0.13,0.18C2.41,6.86,2.35,6.84,2.33,6.82C2.32,6.81,2.32,6.76,2.37,6.68
		c0.04-0.05,0.02-0.11-0.04-0.14C2.28,6.5,2.21,6.52,2.17,6.57C2.02,6.77,2.1,6.91,2.15,6.95c0.09,0.1,0.25,0.13,0.4,0.08
		C2.56,7.03,2.58,7.02,2.6,7.01v0.26l0,0c0-0.05-0.05-0.1-0.12-0.1c-0.07,0-0.12,0.05-0.12,0.1c0,0.07,0.05,0.19,0.24,0.22v0.2
		c0,0.06,0.05,0.1,0.12,0.1c0.07,0,0.12-0.05,0.12-0.1v-0.2c0.18-0.04,0.24-0.15,0.24-0.22c0-0.06-0.05-0.11-0.12-0.11
		c-0.07,0-0.12,0.04-0.12,0.1c0,0,0,0,0,0V7.01c0.02,0.01,0.04,0.01,0.05,0.02c0.15,0.05,0.32,0.01,0.4-0.08
		c0.04-0.05,0.12-0.18-0.03-0.39C3.23,6.52,3.15,6.5,3.1,6.53c-0.05,0.03-0.07,0.1-0.04,0.14C3.12,6.76,3.12,6.81,3.1,6.82
		C3.09,6.84,3.03,6.86,2.97,6.84C2.93,6.82,2.84,6.78,2.84,6.66c0-0.1,0.05-0.19,0.14-0.25c0.09-0.06,0.21-0.08,0.33-0.05
		C3.45,6.4,3.55,6.53,3.55,6.68C3.55,6.79,3.52,6.9,3.47,6.99L3.47,6.99z M3.47,5.48c0.05,0.1,0.08,0.21,0.08,0.31
		c0,0.15-0.1,0.28-0.24,0.32C3.19,6.15,3.07,6.13,2.98,6.07C2.89,6.01,2.84,5.92,2.84,5.82c0-0.13,0.09-0.17,0.13-0.18
		C3.03,5.62,3.09,5.63,3.1,5.65C3.12,5.67,3.12,5.72,3.06,5.8C3.03,5.85,3.04,5.91,3.1,5.94c0.06,0.03,0.13,0.02,0.16-0.03
		C3.41,5.7,3.33,5.57,3.29,5.52C3.2,5.43,3.04,5.4,2.89,5.44C2.87,5.45,2.85,5.46,2.84,5.46V5.2h0c0,0.06,0.06,0.1,0.12,0.1
		c0.07,0,0.12-0.05,0.12-0.1c0-0.07-0.05-0.19-0.24-0.22v-0.2c0-0.06-0.05-0.1-0.12-0.1c-0.07,0-0.12,0.05-0.12,0.1v0.2
		C2.42,5.01,2.36,5.12,2.36,5.19c0,0.06,0.05,0.11,0.12,0.11c0.07,0,0.12-0.04,0.12-0.1c0,0,0,0,0,0v0.26
		C2.58,5.46,2.56,5.45,2.55,5.44C2.39,5.4,2.23,5.43,2.15,5.52C2.1,5.57,2.02,5.7,2.17,5.91c0.04,0.05,0.11,0.06,0.16,0.03
		c0.06-0.03,0.07-0.1,0.04-0.14C2.32,5.72,2.32,5.67,2.33,5.65c0.02-0.02,0.08-0.03,0.14-0.01C2.51,5.65,2.6,5.69,2.6,5.82
		c0,0.1-0.05,0.19-0.14,0.25C2.36,6.13,2.25,6.15,2.13,6.12C1.99,6.08,1.89,5.95,1.89,5.8c0-0.11,0.03-0.22,0.08-0.31l0.75-1.5
		L3.47,5.48z M2.6,3.1c0.04-0.03,0.08-0.07,0.12-0.11C2.75,3.03,2.79,3.07,2.84,3.1C2.79,3.13,2.75,3.17,2.72,3.21
		C2.69,3.17,2.65,3.13,2.6,3.1L2.6,3.1z M2.6,3.1"/>
	<path class="st7" d="M19.75,8.14c0,1.39-1.28,2.52-2.85,2.52c-1.57,0-2.85-1.13-2.85-2.52c0-1.39,1.28-2.52,2.85-2.52
		C18.48,5.62,19.75,6.75,19.75,8.14L19.75,8.14z M19.75,8.14"/>
	<path class="st7" d="M17.12,4.93c0,0.1-0.1,0.19-0.21,0.19c-0.12,0-0.21-0.08-0.21-0.19c0-0.1,0.21-0.57,0.21-0.57
		S17.12,4.83,17.12,4.93L17.12,4.93z M17.12,4.93"/>
	<path class="st7" d="M16.69,11.35c0-0.1,0.1-0.19,0.21-0.19c0.12,0,0.21,0.08,0.21,0.19c0,0.1-0.21,0.57-0.21,0.57
		S16.69,11.45,16.69,11.35L16.69,11.35z M16.69,11.35"/>
	<path class="st7" d="M20.54,8.33c-0.12,0-0.21-0.08-0.21-0.19c0-0.1,0.1-0.19,0.21-0.19c0.12,0,0.64,0.19,0.64,0.19
		S20.65,8.33,20.54,8.33L20.54,8.33z M20.54,8.33"/>
	<path class="st7" d="M13.27,7.95c0.12,0,0.21,0.08,0.21,0.19c0,0.1-0.1,0.19-0.21,0.19c-0.12,0-0.64-0.19-0.64-0.19
		S13.16,7.95,13.27,7.95L13.27,7.95z M13.27,7.95"/>
	<path class="st7" d="M19.62,6.01c-0.08,0.07-0.22,0.07-0.3,0c-0.08-0.07-0.08-0.19,0-0.27c0.08-0.07,0.6-0.27,0.6-0.27
		S19.71,5.93,19.62,6.01L19.62,6.01z M19.62,6.01"/>
	<path class="st7" d="M14.19,10.28c0.08-0.07,0.22-0.07,0.3,0c0.08,0.07,0.08,0.19,0,0.27c-0.08,0.07-0.6,0.27-0.6,0.27
		S14.1,10.35,14.19,10.28L14.19,10.28z M14.19,10.28"/>
	<path class="st7" d="M19.32,10.54c-0.08-0.07-0.08-0.19,0-0.27c0.08-0.07,0.22-0.07,0.3,0c0.08,0.07,0.3,0.53,0.3,0.53
		S19.41,10.62,19.32,10.54L19.32,10.54z M19.32,10.54"/>
	<path class="st7" d="M14.49,5.74c0.08,0.07,0.08,0.19,0,0.27c-0.08,0.07-0.22,0.07-0.3,0c-0.08-0.07-0.3-0.53-0.3-0.53
		S14.41,5.67,14.49,5.74L14.49,5.74z M14.49,5.74"/>
	<path class="st7" d="M15.71,5.1c0.05,0.1-0.01,0.21-0.12,0.25c-0.11,0.04-0.23-0.01-0.28-0.1c-0.05-0.1-0.05-0.6-0.05-0.6
		S15.67,5.01,15.71,5.1L15.71,5.1z M15.71,5.1"/>
	<path class="st7" d="M18.1,11.18c-0.05-0.1,0.01-0.21,0.12-0.25c0.11-0.04,0.23,0.01,0.28,0.1c0.05,0.1,0.05,0.6,0.05,0.6
		S18.14,11.27,18.1,11.18L18.1,11.18z M18.1,11.18"/>
	<path class="st7" d="M20.34,7.09c-0.11,0.04-0.23-0.01-0.28-0.1c-0.05-0.1,0.01-0.21,0.12-0.25c0.11-0.04,0.67-0.04,0.67-0.04
		S20.45,7.05,20.34,7.09L20.34,7.09z M20.34,7.09"/>
	<path class="st7" d="M13.47,9.19c0.11-0.04,0.23,0.01,0.28,0.1c0.05,0.1-0.01,0.21-0.12,0.25s-0.67,0.04-0.67,0.04
		S13.36,9.23,13.47,9.19L13.47,9.19z M13.47,9.19"/>
	<path class="st7" d="M18.49,5.25c-0.05,0.1-0.17,0.14-0.28,0.1C18.1,5.31,18.05,5.2,18.1,5.1c0.05-0.1,0.44-0.45,0.44-0.45
		S18.54,5.15,18.49,5.25L18.49,5.25z M18.49,5.25"/>
	<path class="st7" d="M15.32,11.03c0.05-0.1,0.17-0.14,0.28-0.1c0.11,0.04,0.16,0.15,0.12,0.25c-0.05,0.1-0.44,0.45-0.44,0.45
		S15.27,11.13,15.32,11.03L15.32,11.03z M15.32,11.03"/>
	<path class="st7" d="M20.18,9.54c-0.11-0.04-0.16-0.15-0.12-0.25c0.05-0.1,0.17-0.14,0.28-0.1c0.11,0.04,0.51,0.39,0.51,0.39
		S20.29,9.58,20.18,9.54L20.18,9.54z M20.18,9.54"/>
	<path class="st7" d="M13.63,6.74c0.11,0.04,0.16,0.15,0.12,0.25c-0.05,0.1-0.17,0.14-0.28,0.1c-0.11-0.04-0.51-0.39-0.51-0.39
		S13.52,6.7,13.63,6.74L13.63,6.74z M13.63,6.74"/>
	<path class="st7" d="M16.41,4.96c0.02,0.1-0.05,0.2-0.17,0.22c-0.12,0.02-0.23-0.05-0.25-0.15c-0.02-0.1,0.08-0.59,0.08-0.59
		S16.38,4.86,16.41,4.96L16.41,4.96z M16.41,4.96"/>
	<path class="st7" d="M17.4,11.32c-0.02-0.1,0.05-0.2,0.17-0.22c0.12-0.02,0.23,0.05,0.25,0.15c0.02,0.1-0.08,0.59-0.08,0.59
		S17.43,11.43,17.4,11.32L17.4,11.32z M17.4,11.32"/>
	<path class="st7" d="M20.51,7.7c-0.12,0.02-0.23-0.05-0.25-0.15c-0.02-0.1,0.05-0.2,0.17-0.22c0.12-0.02,0.67,0.07,0.67,0.07
		S20.62,7.68,20.51,7.7L20.51,7.7z M20.51,7.7"/>
	<path class="st7" d="M13.3,8.58c0.12-0.02,0.23,0.05,0.25,0.15c0.02,0.1-0.05,0.2-0.17,0.22c-0.12,0.02-0.67-0.07-0.67-0.07
		S13.19,8.6,13.3,8.58L13.3,8.58z M13.3,8.58"/>
	<path class="st7" d="M19.1,5.58c-0.07,0.09-0.2,0.11-0.3,0.05c-0.1-0.06-0.12-0.18-0.06-0.26C18.81,5.28,19.28,5,19.28,5
		S19.17,5.49,19.1,5.58L19.1,5.58z M19.1,5.58"/>
	<path class="st7" d="M14.71,10.7c0.07-0.09,0.2-0.11,0.3-0.05c0.1,0.06,0.12,0.18,0.06,0.26C15,11,14.53,11.28,14.53,11.28
		S14.64,10.79,14.71,10.7L14.71,10.7z M14.71,10.7"/>
	<path class="st7" d="M19.81,10.08c-0.1-0.06-0.12-0.18-0.06-0.26c0.07-0.09,0.2-0.11,0.3-0.05c0.1,0.06,0.41,0.47,0.41,0.47
		S19.9,10.14,19.81,10.08L19.81,10.08z M19.81,10.08"/>
	<path class="st7" d="M14,6.2c0.1,0.06,0.12,0.18,0.06,0.26c-0.07,0.09-0.2,0.11-0.3,0.05c-0.1-0.06-0.41-0.47-0.41-0.47
		S13.91,6.14,14,6.2L14,6.2z M14,6.2"/>
	<path class="st7" d="M15.07,5.37c0.07,0.09,0.04,0.2-0.06,0.26c-0.1,0.06-0.23,0.03-0.3-0.05C14.64,5.49,14.53,5,14.53,5
		S15,5.28,15.07,5.37L15.07,5.37z M15.07,5.37"/>
	<path class="st7" d="M18.74,10.91c-0.07-0.09-0.04-0.2,0.06-0.26c0.1-0.06,0.23-0.03,0.3,0.05c0.07,0.09,0.18,0.58,0.18,0.58
		S18.81,11,18.74,10.91L18.74,10.91z M18.74,10.91"/>
	<path class="st7" d="M20.04,6.52c-0.1,0.06-0.23,0.03-0.3-0.05c-0.07-0.09-0.04-0.2,0.06-0.26c0.1-0.06,0.65-0.16,0.65-0.16
		S20.14,6.46,20.04,6.52L20.04,6.52z M20.04,6.52"/>
	<path class="st7" d="M13.77,9.77c0.1-0.06,0.23-0.03,0.3,0.05c0.07,0.09,0.04,0.2-0.06,0.26c-0.1,0.06-0.65,0.16-0.65,0.16
		S13.67,9.82,13.77,9.77L13.77,9.77z M13.77,9.77"/>
	<path class="st7" d="M17.82,5.03c-0.02,0.1-0.14,0.17-0.25,0.15c-0.12-0.02-0.19-0.12-0.17-0.22c0.02-0.1,0.33-0.52,0.33-0.52
		S17.85,4.93,17.82,5.03L17.82,5.03z M17.82,5.03"/>
	<path class="st7" d="M15.99,11.25c0.02-0.1,0.14-0.17,0.25-0.15c0.12,0.02,0.19,0.12,0.17,0.22c-0.02,0.1-0.33,0.52-0.33,0.52
		S15.96,11.35,15.99,11.25L15.99,11.25z M15.99,11.25"/>
	<path class="st7" d="M20.42,8.95c-0.12-0.02-0.19-0.12-0.17-0.22c0.02-0.1,0.14-0.17,0.25-0.15c0.12,0.02,0.59,0.3,0.59,0.3
		S20.54,8.97,20.42,8.95L20.42,8.95z M20.42,8.95"/>
	<path class="st7" d="M13.39,7.33c0.12,0.02,0.19,0.12,0.17,0.22c-0.02,0.1-0.14,0.17-0.25,0.15c-0.12-0.02-0.59-0.3-0.59-0.3
		S13.27,7.31,13.39,7.33L13.39,7.33z M13.39,7.33"/>
	<path class="st7" d="M23.6,8.8c-0.08-0.03-0.18,0-0.21,0.08v0c0,0,0,0.01-0.01,0.02C23.26,9.16,23,9.53,22.74,9.88
		c0.24-0.68,0.46-1.41,0.48-1.46c0.02-0.08-0.03-0.16-0.12-0.18c-0.09-0.02-0.18,0.02-0.2,0.1c-0.11,0.35-0.34,0.82-0.55,1.22
		c0.04-0.44,0.05-0.85,0.05-0.88c0-0.08-0.07-0.14-0.16-0.15c-0.08,0-0.16,0.06-0.17,0.13c-0.21,2.54-2.98,3.68-3.25,3.78
		c-0.14,0.01-0.8,0.08-1.39,0.26c-0.07,0.02-0.13,0.04-0.18,0.06c-0.02-0.01-0.04-0.01-0.07-0.01c-1.83,0.12-3.29-0.55-4.34-1.97
		c-0.79-1.07-1.04-2.2-1.04-2.21c-0.02-0.08-0.1-0.13-0.19-0.11c-0.09,0.01-0.15,0.09-0.13,0.17c0.01,0.03,0.12,0.52,0.42,1.17
		c-0.4-0.56-0.68-1.24-0.78-1.59c0-0.01-0.01-0.01-0.01-0.02c0-0.01-0.01-0.02-0.02-0.03c0-0.01-0.01-0.01-0.02-0.02
		c-0.01-0.01-0.02-0.02-0.03-0.02c-0.01,0-0.01-0.01-0.02-0.01c-0.01,0-0.02-0.01-0.04-0.01c-0.01,0-0.02,0-0.03,0
		c-0.01,0-0.02,0-0.03,0c0,0,0,0-0.01,0c0,0,0,0-0.01,0c-0.01,0-0.02,0.01-0.02,0.01c-0.01,0-0.02,0.01-0.03,0.01
		c-0.01,0.01-0.02,0.01-0.02,0.02c-0.01,0.01-0.01,0.01-0.02,0.02c-0.01,0.01-0.01,0.02-0.01,0.03c0,0.01-0.01,0.02-0.01,0.03
		c0,0.01,0,0.02,0,0.03c0,0.01,0,0.02,0,0.02c0,0,0,0.01,0,0.01v0c0,0,0,0,0,0c0.1,0.53,0.34,1.07,0.56,1.49
		c-0.35-0.35-0.63-0.75-0.74-0.98c0-0.01-0.01-0.01-0.01-0.02c-0.01-0.01-0.01-0.02-0.02-0.03c-0.01-0.01-0.01-0.01-0.02-0.01
		c-0.01-0.01-0.02-0.01-0.03-0.02c-0.01,0-0.02,0-0.02-0.01c-0.01,0-0.02-0.01-0.04-0.01c-0.01,0-0.02,0-0.03,0
		c-0.01,0-0.02,0-0.03,0c0,0,0,0,0,0c0,0,0,0-0.01,0c-0.01,0-0.02,0.01-0.02,0.01c-0.01,0-0.02,0.01-0.03,0.02
		c-0.01,0.01-0.01,0.01-0.02,0.02c-0.01,0.01-0.01,0.01-0.02,0.02c0,0.01-0.01,0.02-0.01,0.03c0,0.01-0.01,0.02-0.01,0.03
		c0,0.01,0,0.02,0,0.03c0,0.01,0,0.02,0,0.02c0.18,0.51,0.61,1.11,0.94,1.53c-0.28-0.19-0.48-0.4-0.54-0.46
		c-0.01-0.01-0.01-0.01-0.02-0.02c-0.06-0.06-0.16-0.07-0.23-0.02c-0.07,0.05-0.08,0.14-0.02,0.2c0,0,0.02,0.02,0.04,0.04
		c0.25,0.26,0.51,0.5,0.75,0.7l-0.33-0.12c-0.08-0.03-0.16,0-0.21,0.06c-0.04,0.06-0.02,0.14,0.04,0.19
		c0.03,0.02,0.62,0.41,1.13,0.64c-0.05,0-0.1,0-0.17,0c-0.08-0.01-0.15,0.04-0.17,0.11c-0.02,0.07,0.02,0.14,0.1,0.17
		c0.01,0,0.17,0.06,0.36,0.12c-0.04,0.02-0.08,0.05-0.09,0.09c-0.02,0.06,0.01,0.13,0.07,0.17c0.02,0.01,0.25,0.13,0.53,0.23
		c-0.01,0.01-0.01,0.02-0.02,0.03c-0.02,0.06,0,0.13,0.06,0.16c0.05,0.03,1.16,0.7,2.45,0.7c0.09,0,0.17,0,0.26-0.01
		c0.09-0.01,0.16-0.08,0.15-0.16c-0.01-0.08-0.09-0.14-0.18-0.13c-0.81,0.06-1.6-0.21-2.06-0.42c0.06-0.01,0.1-0.03,0.11-0.03
		c0.07-0.03,0.11-0.09,0.1-0.16c-0.01-0.07-0.08-0.12-0.16-0.12c-0.19,0-0.45-0.08-0.68-0.17c0.09-0.04,0.14-0.07,0.14-0.08
		c0.05-0.04,0.07-0.09,0.05-0.15c-0.02-0.05-0.07-0.1-0.13-0.1c-0.07-0.01-0.16-0.03-0.25-0.05c0.09-0.04,0.13-0.09,0.14-0.12
		c0.02-0.04,0.02-0.09,0-0.13c-0.02-0.04-0.06-0.07-0.11-0.08c-0.04-0.01-0.09-0.02-0.14-0.04c0.01-0.01,0.02-0.02,0.03-0.03
		c0.04-0.06,0.02-0.14-0.04-0.19c0,0-0.13-0.09-0.32-0.24c0.03-0.01,0.06-0.03,0.08-0.05c0.04-0.05,0.04-0.12-0.01-0.17
		c0,0-0.13-0.14-0.31-0.36c0.06,0.04,0.12,0.08,0.17,0.11c0.03,0.02,0.06,0.02,0.09,0.02c0.04,0,0.08-0.01,0.11-0.04
		c0.01-0.01,0.02-0.02,0.03-0.04c0.1,0.09,0.2,0.18,0.31,0.25c0.01,0.01,0.03,0.01,0.05,0.01c0.05,0.07,0.09,0.14,0.15,0.21
		c0.99,1.35,2.39,2.07,4.07,2.11c-0.15,0.08-0.32,0.17-0.59,0.26c-0.06,0.02-0.11,0.04-0.16,0.06c-0.02,0-0.05,0.01-0.07,0.03
		c-0.46,0.19-0.66,0.38-0.73,0.51c-0.08,0.13-0.01,0.26,0.08,0.33c0.03,0.02,0.07,0.03,0.1,0.03c0.03,0,0.05,0,0.08-0.02
		c0.06-0.03,0.1-0.08,0.09-0.14c0.01-0.01,0.04-0.03,0.12-0.03c0.06,0,0.2,0.01,0.36,0.02c0.15,0.01,0.33,0.02,0.53,0.03
		c-0.12,0.12-0.26,0.27-0.26,0.27c-0.04,0.04-0.05,0.1-0.02,0.16c0.03,0.05,0.09,0.08,0.15,0.08c0.13,0,0.22-0.01,0.27-0.01
		c0.05,0.06,0.11,0.08,0.15,0.09c0.11,0.03,0.22-0.01,0.31-0.06c0.06,0.04,0.13,0.06,0.18,0.06c0.11,0.01,0.22-0.02,0.3-0.05
		c0.08,0.05,0.16,0.06,0.22,0.06h0c0.13,0,0.24-0.05,0.32-0.11c0.07,0.04,0.14,0.05,0.19,0.05c0.12,0,0.21-0.04,0.28-0.07
		c0.23,0.04,0.43-0.05,0.56-0.16c0.06,0.03,0.12,0.04,0.16,0.04c0.12,0,0.21-0.07,0.26-0.12c0.26,0.03,0.45-0.01,0.56-0.13
		c0.06-0.06,0.08-0.13,0.09-0.19c0.72,0,0.79-0.35,0.79-0.4c0-0.04-0.01-0.08-0.04-0.11c-0.03-0.03-0.07-0.05-0.11-0.05l-1.9-0.1
		c-0.08-0.01-0.15,0.04-0.17,0.11c0,0-0.03,0.11-0.13,0.19c-0.14,0.12-0.36,0.18-0.59,0.21c0-0.02,0-0.04-0.01-0.06
		c-0.03-0.07-0.13-0.11-0.21-0.08c-0.39,0.13-1.03,0.12-1.52,0.09c0.08-0.05,0.17-0.11,0.24-0.14c0.06-0.03,0.1-0.09,0.08-0.15
		c-0.01-0.04-0.05-0.08-0.09-0.1c0.14-0.06,0.25-0.12,0.36-0.18c0.19-0.1,0.36-0.2,0.68-0.29c0.62-0.19,1.34-0.25,1.34-0.25
		c0.02,0,0.03,0,0.05-0.01c0.03-0.01,2.05-0.76,3-2.48c-0.01,0.05-0.03,0.1-0.04,0.14c-0.02,0.07,0.02,0.15,0.09,0.18
		c0.06,0.02,0.13,0.01,0.17-0.03c-0.06,0.14-0.11,0.25-0.16,0.32c-0.05,0.07-0.02,0.15,0.05,0.2c0.02,0.01,0.04,0.02,0.05,0.02
		c-0.07,0.1-0.15,0.19-0.22,0.27c-0.05,0.05-0.05,0.13,0.01,0.19c-0.13,0.12-0.24,0.22-0.33,0.28c-0.06,0.04-0.07,0.11-0.05,0.17
		c-0.08,0.04-0.15,0.07-0.2,0.08c-0.08,0.02-0.13,0.09-0.11,0.16c0.01,0.04,0.03,0.07,0.07,0.09c-0.1,0.02-0.21,0.05-0.33,0.07
		c-0.07,0.01-0.12,0.06-0.13,0.12c-0.01,0.06,0.02,0.12,0.08,0.15c0.01,0,0.06,0.03,0.15,0.06c-0.32,0.11-0.88,0.26-1.81,0.34
		c-0.09,0.01-0.16,0.08-0.15,0.16c0.01,0.08,0.09,0.13,0.18,0.13c1.76-0.15,2.3-0.54,2.32-0.56c0.05-0.04,0.07-0.1,0.05-0.15
		c-0.01-0.04-0.04-0.07-0.08-0.08c0.56-0.16,0.8-0.33,0.81-0.34c0.06-0.05,0.08-0.12,0.04-0.18c-0.04-0.06-0.13-0.09-0.2-0.06
		c-0.02,0.01-0.05,0.01-0.1,0.02c0.38-0.23,0.78-0.5,0.95-0.62c0.03-0.02,0.06-0.04,0.08-0.06c0.07-0.05,0.08-0.14,0.02-0.2
		c-0.06-0.06-0.16-0.07-0.23-0.02c-0.03,0.02-0.05,0.04-0.08,0.05c-0.08,0.05-0.19,0.11-0.3,0.18c0.43-0.43,0.86-0.89,0.98-1.03
		c0.01-0.01,0.02-0.02,0.03-0.04c0.06-0.06,0.05-0.15-0.02-0.2c-0.07-0.05-0.17-0.04-0.23,0.02l0,0v0c0,0-0.02,0.02-0.04,0.04
		c-0.13,0.14-0.26,0.27-0.4,0.4c0.44-0.7,0.77-1.38,0.81-1.49c0,0,0-0.01,0.01-0.01C23.73,8.92,23.69,8.83,23.6,8.8L23.6,8.8z
		 M15.95,13.67l0.04,0.01c-0.05,0.05-0.1,0.1-0.13,0.15c-0.08-0.01-0.15-0.01-0.2-0.01C15.73,13.76,15.83,13.72,15.95,13.67
		L15.95,13.67z M15.95,13.67"/>
</g>
</svg>
