<?xml version="1.0" encoding="utf-8"?>
<!-- Generator: Adobe Illustrator 25.0.1, SVG Export Plug-In . SVG Version: 6.00 Build 0)  -->
<svg version="1.1" id="Layer_1" xmlns="http://www.w3.org/2000/svg" xmlns:xlink="http://www.w3.org/1999/xlink" x="0px" y="0px"
	 viewBox="0 0 32 20" style="enable-background:new 0 0 32 20;" xml:space="preserve">
<style type="text/css">
	.st0{fill:#FF4B55;}
	.st1{fill:#F5F5F5;}
	.st2{fill:#73AF00;}
</style>
<g>
	<g>
		<path class="st0" d="M32,4.21H0V0.53C0,0.24,0.25,0,0.55,0h30.9C31.75,0,32,0.24,32,0.53L32,4.21L32,4.21z"/>
		<path class="st0" d="M31.45,20H0.55C0.25,20,0,19.76,0,19.47v-3.68h32v3.68C32,19.76,31.75,20,31.45,20z"/>
	</g>
	<rect y="4.21" class="st1" width="32" height="11.58"/>
	<path class="st2" d="M17.18,13.54l5.1-0.97c0.37-0.07,0.53-0.48,0.31-0.77l0,0c-0.08-0.1-0.2-0.17-0.33-0.19l-5.43-0.81
		c-0.15-0.02-0.26-0.16-0.23-0.31c0.02-0.14,0.18-0.24,0.33-0.22l3.77,0.47c0.31,0.04,0.49-0.31,0.28-0.53l-0.3-0.31
		c-0.11-0.12-0.26-0.19-0.42-0.22L17.1,9.12l2.68,0.18c0.21,0.01,0.32-0.22,0.19-0.36l-0.14-0.15c-0.08-0.09-0.19-0.15-0.32-0.17
		l-2.66-0.53l1.89-0.05c0.17,0,0.25-0.19,0.14-0.31L18.8,7.63c-0.07-0.07-0.15-0.12-0.25-0.15l-1.69-0.46h1.33
		c0.13,0,0.22-0.13,0.17-0.24l-0.04-0.1c-0.05-0.12-0.16-0.21-0.28-0.25l-1.23-0.4l0.6,0c0.18,0,0.3-0.18,0.23-0.33l0,0
		c-0.06-0.13-0.16-0.23-0.29-0.29L16,4.74L14.65,5.4c-0.13,0.06-0.23,0.17-0.29,0.29l0,0c-0.07,0.16,0.05,0.33,0.23,0.33l0.6,0
		l-1.23,0.4c-0.13,0.04-0.23,0.13-0.28,0.25l-0.04,0.1c-0.05,0.11,0.04,0.24,0.17,0.24h1.33l-1.69,0.46
		c-0.1,0.03-0.18,0.08-0.25,0.15l-0.08,0.09C13,7.84,13.09,8.03,13.26,8.03l1.89,0.05l-2.66,0.53c-0.12,0.02-0.23,0.09-0.32,0.17
		l-0.14,0.15c-0.14,0.15-0.02,0.38,0.19,0.36l2.68-0.18L11.76,9.7c-0.16,0.03-0.31,0.11-0.42,0.22l-0.3,0.31
		c-0.21,0.21-0.02,0.56,0.28,0.53l3.77-0.47c0.15-0.02,0.3,0.07,0.33,0.22c0.03,0.15-0.08,0.28-0.23,0.31l-5.43,0.81
		C9.61,11.63,9.5,11.7,9.42,11.8l0,0c-0.23,0.29-0.06,0.7,0.31,0.77l5.1,0.97v0.61c0,0.33-0.14,0.65-0.38,0.88l-0.8,0.76H16h2.36
		l-0.8-0.76c-0.25-0.23-0.38-0.55-0.38-0.88L17.18,13.54L17.18,13.54z"/>
</g>
</svg>
