<?xml version="1.0" encoding="utf-8"?>
<!-- Generator: Adobe Illustrator 25.0.0, SVG Export Plug-In . SVG Version: 6.00 Build 0)  -->
<svg version="1.1" id="Capa_1" xmlns="http://www.w3.org/2000/svg" xmlns:xlink="http://www.w3.org/1999/xlink" x="0px" y="0px"
	 viewBox="0 0 32 18.62" style="enable-background:new 0 0 32 18.62;" xml:space="preserve">
<style type="text/css">
	.st0{fill:#FF4B55;}
	.st1{fill:#464655;}
	.st2{fill:#73AF00;}
	.st3{fill:#F5F5F5;}
	.st4{fill:#41479B;}
	.st5{fill:#FFF5DC;}
	.st6{fill:#D27D69;}
	.st7{fill:#FFE15A;}
	.st8{fill:#B95546;}
	.st9{fill:#DCBE82;}
	.st10{fill:#D2AA73;}
	.st11{fill:#4173CD;}
	.st12{fill:#82AFFF;}
	.st13{fill:#F09146;}
	.st14{fill:#FFB400;}
	.st15{fill:#965032;}
	.st16{fill:#BE7855;}
	.st17{fill:#FFBE3C;}
	.st18{fill:#EAF3F5;}
	.st19{fill:#8C5A28;}
	.st20{fill:#F0C850;}
	.st21{fill:#FF6E55;}
	.st22{fill:#FFBE5A;}
	.st23{fill:#3CC8FF;}
	.st24{fill:#825546;}
	.st25{fill:#FFD255;}
	.st26{fill:#FFD25A;}
	.st27{fill:#509664;}
	.st28{fill:#F0AA00;}
	.st29{fill:#A561CD;}
	.st30{fill:#B34900;}
	.st31{fill:#64B496;}
	.st32{fill:#FF6B71;}
	.st33{fill:#5F64B9;}
	.st34{fill:#F5F0F0;}
	.st35{fill:#5A4646;}
	.st36{fill:#E6E1CD;}
	.st37{fill:#FFD0AF;}
	.st38{fill:#FFAF94;}
	.st39{fill:#8CB400;}
	.st40{fill:#69C3FF;}
	.st41{fill:#009B64;}
	.st42{fill:#5AA0E6;}
	.st43{fill:#FFC88C;}
	.st44{fill:#E1E1E1;}
	.st45{fill:#966446;}
	.st46{fill:#BE915A;}
	.st47{fill:#B9B9B9;}
	.st48{fill:#F0C727;}
	.st49{fill:#50AF69;}
	.st50{fill:#FFE6E6;}
	.st51{fill:#FFB750;}
	.st52{fill:#FFC455;}
	.st53{fill:#FFCD55;}
	.st54{fill:#9BC800;}
	.st55{fill:#FFE14E;}
	.st56{fill:#FFB14E;}
	.st57{fill:#B46446;}
	.st58{fill:#5FA000;}
	.st59{fill:#F2DD30;}
	.st60{fill:#FFC855;}
	.st61{fill:#A0A0A0;}
	.st62{fill:#69B469;}
	.st63{fill:#F4E08F;}
	.st64{fill:#ECD077;}
	.st65{fill:#FCF0A8;}
	.st66{fill:#FAB446;}
	.st67{fill:#C8414B;}
	.st68{fill:#FF9B46;}
	.st69{fill:#FF9B55;}
	.st70{fill:#82C3D2;}
	.st71{fill:#5AA587;}
	.st72{fill:#CDCDCD;}
	.st73{fill:#B4A08C;}
	.st74{fill:#FFD250;}
	.st75{fill:#00C3A0;}
	.st76{fill:#00AADC;}
	.st77{fill:#732D37;}
	.st78{fill:#AAD264;}
	.st79{fill:#874150;}
	.st80{fill:#783C46;}
	.st81{fill:#FFB478;}
	.st82{fill:#9B4B5A;}
	.st83{fill:#FFCD5A;}
	.st84{fill:#FFAA5A;}
	.st85{fill:#FF875A;}
	.st86{fill:#E6B432;}
	.st87{fill:#C86464;}
	.st88{fill:#FFF5E1;}
	.st89{fill:#963C3C;}
	.st90{fill:#5A8250;}
	.st91{fill:#AFEBFF;}
	.st92{fill:#557DE6;}
	.st93{fill:#D23741;}
	.st94{fill:#64C86E;}
	.st95{fill:#873250;}
	.st96{fill:#41AA5A;}
	.st97{fill:#8CD7FF;}
	.st98{fill:#6EC86E;}
	.st99{fill:#FFF0E1;}
	.st100{fill:#FFC75A;}
	.st101{fill:#FFD350;}
	.st102{fill:#FFBE50;}
	.st103{fill:#A54B50;}
	.st104{fill:#C87878;}
	.st105{fill:#FF1722;}
	.st106{fill:#FFB441;}
	.st107{fill:#5064AA;}
	.st108{fill:#FFA0D2;}
	.st109{fill:#FF7350;}
	.st110{fill:#245DBD;}
	.st111{fill:#D35A10;}
	.st112{fill:#FFA033;}
	.st113{fill:#FF9480;}
	.st114{fill:#FFA0E4;}
	.st115{fill:#696E7D;}
	.st116{fill:#FFFCFF;}
	.st117{fill:#EBEBEB;}
	.st118{fill:#FF4B57;}
	.st119{fill:#D2D2D2;}
	.st120{fill:#F0C814;}
	.st121{fill:#F7B518;}
	.st122{fill:#2C2F38;}
	.st123{fill:#4C8056;}
	.st124{fill:#F0C419;}
	.st125{fill:#C03A2B;}
	.st126{fill:#EA3F3F;}
	.st127{fill:#E4E3E1;}
	.st128{fill:#2472B2;}
</style>
<g>
	<path class="st4" d="M31.97,9.3H0V0.53c0-0.27,0.25-0.49,0.55-0.49h30.87c0.3,0,0.55,0.22,0.55,0.49V9.3z M31.97,9.3"/>
	<path class="st0" d="M0,9.3h31.97v8.77c0,0.27-0.25,0.49-0.55,0.49H0.55c-0.3,0-0.55-0.22-0.55-0.49V9.3z M0,9.3"/>
	<path class="st7" d="M10.24,5.58c-0.01-0.02-0.02-0.03-0.04-0.04c0,0-0.05-0.02-0.11-0.03c0.03-0.04,0.05-0.08,0.05-0.13
		c0-0.04-0.02-0.08-0.04-0.11c0.08-0.04,0.13-0.11,0.13-0.19c0-0.07-0.03-0.12-0.09-0.16c0.06-0.04,0.1-0.1,0.1-0.17
		c0-0.08-0.05-0.15-0.13-0.19c0.04-0.04,0.06-0.09,0.06-0.14c0-0.1-0.07-0.18-0.17-0.21c0.02-0.03,0.04-0.07,0.04-0.11
		c0-0.12-0.11-0.22-0.24-0.22c0.01-0.02,0.01-0.04,0.01-0.06c0-0.12-0.11-0.22-0.25-0.22c-0.02,0-0.04,0.01-0.07,0.01
		c0,0,0-0.01,0-0.01c0-0.12-0.11-0.22-0.25-0.22c-0.05,0-0.09,0.01-0.13,0.04C9.1,3.32,9.01,3.25,8.9,3.25
		c-0.07,0-0.13,0.02-0.18,0.06C8.68,3.24,8.6,3.2,8.5,3.2c-0.09,0-0.16,0.04-0.2,0.1C8.26,3.25,8.19,3.23,8.12,3.23
		c-0.09,0-0.17,0.05-0.21,0.11C7.86,3.29,7.8,3.26,7.72,3.26c-0.09,0-0.17,0.05-0.21,0.11C7.47,3.34,7.42,3.32,7.36,3.32
		c-0.1,0-0.19,0.06-0.23,0.14C7.09,3.43,7.03,3.4,6.96,3.4c-0.1,0-0.17,0.05-0.22,0.12C6.72,3.51,6.7,3.5,6.68,3.5
		c0.05-0.07,0.08-0.15,0.08-0.24c0-0.17-0.12-0.32-0.28-0.39l0.07-0.12c0.01-0.02,0.01-0.04,0-0.06L6.47,2.53
		c0.01,0,0.01-0.01,0.02-0.02l0.17,0.07c0.01,0,0.02,0.01,0.03,0.01c0.01,0,0.02,0,0.03-0.01l0.41-0.18
		C7.16,2.4,7.18,2.38,7.18,2.35c0-0.03-0.02-0.05-0.04-0.06L6.72,2.11C6.7,2.1,6.68,2.1,6.66,2.11L6.49,2.18
		C6.48,2.18,6.48,2.17,6.47,2.17l0.08-0.15c0.01-0.02,0.01-0.04,0-0.06L6.35,1.6c-0.03-0.05-0.11-0.05-0.14,0l-0.2,0.36
		C6,1.98,6,2,6.01,2.02l0.08,0.15c-0.01,0-0.01,0.01-0.02,0.02L5.91,2.11c-0.02-0.01-0.05-0.01-0.07,0L5.43,2.29
		C5.4,2.3,5.39,2.33,5.39,2.35c0,0.03,0.02,0.05,0.04,0.06l0.41,0.18c0.01,0,0.02,0.01,0.03,0.01c0.01,0,0.02,0,0.03-0.01l0.17-0.07
		c0.01,0.01,0.01,0.01,0.02,0.02L6.01,2.68C6,2.7,6,2.72,6.01,2.74l0.07,0.12C5.91,2.93,5.79,3.08,5.79,3.26
		c0,0.09,0.03,0.17,0.08,0.24C5.84,3.5,5.82,3.5,5.79,3.52C5.75,3.45,5.67,3.4,5.58,3.4c-0.07,0-0.13,0.02-0.17,0.06
		C5.37,3.38,5.28,3.32,5.17,3.32c-0.06,0-0.11,0.02-0.15,0.05C4.98,3.31,4.9,3.26,4.81,3.26c-0.07,0-0.14,0.03-0.18,0.07
		C4.58,3.27,4.51,3.23,4.41,3.23c-0.07,0-0.13,0.03-0.18,0.07c-0.04-0.06-0.12-0.1-0.2-0.1c-0.09,0-0.17,0.05-0.22,0.12
		C3.77,3.27,3.71,3.25,3.64,3.25c-0.11,0-0.21,0.07-0.24,0.16C3.36,3.39,3.32,3.38,3.28,3.38c-0.14,0-0.25,0.1-0.25,0.22
		c0,0,0,0.01,0,0.01C3.01,3.61,2.99,3.6,2.96,3.6c-0.14,0-0.25,0.1-0.25,0.22c0,0.02,0.01,0.04,0.01,0.06
		c-0.13,0-0.24,0.1-0.24,0.22c0,0.04,0.02,0.08,0.04,0.11c-0.1,0.03-0.17,0.11-0.17,0.21c0,0.06,0.03,0.11,0.06,0.14
		C2.34,4.59,2.29,4.66,2.29,4.74c0,0.07,0.04,0.13,0.1,0.17c-0.05,0.04-0.09,0.1-0.09,0.16c0,0.08,0.05,0.15,0.13,0.19
		C2.42,5.3,2.4,5.34,2.4,5.38c0,0.05,0.02,0.1,0.06,0.13C2.4,5.53,2.37,5.54,2.36,5.54C2.34,5.55,2.33,5.57,2.32,5.58
		c-0.01,0.02,0,0.04,0.01,0.06c0.01,0.01,0.61,0.9,0.81,1.79c0,0.02,0.02,0.04,0.04,0.04C3.33,7.66,4.66,7.8,6.28,7.8
		c1.62,0,2.95-0.14,3.1-0.33C9.4,7.46,9.42,7.45,9.43,7.43c0.2-0.88,0.8-1.78,0.81-1.79C10.25,5.62,10.25,5.6,10.24,5.58L10.24,5.58
		z M10.24,5.58"/>
	<path class="st1" d="M10.24,5.58c-0.01-0.02-0.02-0.03-0.04-0.04c0,0-0.05-0.02-0.11-0.03c0.03-0.04,0.05-0.08,0.05-0.13
		c0-0.04-0.02-0.08-0.04-0.11c0.08-0.04,0.13-0.11,0.13-0.19c0-0.07-0.03-0.12-0.09-0.16c0.06-0.04,0.1-0.1,0.1-0.17
		c0-0.08-0.05-0.15-0.13-0.19c0.04-0.04,0.06-0.09,0.06-0.14c0-0.1-0.07-0.18-0.17-0.21c0.02-0.03,0.04-0.07,0.04-0.11
		c0-0.12-0.11-0.22-0.24-0.22c0.01-0.02,0.01-0.04,0.01-0.06c0-0.12-0.11-0.22-0.25-0.22c-0.02,0-0.04,0.01-0.07,0.01
		c0,0,0-0.01,0-0.01c0-0.12-0.11-0.22-0.25-0.22c-0.05,0-0.09,0.01-0.13,0.04C9.1,3.32,9.01,3.25,8.9,3.25
		c-0.07,0-0.13,0.02-0.18,0.06C8.68,3.24,8.6,3.2,8.5,3.2c-0.09,0-0.16,0.04-0.2,0.1C8.26,3.25,8.19,3.23,8.12,3.23
		c-0.09,0-0.17,0.05-0.21,0.11C7.86,3.29,7.8,3.26,7.72,3.26c-0.09,0-0.17,0.05-0.21,0.11C7.47,3.34,7.42,3.32,7.36,3.32
		c-0.1,0-0.19,0.06-0.23,0.14C7.09,3.43,7.03,3.4,6.96,3.4c-0.1,0-0.17,0.05-0.22,0.12C6.72,3.51,6.7,3.5,6.68,3.5
		c0.05-0.07,0.08-0.15,0.08-0.24c0-0.17-0.12-0.32-0.28-0.39l0.07-0.12c0.01-0.02,0.01-0.04,0-0.06L6.47,2.53
		c0.01,0,0.01-0.01,0.02-0.02l0.17,0.07c0.01,0,0.02,0.01,0.03,0.01c0.01,0,0.02,0,0.03-0.01l0.41-0.18
		C7.16,2.4,7.18,2.38,7.18,2.35c0-0.03-0.02-0.05-0.04-0.06L6.72,2.11C6.7,2.1,6.68,2.1,6.66,2.11L6.49,2.18
		C6.48,2.18,6.48,2.17,6.47,2.17l0.08-0.15c0.01-0.02,0.01-0.04,0-0.06L6.35,1.6c-0.03-0.05-0.11-0.05-0.14,0l-0.2,0.36
		C6,1.98,6,2,6.01,2.02l0.08,0.15c-0.01,0-0.01,0.01-0.02,0.02L5.91,2.11c-0.02-0.01-0.05-0.01-0.07,0L5.43,2.29
		C5.4,2.3,5.39,2.33,5.39,2.35c0,0.03,0.02,0.05,0.04,0.06l0.41,0.18c0.01,0,0.02,0.01,0.03,0.01c0.01,0,0.02,0,0.03-0.01l0.17-0.07
		c0.01,0.01,0.01,0.01,0.02,0.02L6.01,2.68C6,2.7,6,2.72,6.01,2.74l0.07,0.12C5.91,2.93,5.79,3.08,5.79,3.26
		c0,0.09,0.03,0.17,0.08,0.24C5.84,3.5,5.82,3.5,5.79,3.52C5.75,3.45,5.67,3.4,5.58,3.4c-0.07,0-0.13,0.02-0.17,0.06
		C5.37,3.38,5.28,3.32,5.17,3.32c-0.06,0-0.11,0.02-0.15,0.05C4.98,3.31,4.9,3.26,4.81,3.26c-0.07,0-0.14,0.03-0.18,0.07
		C4.58,3.27,4.51,3.23,4.41,3.23c-0.07,0-0.13,0.03-0.18,0.07c-0.04-0.06-0.12-0.1-0.2-0.1c-0.09,0-0.17,0.05-0.22,0.12
		C3.77,3.27,3.71,3.25,3.64,3.25c-0.11,0-0.21,0.07-0.24,0.16C3.36,3.39,3.32,3.38,3.28,3.38c-0.14,0-0.25,0.1-0.25,0.22
		c0,0,0,0.01,0,0.01C3.01,3.61,2.99,3.6,2.96,3.6c-0.14,0-0.25,0.1-0.25,0.22c0,0.02,0.01,0.04,0.01,0.06
		c-0.13,0-0.24,0.1-0.24,0.22c0,0.04,0.02,0.08,0.04,0.11c-0.1,0.03-0.17,0.11-0.17,0.21c0,0.06,0.03,0.11,0.06,0.14
		C2.34,4.59,2.29,4.66,2.29,4.74c0,0.07,0.04,0.13,0.1,0.17c-0.05,0.04-0.09,0.1-0.09,0.16c0,0.08,0.05,0.15,0.13,0.19
		C2.42,5.3,2.4,5.34,2.4,5.38c0,0.05,0.02,0.1,0.06,0.13C2.4,5.53,2.37,5.54,2.36,5.54C2.34,5.55,2.33,5.57,2.32,5.58
		c-0.01,0.02,0,0.04,0.01,0.06c0.01,0.01,0.61,0.9,0.81,1.79c0,0.02,0.02,0.04,0.04,0.04C3.33,7.66,4.66,7.8,6.28,7.8
		c1.62,0,2.95-0.14,3.1-0.33C9.4,7.46,9.42,7.45,9.43,7.43c0.2-0.88,0.8-1.78,0.81-1.79C10.25,5.62,10.25,5.6,10.24,5.58L10.24,5.58
		z M8.07,5.15V4.09c0.1-0.01,0.19-0.01,0.28-0.01v1.1C8.27,5.15,8.18,5.13,8.07,5.15L8.07,5.15z M7.19,3.7
		C7.19,3.7,7.19,3.7,7.19,3.7C7.19,3.71,7.19,3.71,7.19,3.7C7.19,3.71,7.19,3.7,7.19,3.7L7.19,3.7z M9.89,5.3
		c0.05,0,0.1,0.04,0.1,0.08c0,0.05-0.04,0.08-0.1,0.08c-0.05,0-0.1-0.04-0.1-0.08C9.79,5.34,9.83,5.3,9.89,5.3L9.89,5.3z M9.98,5.16
		c-0.05,0-0.1-0.04-0.1-0.08C9.88,5.03,9.92,5,9.98,5c0.05,0,0.1,0.04,0.1,0.08C10.07,5.13,10.03,5.16,9.98,5.16L9.98,5.16z
		 M9.9,4.74c0-0.05,0.04-0.08,0.1-0.08c0.05,0,0.1,0.04,0.1,0.08c0,0.05-0.04,0.08-0.1,0.08C9.94,4.83,9.9,4.79,9.9,4.74L9.9,4.74z
		 M7.05,5.58C6.95,5.28,6.84,4.81,6.79,4.35c0.05-0.02,0.14-0.04,0.26-0.07V5.58z M5.77,4.35C5.71,4.85,5.58,5.34,5.49,5.65V4.27
		C5.62,4.31,5.72,4.34,5.77,4.35L5.77,4.35z M6.38,3.8c0,0.05-0.04,0.08-0.1,0.08c-0.05,0-0.1-0.04-0.1-0.08
		c0-0.05,0.04-0.08,0.1-0.08C6.33,3.71,6.38,3.75,6.38,3.8L6.38,3.8z M5.34,3.7L5.34,3.7C5.34,3.7,5.34,3.7,5.34,3.7
		C5.34,3.7,5.34,3.7,5.34,3.7L5.34,3.7z M2.54,4.66c0.05,0,0.1,0.04,0.1,0.08c0,0.05-0.04,0.08-0.1,0.08c-0.05,0-0.1-0.04-0.1-0.08
		C2.44,4.7,2.49,4.66,2.54,4.66L2.54,4.66z M2.65,5.08c0,0.05-0.04,0.08-0.1,0.08c-0.05,0-0.1-0.04-0.1-0.08
		C2.46,5.03,2.51,5,2.56,5C2.61,5,2.65,5.03,2.65,5.08L2.65,5.08z M2.65,5.3c0.05,0,0.1,0.04,0.1,0.08c0,0.05-0.04,0.08-0.1,0.08
		c-0.05,0-0.1-0.04-0.1-0.08C2.55,5.34,2.6,5.3,2.65,5.3L2.65,5.3z M3.04,4.16c0.15-0.21,0.44-0.47,0.99-0.47
		c0.53,0,1.28,0.14,1.76,0.25c0,0.09,0,0.19-0.01,0.28c-0.33-0.1-1.63-0.47-2.19-0.13C2.97,4.46,3.17,5.19,3.28,5.49
		c-0.1-0.02-0.2-0.03-0.3-0.04C2.76,5.05,2.78,4.53,3.04,4.16L3.04,4.16z M3.47,5.55c-0.05-0.11-0.4-0.88,0.11-1.29v1.35
		C3.55,5.59,3.51,5.57,3.47,5.55L3.47,5.55z M3.74,4.16C3.82,4.13,3.92,4.1,4.02,4.09V5.3C3.87,5.44,3.8,5.62,3.77,5.77
		C3.76,5.76,3.75,5.75,3.74,5.74L3.74,4.16L3.74,4.16z M4.18,4.08c0.09,0,0.19,0,0.28,0.01v1.06c-0.02,0-0.03-0.01-0.05-0.01
		c-0.08,0-0.15,0.01-0.21,0.04c-0.01,0-0.01,0.01-0.02,0.01L4.18,4.08L4.18,4.08z M4.61,4.1c0.1,0.01,0.19,0.03,0.28,0.04V5.3
		C4.8,5.24,4.71,5.2,4.61,5.18V4.1z M5.05,4.17c0.1,0.02,0.2,0.04,0.28,0.06v1.44C5.25,5.58,5.15,5.49,5.05,5.41V4.17z M5.94,3.97
		C6.06,3.99,6.15,4.02,6.2,4.03v1.15C6,5.2,5.84,5.29,5.72,5.41C5.82,5.01,5.94,4.47,5.94,3.97L5.94,3.97z M6.36,4.03
		C6.41,4.02,6.5,4,6.61,3.97C6.61,4.46,6.73,5,6.83,5.4C6.71,5.29,6.56,5.2,6.36,5.18V4.03z M7.2,4.24
		c0.09-0.02,0.18-0.04,0.28-0.06v1.25c0,0,0,0.01,0,0.01C7.38,5.51,7.28,5.61,7.2,5.7V4.24z M7.64,4.14
		C7.73,4.13,7.82,4.11,7.92,4.1v1.08C7.83,5.21,7.73,5.26,7.64,5.32V4.14z M8.51,4.09c0.11,0.01,0.2,0.04,0.28,0.07v1.59
		c0,0,0,0.01,0,0.01c0,0,0,0,0,0C8.76,5.62,8.68,5.41,8.51,5.28V4.09z M8.95,4.26c0.55,0.44,0.11,1.3,0.11,1.31c0,0,0,0,0,0
		C9.02,5.59,8.98,5.61,8.95,5.63V4.26z M8.94,4.08C8.4,3.75,7.13,4.1,6.77,4.21C6.77,4.12,6.76,4.03,6.76,3.94
		C7.24,3.83,8,3.68,8.53,3.68c0.54,0,0.84,0.26,0.99,0.47C9.78,4.53,9.8,5.05,9.58,5.45c-0.11,0-0.22,0.02-0.33,0.04
		C9.36,5.2,9.57,4.46,8.94,4.08L8.94,4.08z M9.93,4.5c-0.05,0-0.1-0.04-0.1-0.08s0.04-0.08,0.1-0.08c0.05,0,0.1,0.04,0.1,0.08
		S9.99,4.5,9.93,4.5L9.93,4.5z M9.9,4.09c0,0.05-0.04,0.08-0.1,0.08c-0.05,0-0.1-0.04-0.1-0.08c0-0.05,0.04-0.08,0.1-0.08
		C9.85,4.01,9.9,4.05,9.9,4.09L9.9,4.09z M9.67,3.82c0,0.05-0.04,0.08-0.1,0.08c-0.05,0-0.1-0.04-0.1-0.08
		c0-0.05,0.04-0.08,0.1-0.08C9.62,3.74,9.67,3.77,9.67,3.82L9.67,3.82z M9.26,3.51c0.05,0,0.1,0.04,0.1,0.08
		c0,0.05-0.04,0.08-0.1,0.08c-0.05,0-0.1-0.04-0.1-0.08C9.16,3.55,9.21,3.51,9.26,3.51L9.26,3.51z M8.9,3.38
		c0.05,0,0.1,0.04,0.1,0.08c0,0.05-0.04,0.08-0.1,0.08c-0.05,0-0.1-0.04-0.1-0.08C8.8,3.42,8.84,3.38,8.9,3.38L8.9,3.38z M8.5,3.33
		c0.05,0,0.1,0.04,0.1,0.08c0,0.05-0.04,0.08-0.1,0.08c-0.05,0-0.1-0.04-0.1-0.08C8.41,3.37,8.45,3.33,8.5,3.33L8.5,3.33z
		 M8.12,3.36c0.05,0,0.1,0.04,0.1,0.08c0,0.05-0.04,0.08-0.1,0.08c-0.05,0-0.1-0.04-0.1-0.08C8.02,3.4,8.07,3.36,8.12,3.36
		L8.12,3.36z M7.72,3.4c0.05,0,0.1,0.04,0.1,0.08c0,0.05-0.04,0.08-0.1,0.08c-0.05,0-0.1-0.04-0.1-0.08C7.63,3.44,7.67,3.4,7.72,3.4
		L7.72,3.4z M7.36,3.46c0.05,0,0.1,0.04,0.1,0.08c0,0.05-0.04,0.08-0.1,0.08c-0.05,0-0.1-0.04-0.1-0.08
		C7.27,3.5,7.31,3.46,7.36,3.46L7.36,3.46z M6.96,3.54c0.05,0,0.1,0.04,0.1,0.08c0,0.05-0.04,0.08-0.1,0.08
		c-0.05,0-0.1-0.04-0.1-0.08C6.86,3.57,6.91,3.54,6.96,3.54L6.96,3.54z M6.61,3.79c-0.05,0-0.1-0.04-0.1-0.08
		c0-0.05,0.04-0.08,0.1-0.08c0.05,0,0.1,0.04,0.1,0.08C6.71,3.75,6.67,3.79,6.61,3.79L6.61,3.79z M6.15,2.35
		c0-0.06,0.06-0.11,0.13-0.11c0.07,0,0.13,0.05,0.13,0.11c0,0.06-0.06,0.11-0.13,0.11C6.21,2.46,6.15,2.41,6.15,2.35L6.15,2.35z
		 M6.69,2.25l0.24,0.11L6.69,2.46L6.56,2.4c0-0.02,0.01-0.03,0.01-0.05c0-0.02,0-0.03-0.01-0.05L6.69,2.25z M6.16,1.99l0.12-0.21
		L6.4,1.99L6.33,2.11c-0.02,0-0.03,0-0.05,0c-0.02,0-0.04,0-0.05,0L6.16,1.99z M5.87,2.46L5.63,2.35l0.24-0.11L6,2.3
		C6,2.32,6,2.34,6,2.35C6,2.37,6,2.38,6,2.4L5.87,2.46z M6.16,2.71L6.23,2.6c0.02,0,0.03,0,0.05,0c0.02,0,0.04,0,0.05,0L6.4,2.71
		L6.33,2.83c-0.02,0-0.03,0-0.05,0c-0.02,0-0.03,0-0.05,0L6.16,2.71z M6.28,2.96c0.18,0,0.33,0.13,0.33,0.29
		c0,0.16-0.15,0.29-0.33,0.29c-0.18,0-0.33-0.13-0.33-0.29C5.95,3.09,6.1,2.96,6.28,2.96L6.28,2.96z M5.92,3.62
		c0.05,0,0.1,0.04,0.1,0.08c0,0.05-0.04,0.08-0.1,0.08c-0.05,0-0.1-0.04-0.1-0.08C5.83,3.66,5.87,3.62,5.92,3.62L5.92,3.62z
		 M5.58,3.54c0.05,0,0.1,0.04,0.1,0.08c0,0.05-0.04,0.08-0.1,0.08c-0.05,0-0.1-0.04-0.1-0.08C5.48,3.57,5.52,3.54,5.58,3.54
		L5.58,3.54z M5.17,3.46c0.05,0,0.1,0.04,0.1,0.08c0,0.05-0.04,0.08-0.1,0.08c-0.05,0-0.1-0.04-0.1-0.08
		C5.08,3.5,5.12,3.46,5.17,3.46L5.17,3.46z M4.81,3.4c0.05,0,0.1,0.04,0.1,0.08c0,0.05-0.04,0.08-0.1,0.08
		c-0.05,0-0.1-0.04-0.1-0.08C4.71,3.44,4.76,3.4,4.81,3.4L4.81,3.4z M4.41,3.36c0.05,0,0.1,0.04,0.1,0.08c0,0.05-0.04,0.08-0.1,0.08
		c-0.05,0-0.1-0.04-0.1-0.08C4.32,3.4,4.36,3.36,4.41,3.36L4.41,3.36z M4.03,3.33c0.05,0,0.1,0.04,0.1,0.08
		c0,0.05-0.04,0.08-0.1,0.08c-0.05,0-0.1-0.04-0.1-0.08C3.93,3.37,3.98,3.33,4.03,3.33L4.03,3.33z M3.64,3.38
		c0.05,0,0.1,0.04,0.1,0.08c0,0.05-0.04,0.08-0.1,0.08c-0.05,0-0.1-0.04-0.1-0.08C3.54,3.42,3.59,3.38,3.64,3.38L3.64,3.38z
		 M3.28,3.51c0.05,0,0.1,0.04,0.1,0.08c0,0.05-0.04,0.08-0.1,0.08s-0.1-0.04-0.1-0.08C3.18,3.55,3.22,3.51,3.28,3.51L3.28,3.51z
		 M2.96,3.74c0.05,0,0.1,0.04,0.1,0.08c0,0.05-0.04,0.08-0.1,0.08c-0.05,0-0.1-0.04-0.1-0.08C2.87,3.77,2.91,3.74,2.96,3.74
		L2.96,3.74z M2.73,4.01c0.05,0,0.1,0.04,0.1,0.08c0,0.05-0.04,0.08-0.1,0.08c-0.05,0-0.1-0.04-0.1-0.08
		C2.64,4.05,2.68,4.01,2.73,4.01L2.73,4.01z M2.6,4.33c0.05,0,0.1,0.04,0.1,0.08S2.65,4.5,2.6,4.5s-0.1-0.04-0.1-0.08
		C2.51,4.37,2.55,4.33,2.6,4.33L2.6,4.33z M9.29,7.34C8.94,7.19,7.72,7.07,6.28,7.07c-1.44,0-2.65,0.11-3.01,0.27
		C3.09,6.6,2.65,5.87,2.51,5.64C2.75,5.58,3.44,5.45,3.76,6c0.02,0.03,0.05,0.04,0.09,0.04C3.88,6.03,3.9,6,3.9,5.97
		c0-0.01,0-0.5,0.37-0.66C4.63,5.15,5.21,5.67,5.39,6l0,0C5.4,6.01,5.41,6.02,5.42,6.02c0,0,0,0,0.01,0c0,0,0.01,0,0.01,0
		c0.01,0,0.02,0,0.02,0c0,0,0,0,0,0c0,0,0,0,0,0c0.01,0,0.01-0.01,0.02-0.01c0.01,0,0.01,0,0.02-0.01c0.01,0,0.01-0.01,0.02-0.02
		c0,0,0.01-0.01,0.01-0.01c0-0.01,0.01-0.03,0.03-0.07c0.07-0.17,0.28-0.6,0.72-0.6c0.37,0,0.58,0.31,0.68,0.51
		c0.03,0.1,0.05,0.16,0.06,0.17c0.01,0.03,0.04,0.05,0.07,0.05c0.01,0,0.02,0,0.02,0c0,0,0,0,0,0c0.02,0,0.04-0.01,0.05-0.03
		C7.35,5.67,7.94,5.15,8.29,5.3c0.02,0.01,0.05,0.02,0.07,0.04C8.38,5.36,8.4,5.37,8.42,5.38c0.24,0.2,0.24,0.58,0.24,0.58
		c0,0.03,0.02,0.06,0.06,0.07C8.75,6.04,8.79,6.03,8.81,6c0.31-0.55,1.01-0.42,1.25-0.35C9.91,5.87,9.47,6.6,9.29,7.34L9.29,7.34z
		 M9.29,7.34"/>
	<path class="st1" d="M6.58,5.85C6.57,5.86,6.56,5.87,6.55,5.88c-0.07,0.06-0.2,0.01-0.2-0.08V5.79c0-0.04-0.03-0.07-0.08-0.07
		c-0.04,0-0.08,0.03-0.08,0.07V5.8c0,0.09-0.12,0.14-0.2,0.08C6,5.87,5.99,5.86,5.98,5.85C5.95,5.83,5.9,5.83,5.87,5.86
		c-0.03,0.03-0.02,0.07,0.01,0.1C6.09,6.11,6.2,6.47,6.2,6.62v0.07c0,0.04,0.03,0.07,0.08,0.07c0.04,0,0.08-0.03,0.08-0.07V6.62
		c0-0.14,0.11-0.51,0.32-0.66c0.03-0.02,0.04-0.07,0.01-0.1C6.66,5.83,6.62,5.83,6.58,5.85L6.58,5.85z M6.58,5.85"/>
	<path class="st1" d="M8.32,6.14c-0.01,0-0.02,0-0.03,0c-0.07,0-0.14-0.09-0.11-0.16c0,0,0-0.01,0-0.01c0.01-0.03,0-0.07-0.02-0.1
		c-0.03-0.03-0.06-0.03-0.07,0c0,0,0,0.01-0.01,0.01C8.06,5.96,7.95,5.94,7.93,5.83c0-0.01,0-0.03-0.01-0.04
		C7.92,5.74,7.89,5.71,7.86,5.73C7.83,5.74,7.81,5.79,7.81,5.83c0.04,0.3-0.01,0.62-0.06,0.74C7.74,6.59,7.73,6.61,7.72,6.64
		c-0.02,0.03,0,0.06,0.05,0.05c0.04,0,0.09-0.03,0.1-0.05C7.87,6.62,7.88,6.6,7.89,6.58c0.05-0.11,0.29-0.36,0.47-0.34
		c0.03,0,0.04-0.02,0.03-0.04C8.39,6.17,8.35,6.14,8.32,6.14L8.32,6.14z M8.32,6.14"/>
	<path class="st1" d="M9.46,6.35c-0.01,0-0.01,0-0.02,0C9.38,6.36,9.33,6.28,9.36,6.21c0,0,0-0.01,0-0.01
		c0.01-0.03,0.01-0.07-0.01-0.1C9.34,6.08,9.31,6.08,9.29,6.11c0,0,0,0.01-0.01,0.01C9.25,6.19,9.17,6.18,9.16,6.08
		c0-0.01,0-0.03,0-0.04c0-0.04-0.02-0.07-0.05-0.06C9.08,5.99,9.06,6.04,9.06,6.09c0.01,0.29-0.06,0.6-0.11,0.72
		C8.94,6.83,8.93,6.85,8.92,6.87c-0.02,0.03,0,0.05,0.03,0.05c0.03-0.01,0.07-0.03,0.09-0.06c0.01-0.02,0.02-0.04,0.03-0.05
		c0.06-0.11,0.27-0.36,0.42-0.36c0.03,0,0.04-0.02,0.03-0.04C9.51,6.37,9.49,6.35,9.46,6.35L9.46,6.35z M9.46,6.35"/>
	<path class="st1" d="M4.81,6.57C4.75,6.46,4.7,6.14,4.75,5.83c0.01-0.05-0.01-0.1-0.04-0.11C4.67,5.71,4.64,5.74,4.63,5.79
		c0,0.01,0,0.03-0.01,0.04C4.61,5.94,4.51,5.96,4.47,5.89c0,0,0-0.01-0.01-0.01c-0.02-0.03-0.05-0.03-0.07,0
		C4.36,5.9,4.35,5.95,4.37,5.97c0,0,0,0.01,0,0.01c0.04,0.07-0.04,0.16-0.11,0.16c-0.01,0-0.02,0-0.03,0
		c-0.03,0-0.06,0.03-0.07,0.05c-0.01,0.03,0,0.04,0.03,0.04c0.19-0.01,0.42,0.23,0.48,0.34C4.68,6.6,4.69,6.62,4.7,6.63
		c0.01,0.03,0.06,0.05,0.1,0.05c0.04,0,0.06-0.02,0.05-0.05C4.83,6.61,4.82,6.59,4.81,6.57L4.81,6.57z M4.81,6.57"/>
	<path class="st1" d="M3.61,6.81C3.56,6.69,3.49,6.38,3.5,6.09c0-0.04-0.02-0.09-0.05-0.11C3.43,5.97,3.4,5.99,3.4,6.04
		c0,0.01,0,0.03,0,0.04c0,0.1-0.09,0.12-0.13,0.04c0,0,0-0.01-0.01-0.01C3.25,6.08,3.22,6.08,3.2,6.1C3.19,6.13,3.18,6.17,3.19,6.2
		c0,0,0,0.01,0,0.01c0.03,0.07-0.02,0.15-0.08,0.14c-0.01,0-0.02,0-0.02,0c-0.02,0-0.05,0.02-0.06,0.05c-0.01,0.02,0,0.04,0.03,0.04
		c0.16,0,0.37,0.25,0.42,0.36C3.5,6.82,3.51,6.84,3.52,6.86c0.01,0.03,0.05,0.05,0.09,0.06C3.64,6.92,3.66,6.9,3.64,6.87
		C3.63,6.85,3.62,6.83,3.61,6.81L3.61,6.81z M3.61,6.81"/>
</g>
</svg>
