<?xml version="1.0" encoding="utf-8"?>
<!-- Generator: Adobe Illustrator 25.0.0, SVG Export Plug-In . SVG Version: 6.00 Build 0)  -->
<svg version="1.1" id="Capa_1" xmlns="http://www.w3.org/2000/svg" xmlns:xlink="http://www.w3.org/1999/xlink" x="0px" y="0px"
	 viewBox="0 0 32 18.62" style="enable-background:new 0 0 32 18.62;" xml:space="preserve">
<style type="text/css">
	.st0{fill:#FF4B55;}
	.st1{fill:#464655;}
	.st2{fill:#73AF00;}
	.st3{fill:#F5F5F5;}
	.st4{fill:#41479B;}
	.st5{fill:#FFF5DC;}
	.st6{fill:#D27D69;}
	.st7{fill:#FFE15A;}
	.st8{fill:#B95546;}
	.st9{fill:#DCBE82;}
	.st10{fill:#D2AA73;}
	.st11{fill:#4173CD;}
	.st12{fill:#82AFFF;}
	.st13{fill:#F09146;}
	.st14{fill:#FFB400;}
	.st15{fill:#965032;}
	.st16{fill:#BE7855;}
	.st17{fill:#FFBE3C;}
	.st18{fill:#EAF3F5;}
	.st19{fill:#8C5A28;}
	.st20{fill:#F0C850;}
	.st21{fill:#FF6E55;}
	.st22{fill:#FFBE5A;}
	.st23{fill:#3CC8FF;}
	.st24{fill:#825546;}
	.st25{fill:#FFD255;}
	.st26{fill:#FFD25A;}
	.st27{fill:#509664;}
	.st28{fill:#F0AA00;}
	.st29{fill:#A561CD;}
	.st30{fill:#B34900;}
	.st31{fill:#64B496;}
	.st32{fill:#FF6B71;}
	.st33{fill:#5F64B9;}
	.st34{fill:#F5F0F0;}
	.st35{fill:#5A4646;}
	.st36{fill:#E6E1CD;}
	.st37{fill:#FFD0AF;}
	.st38{fill:#FFAF94;}
	.st39{fill:#8CB400;}
	.st40{fill:#69C3FF;}
	.st41{fill:#009B64;}
	.st42{fill:#5AA0E6;}
	.st43{fill:#FFC88C;}
	.st44{fill:#E1E1E1;}
	.st45{fill:#966446;}
	.st46{fill:#BE915A;}
	.st47{fill:#B9B9B9;}
	.st48{fill:#F0C727;}
	.st49{fill:#50AF69;}
	.st50{fill:#FFE6E6;}
	.st51{fill:#FFB750;}
	.st52{fill:#FFC455;}
	.st53{fill:#FFCD55;}
	.st54{fill:#9BC800;}
	.st55{fill:#FFE14E;}
	.st56{fill:#FFB14E;}
	.st57{fill:#B46446;}
	.st58{fill:#5FA000;}
	.st59{fill:#F2DD30;}
	.st60{fill:#FFC855;}
	.st61{fill:#A0A0A0;}
	.st62{fill:#69B469;}
	.st63{fill:#F4E08F;}
	.st64{fill:#ECD077;}
	.st65{fill:#FCF0A8;}
	.st66{fill:#FAB446;}
	.st67{fill:#C8414B;}
	.st68{fill:#FF9B46;}
	.st69{fill:#FF9B55;}
	.st70{fill:#82C3D2;}
	.st71{fill:#5AA587;}
	.st72{fill:#CDCDCD;}
	.st73{fill:#B4A08C;}
	.st74{fill:#FFD250;}
	.st75{fill:#00C3A0;}
	.st76{fill:#00AADC;}
	.st77{fill:#732D37;}
	.st78{fill:#AAD264;}
	.st79{fill:#874150;}
	.st80{fill:#783C46;}
	.st81{fill:#FFB478;}
	.st82{fill:#9B4B5A;}
	.st83{fill:#FFCD5A;}
	.st84{fill:#FFAA5A;}
	.st85{fill:#FF875A;}
	.st86{fill:#E6B432;}
	.st87{fill:#C86464;}
	.st88{fill:#FFF5E1;}
	.st89{fill:#963C3C;}
	.st90{fill:#5A8250;}
	.st91{fill:#AFEBFF;}
	.st92{fill:#557DE6;}
	.st93{fill:#D23741;}
	.st94{fill:#64C86E;}
	.st95{fill:#873250;}
	.st96{fill:#41AA5A;}
	.st97{fill:#8CD7FF;}
	.st98{fill:#6EC86E;}
	.st99{fill:#FFF0E1;}
	.st100{fill:#FFC75A;}
	.st101{fill:#FFD350;}
	.st102{fill:#FFBE50;}
	.st103{fill:#A54B50;}
	.st104{fill:#C87878;}
	.st105{fill:#FF1722;}
	.st106{fill:#FFB441;}
	.st107{fill:#5064AA;}
	.st108{fill:#FFA0D2;}
	.st109{fill:#FF7350;}
	.st110{fill:#245DBD;}
	.st111{fill:#D35A10;}
	.st112{fill:#FFA033;}
	.st113{fill:#FF9480;}
	.st114{fill:#FFA0E4;}
	.st115{fill:#696E7D;}
	.st116{fill:#FFFCFF;}
	.st117{fill:#EBEBEB;}
	.st118{fill:#FF4B57;}
	.st119{fill:#D2D2D2;}
	.st120{fill:#F0C814;}
	.st121{fill:#F7B518;}
	.st122{fill:#2C2F38;}
	.st123{fill:#4C8056;}
	.st124{fill:#F0C419;}
	.st125{fill:#C03A2B;}
	.st126{fill:#EA3F3F;}
	.st127{fill:#E4E3E1;}
	.st128{fill:#2472B2;}
</style>
<g>
	<path class="st74" d="M31.42,0.04H0.55C0.25,0.04,0,0.26,0,0.53v17.53c0,0.27,0.25,0.49,0.55,0.49h30.87c0.3,0,0.55-0.22,0.55-0.49
		V0.53C31.97,0.26,31.72,0.04,31.42,0.04L31.42,0.04z M31.42,0.04"/>
	<path class="st89" d="M11.58,1.99V16.6c0,0.27,0.25,0.49,0.55,0.49h17.64c0.3,0,0.55-0.22,0.55-0.49V1.99
		c0-0.27-0.25-0.49-0.55-0.49H12.13C11.82,1.51,11.58,1.72,11.58,1.99L11.58,1.99z M11.58,1.99"/>
	<path class="st71" d="M5.79,1.51H2.2c-0.3,0-0.55,0.22-0.55,0.49V16.6c0,0.27,0.25,0.49,0.55,0.49h3.58V1.51z M5.79,1.51"/>
	<path class="st109" d="M9.37,1.51H5.79v15.59h3.58c0.3,0,0.55-0.22,0.55-0.49V1.99C9.92,1.72,9.67,1.51,9.37,1.51L9.37,1.51z
		 M9.37,1.51"/>
	<path class="st74" d="M24.57,13.2c-0.02-0.11,0.09-0.25,0.26-0.45c0.06-0.07,0.15-0.18,0.17-0.23c-0.02,0-0.04,0-0.05,0
		c-0.09,0-0.23,0.01-0.36-0.11c-0.05-0.05-0.07-0.11-0.07-0.17c0.01-0.13,0.13-0.26,0.21-0.33c-0.19-0.12-0.38-0.24-0.55-0.4
		c-0.33-0.29-0.7-0.43-1.11-0.42c-0.04,0.36,0.17,0.6,0.4,0.85c0.07,0.07,0.13,0.15,0.19,0.22c0.3,0.38,0.23,1.11,0.2,1.18
		c-0.04,0.09-0.28,0.28-0.6,0.24c-0.15-0.02-0.32,0.03-0.42,0.11c-0.05,0.04-0.1,0.09-0.1,0.17c0,0,0,0.02,0.01,0.03
		c0.04,0.02,0.2-0.02,0.32-0.08c0.03-0.02,0.07-0.01,0.1,0.01c0.23,0.19,0.45,0.03,0.48,0.01c0.03-0.02,0.08-0.02,0.11,0
		c0.23,0.16,0.47-0.02,0.48-0.02c0.03-0.02,0.07-0.02,0.1-0.01c0.1,0.06,0.19,0.07,0.27,0.05c0.07-0.02,0.11-0.07,0.11-0.08
		c0-0.03-0.04-0.19-0.07-0.29C24.62,13.39,24.59,13.27,24.57,13.2L24.57,13.2z M24.57,13.2"/>
	<path class="st74" d="M27.08,6.3c-0.07,0-0.12,0.01-0.15,0.04c-0.06,0.06-0.06,0.16-0.06,0.16c0,0.02-0.01,0.04-0.03,0.06
		c-0.02,0.02-0.04,0.02-0.07,0.02c-0.13-0.01-0.31-0.13-0.65-0.35c-0.55-0.35-1.37-0.89-2.16-0.98c-0.92-0.1-1.73,0.16-1.94,0.61
		c-0.23,0.51,0.26,0.97,0.26,0.98c0.02,0.02,0.03,0.06,0.01,0.09c-0.13,0.22-0.03,0.37,0.06,0.46c0.03-0.07,0.07-0.12,0.13-0.15
		c0.14-0.07,0.32-0.01,0.57,0.07c0.15,0.05,0.31,0.1,0.51,0.15c0.5,0.11,1.1,0.01,1.64-0.07c0.19-0.03,0.37-0.06,0.54-0.08
		c0.43-0.05,0.85,0.12,0.97,0.38c0.06,0.13,0.09,0.38-0.35,0.66c-0.78,0.5-4.36,0.27-4.57,0.26c0,0-0.01,0-0.02,0
		c0.08,0.08,0.17,0.15,0.21,0.16c0.04,0.01,0.07,0.04,0.06,0.08C22.03,8.88,22,8.91,21.95,8.91l-0.37,0l0.03,0.31
		c0,0.02-0.01,0.05-0.03,0.06c-0.02,0.02-0.05,0.02-0.07,0.02c-0.01,0-0.33-0.05-0.55-0.15l-0.41,0.23
		c-0.01,0.01-0.03,0.01-0.05,0.01c-0.01,0-0.02,0-0.03,0c-0.02-0.01-0.04-0.02-0.05-0.04l-0.16-0.38L20.09,9.3
		c-0.01,0.02-0.04,0.04-0.07,0.04c-0.03,0-0.06-0.01-0.08-0.04l-0.16-0.23c-0.07,0.08-0.19,0.2-0.31,0.27
		c-0.02,0.01-0.05,0.02-0.08,0.01c-0.03-0.01-0.05-0.03-0.05-0.05l-0.08-0.23c-0.07,0.08-0.18,0.19-0.3,0.28
		c-0.02,0.02-0.06,0.02-0.09,0.01c-0.03-0.01-0.05-0.04-0.05-0.06L18.8,8.92c-0.1,0.04-0.23,0.1-0.3,0.12
		c-0.03,0.01-0.07,0-0.09-0.02c-0.02-0.02-0.02-0.06-0.01-0.08c0.13-0.2,0.25-0.45,0.26-0.57c-0.09,0.09-0.21,0.18-0.34,0.28
		c-0.29,0.21-0.65,0.46-0.91,0.91c-0.18,0.31-0.32,0.86-0.08,1.38c0.2,0.44,0.63,0.76,1.27,0.97c-0.02-0.08-0.04-0.16-0.04-0.24
		c-0.01-0.39,0.08-0.74,0.09-0.76c0.01-0.04,0.06-0.07,0.1-0.06c0.05,0.01,0.07,0.05,0.06,0.09c0,0-0.09,0.35-0.08,0.72
		c0,0.18,0.09,0.4,0.18,0.62c0.11,0.29,0.23,0.58,0.18,0.83c-0.07,0.34-0.55,0.42-0.99,0.36c-0.13-0.02-0.24,0.01-0.32,0.08
		c-0.08,0.07-0.13,0.17-0.11,0.28c0.01,0.05,0.03,0.06,0.03,0.06c0.05,0.03,0.18-0.01,0.25-0.04c0.03-0.02,0.08-0.01,0.1,0.02
		c0.18,0.18,0.42,0,0.43-0.01c0.03-0.03,0.09-0.02,0.12,0.01c0.07,0.06,0.14,0.09,0.22,0.1c0.14,0.01,0.28-0.11,0.28-0.11
		c0.02-0.02,0.06-0.03,0.09-0.01c0.28,0.11,0.42,0.05,0.43,0.04c0.24-0.18,0.1-0.61,0.1-0.62c-0.01-0.02,0-0.04,0.01-0.06
		c0.01-0.02,0.03-0.03,0.05-0.04c0.34-0.07,0.53-0.26,0.62-0.39c-0.17,0-0.3-0.05-0.38-0.16c-0.13-0.17-0.07-0.44,0.15-0.67
		c0.38-0.4,0.61-1.2,0.57-1.53c0-0.04,0.03-0.08,0.08-0.08c0.05,0,0.09,0.03,0.09,0.07c0.03,0.29-0.12,0.88-0.38,1.33
		c0.34-0.08,0.65-0.2,0.97-0.33c0.32-0.13,0.65-0.26,1.05-0.37c0.67-0.19,1.27-0.06,1.77,0.38c0.24,0.21,0.51,0.37,0.81,0.55
		c0.13,0.08,0.27,0.16,0.42,0.25c0.39,0.25,0.39,0.46,0.38,0.68c0,0.07,0,0.14,0,0.21c0.04,0.36-0.28,0.42-0.44,0.44
		c-0.02,0-0.04,0.01-0.06,0.01c-0.02,0-0.05,0.01-0.08,0.01c-0.16,0.03-0.4,0.07-0.45,0.25c-0.01,0.03-0.01,0.04-0.01,0.04
		c0.02,0.01,0.15-0.02,0.26-0.06c0.02-0.01,0.05-0.01,0.07,0c0.02,0.01,0.04,0.02,0.05,0.04c0.03,0.08,0.08,0.09,0.09,0.1
		c0.11,0.03,0.28-0.06,0.33-0.09c0.03-0.02,0.08-0.02,0.11,0.01c0.09,0.07,0.17,0.1,0.24,0.09c0.1-0.01,0.16-0.09,0.16-0.09
		c0.01-0.02,0.04-0.03,0.06-0.03c0.03,0,0.05,0.01,0.07,0.02c0,0,0.07,0.07,0.23,0.11c0.1,0.03,0.12,0,0.13-0.01
		c0.04-0.05,0.03-0.19-0.06-0.28c-0.11-0.12-0.16-0.3-0.13-0.46c0.03-0.15,0.12-0.27,0.26-0.35c0.26-0.15,0.32-0.3,0.3-0.33
		c0,0-0.03-0.01-0.06-0.01c-0.12-0.01-0.31-0.04-0.51-0.36c-0.18-0.29-0.01-0.75,0.19-1.27c0.1-0.27,0.2-0.55,0.27-0.82
		c0.18-0.75-0.38-1.35-0.39-1.36c-0.03-0.03-0.03-0.08,0.01-0.1c0.39-0.32,0.56-0.62,0.5-0.89c-0.06-0.28-0.37-0.48-0.61-0.56
		c-0.3-0.1-0.86-0.04-1.4,0.01c-0.45,0.05-0.87,0.09-1.15,0.04c-0.14-0.03-0.24-0.09-0.31-0.18c-0.05-0.07-0.06-0.16-0.06-0.22
		c-0.14,0.05-0.23,0.16-0.23,0.16C23.3,6.99,23.28,7,23.25,7c-0.03,0-0.05-0.01-0.07-0.03c-0.07-0.08-0.1-0.17-0.08-0.26
		c0.02-0.12,0.11-0.22,0.18-0.29c-0.31-0.1-0.56,0.14-0.57,0.15C22.68,6.6,22.64,6.6,22.6,6.58c-0.15-0.08-0.25-0.24-0.24-0.41
		c0.01-0.16,0.1-0.29,0.25-0.36c0.11-0.05,0.21-0.06,0.3-0.03c0.09,0.03,0.15,0.09,0.19,0.14c0.11-0.12,0.12-0.32,0.12-0.32
		c0-0.02,0.01-0.04,0.03-0.05c0.02-0.01,0.04-0.02,0.06-0.02c0.2,0.01,0.36,0.07,0.46,0.19c0.15,0.16,0.16,0.39,0.15,0.53
		c0.32-0.14,0.28-0.48,0.28-0.49c0-0.03,0.01-0.05,0.03-0.07c0.02-0.02,0.05-0.02,0.08-0.01c0.34,0.11,0.46,0.37,0.49,0.57
		c0.1-0.08,0.1-0.19,0.1-0.19c0-0.03,0.03-0.06,0.06-0.07c0.04-0.01,0.08,0.01,0.1,0.04c0.13,0.21,0.33,0.34,0.48,0.42l-0.1-0.22
		c-0.01-0.03,0-0.06,0.02-0.08c0.03-0.02,0.07-0.03,0.1-0.01c0.17,0.08,0.3,0.17,0.44,0.27c0.17,0.12,0.34,0.23,0.59,0.34
		c0.24,0.1,0.4,0.08,0.5,0.05c0.1-0.03,0.15-0.1,0.17-0.14c0.03-0.08,0.04-0.19-0.01-0.27C27.22,6.33,27.16,6.31,27.08,6.3
		L27.08,6.3z M27.08,6.3"/>
	<path class="st74" d="M17.11,7.37C17.11,7.37,17.11,7.37,17.11,7.37C17.11,7.37,17.11,7.37,17.11,7.37c0.01,0,0.64,0.18,1.21,0.21
		c0.03,0,0.06,0.02,0.07,0.04c0.01,0.03,0.01,0.06-0.01,0.08l-0.02,0.02c0.11-0.02,0.26-0.03,0.4-0.03
		c-0.06-0.06-0.13-0.14-0.2-0.22c-0.15,0-0.71-0.02-1.17-0.22c-0.11-0.05-0.3-0.13-0.39-0.09c-0.02,0.01-0.04,0.04-0.04,0.08
		C16.96,7.31,17.01,7.35,17.11,7.37L17.11,7.37z M17.11,7.37"/>
	<path class="st74" d="M19.01,6.29c-0.01,0-0.02,0-0.02,0c-0.04,0.01-0.06,0.05-0.06,0.08c-0.01,0.04,0,0.09,0.05,0.11
		c0.06,0.04,0.13,0.01,0.17-0.02c0.01-0.01,0.07-0.07,0.03-0.13C19.11,6.31,19.05,6.29,19.01,6.29L19.01,6.29z M19.01,6.29"/>
	<path class="st74" d="M18.18,8.09c0.04,0.09,0.1,0.15,0.16,0.2c0.02-0.04,0.05-0.08,0.1-0.11c0.05-0.03,0.12-0.06,0.24-0.04
		c0,0,0,0,0.01,0c0,0,0.01,0,0.01,0c0,0,0,0,0.01,0c0,0,0.01,0,0.01,0c0,0,0,0,0.01,0.01c0.04,0.02,0.08,0.04,0.1,0.08
		c0.06,0.13-0.05,0.39-0.15,0.57c0.07-0.03,0.14-0.06,0.17-0.08c0.03-0.01,0.06-0.01,0.08,0c0.02,0.01,0.04,0.04,0.04,0.06
		l0.02,0.33c0.13-0.12,0.24-0.26,0.24-0.26c0.02-0.02,0.05-0.04,0.08-0.03c0.03,0,0.06,0.02,0.07,0.05l0.1,0.27
		c0.13-0.11,0.25-0.26,0.25-0.26c0.02-0.02,0.04-0.03,0.07-0.03c0.03,0,0.05,0.01,0.07,0.04l0.15,0.2l0.21-0.37
		c0.01-0.03,0.04-0.04,0.08-0.04c0.03,0,0.06,0.02,0.07,0.05l0.19,0.45L20.93,9c0.03-0.02,0.06-0.02,0.09,0
		c0.12,0.07,0.31,0.11,0.42,0.14l-0.03-0.29c0-0.02,0.01-0.04,0.02-0.06c0.02-0.02,0.04-0.02,0.06-0.02l0.21,0
		c-0.05-0.05-0.09-0.09-0.11-0.11c-0.01-0.01-0.02-0.03-0.02-0.05c-0.16-0.01-0.37-0.03-0.59-0.11l-0.13,0.18
		c-0.01,0.02-0.03,0.03-0.05,0.03c-0.01,0-0.01,0-0.02,0c-0.02,0-0.03,0-0.05-0.01l-0.49-0.29l-0.09,0.22
		c-0.01,0.02-0.03,0.04-0.06,0.05c-0.03,0.01-0.06,0-0.08-0.02c-0.08-0.08-0.22-0.22-0.29-0.29c-0.07,0.06-0.19,0.16-0.33,0.22
		c-0.02,0.01-0.05,0.01-0.07,0c-0.02-0.01-0.04-0.02-0.05-0.04l-0.13-0.32c-0.02-0.04,0.01-0.08,0.05-0.1
		c0.04-0.01,0.09,0.01,0.11,0.04l0.1,0.23c0.14-0.09,0.26-0.2,0.26-0.2c0.03-0.03,0.08-0.03,0.11-0.01
		c0.05,0.03,0.18,0.16,0.28,0.26l0.08-0.19c0.01-0.02,0.03-0.04,0.05-0.05c0.02-0.01,0.05,0,0.07,0.01l0.51,0.3l0.12-0.17
		c0.02-0.03,0.07-0.04,0.11-0.03c0.22,0.1,0.47,0.12,0.62,0.13c-0.09-0.16-0.1-0.35-0.1-0.4C21.38,8,21.23,7.93,21.07,7.81
		l-0.06,0.13C21,7.97,20.98,7.98,20.96,7.99c-0.02,0.01-0.05,0-0.07-0.01l-0.24-0.16l-0.02,0.16c0,0.03-0.02,0.05-0.05,0.06
		c-0.03,0.01-0.06,0.01-0.08,0c-0.01,0-0.21-0.11-0.33-0.23c-0.03-0.03-0.03-0.08,0.01-0.11c0.03-0.03,0.09-0.02,0.12,0.01
		c0.05,0.05,0.12,0.1,0.18,0.14l0.02-0.17c0-0.03,0.02-0.05,0.05-0.06c0.03-0.01,0.06-0.01,0.08,0.01l0.27,0.17l0.07-0.14
		c0.01-0.02,0.03-0.04,0.06-0.04c0.03-0.01,0.06,0,0.08,0.02c0.21,0.18,0.44,0.27,0.58,0.32c-0.05-0.2-0.07-0.45-0.07-0.46
		c0,0,0,0,0-0.01c-0.13-0.06-0.32-0.17-0.48-0.35c0,0.09-0.01,0.19-0.03,0.24c-0.01,0.02-0.03,0.04-0.05,0.04
		C21.02,7.43,21,7.43,20.97,7.42c-0.01-0.01-0.19-0.1-0.33-0.23c-0.02,0.08-0.05,0.15-0.08,0.19C20.55,7.4,20.5,7.42,20.46,7.4
		c-0.01,0-0.14-0.06-0.25-0.15c-0.01,0.1-0.03,0.21-0.05,0.27c-0.01,0.02-0.03,0.04-0.05,0.04c-0.02,0.01-0.05,0.01-0.07,0
		c-0.01,0-0.15-0.07-0.29-0.16L19.7,7.51c-0.01,0.02-0.02,0.04-0.05,0.05c-0.02,0.01-0.05,0.01-0.07,0c-0.01,0-0.25-0.1-0.39-0.25
		c-0.03-0.03-0.02-0.08,0.01-0.1c0.04-0.03,0.09-0.02,0.12,0.01c0.07,0.07,0.17,0.13,0.24,0.17l0.04-0.15
		c0.01-0.03,0.03-0.05,0.06-0.05c0.03-0.01,0.06,0,0.08,0.02c0.08,0.06,0.19,0.13,0.27,0.17c0.02-0.09,0.03-0.23,0.04-0.31
		c0-0.03,0.03-0.06,0.07-0.07c0.04-0.01,0.07,0.01,0.09,0.04c0.05,0.08,0.16,0.15,0.24,0.2c0.02-0.06,0.05-0.16,0.07-0.24
		c0.01-0.03,0.04-0.05,0.07-0.06c0.04,0,0.07,0.01,0.09,0.04c0.05,0.1,0.18,0.2,0.27,0.26c0.01-0.11,0-0.26-0.01-0.36
		c0-0.04,0.02-0.07,0.06-0.08c0.04-0.01,0.08,0.01,0.1,0.04c0.17,0.3,0.47,0.47,0.63,0.54c0.09-0.82-0.19-1.14-0.19-1.14
		c-0.02-0.02-0.02-0.04-0.02-0.06c0-0.02,0.02-0.04,0.04-0.05c0.15-0.08,0.24-0.22,0.3-0.36c-0.34,0.29-0.89,0.41-1.15,0.45
		l0.13,0.14c0.02,0.02,0.02,0.05,0.01,0.08c-0.01,0.03-0.04,0.04-0.07,0.05c-0.32,0.03-0.56-0.01-0.72-0.06l0.06,0.09
		c0.01,0.02,0.01,0.05,0,0.08c-0.02,0.02-0.05,0.04-0.08,0.04c-0.26-0.01-0.5-0.11-0.69-0.19c-0.01,0.05-0.04,0.11-0.09,0.15
		c-0.06,0.05-0.14,0.08-0.22,0.08c-0.06,0-0.11-0.01-0.16-0.04c-0.1-0.06-0.14-0.16-0.13-0.26c0.02-0.1,0.09-0.17,0.18-0.2
		c0.13-0.03,0.27,0.03,0.45,0.11c0.14,0.07,0.32,0.14,0.5,0.18l-0.1-0.17c-0.02-0.03-0.01-0.07,0.02-0.09
		c0.03-0.02,0.08-0.02,0.11,0c0,0,0.21,0.15,0.69,0.15L20.49,6.2c-0.02-0.02-0.02-0.05-0.01-0.08c0.01-0.03,0.04-0.04,0.07-0.05
		c0.01,0,0.7-0.06,1.13-0.37c-0.14,0.04-0.25,0.03-0.25,0.03c-0.02,0-0.04-0.01-0.06-0.03c-0.2-0.22-0.4-0.28-0.5-0.3
		c-0.06,0.16-0.19,0.29-0.2,0.29c-0.02,0.02-0.04,0.02-0.07,0.02c-0.03,0-0.05-0.02-0.06-0.04c-0.15-0.21-0.37-0.27-0.49-0.29
		c0.02,0.16-0.11,0.29-0.19,0.34c-0.03,0.02-0.08,0.02-0.11,0c-0.36-0.29-0.64-0.2-0.76-0.14c0.04,0.08,0.02,0.14-0.01,0.19
		c-0.17,0.31-1.24,0.37-1.46,0.38c-0.03,0-0.05-0.01-0.07-0.03c-0.02-0.02-0.02-0.04-0.02-0.07c0.02-0.05,0.01-0.11-0.03-0.16
		c-0.04-0.05-0.09-0.09-0.15-0.1c-0.06-0.01-0.16,0-0.23,0.06c-0.07,0.07-0.08,0.2-0.01,0.38c0.11,0.32,0.46,0.63,0.68,0.8
		c0-0.04,0-0.07,0-0.08c0-0.03,0.03-0.06,0.06-0.07c0.04-0.01,0.07,0,0.09,0.03c0.07,0.09,0.16,0.15,0.22,0.19l0.04-0.24
		c0.01-0.03,0.04-0.06,0.07-0.06c0.04,0,0.07,0.01,0.09,0.05c0.08,0.16,0.56,0.68,0.74,0.86c0.02,0.02,0.03,0.06,0.01,0.08
		c-0.02,0.03-0.05,0.04-0.09,0.04c-0.31-0.04-0.76,0.05-0.77,0.05c-0.04,0.01-0.07-0.01-0.09-0.03c-0.02-0.03-0.02-0.06,0.01-0.09
		l0.06-0.07c-0.43-0.04-0.85-0.14-1.02-0.18l-0.14,0.34l0.38-0.03c0.03,0,0.06,0.01,0.08,0.03c0.02,0.02,0.02,0.05,0.01,0.07
		L17.39,8.1l0.31-0.07c0.04-0.01,0.08,0.01,0.1,0.04c0.04,0.09,0.09,0.15,0.13,0.19l0.09-0.17c0.01-0.03,0.04-0.05,0.08-0.04
		C18.14,8.05,18.17,8.07,18.18,8.09L18.18,8.09z M18.18,8.09"/>
	<path class="st74" d="M17.09,11.91c0.33,0.2,0.6-0.03,0.75-0.2c-0.31-0.2-0.53-0.44-0.66-0.73c-0.04-0.09-0.07-0.19-0.09-0.29
		c-0.03-0.02-0.49-0.35-0.88-0.73c-0.02,0.05-0.05,0.08-0.07,0.11c0.03,0.1,0,0.18-0.03,0.23c0.02,0.07,0,0.14-0.02,0.19
		c0.06,0.08,0.07,0.15,0.03,0.23c-0.01,0.02-0.02,0.03-0.03,0.05c0.05,0.05,0.12,0.17,0.12,0.41c0,0.16,0.07,0.26,0.12,0.3
		c0.03-0.02,0.06-0.03,0.1-0.04c0.11-0.01,0.19,0.07,0.31,0.18C16.81,11.71,16.93,11.82,17.09,11.91L17.09,11.91z M17.09,11.91"/>
	<path class="st74" d="M15.43,9.89c-0.01,0-0.01,0-0.02,0c-0.12,0-0.23-0.01-0.33-0.03c-0.01,0.03,0.01,0.1,0.03,0.11
		c0.02,0.01,0.04,0.04,0.04,0.06c0,0.02-0.01,0.05-0.04,0.06c-0.01,0.01-0.06,0.04-0.06,0.08c0,0.03,0.04,0.07,0.07,0.08
		c0.02,0.01,0.03,0.03,0.03,0.05c0,0.02-0.01,0.04-0.02,0.06c-0.01,0.01-0.04,0.05-0.04,0.09c0,0.01,0,0.03,0.05,0.06
		c0.02,0.01,0.03,0.03,0.04,0.05c0,0.02,0,0.04-0.02,0.06c0,0-0.02,0.03-0.01,0.06c0.01,0.03,0.06,0.06,0.1,0.08
		c0.07,0.03,0.17,0.05,0.28,0.05c0,0,0.01,0,0.01,0c0.09,0,0.18-0.01,0.26-0.03c0.08-0.03,0.13-0.06,0.15-0.11
		c0.01-0.01,0.02-0.05-0.04-0.11c-0.03-0.03-0.03-0.07,0-0.09c0,0,0.06-0.07,0.02-0.12c-0.02-0.03-0.01-0.07,0.01-0.09
		c0,0,0.06-0.06,0.02-0.16c-0.01-0.03,0-0.06,0.02-0.08c0,0,0.08-0.07,0.08-0.18c-0.01-0.01-0.02-0.02-0.03-0.03
		C15.86,9.85,15.66,9.89,15.43,9.89L15.43,9.89z M15.43,9.89"/>
	<path class="st74" d="M16.2,4.68c-0.34,0.16-1.07,0.67-1.09,2.07l0.02,2.35c0,0,0.01,0.01,0.01,0.01c0.04,0.07,0.02,0.17,0,0.23
		c0.21,0.07,0.47,0.04,0.59,0.01C15.7,9.3,15.68,9.2,15.76,9.1C15.75,6.3,16.05,5.11,16.2,4.68L16.2,4.68z M16.2,4.68"/>
	<path class="st74" d="M16.24,9.39c0-0.12-0.1-0.21-0.2-0.24c-0.02-0.01-0.09-0.02-0.12,0.01c-0.06,0.07-0.04,0.12-0.02,0.17
		c0.01,0.03,0.02,0.05,0.01,0.09c-0.01,0.04-0.05,0.06-0.07,0.06c-0.11,0.05-0.55,0.11-0.85-0.03c-0.04-0.02-0.06-0.06-0.04-0.1
		c0.03-0.06,0.05-0.14,0.04-0.17c0,0-0.01-0.01-0.03-0.01c-0.02,0-0.04,0-0.07,0c-0.1,0-0.2,0.03-0.25,0.08
		c-0.04,0.04-0.05,0.09-0.04,0.15c0.05,0.21,0.35,0.34,0.81,0.35c0.32,0,0.6-0.07,0.74-0.19C16.21,9.5,16.24,9.45,16.24,9.39
		L16.24,9.39z M16.24,9.39"/>
	<path class="st74" d="M15.51,11.16c0.02-0.02,0.05-0.03,0.08-0.03c0.06,0.01,0.2,0.04,0.29-0.02c0.03-0.02,0.04-0.07,0.01-0.11
		c-0.01-0.01-0.03-0.05-0.12-0.02c-0.08,0.03-0.2,0.06-0.28,0c-0.01-0.01-0.02-0.03-0.03-0.04c-0.02,0-0.05,0-0.07-0.01
		c-0.01,0.02-0.02,0.03-0.03,0.05c-0.07,0.06-0.19,0.03-0.28,0c-0.09-0.03-0.11,0.01-0.12,0.02c-0.02,0.04-0.02,0.09,0.01,0.11
		c0.08,0.06,0.23,0.03,0.28,0.02c0.03-0.01,0.07,0,0.09,0.03c0.02,0.02,0.03,0.05,0.01,0.08c-0.02,0.03-0.1,0.18-0.18,0.27
		c0.11,0.14,0.2,0.38-0.02,0.6c-0.02,0.02-0.04,0.03-0.07,0.03c-0.03,0-0.05-0.01-0.06-0.03c-0.01-0.02-0.06-0.06-0.1-0.07
		c-0.01,0-0.04,0-0.07,0.02c-0.02,0.01-0.03,0.06-0.02,0.11c0.03,0.09,0.14,0.14,0.28,0.13c0.03,0,0.07,0.02,0.08,0.05
		c0.01,0.03,0,0.06-0.02,0.08l-0.14,0.1l0.23,0.05c0.03,0.01,0.05,0.03,0.06,0.05c0,0,0.03,0.11,0.1,0.2c0.07-0.09,0.1-0.2,0.1-0.2
		c0.01-0.03,0.03-0.05,0.06-0.05l0.22-0.05l-0.14-0.1c-0.03-0.02-0.04-0.05-0.02-0.08c0.01-0.03,0.05-0.05,0.08-0.05
		c0.14,0.01,0.25-0.04,0.28-0.13c0.02-0.05,0.01-0.09-0.02-0.11c-0.03-0.02-0.06-0.02-0.07-0.02c-0.05,0.01-0.09,0.06-0.1,0.07
		c-0.01,0.02-0.04,0.03-0.06,0.03c-0.03,0-0.05-0.01-0.07-0.03c-0.21-0.22-0.12-0.46-0.02-0.6c-0.08-0.09-0.16-0.23-0.18-0.27
		C15.49,11.22,15.49,11.18,15.51,11.16L15.51,11.16z M15.51,11.16"/>
	<path class="st1" d="M27.4,6.3c-0.05-0.06-0.14-0.14-0.31-0.15c-0.12-0.01-0.22,0.02-0.29,0.08c-0.06,0.05-0.08,0.11-0.1,0.16
		c-0.12-0.05-0.3-0.17-0.49-0.3c-0.56-0.36-1.41-0.91-2.24-1.01c-0.67-0.08-1.44,0.04-1.86,0.39c0.01-0.05,0.01-0.08,0.01-0.08
		c0,0,0,0,0,0c0-0.01,0-0.03-0.01-0.04c0,0,0,0-0.01-0.01c-0.01-0.01-0.02-0.02-0.04-0.03c0,0,0,0,0,0h0c-0.02,0-0.03,0-0.05,0
		c0,0-0.01,0-0.01,0c-0.01,0-0.03,0.01-0.04,0.02c0,0,0,0,0,0c-0.18,0.21-0.42,0.24-0.5,0.24c-0.32-0.33-0.65-0.34-0.67-0.34
		c-0.05,0-0.08,0.03-0.09,0.06c-0.01,0.08-0.07,0.16-0.11,0.21c-0.28-0.31-0.67-0.28-0.69-0.27c-0.03,0-0.05,0.02-0.06,0.04
		c-0.01,0.02-0.01,0.05,0,0.07c0.05,0.1-0.01,0.18-0.06,0.23c-0.55-0.39-0.97-0.07-0.98-0.07c-0.03,0.02-0.04,0.07-0.01,0.1
		c0.04,0.05,0.03,0.08,0.02,0.1c-0.09,0.16-0.73,0.26-1.22,0.29c0-0.06-0.02-0.12-0.06-0.17c-0.06-0.09-0.15-0.15-0.26-0.17
		c-0.12-0.02-0.28,0-0.39,0.1c-0.12,0.11-0.13,0.29-0.05,0.52C16.98,6.66,17.37,7,17.6,7.18c-0.06-0.02-0.11-0.04-0.16-0.06
		c-0.13-0.06-0.36-0.15-0.53-0.08c-0.08,0.04-0.14,0.13-0.13,0.23c0,0.05,0.03,0.15,0.19,0.22l-0.19,0.45
		c-0.01,0.02-0.01,0.05,0.01,0.07c0.02,0.02,0.05,0.03,0.08,0.03L17.25,8l-0.08,0.18c-0.01,0.03-0.01,0.06,0.01,0.08
		c0.02,0.02,0.05,0.03,0.09,0.02l0.41-0.1c0.11,0.19,0.25,0.26,0.25,0.26c0.02,0.01,0.04,0.01,0.07,0c0.02-0.01,0.04-0.02,0.05-0.04
		l0.06-0.13c0.07,0.08,0.14,0.14,0.19,0.17c-0.03,0.02-0.05,0.04-0.08,0.06c-0.28,0.2-0.67,0.48-0.95,0.96
		c-0.14,0.24-0.25,0.61-0.22,1c-0.2-0.15-0.59-0.45-0.87-0.76c0.03-0.02,0.07-0.04,0.1-0.06c0.09-0.08,0.13-0.17,0.13-0.26
		c0-0.2-0.16-0.34-0.32-0.38c-0.06-0.02-0.11-0.02-0.16-0.01c0-3.25,0.41-4.25,0.5-4.42c0.01-0.03,0.01-0.06-0.01-0.08
		c-0.02-0.02-0.06-0.03-0.09-0.02c-0.06,0.01-1.36,0.37-1.38,2.27l0.02,2.27C14.78,9,14.61,9.04,14.52,9.14
		c-0.06,0.05-0.11,0.14-0.08,0.29c0.04,0.19,0.21,0.32,0.48,0.4C14.9,9.85,14.9,9.87,14.9,9.91c0,0.04,0.02,0.08,0.04,0.12
		c-0.03,0.03-0.06,0.08-0.06,0.14c0,0.06,0.02,0.11,0.08,0.16c-0.02,0.04-0.04,0.09-0.03,0.14c0,0.03,0.02,0.08,0.06,0.12
		c-0.01,0.03-0.02,0.08-0.01,0.12c0.01,0.05,0.05,0.09,0.1,0.13c-0.13-0.02-0.22,0.03-0.26,0.1c-0.06,0.1-0.04,0.24,0.06,0.3
		c0.08,0.05,0.17,0.07,0.26,0.07c-0.04,0.06-0.09,0.12-0.12,0.14c-0.02,0.01-0.03,0.03-0.03,0.05c0,0.02,0.01,0.04,0.02,0.06
		c0.01,0.01,0.19,0.19,0.08,0.38c-0.03-0.02-0.08-0.05-0.13-0.06c-0.07-0.01-0.14,0-0.2,0.04c-0.09,0.05-0.12,0.17-0.08,0.28
		c0.03,0.08,0.11,0.17,0.25,0.21l-0.12,0.09c-0.02,0.02-0.03,0.05-0.03,0.07c0.01,0.03,0.03,0.05,0.06,0.06l0.34,0.07
		c0.03,0.07,0.09,0.19,0.18,0.28c0.02,0.01,0.05,0.02,0.07,0.02s0.04-0.01,0.06-0.02c0.1-0.09,0.16-0.21,0.18-0.28l0.34-0.07
		c0.03-0.01,0.05-0.03,0.06-0.06c0.01-0.03,0-0.06-0.03-0.07l-0.12-0.09c0.14-0.04,0.22-0.13,0.25-0.21
		c0.04-0.11,0.01-0.22-0.08-0.28c-0.06-0.04-0.13-0.05-0.2-0.04c-0.05,0.01-0.1,0.03-0.13,0.06c-0.11-0.19,0.07-0.37,0.08-0.38
		c0.02-0.02,0.02-0.04,0.02-0.06c0-0.02-0.01-0.04-0.03-0.05c-0.03-0.02-0.07-0.08-0.12-0.14c0.08,0,0.18-0.01,0.25-0.07
		c0.02-0.01,0.03-0.03,0.04-0.04c0.01,0.33,0.24,0.46,0.25,0.46c0.04,0.02,0.09,0.01,0.12-0.03c0.02-0.03,0.03-0.03,0.03-0.03
		c0.03,0,0.11,0.08,0.17,0.14c0.1,0.09,0.22,0.21,0.39,0.31c0.12,0.07,0.24,0.1,0.35,0.1c0.3,0,0.53-0.23,0.63-0.34
		c0.19,0.1,0.4,0.2,0.65,0.27c0.01,0,0.02,0,0.03,0c0.03,0.08,0.06,0.17,0.09,0.25c0.11,0.27,0.21,0.55,0.17,0.76
		c-0.06,0.27-0.54,0.28-0.79,0.24c-0.18-0.03-0.34,0.01-0.47,0.12c-0.12,0.1-0.18,0.25-0.17,0.41c0.01,0.11,0.07,0.16,0.12,0.18
		c0.11,0.05,0.27,0.01,0.35-0.02c0.19,0.15,0.42,0.08,0.56,0.01c0.08,0.06,0.18,0.1,0.28,0.1c0,0,0.01,0,0.01,0
		c0.15,0,0.28-0.07,0.35-0.12c0.33,0.12,0.51,0.03,0.55,0.01c0.27-0.2,0.22-0.55,0.19-0.71c0.55-0.15,0.72-0.57,0.73-0.58
		c0.01-0.03,0-0.06-0.02-0.08c-0.02-0.02-0.05-0.03-0.08-0.02c-0.17,0.04-0.3,0.01-0.36-0.07c-0.09-0.12-0.03-0.31,0.14-0.49
		c0.04-0.04,0.07-0.08,0.1-0.12c0.42-0.08,0.78-0.23,1.16-0.38c0.32-0.13,0.64-0.26,1.03-0.37c0.11-0.03,0.21-0.05,0.32-0.06
		c-0.03,0.4,0.2,0.67,0.43,0.93c0.06,0.07,0.13,0.14,0.19,0.22c0.25,0.32,0.2,0.98,0.18,1.04c-0.02,0.03-0.18,0.18-0.42,0.15
		c-0.2-0.02-0.41,0.03-0.56,0.14c-0.1,0.08-0.16,0.18-0.16,0.29c0,0.09,0.05,0.13,0.09,0.16c0.12,0.06,0.32,0,0.43-0.05
		c0.1,0.07,0.21,0.09,0.3,0.09c0.12,0,0.23-0.04,0.3-0.08c0.23,0.13,0.46,0.05,0.6-0.03c0.17,0.08,0.3,0.06,0.38,0.03
		c0.03-0.01,0.05-0.02,0.08-0.04c0,0,0.01,0.01,0.01,0.01c0.09,0.07,0.26,0.03,0.36,0c0.05,0.07,0.11,0.1,0.16,0.12
		c0.16,0.04,0.34-0.03,0.43-0.08c0.11,0.07,0.22,0.11,0.33,0.09c0.1-0.01,0.17-0.06,0.22-0.1c0.05,0.03,0.13,0.07,0.23,0.1
		c0.04,0.01,0.08,0.02,0.12,0.02c0.12,0,0.18-0.06,0.2-0.09c0.1-0.13,0.05-0.34-0.06-0.46c-0.06-0.07-0.12-0.2-0.09-0.34
		c0.01-0.07,0.06-0.17,0.18-0.25c0.23-0.13,0.38-0.3,0.38-0.44c0-0.06-0.02-0.11-0.07-0.14c-0.04-0.03-0.09-0.03-0.13-0.04
		c-0.1-0.01-0.23-0.03-0.39-0.29c-0.14-0.23,0.03-0.68,0.2-1.16c0.1-0.27,0.21-0.55,0.27-0.83c0.16-0.69-0.23-1.25-0.37-1.43
		c0.4-0.34,0.56-0.68,0.49-0.98c-0.08-0.34-0.43-0.57-0.72-0.67c-0.34-0.12-0.92-0.06-1.48,0c-0.43,0.05-0.84,0.09-1.09,0.04
		c-0.09-0.02-0.16-0.05-0.2-0.11c-0.06-0.09-0.03-0.21-0.03-0.22c0.01-0.02,0-0.05-0.02-0.07c-0.02-0.02-0.04-0.03-0.07-0.03
		c-0.16,0.01-0.29,0.09-0.37,0.15c0-0.02-0.01-0.04,0-0.06c0.02-0.14,0.21-0.27,0.21-0.27c0.02-0.01,0.04-0.04,0.03-0.06
		c0-0.02-0.02-0.05-0.04-0.06c-0.34-0.19-0.67-0.05-0.83,0.08c-0.07-0.06-0.11-0.15-0.11-0.24c0-0.06,0.03-0.17,0.16-0.24
		c0.06-0.03,0.12-0.04,0.16-0.02c0.08,0.03,0.14,0.11,0.15,0.15c0.01,0.02,0.03,0.04,0.05,0.04c0.02,0.01,0.05,0.01,0.07-0.01
		c0.19-0.1,0.25-0.3,0.27-0.41c0.11,0.02,0.2,0.06,0.26,0.13c0.17,0.19,0.1,0.53,0.1,0.53c-0.01,0.03,0,0.05,0.03,0.07
		c0.02,0.02,0.05,0.02,0.08,0.02c0.38-0.09,0.5-0.37,0.52-0.57c0.29,0.16,0.27,0.49,0.27,0.51c0,0.03,0.01,0.05,0.04,0.07
		c0.02,0.02,0.05,0.02,0.08,0.01c0.14-0.05,0.22-0.13,0.26-0.21c0.27,0.31,0.64,0.42,0.65,0.42c0.03,0.01,0.07,0,0.09-0.02
		c0.02-0.02,0.03-0.05,0.02-0.08l-0.08-0.18c0.07,0.04,0.13,0.09,0.2,0.13c0.18,0.12,0.36,0.24,0.62,0.35
		c0.3,0.12,0.51,0.1,0.63,0.05c0.12-0.04,0.22-0.13,0.26-0.22C27.47,6.59,27.49,6.43,27.4,6.3L27.4,6.3z M27.27,6.65
		c-0.02,0.04-0.07,0.1-0.17,0.14C27,6.82,26.84,6.84,26.6,6.74c-0.25-0.1-0.42-0.22-0.59-0.34c-0.14-0.1-0.27-0.19-0.44-0.27
		c-0.03-0.01-0.07-0.01-0.1,0.01c-0.03,0.02-0.04,0.05-0.02,0.08l0.1,0.22c-0.15-0.07-0.35-0.2-0.48-0.42
		c-0.02-0.03-0.06-0.04-0.1-0.04C24.94,6,24.92,6.03,24.92,6.06c0,0,0,0.11-0.1,0.19c-0.03-0.2-0.15-0.47-0.49-0.57
		c-0.03-0.01-0.06,0-0.08,0.01c-0.02,0.02-0.03,0.04-0.03,0.07c0,0.02,0.04,0.35-0.28,0.49c0.01-0.14,0-0.36-0.15-0.53
		c-0.11-0.12-0.26-0.18-0.46-0.19c-0.02,0-0.04,0.01-0.06,0.02c-0.02,0.01-0.03,0.03-0.03,0.05c0,0-0.01,0.2-0.12,0.32
		c-0.04-0.05-0.1-0.11-0.19-0.14c-0.09-0.03-0.2-0.02-0.3,0.03c-0.16,0.07-0.25,0.21-0.25,0.36c-0.01,0.17,0.09,0.33,0.24,0.41
		c0.03,0.02,0.08,0.01,0.11-0.01c0.01-0.01,0.25-0.24,0.57-0.15c-0.07,0.07-0.16,0.17-0.18,0.29c-0.01,0.09,0.01,0.18,0.08,0.26
		C23.2,6.99,23.22,7,23.25,7c0.03,0,0.05-0.01,0.07-0.03c0,0,0.09-0.11,0.23-0.16c0,0.06,0.01,0.14,0.06,0.22
		c0.06,0.09,0.17,0.15,0.31,0.18c0.27,0.05,0.7,0.01,1.15-0.04c0.54-0.06,1.09-0.12,1.4-0.01c0.24,0.08,0.55,0.28,0.61,0.56
		c0.06,0.27-0.11,0.57-0.5,0.89c-0.03,0.03-0.04,0.07-0.01,0.1c0.01,0.01,0.56,0.6,0.39,1.36c-0.06,0.27-0.17,0.55-0.27,0.82
		c-0.2,0.53-0.37,0.99-0.19,1.27c0.2,0.33,0.4,0.35,0.51,0.36c0.02,0,0.05,0.01,0.06,0.01c0.02,0.03-0.04,0.19-0.3,0.33
		c-0.14,0.08-0.23,0.2-0.26,0.35c-0.03,0.16,0.02,0.34,0.13,0.46c0.08,0.09,0.1,0.23,0.06,0.28c-0.01,0.01-0.03,0.04-0.13,0.01
		c-0.15-0.04-0.23-0.11-0.23-0.11c-0.02-0.02-0.04-0.03-0.07-0.02c-0.03,0-0.05,0.02-0.06,0.04c0,0-0.06,0.08-0.16,0.09
		c-0.07,0.01-0.15-0.02-0.24-0.09c-0.03-0.02-0.07-0.03-0.11-0.01c-0.05,0.03-0.23,0.12-0.33,0.09c-0.02,0-0.06-0.02-0.09-0.1
		c-0.01-0.02-0.02-0.04-0.05-0.04c-0.02-0.01-0.05-0.01-0.07,0c-0.1,0.04-0.23,0.07-0.26,0.06c0,0,0-0.01,0.01-0.04
		c0.06-0.18,0.3-0.22,0.45-0.25c0.03-0.01,0.06-0.01,0.08-0.01c0.02,0,0.04-0.01,0.06-0.01c0.15-0.03,0.48-0.08,0.44-0.44
		c-0.01-0.08-0.01-0.14,0-0.21c0.01-0.22,0.01-0.43-0.38-0.68c-0.14-0.09-0.28-0.17-0.42-0.25c-0.31-0.18-0.57-0.34-0.81-0.55
		c-0.5-0.44-1.09-0.57-1.77-0.38c-0.4,0.11-0.73,0.24-1.05,0.37c-0.32,0.13-0.63,0.25-0.97,0.33c0.27-0.45,0.41-1.04,0.38-1.33
		c0-0.04-0.05-0.07-0.09-0.07c-0.05,0-0.08,0.04-0.08,0.08c0.03,0.33-0.2,1.13-0.57,1.53c-0.22,0.23-0.28,0.5-0.15,0.67
		c0.08,0.11,0.21,0.16,0.38,0.16c-0.09,0.13-0.28,0.32-0.62,0.39c-0.02,0-0.04,0.02-0.05,0.04c-0.01,0.02-0.01,0.04-0.01,0.06
		c0,0,0.14,0.44-0.1,0.62c-0.01,0-0.15,0.07-0.43-0.04c-0.03-0.01-0.07-0.01-0.09,0.01c0,0-0.14,0.11-0.28,0.11
		c-0.08,0-0.15-0.03-0.22-0.1c-0.03-0.03-0.08-0.03-0.12-0.01c-0.01,0.01-0.25,0.18-0.43,0.01c-0.03-0.03-0.07-0.03-0.1-0.02
		c-0.07,0.03-0.19,0.07-0.25,0.04c-0.01,0-0.03-0.01-0.03-0.06c-0.01-0.11,0.03-0.21,0.11-0.28c0.08-0.07,0.2-0.1,0.32-0.08
		c0.44,0.07,0.92-0.02,0.99-0.36c0.05-0.25-0.07-0.54-0.18-0.83c-0.09-0.22-0.17-0.44-0.18-0.62c-0.01-0.37,0.08-0.72,0.08-0.72
		c0.01-0.04-0.02-0.08-0.06-0.09c-0.05-0.01-0.09,0.02-0.1,0.06c0,0.01-0.1,0.37-0.09,0.76c0,0.08,0.02,0.16,0.04,0.24
		c-0.64-0.21-1.07-0.54-1.27-0.97c-0.23-0.51-0.1-1.06,0.08-1.38c0.26-0.45,0.62-0.71,0.91-0.91c0.14-0.1,0.26-0.18,0.34-0.28
		c-0.01,0.12-0.13,0.37-0.26,0.57c-0.02,0.03-0.01,0.06,0.01,0.08c0.02,0.02,0.06,0.03,0.09,0.02c0.07-0.02,0.2-0.08,0.3-0.12
		l0.03,0.38c0,0.03,0.02,0.05,0.05,0.06c0.03,0.01,0.06,0.01,0.09-0.01c0.11-0.08,0.22-0.19,0.3-0.28l0.08,0.23
		c0.01,0.02,0.03,0.04,0.05,0.05c0.03,0.01,0.05,0,0.08-0.01c0.12-0.07,0.24-0.19,0.31-0.27l0.16,0.23
		c0.02,0.02,0.05,0.04,0.08,0.03c0.03,0,0.06-0.02,0.07-0.04l0.19-0.33l0.16,0.38c0.01,0.02,0.03,0.04,0.05,0.04
		c0.01,0,0.02,0,0.03,0c0.02,0,0.03,0,0.05-0.01l0.41-0.23c0.22,0.11,0.53,0.15,0.55,0.15c0.03,0,0.05,0,0.07-0.02
		c0.02-0.02,0.03-0.04,0.03-0.06l-0.03-0.31l0.37,0c0.04,0,0.08-0.03,0.08-0.07c0.01-0.04-0.02-0.07-0.06-0.08
		c-0.04-0.01-0.13-0.09-0.21-0.16c0.01,0,0.01,0,0.02,0c0.21,0.01,3.79,0.25,4.57-0.26c0.44-0.28,0.41-0.54,0.35-0.66
		c-0.12-0.26-0.55-0.43-0.97-0.38c-0.17,0.02-0.35,0.05-0.54,0.08c-0.54,0.08-1.14,0.18-1.64,0.07c-0.19-0.04-0.36-0.1-0.51-0.15
		c-0.25-0.08-0.43-0.14-0.57-0.07c-0.06,0.03-0.1,0.08-0.13,0.15c-0.09-0.09-0.19-0.25-0.06-0.46c0.02-0.03,0.01-0.06-0.01-0.09
		c0,0-0.5-0.47-0.26-0.98c0.21-0.46,1.02-0.72,1.94-0.61c0.79,0.09,1.61,0.62,2.16,0.98c0.34,0.22,0.53,0.34,0.65,0.35
		c0.02,0,0.05,0,0.07-0.02c0.02-0.02,0.03-0.04,0.03-0.06c0,0-0.01-0.1,0.06-0.16c0.03-0.03,0.09-0.04,0.15-0.04
		c0.08,0,0.14,0.03,0.18,0.08C27.31,6.46,27.3,6.57,27.27,6.65L27.27,6.65z M24.61,13.87c-0.08,0.03-0.17,0.01-0.27-0.05
		c-0.03-0.02-0.07-0.02-0.1,0.01c-0.01,0.01-0.25,0.19-0.48,0.02c-0.03-0.02-0.08-0.02-0.11,0c-0.03,0.02-0.25,0.18-0.48-0.01
		c-0.03-0.02-0.07-0.03-0.1-0.01c-0.11,0.05-0.28,0.1-0.32,0.08c-0.01,0-0.01-0.02-0.01-0.03c0-0.08,0.05-0.14,0.1-0.17
		c0.11-0.08,0.28-0.13,0.42-0.11c0.32,0.04,0.55-0.16,0.6-0.24c0.04-0.08,0.1-0.81-0.2-1.18c-0.06-0.08-0.13-0.15-0.19-0.22
		c-0.22-0.25-0.43-0.49-0.4-0.85c0.41-0.01,0.78,0.13,1.11,0.42c0.17,0.15,0.35,0.28,0.55,0.4c-0.08,0.07-0.2,0.2-0.21,0.33
		c0,0.06,0.02,0.12,0.07,0.17c0.12,0.12,0.26,0.11,0.36,0.11c0.02,0,0.04,0,0.05,0c-0.02,0.05-0.11,0.16-0.17,0.23
		c-0.17,0.2-0.28,0.34-0.26,0.45c0.01,0.07,0.05,0.19,0.08,0.29c0.03,0.1,0.08,0.26,0.07,0.29C24.72,13.8,24.68,13.84,24.61,13.87
		L24.61,13.87z M24.97,12.84c0.16-0.2,0.25-0.3,0.2-0.39c-0.05-0.09-0.15-0.08-0.22-0.08c-0.08,0-0.15,0.01-0.22-0.06
		c-0.02-0.02-0.02-0.04-0.02-0.06c0.01-0.09,0.11-0.2,0.18-0.25c0.05,0.03,0.1,0.06,0.15,0.09c0.13,0.08,0.27,0.16,0.41,0.25
		c0.32,0.2,0.31,0.34,0.31,0.55c0,0.07,0,0.15,0,0.23c0.02,0.21-0.11,0.25-0.3,0.28c-0.02,0-0.05,0.01-0.07,0.01
		c-0.02,0-0.04,0.01-0.07,0.01c-0.12,0.02-0.32,0.06-0.45,0.17c-0.01-0.04-0.02-0.09-0.04-0.14c-0.03-0.1-0.06-0.21-0.07-0.28
		C24.73,13.12,24.88,12.94,24.97,12.84L24.97,12.84z M16.41,11.44c-0.04,0-0.07,0.02-0.1,0.04c-0.05-0.05-0.12-0.14-0.12-0.3
		c0-0.24-0.08-0.36-0.12-0.41c0.01-0.02,0.02-0.03,0.03-0.05c0.04-0.07,0.03-0.15-0.03-0.23c0.03-0.05,0.05-0.12,0.02-0.19
		c0.03-0.05,0.06-0.13,0.03-0.23c0.02-0.02,0.05-0.06,0.07-0.11c0.39,0.38,0.85,0.7,0.88,0.73c0.02,0.1,0.05,0.19,0.09,0.29
		c0.13,0.29,0.36,0.53,0.66,0.73c-0.14,0.17-0.41,0.4-0.75,0.2c-0.15-0.09-0.27-0.2-0.36-0.29C16.6,11.51,16.51,11.43,16.41,11.44
		L16.41,11.44z M15.7,12.1c0.02,0.02,0.04,0.03,0.07,0.03c0.03,0,0.05-0.01,0.06-0.03c0.01-0.01,0.05-0.06,0.1-0.07
		c0.01,0,0.04,0,0.07,0.02c0.02,0.01,0.03,0.06,0.02,0.11c-0.03,0.09-0.14,0.14-0.28,0.13c-0.04,0-0.07,0.02-0.08,0.05
		c-0.01,0.03,0,0.06,0.02,0.08l0.14,0.1l-0.23,0.05c-0.03,0.01-0.05,0.03-0.06,0.05c0,0-0.03,0.11-0.1,0.2
		c-0.07-0.09-0.1-0.2-0.1-0.2c-0.01-0.03-0.03-0.05-0.06-0.05l-0.22-0.05l0.14-0.1c0.03-0.02,0.04-0.05,0.02-0.08
		c-0.01-0.03-0.05-0.05-0.08-0.05c-0.15,0.01-0.25-0.04-0.28-0.13c-0.02-0.05-0.01-0.09,0.02-0.11c0.03-0.02,0.06-0.02,0.07-0.02
		c0.05,0.01,0.09,0.05,0.1,0.07c0.01,0.02,0.04,0.03,0.06,0.03c0.03,0,0.05-0.01,0.07-0.03c0.21-0.22,0.12-0.46,0.02-0.6
		c0.08-0.09,0.16-0.23,0.18-0.27c0.01-0.03,0.01-0.06-0.01-0.08c-0.02-0.02-0.06-0.03-0.09-0.03c-0.05,0.01-0.19,0.04-0.28-0.02
		c-0.03-0.02-0.04-0.07-0.01-0.11c0.01-0.01,0.03-0.05,0.12-0.02c0.08,0.03,0.2,0.06,0.28,0c0.02-0.01,0.03-0.03,0.03-0.05
		c0.02,0,0.04,0,0.07,0.01c0.01,0.01,0.02,0.03,0.03,0.04c0.08,0.06,0.19,0.03,0.28,0c0.09-0.03,0.11,0.01,0.12,0.02
		c0.02,0.04,0.02,0.09-0.01,0.11c-0.08,0.06-0.23,0.03-0.29,0.02c-0.03-0.01-0.06,0.01-0.08,0.03c-0.02,0.02-0.02,0.05-0.01,0.08
		c0.02,0.03,0.1,0.18,0.18,0.27C15.58,11.64,15.49,11.89,15.7,12.1L15.7,12.1z M15.97,10c-0.02,0.02-0.03,0.05-0.02,0.08
		c0.04,0.1-0.01,0.15-0.02,0.16c-0.03,0.02-0.03,0.06-0.01,0.09c0.03,0.05-0.02,0.12-0.02,0.12c-0.02,0.03-0.02,0.07,0,0.09
		c0.07,0.07,0.05,0.1,0.04,0.11c-0.02,0.05-0.08,0.08-0.15,0.11c-0.08,0.03-0.17,0.03-0.26,0.03c0,0-0.01,0-0.01,0
		c-0.11,0-0.21-0.02-0.28-0.05c-0.04-0.02-0.09-0.04-0.1-0.08c-0.01-0.03,0.01-0.06,0.01-0.06c0.01-0.02,0.02-0.04,0.02-0.06
		c0-0.02-0.02-0.04-0.04-0.05c-0.04-0.03-0.05-0.05-0.05-0.06c-0.01-0.03,0.03-0.08,0.04-0.09c0.02-0.02,0.02-0.04,0.02-0.06
		c0-0.02-0.01-0.04-0.03-0.05c-0.03-0.02-0.07-0.05-0.07-0.08c0-0.03,0.04-0.07,0.06-0.08c0.02-0.01,0.03-0.04,0.03-0.06
		c0-0.02-0.01-0.05-0.04-0.06c-0.02-0.01-0.04-0.09-0.03-0.11c0.1,0.02,0.21,0.03,0.34,0.03c0.01,0,0.01,0,0.02,0
		c0.23,0,0.43-0.04,0.59-0.1c0.01,0.01,0.02,0.02,0.03,0.03C16.05,9.93,15.98,10,15.97,10L15.97,10z M15.41,9.74
		c-0.46,0-0.76-0.13-0.81-0.35c-0.01-0.06,0-0.11,0.04-0.15c0.05-0.05,0.15-0.08,0.25-0.08c0.02,0,0.04,0,0.07,0
		c0.02,0,0.03,0.01,0.03,0.01c0.02,0.03-0.01,0.11-0.04,0.17c-0.02,0.04,0,0.08,0.04,0.1c0.3,0.14,0.74,0.08,0.85,0.03
		c0.01-0.01,0.06-0.02,0.07-0.06c0.01-0.03,0-0.06-0.01-0.09c-0.02-0.05-0.04-0.1,0.02-0.17c0.03-0.04,0.1-0.02,0.12-0.01
		c0.1,0.03,0.2,0.12,0.2,0.24c0,0.06-0.03,0.11-0.08,0.16C16.01,9.67,15.73,9.74,15.41,9.74L15.41,9.74z M15.72,9.36
		c-0.11,0.02-0.38,0.05-0.59-0.01c0.02-0.07,0.05-0.16,0-0.23c0,0-0.01-0.01-0.01-0.01l-0.02-2.35c0.02-1.39,0.75-1.9,1.09-2.07
		c-0.15,0.42-0.46,1.61-0.44,4.41C15.68,9.2,15.7,9.3,15.72,9.36L15.72,9.36z M18.02,8.09l-0.09,0.17c-0.04-0.04-0.09-0.1-0.13-0.19
		c-0.02-0.04-0.06-0.05-0.1-0.04L17.39,8.1l0.07-0.16c0.01-0.02,0.01-0.05-0.01-0.07c-0.02-0.02-0.05-0.03-0.08-0.03l-0.38,0.03
		l0.14-0.34c0.17,0.04,0.59,0.14,1.02,0.18l-0.06,0.07c-0.02,0.03-0.02,0.06-0.01,0.09c0.02,0.03,0.06,0.04,0.09,0.03
		c0,0,0.46-0.09,0.77-0.05c0.03,0,0.07-0.01,0.09-0.04c0.02-0.03,0.01-0.06-0.01-0.08c-0.18-0.18-0.66-0.7-0.74-0.86
		c-0.01-0.03-0.05-0.05-0.09-0.05c-0.04,0-0.07,0.03-0.07,0.06l-0.04,0.24c-0.06-0.04-0.15-0.1-0.22-0.19
		c-0.02-0.03-0.06-0.04-0.09-0.03c-0.03,0.01-0.06,0.04-0.06,0.07c0,0.01,0,0.04,0,0.08c-0.22-0.17-0.57-0.48-0.68-0.8
		c-0.06-0.18-0.06-0.31,0.01-0.38c0.06-0.06,0.17-0.07,0.23-0.06c0.06,0.01,0.12,0.05,0.15,0.1c0.03,0.05,0.04,0.11,0.03,0.16
		c-0.01,0.02,0,0.05,0.02,0.07c0.02,0.02,0.04,0.03,0.07,0.03c0.21-0.01,1.28-0.07,1.46-0.38C19,5.74,19.01,5.67,18.98,5.6
		c0.11-0.06,0.39-0.14,0.76,0.14c0.03,0.02,0.07,0.03,0.11,0c0.08-0.05,0.21-0.18,0.19-0.34c0.13,0.01,0.34,0.07,0.49,0.29
		c0.01,0.02,0.04,0.03,0.06,0.03c0.03,0,0.05-0.01,0.07-0.02c0.01-0.01,0.14-0.13,0.2-0.29c0.1,0.02,0.3,0.09,0.5,0.3
		c0.01,0.02,0.04,0.03,0.06,0.03c0.01,0,0.12,0.01,0.25-0.03c-0.43,0.3-1.12,0.37-1.13,0.37c-0.03,0-0.06,0.02-0.07,0.05
		c-0.01,0.03-0.01,0.05,0.01,0.08l0.12,0.13c-0.48,0.01-0.69-0.14-0.69-0.15c-0.03-0.02-0.08-0.02-0.11,0
		c-0.03,0.02-0.04,0.06-0.02,0.09l0.1,0.17c-0.19-0.03-0.36-0.11-0.5-0.18c-0.18-0.08-0.33-0.15-0.45-0.11
		c-0.09,0.02-0.16,0.1-0.18,0.2c-0.02,0.1,0.03,0.2,0.13,0.26c0.05,0.03,0.1,0.04,0.16,0.04c0.08,0,0.16-0.03,0.22-0.08
		c0.05-0.04,0.08-0.1,0.09-0.15c0.19,0.09,0.42,0.18,0.69,0.19c0.03,0,0.06-0.01,0.08-0.04c0.02-0.02,0.02-0.05,0-0.08l-0.06-0.09
		c0.16,0.05,0.4,0.09,0.72,0.06c0.03,0,0.06-0.02,0.07-0.05c0.01-0.03,0.01-0.05-0.01-0.08l-0.13-0.14
		c0.26-0.04,0.81-0.15,1.15-0.45c-0.06,0.14-0.15,0.28-0.3,0.36c-0.02,0.01-0.04,0.03-0.04,0.05c0,0.02,0,0.04,0.02,0.06
		c0,0,0.28,0.32,0.19,1.14c-0.16-0.07-0.46-0.24-0.63-0.54c-0.02-0.03-0.06-0.05-0.1-0.04c-0.04,0.01-0.06,0.04-0.06,0.08
		c0.01,0.1,0.02,0.25,0.01,0.36c-0.09-0.06-0.22-0.15-0.27-0.26c-0.01-0.03-0.05-0.05-0.08-0.04c-0.04,0-0.07,0.03-0.07,0.06
		c-0.02,0.08-0.05,0.18-0.07,0.24c-0.08-0.05-0.2-0.12-0.24-0.2C20.19,7,20.16,6.99,20.12,6.99C20.08,7,20.05,7.03,20.05,7.06
		c-0.01,0.09-0.02,0.22-0.03,0.31c-0.08-0.04-0.19-0.11-0.27-0.17c-0.02-0.02-0.05-0.02-0.08-0.02c-0.03,0.01-0.05,0.03-0.06,0.05
		l-0.04,0.15c-0.07-0.04-0.17-0.1-0.24-0.17c-0.03-0.03-0.08-0.04-0.12-0.01c-0.04,0.03-0.04,0.07-0.01,0.11
		c0.14,0.15,0.38,0.25,0.39,0.25c0.02,0.01,0.05,0.01,0.07,0c0.02-0.01,0.04-0.03,0.05-0.05l0.04-0.12
		c0.14,0.09,0.28,0.16,0.29,0.16c0.02,0.01,0.05,0.01,0.07,0c0.02-0.01,0.04-0.02,0.05-0.04c0.02-0.05,0.04-0.17,0.05-0.27
		c0.12,0.09,0.24,0.15,0.25,0.15c0.04,0.02,0.09,0.01,0.11-0.03c0.02-0.04,0.05-0.11,0.08-0.19c0.14,0.14,0.32,0.23,0.33,0.23
		c0.02,0.01,0.05,0.01,0.07,0.01c0.02-0.01,0.04-0.02,0.05-0.04c0.03-0.06,0.03-0.15,0.03-0.24c0.16,0.17,0.35,0.28,0.48,0.35
		c0,0,0,0,0,0.01c0,0.01,0.02,0.26,0.07,0.46c-0.14-0.05-0.37-0.14-0.58-0.32c-0.02-0.02-0.05-0.02-0.08-0.02
		c-0.03,0.01-0.05,0.02-0.06,0.04L20.89,7.8l-0.27-0.17c-0.02-0.02-0.06-0.02-0.08-0.01c-0.03,0.01-0.05,0.03-0.05,0.06l-0.02,0.17
		c-0.06-0.04-0.13-0.09-0.18-0.14c-0.03-0.03-0.08-0.03-0.12-0.01c-0.04,0.03-0.04,0.07-0.01,0.11c0.12,0.12,0.32,0.23,0.33,0.23
		c0.02,0.01,0.05,0.01,0.08,0c0.03-0.01,0.04-0.03,0.05-0.06l0.02-0.16l0.24,0.16C20.9,7.99,20.93,8,20.96,7.99
		c0.03-0.01,0.05-0.02,0.06-0.04l0.06-0.13c0.16,0.11,0.31,0.19,0.44,0.24c0,0.05,0.01,0.24,0.1,0.4c-0.15,0-0.4-0.03-0.62-0.13
		c-0.04-0.02-0.09-0.01-0.11,0.03l-0.12,0.17l-0.51-0.3c-0.02-0.01-0.05-0.02-0.07-0.01c-0.02,0.01-0.04,0.02-0.05,0.05l-0.08,0.19
		c-0.09-0.09-0.23-0.22-0.28-0.26c-0.03-0.02-0.08-0.02-0.11,0.01c0,0-0.12,0.11-0.26,0.2l-0.1-0.23c-0.02-0.04-0.07-0.06-0.11-0.04
		c-0.04,0.01-0.07,0.06-0.05,0.1l0.13,0.32c0.01,0.02,0.03,0.04,0.05,0.04c0.02,0.01,0.05,0.01,0.07,0
		c0.13-0.06,0.26-0.16,0.33-0.22c0.08,0.07,0.21,0.2,0.29,0.29c0.02,0.02,0.05,0.03,0.08,0.02c0.03,0,0.05-0.02,0.06-0.05l0.09-0.22
		l0.49,0.29c0.01,0.01,0.03,0.01,0.05,0.01c0.01,0,0.01,0,0.02,0c0.02,0,0.04-0.02,0.05-0.03l0.13-0.18
		c0.22,0.08,0.43,0.11,0.59,0.11c0,0.02,0,0.04,0.02,0.05c0.02,0.02,0.06,0.07,0.11,0.11l-0.21,0c-0.02,0-0.05,0.01-0.06,0.02
		c-0.02,0.02-0.02,0.04-0.02,0.06l0.03,0.29c-0.12-0.02-0.3-0.07-0.42-0.14c-0.03-0.02-0.06-0.02-0.09,0l-0.37,0.21l-0.19-0.45
		C20.36,8.72,20.33,8.7,20.3,8.7c-0.04,0-0.07,0.01-0.08,0.04l-0.21,0.37l-0.15-0.2c-0.02-0.02-0.04-0.03-0.07-0.03
		c-0.03,0-0.05,0.01-0.07,0.03c0,0-0.12,0.15-0.25,0.26l-0.1-0.27c-0.01-0.03-0.04-0.05-0.07-0.05c-0.03,0-0.06,0.01-0.08,0.03
		c0,0-0.11,0.14-0.24,0.26L18.96,8.8c0-0.03-0.02-0.05-0.04-0.06c-0.02-0.01-0.06-0.01-0.08,0c-0.04,0.02-0.1,0.05-0.17,0.08
		c0.1-0.18,0.21-0.44,0.15-0.57c-0.02-0.04-0.06-0.07-0.1-0.08c0,0,0,0-0.01-0.01c0,0-0.01,0-0.01,0c0,0,0,0-0.01,0
		c0,0-0.01,0-0.01,0c0,0,0,0-0.01,0c-0.11-0.02-0.19,0.01-0.24,0.04c-0.05,0.03-0.08,0.07-0.1,0.11c-0.05-0.04-0.12-0.11-0.16-0.2
		c-0.01-0.03-0.04-0.05-0.08-0.05C18.07,8.05,18.04,8.07,18.02,8.09L18.02,8.09z M17.38,7.26c0.46,0.19,1.02,0.22,1.17,0.22
		c0.07,0.08,0.14,0.16,0.2,0.22c-0.14,0-0.28,0.01-0.4,0.03l0.02-0.02c0.02-0.02,0.02-0.05,0.01-0.08
		c-0.01-0.03-0.04-0.04-0.07-0.04c-0.57-0.03-1.21-0.21-1.21-0.21c0,0,0,0,0,0c0,0,0,0,0,0c-0.09-0.03-0.15-0.07-0.15-0.12
		c0-0.04,0.02-0.08,0.04-0.08C17.08,7.13,17.27,7.21,17.38,7.26L17.38,7.26z M18.18,7.3c0.02-0.01,0.03-0.03,0.04-0.05l0.02-0.14
		c0.05,0.07,0.11,0.14,0.18,0.21C18.35,7.32,18.27,7.31,18.18,7.3L18.18,7.3z M18.03,7.28c-0.04-0.01-0.08-0.01-0.13-0.02
		c0-0.02,0-0.03-0.01-0.05c0,0,0-0.01-0.01-0.01C17.94,7.23,17.99,7.26,18.03,7.28L18.03,7.28z M19.15,6.47
		c-0.04,0.03-0.11,0.06-0.17,0.02c-0.05-0.03-0.06-0.08-0.05-0.11c0-0.03,0.02-0.07,0.06-0.08c0.01,0,0.02,0,0.02,0
		c0.04,0,0.1,0.02,0.16,0.05C19.22,6.4,19.16,6.46,19.15,6.47L19.15,6.47z M22.36,7.58c0.02,0.01,0.05,0.02,0.08,0
		c0.03-0.01,0.04-0.03,0.05-0.06c0.01-0.09,0.04-0.15,0.08-0.17c0.07-0.04,0.23,0.02,0.42,0.08c0.14,0.05,0.32,0.11,0.53,0.15
		c0.53,0.12,1.16,0.02,1.71-0.07c0.19-0.03,0.37-0.06,0.53-0.08c0.35-0.04,0.7,0.09,0.79,0.29c0.07,0.15-0.04,0.32-0.29,0.49
		c-0.71,0.45-4.09,0.25-4.43,0.23c-0.09-0.08-0.13-0.24-0.14-0.34c0.06,0.02,0.09,0.02,0.1,0.02c0.01,0,0.01,0,0.02,0
		c0.02,0,0.05-0.01,0.06-0.03c0.02-0.02,0.03-0.05,0.02-0.07c-0.05-0.13-0.08-0.36-0.09-0.48c0.02,0.01,0.05,0,0.07-0.01
		c0.02-0.01,0.04-0.03,0.04-0.05c0.1-0.75-0.07-1.14-0.17-1.29c0.02-0.02,0.04-0.03,0.06-0.05c0.01,0.35,0.24,0.64,0.33,0.74
		C21.95,7.24,22.2,7.49,22.36,7.58L22.36,7.58z M22.36,7.58"/>
	<path class="st74" d="M13.88,3.74c-0.03-0.6-0.19-1.57-0.71-1.6c-0.29-0.01-0.43,0.15-0.44,0.15c-0.02,0.02-0.05,0.03-0.07,0.03
		l-0.2-0.01l0.04,0.12c0.01,0.03,0,0.06-0.03,0.08c-0.01,0.01-0.29,0.22-0.12,0.5c0.13,0.21,0.55,0.31,0.85,0.38
		c0.14,0.03,0.25,0.06,0.33,0.09C13.67,3.53,13.79,3.63,13.88,3.74L13.88,3.74z M13.88,3.74"/>
	<path class="st1" d="M13.18,1.99c-0.3-0.01-0.48,0.12-0.55,0.18l-0.27-0.01c-0.03,0-0.05,0.01-0.07,0.03
		c-0.02,0.02-0.02,0.04-0.02,0.07l0.05,0.17c-0.13,0.12-0.29,0.37-0.12,0.65c0.16,0.26,0.62,0.37,0.96,0.45
		c0.13,0.03,0.24,0.06,0.3,0.08c0.2,0.09,0.36,0.28,0.44,0.43c0.01,0.03,0.04,0.04,0.08,0.04c0.01,0,0.01,0,0.02,0
		c0.04-0.01,0.07-0.04,0.07-0.07C14.06,3.93,14.07,2.03,13.18,1.99L13.18,1.99z M13.2,3.38C12.9,3.31,12.48,3.21,12.35,3
		c-0.17-0.27,0.11-0.49,0.12-0.5c0.03-0.02,0.04-0.05,0.03-0.08l-0.04-0.12l0.2,0.01c0.03,0,0.06-0.01,0.07-0.03
		c0.01-0.01,0.15-0.17,0.44-0.15c0.52,0.02,0.68,0.99,0.71,1.6c-0.1-0.11-0.21-0.21-0.35-0.27C13.46,3.44,13.34,3.41,13.2,3.38
		L13.2,3.38z M13.2,3.38"/>
	<path class="st74" d="M28.01,3.74c0.03-0.6,0.19-1.57,0.71-1.6c0.29-0.01,0.43,0.15,0.44,0.15c0.02,0.02,0.04,0.03,0.07,0.03
		l0.2-0.01l-0.04,0.12c-0.01,0.03,0,0.06,0.03,0.08c0.01,0.01,0.29,0.22,0.12,0.5c-0.13,0.21-0.55,0.31-0.85,0.38
		c-0.14,0.03-0.25,0.06-0.33,0.09C28.22,3.53,28.1,3.63,28.01,3.74L28.01,3.74z M28.01,3.74"/>
	<path class="st1" d="M27.83,4.01c0,0.03,0.03,0.06,0.07,0.07c0.01,0,0.01,0,0.02,0c0.03,0,0.06-0.02,0.08-0.04
		c0.08-0.15,0.24-0.35,0.44-0.43c0.06-0.03,0.17-0.05,0.3-0.08c0.33-0.08,0.79-0.19,0.96-0.45c0.17-0.28,0.01-0.53-0.12-0.65
		l0.05-0.17c0.01-0.02,0-0.05-0.02-0.07c-0.02-0.02-0.04-0.03-0.07-0.03l-0.27,0.01c-0.07-0.06-0.25-0.19-0.55-0.18
		C27.82,2.03,27.83,3.93,27.83,4.01L27.83,4.01z M28.36,3.47c-0.14,0.06-0.26,0.16-0.35,0.27c0.03-0.6,0.19-1.57,0.71-1.6
		c0.29-0.01,0.43,0.15,0.44,0.15c0.02,0.02,0.04,0.03,0.07,0.03l0.2-0.01l-0.04,0.12c-0.01,0.03,0,0.06,0.03,0.08
		c0.01,0.01,0.29,0.22,0.12,0.5c-0.13,0.21-0.55,0.31-0.85,0.38C28.55,3.41,28.43,3.44,28.36,3.47L28.36,3.47z M28.36,3.47"/>
	<path class="st74" d="M28.01,14.86c0.03,0.6,0.19,1.57,0.71,1.6c0.29,0.01,0.43-0.15,0.44-0.15c0.02-0.02,0.04-0.03,0.07-0.03
		l0.2,0.01l-0.04-0.12c-0.01-0.03,0-0.06,0.03-0.08c0.01-0.01,0.29-0.22,0.12-0.5c-0.13-0.21-0.55-0.31-0.85-0.38
		c-0.14-0.03-0.25-0.06-0.33-0.09C28.22,15.06,28.1,14.96,28.01,14.86L28.01,14.86z M28.01,14.86"/>
	<path class="st1" d="M28.71,16.6c0.3,0.01,0.48-0.12,0.55-0.18l0.27,0.01c0.03,0,0.05-0.01,0.07-0.03
		c0.02-0.02,0.02-0.04,0.02-0.07l-0.05-0.17c0.13-0.12,0.29-0.37,0.12-0.65c-0.16-0.26-0.62-0.37-0.96-0.45
		c-0.13-0.03-0.24-0.06-0.3-0.08c-0.2-0.09-0.36-0.28-0.44-0.43c-0.01-0.03-0.04-0.04-0.08-0.04c-0.01,0-0.01,0-0.02,0
		c-0.04,0.01-0.07,0.04-0.07,0.07C27.83,14.67,27.82,16.56,28.71,16.6L28.71,16.6z M28.69,15.22c0.31,0.07,0.72,0.17,0.85,0.38
		c0.17,0.27-0.11,0.49-0.12,0.5c-0.03,0.02-0.04,0.05-0.03,0.08l0.04,0.12l-0.2-0.01c-0.03,0-0.06,0.01-0.07,0.03
		c-0.01,0.01-0.15,0.17-0.44,0.15c-0.52-0.02-0.68-1-0.71-1.6c0.09,0.11,0.21,0.21,0.35,0.27C28.43,15.16,28.55,15.18,28.69,15.22
		L28.69,15.22z M28.69,15.22"/>
	<path class="st74" d="M13.88,14.86c-0.03,0.6-0.19,1.57-0.71,1.6c-0.29,0.01-0.43-0.15-0.44-0.15c-0.02-0.02-0.05-0.03-0.07-0.03
		l-0.2,0.01l0.04-0.12c0.01-0.03,0-0.06-0.03-0.08c-0.01-0.01-0.29-0.22-0.12-0.5c0.13-0.21,0.55-0.31,0.85-0.38
		c0.14-0.03,0.25-0.06,0.33-0.09C13.67,15.06,13.79,14.96,13.88,14.86L13.88,14.86z M13.88,14.86"/>
	<path class="st1" d="M14.06,14.59c0-0.03-0.03-0.06-0.07-0.07c-0.01,0-0.01,0-0.02,0c-0.03,0-0.06,0.02-0.08,0.04
		c-0.08,0.15-0.24,0.35-0.44,0.43c-0.06,0.03-0.17,0.05-0.3,0.08c-0.33,0.08-0.79,0.19-0.96,0.45c-0.17,0.28-0.01,0.53,0.12,0.65
		l-0.05,0.17c-0.01,0.02,0,0.05,0.02,0.07c0.02,0.02,0.04,0.03,0.07,0.03l0.27-0.01c0.07,0.06,0.25,0.19,0.55,0.18
		C14.07,16.56,14.06,14.67,14.06,14.59L14.06,14.59z M13.53,15.12c0.14-0.06,0.26-0.16,0.35-0.27c-0.03,0.6-0.19,1.57-0.71,1.6
		c-0.29,0.01-0.43-0.15-0.44-0.15c-0.02-0.02-0.05-0.03-0.07-0.03l-0.2,0.01l0.04-0.12c0.01-0.03,0-0.06-0.03-0.08
		c-0.01-0.01-0.29-0.22-0.12-0.5c0.13-0.21,0.55-0.31,0.85-0.38C13.34,15.18,13.46,15.16,13.53,15.12L13.53,15.12z M13.53,15.12"/>
</g>
</svg>
