<?xml version="1.0" encoding="utf-8"?>
<!-- Generator: Adobe Illustrator 25.0.0, SVG Export Plug-In . SVG Version: 6.00 Build 0)  -->
<svg version="1.1" id="Capa_1" xmlns="http://www.w3.org/2000/svg" xmlns:xlink="http://www.w3.org/1999/xlink" x="0px" y="0px"
	 viewBox="0 0 32 18.62" style="enable-background:new 0 0 32 18.62;" xml:space="preserve">
<style type="text/css">
	.st0{fill:#FF4B55;}
	.st1{fill:#464655;}
	.st2{fill:#73AF00;}
	.st3{fill:#F5F5F5;}
	.st4{fill:#41479B;}
	.st5{fill:#FFF5DC;}
	.st6{fill:#D27D69;}
	.st7{fill:#FFE15A;}
	.st8{fill:#B95546;}
	.st9{fill:#DCBE82;}
	.st10{fill:#D2AA73;}
	.st11{fill:#4173CD;}
	.st12{fill:#82AFFF;}
	.st13{fill:#F09146;}
	.st14{fill:#FFB400;}
	.st15{fill:#965032;}
	.st16{fill:#BE7855;}
	.st17{fill:#FFBE3C;}
	.st18{fill:#EAF3F5;}
	.st19{fill:#8C5A28;}
	.st20{fill:#F0C850;}
	.st21{fill:#FF6E55;}
	.st22{fill:#FFBE5A;}
	.st23{fill:#3CC8FF;}
	.st24{fill:#825546;}
	.st25{fill:#FFD255;}
	.st26{fill:#FFD25A;}
	.st27{fill:#509664;}
	.st28{fill:#F0AA00;}
	.st29{fill:#A561CD;}
	.st30{fill:#B34900;}
	.st31{fill:#64B496;}
	.st32{fill:#FF6B71;}
	.st33{fill:#5F64B9;}
	.st34{fill:#F5F0F0;}
	.st35{fill:#5A4646;}
	.st36{fill:#E6E1CD;}
	.st37{fill:#FFD0AF;}
	.st38{fill:#FFAF94;}
	.st39{fill:#8CB400;}
	.st40{fill:#69C3FF;}
	.st41{fill:#009B64;}
	.st42{fill:#5AA0E6;}
	.st43{fill:#FFC88C;}
	.st44{fill:#E1E1E1;}
	.st45{fill:#966446;}
	.st46{fill:#BE915A;}
	.st47{fill:#B9B9B9;}
	.st48{fill:#F0C727;}
	.st49{fill:#50AF69;}
	.st50{fill:#FFE6E6;}
	.st51{fill:#FFB750;}
	.st52{fill:#FFC455;}
	.st53{fill:#FFCD55;}
	.st54{fill:#9BC800;}
	.st55{fill:#FFE14E;}
	.st56{fill:#FFB14E;}
	.st57{fill:#B46446;}
	.st58{fill:#5FA000;}
	.st59{fill:#F2DD30;}
	.st60{fill:#FFC855;}
	.st61{fill:#A0A0A0;}
	.st62{fill:#69B469;}
	.st63{fill:#F4E08F;}
	.st64{fill:#ECD077;}
	.st65{fill:#FCF0A8;}
	.st66{fill:#FAB446;}
	.st67{fill:#C8414B;}
	.st68{fill:#FF9B46;}
	.st69{fill:#FF9B55;}
	.st70{fill:#82C3D2;}
	.st71{fill:#5AA587;}
	.st72{fill:#CDCDCD;}
	.st73{fill:#B4A08C;}
	.st74{fill:#FFD250;}
	.st75{fill:#00C3A0;}
	.st76{fill:#00AADC;}
	.st77{fill:#732D37;}
	.st78{fill:#AAD264;}
	.st79{fill:#874150;}
	.st80{fill:#783C46;}
	.st81{fill:#FFB478;}
	.st82{fill:#9B4B5A;}
	.st83{fill:#FFCD5A;}
	.st84{fill:#FFAA5A;}
	.st85{fill:#FF875A;}
	.st86{fill:#E6B432;}
	.st87{fill:#C86464;}
	.st88{fill:#FFF5E1;}
	.st89{fill:#963C3C;}
	.st90{fill:#5A8250;}
	.st91{fill:#AFEBFF;}
	.st92{fill:#557DE6;}
	.st93{fill:#D23741;}
	.st94{fill:#64C86E;}
	.st95{fill:#873250;}
	.st96{fill:#41AA5A;}
	.st97{fill:#8CD7FF;}
	.st98{fill:#6EC86E;}
	.st99{fill:#FFF0E1;}
	.st100{fill:#FFC75A;}
	.st101{fill:#FFD350;}
	.st102{fill:#FFBE50;}
	.st103{fill:#A54B50;}
	.st104{fill:#C87878;}
	.st105{fill:#FF1722;}
	.st106{fill:#FFB441;}
	.st107{fill:#5064AA;}
	.st108{fill:#FFA0D2;}
	.st109{fill:#FF7350;}
	.st110{fill:#245DBD;}
	.st111{fill:#D35A10;}
	.st112{fill:#FFA033;}
	.st113{fill:#FF9480;}
	.st114{fill:#FFA0E4;}
	.st115{fill:#696E7D;}
	.st116{fill:#FFFCFF;}
	.st117{fill:#EBEBEB;}
	.st118{fill:#FF4B57;}
	.st119{fill:#D2D2D2;}
	.st120{fill:#F0C814;}
	.st121{fill:#F7B518;}
	.st122{fill:#2C2F38;}
	.st123{fill:#4C8056;}
	.st124{fill:#F0C419;}
	.st125{fill:#C03A2B;}
	.st126{fill:#EA3F3F;}
	.st127{fill:#E4E3E1;}
	.st128{fill:#2472B2;}
</style>
<g>
	<path class="st0" d="M21.31,0.04h10.11c0.3,0,0.55,0.22,0.55,0.49v17.53c0,0.27-0.25,0.49-0.55,0.49H21.31V0.04z M21.31,0.04"/>
	<rect x="10.66" y="0.04" class="st7" width="10.66" height="18.51"/>
	<path class="st4" d="M0.55,0.04h10.11v18.51H0.55c-0.3,0-0.55-0.22-0.55-0.49V0.53C0,0.26,0.25,0.04,0.55,0.04L0.55,0.04z
		 M0.55,0.04"/>
	<path class="st83" d="M18.21,12.44l-0.27,0.2l-1.25-1.35l0.27-0.2L18.21,12.44z M18.21,12.44"/>
	<path class="st22" d="M17.65,11.58l-0.55,0.39l-0.55-0.6l0.55-0.39L17.65,11.58z M17.65,11.58"/>
	<path class="st83" d="M15.16,11.08l0.27,0.2l-1.25,1.35l-0.27-0.2L15.16,11.08z M15.16,11.08"/>
	<path class="st22" d="M15.02,10.99l0.55,0.39l-0.55,0.6l-0.55-0.39L15.02,10.99z M15.02,10.99"/>
	<path class="st7" d="M15.62,11.59l-0.88,1.56l1.24,0.78v-2.19L15.62,11.59z M15.62,11.59"/>
	<path class="st83" d="M16.33,11.59l0.88,1.56l-1.24,0.78v-2.19L16.33,11.59z M16.33,11.59"/>
	<path class="st22" d="M13.5,11.59V7.53h0.53v3.13C14.03,11.12,13.5,11.59,13.5,11.59L13.5,11.59z M13.5,11.59"/>
	<path class="st83" d="M13.14,12.37V7.53h0.53v3.91C13.67,11.9,13.14,12.37,13.14,12.37L13.14,12.37z M13.14,12.37"/>
	<path class="st7" d="M12.79,13V7.53h0.53v4.53C13.32,12.53,12.79,13,12.79,13L12.79,13z M12.79,13"/>
	<path class="st0" d="M14.03,7.68v2.97c0,0.78,1.28,0.68,1.95,1.25c0.66-0.57,1.95-0.47,1.95-1.25V7.68H14.03z M14.03,7.68"/>
	<path class="st4" d="M14.03,9.4v1.25c0,0.78,1.28,0.68,1.95,1.25c0.66-0.57,1.95-0.47,1.95-1.25V9.4H14.03z M14.03,9.4"/>
	<path class="st7" d="M15.97,11.44l-0.53-0.31v-0.16l0.18-0.16V9.87l-0.53-0.31l0.53-0.63h0.18l0.18,0.16l0.18-0.16h0.18l0.53,0.63
		l-0.53,0.31v0.94l0.18,0.16v0.16L15.97,11.44z M15.97,11.44"/>
	<path class="st7" d="M15.26,7.84c0,0-0.71,0.16-0.71,0.78c0,0.63,0.71,0.94,0.71,0.94l0.35-0.47C14.56,8.78,15.26,7.84,15.26,7.84
		L15.26,7.84z M15.26,7.84"/>
	<path class="st7" d="M16.68,7.84c0,0,0.71,0.16,0.71,0.78c0,0.63-0.71,0.94-0.71,0.94l-0.35-0.47C17.39,8.78,16.68,7.84,16.68,7.84
		L16.68,7.84z M16.68,7.84"/>
	<path class="st7" d="M14.2,9.4l0.35,0.16l0.35-0.16l-0.35-0.16L14.2,9.4z M14.2,9.4"/>
	<path class="st7" d="M17.03,9.4l0.35,0.16l0.35-0.16l-0.35-0.16L17.03,9.4z M17.03,9.4"/>
	<path class="st7" d="M15.97,7.92l0.13,0.12l0.18,0l0,0.16l0.13,0.11l-0.13,0.11l0,0.16l-0.18,0L15.97,8.7l-0.13-0.12l-0.18,0
		l0-0.16l-0.13-0.11l0.13-0.11l0-0.16l0.18,0L15.97,7.92z M15.97,7.92"/>
	<path class="st7" d="M14.77,10.09l0.13,0.13l0.18-0.06c0.09-0.03,0.18,0.06,0.13,0.13l-0.1,0.15l0.12,0.13
		c0.06,0.07-0.01,0.17-0.1,0.15l-0.19-0.04l-0.1,0.14c-0.05,0.07-0.18,0.05-0.19-0.04l-0.02-0.17l-0.18-0.04
		c-0.1-0.02-0.11-0.14-0.02-0.17l0.17-0.07l-0.01-0.17C14.58,10.07,14.71,10.02,14.77,10.09L14.77,10.09z M14.77,10.09"/>
	<path class="st7" d="M17.13,10.44c0.04-0.18,0.2-0.3,0.4-0.32c-0.04-0.02-0.08-0.03-0.13-0.04c-0.25-0.04-0.49,0.1-0.54,0.32
		c-0.05,0.22,0.11,0.43,0.36,0.47c0.05,0.01,0.09,0.01,0.14,0C17.19,10.79,17.09,10.62,17.13,10.44L17.13,10.44z M17.13,10.44"/>
	<path class="st7" d="M15.26,7.68l0.35-1.56l-0.71-0.47l0.18-0.16h0.35c0,0,0.18-0.16,0.53-0.16c0.35,0,0.71,0.16,0.71,0.63
		c0,0.47,0.18,1.72,0.18,1.72H15.26z M15.26,7.68"/>
	<path class="st84" d="M14.03,7.06c-0.39,0-0.71,0.28-0.71,0.63h1.41C14.73,7.34,14.42,7.06,14.03,7.06L14.03,7.06z M14.03,7.06"/>
	<path class="st22" d="M13.85,7.68h-1.06V6.64c0-0.2,0.19-0.37,0.41-0.37h0.23c0.23,0,0.41,0.16,0.41,0.37V7.68z M13.85,7.68"/>
	<path class="st22" d="M18.45,11.59V7.53h-0.53v3.13C17.92,11.12,18.45,11.59,18.45,11.59L18.45,11.59z M18.45,11.59"/>
	<path class="st83" d="M18.8,12.37V7.53h-0.53v3.91C18.27,11.9,18.8,12.37,18.8,12.37L18.8,12.37z M18.8,12.37"/>
	<path class="st7" d="M19.16,13V7.53h-0.53v4.53C18.63,12.53,19.16,13,19.16,13L19.16,13z M19.16,13"/>
	<path class="st84" d="M17.92,7.06c0.39,0,0.71,0.28,0.71,0.63h-1.41C17.21,7.34,17.53,7.06,17.92,7.06L17.92,7.06z M17.92,7.06"/>
	<path class="st22" d="M18.09,7.68h1.06V6.64c0-0.2-0.19-0.37-0.41-0.37h-0.23c-0.23,0-0.41,0.16-0.41,0.37V7.68z M18.09,7.68"/>
	<path class="st84" d="M19.92,9.34l0.23,0.12l-2.48,3.59l-0.23-0.12L19.92,9.34z M19.92,9.34"/>
	<path class="st7" d="M18.42,12.36l-0.44,0.49l-0.43-0.31l0.44-0.49L18.42,12.36z M18.42,12.36"/>
	<path class="st83" d="M19.84,9.3l0.38,0.2l-0.53,0.77l-0.38-0.2L19.84,9.3z M19.84,9.3"/>
	<path class="st2" d="M12.13,9.52l2.5,3.41l-0.15,0.08l-2.5-3.41L12.13,9.52z M12.13,9.52"/>
	<path class="st2" d="M13.7,11.14c-0.06,0.06-0.11,0.16-0.12,0.27c-0.09-0.08-0.19-0.13-0.28-0.14c-0.02,0.08-0.01,0.18,0.03,0.28
		c-0.12-0.04-0.24-0.04-0.33-0.02c0.03,0.12,0.13,0.24,0.29,0.33c0.16,0.09,0.34,0.11,0.46,0.07l0.04-0.02
		c0.09-0.09,0.14-0.24,0.11-0.4C13.89,11.34,13.81,11.21,13.7,11.14L13.7,11.14z M13.7,11.14"/>
	<path class="st0" d="M13.96,11.93c0,0.09-0.08,0.16-0.18,0.16c-0.1,0-0.18-0.07-0.18-0.16c0-0.09,0.08-0.16,0.18-0.16
		C13.88,11.77,13.96,11.84,13.96,11.93L13.96,11.93z M13.96,11.93"/>
	<path class="st2" d="M13.03,10.22c-0.06,0.06-0.11,0.16-0.12,0.27c-0.09-0.08-0.19-0.13-0.28-0.14c-0.02,0.08-0.01,0.18,0.03,0.28
		c-0.12-0.04-0.24-0.04-0.33-0.02c0.03,0.12,0.13,0.24,0.29,0.33c0.16,0.09,0.34,0.11,0.46,0.07L13.13,11
		c0.09-0.09,0.14-0.24,0.11-0.4C13.22,10.43,13.14,10.29,13.03,10.22L13.03,10.22z M13.03,10.22"/>
	<path class="st0" d="M13.29,11.01c0,0.09-0.08,0.16-0.18,0.16c-0.1,0-0.18-0.07-0.18-0.16c0-0.09,0.08-0.16,0.18-0.16
		C13.21,10.85,13.29,10.92,13.29,11.01L13.29,11.01z M13.29,11.01"/>
	<path class="st2" d="M12.36,9.3c-0.06,0.06-0.11,0.16-0.12,0.27c-0.09-0.08-0.19-0.13-0.28-0.14c-0.02,0.08-0.01,0.18,0.03,0.28
		c-0.12-0.04-0.24-0.04-0.33-0.02c0.03,0.12,0.13,0.24,0.29,0.33c0.16,0.09,0.34,0.11,0.46,0.07l0.04-0.02
		c0.09-0.09,0.14-0.24,0.11-0.4C12.55,9.51,12.46,9.37,12.36,9.3L12.36,9.3z M12.36,9.3"/>
	<path class="st0" d="M12.62,10.09c0,0.09-0.08,0.16-0.18,0.16c-0.1,0-0.18-0.07-0.18-0.16c0-0.09,0.08-0.16,0.18-0.16
		C12.54,9.93,12.62,10,12.62,10.09L12.62,10.09z M12.62,10.09"/>
	<path class="st7" d="M14.13,12.06l0.44,0.49l-0.43,0.31l-0.44-0.49L14.13,12.06z M14.13,12.06"/>
	<rect x="14.91" y="5.03" class="st7" width="0.18" height="1.09"/>
	<rect x="14.73" y="5.18" class="st7" width="0.53" height="0.16"/>
	<path class="st85" d="M14.91,5.65L15.44,6V5.5h-0.35L14.91,5.65z M14.91,5.65"/>
	<path class="st84" d="M15.09,5.03v0.16h0.18v0.16h-0.18V5.5h0.35c0,0,0.18-0.16,0.53-0.16c0.35,0,0.71,0.16,0.71,0.63
		c0,0.47,0.18,1.72,0.18,1.72h0.35c0-0.35,0.32-0.63,0.71-0.63c0.06,0,0.12,0.01,0.18,0.02V6.75c0-0.26,0.24-0.47,0.53-0.47
		c0.29,0,0.53,0.21,0.53,0.47v3.7l0.23-0.33l-0.08-0.04l0.53-0.77l0.08,0.04l0.11,0.06l0.19,0.1l-0.53,0.77l-0.08-0.04l-0.46,0.66
		V13c0,0-0.42-0.37-0.51-0.79c-0.06-0.07-0.14-0.17-0.2-0.27l-0.2,0.29l0.19,0.13l-0.44,0.49l-0.12-0.08l-0.2,0.29l-0.23-0.12
		l0.22-0.32l-0.11-0.07l0.15-0.17l-0.46-0.5l-0.14,0.1l-0.41-0.45c-0.11,0.04-0.22,0.08-0.32,0.13l0.85,1.49l-1.24,0.78l-1.24-0.78
		l0.85-1.49c-0.06-0.03-0.13-0.06-0.19-0.08l-0.37,0.4l-0.14-0.1l-0.46,0.5l0.15,0.17l-0.15,0.11l0.21,0.28l-0.15,0.08l-0.2-0.27
		l-0.14,0.1l-0.44-0.49l0.2-0.14l-0.11-0.14c0,0,0,0-0.01,0c-0.06,0-0.11-0.02-0.15-0.07c-0.01-0.02-0.02-0.04-0.03-0.06
		c-0.03,0-0.07-0.01-0.1-0.01c-0.07,0.11-0.14,0.2-0.21,0.28C13.21,12.62,12.79,13,12.79,13v-1.99c-0.05-0.01-0.11-0.03-0.16-0.06
		c-0.16-0.09-0.27-0.21-0.29-0.33c0.04-0.01,0.08-0.02,0.12-0.02c0.06,0,0.13,0.01,0.2,0.03c-0.02-0.05-0.04-0.11-0.04-0.15
		l-0.17-0.24c0,0,0,0-0.01,0c-0.06,0-0.11-0.02-0.15-0.07c-0.01-0.02-0.02-0.04-0.03-0.06c-0.1-0.01-0.21-0.03-0.31-0.09
		c-0.16-0.09-0.27-0.21-0.29-0.33c0.04-0.01,0.08-0.02,0.12-0.02c0.06,0,0.13,0.01,0.2,0.03c-0.04-0.1-0.05-0.2-0.03-0.28
		c0.09,0.01,0.19,0.06,0.28,0.14c0.01-0.11,0.05-0.21,0.12-0.27c0.11,0.07,0.19,0.21,0.22,0.37c0.01,0.11,0,0.2-0.04,0.28
		c0.02,0.01,0.04,0.03,0.05,0.05c0.04,0.05,0.03,0.11,0.01,0.15l0.17,0.24c0.01,0,0.01,0.01,0.02,0.01V6.75
		c0-0.26,0.24-0.47,0.53-0.47c0.29,0,0.53,0.21,0.53,0.47v0.33c0.06-0.01,0.12-0.02,0.18-0.02c0.39,0,0.71,0.28,0.71,0.63h0.53
		l0.35-1.56l-0.53-0.35v0.35h-0.18V5.34h-0.18V5.18h0.18V5.03H15.09 M17.93,12.13l0.07-0.07l0.03,0.02l0.29-0.41
		c-0.02-0.08-0.04-0.15-0.04-0.23v-0.03c-0.15-0.18-0.35-0.47-0.35-0.75c0,0.33-0.23,0.5-0.54,0.63l0.27,0.3l-0.14,0.1L17.93,12.13
		 M14.03,12.13l0.09-0.07l0.07,0.07l0.42-0.45l-0.14-0.1l0.22-0.24c-0.38-0.14-0.67-0.31-0.67-0.68c0,0.21-0.11,0.42-0.22,0.59
		c0.06,0.07,0.1,0.16,0.11,0.27c0.01,0.11,0,0.2-0.04,0.28c0.02,0.01,0.04,0.03,0.05,0.05c0.04,0.05,0.03,0.11,0.01,0.15
		L14.03,12.13 M15.09,4.91h-0.18c-0.07,0-0.13,0.05-0.13,0.12v0.04h-0.04c-0.07,0-0.13,0.05-0.13,0.12v0.16
		c0,0.06,0.06,0.12,0.13,0.12h0.04v0.66c0,0.06,0.06,0.12,0.13,0.12h0.18c0.07,0,0.13-0.05,0.13-0.12V6l0.14,0.09l0.11,0.07
		l-0.32,1.4h-0.3c-0.06-0.35-0.41-0.63-0.83-0.63c-0.01,0-0.03,0-0.04,0v-0.2c0-0.32-0.3-0.59-0.66-0.59
		c-0.37,0-0.66,0.26-0.66,0.59v2.74c-0.05-0.12-0.13-0.21-0.22-0.28c-0.02-0.01-0.05-0.02-0.08-0.02c-0.04,0-0.07,0.01-0.1,0.04
		c-0.04,0.04-0.07,0.09-0.1,0.15c-0.06-0.03-0.12-0.05-0.18-0.05c-0.01,0-0.01,0-0.02,0c-0.06,0-0.11,0.03-0.13,0.09
		c-0.02,0.05-0.02,0.11-0.02,0.16c-0.01,0-0.02,0-0.03,0c-0.06,0-0.11,0.01-0.16,0.02c-0.06,0.02-0.1,0.08-0.09,0.13
		c0.03,0.15,0.17,0.3,0.36,0.4c0.09,0.05,0.18,0.08,0.28,0.09c0,0.01,0.01,0.01,0.01,0.02c0.04,0.06,0.11,0.1,0.19,0.12l0.1,0.13
		c0,0-0.01,0-0.01,0c-0.06,0-0.11,0.01-0.16,0.02c-0.06,0.02-0.1,0.08-0.09,0.13c0.03,0.15,0.17,0.3,0.36,0.4
		c0.03,0.02,0.06,0.03,0.1,0.04V13c0,0.05,0.03,0.09,0.08,0.11c0.02,0.01,0.03,0.01,0.05,0.01c0.03,0,0.07-0.01,0.09-0.03
		c0.02-0.02,0.43-0.39,0.54-0.82c0.04-0.05,0.09-0.1,0.12-0.16c0.04,0.04,0.1,0.07,0.16,0.09l0.01,0.01l-0.1,0.07
		c-0.03,0.02-0.05,0.05-0.05,0.08c0,0.03,0.01,0.06,0.03,0.09l0.44,0.49c0.02,0.02,0.05,0.04,0.09,0.04c0,0,0.01,0,0.01,0
		c0.03,0,0.06-0.01,0.08-0.03l0.03-0.02l0.12,0.16c0.02,0.03,0.05,0.04,0.08,0.05c0.01,0,0.02,0,0.03,0c0.03,0,0.05-0.01,0.07-0.02
		l0.09-0.05l-0.02,0.03c-0.03,0.05-0.01,0.11,0.04,0.15l1.24,0.78c0.02,0.01,0.05,0.02,0.08,0.02c0.03,0,0.05-0.01,0.08-0.02
		l1.24-0.78c0.05-0.03,0.07-0.1,0.04-0.15l-0.79-1.39c0.03-0.01,0.07-0.03,0.1-0.04L17,12.05c0.03,0.03,0.06,0.04,0.1,0.04
		c0.03,0,0.06-0.01,0.08-0.03l0.03-0.02l0.31,0.34l-0.08,0.09c-0.02,0.02-0.03,0.06-0.03,0.09c0,0.03,0.02,0.06,0.05,0.08l0.01,0.01
		l-0.16,0.23c-0.04,0.06-0.02,0.13,0.04,0.16l0.23,0.12c0.02,0.01,0.04,0.02,0.07,0.02c0.01,0,0.02,0,0.03,0
		c0.03-0.01,0.06-0.03,0.08-0.05l0.12-0.18c0.02,0.02,0.05,0.03,0.08,0.03c0.04,0,0.08-0.02,0.1-0.04l0.44-0.49
		c0.02-0.02,0.03-0.04,0.03-0.06c0.14,0.38,0.49,0.69,0.51,0.7c0.03,0.02,0.06,0.03,0.09,0.03c0.02,0,0.03,0,0.05-0.01
		c0.05-0.02,0.08-0.06,0.08-0.11v-2.07l0.37-0.54c0.01,0,0.02,0,0.03,0c0.04,0,0.09-0.02,0.11-0.06l0.53-0.77
		c0.02-0.03,0.02-0.06,0.02-0.09c-0.01-0.03-0.03-0.06-0.06-0.07L20.1,9.3l-0.11-0.06L19.91,9.2c-0.02-0.01-0.05-0.02-0.07-0.02
		c-0.04,0-0.09,0.02-0.11,0.06l-0.44,0.64V6.75c0-0.32-0.3-0.59-0.66-0.59c-0.37,0-0.66,0.26-0.66,0.59v0.2c-0.01,0-0.03,0-0.04,0
		c-0.42,0-0.77,0.27-0.83,0.63h-0.11c-0.04-0.31-0.16-1.22-0.16-1.6c0-0.55-0.43-0.74-0.84-0.74c-0.3,0-0.49,0.1-0.58,0.16h0
		c0-0.01,0.01-0.03,0.01-0.04V5.18c0-0.06-0.06-0.12-0.13-0.12h-0.04V5.03C15.22,4.96,15.16,4.91,15.09,4.91L15.09,4.91z
		 M13.96,11.24c0.03-0.05,0.06-0.1,0.09-0.16c0.11,0.13,0.27,0.22,0.44,0.3l-0.12,0.13c-0.02,0.02-0.03,0.05-0.03,0.09
		c0,0.03,0.02,0.06,0.05,0.08l0.03,0.02l-0.24,0.26c-0.01-0.01-0.03-0.01-0.04-0.01c0,0-0.01,0-0.01,0c-0.01,0-0.03,0-0.04,0.01
		c0.01-0.06-0.01-0.12-0.05-0.17c0-0.01-0.01-0.01-0.01-0.02c0.02-0.08,0.03-0.17,0.02-0.26C14.04,11.41,14,11.32,13.96,11.24
		L13.96,11.24z M17.58,11.32c0.12-0.06,0.23-0.14,0.32-0.24c0.07,0.14,0.16,0.26,0.24,0.36c0,0.07,0.01,0.13,0.03,0.2l-0.2,0.29
		c-0.01,0-0.02,0.01-0.03,0.01L17.7,11.7l0.03-0.02c0.03-0.02,0.04-0.05,0.05-0.08c0-0.03-0.01-0.06-0.03-0.09L17.58,11.32z
		 M15.02,12.09c0.04,0,0.08-0.01,0.1-0.04l0.22-0.24l-0.61,1.07c0,0,0-0.01-0.01-0.01l-0.14-0.19l0.06-0.04
		c0.03-0.02,0.05-0.05,0.05-0.08c0-0.03-0.01-0.06-0.03-0.09l-0.08-0.09l0.31-0.34l0.03,0.02C14.96,12.09,14.99,12.09,15.02,12.09
		L15.02,12.09z M18.41,12.2l0.03-0.04c0.03,0.03,0.05,0.07,0.08,0.1c0,0.01,0,0.02,0.01,0.03c-0.01-0.01-0.01-0.01-0.02-0.02
		L18.41,12.2z M18.41,12.2"/>
</g>
</svg>
