<?xml version="1.0" encoding="utf-8"?>
<!-- Generator: Adobe Illustrator 25.0.1, SVG Export Plug-In . SVG Version: 6.00 Build 0)  -->
<svg version="1.1" id="Layer_1" xmlns="http://www.w3.org/2000/svg" xmlns:xlink="http://www.w3.org/1999/xlink" x="0px" y="0px"
	 viewBox="0 0 32 20" style="enable-background:new 0 0 32 20;" xml:space="preserve">
<style type="text/css">
	.st0{fill:#41479B;}
	.st1{fill:#F5F5F5;}
	.st2{fill:#FF9B55;}
</style>
<g>
	<path class="st0" d="M31.45,20H0.55C0.25,20,0,19.76,0,19.47V0.53C0,0.24,0.25,0,0.55,0h30.9C31.75,0,32,0.24,32,0.53v18.95
		C32,19.76,31.75,20,31.45,20z"/>
	<path class="st1" d="M0.25,19.9L32,7.37V3.68L0,19.47C0,19.66,0.1,19.81,0.25,19.9z"/>
	<path class="st2" d="M31.79,0.12L0,18.95v0.53L32,3.68V0.53C32,0.36,31.92,0.22,31.79,0.12z"/>
	<polygon class="st1" points="9.12,7.27 12.69,6.84 9.12,6.42 10.93,5.36 8.68,5.88 10.05,4.1 8.18,5.41 8.73,3.26 7.62,4.99 
		7.17,1.58 6.73,4.99 5.62,3.26 6.17,5.41 4.3,4.1 5.67,5.88 3.42,5.36 5.23,6.42 1.66,6.84 5.23,7.27 3.42,8.33 5.67,7.8 4.3,9.58 
		6.17,8.28 5.62,10.43 6.73,8.7 7.17,12.11 7.62,8.7 8.73,10.43 8.18,8.28 10.05,9.58 8.68,7.8 10.93,8.33 	"/>
</g>
</svg>
