<?xml version="1.0" encoding="utf-8"?>
<!-- Generator: Adobe Illustrator 25.0.0, SVG Export Plug-In . SVG Version: 6.00 Build 0)  -->
<svg version="1.1" id="Capa_1" xmlns="http://www.w3.org/2000/svg" xmlns:xlink="http://www.w3.org/1999/xlink" x="0px" y="0px"
	 viewBox="0 0 32 18.62" style="enable-background:new 0 0 32 18.62;" xml:space="preserve">
<style type="text/css">
	.st0{fill:#FF4B55;}
	.st1{fill:#464655;}
	.st2{fill:#73AF00;}
	.st3{fill:#F5F5F5;}
	.st4{fill:#41479B;}
	.st5{fill:#FFF5DC;}
	.st6{fill:#D27D69;}
	.st7{fill:#FFE15A;}
	.st8{fill:#B95546;}
	.st9{fill:#DCBE82;}
	.st10{fill:#D2AA73;}
	.st11{fill:#4173CD;}
	.st12{fill:#82AFFF;}
	.st13{fill:#F09146;}
	.st14{fill:#FFB400;}
	.st15{fill:#965032;}
	.st16{fill:#BE7855;}
	.st17{fill:#FFBE3C;}
	.st18{fill:#EAF3F5;}
	.st19{fill:#8C5A28;}
	.st20{fill:#F0C850;}
	.st21{fill:#FF6E55;}
	.st22{fill:#FFBE5A;}
	.st23{fill:#3CC8FF;}
	.st24{fill:#825546;}
	.st25{fill:#FFD255;}
	.st26{fill:#FFD25A;}
	.st27{fill:#509664;}
	.st28{fill:#F0AA00;}
	.st29{fill:#A561CD;}
	.st30{fill:#B34900;}
	.st31{fill:#64B496;}
	.st32{fill:#FF6B71;}
	.st33{fill:#5F64B9;}
	.st34{fill:#F5F0F0;}
	.st35{fill:#5A4646;}
	.st36{fill:#E6E1CD;}
	.st37{fill:#FFD0AF;}
	.st38{fill:#FFAF94;}
	.st39{fill:#8CB400;}
	.st40{fill:#69C3FF;}
	.st41{fill:#009B64;}
	.st42{fill:#5AA0E6;}
	.st43{fill:#FFC88C;}
	.st44{fill:#E1E1E1;}
	.st45{fill:#966446;}
	.st46{fill:#BE915A;}
	.st47{fill:#B9B9B9;}
	.st48{fill:#F0C727;}
	.st49{fill:#50AF69;}
	.st50{fill:#FFE6E6;}
	.st51{fill:#FFB750;}
	.st52{fill:#FFC455;}
	.st53{fill:#FFCD55;}
	.st54{fill:#9BC800;}
	.st55{fill:#FFE14E;}
	.st56{fill:#FFB14E;}
	.st57{fill:#B46446;}
	.st58{fill:#5FA000;}
	.st59{fill:#F2DD30;}
	.st60{fill:#FFC855;}
	.st61{fill:#A0A0A0;}
	.st62{fill:#69B469;}
	.st63{fill:#F4E08F;}
	.st64{fill:#ECD077;}
	.st65{fill:#FCF0A8;}
	.st66{fill:#FAB446;}
	.st67{fill:#C8414B;}
	.st68{fill:#FF9B46;}
	.st69{fill:#FF9B55;}
	.st70{fill:#82C3D2;}
	.st71{fill:#5AA587;}
	.st72{fill:#CDCDCD;}
	.st73{fill:#B4A08C;}
	.st74{fill:#FFD250;}
	.st75{fill:#00C3A0;}
	.st76{fill:#00AADC;}
	.st77{fill:#732D37;}
	.st78{fill:#AAD264;}
	.st79{fill:#874150;}
	.st80{fill:#783C46;}
	.st81{fill:#FFB478;}
	.st82{fill:#9B4B5A;}
	.st83{fill:#FFCD5A;}
	.st84{fill:#FFAA5A;}
	.st85{fill:#FF875A;}
	.st86{fill:#E6B432;}
	.st87{fill:#C86464;}
	.st88{fill:#FFF5E1;}
	.st89{fill:#963C3C;}
	.st90{fill:#5A8250;}
	.st91{fill:#AFEBFF;}
	.st92{fill:#557DE6;}
	.st93{fill:#D23741;}
	.st94{fill:#64C86E;}
	.st95{fill:#873250;}
	.st96{fill:#41AA5A;}
	.st97{fill:#8CD7FF;}
	.st98{fill:#6EC86E;}
	.st99{fill:#FFF0E1;}
	.st100{fill:#FFC75A;}
	.st101{fill:#FFD350;}
	.st102{fill:#FFBE50;}
	.st103{fill:#A54B50;}
	.st104{fill:#C87878;}
	.st105{fill:#FF1722;}
	.st106{fill:#FFB441;}
	.st107{fill:#5064AA;}
	.st108{fill:#FFA0D2;}
	.st109{fill:#FF7350;}
	.st110{fill:#245DBD;}
	.st111{fill:#D35A10;}
	.st112{fill:#FFA033;}
	.st113{fill:#FF9480;}
	.st114{fill:#FFA0E4;}
	.st115{fill:#696E7D;}
	.st116{fill:#FFFCFF;}
	.st117{fill:#EBEBEB;}
	.st118{fill:#FF4B57;}
	.st119{fill:#D2D2D2;}
	.st120{fill:#F0C814;}
	.st121{fill:#F7B518;}
	.st122{fill:#2C2F38;}
	.st123{fill:#4C8056;}
	.st124{fill:#F0C419;}
	.st125{fill:#C03A2B;}
	.st126{fill:#EA3F3F;}
	.st127{fill:#E4E3E1;}
	.st128{fill:#2472B2;}
</style>
<g>
	<rect x="1.1" y="1.02" class="st67" width="29.76" height="16.56"/>
	<path class="st86" d="M31.42,0.04H0.55C0.25,0.04,0,0.26,0,0.53v17.53c0,0.27,0.25,0.49,0.55,0.49h30.87c0.3,0,0.55-0.22,0.55-0.49
		V0.53C31.97,0.26,31.72,0.04,31.42,0.04L31.42,0.04z M30.87,17.58H1.1V1.02h29.76V17.58z M30.87,17.58"/>
	<path class="st4" d="M21.35,12.35c0,0.41-0.38,0.74-0.84,0.74c-0.46,0-0.84-0.33-0.84-0.74c0-0.41,0.38-0.74,0.84-0.74
		C20.97,11.61,21.35,11.94,21.35,12.35L21.35,12.35z M21.35,12.35"/>
	<path class="st86" d="M21.98,8.1c-0.62,0.46-1.03,0.48-1.03,0.48c1.1-0.4,0.98-1.15,0.98-1.15c-0.52,0.6-1.05,0.77-1.05,0.77
		c1.1-0.66,0.93-1.55,0.93-1.55c-0.36,0.71-0.82,0.98-0.82,0.98c0.92-1.08,0.47-1.77,0.47-1.77c-0.36,1-0.66,1.29-0.66,1.29
		C21.5,5.48,20.9,5,20.9,5c0,0.89-0.38,1.4-0.38,1.4c0.39-1.18-0.22-1.85-0.22-1.85s-0.01,0.96-0.22,1.46
		C20.03,5.95,20,5.95,20,5.95c-0.11,0.62-0.48,1.05-0.64,1.21c-0.04-0.15-0.14-0.2-0.14-0.2s-0.02,0.15-0.17,0.37
		c-0.1,0.15-0.57,0.49-0.65,0.79c-0.06,0.24,0.21,0.44,0.3,0.49c0.09,0.05,0.18,0.14,0.14,0.28c-0.04,0.14-0.32,0.13-0.52,0.12
		c-0.2,0-0.23,0.29-0.45,0.28l-0.04,0.22l-0.09,0.02c0,0-0.92,1.62-1,2.17l-0.68,0.08l-0.68-0.08c-0.08-0.55-1-2.17-1-2.17
		l-0.09-0.02l-0.04-0.22C14.03,9.3,14,9,13.8,9.01c-0.2,0-0.49,0.02-0.52-0.12c-0.04-0.14,0.05-0.23,0.14-0.28
		c0.09-0.05,0.36-0.25,0.3-0.49c-0.08-0.3-0.55-0.64-0.65-0.79c-0.15-0.22-0.17-0.37-0.17-0.37s-0.11,0.05-0.14,0.2
		c-0.16-0.16-0.54-0.6-0.64-1.21c0,0-0.03-0.01-0.08,0.06c-0.21-0.5-0.22-1.46-0.22-1.46s-0.62,0.68-0.22,1.85
		c0,0-0.38-0.51-0.38-1.4c0,0-0.6,0.48,0.1,2.15c0,0-0.3-0.29-0.66-1.29c0,0-0.45,0.7,0.47,1.77c0,0-0.46-0.28-0.82-0.98
		c0,0-0.17,0.89,0.93,1.55c0,0-0.53-0.17-1.05-0.77c0,0-0.11,0.75,0.98,1.15c0,0-0.41-0.02-1.03-0.48c0,0-0.11,0.67,1.32,1.01
		c0,0-0.58-0.01-1.18-0.36c0,0-0.02,0.66,1.21,0.79c0,0-0.4,0.05-0.86-0.09c0,0,0.02,0.53,1.08,0.6c0,0-0.42,0.03-0.69-0.03
		c0,0,0.03,0.55,0.87,0.45c0,0-0.28,0.08-0.38,0.11c0,0,0.02,0.45,0.89,0.29c0,0-0.16,0.09-0.37,0.11c0,0,0.18,0.37,0.91,0.21
		l-0.15,0.14c0,0,0.57,0.29,1-0.11l-0.16,0.25c0,0,0.37,0.12,0.6-0.2c0,0-0.06,0.48-0.83,0.56c0,0,0.03,0.1,0.06,0.14
		c0,0-0.05,0.08-0.49,0.15c0,0,0.09,0.13,0.19,0.16c0,0-0.19,0.14-0.3,0.17c0,0,0.16,0.07,0.27,0.09c0,0-0.23,0.2-0.51,0.2
		c-0.28,0-0.79-0.02-0.79-0.02s-0.01-0.24-0.14-0.45c-0.13-0.21-0.17-0.22-0.17-0.22s0.03-0.17-0.05-0.24
		c-0.08-0.07-0.13-0.1-0.13-0.1s0.04-0.33-0.08-0.54c-0.12-0.21-0.55-0.66-0.57-1c-0.02-0.34-0.01-0.46-0.01-0.46l-0.13,0.03
		l-0.09-0.16l0.15-0.01l-0.06-0.24l-0.2,0.07l-0.03-0.21l-0.24,0.09l0.12,0.19L9.99,9.51l0.13,0.22l0.16-0.09l0.04,0.19
		c0,0-0.1,0.02-0.15,0.1c0,0,0.27,0.16,0.35,0.35c0.13,0.3,0.09,0.98,0.27,1.18c0.18,0.2,0.32,0.34,0.32,0.34s-0.05,0.14,0.01,0.21
		c0.06,0.08,0.14,0.1,0.14,0.1s-0.05,0.31,0.08,0.51c0.13,0.2,0.2,0.25,0.2,0.25s-0.46,0.25-0.14,0.54c0,0-0.04,0.26,0.27,0.33
		c0,0,0.02,0.21,0.28,0.18c0,0,0.13-0.03,0.16,0.02c0.03,0.06,0,0.39,0,0.39s0.12-0.01,0.2-0.06l0.24,0.11l0.01-0.24l0.3-0.11
		c0,0-0.13,0.02-0.4-0.2c0,0,0.04-0.02,0.08-0.21c0,0,0.21-0.15,0.26-0.27c0.04-0.12,0.34-0.39,0.69-0.47l0.05,0.19
		c0,0,0.5-0.39,0.71-0.41l0.17,0.2c0,0,0.64-0.84,0.93-0.99c-0.02,0.07,0.14,0.08-0.22,0.42c-0.35,0.35-0.13,0.62-0.13,0.62
		c-0.22,0.16-0.17,0.3-0.2,0.47c-0.03,0.16-0.75,0.59-0.75,0.59c0.23,0.26,0.49,0.2,0.49,0.2c-0.14,0.08-0.1,0.36-0.1,0.36
		c0.21,0.05,0.42-0.03,0.42-0.03c-0.07,0.17,0.04,0.29,0.04,0.29c0.13-0.07,0.43-0.12,0.43-0.12c-0.04,0.3,0.18,0.46,0.18,0.46
		l0.19-0.18c0.03,0.34,0.37,0.53,0.37,0.53s0.34-0.19,0.37-0.53l0.19,0.18c0,0,0.22-0.16,0.18-0.46c0,0,0.3,0.04,0.43,0.12
		c0,0,0.11-0.12,0.04-0.29c0,0,0.21,0.08,0.41,0.03c0,0,0.04-0.28-0.1-0.36c0,0,0.26,0.06,0.49-0.2c0,0-0.73-0.42-0.75-0.59
		c-0.03-0.16,0.02-0.31-0.2-0.47c0,0,0.22-0.28-0.13-0.62c-0.35-0.35-0.19-0.36-0.22-0.42c0.28,0.15,0.93,0.99,0.93,0.99l0.17-0.2
		c0.21,0.02,0.71,0.41,0.71,0.41l0.05-0.19l0.01-0.01c0.26,0.12,0.69,0.29,0.86,0.41c0.19,0.13,0.34,0.14,0.79,0
		c0.45-0.13,1.28-0.34,1.16-0.59c-0.01-0.01-0.01-0.02-0.02-0.03c0.02-0.06,0.03-0.17-0.1-0.27c0,0,0,0.03,0,0.06l-0.43-0.14
		c-0.01-0.03-0.04-0.07-0.08-0.09c0,0,0,0.03-0.01,0.07l-0.11-0.04l0.22-0.54c-0.02-0.01-0.04-0.01-0.05-0.02
		c0-0.05,0.01-0.12,0.03-0.19c0.05,0.02,0.1,0.04,0.14,0.06l0.06-0.2c0,0-0.07,0-0.15-0.02c0.02-0.06,0.05-0.11,0.08-0.15
		l-0.29-0.08c0,0,0.01,0.08,0,0.17c-0.06-0.02-0.11-0.04-0.15-0.08l-0.07,0.22c0.02,0,0.1,0.01,0.19,0.02
		c-0.02,0.06-0.05,0.12-0.09,0.17c-0.01,0-0.02,0-0.03-0.01l-0.21,0.53l-0.58-0.19c-0.02,0.03-0.04,0.07-0.06,0.11
		c0-0.01,0.01-0.01,0.01-0.02c0,0-0.22,0.1-0.22,0.25c-0.04,0.01-0.08,0.04-0.1,0.09c-0.07,0.15,0.34,0.49,0.24,0.54
		c-0.1,0.04-0.6-0.32-0.68-0.39c0.1-0.02,0.26-0.08,0.26-0.08c-0.1-0.03-0.29-0.17-0.29-0.17c0.1-0.04,0.19-0.16,0.19-0.16
		c-0.44-0.07-0.49-0.15-0.49-0.15c0.03-0.04,0.06-0.14,0.06-0.14c-0.76-0.09-0.83-0.56-0.83-0.56c0.23,0.32,0.6,0.2,0.6,0.2
		l-0.16-0.25c0.43,0.4,1,0.11,1,0.11l-0.15-0.14c0.73,0.16,0.91-0.21,0.91-0.21c-0.21-0.03-0.37-0.11-0.37-0.11
		c0.88,0.16,0.89-0.29,0.89-0.29c-0.09-0.02-0.38-0.11-0.38-0.11c0.84,0.09,0.87-0.45,0.87-0.45c-0.27,0.06-0.69,0.03-0.69,0.03
		c1.07-0.07,1.08-0.6,1.08-0.6c-0.45,0.14-0.86,0.09-0.86,0.09c1.22-0.13,1.21-0.79,1.21-0.79c-0.6,0.35-1.18,0.36-1.18,0.36
		C22.09,8.76,21.98,8.1,21.98,8.1L21.98,8.1z M20.74,12.87c-0.06-0.08,0.08-0.16,0.14-0.24l0.24,0.08
		C21.04,12.8,20.8,12.96,20.74,12.87L20.74,12.87z M20.58,12.53c-0.08,0.11-0.13,0.23-0.38,0.23c-0.3,0.01-0.35-0.23-0.42-0.36
		c-0.02-0.04-0.05-0.07-0.09-0.09c0-0.02,0-0.05,0-0.08L20.58,12.53z M20.58,12.53"/>
	<path class="st86" d="M15.96,7.43c0,0-0.39-0.29-0.5-0.45c0,0,0.13-0.05,0.2-0.12c0,0-0.35-0.17-0.54-0.34c0,0,0.12-0.02,0.22-0.09
		c0,0-0.32-0.05-0.48-0.28c0.37-0.11,0.24-0.41,0.24-0.41c-0.07,0.09-0.38,0.2-0.7,0.07C14.06,5.7,13.7,5.78,13.7,5.94
		c0,0-0.74-0.19-0.55,0.44c0,0,0.12-0.24,0.38-0.15c0.26,0.09,0.53,0.38,0.53,0.38S13.9,6.7,13.59,6.61c0,0,0.12,0.42,0.68,0.21
		c0,0,0.22,0.1,0.23,0.41c0,0,0.09-0.04,0.15-0.14c0,0,0.09,0.29-0.03,0.54c0,0,0.15-0.02,0.2-0.07c0,0,0.04,0.26-0.15,0.46
		c0,0,0.84,0.35,1.37-0.03c0,0-0.2-0.2-0.27-0.39C15.79,7.59,15.9,7.55,15.96,7.43L15.96,7.43z M15.96,7.43"/>
	<path class="st86" d="M18.4,5.94c0-0.16-0.36-0.25-0.69-0.12c-0.33,0.12-0.63,0.01-0.7-0.07c0,0-0.12,0.3,0.24,0.41
		c-0.16,0.23-0.48,0.28-0.48,0.28c0.09,0.07,0.22,0.09,0.22,0.09c-0.19,0.17-0.54,0.34-0.54,0.34c0.07,0.07,0.2,0.12,0.2,0.12
		c-0.11,0.16-0.5,0.45-0.5,0.45c0.07,0.12,0.18,0.16,0.18,0.16c-0.07,0.19-0.27,0.39-0.27,0.39c0.53,0.39,1.37,0.03,1.37,0.03
		c-0.19-0.21-0.15-0.46-0.15-0.46c0.05,0.04,0.2,0.07,0.2,0.07c-0.11-0.24-0.03-0.54-0.03-0.54c0.06,0.1,0.15,0.14,0.15,0.14
		c0.01-0.3,0.23-0.41,0.23-0.41c0.55,0.21,0.68-0.21,0.68-0.21c-0.3,0.09-0.47,0.01-0.47,0.01s0.27-0.3,0.53-0.38
		c0.26-0.09,0.38,0.15,0.38,0.15C19.14,5.75,18.4,5.94,18.4,5.94L18.4,5.94z M18.4,5.94"/>
	<path class="st86" d="M18.07,9.79c-0.07-0.37-0.13-0.69,0.05-1.06l0.03-0.07l-0.72-0.73l-0.08,0.02c-0.01,0-0.76,0.22-1.23,0.01
		l-0.06-0.03l-0.06,0.03c-0.48,0.21-1.23,0-1.23-0.01l-0.08-0.02l-0.72,0.73l0.03,0.07c0.18,0.37,0.12,0.69,0.05,1.06
		c-0.07,0.35-0.14,0.75-0.01,1.23c0.15,0.52,0.64,0.71,1.08,0.88c0.34,0.13,0.65,0.25,0.83,0.5l0.11,0.16l0.11-0.16
		c0.18-0.25,0.5-0.37,0.83-0.5c0.44-0.16,0.93-0.35,1.08-0.88C18.21,10.53,18.13,10.14,18.07,9.79L18.07,9.79z M14.27,8.71l0.49-0.5
		c0.22,0.05,0.82,0.17,1.29,0c0.47,0.18,1.07,0.06,1.29,0l0.49,0.5c-0.17,0.4-0.1,0.75-0.03,1.12c0.05,0.28,0.11,0.56,0.06,0.89
		h-3.62c-0.04-0.33,0.01-0.61,0.06-0.89C14.37,9.46,14.44,9.11,14.27,8.71L14.27,8.71z M16.89,11.67c-0.3,0.11-0.62,0.23-0.84,0.46
		c-0.22-0.22-0.54-0.34-0.84-0.46c-0.43-0.16-0.79-0.3-0.92-0.7h3.51C17.69,11.37,17.32,11.51,16.89,11.67L16.89,11.67z
		 M16.89,11.67"/>
	<path class="st4" d="M14.27,8.71l0.49-0.5c0.22,0.05,0.82,0.17,1.29,0c0.47,0.18,1.07,0.06,1.29,0l0.49,0.5
		c-0.17,0.4-0.1,0.75-0.03,1.12c0.05,0.28,0.11,0.56,0.06,0.89h-3.62c-0.04-0.33,0.01-0.61,0.06-0.89
		C14.37,9.46,14.44,9.11,14.27,8.71L14.27,8.71z M14.27,8.71"/>
	<path class="st2" d="M14.28,10.91c0,0.02,0.01,0.03,0.01,0.05c0.11,0.41,0.49,0.55,0.92,0.71c0.3,0.11,0.62,0.23,0.84,0.46
		c0.22-0.22,0.54-0.34,0.84-0.46c0.43-0.16,0.81-0.3,0.92-0.71c0-0.02,0.01-0.03,0.01-0.05H14.28z M14.28,10.91"/>
	<path class="st86" d="M17.66,9.54c0-0.21-0.23-0.25-0.44-0.24c-0.21,0-0.51-0.03-0.52-0.17c0-0.09,0.17-0.1,0.28-0.07
		c0.06,0.02,0.46,0.08,0.59-0.15c0,0-0.15,0-0.3-0.03c-0.12-0.02-0.61,0.03-0.69,0.2c-0.09,0.17,0.2,0.33,0.52,0.33
		c0.33,0,0.37,0.06,0.37,0.13c0,0.09-0.26,0.12-0.41,0.12c-0.23-0.07-0.78-0.02-0.78-0.03c0-0.01-0.13-0.2-0.13-0.2
		s0.22-0.01,0.25-0.05c0.03-0.04-0.17-0.17-0.17-0.17s0.17-0.06,0.17-0.1c0.01-0.05-0.14-0.15-0.14-0.15s0.05-0.05,0.1-0.13
		c0.03-0.06-0.2-0.07-0.2-0.07c0.01-0.04,0.01-0.09-0.05-0.11c-0.05-0.02-0.23,0.04-0.35,0.04s-0.17,0.08-0.17,0.08
		s-0.21,0.02-0.24,0.04c-0.03,0.02,0.01,0.17,0.01,0.17c-0.11-0.01-0.16-0.1-0.16-0.1c-0.05,0.22,0.2,0.24,0.2,0.24l0.04,0.12
		l0.1,0.01c0.1,0.01,0.05,0.1-0.11,0.1c-0.16,0-0.23,0.17-0.23,0.17c-0.11,0-0.18-0.08-0.2-0.18c-0.03-0.11-0.01-0.29,0.01-0.4
		c0.03-0.13-0.05-0.17-0.05-0.17L14.9,8.87c0-0.11-0.12-0.12-0.12-0.12l-0.02,0.14c-0.06-0.09-0.15-0.05-0.15-0.05
		s0.09,0.3,0.09,0.32c0,0.02-0.03,0.03-0.08-0.01c-0.04-0.04-0.08-0.01-0.08-0.01c0.05,0.3,0.23,0.26,0.23,0.26s0.01,0.09,0.06,0.28
		c0.06,0.2,0.3,0.17,0.3,0.17c0,0.07,0.06,0.16,0.08,0.38c0.02,0.22-0.21,0.38-0.21,0.38c-0.21,0-0.19,0.18-0.19,0.18h0.58
		c0-0.47,0.23-0.55,0.23-0.55c0.34,0.01,0.67-0.11,0.67-0.11c-0.05,0.18,0.04,0.26,0.04,0.26c0.14-0.02,0.07,0.23,0.03,0.23h-0.18
		c-0.05,0-0.19,0.14-0.19,0.14h0.6c0,0,0.09-0.12,0.12-0.18c0.03-0.06-0.07-0.14-0.08-0.2c-0.01-0.06,0.1-0.1,0.1-0.1
		c0.12,0.14,0.38,0.15,0.38,0.15l-0.01-0.11c0,0,0.14,0.04,0.17,0.08c0.03,0.04,0.03,0.2-0.14,0.22c-0.17,0.02-0.18,0.12-0.18,0.12
		h0.46c0.08,0,0.14-0.12,0.14-0.17v-0.42c0-0.07-0.06-0.06-0.21-0.07c-0.13-0.01-0.12-0.14-0.18-0.29
		C17.36,9.75,17.66,9.72,17.66,9.54L17.66,9.54z M17.66,9.54"/>
	<path class="st86" d="M17.62,4.49c-0.04-0.29-0.3-0.66-1.3-0.84c0-0.09-0.07-0.17-0.16-0.21V3.29h0.16V3.11h-0.16V2.97h-0.2v0.14
		H15.8v0.17h0.16v0.16c-0.09,0.03-0.16,0.11-0.16,0.21c-1,0.17-1.26,0.55-1.3,0.84c-0.05,0.36,0.25,0.71,0.51,0.84v0.18h2.1V5.33
		C17.37,5.2,17.67,4.85,17.62,4.49L17.62,4.49z M16.52,5.05h-0.29V3.98c0.24,0.1,0.39,0.24,0.44,0.45
		C16.72,4.68,16.6,4.94,16.52,5.05L16.52,5.05z M15.45,4.43c0.04-0.2,0.19-0.35,0.44-0.45v1.07h-0.29
		C15.51,4.94,15.4,4.68,15.45,4.43L15.45,4.43z M15.21,4.14c-0.05,0.09-0.08,0.17-0.09,0.25c-0.05,0.24,0.01,0.48,0.1,0.66h-0.07
		C15,4.96,14.81,4.74,14.83,4.52C14.85,4.37,14.98,4.24,15.21,4.14L15.21,4.14z M16.97,5.05H16.9c0.09-0.19,0.14-0.43,0.1-0.66
		c-0.02-0.08-0.05-0.16-0.09-0.25c0.23,0.1,0.36,0.24,0.37,0.39C17.31,4.74,17.12,4.96,16.97,5.05L16.97,5.05z M16.97,5.05"/>
</g>
</svg>
