<?xml version="1.0" encoding="utf-8"?>
<!-- Generator: Adobe Illustrator 25.0.0, SVG Export Plug-In . SVG Version: 6.00 Build 0)  -->
<svg version="1.1" id="Capa_1" xmlns="http://www.w3.org/2000/svg" xmlns:xlink="http://www.w3.org/1999/xlink" x="0px" y="0px"
	 viewBox="0 0 32 18.62" style="enable-background:new 0 0 32 18.62;" xml:space="preserve">
<style type="text/css">
	.st0{fill:#FF4B55;}
	.st1{fill:#464655;}
	.st2{fill:#73AF00;}
	.st3{fill:#F5F5F5;}
	.st4{fill:#41479B;}
	.st5{fill:#FFF5DC;}
	.st6{fill:#D27D69;}
	.st7{fill:#FFE15A;}
	.st8{fill:#B95546;}
	.st9{fill:#DCBE82;}
	.st10{fill:#D2AA73;}
	.st11{fill:#4173CD;}
	.st12{fill:#82AFFF;}
	.st13{fill:#F09146;}
	.st14{fill:#FFB400;}
	.st15{fill:#965032;}
	.st16{fill:#BE7855;}
	.st17{fill:#FFBE3C;}
	.st18{fill:#EAF3F5;}
	.st19{fill:#8C5A28;}
	.st20{fill:#F0C850;}
	.st21{fill:#FF6E55;}
	.st22{fill:#FFBE5A;}
	.st23{fill:#3CC8FF;}
	.st24{fill:#825546;}
	.st25{fill:#FFD255;}
	.st26{fill:#FFD25A;}
	.st27{fill:#509664;}
	.st28{fill:#F0AA00;}
	.st29{fill:#A561CD;}
	.st30{fill:#B34900;}
	.st31{fill:#64B496;}
	.st32{fill:#FF6B71;}
	.st33{fill:#5F64B9;}
	.st34{fill:#F5F0F0;}
	.st35{fill:#5A4646;}
	.st36{fill:#E6E1CD;}
	.st37{fill:#FFD0AF;}
	.st38{fill:#FFAF94;}
	.st39{fill:#8CB400;}
	.st40{fill:#69C3FF;}
	.st41{fill:#009B64;}
	.st42{fill:#5AA0E6;}
	.st43{fill:#FFC88C;}
	.st44{fill:#E1E1E1;}
	.st45{fill:#966446;}
	.st46{fill:#BE915A;}
	.st47{fill:#B9B9B9;}
	.st48{fill:#F0C727;}
	.st49{fill:#50AF69;}
	.st50{fill:#FFE6E6;}
	.st51{fill:#FFB750;}
	.st52{fill:#FFC455;}
	.st53{fill:#FFCD55;}
	.st54{fill:#9BC800;}
	.st55{fill:#FFE14E;}
	.st56{fill:#FFB14E;}
	.st57{fill:#B46446;}
	.st58{fill:#5FA000;}
	.st59{fill:#F2DD30;}
	.st60{fill:#FFC855;}
	.st61{fill:#A0A0A0;}
	.st62{fill:#69B469;}
	.st63{fill:#F4E08F;}
	.st64{fill:#ECD077;}
	.st65{fill:#FCF0A8;}
	.st66{fill:#FAB446;}
	.st67{fill:#C8414B;}
	.st68{fill:#FF9B46;}
	.st69{fill:#FF9B55;}
	.st70{fill:#82C3D2;}
	.st71{fill:#5AA587;}
	.st72{fill:#CDCDCD;}
	.st73{fill:#B4A08C;}
	.st74{fill:#FFD250;}
	.st75{fill:#00C3A0;}
	.st76{fill:#00AADC;}
	.st77{fill:#732D37;}
	.st78{fill:#AAD264;}
	.st79{fill:#874150;}
	.st80{fill:#783C46;}
	.st81{fill:#FFB478;}
	.st82{fill:#9B4B5A;}
	.st83{fill:#FFCD5A;}
	.st84{fill:#FFAA5A;}
	.st85{fill:#FF875A;}
	.st86{fill:#E6B432;}
	.st87{fill:#C86464;}
	.st88{fill:#FFF5E1;}
	.st89{fill:#963C3C;}
	.st90{fill:#5A8250;}
	.st91{fill:#AFEBFF;}
	.st92{fill:#557DE6;}
	.st93{fill:#D23741;}
	.st94{fill:#64C86E;}
	.st95{fill:#873250;}
	.st96{fill:#41AA5A;}
	.st97{fill:#8CD7FF;}
	.st98{fill:#6EC86E;}
	.st99{fill:#FFF0E1;}
	.st100{fill:#FFC75A;}
	.st101{fill:#FFD350;}
	.st102{fill:#FFBE50;}
	.st103{fill:#A54B50;}
	.st104{fill:#C87878;}
	.st105{fill:#FF1722;}
	.st106{fill:#FFB441;}
	.st107{fill:#5064AA;}
	.st108{fill:#FFA0D2;}
	.st109{fill:#FF7350;}
	.st110{fill:#245DBD;}
	.st111{fill:#D35A10;}
	.st112{fill:#FFA033;}
	.st113{fill:#FF9480;}
	.st114{fill:#FFA0E4;}
	.st115{fill:#696E7D;}
	.st116{fill:#FFFCFF;}
	.st117{fill:#EBEBEB;}
	.st118{fill:#FF4B57;}
	.st119{fill:#D2D2D2;}
	.st120{fill:#F0C814;}
	.st121{fill:#F7B518;}
	.st122{fill:#2C2F38;}
	.st123{fill:#4C8056;}
	.st124{fill:#F0C419;}
	.st125{fill:#C03A2B;}
	.st126{fill:#EA3F3F;}
	.st127{fill:#E4E3E1;}
	.st128{fill:#2472B2;}
</style>
<g>
	<path class="st71" d="M31.42,18.55H0.55c-0.3,0-0.55-0.22-0.55-0.49V0.53c0-0.27,0.25-0.49,0.55-0.49h30.87
		c0.3,0,0.55,0.22,0.55,0.49v17.53C31.97,18.33,31.72,18.55,31.42,18.55L31.42,18.55z M31.42,18.55"/>
	<path class="st3" d="M17.3,11.81c0.62,0.13,1.28,0.14,1.94,0c1.16-0.26,2.08-0.92,2.62-1.78c-0.93-0.54-2.09-0.75-3.26-0.5
		c-0.62,0.14-1.17,0.4-1.64,0.74c0-0.01,0.01-0.01,0.01-0.02c1.71-1.36,3.62-0.92,3.62-0.92l0.45-0.34c0,0-1.93-0.59-3.65,0.67
		c1.07-1.83-0.08-3.4-0.08-3.4l-0.27,0.47c0,0,0.96,1.55-0.16,3.37c0,0,0,0,0,0c0.27-0.49,0.43-1.03,0.43-1.61
		c0-1.06-0.51-2.01-1.33-2.67c-0.82,0.67-1.33,1.62-1.33,2.67c0,0.58,0.16,1.12,0.43,1.61c0,0,0,0,0,0
		c-1.12-1.81-0.16-3.37-0.16-3.37l-0.27-0.47c0,0-1.15,1.57-0.08,3.4c-1.73-1.26-3.65-0.67-3.65-0.67l0.45,0.34
		c0,0,1.91-0.44,3.62,0.92c0,0.01,0.01,0.01,0.01,0.02c-0.46-0.34-1.01-0.61-1.63-0.74c-1.16-0.25-2.33-0.04-3.26,0.5
		c0.53,0.86,1.45,1.53,2.62,1.78c0.66,0.14,1.32,0.13,1.94,0c-2.3,0.57-3.81-0.66-3.81-0.66l-0.58,0.11c0,0,2.33,2.21,5.71,0.04
		c3.38,2.16,5.71-0.04,5.71-0.04l-0.58-0.11C21.11,11.16,19.61,12.38,17.3,11.81L17.3,11.81z M17.3,11.81"/>
	<path class="st3" d="M12.62,14.35c0.24,0.13,0.49,0.25,0.75,0.35h5.22c0.26-0.1,0.51-0.22,0.75-0.35H12.62z M12.62,14.35"/>
	<path class="st3" d="M13.84,14.87c0.67,0.21,1.39,0.33,2.14,0.33c0.75,0,1.47-0.12,2.14-0.33H13.84z M13.84,14.87"/>
	<path class="st3" d="M11.21,13.3c0.08,0.08,0.16,0.16,0.25,0.23h9.05c0.09-0.08,0.17-0.15,0.25-0.23H11.21z M11.21,13.3"/>
	<path class="st3" d="M11.79,13.81c0.13,0.1,0.27,0.2,0.41,0.29h7.55c0.14-0.09,0.28-0.19,0.41-0.29H11.79z M11.79,13.81"/>
	<path class="st3" d="M18.64,12.67c-1.49,0-2.51-0.88-2.52-0.89l-0.14-0.12l-0.14,0.12c-0.01,0.01-1.02,0.89-2.52,0.89h-2.66
		c0.09,0.12,0.19,0.24,0.29,0.35h2.37c1.34,0,2.31-0.62,2.66-0.88c0.35,0.26,1.32,0.88,2.66,0.88h2.37c0.1-0.11,0.2-0.23,0.29-0.35
		H18.64z M18.64,12.67"/>
	<path class="st7" d="M15.91,3.44l-0.23,0.62l-0.74,0.01c-0.07,0-0.1,0.08-0.04,0.12l0.59,0.39l-0.22,0.62
		c-0.02,0.06,0.06,0.11,0.11,0.07l0.6-0.38l0.6,0.38c0.06,0.04,0.13-0.01,0.11-0.07l-0.22-0.62l0.59-0.39
		c0.06-0.04,0.03-0.12-0.04-0.12l-0.74-0.01l-0.23-0.62C16.03,3.38,15.94,3.38,15.91,3.44L15.91,3.44z M15.91,3.44"/>
	<path class="st7" d="M12.42,4.71l0.14,0.43l-0.42,0.25c-0.04,0.02-0.02,0.08,0.03,0.08l0.51,0.02l0.14,0.43
		c0.01,0.04,0.08,0.04,0.1,0l0.18-0.42l0.51,0.01c0.05,0,0.07-0.05,0.03-0.08l-0.4-0.28l0.17-0.42c0.02-0.04-0.04-0.08-0.08-0.05
		l-0.42,0.25l-0.4-0.28C12.47,4.63,12.41,4.67,12.42,4.71L12.42,4.71z M12.42,4.71"/>
	<path class="st7" d="M10.39,6.89l0.37,0.31l-0.21,0.41c-0.02,0.04,0.03,0.08,0.07,0.06l0.45-0.21l0.37,0.31
		c0.04,0.03,0.09,0,0.08-0.04l-0.09-0.44l0.44-0.22c0.04-0.02,0.03-0.08-0.02-0.08l-0.5-0.06l-0.1-0.44
		c-0.01-0.04-0.07-0.05-0.1-0.01l-0.22,0.41l-0.5-0.05C10.38,6.81,10.36,6.86,10.39,6.89L10.39,6.89z M10.39,6.89"/>
	<path class="st7" d="M19.66,4.71l-0.14,0.43l0.42,0.25c0.04,0.02,0.02,0.08-0.03,0.08L19.41,5.5l-0.14,0.43
		c-0.01,0.04-0.08,0.04-0.1,0l-0.18-0.42l-0.51,0.01c-0.05,0-0.07-0.05-0.03-0.08l0.4-0.28l-0.17-0.42
		c-0.02-0.04,0.04-0.08,0.08-0.05l0.42,0.25l0.4-0.28C19.62,4.63,19.67,4.67,19.66,4.71L19.66,4.71z M19.66,4.71"/>
	<path class="st7" d="M21.69,6.89L21.33,7.2l0.21,0.41c0.02,0.04-0.03,0.08-0.07,0.06l-0.45-0.21l-0.37,0.31
		c-0.04,0.03-0.09,0-0.08-0.04l0.09-0.44l-0.44-0.22c-0.04-0.02-0.03-0.08,0.02-0.08l0.5-0.06l0.1-0.44
		c0.01-0.04,0.07-0.05,0.1-0.01l0.22,0.41l0.51-0.05C21.7,6.81,21.73,6.86,21.69,6.89L21.69,6.89z M21.69,6.89"/>
</g>
</svg>
