<?xml version="1.0" encoding="utf-8"?>
<!-- Generator: Adobe Illustrator 25.0.0, SVG Export Plug-In . SVG Version: 6.00 Build 0)  -->
<svg version="1.1" id="Capa_1" xmlns="http://www.w3.org/2000/svg" xmlns:xlink="http://www.w3.org/1999/xlink" x="0px" y="0px"
	 viewBox="0 0 32 18.62" style="enable-background:new 0 0 32 18.62;" xml:space="preserve">
<style type="text/css">
	.st0{fill:#FF4B55;}
	.st1{fill:#464655;}
	.st2{fill:#73AF00;}
	.st3{fill:#F5F5F5;}
	.st4{fill:#41479B;}
	.st5{fill:#FFF5DC;}
	.st6{fill:#D27D69;}
	.st7{fill:#FFE15A;}
	.st8{fill:#B95546;}
	.st9{fill:#DCBE82;}
	.st10{fill:#D2AA73;}
	.st11{fill:#4173CD;}
	.st12{fill:#82AFFF;}
	.st13{fill:#F09146;}
	.st14{fill:#FFB400;}
	.st15{fill:#965032;}
	.st16{fill:#BE7855;}
	.st17{fill:#FFBE3C;}
	.st18{fill:#EAF3F5;}
	.st19{fill:#8C5A28;}
	.st20{fill:#F0C850;}
	.st21{fill:#FF6E55;}
	.st22{fill:#FFBE5A;}
	.st23{fill:#3CC8FF;}
	.st24{fill:#825546;}
	.st25{fill:#FFD255;}
	.st26{fill:#FFD25A;}
	.st27{fill:#509664;}
	.st28{fill:#F0AA00;}
	.st29{fill:#A561CD;}
	.st30{fill:#B34900;}
	.st31{fill:#64B496;}
	.st32{fill:#FF6B71;}
	.st33{fill:#5F64B9;}
	.st34{fill:#F5F0F0;}
	.st35{fill:#5A4646;}
	.st36{fill:#E6E1CD;}
	.st37{fill:#FFD0AF;}
	.st38{fill:#FFAF94;}
	.st39{fill:#8CB400;}
	.st40{fill:#69C3FF;}
	.st41{fill:#009B64;}
	.st42{fill:#5AA0E6;}
	.st43{fill:#FFC88C;}
	.st44{fill:#E1E1E1;}
	.st45{fill:#966446;}
	.st46{fill:#BE915A;}
	.st47{fill:#B9B9B9;}
	.st48{fill:#F0C727;}
	.st49{fill:#50AF69;}
	.st50{fill:#FFE6E6;}
	.st51{fill:#FFB750;}
	.st52{fill:#FFC455;}
	.st53{fill:#FFCD55;}
	.st54{fill:#9BC800;}
	.st55{fill:#FFE14E;}
	.st56{fill:#FFB14E;}
	.st57{fill:#B46446;}
	.st58{fill:#5FA000;}
	.st59{fill:#F2DD30;}
	.st60{fill:#FFC855;}
	.st61{fill:#A0A0A0;}
	.st62{fill:#69B469;}
	.st63{fill:#F4E08F;}
	.st64{fill:#ECD077;}
	.st65{fill:#FCF0A8;}
	.st66{fill:#FAB446;}
	.st67{fill:#C8414B;}
	.st68{fill:#FF9B46;}
	.st69{fill:#FF9B55;}
	.st70{fill:#82C3D2;}
	.st71{fill:#5AA587;}
	.st72{fill:#CDCDCD;}
	.st73{fill:#B4A08C;}
	.st74{fill:#FFD250;}
	.st75{fill:#00C3A0;}
	.st76{fill:#00AADC;}
	.st77{fill:#732D37;}
	.st78{fill:#AAD264;}
	.st79{fill:#874150;}
	.st80{fill:#783C46;}
	.st81{fill:#FFB478;}
	.st82{fill:#9B4B5A;}
	.st83{fill:#FFCD5A;}
	.st84{fill:#FFAA5A;}
	.st85{fill:#FF875A;}
	.st86{fill:#E6B432;}
	.st87{fill:#C86464;}
	.st88{fill:#FFF5E1;}
	.st89{fill:#963C3C;}
	.st90{fill:#5A8250;}
	.st91{fill:#AFEBFF;}
	.st92{fill:#557DE6;}
	.st93{fill:#D23741;}
	.st94{fill:#64C86E;}
	.st95{fill:#873250;}
	.st96{fill:#41AA5A;}
	.st97{fill:#8CD7FF;}
	.st98{fill:#6EC86E;}
	.st99{fill:#FFF0E1;}
	.st100{fill:#FFC75A;}
	.st101{fill:#FFD350;}
	.st102{fill:#FFBE50;}
	.st103{fill:#A54B50;}
	.st104{fill:#C87878;}
	.st105{fill:#FF1722;}
	.st106{fill:#FFB441;}
	.st107{fill:#5064AA;}
	.st108{fill:#FFA0D2;}
	.st109{fill:#FF7350;}
	.st110{fill:#245DBD;}
	.st111{fill:#D35A10;}
	.st112{fill:#FFA033;}
	.st113{fill:#FF9480;}
	.st114{fill:#FFA0E4;}
	.st115{fill:#696E7D;}
	.st116{fill:#FFFCFF;}
	.st117{fill:#EBEBEB;}
	.st118{fill:#FF4B57;}
	.st119{fill:#D2D2D2;}
	.st120{fill:#F0C814;}
	.st121{fill:#F7B518;}
	.st122{fill:#2C2F38;}
	.st123{fill:#4C8056;}
	.st124{fill:#F0C419;}
	.st125{fill:#C03A2B;}
	.st126{fill:#EA3F3F;}
	.st127{fill:#E4E3E1;}
	.st128{fill:#2472B2;}
</style>
<g>
	<path class="st4" d="M31.42,18.55H0.55c-0.3,0-0.55-0.22-0.55-0.49V0.53c0-0.27,0.25-0.49,0.55-0.49h30.87
		c0.3,0,0.55,0.22,0.55,0.49v17.53C31.97,18.33,31.72,18.55,31.42,18.55L31.42,18.55z M31.42,18.55"/>
	<path class="st3" d="M15.43,0.04h-0.96L9.37,3V0.04H6.61V3L1.51,0.04H0.55C0.25,0.04,0,0.26,0,0.53v0.39l4.38,2.54H0v2.44h4.38
		L0,8.42v0.39C0,9.08,0.25,9.3,0.55,9.3h0.96l5.11-2.96V9.3h2.76V6.34l5.11,2.96h0.96c0.3,0,0.55-0.22,0.55-0.49V8.42L11.6,5.89
		h4.38V3.45H11.6l4.38-2.54V0.53C15.98,0.26,15.74,0.04,15.43,0.04L15.43,0.04z M15.43,0.04"/>
	<path class="st0" d="M15.98,3.94H8.82v-3.9H7.17v3.9H0V5.4h7.17v3.9h1.65V5.4h7.17V3.94z M15.98,3.94"/>
	<path class="st0" d="M6.06,3.45l-5.8-3.33C0.11,0.21,0,0.36,0,0.53v0.03l5.05,2.9H6.06z M6.06,3.45"/>
	<path class="st0" d="M10.38,3.45l5.52-3.16c-0.1-0.14-0.27-0.24-0.47-0.24h-0.12L9.37,3.45H10.38z M10.38,3.45"/>
	<path class="st0" d="M5.59,5.89L0.08,9.05C0.17,9.19,0.35,9.3,0.55,9.3h0.1L6.6,5.89H5.59z M5.59,5.89"/>
	<path class="st0" d="M15.98,8.85l-5.16-2.96H9.8l5.86,3.36C15.84,9.18,15.96,9.03,15.98,8.85L15.98,8.85z M15.98,8.85"/>
	<rect x="20.32" y="5.5" class="st12" width="7.32" height="5"/>
	<path class="st87" d="M20.32,10.5c0,1.71,2.16,3.09,3.66,3.09c1.33,0,3.66-1.38,3.66-3.09H20.32z M20.32,10.5"/>
	<path class="st2" d="M24.95,7.33c0.12,0.02,0.32,0.04,0.34,0.29c0.02,0.25-0.08,1.15-0.19,1.26c0,0,0.34,0.68,0.35,1.08
		c0.01,0.4-0.05,1.61-0.01,1.81c0.04,0.19,0.2,0.59,0.2,0.59s-0.48-0.25-0.67-0.09c-0.19,0.16-0.87,0.37-1.14,0.12
		c0,0,0.32-0.81,0.32-1.73V7.47c0,0,0.14-0.09,0.31-0.1C24.65,7.37,24.95,7.33,24.95,7.33L24.95,7.33z M24.95,7.33"/>
	<path class="st88" d="M25.02,12.19c0.02,0.12,0.08,0.2,0.05,0.25c-0.03,0.04-0.21,0.44-0.1,0.44c0.1,0,0.28-0.05,0.33-0.13
		c0.05-0.09,0.07-0.21,0.1-0.25c0.03-0.04-0.05-0.22-0.11-0.25C25.22,12.2,25.02,12.19,25.02,12.19L25.02,12.19z M25.02,12.19"/>
	<path class="st88" d="M23.82,7.59l-0.38,0.04c0,0,0.05-0.22,0.06-0.37c0.01-0.15,0.02-0.44,0.02-0.44s0.27-0.15,0.28-0.17
		c0-0.01,0.04-0.09,0.01-0.13c-0.02-0.04-0.11-0.04-0.11-0.04s-0.32,0.15-0.32,0.17c0,0.02,0,0.17-0.03,0.23
		c-0.03,0.06-0.23,0.51-0.24,0.64c-0.01,0.12-0.03,0.38,0.02,0.39c0.06,0.01,0.63,0.07,0.69,0.04C23.88,7.92,23.82,7.59,23.82,7.59
		L23.82,7.59z M23.82,7.59"/>
	<path class="st1" d="M25.55,6.38h-1.39V5.8h-0.48v0.58H22.3V6.8h1.39v5.56h0.48V6.8h1.39V6.38z M25.55,6.38"/>
	<path class="st89" d="M24.73,7.13c0,0,0.46,0.12,0.53-0.02c0.07-0.16-0.17-0.18-0.21-0.35C25.04,6.74,25,6.52,24.81,6.47
		c-0.19-0.04-0.36,0-0.37,0.11C24.43,6.69,24.73,7.13,24.73,7.13L24.73,7.13z M24.73,7.13"/>
	<path class="st88" d="M24.48,7.65c-0.01,0-0.03-0.12-0.01-0.28c0.03-0.15,0-0.2,0-0.2s-0.19,0.02-0.19-0.05
		c0-0.07,0.04-0.38,0.16-0.54c0,0,0.08,0.09,0.24,0.09c0,0-0.01,0.11,0.08,0.18c0,0-0.1,0.08-0.06,0.13
		c0.05,0.06,0.14,0.12,0.14,0.12s0.01,0.13,0.12,0.21C24.95,7.33,24.82,7.6,24.48,7.65L24.48,7.65z M24.48,7.65"/>
	<rect x="22.58" y="10.31" class="st1" width="0.04" height="0.73"/>
	<rect x="22.75" y="10.17" class="st1" width="0.04" height="1.01"/>
	<rect x="22.92" y="10.04" class="st1" width="0.04" height="1.27"/>
	<rect x="23.09" y="9.85" class="st1" width="0.04" height="1.64"/>
	<rect x="23.25" y="9.61" class="st1" width="0.04" height="2.12"/>
	<rect x="23.42" y="9.61" class="st1" width="0.04" height="2.22"/>
	<path class="st7" d="M24.17,10.77c-0.18-0.84-0.69-1.34-0.87-1.36c-0.18-0.02-0.31,0.1-0.33,0.2c-0.01,0.09-0.11,0.37-0.31,0.5
		c-0.2,0.13-0.58,0.2-0.66,0.44c-0.08,0.24,0.14,0.34,0.27,0.32c0.01,0,0.02-0.01,0.03-0.01l1.42,1.54
		c0.05,0.06,0.15,0.05,0.19-0.02C24.05,12.12,24.33,11.49,24.17,10.77L24.17,10.77z M22.42,10.79c0.06-0.05,0.08-0.13,0.02-0.2
		c-0.1-0.13-0.22,0.06-0.22,0.06s-0.03-0.16,0.24-0.24c0.27-0.08,0.58-0.21,0.71-0.5c0.14-0.29,0.13-0.23,0.13-0.23
		s0.55,0.28,0.63,1.14c0.08,0.86-0.19,1.21-0.19,1.21L22.42,10.79z M22.42,10.79"/>
	<path class="st88" d="M23.69,8.93c-0.06,0.04-0.12,0.07-0.16,0.09c-0.13,0.06-0.29,0.12-0.3,0.17c-0.02,0.06-0.1,0.1-0.1,0.17
		c0.01,0.06,0,0.26,0,0.26c0.08-0.01,0.23-0.04,0.29-0.12c0.05-0.08,0.1-0.24,0.27-0.31c0,0,0.01,0,0.01,0V8.93z M23.69,8.93"/>
	<path class="st88" d="M25.06,7.75c-0.08,0.03-0.31,0.28-0.35,0.4c-0.04,0.11-0.15,0.39-0.15,0.39s-0.24,0.03-0.4,0.11v0.4
		c0.09-0.02,0.17-0.05,0.22-0.07c0.14-0.06,0.33-0.18,0.43-0.21c0.1-0.02,0.18-0.17,0.22-0.26c0.04-0.09,0.15-0.34,0.17-0.52
		C25.21,7.82,25.14,7.72,25.06,7.75L25.06,7.75z M25.06,7.75"/>
	<path class="st3" d="M23.98,13.7l-0.02,0c-3.72-0.52-3.76-3.36-3.76-3.48V5.4h7.56v4.81c0,0.12-0.04,2.97-3.76,3.48L23.98,13.7z
		 M20.43,5.61v4.6c0,0.11,0.04,2.78,3.54,3.28c3.5-0.5,3.54-3.16,3.54-3.28v-4.6H20.43z M20.43,5.61"/>
</g>
</svg>
