<?xml version="1.0" encoding="utf-8"?>
<!-- Generator: Adobe Illustrator 25.0.0, SVG Export Plug-In . SVG Version: 6.00 Build 0)  -->
<svg version="1.1" id="Capa_1" xmlns="http://www.w3.org/2000/svg" xmlns:xlink="http://www.w3.org/1999/xlink" x="0px" y="0px"
	 viewBox="0 0 32 18.62" style="enable-background:new 0 0 32 18.62;" xml:space="preserve">
<style type="text/css">
	.st0{fill:#FF4B55;}
	.st1{fill:#464655;}
	.st2{fill:#73AF00;}
	.st3{fill:#F5F5F5;}
	.st4{fill:#41479B;}
	.st5{fill:#FFF5DC;}
	.st6{fill:#D27D69;}
	.st7{fill:#FFE15A;}
	.st8{fill:#B95546;}
	.st9{fill:#DCBE82;}
	.st10{fill:#D2AA73;}
	.st11{fill:#4173CD;}
	.st12{fill:#82AFFF;}
	.st13{fill:#F09146;}
	.st14{fill:#FFB400;}
	.st15{fill:#965032;}
	.st16{fill:#BE7855;}
	.st17{fill:#FFBE3C;}
	.st18{fill:#EAF3F5;}
	.st19{fill:#8C5A28;}
	.st20{fill:#F0C850;}
	.st21{fill:#FF6E55;}
	.st22{fill:#FFBE5A;}
	.st23{fill:#3CC8FF;}
	.st24{fill:#825546;}
	.st25{fill:#FFD255;}
	.st26{fill:#FFD25A;}
	.st27{fill:#509664;}
	.st28{fill:#F0AA00;}
	.st29{fill:#A561CD;}
	.st30{fill:#B34900;}
	.st31{fill:#64B496;}
	.st32{fill:#FF6B71;}
	.st33{fill:#5F64B9;}
	.st34{fill:#F5F0F0;}
	.st35{fill:#5A4646;}
	.st36{fill:#E6E1CD;}
	.st37{fill:#FFD0AF;}
	.st38{fill:#FFAF94;}
	.st39{fill:#8CB400;}
	.st40{fill:#69C3FF;}
	.st41{fill:#009B64;}
	.st42{fill:#5AA0E6;}
	.st43{fill:#FFC88C;}
	.st44{fill:#E1E1E1;}
	.st45{fill:#966446;}
	.st46{fill:#BE915A;}
	.st47{fill:#B9B9B9;}
	.st48{fill:#F0C727;}
	.st49{fill:#50AF69;}
	.st50{fill:#FFE6E6;}
	.st51{fill:#FFB750;}
	.st52{fill:#FFC455;}
	.st53{fill:#FFCD55;}
	.st54{fill:#9BC800;}
	.st55{fill:#FFE14E;}
	.st56{fill:#FFB14E;}
	.st57{fill:#B46446;}
	.st58{fill:#5FA000;}
	.st59{fill:#F2DD30;}
	.st60{fill:#FFC855;}
	.st61{fill:#A0A0A0;}
	.st62{fill:#69B469;}
	.st63{fill:#F4E08F;}
	.st64{fill:#ECD077;}
	.st65{fill:#FCF0A8;}
	.st66{fill:#FAB446;}
	.st67{fill:#C8414B;}
	.st68{fill:#FF9B46;}
	.st69{fill:#FF9B55;}
	.st70{fill:#82C3D2;}
	.st71{fill:#5AA587;}
	.st72{fill:#CDCDCD;}
	.st73{fill:#B4A08C;}
	.st74{fill:#FFD250;}
	.st75{fill:#00C3A0;}
	.st76{fill:#00AADC;}
	.st77{fill:#732D37;}
	.st78{fill:#AAD264;}
	.st79{fill:#874150;}
	.st80{fill:#783C46;}
	.st81{fill:#FFB478;}
	.st82{fill:#9B4B5A;}
	.st83{fill:#FFCD5A;}
	.st84{fill:#FFAA5A;}
	.st85{fill:#FF875A;}
	.st86{fill:#E6B432;}
	.st87{fill:#C86464;}
	.st88{fill:#FFF5E1;}
	.st89{fill:#963C3C;}
	.st90{fill:#5A8250;}
	.st91{fill:#AFEBFF;}
	.st92{fill:#557DE6;}
	.st93{fill:#D23741;}
	.st94{fill:#64C86E;}
	.st95{fill:#873250;}
	.st96{fill:#41AA5A;}
	.st97{fill:#8CD7FF;}
	.st98{fill:#6EC86E;}
	.st99{fill:#FFF0E1;}
	.st100{fill:#FFC75A;}
	.st101{fill:#FFD350;}
	.st102{fill:#FFBE50;}
	.st103{fill:#A54B50;}
	.st104{fill:#C87878;}
	.st105{fill:#FF1722;}
	.st106{fill:#FFB441;}
	.st107{fill:#5064AA;}
	.st108{fill:#FFA0D2;}
	.st109{fill:#FF7350;}
	.st110{fill:#245DBD;}
	.st111{fill:#D35A10;}
	.st112{fill:#FFA033;}
	.st113{fill:#FF9480;}
	.st114{fill:#FFA0E4;}
	.st115{fill:#696E7D;}
	.st116{fill:#FFFCFF;}
	.st117{fill:#EBEBEB;}
	.st118{fill:#FF4B57;}
	.st119{fill:#D2D2D2;}
	.st120{fill:#F0C814;}
	.st121{fill:#F7B518;}
	.st122{fill:#2C2F38;}
	.st123{fill:#4C8056;}
	.st124{fill:#F0C419;}
	.st125{fill:#C03A2B;}
	.st126{fill:#EA3F3F;}
	.st127{fill:#E4E3E1;}
	.st128{fill:#2472B2;}
</style>
<g>
	<path class="st0" d="M31.42,0.04H15.98v18.51h15.43c0.3,0,0.55-0.22,0.55-0.49V0.53C31.97,0.26,31.72,0.04,31.42,0.04L31.42,0.04z
		 M31.42,0.04"/>
	<path class="st3" d="M0.55,18.55h15.43V0.04H0.55C0.25,0.04,0,0.26,0,0.53v17.53C0,18.33,0.25,18.55,0.55,18.55L0.55,18.55z
		 M0.55,18.55"/>
	<path class="st0" d="M4.59,1.18v1.3c0.08,0,0.17,0.04,0.25,0.1C4.92,2.65,4.95,2.73,4.96,2.8h1.47v1.3H4.96
		c0,0.07-0.04,0.15-0.12,0.22c-0.08,0.07-0.17,0.1-0.25,0.1v1.3H3.12v-1.3c-0.08,0-0.17-0.04-0.25-0.1C2.8,4.25,2.76,4.17,2.76,4.1
		H1.29V2.8h1.47c0-0.07,0.04-0.15,0.12-0.22c0.08-0.07,0.17-0.1,0.25-0.1v-1.3L4.59,1.18 M4.78,1.02H2.94v1.34
		C2.87,2.38,2.8,2.42,2.75,2.47c-0.06,0.05-0.1,0.11-0.13,0.17H1.1v1.62h1.51c0.03,0.06,0.07,0.12,0.13,0.17
		C2.8,4.49,2.87,4.53,2.94,4.55v1.34h1.84V4.55c0.07-0.03,0.14-0.06,0.19-0.12c0.06-0.05,0.1-0.11,0.13-0.17h1.51V2.64H5.1
		C5.07,2.58,5.03,2.52,4.97,2.47C4.91,2.42,4.85,2.38,4.78,2.36V1.02z M4.78,1.02"/>
	<path class="st72" d="M6.43,2.8H4.59V1.18H3.12V2.8H1.29v1.3h1.84v1.62h1.47V4.1h1.84V2.8z M6.43,2.8"/>
	<path class="st73" d="M4.59,3.45c0,0.36-0.33,0.65-0.74,0.65c-0.41,0-0.73-0.29-0.73-0.65c0-0.36,0.33-0.65,0.73-0.65
		C4.26,2.8,4.59,3.09,4.59,3.45L4.59,3.45z M4.59,3.45"/>
	<path class="st73" d="M2.81,3.97C2.9,3.9,3.07,3.92,3.2,4.04C3.33,4.15,3.36,4.3,3.27,4.38C3.18,4.46,3,4.43,2.88,4.32
		C2.75,4.21,2.72,4.05,2.81,3.97L2.81,3.97z M2.81,3.97"/>
	<path class="st73" d="M4.91,3.97C5,4.05,4.97,4.21,4.84,4.32c-0.13,0.11-0.3,0.14-0.39,0.06C4.36,4.3,4.39,4.15,4.52,4.03
		C4.64,3.92,4.82,3.89,4.91,3.97L4.91,3.97z M4.91,3.97"/>
	<path class="st73" d="M4.91,2.93C4.82,3.01,4.64,2.98,4.52,2.87C4.39,2.76,4.36,2.6,4.45,2.52c0.09-0.08,0.27-0.05,0.39,0.06
		C4.97,2.7,5,2.85,4.91,2.93L4.91,2.93z M4.91,2.93"/>
	<path class="st73" d="M2.81,2.93C2.72,2.85,2.75,2.7,2.88,2.59C3,2.47,3.18,2.45,3.27,2.52C3.36,2.6,3.33,2.76,3.2,2.87
		C3.07,2.98,2.9,3.01,2.81,2.93L2.81,2.93z M2.81,2.93"/>
	<path class="st73" d="M3.86,4.34c-0.55,0-1.01-0.4-1.01-0.89c0-0.49,0.45-0.89,1.01-0.89c0.55,0,1.01,0.4,1.01,0.89
		C4.86,3.94,4.41,4.34,3.86,4.34L3.86,4.34z M3.86,2.65c-0.5,0-0.91,0.36-0.91,0.81s0.41,0.81,0.91,0.81S4.77,3.9,4.77,3.45
		S4.36,2.65,3.86,2.65L3.86,2.65z M3.86,2.65"/>
</g>
</svg>
