<?xml version="1.0" encoding="utf-8"?>
<!-- Generator: Adobe Illustrator 25.0.0, SVG Export Plug-In . SVG Version: 6.00 Build 0)  -->
<svg version="1.1" id="Capa_1" xmlns="http://www.w3.org/2000/svg" xmlns:xlink="http://www.w3.org/1999/xlink" x="0px" y="0px"
	 viewBox="0 0 32 18.62" style="enable-background:new 0 0 32 18.62;" xml:space="preserve">
<style type="text/css">
	.st0{fill:#FF4B55;}
	.st1{fill:#464655;}
	.st2{fill:#73AF00;}
	.st3{fill:#F5F5F5;}
	.st4{fill:#41479B;}
	.st5{fill:#FFF5DC;}
	.st6{fill:#D27D69;}
	.st7{fill:#FFE15A;}
	.st8{fill:#B95546;}
	.st9{fill:#DCBE82;}
	.st10{fill:#D2AA73;}
	.st11{fill:#4173CD;}
	.st12{fill:#82AFFF;}
	.st13{fill:#F09146;}
	.st14{fill:#FFB400;}
	.st15{fill:#965032;}
	.st16{fill:#BE7855;}
	.st17{fill:#FFBE3C;}
	.st18{fill:#EAF3F5;}
	.st19{fill:#8C5A28;}
	.st20{fill:#F0C850;}
	.st21{fill:#FF6E55;}
	.st22{fill:#FFBE5A;}
	.st23{fill:#3CC8FF;}
	.st24{fill:#825546;}
	.st25{fill:#FFD255;}
	.st26{fill:#FFD25A;}
	.st27{fill:#509664;}
	.st28{fill:#F0AA00;}
	.st29{fill:#A561CD;}
	.st30{fill:#B34900;}
	.st31{fill:#64B496;}
	.st32{fill:#FF6B71;}
	.st33{fill:#5F64B9;}
	.st34{fill:#F5F0F0;}
	.st35{fill:#5A4646;}
	.st36{fill:#E6E1CD;}
	.st37{fill:#FFD0AF;}
	.st38{fill:#FFAF94;}
	.st39{fill:#8CB400;}
	.st40{fill:#69C3FF;}
	.st41{fill:#009B64;}
	.st42{fill:#5AA0E6;}
	.st43{fill:#FFC88C;}
	.st44{fill:#E1E1E1;}
	.st45{fill:#966446;}
	.st46{fill:#BE915A;}
	.st47{fill:#B9B9B9;}
	.st48{fill:#F0C727;}
	.st49{fill:#50AF69;}
	.st50{fill:#FFE6E6;}
	.st51{fill:#FFB750;}
	.st52{fill:#FFC455;}
	.st53{fill:#FFCD55;}
	.st54{fill:#9BC800;}
	.st55{fill:#FFE14E;}
	.st56{fill:#FFB14E;}
	.st57{fill:#B46446;}
	.st58{fill:#5FA000;}
	.st59{fill:#F2DD30;}
	.st60{fill:#FFC855;}
	.st61{fill:#A0A0A0;}
	.st62{fill:#69B469;}
	.st63{fill:#F4E08F;}
	.st64{fill:#ECD077;}
	.st65{fill:#FCF0A8;}
	.st66{fill:#FAB446;}
	.st67{fill:#C8414B;}
	.st68{fill:#FF9B46;}
	.st69{fill:#FF9B55;}
	.st70{fill:#82C3D2;}
	.st71{fill:#5AA587;}
	.st72{fill:#CDCDCD;}
	.st73{fill:#B4A08C;}
	.st74{fill:#FFD250;}
	.st75{fill:#00C3A0;}
	.st76{fill:#00AADC;}
	.st77{fill:#732D37;}
	.st78{fill:#AAD264;}
	.st79{fill:#874150;}
	.st80{fill:#783C46;}
	.st81{fill:#FFB478;}
	.st82{fill:#9B4B5A;}
	.st83{fill:#FFCD5A;}
	.st84{fill:#FFAA5A;}
	.st85{fill:#FF875A;}
	.st86{fill:#E6B432;}
	.st87{fill:#C86464;}
	.st88{fill:#FFF5E1;}
	.st89{fill:#963C3C;}
	.st90{fill:#5A8250;}
	.st91{fill:#AFEBFF;}
	.st92{fill:#557DE6;}
	.st93{fill:#D23741;}
	.st94{fill:#64C86E;}
	.st95{fill:#873250;}
	.st96{fill:#41AA5A;}
	.st97{fill:#8CD7FF;}
	.st98{fill:#6EC86E;}
	.st99{fill:#FFF0E1;}
	.st100{fill:#FFC75A;}
	.st101{fill:#FFD350;}
	.st102{fill:#FFBE50;}
	.st103{fill:#A54B50;}
	.st104{fill:#C87878;}
	.st105{fill:#FF1722;}
	.st106{fill:#FFB441;}
	.st107{fill:#5064AA;}
	.st108{fill:#FFA0D2;}
	.st109{fill:#FF7350;}
	.st110{fill:#245DBD;}
	.st111{fill:#D35A10;}
	.st112{fill:#FFA033;}
	.st113{fill:#FF9480;}
	.st114{fill:#FFA0E4;}
	.st115{fill:#696E7D;}
	.st116{fill:#FFFCFF;}
	.st117{fill:#EBEBEB;}
	.st118{fill:#FF4B57;}
	.st119{fill:#D2D2D2;}
	.st120{fill:#F0C814;}
	.st121{fill:#F7B518;}
	.st122{fill:#2C2F38;}
	.st123{fill:#4C8056;}
	.st124{fill:#F0C419;}
	.st125{fill:#C03A2B;}
	.st126{fill:#EA3F3F;}
	.st127{fill:#E4E3E1;}
	.st128{fill:#2472B2;}
</style>
<g>
	<path class="st2" d="M10.66,18.55H0.55c-0.3,0-0.55-0.22-0.55-0.49V0.53c0-0.27,0.25-0.49,0.55-0.49h10.11V18.55z M10.66,18.55"/>
	<rect x="10.66" y="0.04" class="st3" width="10.66" height="18.51"/>
	<path class="st0" d="M31.42,18.55H21.31V0.04h10.11c0.3,0,0.55,0.22,0.55,0.49v17.53C31.97,18.33,31.72,18.55,31.42,18.55
		L31.42,18.55z M31.42,18.55"/>
	<path class="st74" d="M16.94,9.73l-0.95,0.42v0.42h0.48L16.94,9.73z M16.94,9.73"/>
	<path class="st75" d="M15.98,11.62c-0.13,0-0.24-0.09-0.24-0.21v-0.84c0-0.12,0.11-0.21,0.24-0.21c0.13,0,0.24,0.09,0.24,0.21v0.84
		C16.22,11.53,16.12,11.62,15.98,11.62L15.98,11.62z M15.98,11.62"/>
	<path class="st75" d="M15.98,10.78c-0.93,0-1.84-0.32-2.54-0.9c-0.1-0.08-0.1-0.21-0.01-0.3c0.09-0.08,0.24-0.09,0.34-0.01
		c0.62,0.51,1.4,0.78,2.21,0.78c0.81,0,1.6-0.28,2.21-0.78c0.1-0.08,0.25-0.07,0.34,0.01c0.09,0.08,0.08,0.22-0.01,0.3
		C17.82,10.47,16.92,10.78,15.98,10.78L15.98,10.78z M15.98,10.78"/>
	<path class="st76" d="M15.98,11.62c-0.61,0-1.2-0.16-1.71-0.45l0.26-0.35c0.86,0.5,2.03,0.5,2.89,0l0.26,0.35
		C17.18,11.47,16.59,11.62,15.98,11.62L15.98,11.62z M15.98,11.62"/>
	<path class="st77" d="M15.61,8.79l-0.52,0.72l-0.09,0.24l1.37-0.28L15.61,8.79z M15.61,8.79"/>
	<path class="st78" d="M14.53,9.97c-0.63,0-1.38-0.47-1.58-1.51l0.47-0.07c0.17,0.87,0.77,1.16,1.13,1.16
		c0.11,0,0.23-0.04,0.24-0.11c0.01-0.08,0.01-0.1-0.24-0.18c-0.14-0.04-0.29-0.09-0.4-0.19c-0.43-0.44,0.15-0.9,0.44-1.13
		c0.05-0.04,0.07-0.07,0.07-0.09c-0.02-0.04-0.11-0.09-0.21-0.09c-0.3,0-0.53-0.15-0.6-0.39c-0.07-0.25,0.06-0.52,0.31-0.63
		l0.22,0.37c-0.06,0.03-0.08,0.1-0.07,0.16c0.01,0.02,0.02,0.07,0.14,0.07c0.29,0,0.57,0.15,0.66,0.36c0.04,0.09,0.1,0.32-0.19,0.55
		c-0.31,0.25-0.5,0.43-0.4,0.54c0.02,0.02,0.12,0.05,0.19,0.07c0.21,0.06,0.61,0.18,0.56,0.62c-0.04,0.28-0.32,0.47-0.69,0.48
		C14.55,9.97,14.54,9.97,14.53,9.97L14.53,9.97z M14.53,9.97"/>
	<path class="st79" d="M16.46,7.63c0,0,0.48-0.84-0.48-1.26c0,0,3.33-0.42,2.85,3.36c-0.31-0.22-0.78-0.62-0.94-0.95l-1.44-0.73
		V7.63z M16.46,7.63"/>
	<path class="st77" d="M15.98,8.47l2.38,1.26l-0.95,0.42l-1.43-1.26V8.47z M15.98,8.47"/>
	<path class="st80" d="M15.03,7.21c0.26,0,0.48,0.19,0.48,0.42l0,0c-0.28,0.25-0.35,0.63-0.17,0.95l0.11,0.19
		c0.04,0.08,0.1,0.15,0.17,0.21l1.32,1.17V9.57c0-0.72-0.19-1.44-0.56-2.08c-0.24-0.43-0.74-0.7-1.28-0.7h-0.07V7.21z M15.03,7.21"
		/>
	<path class="st74" d="M15.03,6.79l-0.48,0.42v0.42c0,0,0.57-0.25,0.76-0.33c0.13-0.06,0.11-0.19,0.03-0.25
		C15.29,7,15.03,6.79,15.03,6.79L15.03,6.79z M15.03,6.79"/>
	<path class="st78" d="M15.98,12.46c-2.23,0-4.04-1.6-4.04-3.57h0.48c0,1.74,1.6,3.15,3.56,3.15c1.97,0,3.56-1.41,3.56-3.15h0.48
		C20.02,10.86,18.21,12.46,15.98,12.46L15.98,12.46z M15.98,12.46"/>
	<path class="st7" d="M12.77,10.14c0,0.16-0.14,0.28-0.32,0.28c-0.18,0-0.32-0.13-0.32-0.28c0-0.16,0.14-0.29,0.32-0.29
		C12.62,9.85,12.77,9.98,12.77,10.14L12.77,10.14z M12.77,10.14"/>
	<path class="st7" d="M13.48,11.15c0,0.16-0.14,0.29-0.32,0.29c-0.18,0-0.32-0.13-0.32-0.29c0-0.16,0.14-0.28,0.32-0.28
		C13.34,10.86,13.48,10.99,13.48,11.15L13.48,11.15z M13.48,11.15"/>
	<path class="st7" d="M14.64,11.91c0,0.16-0.14,0.29-0.32,0.29c-0.18,0-0.32-0.13-0.32-0.29c0-0.16,0.14-0.29,0.32-0.29
		C14.49,11.62,14.64,11.75,14.64,11.91L14.64,11.91z M14.64,11.91"/>
	<path class="st7" d="M19.88,10.14c0,0.16-0.14,0.28-0.32,0.28c-0.18,0-0.32-0.13-0.32-0.28c0-0.16,0.14-0.29,0.32-0.29
		C19.74,9.85,19.88,9.98,19.88,10.14L19.88,10.14z M19.88,10.14"/>
	<path class="st7" d="M19.17,11.15c0,0.16-0.14,0.29-0.32,0.29c-0.18,0-0.32-0.13-0.32-0.29c0-0.16,0.14-0.28,0.32-0.28
		C19.02,10.86,19.17,10.99,19.17,11.15L19.17,11.15z M19.17,11.15"/>
	<path class="st7" d="M18.01,11.91c0,0.16-0.14,0.29-0.32,0.29c-0.18,0-0.32-0.13-0.32-0.29c0-0.16,0.14-0.29,0.32-0.29
		C17.86,11.62,18.01,11.75,18.01,11.91L18.01,11.91z M18.01,11.91"/>
	<path class="st81" d="M16.22,11.83h-0.48c-0.26,0-0.48-0.19-0.48-0.42c0-0.23,0.21-0.42,0.48-0.42h0.48c0.26,0,0.48,0.19,0.48,0.42
		C16.7,11.65,16.48,11.83,16.22,11.83L16.22,11.83z M16.22,11.83"/>
	<path class="st82" d="M17.9,8.79c0.16,0.41,0.5,0.79,0.94,0.95c0.48-3.78-2.85-3.36-2.85-3.36C18.36,6.37,17.9,8.79,17.9,8.79
		L17.9,8.79z M17.9,8.79"/>
</g>
</svg>
