<?xml version="1.0" encoding="utf-8"?>
<!-- Generator: Adobe Illustrator 25.0.0, SVG Export Plug-In . SVG Version: 6.00 Build 0)  -->
<svg version="1.1" id="Capa_1" xmlns="http://www.w3.org/2000/svg" xmlns:xlink="http://www.w3.org/1999/xlink" x="0px" y="0px"
	 viewBox="0 0 32 18.62" style="enable-background:new 0 0 32 18.62;" xml:space="preserve">
<style type="text/css">
	.st0{fill:#FF4B55;}
	.st1{fill:#464655;}
	.st2{fill:#73AF00;}
	.st3{fill:#F5F5F5;}
	.st4{fill:#41479B;}
	.st5{fill:#FFF5DC;}
	.st6{fill:#D27D69;}
	.st7{fill:#FFE15A;}
	.st8{fill:#B95546;}
	.st9{fill:#DCBE82;}
	.st10{fill:#D2AA73;}
	.st11{fill:#4173CD;}
	.st12{fill:#82AFFF;}
	.st13{fill:#F09146;}
	.st14{fill:#FFB400;}
	.st15{fill:#965032;}
	.st16{fill:#BE7855;}
	.st17{fill:#FFBE3C;}
	.st18{fill:#EAF3F5;}
	.st19{fill:#8C5A28;}
	.st20{fill:#F0C850;}
	.st21{fill:#FF6E55;}
	.st22{fill:#FFBE5A;}
	.st23{fill:#3CC8FF;}
	.st24{fill:#825546;}
	.st25{fill:#FFD255;}
	.st26{fill:#FFD25A;}
	.st27{fill:#509664;}
	.st28{fill:#F0AA00;}
	.st29{fill:#A561CD;}
	.st30{fill:#B34900;}
	.st31{fill:#64B496;}
	.st32{fill:#FF6B71;}
	.st33{fill:#5F64B9;}
	.st34{fill:#F5F0F0;}
	.st35{fill:#5A4646;}
	.st36{fill:#E6E1CD;}
	.st37{fill:#FFD0AF;}
	.st38{fill:#FFAF94;}
	.st39{fill:#8CB400;}
	.st40{fill:#69C3FF;}
	.st41{fill:#009B64;}
	.st42{fill:#5AA0E6;}
	.st43{fill:#FFC88C;}
	.st44{fill:#E1E1E1;}
	.st45{fill:#966446;}
	.st46{fill:#BE915A;}
	.st47{fill:#B9B9B9;}
	.st48{fill:#F0C727;}
	.st49{fill:#50AF69;}
	.st50{fill:#FFE6E6;}
	.st51{fill:#FFB750;}
	.st52{fill:#FFC455;}
	.st53{fill:#FFCD55;}
	.st54{fill:#9BC800;}
	.st55{fill:#FFE14E;}
	.st56{fill:#FFB14E;}
	.st57{fill:#B46446;}
	.st58{fill:#5FA000;}
	.st59{fill:#F2DD30;}
	.st60{fill:#FFC855;}
	.st61{fill:#A0A0A0;}
	.st62{fill:#69B469;}
	.st63{fill:#F4E08F;}
	.st64{fill:#ECD077;}
	.st65{fill:#FCF0A8;}
	.st66{fill:#FAB446;}
	.st67{fill:#C8414B;}
	.st68{fill:#FF9B46;}
	.st69{fill:#FF9B55;}
	.st70{fill:#82C3D2;}
	.st71{fill:#5AA587;}
	.st72{fill:#CDCDCD;}
	.st73{fill:#B4A08C;}
	.st74{fill:#FFD250;}
	.st75{fill:#00C3A0;}
	.st76{fill:#00AADC;}
	.st77{fill:#732D37;}
	.st78{fill:#AAD264;}
	.st79{fill:#874150;}
	.st80{fill:#783C46;}
	.st81{fill:#FFB478;}
	.st82{fill:#9B4B5A;}
	.st83{fill:#FFCD5A;}
	.st84{fill:#FFAA5A;}
	.st85{fill:#FF875A;}
	.st86{fill:#E6B432;}
	.st87{fill:#C86464;}
	.st88{fill:#FFF5E1;}
	.st89{fill:#963C3C;}
	.st90{fill:#5A8250;}
	.st91{fill:#AFEBFF;}
	.st92{fill:#557DE6;}
	.st93{fill:#D23741;}
	.st94{fill:#64C86E;}
	.st95{fill:#873250;}
	.st96{fill:#41AA5A;}
	.st97{fill:#8CD7FF;}
	.st98{fill:#6EC86E;}
	.st99{fill:#FFF0E1;}
	.st100{fill:#FFC75A;}
	.st101{fill:#FFD350;}
	.st102{fill:#FFBE50;}
	.st103{fill:#A54B50;}
	.st104{fill:#C87878;}
	.st105{fill:#FF1722;}
	.st106{fill:#FFB441;}
	.st107{fill:#5064AA;}
	.st108{fill:#FFA0D2;}
	.st109{fill:#FF7350;}
	.st110{fill:#245DBD;}
	.st111{fill:#D35A10;}
	.st112{fill:#FFA033;}
	.st113{fill:#FF9480;}
	.st114{fill:#FFA0E4;}
	.st115{fill:#696E7D;}
	.st116{fill:#FFFCFF;}
	.st117{fill:#EBEBEB;}
	.st118{fill:#FF4B57;}
	.st119{fill:#D2D2D2;}
	.st120{fill:#F0C814;}
	.st121{fill:#F7B518;}
	.st122{fill:#2C2F38;}
	.st123{fill:#4C8056;}
	.st124{fill:#F0C419;}
	.st125{fill:#C03A2B;}
	.st126{fill:#EA3F3F;}
	.st127{fill:#E4E3E1;}
	.st128{fill:#2472B2;}
</style>
<g>
	<path class="st0" d="M31.97,1.37H0V0.53c0-0.27,0.25-0.49,0.55-0.49h30.87c0.3,0,0.55,0.22,0.55,0.49V1.37z M31.97,1.37"/>
	<rect y="1.37" class="st3" width="31.97" height="1.32"/>
	<rect y="2.69" class="st0" width="31.97" height="1.32"/>
	<rect y="4.01" class="st3" width="31.97" height="1.32"/>
	<rect y="5.33" class="st0" width="31.97" height="1.32"/>
	<rect y="6.65" class="st3" width="31.97" height="1.32"/>
	<rect y="7.98" class="st0" width="31.97" height="1.32"/>
	<rect y="9.3" class="st3" width="31.97" height="1.32"/>
	<path class="st0" d="M31.97,11.94H0V9.79h0.55v0.83h31.42V11.94z M31.97,11.94"/>
	<rect y="11.94" class="st3" width="31.97" height="1.32"/>
	<rect y="13.26" class="st0" width="31.97" height="1.32"/>
	<rect y="14.59" class="st3" width="31.97" height="1.32"/>
	<rect y="15.91" class="st0" width="31.97" height="1.32"/>
	<path class="st3" d="M31.42,18.55H0.55c-0.3,0-0.55-0.22-0.55-0.49v-0.83h31.97v0.83C31.97,18.33,31.72,18.55,31.42,18.55
		L31.42,18.55z M31.42,18.55"/>
	<path class="st4" d="M19.29,10.62H0.55C0.25,10.62,0,10.4,0,10.13v-9.6c0-0.27,0.25-0.49,0.55-0.49h18.74
		c0.3,0,0.55,0.22,0.55,0.49v9.6C19.84,10.4,19.6,10.62,19.29,10.62L19.29,10.62z M19.29,10.62"/>
	<path class="st7" d="M5.24,5.33c0-1.84,1.69-3.34,3.77-3.34c0.52,0,1.02,0.09,1.48,0.27c0.06,0.02,0.1-0.05,0.05-0.08
		c-0.75-0.45-1.67-0.7-2.65-0.65c-2.17,0.1-3.94,1.64-4.08,3.55C3.64,7.3,5.64,9.14,8.11,9.14c0.9,0,1.73-0.24,2.42-0.66
		c0.05-0.03,0.01-0.1-0.05-0.08c-0.45,0.17-0.95,0.26-1.47,0.26C6.93,8.66,5.24,7.17,5.24,5.33"/>
	<path class="st7" d="M13.87,5.33l1.6-0.55c0.08-0.03,0.05-0.13-0.03-0.13l-1.7,0.12l1.17-1.11c0.06-0.05-0.02-0.14-0.09-0.1
		l-1.48,0.76l0.51-1.44c0.03-0.07-0.08-0.12-0.13-0.06l-0.96,1.25l-0.25-1.5c-0.01-0.07-0.13-0.07-0.15,0L12.2,3.54l-0.07,0.4
		l-0.02,0.15l-0.96-1.25c-0.05-0.06-0.16-0.02-0.13,0.06l0.51,1.44l-1.48-0.76C9.98,3.53,9.9,3.62,9.96,3.67l1.17,1.11L9.43,4.66
		c-0.08-0.01-0.11,0.1-0.03,0.13l1.6,0.55l-1.6,0.55C9.31,5.9,9.34,6,9.43,6l1.71-0.12L9.96,6.99c-0.06,0.05,0.02,0.14,0.09,0.1
		l1.48-0.77l-0.51,1.44c-0.03,0.07,0.08,0.12,0.13,0.06l0.96-1.25l0.02,0.15l0.07,0.4l0.16,0.95c0.01,0.07,0.13,0.07,0.15,0
		l0.25-1.5l0.96,1.25c0.05,0.06,0.16,0.02,0.13-0.06l-0.51-1.44l1.48,0.77c0.07,0.04,0.15-0.05,0.09-0.1l-1.17-1.11L15.43,6
		c0.08,0.01,0.11-0.1,0.03-0.13L13.87,5.33z M13.87,5.33"/>
</g>
</svg>
