<?xml version="1.0" encoding="utf-8"?>
<!-- Generator: Adobe Illustrator 25.0.0, SVG Export Plug-In . SVG Version: 6.00 Build 0)  -->
<svg version="1.1" id="Capa_1" xmlns="http://www.w3.org/2000/svg" xmlns:xlink="http://www.w3.org/1999/xlink" x="0px" y="0px"
	 viewBox="0 0 32 18.62" style="enable-background:new 0 0 32 18.62;" xml:space="preserve">
<style type="text/css">
	.st0{fill:#FF4B55;}
	.st1{fill:#464655;}
	.st2{fill:#73AF00;}
	.st3{fill:#F5F5F5;}
	.st4{fill:#41479B;}
	.st5{fill:#FFF5DC;}
	.st6{fill:#D27D69;}
	.st7{fill:#FFE15A;}
	.st8{fill:#B95546;}
	.st9{fill:#DCBE82;}
	.st10{fill:#D2AA73;}
	.st11{fill:#4173CD;}
	.st12{fill:#82AFFF;}
	.st13{fill:#F09146;}
	.st14{fill:#FFB400;}
	.st15{fill:#965032;}
	.st16{fill:#BE7855;}
	.st17{fill:#FFBE3C;}
	.st18{fill:#EAF3F5;}
	.st19{fill:#8C5A28;}
	.st20{fill:#F0C850;}
	.st21{fill:#FF6E55;}
	.st22{fill:#FFBE5A;}
	.st23{fill:#3CC8FF;}
	.st24{fill:#825546;}
	.st25{fill:#FFD255;}
	.st26{fill:#FFD25A;}
	.st27{fill:#509664;}
	.st28{fill:#F0AA00;}
	.st29{fill:#A561CD;}
	.st30{fill:#B34900;}
	.st31{fill:#64B496;}
	.st32{fill:#FF6B71;}
	.st33{fill:#5F64B9;}
	.st34{fill:#F5F0F0;}
	.st35{fill:#5A4646;}
	.st36{fill:#E6E1CD;}
	.st37{fill:#FFD0AF;}
	.st38{fill:#FFAF94;}
	.st39{fill:#8CB400;}
	.st40{fill:#69C3FF;}
	.st41{fill:#009B64;}
	.st42{fill:#5AA0E6;}
	.st43{fill:#FFC88C;}
	.st44{fill:#E1E1E1;}
	.st45{fill:#966446;}
	.st46{fill:#BE915A;}
	.st47{fill:#B9B9B9;}
	.st48{fill:#F0C727;}
	.st49{fill:#50AF69;}
	.st50{fill:#FFE6E6;}
	.st51{fill:#FFB750;}
	.st52{fill:#FFC455;}
	.st53{fill:#FFCD55;}
	.st54{fill:#9BC800;}
	.st55{fill:#FFE14E;}
	.st56{fill:#FFB14E;}
	.st57{fill:#B46446;}
	.st58{fill:#5FA000;}
	.st59{fill:#F2DD30;}
	.st60{fill:#FFC855;}
	.st61{fill:#A0A0A0;}
	.st62{fill:#69B469;}
	.st63{fill:#F4E08F;}
	.st64{fill:#ECD077;}
	.st65{fill:#FCF0A8;}
	.st66{fill:#FAB446;}
	.st67{fill:#C8414B;}
	.st68{fill:#FF9B46;}
	.st69{fill:#FF9B55;}
	.st70{fill:#82C3D2;}
	.st71{fill:#5AA587;}
	.st72{fill:#CDCDCD;}
	.st73{fill:#B4A08C;}
	.st74{fill:#FFD250;}
	.st75{fill:#00C3A0;}
	.st76{fill:#00AADC;}
	.st77{fill:#732D37;}
	.st78{fill:#AAD264;}
	.st79{fill:#874150;}
	.st80{fill:#783C46;}
	.st81{fill:#FFB478;}
	.st82{fill:#9B4B5A;}
	.st83{fill:#FFCD5A;}
	.st84{fill:#FFAA5A;}
	.st85{fill:#FF875A;}
	.st86{fill:#E6B432;}
	.st87{fill:#C86464;}
	.st88{fill:#FFF5E1;}
	.st89{fill:#963C3C;}
	.st90{fill:#5A8250;}
	.st91{fill:#AFEBFF;}
	.st92{fill:#557DE6;}
	.st93{fill:#D23741;}
	.st94{fill:#64C86E;}
	.st95{fill:#873250;}
	.st96{fill:#41AA5A;}
	.st97{fill:#8CD7FF;}
	.st98{fill:#6EC86E;}
	.st99{fill:#FFF0E1;}
	.st100{fill:#FFC75A;}
	.st101{fill:#FFD350;}
	.st102{fill:#FFBE50;}
	.st103{fill:#A54B50;}
	.st104{fill:#C87878;}
	.st105{fill:#FF1722;}
	.st106{fill:#FFB441;}
	.st107{fill:#5064AA;}
	.st108{fill:#FFA0D2;}
	.st109{fill:#FF7350;}
	.st110{fill:#245DBD;}
	.st111{fill:#D35A10;}
	.st112{fill:#FFA033;}
	.st113{fill:#FF9480;}
	.st114{fill:#FFA0E4;}
	.st115{fill:#696E7D;}
	.st116{fill:#FFFCFF;}
	.st117{fill:#EBEBEB;}
	.st118{fill:#FF4B57;}
	.st119{fill:#D2D2D2;}
	.st120{fill:#F0C814;}
	.st121{fill:#F7B518;}
	.st122{fill:#2C2F38;}
	.st123{fill:#4C8056;}
	.st124{fill:#F0C419;}
	.st125{fill:#C03A2B;}
	.st126{fill:#EA3F3F;}
	.st127{fill:#E4E3E1;}
	.st128{fill:#2472B2;}
</style>
<g>
	<path class="st71" d="M31.97,6.21H0V0.53c0-0.27,0.25-0.49,0.55-0.49h30.87c0.3,0,0.55,0.22,0.55,0.49V6.21z M31.97,6.21"/>
	<path class="st7" d="M31.42,18.55H0.55c-0.3,0-0.55-0.22-0.55-0.49v-5.68h31.97v5.68C31.97,18.33,31.72,18.55,31.42,18.55
		L31.42,18.55z M31.42,18.55"/>
	<rect y="6.21" class="st1" width="31.97" height="6.17"/>
	<rect y="5.67" class="st3" width="31.97" height="0.77"/>
	<rect y="12.16" class="st3" width="31.97" height="0.77"/>
	<path class="st0" d="M0.2,18.43l12.67-8.88c0.18-0.13,0.18-0.38,0-0.5L0.2,0.16C0.08,0.25,0,0.38,0,0.53v17.53
		C0,18.22,0.08,18.34,0.2,18.43L0.2,18.43z M0.2,18.43"/>
	<path class="st7" d="M5.11,6.13l0.81,2.13l2.55,0.02c0.14,0,0.2,0.16,0.09,0.24L6.5,9.86L7.27,12c0.04,0.12-0.11,0.22-0.23,0.15
		l-2.07-1.31L2.9,12.15C2.78,12.22,2.63,12.12,2.67,12l0.77-2.15L1.39,8.52C1.27,8.44,1.33,8.28,1.47,8.28l2.55-0.02l0.81-2.13
		C4.87,6.01,5.06,6.01,5.11,6.13L5.11,6.13z M5.11,6.13"/>
	<path class="st3" d="M4.82,10.1l-0.2,0.18H2.96L3.41,8.8L3.6,8.72l-0.3,1.31c0,0.02,0,0.03,0.01,0.05
		c0.01,0.01,0.03,0.02,0.05,0.02H4.82z M4.82,10.1"/>
	<path class="st3" d="M5.22,10.34c-0.07,0.05-0.16,0.07-0.25,0.07c-0.09,0-0.18-0.03-0.25-0.07l0.25-0.22L5.22,10.34z M5.22,10.34"
		/>
	<path class="st3" d="M6.98,10.27H5.31l-0.2-0.18h1.46c0.02,0,0.04-0.01,0.05-0.02c0.01-0.01,0.02-0.03,0.01-0.05l-0.3-1.31
		L6.53,8.8L6.98,10.27z M6.98,10.27"/>
	<path class="st3" d="M6.5,9.99H5.03V8.64c0.25-0.18,0.9-0.06,1.17,0.02L6.5,9.99z M6.5,9.99"/>
	<path class="st3" d="M4.91,8.64v1.34H3.43l0.3-1.33C4.01,8.58,4.66,8.46,4.91,8.64L4.91,8.64z M4.91,8.64"/>
	<path class="st1" d="M7.12,10.31L6.64,8.75c0-0.01-0.02-0.03-0.03-0.03L6.28,8.57c0,0,0,0,0,0c0,0,0,0,0,0
		C6.24,8.55,5.34,8.3,4.97,8.55C4.59,8.3,3.7,8.55,3.66,8.57c0,0,0,0,0,0c0,0,0,0,0,0L3.33,8.71C3.31,8.72,3.3,8.73,3.3,8.75
		l-0.48,1.57c0,0.02,0,0.03,0.01,0.05c0.01,0.01,0.03,0.02,0.05,0.02h1.71c0.1,0.09,0.24,0.14,0.38,0.14c0.14,0,0.28-0.05,0.38-0.14
		h1.71c0.02,0,0.04-0.01,0.05-0.02C7.12,10.35,7.12,10.33,7.12,10.31L7.12,10.31z M5.03,8.64c0.25-0.18,0.9-0.06,1.17,0.02l0.3,1.33
		H5.03V8.64z M3.73,8.66c0.28-0.08,0.93-0.2,1.17-0.02v1.34H3.43L3.73,8.66z M2.96,10.27L3.41,8.8L3.6,8.72l-0.3,1.31
		c0,0.02,0,0.03,0.01,0.05c0.01,0.01,0.03,0.02,0.05,0.02h1.46l-0.2,0.18H2.96z M4.97,10.41c-0.09,0-0.18-0.03-0.25-0.07l0.25-0.22
		l0.25,0.22C5.15,10.39,5.06,10.41,4.97,10.41L4.97,10.41z M5.31,10.27l-0.2-0.18h1.46c0.02,0,0.04-0.01,0.05-0.02
		c0.01-0.01,0.02-0.03,0.01-0.05l-0.3-1.31L6.53,8.8l0.45,1.47H5.31z M5.31,10.27"/>
	<path class="st1" d="M6.5,7.23C6.43,7.27,6.35,7.26,6.3,7.22L6.21,7.14v0.18l-0.5,0.44h-0.2l-0.8,0.7h-0.2L2.99,9.82
		C2.95,9.85,2.94,9.9,2.96,9.94l0.07,0.19l-0.3,0.26h-0.2l-0.61,0.54c-0.05,0.04-0.05,0.11,0,0.16l0.4,0.35
		c0.06,0.05,0.15,0.05,0.21-0.01l0.9-0.95l0.1-0.26l0.2-0.18l0.4,0.53l0.3-0.26L4.1,9.89l0.08-0.07c0.08-0.07,0.08-0.18,0-0.25
		L4.13,9.52l0.06-0.05c0.42,0.32,0.93,0.4,1.42,0.22L5.43,9.35C5.03,9.5,4.71,9.37,4.48,9.21l0.84-0.74L5.29,8.32l0.23-0.21h0.2
		l1.49-1.32L6.5,7.23z M6.5,7.23"/>
	<path class="st1" d="M3.53,7.06l-0.2,0.18c-0.05,0.05-0.05,0.13,0,0.18l0.03,0.03L3.03,7.5l-0.9,0.79l0.5,0.44l0.9-0.79l0.07-0.29
		l0.13,0.12l0.1-0.09l3.31,2.92l0.2-0.18L4.03,7.5l0.1-0.09l-0.4-0.35C3.67,7.01,3.58,7.01,3.53,7.06L3.53,7.06z M3.53,7.06"/>
</g>
</svg>
