<?xml version="1.0" encoding="utf-8"?>
<!-- Generator: Adobe Illustrator 25.0.0, SVG Export Plug-In . SVG Version: 6.00 Build 0)  -->
<svg version="1.1" id="Capa_1" xmlns="http://www.w3.org/2000/svg" xmlns:xlink="http://www.w3.org/1999/xlink" x="0px" y="0px"
	 viewBox="0 0 32 18.62" style="enable-background:new 0 0 32 18.62;" xml:space="preserve">
<style type="text/css">
	.st0{fill:#FF4B55;}
	.st1{fill:#464655;}
	.st2{fill:#73AF00;}
	.st3{fill:#F5F5F5;}
	.st4{fill:#41479B;}
	.st5{fill:#FFF5DC;}
	.st6{fill:#D27D69;}
	.st7{fill:#FFE15A;}
	.st8{fill:#B95546;}
	.st9{fill:#DCBE82;}
	.st10{fill:#D2AA73;}
	.st11{fill:#4173CD;}
	.st12{fill:#82AFFF;}
	.st13{fill:#F09146;}
	.st14{fill:#FFB400;}
	.st15{fill:#965032;}
	.st16{fill:#BE7855;}
	.st17{fill:#FFBE3C;}
	.st18{fill:#EAF3F5;}
	.st19{fill:#8C5A28;}
	.st20{fill:#F0C850;}
	.st21{fill:#FF6E55;}
	.st22{fill:#FFBE5A;}
	.st23{fill:#3CC8FF;}
	.st24{fill:#825546;}
	.st25{fill:#FFD255;}
	.st26{fill:#FFD25A;}
	.st27{fill:#509664;}
	.st28{fill:#F0AA00;}
	.st29{fill:#A561CD;}
	.st30{fill:#B34900;}
	.st31{fill:#64B496;}
	.st32{fill:#FF6B71;}
	.st33{fill:#5F64B9;}
	.st34{fill:#F5F0F0;}
	.st35{fill:#5A4646;}
	.st36{fill:#E6E1CD;}
	.st37{fill:#FFD0AF;}
	.st38{fill:#FFAF94;}
	.st39{fill:#8CB400;}
	.st40{fill:#69C3FF;}
	.st41{fill:#009B64;}
	.st42{fill:#5AA0E6;}
	.st43{fill:#FFC88C;}
	.st44{fill:#E1E1E1;}
	.st45{fill:#966446;}
	.st46{fill:#BE915A;}
	.st47{fill:#B9B9B9;}
	.st48{fill:#F0C727;}
	.st49{fill:#50AF69;}
	.st50{fill:#FFE6E6;}
	.st51{fill:#FFB750;}
	.st52{fill:#FFC455;}
	.st53{fill:#FFCD55;}
	.st54{fill:#9BC800;}
	.st55{fill:#FFE14E;}
	.st56{fill:#FFB14E;}
	.st57{fill:#B46446;}
	.st58{fill:#5FA000;}
	.st59{fill:#F2DD30;}
	.st60{fill:#FFC855;}
	.st61{fill:#A0A0A0;}
	.st62{fill:#69B469;}
	.st63{fill:#F4E08F;}
	.st64{fill:#ECD077;}
	.st65{fill:#FCF0A8;}
	.st66{fill:#FAB446;}
	.st67{fill:#C8414B;}
	.st68{fill:#FF9B46;}
	.st69{fill:#FF9B55;}
	.st70{fill:#82C3D2;}
	.st71{fill:#5AA587;}
	.st72{fill:#CDCDCD;}
	.st73{fill:#B4A08C;}
	.st74{fill:#FFD250;}
	.st75{fill:#00C3A0;}
	.st76{fill:#00AADC;}
	.st77{fill:#732D37;}
	.st78{fill:#AAD264;}
	.st79{fill:#874150;}
	.st80{fill:#783C46;}
	.st81{fill:#FFB478;}
	.st82{fill:#9B4B5A;}
	.st83{fill:#FFCD5A;}
	.st84{fill:#FFAA5A;}
	.st85{fill:#FF875A;}
	.st86{fill:#E6B432;}
	.st87{fill:#C86464;}
	.st88{fill:#FFF5E1;}
	.st89{fill:#963C3C;}
	.st90{fill:#5A8250;}
	.st91{fill:#AFEBFF;}
	.st92{fill:#557DE6;}
	.st93{fill:#D23741;}
	.st94{fill:#64C86E;}
	.st95{fill:#873250;}
	.st96{fill:#41AA5A;}
	.st97{fill:#8CD7FF;}
	.st98{fill:#6EC86E;}
	.st99{fill:#FFF0E1;}
	.st100{fill:#FFC75A;}
	.st101{fill:#FFD350;}
	.st102{fill:#FFBE50;}
	.st103{fill:#A54B50;}
	.st104{fill:#C87878;}
	.st105{fill:#FF1722;}
	.st106{fill:#FFB441;}
	.st107{fill:#5064AA;}
	.st108{fill:#FFA0D2;}
	.st109{fill:#FF7350;}
	.st110{fill:#245DBD;}
	.st111{fill:#D35A10;}
	.st112{fill:#FFA033;}
	.st113{fill:#FF9480;}
	.st114{fill:#FFA0E4;}
	.st115{fill:#696E7D;}
	.st116{fill:#FFFCFF;}
	.st117{fill:#EBEBEB;}
	.st118{fill:#FF4B57;}
	.st119{fill:#D2D2D2;}
	.st120{fill:#F0C814;}
	.st121{fill:#F7B518;}
	.st122{fill:#2C2F38;}
	.st123{fill:#4C8056;}
	.st124{fill:#F0C419;}
	.st125{fill:#C03A2B;}
	.st126{fill:#EA3F3F;}
	.st127{fill:#E4E3E1;}
	.st128{fill:#2472B2;}
</style>
<g>
	<path class="st4" d="M31.42,18.55H0.55c-0.3,0-0.55-0.22-0.55-0.49V0.53c0-0.27,0.25-0.49,0.55-0.49h30.87
		c0.3,0,0.55,0.22,0.55,0.49v17.53C31.97,18.33,31.72,18.55,31.42,18.55L31.42,18.55z M31.42,18.55"/>
	<path class="st3" d="M15.43,0.04h-0.96L9.37,3V0.04H6.61V3L1.51,0.04H0.55C0.25,0.04,0,0.26,0,0.53v0.39l4.38,2.54H0v2.44h4.38
		L0,8.42v0.39C0,9.08,0.25,9.3,0.55,9.3h0.96l5.11-2.96V9.3h2.76V6.34l5.11,2.96h0.96c0.3,0,0.55-0.22,0.55-0.49V8.42L11.6,5.89
		h4.38V3.45H11.6l4.38-2.54V0.53C15.98,0.26,15.74,0.04,15.43,0.04L15.43,0.04z M15.43,0.04"/>
	<path class="st0" d="M15.98,3.94H8.82v-3.9H7.17v3.9H0V5.4h7.17v3.9h1.65V5.4h7.17V3.94z M15.98,3.94"/>
	<path class="st0" d="M6.06,3.45l-5.8-3.33C0.11,0.21,0,0.36,0,0.53v0.03l5.05,2.9H6.06z M6.06,3.45"/>
	<path class="st0" d="M10.38,3.45l5.52-3.16c-0.1-0.14-0.27-0.24-0.47-0.24h-0.12L9.37,3.45H10.38z M10.38,3.45"/>
	<path class="st0" d="M5.59,5.89L0.08,9.05C0.17,9.19,0.35,9.3,0.55,9.3h0.1L6.6,5.89H5.59z M5.59,5.89"/>
	<path class="st0" d="M15.98,8.85l-5.16-2.96H9.8l5.86,3.36C15.84,9.18,15.96,9.03,15.98,8.85L15.98,8.85z M15.98,8.85"/>
	<path class="st0" d="M24.69,15.48c-0.02,0-0.04-0.01-0.06-0.02l-0.65-0.41l-0.65,0.41c-0.02,0.01-0.04,0.02-0.06,0.02
		c-0.02,0-0.05-0.01-0.06-0.02c-0.04-0.02-0.05-0.07-0.04-0.11l0.24-0.68l-0.64-0.42c-0.04-0.03-0.05-0.07-0.04-0.11
		c0.01-0.04,0.06-0.07,0.1-0.07l0.8-0.01l0.25-0.67c0.02-0.04,0.06-0.07,0.1-0.07c0.05,0,0.09,0.03,0.1,0.07l0.25,0.67l0.8,0.01
		c0.05,0,0.09,0.03,0.1,0.07c0.01,0.04,0,0.08-0.04,0.11l-0.64,0.42l0.24,0.68c0.01,0.04,0,0.08-0.04,0.11
		C24.74,15.48,24.72,15.48,24.69,15.48L24.69,15.48z M24.69,15.48"/>
	<path class="st3" d="M23.98,13.44l0.28,0.74l0.88,0.01l-0.71,0.46l0.27,0.74l-0.72-0.45l-0.72,0.45l0.27-0.74l-0.71-0.46l0.88-0.01
		L23.98,13.44 M23.98,13.24c-0.09,0-0.18,0.05-0.21,0.13l-0.23,0.61l-0.72,0c-0.09,0-0.18,0.05-0.21,0.13
		c-0.03,0.08,0,0.17,0.08,0.22l0.58,0.38l-0.22,0.61c-0.03,0.08,0,0.17,0.08,0.22c0.04,0.02,0.08,0.04,0.13,0.04
		c0.04,0,0.09-0.01,0.13-0.04l0.59-0.37l0.59,0.37c0.04,0.02,0.08,0.04,0.13,0.04c0.05,0,0.09-0.01,0.13-0.04
		c0.08-0.05,0.11-0.14,0.08-0.22l-0.22-0.61l0.58-0.38c0.08-0.05,0.11-0.14,0.08-0.22c-0.03-0.08-0.11-0.13-0.21-0.13l-0.72,0
		l-0.23-0.61C24.16,13.3,24.07,13.24,23.98,13.24L23.98,13.24z M23.98,13.24"/>
	<path class="st0" d="M24.69,7.63c-0.02,0-0.04-0.01-0.06-0.02L23.98,7.2l-0.65,0.41c-0.02,0.01-0.04,0.02-0.06,0.02
		c-0.02,0-0.05-0.01-0.06-0.02c-0.04-0.02-0.05-0.07-0.04-0.11l0.24-0.68l-0.64-0.42c-0.04-0.03-0.05-0.07-0.04-0.11
		c0.01-0.04,0.06-0.07,0.1-0.07l0.8-0.01l0.25-0.67c0.02-0.04,0.06-0.07,0.1-0.07c0.05,0,0.09,0.03,0.1,0.07l0.25,0.67l0.8,0.01
		c0.05,0,0.09,0.03,0.1,0.07c0.01,0.04,0,0.08-0.04,0.11l-0.64,0.42L24.8,7.5c0.01,0.04,0,0.08-0.04,0.11
		C24.74,7.63,24.72,7.63,24.69,7.63L24.69,7.63z M24.69,7.63"/>
	<path class="st3" d="M23.98,5.59l0.28,0.74l0.88,0.01l-0.71,0.46l0.27,0.74l-0.72-0.45l-0.72,0.45l0.27-0.74l-0.71-0.46l0.88-0.01
		L23.98,5.59 M23.98,5.39c-0.09,0-0.18,0.05-0.21,0.13l-0.23,0.61l-0.72,0.01c-0.09,0-0.18,0.05-0.21,0.13
		c-0.03,0.08,0,0.17,0.08,0.22l0.58,0.38l-0.22,0.61c-0.03,0.08,0,0.17,0.08,0.22c0.04,0.02,0.08,0.04,0.13,0.04
		c0.04,0,0.09-0.01,0.13-0.04l0.59-0.37l0.59,0.37c0.04,0.02,0.08,0.04,0.13,0.04c0.05,0,0.09-0.01,0.13-0.04
		c0.08-0.05,0.11-0.14,0.08-0.22l-0.22-0.61l0.58-0.38c0.08-0.05,0.11-0.14,0.08-0.22c-0.03-0.08-0.11-0.13-0.21-0.13l-0.72-0.01
		l-0.23-0.61C24.16,5.44,24.07,5.39,23.98,5.39L23.98,5.39z M23.98,5.39"/>
	<path class="st0" d="M28.55,10.07c-0.02,0-0.04-0.01-0.06-0.02l-0.65-0.41l-0.65,0.41c-0.02,0.01-0.04,0.02-0.06,0.02
		c-0.02,0-0.05-0.01-0.06-0.02c-0.04-0.02-0.05-0.07-0.04-0.11l0.24-0.68l-0.64-0.42c-0.04-0.03-0.05-0.07-0.04-0.11
		c0.01-0.04,0.06-0.07,0.1-0.07l0.8-0.01l0.25-0.67c0.01-0.04,0.06-0.07,0.1-0.07c0.05,0,0.09,0.03,0.1,0.07l0.25,0.67L29,8.67
		c0.05,0,0.09,0.03,0.1,0.07c0.01,0.04,0,0.08-0.04,0.11l-0.64,0.42l0.24,0.68c0.01,0.04,0,0.08-0.04,0.11
		C28.6,10.06,28.57,10.07,28.55,10.07L28.55,10.07z M28.55,10.07"/>
	<path class="st3" d="M27.83,8.02l0.28,0.74l0.88,0.01l-0.71,0.46l0.27,0.74l-0.72-0.45l-0.72,0.45l0.27-0.74l-0.71-0.46l0.88-0.01
		L27.83,8.02 M27.83,7.83c-0.09,0-0.18,0.05-0.21,0.13L27.4,8.57l-0.72,0c-0.09,0-0.18,0.05-0.21,0.13c-0.03,0.08,0,0.17,0.08,0.22
		l0.58,0.38l-0.22,0.61c-0.03,0.08,0,0.17,0.08,0.22c0.04,0.02,0.08,0.04,0.13,0.04c0.04,0,0.09-0.01,0.13-0.04l0.59-0.37l0.59,0.37
		c0.04,0.02,0.08,0.04,0.13,0.04c0.05,0,0.09-0.01,0.13-0.04c0.08-0.05,0.11-0.14,0.08-0.22L28.54,9.3l0.58-0.38
		c0.08-0.05,0.11-0.14,0.08-0.22C29.17,8.63,29.09,8.57,29,8.57l-0.72,0l-0.23-0.61C28.01,7.88,27.93,7.83,27.83,7.83L27.83,7.83z
		 M27.83,7.83"/>
	<path class="st0" d="M20.83,11.04c-0.02,0-0.04-0.01-0.06-0.02l-0.65-0.41l-0.65,0.41c-0.02,0.01-0.04,0.02-0.06,0.02
		c-0.02,0-0.05-0.01-0.06-0.02c-0.04-0.02-0.05-0.07-0.04-0.11l0.24-0.68l-0.64-0.42c-0.04-0.03-0.05-0.07-0.04-0.11
		c0.01-0.04,0.06-0.07,0.1-0.07l0.8-0.01l0.25-0.67c0.02-0.04,0.06-0.07,0.1-0.07c0.05,0,0.09,0.03,0.1,0.07l0.25,0.67l0.8,0.01
		c0.05,0,0.09,0.03,0.1,0.07c0.01,0.04,0,0.08-0.04,0.11l-0.64,0.42l0.24,0.68c0.01,0.04,0,0.08-0.04,0.11
		C20.88,11.03,20.86,11.04,20.83,11.04L20.83,11.04z M20.83,11.04"/>
	<path class="st3" d="M20.12,8.99l0.28,0.74l0.88,0.01l-0.71,0.46l0.27,0.74l-0.72-0.45l-0.72,0.45l0.27-0.74l-0.71-0.46l0.88-0.01
		L20.12,8.99 M20.12,8.8c-0.09,0-0.18,0.05-0.21,0.13l-0.23,0.61l-0.72,0c-0.1,0-0.18,0.05-0.21,0.13c-0.03,0.08,0,0.17,0.08,0.22
		l0.58,0.38l-0.22,0.61c-0.03,0.08,0,0.17,0.08,0.22c0.04,0.02,0.08,0.04,0.13,0.04c0.05,0,0.09-0.01,0.13-0.04l0.59-0.37l0.59,0.37
		c0.04,0.02,0.08,0.04,0.13,0.04c0.05,0,0.09-0.01,0.13-0.04c0.08-0.05,0.11-0.14,0.08-0.22l-0.22-0.61l0.58-0.38
		c0.08-0.05,0.11-0.14,0.08-0.22c-0.03-0.08-0.11-0.13-0.21-0.13l-0.72,0l-0.23-0.61C20.3,8.85,20.21,8.8,20.12,8.8L20.12,8.8z
		 M20.12,8.8"/>
</g>
</svg>
