<?xml version="1.0" encoding="utf-8"?>
<!-- Generator: Adobe Illustrator 25.0.0, SVG Export Plug-In . SVG Version: 6.00 Build 0)  -->
<svg version="1.1" id="Capa_1" xmlns="http://www.w3.org/2000/svg" xmlns:xlink="http://www.w3.org/1999/xlink" x="0px" y="0px"
	 viewBox="0 0 32 18.62" style="enable-background:new 0 0 32 18.62;" xml:space="preserve">
<style type="text/css">
	.st0{fill:#FF4B55;}
	.st1{fill:#464655;}
	.st2{fill:#73AF00;}
	.st3{fill:#F5F5F5;}
	.st4{fill:#41479B;}
	.st5{fill:#FFF5DC;}
	.st6{fill:#D27D69;}
	.st7{fill:#FFE15A;}
	.st8{fill:#B95546;}
	.st9{fill:#DCBE82;}
	.st10{fill:#D2AA73;}
	.st11{fill:#4173CD;}
	.st12{fill:#82AFFF;}
	.st13{fill:#F09146;}
	.st14{fill:#FFB400;}
	.st15{fill:#965032;}
	.st16{fill:#BE7855;}
	.st17{fill:#FFBE3C;}
	.st18{fill:#EAF3F5;}
	.st19{fill:#8C5A28;}
	.st20{fill:#F0C850;}
	.st21{fill:#FF6E55;}
	.st22{fill:#FFBE5A;}
	.st23{fill:#3CC8FF;}
	.st24{fill:#825546;}
	.st25{fill:#FFD255;}
	.st26{fill:#FFD25A;}
	.st27{fill:#509664;}
	.st28{fill:#F0AA00;}
	.st29{fill:#A561CD;}
	.st30{fill:#B34900;}
	.st31{fill:#64B496;}
	.st32{fill:#FF6B71;}
	.st33{fill:#5F64B9;}
	.st34{fill:#F5F0F0;}
	.st35{fill:#5A4646;}
	.st36{fill:#E6E1CD;}
	.st37{fill:#FFD0AF;}
	.st38{fill:#FFAF94;}
	.st39{fill:#8CB400;}
	.st40{fill:#69C3FF;}
	.st41{fill:#009B64;}
	.st42{fill:#5AA0E6;}
	.st43{fill:#FFC88C;}
	.st44{fill:#E1E1E1;}
	.st45{fill:#966446;}
	.st46{fill:#BE915A;}
	.st47{fill:#B9B9B9;}
	.st48{fill:#F0C727;}
	.st49{fill:#50AF69;}
	.st50{fill:#FFE6E6;}
	.st51{fill:#FFB750;}
	.st52{fill:#FFC455;}
	.st53{fill:#FFCD55;}
	.st54{fill:#9BC800;}
	.st55{fill:#FFE14E;}
	.st56{fill:#FFB14E;}
	.st57{fill:#B46446;}
	.st58{fill:#5FA000;}
	.st59{fill:#F2DD30;}
	.st60{fill:#FFC855;}
	.st61{fill:#A0A0A0;}
	.st62{fill:#69B469;}
	.st63{fill:#F4E08F;}
	.st64{fill:#ECD077;}
	.st65{fill:#FCF0A8;}
	.st66{fill:#FAB446;}
	.st67{fill:#C8414B;}
	.st68{fill:#FF9B46;}
	.st69{fill:#FF9B55;}
	.st70{fill:#82C3D2;}
	.st71{fill:#5AA587;}
	.st72{fill:#CDCDCD;}
	.st73{fill:#B4A08C;}
	.st74{fill:#FFD250;}
	.st75{fill:#00C3A0;}
	.st76{fill:#00AADC;}
	.st77{fill:#732D37;}
	.st78{fill:#AAD264;}
	.st79{fill:#874150;}
	.st80{fill:#783C46;}
	.st81{fill:#FFB478;}
	.st82{fill:#9B4B5A;}
	.st83{fill:#FFCD5A;}
	.st84{fill:#FFAA5A;}
	.st85{fill:#FF875A;}
	.st86{fill:#E6B432;}
	.st87{fill:#C86464;}
	.st88{fill:#FFF5E1;}
	.st89{fill:#963C3C;}
	.st90{fill:#5A8250;}
	.st91{fill:#AFEBFF;}
	.st92{fill:#557DE6;}
	.st93{fill:#D23741;}
	.st94{fill:#64C86E;}
	.st95{fill:#873250;}
	.st96{fill:#41AA5A;}
	.st97{fill:#8CD7FF;}
	.st98{fill:#6EC86E;}
	.st99{fill:#FFF0E1;}
	.st100{fill:#FFC75A;}
	.st101{fill:#FFD350;}
	.st102{fill:#FFBE50;}
	.st103{fill:#A54B50;}
	.st104{fill:#C87878;}
	.st105{fill:#FF1722;}
	.st106{fill:#FFB441;}
	.st107{fill:#5064AA;}
	.st108{fill:#FFA0D2;}
	.st109{fill:#FF7350;}
	.st110{fill:#245DBD;}
	.st111{fill:#D35A10;}
	.st112{fill:#FFA033;}
	.st113{fill:#FF9480;}
	.st114{fill:#FFA0E4;}
	.st115{fill:#696E7D;}
	.st116{fill:#FFFCFF;}
	.st117{fill:#EBEBEB;}
	.st118{fill:#FF4B57;}
	.st119{fill:#D2D2D2;}
	.st120{fill:#F0C814;}
	.st121{fill:#F7B518;}
	.st122{fill:#2C2F38;}
	.st123{fill:#4C8056;}
	.st124{fill:#F0C419;}
	.st125{fill:#C03A2B;}
	.st126{fill:#EA3F3F;}
	.st127{fill:#E4E3E1;}
	.st128{fill:#2472B2;}
</style>
<g>
	<path class="st3" d="M31.97,6.21H0V0.53c0-0.27,0.25-0.49,0.55-0.49h30.87c0.3,0,0.55,0.22,0.55,0.49V6.21z M31.97,6.21"/>
	<path class="st2" d="M31.42,18.55H0.55c-0.3,0-0.55-0.22-0.55-0.49v-5.68h31.97v5.68C31.97,18.33,31.72,18.55,31.42,18.55
		L31.42,18.55z M31.42,18.55"/>
	<rect y="6.21" class="st0" width="31.97" height="6.17"/>
	<path class="st0" d="M8.27,18.55H0.55c-0.3,0-0.55-0.22-0.55-0.49V0.53c0-0.27,0.25-0.49,0.55-0.49h7.72V18.55z M8.27,18.55"/>
	<path class="st3" d="M2.25,4.08c-0.03,0-0.06,0.01-0.09,0.01v0.35c0.03,0.01,0.06,0.01,0.09,0.02V4.08z M2.25,4.08"/>
	<path class="st3" d="M3.61,4.74C3.53,4.74,3.4,4.73,3.25,4.71L2.31,5.45C2.43,5.47,2.58,5.49,2.64,5.5
		C2.88,5.32,3.21,5.06,3.61,4.74L3.61,4.74z M3.61,4.74"/>
	<path class="st3" d="M5.03,3.57V3.49H3.36V3.6h1.67V3.57z M5.03,3.57"/>
	<path class="st3" d="M3.79,1.45c0,0.1,0.18,0.19,0.39,0.19c0.21,0,0.39-0.09,0.39-0.19c0-0.1-0.18-0.19-0.39-0.19
		C3.97,1.26,3.79,1.35,3.79,1.45L3.79,1.45z M3.79,1.45"/>
	<path class="st3" d="M3.43,4.03c-0.38,0-0.75,0.01-1.06,0.04v0.41C2.73,4.55,3.15,4.6,3.43,4.63V4.03z M3.43,4.03"/>
	<path class="st3" d="M1.48,6.05c0.15,0,0.48-0.05,0.7-0.21C2.25,5.8,2.37,5.71,2.53,5.59c-0.11-0.02-0.3-0.04-0.4-0.06L1.48,6.05z
		 M1.48,6.05"/>
	<path class="st3" d="M3.64,3.39V3.21C3.61,3.17,3.58,3.13,3.55,3.09L3.3,3.26c0.05,0.08,0.08,0.13,0.09,0.14H3.64z M3.64,3.39"/>
	<path class="st3" d="M1.67,4.23c0,0,0,0.01,0.01,0.02c0.05,0.05,0.19,0.11,0.37,0.15v-0.3C1.83,4.14,1.68,4.18,1.67,4.23L1.67,4.23
		z M1.67,4.23"/>
	<path class="st3" d="M4.6,4.09V3.7H3.76v0.94h0.21C4.32,4.65,4.6,4.4,4.6,4.09L4.6,4.09z M4.6,4.09"/>
	<path class="st3" d="M3.24,2.68C2.79,2.09,2.31,1.47,2.19,1.35C2.21,1.41,2.25,1.51,2.34,1.7c0.12,0.25,0.42,0.73,0.67,1.11
		L3.24,2.68z M3.24,2.68"/>
	<path class="st3" d="M3.07,2.9C3.13,3,3.19,3.09,3.24,3.17l0.25-0.16C3.43,2.93,3.37,2.85,3.31,2.77L3.07,2.9z M3.07,2.9"/>
	<path class="st3" d="M3.64,4.64V4.04c-0.03,0-0.07,0-0.1,0v0.6C3.58,4.64,3.61,4.64,3.64,4.64L3.64,4.64z M3.64,4.64"/>
	<rect x="3.76" y="2.87" class="st3" width="0.85" height="0.11"/>
	<path class="st3" d="M5.78,3.39L5.78,3.39l0.04,0.01c0.03,0,0.06,0.02,0.06,0.05v0.21c0,0.03-0.03,0.05-0.06,0.05H5.78v0.01
		c0,0.03,0.03,0.05,0.06,0.05H6.8c0.03,0,0.06-0.02,0.06-0.05V3.39c0-0.03-0.03-0.05-0.06-0.05H5.84C5.8,3.34,5.78,3.36,5.78,3.39
		L5.78,3.39z M5.78,3.39"/>
	<path class="st3" d="M6.86,6.05L6.22,5.53c-0.1,0.01-0.29,0.04-0.4,0.06C5.98,5.71,6.1,5.8,6.17,5.85C6.39,6,6.71,6.05,6.86,6.05
		L6.86,6.05z M6.86,6.05"/>
	<path class="st3" d="M5.53,3.53V3.6h0.23V3.49H5.53V3.53z M5.53,3.53"/>
	<path class="st3" d="M5.71,5.5c0.06-0.02,0.21-0.04,0.33-0.06L4.65,4.36C4.62,4.43,4.56,4.5,4.5,4.55l0.04,0.03
		C5.04,4.98,5.43,5.29,5.71,5.5L5.71,5.5z M5.71,5.5"/>
	<path class="st3" d="M2.6,3.71L2.6,3.71L2.56,3.7C2.53,3.7,2.5,3.68,2.5,3.65V3.44c0-0.03,0.03-0.05,0.06-0.05H2.6V3.39
		c0-0.03-0.03-0.05-0.06-0.05H1.58c-0.03,0-0.06,0.02-0.06,0.05v0.32c0,0.03,0.03,0.05,0.06,0.05h0.97C2.58,3.76,2.6,3.74,2.6,3.71
		L2.6,3.71z M2.6,3.71"/>
	<path class="st3" d="M2.85,3.57V3.49H2.62V3.6h0.23V3.57z M2.85,3.57"/>
	<path class="st3" d="M5.05,3.26L4.79,3.09c-0.03,0.03-0.05,0.07-0.08,0.1v0.2h0.24C4.97,3.38,5,3.33,5.05,3.26L5.05,3.26z
		 M5.05,3.26"/>
	<path class="st3" d="M3.83,2.56h0.69L4.37,2.41H3.99L3.83,2.56z M3.83,2.56"/>
	<rect x="3.76" y="2.67" class="st3" width="0.85" height="0.1"/>
	<path class="st3" d="M4.18,1.75c-0.06,0-0.11-0.01-0.16-0.02V2.3h0.32V1.73C4.29,1.74,4.23,1.75,4.18,1.75L4.18,1.75z M4.18,1.75"
		/>
	<path class="st3" d="M3.76,3.19H4.6c0-0.01,0-0.01,0-0.02V3.08H3.76V3.19z M3.76,3.19"/>
	<path class="st3" d="M4.86,3.01l0.25,0.16C5.16,3.09,5.22,3,5.28,2.9L5.04,2.77C4.98,2.85,4.92,2.93,4.86,3.01L4.86,3.01z
		 M4.86,3.01"/>
	<rect x="3.76" y="3.29" class="st3" width="0.85" height="0.11"/>
	<path class="st3" d="M5.34,2.81C5.59,2.43,5.88,1.95,6.01,1.7c0.1-0.19,0.14-0.3,0.15-0.35c-0.12,0.12-0.6,0.74-1.05,1.33
		L5.34,2.81z M5.34,2.81"/>
	<path class="st93" d="M7.02,6.04L6.27,5.44C6.26,5.43,6.24,5.42,6.23,5.43c-0.01,0-0.02,0-0.04,0c0,0,0,0,0,0L4.69,4.25
		C4.71,4.2,4.72,4.14,4.72,4.09V3.7h0.36c0.05,0.05,0.12,0.09,0.2,0.09c0.08,0,0.15-0.04,0.2-0.09h0.18v0.01
		c0,0.08,0.08,0.15,0.17,0.15H6.8c0.09,0,0.17-0.07,0.17-0.15V3.39c0-0.08-0.08-0.15-0.17-0.15H5.84c-0.09,0-0.17,0.07-0.17,0.15
		v0.01H5.48C5.43,3.34,5.36,3.3,5.28,3.3c-0.06,0-0.12,0.02-0.16,0.05c0.19-0.29,0.8-1.22,1-1.61c0.21-0.42,0.19-0.48,0.14-0.51
		C6.2,1.19,6.14,1.24,6.11,1.25c-0.1,0.06-1.03,1.28-1.4,1.76v-0.4c0,0,0,0,0,0c0-0.02-0.01-0.03-0.03-0.04L4.45,2.34V1.7
		c0.14-0.05,0.23-0.14,0.23-0.25c0-0.16-0.22-0.29-0.5-0.29c-0.28,0-0.5,0.13-0.5,0.29c0,0.11,0.09,0.2,0.23,0.25v0.64L3.67,2.57
		C3.65,2.58,3.64,2.59,3.64,2.61v0.41C3.28,2.55,2.33,1.31,2.24,1.25C2.21,1.24,2.15,1.19,2.09,1.23C2.04,1.26,2.03,1.32,2.24,1.74
		C2.43,2.13,3,3.01,3.21,3.33C3.18,3.31,3.14,3.3,3.1,3.3c-0.08,0-0.15,0.04-0.2,0.09H2.72V3.39c0-0.08-0.08-0.15-0.17-0.15H1.58
		c-0.09,0-0.17,0.07-0.17,0.15v0.32c0,0.08,0.08,0.15,0.17,0.15h0.97c0.09,0,0.17-0.07,0.17-0.15V3.7H2.9
		c0.05,0.05,0.12,0.09,0.2,0.09c0.08,0,0.15-0.04,0.2-0.09h0.34v0.23c-0.53-0.01-2-0.01-2.08,0.27C1.55,4.24,1.55,4.28,1.59,4.32
		C1.74,4.5,2.53,4.62,3.1,4.69L2.17,5.43c0,0,0,0,0,0c-0.02,0-0.03,0-0.04,0c-0.02,0-0.03,0-0.05,0.01L1.33,6.04
		C1.31,6.06,1.3,6.09,1.32,6.11c0.02,0.03,0.09,0.04,0.17,0.04c0.21,0,0.54-0.08,0.76-0.23c0.18-0.12,0.67-0.5,1.45-1.13
		c0.03-0.03,0.06-0.05,0.07-0.05h0.2c0.16,0,0.31-0.05,0.44-0.13l0.05,0.04C5.37,5.38,5.92,5.8,6.1,5.93
		c0.21,0.15,0.55,0.23,0.76,0.23c0.08,0,0.15-0.01,0.17-0.04C7.05,6.09,7.04,6.06,7.02,6.04L7.02,6.04z M3.76,4.65V3.7H4.6v0.39
		c0,0.31-0.28,0.56-0.63,0.56H3.76z M2.05,4.41c-0.18-0.05-0.32-0.1-0.37-0.15C1.67,4.24,1.67,4.24,1.67,4.23
		c0.01-0.05,0.16-0.1,0.38-0.13V4.41z M2.19,1.35c0.12,0.12,0.6,0.74,1.05,1.33L3.01,2.81C2.76,2.43,2.46,1.95,2.34,1.7
		C2.25,1.51,2.21,1.41,2.19,1.35L2.19,1.35z M3.55,3.09c0.03,0.04,0.06,0.08,0.09,0.11v0.19H3.39C3.38,3.38,3.35,3.33,3.3,3.26
		L3.55,3.09z M3.24,3.17C3.19,3.09,3.13,3,3.07,2.9l0.24-0.13c0.06,0.08,0.12,0.16,0.18,0.24L3.24,3.17z M3.64,4.04v0.61
		c-0.03,0-0.06,0-0.1-0.01v-0.6C3.58,4.04,3.61,4.04,3.64,4.04L3.64,4.04z M2.37,4.07c0.31-0.03,0.68-0.04,1.06-0.04v0.59
		C3.15,4.6,2.73,4.55,2.37,4.48V4.07z M2.16,4.09c0.03,0,0.06-0.01,0.09-0.01v0.38C2.22,4.45,2.19,4.44,2.16,4.44V4.09z M3.25,4.71
		C3.4,4.73,3.53,4.74,3.61,4.74C3.21,5.06,2.88,5.32,2.64,5.5C2.58,5.49,2.43,5.47,2.31,5.45L3.25,4.71z M2.53,5.59
		C2.37,5.71,2.25,5.8,2.18,5.85C1.96,6,1.63,6.05,1.48,6.05l0.65-0.53C2.23,5.54,2.42,5.57,2.53,5.59L2.53,5.59z M3.36,3.6V3.49
		h1.67V3.6H3.36z M4.56,1.45c0,0.1-0.18,0.19-0.39,0.19c-0.21,0-0.39-0.09-0.39-0.19c0-0.1,0.18-0.19,0.39-0.19
		C4.39,1.26,4.56,1.35,4.56,1.45L4.56,1.45z M3.76,2.98V2.87H4.6v0.11H3.76z M4.6,3.08v0.09c0,0.01,0,0.01,0,0.02H3.76V3.08H4.6z
		 M3.76,2.77v-0.1H4.6v0.1H3.76z M4.37,2.41l0.15,0.15H3.83l0.15-0.15H4.37z M4.02,2.3V1.73c0.05,0.01,0.1,0.02,0.16,0.02
		c0.06,0,0.11-0.01,0.16-0.02V2.3H4.02z M3.76,3.29H4.6v0.11H3.76V3.29z M6.01,1.7C5.89,1.95,5.59,2.43,5.34,2.81L5.11,2.68
		c0.45-0.59,0.94-1.21,1.05-1.33C6.14,1.41,6.1,1.51,6.01,1.7L6.01,1.7z M5.42,3.53v0.04c0,0.07-0.06,0.12-0.14,0.12
		c-0.08,0-0.14-0.06-0.14-0.12V3.53c0-0.07,0.06-0.12,0.14-0.12C5.36,3.41,5.42,3.46,5.42,3.53L5.42,3.53z M5.11,3.17L4.86,3.01
		c0.06-0.08,0.12-0.16,0.18-0.24L5.28,2.9C5.22,3,5.16,3.09,5.11,3.17L5.11,3.17z M4.72,3.19c0.03-0.03,0.05-0.07,0.08-0.1
		l0.26,0.16C5,3.33,4.97,3.38,4.96,3.39H4.72V3.19z M4.65,4.36l1.39,1.09C5.92,5.47,5.77,5.49,5.71,5.5
		C5.43,5.29,5.04,4.98,4.53,4.58L4.5,4.55C4.56,4.5,4.62,4.43,4.65,4.36L4.65,4.36z M6.22,5.53l0.65,0.52
		c-0.16,0-0.48-0.05-0.69-0.2C6.1,5.8,5.98,5.71,5.82,5.59C5.93,5.57,6.12,5.54,6.22,5.53L6.22,5.53z M6.86,3.39v0.32
		c0,0.03-0.03,0.05-0.06,0.05H5.84c-0.03,0-0.06-0.02-0.06-0.05V3.7h0.04c0.03,0,0.06-0.02,0.06-0.05V3.44
		c0-0.03-0.03-0.05-0.06-0.05H5.78V3.39c0-0.03,0.03-0.05,0.06-0.05H6.8C6.84,3.34,6.86,3.36,6.86,3.39L6.86,3.39z M5.76,3.6H5.53
		V3.49h0.23V3.6z M1.52,3.71V3.39c0-0.03,0.03-0.05,0.06-0.05h0.97c0.03,0,0.06,0.02,0.06,0.05v0.01H2.56
		c-0.03,0-0.06,0.02-0.06,0.05v0.21c0,0.03,0.03,0.05,0.06,0.05H2.6v0.01c0,0.03-0.03,0.05-0.06,0.05H1.58
		C1.55,3.76,1.52,3.74,1.52,3.71L1.52,3.71z M2.62,3.49h0.23V3.6H2.62V3.49z M3.24,3.57c0,0.07-0.06,0.12-0.14,0.12
		c-0.08,0-0.14-0.06-0.14-0.12V3.53c0-0.07,0.06-0.12,0.14-0.12c0.08,0,0.14,0.06,0.14,0.12V3.57z M3.24,3.57"/>
</g>
</svg>
