<?xml version="1.0" encoding="utf-8"?>
<!-- Generator: Adobe Illustrator 25.0.0, SVG Export Plug-In . SVG Version: 6.00 Build 0)  -->
<svg version="1.1" id="Capa_1" xmlns="http://www.w3.org/2000/svg" xmlns:xlink="http://www.w3.org/1999/xlink" x="0px" y="0px"
	 viewBox="0 0 32 18.62" style="enable-background:new 0 0 32 18.62;" xml:space="preserve">
<style type="text/css">
	.st0{fill:#FF4B55;}
	.st1{fill:#464655;}
	.st2{fill:#73AF00;}
	.st3{fill:#F5F5F5;}
	.st4{fill:#41479B;}
	.st5{fill:#FFF5DC;}
	.st6{fill:#D27D69;}
	.st7{fill:#FFE15A;}
	.st8{fill:#B95546;}
	.st9{fill:#DCBE82;}
	.st10{fill:#D2AA73;}
	.st11{fill:#4173CD;}
	.st12{fill:#82AFFF;}
	.st13{fill:#F09146;}
	.st14{fill:#FFB400;}
	.st15{fill:#965032;}
	.st16{fill:#BE7855;}
	.st17{fill:#FFBE3C;}
	.st18{fill:#EAF3F5;}
	.st19{fill:#8C5A28;}
	.st20{fill:#F0C850;}
	.st21{fill:#FF6E55;}
	.st22{fill:#FFBE5A;}
	.st23{fill:#3CC8FF;}
	.st24{fill:#825546;}
	.st25{fill:#FFD255;}
	.st26{fill:#FFD25A;}
	.st27{fill:#509664;}
	.st28{fill:#F0AA00;}
	.st29{fill:#A561CD;}
	.st30{fill:#B34900;}
	.st31{fill:#64B496;}
	.st32{fill:#FF6B71;}
	.st33{fill:#5F64B9;}
	.st34{fill:#F5F0F0;}
	.st35{fill:#5A4646;}
	.st36{fill:#E6E1CD;}
	.st37{fill:#FFD0AF;}
	.st38{fill:#FFAF94;}
	.st39{fill:#8CB400;}
	.st40{fill:#69C3FF;}
	.st41{fill:#009B64;}
	.st42{fill:#5AA0E6;}
	.st43{fill:#FFC88C;}
	.st44{fill:#E1E1E1;}
	.st45{fill:#966446;}
	.st46{fill:#BE915A;}
	.st47{fill:#B9B9B9;}
	.st48{fill:#F0C727;}
	.st49{fill:#50AF69;}
	.st50{fill:#FFE6E6;}
	.st51{fill:#FFB750;}
	.st52{fill:#FFC455;}
	.st53{fill:#FFCD55;}
	.st54{fill:#9BC800;}
	.st55{fill:#FFE14E;}
	.st56{fill:#FFB14E;}
	.st57{fill:#B46446;}
	.st58{fill:#5FA000;}
	.st59{fill:#F2DD30;}
	.st60{fill:#FFC855;}
	.st61{fill:#A0A0A0;}
	.st62{fill:#69B469;}
	.st63{fill:#F4E08F;}
	.st64{fill:#ECD077;}
	.st65{fill:#FCF0A8;}
	.st66{fill:#FAB446;}
	.st67{fill:#C8414B;}
	.st68{fill:#FF9B46;}
	.st69{fill:#FF9B55;}
	.st70{fill:#82C3D2;}
	.st71{fill:#5AA587;}
	.st72{fill:#CDCDCD;}
	.st73{fill:#B4A08C;}
	.st74{fill:#FFD250;}
	.st75{fill:#00C3A0;}
	.st76{fill:#00AADC;}
	.st77{fill:#732D37;}
	.st78{fill:#AAD264;}
	.st79{fill:#874150;}
	.st80{fill:#783C46;}
	.st81{fill:#FFB478;}
	.st82{fill:#9B4B5A;}
	.st83{fill:#FFCD5A;}
	.st84{fill:#FFAA5A;}
	.st85{fill:#FF875A;}
	.st86{fill:#E6B432;}
	.st87{fill:#C86464;}
	.st88{fill:#FFF5E1;}
	.st89{fill:#963C3C;}
	.st90{fill:#5A8250;}
	.st91{fill:#AFEBFF;}
	.st92{fill:#557DE6;}
	.st93{fill:#D23741;}
	.st94{fill:#64C86E;}
	.st95{fill:#873250;}
	.st96{fill:#41AA5A;}
	.st97{fill:#8CD7FF;}
	.st98{fill:#6EC86E;}
	.st99{fill:#FFF0E1;}
	.st100{fill:#FFC75A;}
	.st101{fill:#FFD350;}
	.st102{fill:#FFBE50;}
	.st103{fill:#A54B50;}
	.st104{fill:#C87878;}
	.st105{fill:#FF1722;}
	.st106{fill:#FFB441;}
	.st107{fill:#5064AA;}
	.st108{fill:#FFA0D2;}
	.st109{fill:#FF7350;}
	.st110{fill:#245DBD;}
	.st111{fill:#D35A10;}
	.st112{fill:#FFA033;}
	.st113{fill:#FF9480;}
	.st114{fill:#FFA0E4;}
	.st115{fill:#696E7D;}
	.st116{fill:#FFFCFF;}
	.st117{fill:#EBEBEB;}
	.st118{fill:#FF4B57;}
	.st119{fill:#D2D2D2;}
	.st120{fill:#F0C814;}
	.st121{fill:#F7B518;}
	.st122{fill:#2C2F38;}
	.st123{fill:#4C8056;}
	.st124{fill:#F0C419;}
	.st125{fill:#C03A2B;}
	.st126{fill:#EA3F3F;}
	.st127{fill:#E4E3E1;}
	.st128{fill:#2472B2;}
</style>
<g>
	<path class="st3" d="M0.2,18.43L15.98,9.3L0.2,0.16C0.08,0.25,0,0.38,0,0.53v17.53C0,18.22,0.08,18.34,0.2,18.43L0.2,18.43z
		 M0.2,18.43"/>
	<path class="st0" d="M0.2,18.43c0.1,0.07,0.21,0.12,0.35,0.12h30.87c0.3,0,0.55-0.22,0.55-0.49V9.3H15.98L0.2,18.43z M0.2,18.43"/>
	<path class="st4" d="M0.2,0.16c0.1-0.07,0.21-0.12,0.35-0.12h30.87c0.3,0,0.55,0.22,0.55,0.49V9.3H15.98L0.2,0.16z M0.2,0.16"/>
	<path class="st7" d="M7.58,9.3c0,0.87-0.8,1.58-1.79,1.58C4.8,10.88,4,10.17,4,9.3c0-0.87,0.8-1.58,1.79-1.58
		C6.78,7.72,7.58,8.42,7.58,9.3L7.58,9.3z M7.58,9.3"/>
	<path class="st7" d="M5.79,9.3L5.12,6.92l0.67-0.79l0.67,0.79L5.79,9.3z M5.79,9.3"/>
	<path class="st7" d="M5.79,9.3l0.67,2.37l-0.67,0.79l-0.67-0.79L5.79,9.3z M5.79,9.3"/>
	<path class="st7" d="M5.79,9.3L3.1,9.89L2.2,9.3L3.1,8.7L5.79,9.3z M5.79,9.3"/>
	<path class="st7" d="M5.79,9.3L8.47,8.7l0.9,0.59l-0.9,0.59L5.79,9.3z M5.79,9.3"/>
	<path class="st7" d="M5.79,9.3l1.43-2.1l1.11-0.14L8.16,8.04L5.79,9.3z M5.79,9.3"/>
	<path class="st7" d="M5.79,9.3l-1.42,2.1l-1.11,0.14l0.16-0.98L5.79,9.3z M5.79,9.3"/>
	<path class="st7" d="M5.79,9.3L3.41,8.04L3.25,7.06L4.36,7.2L5.79,9.3z M5.79,9.3"/>
	<path class="st7" d="M5.79,9.3l2.38,1.26l0.16,0.98L7.21,11.4L5.79,9.3z M5.79,9.3"/>
	<path class="st7" d="M1.48,2.44l0.09,0.62L0.94,3.33C0.86,3.37,0.88,3.48,0.97,3.49L1.66,3.6l0.1,0.61C1.78,4.3,1.9,4.31,1.94,4.24
		L2.27,3.7l0.69,0.1c0.09,0.01,0.15-0.08,0.08-0.14L2.57,3.21l0.32-0.55c0.04-0.07-0.04-0.15-0.13-0.11L2.13,2.81L1.64,2.37
		C1.57,2.31,1.47,2.36,1.48,2.44L1.48,2.44z M1.48,2.44"/>
	<path class="st7" d="M1.75,14.42l-0.12,0.61l-0.69,0.1c-0.09,0.01-0.11,0.12-0.03,0.16l0.62,0.29L1.43,16.2
		c-0.01,0.08,0.09,0.13,0.16,0.07l0.5-0.43l0.63,0.28C2.8,16.15,2.89,16.07,2.85,16l-0.31-0.56L3.03,15
		c0.06-0.06,0.01-0.15-0.08-0.14l-0.7,0.09L1.93,14.4C1.89,14.33,1.77,14.34,1.75,14.42L1.75,14.42z M1.75,14.42"/>
	<path class="st7" d="M12.66,8.39l-0.4,0.51l-0.68-0.17c-0.09-0.02-0.16,0.07-0.1,0.13l0.42,0.5l-0.4,0.51
		c-0.05,0.07,0.02,0.15,0.11,0.13l0.67-0.2l0.43,0.49c0.06,0.06,0.17,0.03,0.17-0.05l-0.01-0.62l0.66-0.21
		c0.09-0.03,0.08-0.13,0-0.16l-0.67-0.18l-0.02-0.62C12.83,8.36,12.71,8.32,12.66,8.39L12.66,8.39z M12.66,8.39"/>
</g>
</svg>
