<?xml version="1.0" encoding="utf-8"?>
<!-- Generator: Adobe Illustrator 25.0.0, SVG Export Plug-In . SVG Version: 6.00 Build 0)  -->
<svg version="1.1" id="Capa_1" xmlns="http://www.w3.org/2000/svg" xmlns:xlink="http://www.w3.org/1999/xlink" x="0px" y="0px"
	 viewBox="0 0 32 18.62" style="enable-background:new 0 0 32 18.62;" xml:space="preserve">
<style type="text/css">
	.st0{fill:#FF4B55;}
	.st1{fill:#464655;}
	.st2{fill:#73AF00;}
	.st3{fill:#F5F5F5;}
	.st4{fill:#41479B;}
	.st5{fill:#FFF5DC;}
	.st6{fill:#D27D69;}
	.st7{fill:#FFE15A;}
	.st8{fill:#B95546;}
	.st9{fill:#DCBE82;}
	.st10{fill:#D2AA73;}
	.st11{fill:#4173CD;}
	.st12{fill:#82AFFF;}
	.st13{fill:#F09146;}
	.st14{fill:#FFB400;}
	.st15{fill:#965032;}
	.st16{fill:#BE7855;}
	.st17{fill:#FFBE3C;}
	.st18{fill:#EAF3F5;}
	.st19{fill:#8C5A28;}
	.st20{fill:#F0C850;}
	.st21{fill:#FF6E55;}
	.st22{fill:#FFBE5A;}
	.st23{fill:#3CC8FF;}
	.st24{fill:#825546;}
	.st25{fill:#FFD255;}
	.st26{fill:#FFD25A;}
	.st27{fill:#509664;}
	.st28{fill:#F0AA00;}
	.st29{fill:#A561CD;}
	.st30{fill:#B34900;}
	.st31{fill:#64B496;}
	.st32{fill:#FF6B71;}
	.st33{fill:#5F64B9;}
	.st34{fill:#F5F0F0;}
	.st35{fill:#5A4646;}
	.st36{fill:#E6E1CD;}
	.st37{fill:#FFD0AF;}
	.st38{fill:#FFAF94;}
	.st39{fill:#8CB400;}
	.st40{fill:#69C3FF;}
	.st41{fill:#009B64;}
	.st42{fill:#5AA0E6;}
	.st43{fill:#FFC88C;}
	.st44{fill:#E1E1E1;}
	.st45{fill:#966446;}
	.st46{fill:#BE915A;}
	.st47{fill:#B9B9B9;}
	.st48{fill:#F0C727;}
	.st49{fill:#50AF69;}
	.st50{fill:#FFE6E6;}
	.st51{fill:#FFB750;}
	.st52{fill:#FFC455;}
	.st53{fill:#FFCD55;}
	.st54{fill:#9BC800;}
	.st55{fill:#FFE14E;}
	.st56{fill:#FFB14E;}
	.st57{fill:#B46446;}
	.st58{fill:#5FA000;}
	.st59{fill:#F2DD30;}
	.st60{fill:#FFC855;}
	.st61{fill:#A0A0A0;}
	.st62{fill:#69B469;}
	.st63{fill:#F4E08F;}
	.st64{fill:#ECD077;}
	.st65{fill:#FCF0A8;}
	.st66{fill:#FAB446;}
	.st67{fill:#C8414B;}
	.st68{fill:#FF9B46;}
	.st69{fill:#FF9B55;}
	.st70{fill:#82C3D2;}
	.st71{fill:#5AA587;}
	.st72{fill:#CDCDCD;}
	.st73{fill:#B4A08C;}
	.st74{fill:#FFD250;}
	.st75{fill:#00C3A0;}
	.st76{fill:#00AADC;}
	.st77{fill:#732D37;}
	.st78{fill:#AAD264;}
	.st79{fill:#874150;}
	.st80{fill:#783C46;}
	.st81{fill:#FFB478;}
	.st82{fill:#9B4B5A;}
	.st83{fill:#FFCD5A;}
	.st84{fill:#FFAA5A;}
	.st85{fill:#FF875A;}
	.st86{fill:#E6B432;}
	.st87{fill:#C86464;}
	.st88{fill:#FFF5E1;}
	.st89{fill:#963C3C;}
	.st90{fill:#5A8250;}
	.st91{fill:#AFEBFF;}
	.st92{fill:#557DE6;}
	.st93{fill:#D23741;}
	.st94{fill:#64C86E;}
	.st95{fill:#873250;}
	.st96{fill:#41AA5A;}
	.st97{fill:#8CD7FF;}
	.st98{fill:#6EC86E;}
	.st99{fill:#FFF0E1;}
	.st100{fill:#FFC75A;}
	.st101{fill:#FFD350;}
	.st102{fill:#FFBE50;}
	.st103{fill:#A54B50;}
	.st104{fill:#C87878;}
	.st105{fill:#FF1722;}
	.st106{fill:#FFB441;}
	.st107{fill:#5064AA;}
	.st108{fill:#FFA0D2;}
	.st109{fill:#FF7350;}
	.st110{fill:#245DBD;}
	.st111{fill:#D35A10;}
	.st112{fill:#FFA033;}
	.st113{fill:#FF9480;}
	.st114{fill:#FFA0E4;}
	.st115{fill:#696E7D;}
	.st116{fill:#FFFCFF;}
	.st117{fill:#EBEBEB;}
	.st118{fill:#FF4B57;}
	.st119{fill:#D2D2D2;}
	.st120{fill:#F0C814;}
	.st121{fill:#F7B518;}
	.st122{fill:#2C2F38;}
	.st123{fill:#4C8056;}
	.st124{fill:#F0C419;}
	.st125{fill:#C03A2B;}
	.st126{fill:#EA3F3F;}
	.st127{fill:#E4E3E1;}
	.st128{fill:#2472B2;}
</style>
<g>
	<path class="st0" d="M31.42,18.55H0.55c-0.3,0-0.55-0.22-0.55-0.49V0.53c0-0.27,0.25-0.49,0.55-0.49h30.87
		c0.3,0,0.55,0.22,0.55,0.49v17.53C31.97,18.33,31.72,18.55,31.42,18.55L31.42,18.55z M31.42,18.55"/>
	<path class="st2" d="M11.58,0.04H0.55C0.25,0.04,0,0.26,0,0.53v17.53c0,0.27,0.25,0.49,0.55,0.49h11.02V0.04z M11.58,0.04"/>
	<path class="st7" d="M16.54,9.3c0,2.42-2.22,4.38-4.96,4.38c-2.74,0-4.96-1.96-4.96-4.38c0-2.42,2.22-4.38,4.96-4.38
		C14.32,4.92,16.54,6.88,16.54,9.3L16.54,9.3z M16.54,9.3"/>
	<path class="st0" d="M13.23,7.84v1.95c0,0.81-0.74,1.46-1.65,1.46c-0.91,0-1.65-0.66-1.65-1.46V7.84H13.23 M13.78,6.86H9.37
		c-0.3,0-0.55,0.22-0.55,0.49v2.44c0,1.34,1.23,2.44,2.76,2.44s2.76-1.09,2.76-2.44V7.35C14.34,7.08,14.09,6.86,13.78,6.86
		L13.78,6.86z M13.78,6.86"/>
	<path class="st3" d="M13.23,7.84v1.95c0,0.81-0.74,1.46-1.65,1.46c-0.91,0-1.65-0.66-1.65-1.46V7.84H13.23"/>
	<path class="st7" d="M9.65,7.35c0,0.13-0.12,0.24-0.28,0.24c-0.15,0-0.28-0.11-0.28-0.24c0-0.13,0.12-0.24,0.28-0.24
		C9.52,7.11,9.65,7.22,9.65,7.35L9.65,7.35z M9.65,7.35"/>
	<path class="st7" d="M14.06,7.35c0,0.13-0.12,0.24-0.28,0.24c-0.15,0-0.28-0.11-0.28-0.24c0-0.13,0.12-0.24,0.28-0.24
		C13.93,7.11,14.06,7.22,14.06,7.35L14.06,7.35z M14.06,7.35"/>
	<path class="st7" d="M9.65,9.3c0,0.13-0.12,0.24-0.28,0.24c-0.15,0-0.28-0.11-0.28-0.24c0-0.13,0.12-0.24,0.28-0.24
		C9.52,9.05,9.65,9.16,9.65,9.3L9.65,9.3z M9.65,9.3"/>
	<path class="st7" d="M14.06,9.3c0,0.13-0.12,0.24-0.28,0.24c-0.15,0-0.28-0.11-0.28-0.24c0-0.13,0.12-0.24,0.28-0.24
		C13.93,9.05,14.06,9.16,14.06,9.3L14.06,9.3z M14.06,9.3"/>
	<path class="st7" d="M11.85,7.35c0,0.13-0.12,0.24-0.28,0.24c-0.15,0-0.28-0.11-0.28-0.24c0-0.13,0.12-0.24,0.28-0.24
		C11.73,7.11,11.85,7.22,11.85,7.35L11.85,7.35z M11.85,7.35"/>
	<path class="st7" d="M13.51,11.09c0,0.13-0.12,0.24-0.28,0.24c-0.15,0-0.28-0.11-0.28-0.24c0-0.13,0.12-0.24,0.28-0.24
		C13.38,10.85,13.51,10.96,13.51,11.09L13.51,11.09z M13.51,11.09"/>
	<path class="st7" d="M10.23,11.09c0,0.13-0.12,0.24-0.28,0.24c-0.15,0-0.28-0.11-0.28-0.24c0-0.13,0.12-0.24,0.28-0.24
		C10.1,10.85,10.23,10.96,10.23,11.09L10.23,11.09z M10.23,11.09"/>
	<path class="st4" d="M11.94,9.17v0.42c0,0.17-0.16,0.31-0.36,0.31c-0.2,0-0.36-0.14-0.36-0.31V9.17H11.94"/>
	<path class="st4" d="M11.94,8.18V8.6c0,0.17-0.16,0.31-0.36,0.31c-0.2,0-0.36-0.14-0.36-0.31V8.18H11.94"/>
	<path class="st4" d="M11.94,10.18v0.42c0,0.17-0.16,0.31-0.36,0.31c-0.2,0-0.36-0.14-0.36-0.31v-0.42H11.94"/>
	<path class="st4" d="M12.89,9.17v0.42c0,0.17-0.16,0.31-0.36,0.31c-0.2,0-0.36-0.14-0.36-0.31V9.17H12.89"/>
	<path class="st4" d="M10.98,9.17v0.42c0,0.17-0.16,0.31-0.36,0.31c-0.2,0-0.36-0.14-0.36-0.31V9.17H10.98"/>
</g>
</svg>
