<?xml version="1.0" encoding="utf-8"?>
<!-- Generator: Adobe Illustrator 25.0.0, SVG Export Plug-In . SVG Version: 6.00 Build 0)  -->
<svg version="1.1" id="Capa_1" xmlns="http://www.w3.org/2000/svg" xmlns:xlink="http://www.w3.org/1999/xlink" x="0px" y="0px"
	 viewBox="0 0 32 18.62" style="enable-background:new 0 0 32 18.62;" xml:space="preserve">
<style type="text/css">
	.st0{fill:#FF4B55;}
	.st1{fill:#464655;}
	.st2{fill:#73AF00;}
	.st3{fill:#F5F5F5;}
	.st4{fill:#41479B;}
	.st5{fill:#FFF5DC;}
	.st6{fill:#D27D69;}
	.st7{fill:#FFE15A;}
	.st8{fill:#B95546;}
	.st9{fill:#DCBE82;}
	.st10{fill:#D2AA73;}
	.st11{fill:#4173CD;}
	.st12{fill:#82AFFF;}
	.st13{fill:#F09146;}
	.st14{fill:#FFB400;}
	.st15{fill:#965032;}
	.st16{fill:#BE7855;}
	.st17{fill:#FFBE3C;}
	.st18{fill:#EAF3F5;}
	.st19{fill:#8C5A28;}
	.st20{fill:#F0C850;}
	.st21{fill:#FF6E55;}
	.st22{fill:#FFBE5A;}
	.st23{fill:#3CC8FF;}
	.st24{fill:#825546;}
	.st25{fill:#FFD255;}
	.st26{fill:#FFD25A;}
	.st27{fill:#509664;}
	.st28{fill:#F0AA00;}
	.st29{fill:#A561CD;}
	.st30{fill:#B34900;}
	.st31{fill:#64B496;}
	.st32{fill:#FF6B71;}
	.st33{fill:#5F64B9;}
	.st34{fill:#F5F0F0;}
	.st35{fill:#5A4646;}
	.st36{fill:#E6E1CD;}
	.st37{fill:#FFD0AF;}
	.st38{fill:#FFAF94;}
	.st39{fill:#8CB400;}
	.st40{fill:#69C3FF;}
	.st41{fill:#009B64;}
	.st42{fill:#5AA0E6;}
	.st43{fill:#FFC88C;}
	.st44{fill:#E1E1E1;}
	.st45{fill:#966446;}
	.st46{fill:#BE915A;}
	.st47{fill:#B9B9B9;}
	.st48{fill:#F0C727;}
	.st49{fill:#50AF69;}
	.st50{fill:#FFE6E6;}
	.st51{fill:#FFB750;}
	.st52{fill:#FFC455;}
	.st53{fill:#FFCD55;}
	.st54{fill:#9BC800;}
	.st55{fill:#FFE14E;}
	.st56{fill:#FFB14E;}
	.st57{fill:#B46446;}
	.st58{fill:#5FA000;}
	.st59{fill:#F2DD30;}
	.st60{fill:#FFC855;}
	.st61{fill:#A0A0A0;}
	.st62{fill:#69B469;}
	.st63{fill:#F4E08F;}
	.st64{fill:#ECD077;}
	.st65{fill:#FCF0A8;}
	.st66{fill:#FAB446;}
	.st67{fill:#C8414B;}
	.st68{fill:#FF9B46;}
	.st69{fill:#FF9B55;}
	.st70{fill:#82C3D2;}
	.st71{fill:#5AA587;}
	.st72{fill:#CDCDCD;}
	.st73{fill:#B4A08C;}
	.st74{fill:#FFD250;}
	.st75{fill:#00C3A0;}
	.st76{fill:#00AADC;}
	.st77{fill:#732D37;}
	.st78{fill:#AAD264;}
	.st79{fill:#874150;}
	.st80{fill:#783C46;}
	.st81{fill:#FFB478;}
	.st82{fill:#9B4B5A;}
	.st83{fill:#FFCD5A;}
	.st84{fill:#FFAA5A;}
	.st85{fill:#FF875A;}
	.st86{fill:#E6B432;}
	.st87{fill:#C86464;}
	.st88{fill:#FFF5E1;}
	.st89{fill:#963C3C;}
	.st90{fill:#5A8250;}
	.st91{fill:#AFEBFF;}
	.st92{fill:#557DE6;}
	.st93{fill:#D23741;}
	.st94{fill:#64C86E;}
	.st95{fill:#873250;}
	.st96{fill:#41AA5A;}
	.st97{fill:#8CD7FF;}
	.st98{fill:#6EC86E;}
	.st99{fill:#FFF0E1;}
	.st100{fill:#FFC75A;}
	.st101{fill:#FFD350;}
	.st102{fill:#FFBE50;}
	.st103{fill:#A54B50;}
	.st104{fill:#C87878;}
	.st105{fill:#FF1722;}
	.st106{fill:#FFB441;}
	.st107{fill:#5064AA;}
	.st108{fill:#FFA0D2;}
	.st109{fill:#FF7350;}
	.st110{fill:#245DBD;}
	.st111{fill:#D35A10;}
	.st112{fill:#FFA033;}
	.st113{fill:#FF9480;}
	.st114{fill:#FFA0E4;}
	.st115{fill:#696E7D;}
	.st116{fill:#FFFCFF;}
	.st117{fill:#EBEBEB;}
	.st118{fill:#FF4B57;}
	.st119{fill:#D2D2D2;}
	.st120{fill:#F0C814;}
	.st121{fill:#F7B518;}
	.st122{fill:#2C2F38;}
	.st123{fill:#4C8056;}
	.st124{fill:#F0C419;}
	.st125{fill:#C03A2B;}
	.st126{fill:#EA3F3F;}
	.st127{fill:#E4E3E1;}
	.st128{fill:#2472B2;}
</style>
<g>
	<path class="st3" d="M0,12.38h31.97v5.68c0,0.27-0.25,0.49-0.55,0.49H0.55c-0.3,0-0.55-0.22-0.55-0.49V12.38z M0,12.38"/>
	<path class="st0" d="M0.55,0.04h30.87c0.3,0,0.55,0.22,0.55,0.49v5.68H0V0.53C0,0.26,0.25,0.04,0.55,0.04L0.55,0.04z M0.55,0.04"/>
	<rect y="6.21" class="st4" width="31.97" height="6.17"/>
	<path class="st7" d="M10.8,6.21H6.83L6.67,5.34h4.3L10.8,6.21z M10.8,6.21"/>
	<path class="st101" d="M6.79,5.99l0.04,0.22h3.97l0.04-0.22H6.79z M6.79,5.99"/>
	<rect x="8.74" y="3.29" class="st7" width="0.17" height="0.58"/>
	<rect x="8.57" y="3.44" class="st7" width="0.5" height="0.15"/>
	<path class="st7" d="M10.82,5.63c-0.02,0-0.04,0-0.06-0.01c-0.09-0.03-0.13-0.11-0.1-0.19l0.35-0.85c0.02-0.04,0.01-0.09-0.01-0.13
		c-0.01-0.02-0.04-0.06-0.1-0.07c-0.43-0.08-1.25-0.21-2-0.21H8.74c-0.74,0-1.57,0.13-2,0.22c-0.06,0.01-0.09,0.05-0.1,0.07
		C6.61,4.49,6.61,4.54,6.63,4.58l0.35,0.85c0.03,0.08-0.01,0.16-0.1,0.19C6.79,5.65,6.7,5.61,6.67,5.53L6.32,4.68
		C6.27,4.56,6.28,4.42,6.35,4.31C6.42,4.2,6.53,4.12,6.67,4.1c0.44-0.08,1.29-0.22,2.07-0.22H8.9c0.77,0,1.63,0.14,2.07,0.22
		c0.14,0.03,0.25,0.1,0.32,0.21c0.07,0.11,0.08,0.25,0.03,0.37l-0.35,0.85C10.95,5.59,10.88,5.63,10.82,5.63L10.82,5.63z
		 M10.82,5.63"/>
	<path class="st7" d="M8.82,5.5c-0.09,0-0.17-0.07-0.17-0.15V4.17c0-0.08,0.07-0.15,0.17-0.15c0.09,0,0.17,0.07,0.17,0.15v1.19
		C8.99,5.43,8.91,5.5,8.82,5.5L8.82,5.5z M8.82,5.5"/>
	<path class="st7" d="M9.96,5.63c-0.01,0-0.02,0-0.03,0C9.84,5.61,9.78,5.53,9.8,5.45L10,4.6c0.03-0.11-0.01-0.21-0.04-0.23
		C9.73,4.3,9.27,4.17,8.86,4.17H8.77c-0.41,0-0.87,0.13-1.11,0.21C7.65,4.39,7.61,4.49,7.64,4.6l0.2,0.85
		C7.86,5.53,7.8,5.61,7.71,5.62c-0.09,0.02-0.18-0.03-0.2-0.11l-0.2-0.85C7.26,4.44,7.34,4.17,7.55,4.1C7.87,4,8.34,3.87,8.77,3.87
		h0.09C9.3,3.87,9.77,4,10.09,4.1c0.21,0.07,0.29,0.34,0.24,0.56l-0.2,0.85C10.11,5.58,10.04,5.63,9.96,5.63L9.96,5.63z M9.96,5.63"
		/>
	<path class="st101" d="M6.71,5.55h4.22l0.04-0.22h-4.3L6.71,5.55z M6.71,5.55"/>
	<path class="st0" d="M5.68,6.21c-0.09,0-0.17,0.07-0.17,0.15v5.1c0,1.62,1.48,2.93,3.31,2.93c1.83,0,3.31-1.31,3.31-2.93v-5.1
		c0-0.08-0.07-0.15-0.17-0.15H5.68z M5.68,6.21"/>
	<path class="st3" d="M9.15,11.03l0.33-0.73l-0.66,0.15L8.16,10.3l0.33,0.73l-0.83,2.48c0,0,0.5,0.29,1.16,0.29
		c0.66,0,1.16-0.29,1.16-0.29L9.15,11.03z M9.15,11.03"/>
	<path class="st7" d="M7.62,11.62l-0.29,0.06l0.64-1.02l-0.29-0.14L6.9,11.76H6.17v0.29h0.36l-0.46,0.32l0.21,0.23l0.39-0.28
		l-0.15,0.41l0.31,0.09l0.3-0.8l0.57-0.13L7.62,11.62z M7.62,11.62"/>
	<path class="st3" d="M7.66,7.67L6.91,7.34C6.77,7.28,6.7,7.14,6.73,7.01l0.04-0.15c0.03-0.1-0.06-0.21-0.18-0.21
		c-0.06,0-0.11,0.02-0.15,0.06c-0.39,0.43-0.6,0.97-0.6,1.52v3.09c0,0,0.69-0.12,1.31-0.92c0.11-0.15,0.3-0.23,0.5-0.24l-0.33,0.87
		l0.66,0.15l0.58-0.61L7.66,7.67z M7.66,7.67"/>
	<path class="st7" d="M10.02,11.62l0.29,0.06l-0.64-1.02l0.29-0.14l0.78,1.24h0.73v0.29h-0.36l0.46,0.32l-0.21,0.23l-0.39-0.28
		l0.15,0.41l-0.31,0.09l-0.3-0.8l-0.57-0.13L10.02,11.62z M10.02,11.62"/>
	<path class="st3" d="M9.98,7.67l0.75-0.33c0.14-0.06,0.21-0.2,0.17-0.33l-0.04-0.15c-0.03-0.1,0.06-0.21,0.18-0.21
		c0.06,0,0.11,0.02,0.15,0.06c0.39,0.43,0.61,0.97,0.61,1.52v3.09c0,0-0.69-0.12-1.31-0.92c-0.11-0.15-0.3-0.23-0.5-0.24l0.33,0.87
		l-0.66,0.15l-0.58-0.61L9.98,7.67z M9.98,7.67"/>
	<path class="st7" d="M7.83,6.65H7l0.25,0.29l0.58,0.15L7.5,7.23h0.5L7.83,6.65z M7.83,6.65"/>
	<path class="st7" d="M9.81,6.65h0.83l-0.25,0.29L9.81,7.09l0.33,0.15h-0.5L9.81,6.65z M9.81,6.65"/>
	<path class="st3" d="M9.93,6.54L9.15,6.65L8.82,7.23L8.49,6.65L7.71,6.54C7.62,6.52,7.55,6.6,7.59,6.68l0.4,0.7L7.66,7.67h2.31
		L9.65,7.38l0.4-0.7C10.09,6.6,10.02,6.52,9.93,6.54L9.93,6.54z M9.93,6.54"/>
	<path class="st102" d="M9.07,5.4c0,0.12-0.11,0.22-0.25,0.22c-0.14,0-0.25-0.1-0.25-0.22c0-0.12,0.11-0.22,0.25-0.22
		C8.96,5.18,9.07,5.28,9.07,5.4L9.07,5.4z M9.07,5.4"/>
	<path class="st4" d="M9.01,5.92c0,0.07-0.09,0.12-0.2,0.12c-0.11,0-0.2-0.05-0.2-0.12c0-0.07,0.09-0.12,0.2-0.12
		C8.92,5.8,9.01,5.86,9.01,5.92L9.01,5.92z M9.01,5.92"/>
	<path class="st0" d="M8.03,5.92c0,0.07-0.09,0.12-0.2,0.12c-0.11,0-0.2-0.05-0.2-0.12c0-0.07,0.09-0.12,0.2-0.12
		C7.95,5.8,8.03,5.86,8.03,5.92L8.03,5.92z M8.03,5.92"/>
	<path class="st4" d="M7.05,5.92c0,0.07-0.09,0.12-0.2,0.12c-0.11,0-0.2-0.05-0.2-0.12c0-0.07,0.09-0.12,0.2-0.12
		C6.97,5.8,7.05,5.86,7.05,5.92L7.05,5.92z M7.05,5.92"/>
	<path class="st4" d="M10.97,5.92c0,0.07-0.09,0.12-0.2,0.12c-0.11,0-0.2-0.05-0.2-0.12c0-0.07,0.09-0.12,0.2-0.12
		C10.88,5.8,10.97,5.86,10.97,5.92L10.97,5.92z M10.97,5.92"/>
	<path class="st0" d="M9.99,5.92c0,0.07-0.09,0.12-0.2,0.12c-0.11,0-0.2-0.05-0.2-0.12c0-0.07,0.09-0.12,0.2-0.12
		C9.9,5.8,9.99,5.86,9.99,5.92L9.99,5.92z M9.99,5.92"/>
	<path class="st102" d="M10.22,5.4c0,0.12-0.11,0.22-0.25,0.22c-0.14,0-0.25-0.1-0.25-0.22c0-0.12,0.11-0.22,0.25-0.22
		C10.11,5.18,10.22,5.28,10.22,5.4L10.22,5.4z M10.22,5.4"/>
	<path class="st102" d="M11.12,5.4c0,0.12-0.11,0.22-0.25,0.22c-0.14,0-0.25-0.1-0.25-0.22c0-0.12,0.11-0.22,0.25-0.22
		C11.01,5.18,11.12,5.28,11.12,5.4L11.12,5.4z M11.12,5.4"/>
	<path class="st102" d="M7.92,5.4c0,0.12-0.11,0.22-0.25,0.22c-0.14,0-0.25-0.1-0.25-0.22c0-0.12,0.11-0.22,0.25-0.22
		C7.81,5.18,7.92,5.28,7.92,5.4L7.92,5.4z M7.92,5.4"/>
	<path class="st102" d="M7.01,5.4c0,0.12-0.11,0.22-0.25,0.22c-0.14,0-0.25-0.1-0.25-0.22c0-0.12,0.11-0.22,0.25-0.22
		C6.9,5.18,7.01,5.28,7.01,5.4L7.01,5.4z M7.01,5.4"/>
	<path class="st4" d="M9.1,4.17c0.03-0.04,0.05-0.09,0.05-0.15c0-0.16-0.15-0.29-0.33-0.29c-0.18,0-0.33,0.13-0.33,0.29
		c0,0.05,0.02,0.1,0.05,0.15H9.1z M9.1,4.17"/>
	<path class="st0" d="M8.82,10.67c-0.68,0-1.24-0.49-1.24-1.1V7.6h2.48v1.97C10.06,10.18,9.5,10.67,8.82,10.67L8.82,10.67z
		 M8.82,10.67"/>
	<path class="st103" d="M9.98,7.67v1.9c0,0.56-0.52,1.02-1.16,1.02c-0.64,0-1.16-0.46-1.16-1.02v-1.9H9.98 M10.14,7.53H7.5v2.05
		c0,0.64,0.59,1.17,1.32,1.17c0.73,0,1.32-0.52,1.32-1.17V7.53z M10.14,7.53"/>
	<path class="st3" d="M8.57,10.57c0.08,0.02,0.16,0.02,0.25,0.02c0.09,0,0.17-0.01,0.25-0.02v-2.9h-0.5
		C8.57,7.67,8.57,10.57,8.57,10.57L8.57,10.57z M8.57,10.57"/>
	<rect x="7.66" y="8.88" class="st3" width="2.32" height="0.44"/>
</g>
</svg>
