<?xml version="1.0" encoding="utf-8"?>
<!-- Generator: Adobe Illustrator 25.0.1, SVG Export Plug-In . SVG Version: 6.00 Build 0)  -->
<svg version="1.1" id="Layer_1" xmlns="http://www.w3.org/2000/svg" xmlns:xlink="http://www.w3.org/1999/xlink" x="0px" y="0px"
	 viewBox="0 0 32 20" style="enable-background:new 0 0 32 20;" xml:space="preserve">
<style type="text/css">
	.st0{fill:#FF4B55;}
	.st1{fill:#41479B;}
	.st2{fill:#F9CF02;}
</style>
<g>
	<path class="st0" d="M21.33,0h10.11C31.75,0,32,0.24,32,0.53v18.95c0,0.29-0.25,0.53-0.55,0.53H21.33V0z"/>
	<rect x="10.67" y="0" class="st1" width="10.67" height="20"/>
	<path class="st0" d="M0.55,0h10.11v20H0.55C0.25,20,0,19.76,0,19.47V0.53C0,0.24,0.25,0,0.55,0z"/>
	<g>
		<path class="st2" d="M5.36,8.27c-0.83,0-1.55-0.48-1.86-1.16c0,0.01,0,0.02,0,0.03c0,0.98,0.84,1.78,1.87,1.78s1.87-0.8,1.87-1.78
			c0-0.01,0-0.02,0-0.03C6.9,7.79,6.19,8.27,5.36,8.27z"/>
		<ellipse class="st2" cx="5.36" cy="6.65" rx="1.36" ry="1.29"/>
		<path class="st2" d="M4.51,4.23c0,0.45,0.38,0.81,0.85,0.81S6.2,4.67,6.2,4.23c0-0.32-0.21-0.36-0.21-0.49
			c0-0.12,0.13-0.28-0.13-0.49C5.99,3.46,5.78,3.5,5.78,3.7c0,0.2,0.08,0.2,0.08,0.36c0,0.09-0.08,0.16-0.17,0.16
			c-0.09,0-0.17-0.07-0.17-0.16c0-0.16,0.17-0.32,0.17-0.57c0-0.24-0.04-0.32-0.17-0.53C5.4,2.77,5.19,2.61,5.36,2.45
			C5.1,2.53,5.23,2.85,5.23,3.05c0,0.2-0.17,0.32-0.17,0.57c0,0.24,0.13,0.28,0.13,0.45c0,0.09-0.08,0.16-0.17,0.16
			S4.85,4.15,4.85,4.06c0-0.16,0.08-0.16,0.08-0.36c0-0.2-0.21-0.24-0.08-0.45c-0.25,0.2-0.13,0.36-0.13,0.49
			C4.72,3.86,4.51,3.9,4.51,4.23z"/>
		<path class="st2" d="M1.62,9.38v7.5c0,0.07,0.06,0.13,0.14,0.13h1.42c0.08,0,0.14-0.06,0.14-0.13v-7.5c0-0.07-0.06-0.13-0.14-0.13
			H1.76C1.69,9.24,1.62,9.3,1.62,9.38z"/>
		<path class="st2" d="M7.39,9.38v7.5c0,0.07,0.06,0.13,0.14,0.13h1.42c0.08,0,0.14-0.06,0.14-0.13v-7.5c0-0.07-0.06-0.13-0.14-0.13
			H7.53C7.45,9.24,7.39,9.3,7.39,9.38z"/>
		<path class="st2" d="M3.66,10.67v0.38c0,0.07,0.06,0.13,0.14,0.13h3.11c0.08,0,0.14-0.06,0.14-0.13v-0.38
			c0-0.07-0.06-0.13-0.14-0.13H3.8C3.72,10.54,3.66,10.6,3.66,10.67z"/>
		<path class="st2" d="M3.66,15.2v0.38c0,0.07,0.06,0.13,0.14,0.13h3.11c0.08,0,0.14-0.06,0.14-0.13V15.2
			c0-0.07-0.06-0.13-0.14-0.13H3.8C3.72,15.07,3.66,15.13,3.66,15.2z"/>
		<path class="st2" d="M3.91,9.24H6.8c0.07,0,0.1,0.09,0.04,0.12l-1.37,0.79c-0.07,0.04-0.15,0.04-0.22,0L3.88,9.37
			C3.81,9.33,3.84,9.24,3.91,9.24z"/>
		<path class="st2" d="M3.91,16.04H6.8c0.07,0,0.1,0.09,0.04,0.12l-1.37,0.79c-0.07,0.04-0.15,0.04-0.22,0l-1.37-0.79
			C3.81,16.13,3.84,16.04,3.91,16.04z"/>
		<path class="st2" d="M5.52,11.52c-0.05,0-0.11-0.02-0.16-0.02c-0.93,0-1.69,0.72-1.69,1.61c0,0.53,0.27,0.99,0.68,1.29
			c0.05,0.03,0.11-0.02,0.09-0.07c-0.05-0.11-0.08-0.23-0.08-0.36c0-0.53,0.45-0.95,1-0.95c0.29,0,0.57-0.14,0.7-0.38
			C6.33,12.13,6,11.62,5.52,11.52z M5.36,12.59c-0.19,0-0.34-0.14-0.34-0.32c0-0.18,0.15-0.32,0.34-0.32c0.19,0,0.34,0.14,0.34,0.32
			C5.7,12.44,5.55,12.59,5.36,12.59z"/>
		<path class="st2" d="M6.37,11.83c-0.05-0.03-0.11,0.02-0.09,0.07c0.05,0.11,0.08,0.23,0.08,0.36c0,0.53-0.45,0.95-1,0.95
			c-0.29,0-0.57,0.14-0.7,0.38c-0.27,0.51,0.06,1.02,0.54,1.12c0.05,0,0.11,0.02,0.16,0.02c0.93,0,1.69-0.72,1.69-1.61
			C7.05,12.59,6.78,12.13,6.37,11.83z M5.36,14.3c-0.19,0-0.34-0.14-0.34-0.32c0-0.18,0.15-0.32,0.34-0.32
			c0.19,0,0.34,0.14,0.34,0.32C5.7,14.16,5.55,14.3,5.36,14.3z"/>
	</g>
</g>
</svg>
