<?xml version="1.0" encoding="utf-8"?>
<!-- Generator: Adobe Illustrator 25.0.0, SVG Export Plug-In . SVG Version: 6.00 Build 0)  -->
<svg version="1.1" id="Capa_1" xmlns="http://www.w3.org/2000/svg" xmlns:xlink="http://www.w3.org/1999/xlink" x="0px" y="0px"
	 viewBox="0 0 32 18.62" style="enable-background:new 0 0 32 18.62;" xml:space="preserve">
<style type="text/css">
	.st0{fill:#FF4B55;}
	.st1{fill:#464655;}
	.st2{fill:#73AF00;}
	.st3{fill:#F5F5F5;}
	.st4{fill:#41479B;}
	.st5{fill:#FFF5DC;}
	.st6{fill:#D27D69;}
	.st7{fill:#FFE15A;}
	.st8{fill:#B95546;}
	.st9{fill:#DCBE82;}
	.st10{fill:#D2AA73;}
	.st11{fill:#4173CD;}
	.st12{fill:#82AFFF;}
	.st13{fill:#F09146;}
	.st14{fill:#FFB400;}
	.st15{fill:#965032;}
	.st16{fill:#BE7855;}
	.st17{fill:#FFBE3C;}
	.st18{fill:#EAF3F5;}
	.st19{fill:#8C5A28;}
	.st20{fill:#F0C850;}
	.st21{fill:#FF6E55;}
	.st22{fill:#FFBE5A;}
	.st23{fill:#3CC8FF;}
	.st24{fill:#825546;}
	.st25{fill:#FFD255;}
	.st26{fill:#FFD25A;}
	.st27{fill:#509664;}
	.st28{fill:#F0AA00;}
	.st29{fill:#A561CD;}
	.st30{fill:#B34900;}
	.st31{fill:#64B496;}
	.st32{fill:#FF6B71;}
	.st33{fill:#5F64B9;}
	.st34{fill:#F5F0F0;}
	.st35{fill:#5A4646;}
	.st36{fill:#E6E1CD;}
	.st37{fill:#FFD0AF;}
	.st38{fill:#FFAF94;}
	.st39{fill:#8CB400;}
	.st40{fill:#69C3FF;}
	.st41{fill:#009B64;}
	.st42{fill:#5AA0E6;}
	.st43{fill:#FFC88C;}
	.st44{fill:#E1E1E1;}
	.st45{fill:#966446;}
	.st46{fill:#BE915A;}
	.st47{fill:#B9B9B9;}
	.st48{fill:#F0C727;}
	.st49{fill:#50AF69;}
	.st50{fill:#FFE6E6;}
	.st51{fill:#FFB750;}
	.st52{fill:#FFC455;}
	.st53{fill:#FFCD55;}
	.st54{fill:#9BC800;}
	.st55{fill:#FFE14E;}
	.st56{fill:#FFB14E;}
	.st57{fill:#B46446;}
	.st58{fill:#5FA000;}
	.st59{fill:#F2DD30;}
	.st60{fill:#FFC855;}
	.st61{fill:#A0A0A0;}
	.st62{fill:#69B469;}
	.st63{fill:#F4E08F;}
	.st64{fill:#ECD077;}
	.st65{fill:#FCF0A8;}
	.st66{fill:#FAB446;}
	.st67{fill:#C8414B;}
	.st68{fill:#FF9B46;}
	.st69{fill:#FF9B55;}
	.st70{fill:#82C3D2;}
	.st71{fill:#5AA587;}
	.st72{fill:#CDCDCD;}
	.st73{fill:#B4A08C;}
	.st74{fill:#FFD250;}
	.st75{fill:#00C3A0;}
	.st76{fill:#00AADC;}
	.st77{fill:#732D37;}
	.st78{fill:#AAD264;}
	.st79{fill:#874150;}
	.st80{fill:#783C46;}
	.st81{fill:#FFB478;}
	.st82{fill:#9B4B5A;}
	.st83{fill:#FFCD5A;}
	.st84{fill:#FFAA5A;}
	.st85{fill:#FF875A;}
	.st86{fill:#E6B432;}
	.st87{fill:#C86464;}
	.st88{fill:#FFF5E1;}
	.st89{fill:#963C3C;}
	.st90{fill:#5A8250;}
	.st91{fill:#AFEBFF;}
	.st92{fill:#557DE6;}
	.st93{fill:#D23741;}
	.st94{fill:#64C86E;}
	.st95{fill:#873250;}
	.st96{fill:#41AA5A;}
	.st97{fill:#8CD7FF;}
	.st98{fill:#6EC86E;}
	.st99{fill:#FFF0E1;}
	.st100{fill:#FFC75A;}
	.st101{fill:#FFD350;}
	.st102{fill:#FFBE50;}
	.st103{fill:#A54B50;}
	.st104{fill:#C87878;}
	.st105{fill:#FF1722;}
	.st106{fill:#FFB441;}
	.st107{fill:#5064AA;}
	.st108{fill:#FFA0D2;}
	.st109{fill:#FF7350;}
	.st110{fill:#245DBD;}
	.st111{fill:#D35A10;}
	.st112{fill:#FFA033;}
	.st113{fill:#FF9480;}
	.st114{fill:#FFA0E4;}
	.st115{fill:#696E7D;}
	.st116{fill:#FFFCFF;}
	.st117{fill:#EBEBEB;}
	.st118{fill:#FF4B57;}
	.st119{fill:#D2D2D2;}
	.st120{fill:#F0C814;}
	.st121{fill:#F7B518;}
	.st122{fill:#2C2F38;}
	.st123{fill:#4C8056;}
	.st124{fill:#F0C419;}
	.st125{fill:#C03A2B;}
	.st126{fill:#EA3F3F;}
	.st127{fill:#E4E3E1;}
	.st128{fill:#2472B2;}
</style>
<g>
	<path class="st2" d="M31.42,18.55H0.55c-0.3,0-0.55-0.22-0.55-0.49V0.53c0-0.27,0.25-0.49,0.55-0.49h30.87
		c0.3,0,0.55,0.22,0.55,0.49v17.53C31.97,18.33,31.72,18.55,31.42,18.55L31.42,18.55z M31.42,18.55"/>
	<path class="st3" d="M6.61,6.33c0.05,0.31,0.26,0.4,0.45,0.39c0.22-0.01,0.41-0.19,0.41-0.37V5.3c0-0.05,0.05-0.1,0.11-0.1
		c0.06,0,0.11,0.04,0.11,0.1v1.06c0,0.13,0.07,0.25,0.19,0.32c0.07,0.04,0.16,0.07,0.24,0.07c0.05,0,0.11-0.01,0.16-0.03l0.11-0.04
		C8.4,7.56,8.34,8.34,8.34,8.35c-0.01,0.11,0.08,0.2,0.2,0.2c0.01,0,0.01,0,0.02,0c0.11,0,0.21-0.08,0.22-0.18
		c0.01-0.06,0.07-0.92,0.05-1.86L8.89,6.5c0.06-0.02,0.12-0.02,0.18,0.01c0.24,0.11,0.53,0.06,0.72-0.1l0.04-0.03
		C10,6.21,10.06,5.99,9.98,5.78L9.79,5.29c0.1,0.03,0.21-0.01,0.26-0.1c0.05-0.09,0.01-0.21-0.1-0.26L9.52,4.74
		C9.44,4.71,9.35,4.72,9.28,4.77C9.21,4.82,9.19,4.9,9.22,4.97L9.57,5.9c0.03,0.07,0.01,0.14-0.05,0.2L9.48,6.13
		C9.42,6.18,9.33,6.19,9.26,6.16C9.12,6.1,8.96,6.09,8.81,6.12C8.78,5.51,8.7,4.89,8.54,4.47c-0.04-0.1-0.16-0.16-0.27-0.12
		C8.15,4.38,8.09,4.49,8.13,4.59C8.29,5,8.36,5.64,8.38,6.26L8.12,6.36V5.3c0-0.26-0.24-0.48-0.54-0.48c-0.3,0-0.54,0.22-0.54,0.48
		v0.93L6.81,5.26c-0.02-0.1-0.14-0.17-0.26-0.15C6.44,5.13,6.36,5.23,6.39,5.33L6.61,6.33z M6.61,6.33"/>
	<path class="st3" d="M7.03,4.72c0.12,0,0.22-0.09,0.22-0.19V4.34c0-0.11-0.1-0.19-0.22-0.19c-0.12,0-0.22,0.09-0.22,0.19v0.19
		C6.82,4.63,6.91,4.72,7.03,4.72L7.03,4.72z M7.03,4.72"/>
	<path class="st3" d="M9.21,4.53h0.22c0.12,0,0.22-0.09,0.22-0.19s-0.1-0.19-0.22-0.19H9.21c-0.12,0-0.22,0.09-0.22,0.19
		S9.09,4.53,9.21,4.53L9.21,4.53z M9.21,4.53"/>
	<path class="st3" d="M7.79,7.05L6.7,7.63C6.6,7.68,6.57,7.8,6.63,7.89c0.04,0.06,0.11,0.09,0.19,0.09c0.04,0,0.08-0.01,0.11-0.03
		l1.09-0.58c0.1-0.05,0.14-0.17,0.07-0.26C8.03,7.03,7.89,7,7.79,7.05L7.79,7.05z M7.79,7.05"/>
	<path class="st3" d="M10.72,7.39L10.72,7.39c0.02,0.06,0.05,0.12,0.11,0.18c0.09,0.09,0.22,0.14,0.37,0.13
		c0.21-0.01,0.36-0.1,0.45-0.21c0.01,0.01,0.03,0.02,0.05,0.02c0.12,0.05,0.25,0.05,0.38-0.01c0.33-0.15,0.4-0.5,0.39-0.68
		c-0.01-0.11-0.11-0.18-0.23-0.18c-0.12,0-0.21,0.09-0.21,0.2c0,0,0,0.23-0.15,0.31c-0.03-0.03-0.06-0.1-0.07-0.16
		c-0.02-0.1-0.12-0.17-0.23-0.16c-0.11,0.01-0.2,0.09-0.2,0.19c0,0.03-0.01,0.27-0.22,0.3c-0.02-0.03-0.03-0.16,0-0.25
		c0.02-0.08-0.01-0.16-0.09-0.2c-0.07-0.05-0.17-0.05-0.25,0L10.7,6.94c-0.06-1.11-0.19-2.41-0.19-2.43
		c-0.01-0.11-0.12-0.18-0.24-0.17c-0.12,0.01-0.21,0.1-0.2,0.21c0,0.02,0.16,1.52,0.2,2.67c-0.01,0.01-0.02,0.02-0.03,0.03
		c-0.09-0.19-0.26-0.31-0.48-0.33C9.46,6.89,9.12,7.07,9,7.34C8.9,7.57,8.97,7.79,9.17,7.91C9.32,8,9.54,8.02,9.82,7.94
		C9.75,8.15,9.63,8.36,9.46,8.53C9.32,8.68,9.08,8.85,8.77,8.84C8.59,8.83,8.45,8.78,8.35,8.68C8.1,8.44,8.12,8,8.12,7.99
		c0.01-0.11-0.09-0.2-0.2-0.2C7.79,7.78,7.69,7.87,7.69,7.97c0,0.02-0.03,0.6,0.34,0.96c0.18,0.18,0.43,0.28,0.73,0.29
		c0.01,0,0.03,0,0.04,0c0.36,0,0.72-0.16,1-0.45c0.26-0.27,0.44-0.64,0.5-0.98c0,0.66-0.45,1.4-1.04,1.72C9,9.66,8.6,9.78,8.16,9.59
		C7.62,9.35,7.68,8.8,7.68,8.78c0.01-0.11-0.07-0.2-0.19-0.21C7.38,8.55,7.27,8.62,7.25,8.73c0,0.03-0.11,0.84,0.72,1.2
		c0.21,0.09,0.43,0.14,0.66,0.14c0.29,0,0.58-0.08,0.85-0.23c0.72-0.4,1.25-1.26,1.25-2.05C10.73,7.67,10.72,7.53,10.72,7.39
		L10.72,7.39z M9.41,7.59c-0.04-0.02-0.01-0.1,0-0.11c0.05-0.1,0.19-0.19,0.3-0.19c0.01,0,0.01,0,0.02,0c0.03,0,0.1,0.01,0.13,0.15
		c0,0.02,0.01,0.03,0.01,0.05C9.63,7.62,9.47,7.62,9.41,7.59L9.41,7.59z M9.41,7.59"/>
	<path class="st3" d="M7.14,9.36c-0.1-0.05-0.24-0.02-0.3,0.07C6.84,9.44,6.82,9.45,6.81,9.47c0,0,0-0.01-0.01-0.02
		C6.71,9.24,6.78,8.91,6.81,8.8c0.03-0.1-0.04-0.21-0.15-0.23C6.54,8.54,6.42,8.6,6.39,8.7C6.37,8.75,6.24,9.22,6.4,9.59
		c0.1,0.23,0.25,0.29,0.36,0.3c0.01,0,0.02,0,0.03,0c0.23,0,0.39-0.21,0.43-0.27C7.28,9.53,7.25,9.41,7.14,9.36L7.14,9.36z
		 M7.14,9.36"/>
	<path class="st3" d="M11.15,5.87c0.05,0,0.09-0.01,0.13-0.04l1.1-0.76c0.02-0.01,0.02-0.02,0.04-0.04
		c0.16-0.08,0.26-0.24,0.26-0.41c0-0.26-0.24-0.48-0.54-0.48c-0.3,0-0.54,0.21-0.54,0.48c0,0.15,0.08,0.28,0.2,0.37l-0.78,0.54
		c-0.09,0.07-0.11,0.19-0.04,0.27C11.02,5.85,11.09,5.87,11.15,5.87L11.15,5.87z M12.14,4.53c0.06,0,0.11,0.04,0.11,0.1
		c0,0.05-0.05,0.1-0.11,0.1c-0.06,0-0.11-0.04-0.11-0.1C12.03,4.57,12.08,4.53,12.14,4.53L12.14,4.53z M12.14,4.53"/>
	<path class="st3" d="M11.88,5.69c-0.11-0.03-0.24,0.02-0.27,0.12c-0.02,0.06-0.13,0.38,0.08,0.57c0.08,0.07,0.19,0.11,0.32,0.11
		c0.09,0,0.19-0.02,0.3-0.05c0.11-0.03,0.18-0.14,0.14-0.24c-0.04-0.1-0.16-0.16-0.27-0.12C12.06,6.11,12.01,6.1,12,6.11
		c-0.01-0.03,0-0.11,0.02-0.18C12.06,5.83,12,5.72,11.88,5.69L11.88,5.69z M11.88,5.69"/>
	<path class="st3" d="M14.37,4.9c0.02,0.01,0.04,0.01,0.06,0.01c0.09,0,0.18-0.05,0.21-0.14l0.13-0.38c0.03-0.1-0.03-0.21-0.15-0.24
		c-0.12-0.03-0.24,0.03-0.27,0.13l-0.13,0.38C14.19,4.76,14.25,4.87,14.37,4.9L14.37,4.9z M14.37,4.9"/>
	<path class="st3" d="M13.1,4.87c0.03,0.02,0.07,0.03,0.11,0.03c0.07,0,0.15-0.03,0.19-0.09c0.06-0.09,0.03-0.21-0.08-0.26
		c-0.04-0.02-0.04-0.09-0.04-0.1c0.01-0.05,0.04-0.11,0.1-0.13c0.11-0.03,0.18-0.14,0.14-0.24c-0.04-0.1-0.16-0.16-0.27-0.13
		c-0.22,0.06-0.37,0.24-0.4,0.45C12.83,4.6,12.92,4.78,13.1,4.87L13.1,4.87z M13.1,4.87"/>
	<path class="st3" d="M11.38,7.98c-0.12,0-0.22,0.09-0.22,0.19c0,0.09,0.08,0.17,0.18,0.19c0.01,0.01,0.04,0.07,0.04,0.2
		c0,0.11,0.1,0.19,0.22,0.19c0.12,0,0.22-0.09,0.22-0.19C11.81,7.99,11.4,7.98,11.38,7.98L11.38,7.98z M11.38,7.98"/>
	<path class="st3" d="M15.06,7.19c0.03,0,0.05,0.01,0.08,0.01c0.17,0,0.34-0.08,0.51-0.23c0.08-0.07,0.08-0.2,0-0.27
		c-0.08-0.08-0.22-0.08-0.31,0c-0.13,0.11-0.2,0.12-0.22,0.11c-0.04-0.01-0.08-0.05-0.09-0.07c-0.05-0.09-0.18-0.13-0.29-0.08
		c-0.11,0.05-0.15,0.16-0.1,0.26C14.67,6.94,14.8,7.15,15.06,7.19L15.06,7.19z M15.06,7.19"/>
	<path class="st3" d="M18.76,5.84C18.76,5.84,18.76,5.83,18.76,5.84c-0.04-0.11-0.17-0.16-0.28-0.13c-0.11,0.03-0.18,0.14-0.14,0.24
		c0.02,0.04,0.11,0.27,0.35,0.3c0.02,0,0.03,0,0.05,0c0.15,0,0.29-0.09,0.42-0.26c0.07-0.09,0.04-0.21-0.06-0.27
		C19,5.68,18.87,5.7,18.8,5.79C18.79,5.81,18.77,5.83,18.76,5.84L18.76,5.84z M18.76,5.84"/>
	<path class="st3" d="M18.33,9.33c0-0.82-0.04-1.59-0.1-2.26c0.31,0.47,0.59,0.95,0.76,1.37c0.03,0.08,0.12,0.12,0.2,0.12
		c0.03,0,0.05,0,0.08-0.01c0.11-0.04,0.17-0.15,0.13-0.25c-0.27-0.65-0.77-1.42-1.26-2.1c-0.12-1.03-0.25-1.69-0.25-1.7
		c-0.02-0.1-0.13-0.17-0.25-0.15c-0.12,0.02-0.2,0.12-0.18,0.22c0,0.01,0.07,0.35,0.15,0.92c-0.17-0.22-0.32-0.42-0.45-0.58l0.01,0
		c0.11,0.03,0.24-0.02,0.28-0.12c0.04-0.1-0.02-0.21-0.14-0.24l-0.65-0.19c-0.09-0.03-0.19,0-0.25,0.07
		c-0.01,0.02-0.02,0.04-0.03,0.06c-0.13-0.09-0.3-0.15-0.45-0.1c-0.09,0.03-0.21,0.12-0.21,0.34c0,0.17,0.07,0.35,0.15,0.54
		c0.13,0.32,0.21,0.56,0.07,0.67C15.87,5.99,15.8,6.02,15.72,6c-0.13-0.03-0.27-0.19-0.35-0.42c0-0.01-0.01-0.02-0.02-0.03
		c0.05-0.3,0.03-0.66-0.07-1.06c-0.02-0.1-0.14-0.17-0.26-0.15c-0.12,0.02-0.19,0.12-0.17,0.23c0.14,0.63,0.1,1.14-0.11,1.37
		c-0.08,0.09-0.19,0.13-0.32,0.13c-0.04,0-0.07-0.01-0.1-0.04c-0.17-0.17-0.17-0.74-0.12-1.08c0.01-0.05-0.01-0.11-0.05-0.15
		c-0.04-0.04-0.1-0.07-0.16-0.07c-0.37,0-0.52,0.38-0.64,0.71c-0.05,0.15-0.16,0.42-0.23,0.44c-0.13,0-0.22-0.34-0.22-0.58
		c0-0.11-0.1-0.19-0.22-0.19h0c-0.12,0-0.22,0.09-0.22,0.19c0,0.44,0.17,0.96,0.65,0.96c0.36,0,0.5-0.35,0.62-0.67
		c0.02,0.26,0.09,0.52,0.25,0.68c0.11,0.11,0.26,0.18,0.43,0.18c0.27,0,0.5-0.09,0.66-0.27c0.03-0.03,0.06-0.07,0.08-0.11
		c0.13,0.16,0.28,0.26,0.46,0.3c0.05,0.01,0.1,0.02,0.15,0.02c0.17,0,0.33-0.06,0.47-0.18c0.03-0.02,0.05-0.05,0.07-0.08
		c0.05,0.01,0.11,0.02,0.16,0.02c0.18,0,0.35-0.06,0.45-0.12c0.1-0.06,0.13-0.17,0.07-0.26c-0.06-0.09-0.2-0.12-0.3-0.06
		c0,0-0.15,0.07-0.25,0.06c0-0.21-0.09-0.43-0.16-0.63c-0.04-0.11-0.09-0.23-0.11-0.32c0.02,0.01,0.04,0.03,0.05,0.04
		c0.08,0.07,0.22,0.07,0.31,0c0.01-0.01,0.02-0.03,0.03-0.04c0.23,0.27,0.69,0.85,1.16,1.51c0.09,0.82,0.17,1.86,0.17,3
		c0,0.11,0.1,0.19,0.22,0.19C18.23,9.52,18.33,9.43,18.33,9.33L18.33,9.33z M18.33,9.33"/>
	<path class="st3" d="M18.55,5.1c0,0.11,0.1,0.19,0.22,0.19c0.12,0,0.22-0.09,0.22-0.19c0-0.23-0.2-0.59-0.24-0.66
		c-0.05-0.09-0.18-0.13-0.29-0.09c-0.11,0.05-0.15,0.16-0.1,0.26C18.43,4.75,18.55,5,18.55,5.1L18.55,5.1z M18.55,5.1"/>
	<path class="st3" d="M17.56,9.35c-0.11-0.05-0.24-0.01-0.29,0.08c-0.02,0.04-0.06,0.09-0.09,0.11c-0.01-0.08,0.01-0.23,0.06-0.36
		c0.03-0.08-0.01-0.18-0.1-0.22c-0.09-0.05-0.2-0.03-0.27,0.03l-0.43,0.38c-0.09,0.07-0.09,0.2,0,0.27c0.08,0.08,0.22,0.08,0.31,0
		l0.01-0.01c0.02,0.08,0.05,0.15,0.12,0.2c0.08,0.07,0.18,0.11,0.28,0.11c0.02,0,0.04,0,0.06,0c0.25-0.04,0.4-0.28,0.44-0.35
		C17.71,9.51,17.67,9.4,17.56,9.35L17.56,9.35z M17.56,9.35"/>
	<path class="st3" d="M17.48,7.8h-1.53c0.01-0.05,0.03-0.09,0.04-0.14c0.61-0.11,0.97-0.29,1.08-0.52c0.04-0.08,0.08-0.24-0.08-0.43
		c-0.14-0.17-0.34-0.24-0.55-0.21c-0.31,0.06-0.58,0.35-0.78,0.82c-0.61,0.09-1.01,0.29-1.25,0.48c-0.09-0.79-0.43-1.25-0.45-1.28
		c-0.07-0.09-0.2-0.11-0.3-0.05c-0.1,0.06-0.13,0.18-0.06,0.27c0,0.01,0.4,0.54,0.4,1.43c0,0.88-0.79,1.54-1.3,1.54
		c-0.24,0-0.35-0.26-0.4-0.47c0.5-0.31,0.95-0.67,1.04-1.02c0.13-0.47-0.03-0.81-0.14-1.04c-0.01-0.01-0.01-0.02-0.02-0.03
		c0,0,0.01,0.01,0.01,0.01c0.08,0.08,0.22,0.08,0.31,0c0.08-0.07,0.08-0.2,0-0.27c-0.13-0.11-0.37-0.29-0.6-0.21
		c-0.09,0.03-0.21,0.12-0.21,0.34c0,0.1,0.05,0.2,0.1,0.31c0.1,0.2,0.22,0.45,0.12,0.8c-0.06,0.2-0.34,0.45-0.71,0.69
		c-0.04-0.04-0.1-0.07-0.16-0.07h0c-0.12,0-0.22,0.09-0.22,0.19c0,0.03,0,0.07,0,0.11c-0.46,0.27-0.99,0.51-1.4,0.68
		c-0.11,0.04-0.16,0.16-0.11,0.25c0.04,0.07,0.12,0.11,0.2,0.11c0.03,0,0.06-0.01,0.09-0.02c0.12-0.05,0.7-0.29,1.3-0.61
		c0.11,0.33,0.34,0.63,0.79,0.63c0.52,0,1.11-0.38,1.45-0.94c0.04,0.06,0.09,0.13,0.15,0.18C14.83,9.9,15.9,9.9,15.94,9.9
		c0.12,0,0.21-0.08,0.22-0.19c0-0.1-0.08-0.19-0.2-0.2c0,0-0.17-0.02-0.27-0.12c-0.06-0.06-0.08-0.14-0.07-0.25
		c0.02-0.24,0.89-0.41,1.65-0.42c0.09,0,0.17-0.05,0.2-0.13l0.22-0.54C17.7,8,17.69,7.94,17.65,7.89C17.61,7.83,17.55,7.8,17.48,7.8
		L17.48,7.8z M16.52,6.89c0,0,0.01,0,0.02,0c0.02,0,0.05,0.01,0.1,0.06c0.01,0.01,0.03,0.04,0.03,0.06
		c-0.02,0.05-0.17,0.14-0.49,0.23C16.31,6.99,16.45,6.9,16.52,6.89L16.52,6.89z M15.21,9.41c-0.22-0.06-0.45-0.16-0.6-0.32
		c-0.17-0.17-0.23-0.4-0.19-0.68c0.01-0.01,0.02-0.04,0.05-0.08c0.31-0.02,1.12,0.08,1.18,0.29c-0.25,0.11-0.44,0.27-0.46,0.5
		C15.17,9.23,15.18,9.33,15.21,9.41L15.21,9.41z M15.21,9.41"/>
	<path class="st3" d="M19.84,5.04l-0.22-0.58c-0.04-0.09-0.14-0.15-0.25-0.13c-0.11,0.02-0.18,0.11-0.17,0.21
		c0.15,1.32,0.43,3.91,0.43,4.2c0,0.27-0.54,0.79-1.4,1.17c-0.11,0.05-0.15,0.16-0.1,0.26c0.04,0.07,0.11,0.11,0.19,0.11
		c0.03,0,0.07-0.01,0.1-0.02c0.79-0.35,1.64-0.97,1.64-1.52c0-0.28-0.22-2.32-0.35-3.47C19.82,5.24,19.88,5.14,19.84,5.04
		L19.84,5.04z M19.84,5.04"/>
	<path class="st3" d="M21.65,6.78c0.04,0.04,0.1,0.06,0.15,0.06c0.04,0,0.07-0.01,0.11-0.03c0.08-0.04,0.13-0.13,0.1-0.21
		c-0.04-0.13-0.05-0.3-0.03-0.37c0.11,0,0.21-0.07,0.23-0.16c0.02-0.1-0.07-0.2-0.18-0.22c-0.14-0.02-0.27,0.02-0.36,0.11
		C21.61,6,21.58,6.07,21.56,6.15l-0.25-0.22c-0.08-0.07-0.22-0.07-0.31,0C20.92,6,20.92,6.13,21,6.2L21.65,6.78z M21.65,6.78"/>
	<path class="st3" d="M22.14,6.98l-0.81,0.52c-0.1,0.06-0.12,0.18-0.05,0.27c0.04,0.05,0.11,0.08,0.18,0.08
		c0.04,0,0.09-0.01,0.13-0.04l0.81-0.52c0.1-0.06,0.12-0.18,0.05-0.27C22.38,6.93,22.24,6.91,22.14,6.98L22.14,6.98z M22.14,6.98"/>
	<path class="st3" d="M22.07,7.7C22,7.78,22.01,7.89,22.09,7.95c0.01,0.01,0.05,0.09,0.04,0.28c0,0.11,0.09,0.2,0.21,0.2
		c0,0,0.01,0,0.01,0c0.12,0,0.21-0.08,0.22-0.18c0.02-0.39-0.13-0.54-0.19-0.58C22.28,7.6,22.14,7.61,22.07,7.7L22.07,7.7z
		 M22.07,7.7"/>
	<path class="st3" d="M23.97,9.11c0.12,0,0.22-0.09,0.22-0.19c0-0.28-0.02-0.6-0.04-0.93c0.22,0.31,0.39,0.6,0.51,0.84
		c0.04,0.07,0.12,0.12,0.2,0.12c0.03,0,0.06,0,0.09-0.02c0.11-0.04,0.16-0.15,0.11-0.25c-0.2-0.41-0.57-0.95-0.99-1.51
		c-0.09-0.7-0.2-1.4-0.28-1.89c0.05,0,0.09-0.01,0.14-0.03c0.07-0.04,0.1-0.11,0.1-0.17c0.01,0.02,0.01,0.04,0.02,0.06
		c0,0,0.14,0.21,0.08,0.47c-0.02,0.1,0.05,0.21,0.17,0.23c0.01,0,0.03,0,0.04,0c0.1,0,0.19-0.06,0.21-0.15
		c0.1-0.42-0.13-0.74-0.14-0.75c-0.06-0.09-0.2-0.12-0.3-0.06c-0.07,0.04-0.1,0.11-0.1,0.17c-0.01-0.02-0.01-0.04-0.02-0.06
		l-0.37-0.5c-0.06-0.08-0.17-0.11-0.26-0.07c-0.1,0.03-0.15,0.12-0.13,0.21c0,0.02,0.17,0.86,0.32,1.87
		c-0.17-0.21-0.33-0.41-0.49-0.6C23,5.59,22.98,5.32,22.96,5.1c0.01,0,0.02-0.01,0.04-0.01c0.11-0.05,0.15-0.16,0.1-0.26l-0.22-0.38
		c-0.05-0.08-0.15-0.12-0.25-0.1c-0.1,0.03-0.17,0.11-0.16,0.2c0.03,0.23,0.05,0.48,0.08,0.75c-0.14-0.16-0.26-0.31-0.37-0.43
		c0.02-0.02,0.04-0.04,0.05-0.06c0.05-0.09,0.01-0.21-0.1-0.26l-0.43-0.19c-0.09-0.04-0.2-0.02-0.27,0.05
		c-0.06,0.07-0.06,0.17,0,0.24c0.01,0.01,0.55,0.61,1.19,1.37c0.11,1.27,0.19,2.59,0.08,2.86C22.67,8.93,22.64,8.99,22.6,9
		c-0.13,0.02-0.44-0.24-0.6-0.52c-0.09-0.16-0.22-0.18-0.29-0.17c-0.23,0.01-0.32,0.24-0.49,0.65c-0.12,0.3-0.27,0.66-0.43,0.81
		c-0.09-0.1-0.21-0.42-0.27-0.76c0.03,0.07,0.11,0.13,0.2,0.13c0.12,0,0.22-0.09,0.22-0.19c0-0.29-0.23-2.47-0.35-3.66
		c0.11-0.04,0.16-0.14,0.13-0.24l-0.22-0.58c-0.04-0.09-0.14-0.15-0.25-0.13c-0.11,0.02-0.18,0.11-0.17,0.21
		c0.15,1.37,0.42,4.02,0.43,4.38c0,0,0-0.01,0-0.01c-0.02-0.11-0.13-0.18-0.25-0.16c-0.12,0.02-0.2,0.11-0.18,0.22
		c0.06,0.39,0.23,1.07,0.6,1.18c0.03,0.01,0.07,0.02,0.12,0.02c0.09,0,0.19-0.03,0.31-0.13c0.24-0.21,0.4-0.61,0.54-0.96
		C21.66,9,21.7,8.91,21.74,8.83c0.2,0.26,0.55,0.58,0.9,0.55c0.12-0.01,0.35-0.07,0.47-0.37c0.12-0.31,0.07-1.37-0.01-2.4
		c0.18,0.23,0.37,0.46,0.54,0.69c0.07,0.57,0.12,1.15,0.12,1.62C23.75,9.03,23.85,9.11,23.97,9.11L23.97,9.11z M23.97,9.11"/>
	<path class="st3" d="M25.62,8.1c-0.15-1.01-0.37-2.19-0.5-2.91c0.06,0.01,0.13,0,0.18-0.03c0.1-0.06,0.11-0.19,0.04-0.27
		l-0.39-0.46c-0.06-0.07-0.17-0.09-0.26-0.06c-0.09,0.04-0.14,0.12-0.13,0.21c0,0.02,0.39,1.99,0.63,3.57
		c0.09,0.6-0.04,1.14-0.36,1.44c-0.2,0.19-0.47,0.28-0.8,0.26c-0.12-0.01-0.22,0.07-0.23,0.18c-0.01,0.11,0.08,0.2,0.2,0.2
		c0.04,0,0.07,0,0.11,0c0.41,0,0.77-0.13,1.03-0.39C25.55,9.47,25.73,8.83,25.62,8.1L25.62,8.1z M25.62,8.1"/>
	<path class="st3" d="M23.23,9.37c-0.08,0.08-0.07,0.2,0.01,0.27c0.01,0.01,0.03,0.03,0.03,0.04c0,0.01-0.01,0.02-0.03,0.04
		c-0.08,0.08-0.08,0.2,0,0.27c0.04,0.04,0.1,0.06,0.15,0.06c0.06,0,0.11-0.02,0.15-0.06c0.14-0.12,0.16-0.25,0.16-0.33
		c-0.01-0.18-0.14-0.29-0.17-0.31C23.44,9.28,23.31,9.29,23.23,9.37L23.23,9.37z M23.23,9.37"/>
	<path class="st3" d="M22.46,13.58h-1.52v-0.19c0-0.11-0.1-0.19-0.22-0.19c-0.12,0-0.22,0.09-0.22,0.19v0.19H8.99
		c0.43,0.38,1.3,0.58,1.96,0.58h9.56v0.38c0,0.11,0.1,0.19,0.22,0.19h1.74c0.36,0,0.65-0.26,0.65-0.58
		C23.11,13.84,22.82,13.58,22.46,13.58L22.46,13.58z M22.46,14.35h-1.52v-0.19h1.74l-0.04-0.1c0.02,0.03,0.04,0.06,0.04,0.1
		C22.68,14.26,22.58,14.35,22.46,14.35L22.46,14.35z M22.46,14.35"/>
</g>
</svg>
