<?xml version="1.0" encoding="utf-8"?>
<!-- Generator: Adobe Illustrator 25.0.1, SVG Export Plug-In . SVG Version: 6.00 Build 0)  -->
<svg version="1.1" id="Layer_1" xmlns="http://www.w3.org/2000/svg" xmlns:xlink="http://www.w3.org/1999/xlink" x="0px" y="0px"
	 viewBox="0 0 32 20" style="enable-background:new 0 0 32 20;" xml:space="preserve">
<style type="text/css">
	.st0{fill:#FF4B55;}
	.st1{fill:#464655;}
	.st2{fill:#F5F5F5;}
	.st3{fill:#73AF00;}
</style>
<g>
	<path class="st0" d="M32,6.67H0V0.53C0,0.24,0.25,0,0.55,0h30.9C31.75,0,32,0.24,32,0.53L32,6.67L32,6.67z"/>
	<path class="st1" d="M31.45,20H0.55C0.25,20,0,19.76,0,19.47v-6.14h32v6.14C32,19.76,31.75,20,31.45,20z"/>
	<rect y="6.67" class="st2" width="32" height="6.67"/>
	<path class="st3" d="M0.2,19.87l12.68-9.6c0.18-0.14,0.18-0.41,0-0.55L0.2,0.13C0.08,0.22,0,0.36,0,0.53v18.95
		C0,19.64,0.08,19.78,0.2,19.87z"/>
</g>
</svg>
