<?xml version="1.0" encoding="utf-8"?>
<!-- Generator: Adobe Illustrator 25.0.0, SVG Export Plug-In . SVG Version: 6.00 Build 0)  -->
<svg version="1.1" id="Capa_1" xmlns="http://www.w3.org/2000/svg" xmlns:xlink="http://www.w3.org/1999/xlink" x="0px" y="0px"
	 viewBox="0 0 32 18.62" style="enable-background:new 0 0 32 18.62;" xml:space="preserve">
<style type="text/css">
	.st0{fill:#FF4B55;}
	.st1{fill:#464655;}
	.st2{fill:#73AF00;}
	.st3{fill:#F5F5F5;}
	.st4{fill:#41479B;}
	.st5{fill:#FFF5DC;}
	.st6{fill:#D27D69;}
	.st7{fill:#FFE15A;}
	.st8{fill:#B95546;}
	.st9{fill:#DCBE82;}
	.st10{fill:#D2AA73;}
	.st11{fill:#4173CD;}
	.st12{fill:#82AFFF;}
	.st13{fill:#F09146;}
	.st14{fill:#FFB400;}
	.st15{fill:#965032;}
	.st16{fill:#BE7855;}
	.st17{fill:#FFBE3C;}
	.st18{fill:#EAF3F5;}
	.st19{fill:#8C5A28;}
	.st20{fill:#F0C850;}
	.st21{fill:#FF6E55;}
	.st22{fill:#FFBE5A;}
	.st23{fill:#3CC8FF;}
	.st24{fill:#825546;}
	.st25{fill:#FFD255;}
	.st26{fill:#FFD25A;}
	.st27{fill:#509664;}
	.st28{fill:#F0AA00;}
	.st29{fill:#A561CD;}
	.st30{fill:#B34900;}
	.st31{fill:#64B496;}
	.st32{fill:#FF6B71;}
	.st33{fill:#5F64B9;}
	.st34{fill:#F5F0F0;}
	.st35{fill:#5A4646;}
	.st36{fill:#E6E1CD;}
	.st37{fill:#FFD0AF;}
	.st38{fill:#FFAF94;}
	.st39{fill:#8CB400;}
	.st40{fill:#69C3FF;}
	.st41{fill:#009B64;}
	.st42{fill:#5AA0E6;}
	.st43{fill:#FFC88C;}
	.st44{fill:#E1E1E1;}
	.st45{fill:#966446;}
	.st46{fill:#BE915A;}
	.st47{fill:#B9B9B9;}
	.st48{fill:#F0C727;}
	.st49{fill:#50AF69;}
	.st50{fill:#FFE6E6;}
	.st51{fill:#FFB750;}
	.st52{fill:#FFC455;}
	.st53{fill:#FFCD55;}
	.st54{fill:#9BC800;}
	.st55{fill:#FFE14E;}
	.st56{fill:#FFB14E;}
	.st57{fill:#B46446;}
	.st58{fill:#5FA000;}
	.st59{fill:#F2DD30;}
	.st60{fill:#FFC855;}
	.st61{fill:#A0A0A0;}
	.st62{fill:#69B469;}
	.st63{fill:#F4E08F;}
	.st64{fill:#ECD077;}
	.st65{fill:#FCF0A8;}
	.st66{fill:#FAB446;}
	.st67{fill:#C8414B;}
	.st68{fill:#FF9B46;}
	.st69{fill:#FF9B55;}
	.st70{fill:#82C3D2;}
	.st71{fill:#5AA587;}
	.st72{fill:#CDCDCD;}
	.st73{fill:#B4A08C;}
	.st74{fill:#FFD250;}
	.st75{fill:#00C3A0;}
	.st76{fill:#00AADC;}
	.st77{fill:#732D37;}
	.st78{fill:#AAD264;}
	.st79{fill:#874150;}
	.st80{fill:#783C46;}
	.st81{fill:#FFB478;}
	.st82{fill:#9B4B5A;}
	.st83{fill:#FFCD5A;}
	.st84{fill:#FFAA5A;}
	.st85{fill:#FF875A;}
	.st86{fill:#E6B432;}
	.st87{fill:#C86464;}
	.st88{fill:#FFF5E1;}
	.st89{fill:#963C3C;}
	.st90{fill:#5A8250;}
	.st91{fill:#AFEBFF;}
	.st92{fill:#557DE6;}
	.st93{fill:#D23741;}
	.st94{fill:#64C86E;}
	.st95{fill:#873250;}
	.st96{fill:#41AA5A;}
	.st97{fill:#8CD7FF;}
	.st98{fill:#6EC86E;}
	.st99{fill:#FFF0E1;}
	.st100{fill:#FFC75A;}
	.st101{fill:#FFD350;}
	.st102{fill:#FFBE50;}
	.st103{fill:#A54B50;}
	.st104{fill:#C87878;}
	.st105{fill:#FF1722;}
	.st106{fill:#FFB441;}
	.st107{fill:#5064AA;}
	.st108{fill:#FFA0D2;}
	.st109{fill:#FF7350;}
	.st110{fill:#245DBD;}
	.st111{fill:#D35A10;}
	.st112{fill:#FFA033;}
	.st113{fill:#FF9480;}
	.st114{fill:#FFA0E4;}
	.st115{fill:#696E7D;}
	.st116{fill:#FFFCFF;}
	.st117{fill:#EBEBEB;}
	.st118{fill:#FF4B57;}
	.st119{fill:#D2D2D2;}
	.st120{fill:#F0C814;}
	.st121{fill:#F7B518;}
	.st122{fill:#2C2F38;}
	.st123{fill:#4C8056;}
	.st124{fill:#F0C419;}
	.st125{fill:#C03A2B;}
	.st126{fill:#EA3F3F;}
	.st127{fill:#E4E3E1;}
	.st128{fill:#2472B2;}
</style>
<g>
	<path class="st0" d="M31.97,9.3H0V0.53c0-0.27,0.25-0.49,0.55-0.49h30.87c0.3,0,0.55,0.22,0.55,0.49V9.3z M31.97,9.3"/>
	<path class="st3" d="M0,9.3h31.97v8.77c0,0.27-0.25,0.49-0.55,0.49H0.55c-0.3,0-0.55-0.22-0.55-0.49V9.3z M0,9.3"/>
	<path class="st3" d="M4.53,4.68c0-1.6,1.33-2.93,3.07-3.17C7.69,1.49,7.7,1.38,7.6,1.36C7.17,1.27,6.72,1.24,6.24,1.3
		C4.37,1.53,2.92,2.96,2.9,4.63C2.86,6.54,4.6,8.09,6.75,8.09C7.05,8.09,7.33,8.06,7.6,8C7.7,7.98,7.69,7.87,7.6,7.86
		C5.86,7.61,4.53,6.29,4.53,4.68L4.53,4.68z M4.53,4.68"/>
	<path class="st3" d="M7.63,5.53L7.46,5.97l-0.52,0c-0.07,0-0.09,0.08-0.04,0.11l0.41,0.27L7.17,6.79c-0.02,0.06,0.05,0.1,0.11,0.07
		l0.42-0.27l0.42,0.27c0.05,0.03,0.13-0.01,0.11-0.07L8.06,6.35l0.41-0.27C8.53,6.05,8.5,5.97,8.44,5.97l-0.52,0L7.76,5.53
		C7.74,5.48,7.65,5.48,7.63,5.53L7.63,5.53z M7.63,5.53"/>
	<path class="st3" d="M10.18,5.53l-0.16,0.43l-0.52,0c-0.07,0-0.09,0.08-0.04,0.11l0.41,0.27L9.72,6.79
		C9.7,6.84,9.77,6.89,9.82,6.86l0.42-0.27l0.42,0.27c0.05,0.03,0.13-0.01,0.11-0.07l-0.16-0.43l0.41-0.27
		c0.05-0.04,0.03-0.11-0.04-0.11l-0.52,0l-0.16-0.43C10.29,5.48,10.2,5.48,10.18,5.53L10.18,5.53z M10.18,5.53"/>
	<path class="st3" d="M8.91,2.06L8.75,2.49l-0.52,0c-0.07,0-0.09,0.08-0.04,0.11l0.41,0.27L8.45,3.31C8.43,3.37,8.5,3.41,8.56,3.38
		l0.42-0.26L9.4,3.38C9.45,3.41,9.52,3.37,9.5,3.31L9.35,2.88l0.41-0.27C9.82,2.57,9.79,2.5,9.72,2.49l-0.52,0L9.04,2.06
		C9.02,2,8.93,2,8.91,2.06L8.91,2.06z M8.91,2.06"/>
	<path class="st3" d="M6.88,3.39L6.72,3.82l-0.52,0c-0.07,0-0.09,0.08-0.04,0.11l0.41,0.27L6.42,4.64C6.4,4.7,6.47,4.75,6.53,4.71
		l0.42-0.27l0.42,0.27C7.42,4.75,7.49,4.7,7.47,4.64L7.32,4.21l0.41-0.27C7.79,3.9,7.76,3.83,7.69,3.83l-0.52,0L7.01,3.39
		C6.99,3.33,6.9,3.33,6.88,3.39L6.88,3.39z M6.88,3.39"/>
	<path class="st3" d="M10.93,3.39l-0.16,0.43l-0.52,0c-0.07,0-0.09,0.08-0.04,0.11l0.41,0.27l-0.16,0.43
		c-0.02,0.06,0.05,0.1,0.11,0.07l0.42-0.27l0.42,0.27c0.05,0.03,0.13-0.01,0.11-0.07l-0.16-0.43l0.41-0.27
		c0.05-0.04,0.03-0.11-0.04-0.11l-0.52,0l-0.16-0.43C11.04,3.33,10.95,3.33,10.93,3.39L10.93,3.39z M10.93,3.39"/>
</g>
</svg>
