<?xml version="1.0" encoding="utf-8"?>
<!-- Generator: Adobe Illustrator 25.0.0, SVG Export Plug-In . SVG Version: 6.00 Build 0)  -->
<svg version="1.1" id="Capa_1" xmlns="http://www.w3.org/2000/svg" xmlns:xlink="http://www.w3.org/1999/xlink" x="0px" y="0px"
	 viewBox="0 0 32 18.62" style="enable-background:new 0 0 32 18.62;" xml:space="preserve">
<style type="text/css">
	.st0{fill:#FF4B55;}
	.st1{fill:#464655;}
	.st2{fill:#73AF00;}
	.st3{fill:#F5F5F5;}
	.st4{fill:#41479B;}
	.st5{fill:#FFF5DC;}
	.st6{fill:#D27D69;}
	.st7{fill:#FFE15A;}
	.st8{fill:#B95546;}
	.st9{fill:#DCBE82;}
	.st10{fill:#D2AA73;}
	.st11{fill:#4173CD;}
	.st12{fill:#82AFFF;}
	.st13{fill:#F09146;}
	.st14{fill:#FFB400;}
	.st15{fill:#965032;}
	.st16{fill:#BE7855;}
	.st17{fill:#FFBE3C;}
	.st18{fill:#EAF3F5;}
	.st19{fill:#8C5A28;}
	.st20{fill:#F0C850;}
	.st21{fill:#FF6E55;}
	.st22{fill:#FFBE5A;}
	.st23{fill:#3CC8FF;}
	.st24{fill:#825546;}
	.st25{fill:#FFD255;}
	.st26{fill:#FFD25A;}
	.st27{fill:#509664;}
	.st28{fill:#F0AA00;}
	.st29{fill:#A561CD;}
	.st30{fill:#B34900;}
	.st31{fill:#64B496;}
	.st32{fill:#FF6B71;}
	.st33{fill:#5F64B9;}
	.st34{fill:#F5F0F0;}
	.st35{fill:#5A4646;}
	.st36{fill:#E6E1CD;}
	.st37{fill:#FFD0AF;}
	.st38{fill:#FFAF94;}
	.st39{fill:#8CB400;}
	.st40{fill:#69C3FF;}
	.st41{fill:#009B64;}
	.st42{fill:#5AA0E6;}
	.st43{fill:#FFC88C;}
	.st44{fill:#E1E1E1;}
	.st45{fill:#966446;}
	.st46{fill:#BE915A;}
	.st47{fill:#B9B9B9;}
	.st48{fill:#F0C727;}
	.st49{fill:#50AF69;}
	.st50{fill:#FFE6E6;}
	.st51{fill:#FFB750;}
	.st52{fill:#FFC455;}
	.st53{fill:#FFCD55;}
	.st54{fill:#9BC800;}
	.st55{fill:#FFE14E;}
	.st56{fill:#FFB14E;}
	.st57{fill:#B46446;}
	.st58{fill:#5FA000;}
	.st59{fill:#F2DD30;}
	.st60{fill:#FFC855;}
	.st61{fill:#A0A0A0;}
	.st62{fill:#69B469;}
	.st63{fill:#F4E08F;}
	.st64{fill:#ECD077;}
	.st65{fill:#FCF0A8;}
	.st66{fill:#FAB446;}
	.st67{fill:#C8414B;}
	.st68{fill:#FF9B46;}
	.st69{fill:#FF9B55;}
	.st70{fill:#82C3D2;}
	.st71{fill:#5AA587;}
	.st72{fill:#CDCDCD;}
	.st73{fill:#B4A08C;}
	.st74{fill:#FFD250;}
	.st75{fill:#00C3A0;}
	.st76{fill:#00AADC;}
	.st77{fill:#732D37;}
	.st78{fill:#AAD264;}
	.st79{fill:#874150;}
	.st80{fill:#783C46;}
	.st81{fill:#FFB478;}
	.st82{fill:#9B4B5A;}
	.st83{fill:#FFCD5A;}
	.st84{fill:#FFAA5A;}
	.st85{fill:#FF875A;}
	.st86{fill:#E6B432;}
	.st87{fill:#C86464;}
	.st88{fill:#FFF5E1;}
	.st89{fill:#963C3C;}
	.st90{fill:#5A8250;}
	.st91{fill:#AFEBFF;}
	.st92{fill:#557DE6;}
	.st93{fill:#D23741;}
	.st94{fill:#64C86E;}
	.st95{fill:#873250;}
	.st96{fill:#41AA5A;}
	.st97{fill:#8CD7FF;}
	.st98{fill:#6EC86E;}
	.st99{fill:#FFF0E1;}
	.st100{fill:#FFC75A;}
	.st101{fill:#FFD350;}
	.st102{fill:#FFBE50;}
	.st103{fill:#A54B50;}
	.st104{fill:#C87878;}
	.st105{fill:#FF1722;}
	.st106{fill:#FFB441;}
	.st107{fill:#5064AA;}
	.st108{fill:#FFA0D2;}
	.st109{fill:#FF7350;}
	.st110{fill:#245DBD;}
	.st111{fill:#D35A10;}
	.st112{fill:#FFA033;}
	.st113{fill:#FF9480;}
	.st114{fill:#FFA0E4;}
	.st115{fill:#696E7D;}
	.st116{fill:#FFFCFF;}
	.st117{fill:#EBEBEB;}
	.st118{fill:#FF4B57;}
	.st119{fill:#D2D2D2;}
	.st120{fill:#F0C814;}
	.st121{fill:#F7B518;}
	.st122{fill:#2C2F38;}
	.st123{fill:#4C8056;}
	.st124{fill:#F0C419;}
	.st125{fill:#C03A2B;}
	.st126{fill:#EA3F3F;}
	.st127{fill:#E4E3E1;}
	.st128{fill:#2472B2;}
</style>
<g>
	<path class="st3" d="M31.97,6.21H0V0.53c0-0.27,0.25-0.49,0.55-0.49h30.87c0.3,0,0.55,0.22,0.55,0.49V6.21z M31.97,6.21"/>
	<path class="st0" d="M31.42,18.55H0.55c-0.3,0-0.55-0.22-0.55-0.49v-5.68h31.97v5.68C31.97,18.33,31.72,18.55,31.42,18.55
		L31.42,18.55z M31.42,18.55"/>
	<rect y="6.21" class="st4" width="31.97" height="6.17"/>
	<path class="st4" d="M10.74,3.86c0,0-0.11,3.12-0.61,4C9.52,8.94,8.9,9.25,7.98,9.54c-0.92-0.29-1.54-0.6-2.15-1.68
		c-0.5-0.88-0.61-4-0.61-4C6.98,3.16,8.99,3.16,10.74,3.86L10.74,3.86z M10.74,3.86"/>
	<path class="st3" d="M8.78,8.19C8.71,8.15,8.67,8.12,8.56,8.12c-0.11,0-0.16,0.03-0.23,0.07c-0.08,0.04-0.17,0.1-0.35,0.1
		c-0.18,0-0.27-0.05-0.35-0.1C7.57,8.15,7.52,8.12,7.41,8.12c-0.11,0-0.16,0.03-0.23,0.06c-0.07,0.04-0.16,0.09-0.32,0.1
		c0.33,0.36,0.69,0.53,1.12,0.68c0.44-0.15,0.79-0.32,1.12-0.68C8.95,8.28,8.85,8.23,8.78,8.19L8.78,8.19z M8.78,8.19"/>
	<path class="st3" d="M6.61,7.61c0.07,0.04,0.12,0.06,0.22,0.06c0.11,0,0.16-0.03,0.23-0.06c0.08-0.04,0.17-0.1,0.35-0.1
		c0.18,0,0.27,0.05,0.35,0.1c0.07,0.04,0.12,0.07,0.23,0.07c0.11,0,0.16-0.03,0.23-0.06c0.08-0.04,0.17-0.1,0.35-0.1
		c0.18,0,0.27,0.05,0.35,0.1c0.07,0.04,0.12,0.07,0.23,0.07c0.11,0,0.16-0.03,0.23-0.07C9.42,7.58,9.5,7.53,9.63,7.52
		c0.03-0.08,0.07-0.16,0.1-0.27L8.9,6.04L8.6,6.58L7.98,5.5L7.37,6.58L7.06,6.04L6.24,7.25c0.03,0.11,0.06,0.19,0.1,0.27
		C6.46,7.53,6.54,7.58,6.61,7.61L6.61,7.61z M6.61,7.61"/>
	<path class="st3" d="M9.48,7.78c-0.08,0.04-0.17,0.1-0.35,0.1c-0.18,0-0.27-0.05-0.35-0.1C8.71,7.74,8.67,7.72,8.56,7.72
		c-0.11,0-0.16,0.03-0.23,0.07c-0.08,0.04-0.17,0.1-0.35,0.1c-0.18,0-0.27-0.05-0.35-0.1C7.57,7.74,7.52,7.72,7.41,7.72
		c-0.11,0-0.16,0.03-0.23,0.06c-0.08,0.04-0.17,0.1-0.35,0.1c-0.18,0-0.27-0.05-0.35-0.1c0,0,0,0,0,0c0.06,0.1,0.12,0.18,0.18,0.26
		c0.04,0.02,0.09,0.04,0.17,0.04c0.11,0,0.16-0.03,0.23-0.07c0.08-0.04,0.17-0.1,0.35-0.1c0.18,0,0.27,0.05,0.35,0.1
		c0.07,0.04,0.12,0.07,0.23,0.07c0.11,0,0.16-0.03,0.23-0.06c0.08-0.04,0.17-0.1,0.35-0.1c0.18,0,0.27,0.05,0.35,0.1
		c0.07,0.04,0.12,0.07,0.23,0.07c0.08,0,0.13-0.01,0.17-0.04C9.36,7.97,9.42,7.88,9.48,7.78C9.48,7.78,9.48,7.78,9.48,7.78
		L9.48,7.78z M9.48,7.78"/>
	<path class="st7" d="M8,4.57l0.05,0.16l0.18-0.04c0.01,0,0.02,0.01,0.01,0.02L8.11,4.82l0.13,0.12c0.01,0.01,0,0.02-0.01,0.02
		L8.05,4.92L8,5.08c0,0.01-0.02,0.01-0.02,0L7.92,4.92L7.74,4.96c-0.01,0-0.02-0.01-0.01-0.02l0.13-0.12L7.73,4.7
		c-0.01-0.01,0-0.02,0.01-0.02l0.18,0.04l0.05-0.16C7.97,4.55,7.99,4.55,8,4.57L8,4.57z M8,4.57"/>
	<path class="st7" d="M7.11,3.82l0.05,0.16l0.18-0.04c0.01,0,0.02,0.01,0.01,0.02L7.23,4.08l0.13,0.12c0.01,0.01,0,0.02-0.01,0.02
		L7.17,4.18L7.11,4.33c0,0.01-0.02,0.01-0.02,0L7.04,4.18L6.86,4.21c-0.01,0-0.02-0.01-0.01-0.02l0.13-0.12L6.85,3.96
		c-0.01-0.01,0-0.02,0.01-0.02l0.18,0.04l0.05-0.16C7.09,3.81,7.11,3.81,7.11,3.82L7.11,3.82z M7.11,3.82"/>
	<path class="st7" d="M8.88,3.82l0.05,0.16l0.18-0.04c0.01,0,0.02,0.01,0.01,0.02L9,4.08l0.13,0.12c0.01,0.01,0,0.02-0.01,0.02
		L8.94,4.18L8.88,4.33c0,0.01-0.02,0.01-0.02,0L8.8,4.18L8.63,4.21c-0.01,0-0.02-0.01-0.01-0.02l0.13-0.12L8.61,3.96
		c-0.01-0.01,0-0.02,0.01-0.02L8.8,3.97l0.05-0.16C8.86,3.81,8.88,3.81,8.88,3.82L8.88,3.82z M8.88,3.82"/>
	<path class="st105" d="M10.42,3.74c0,0.09,0,0.17,0,0.27c-0.04,0.98-0.21,3.1-0.57,3.74C9.33,8.69,8.84,9,7.98,9.28
		C7.12,9,6.63,8.69,6.11,7.75C5.75,7.11,5.58,4.95,5.54,4.01c0-0.09,0-0.18,0-0.27C5.44,3.78,5.33,3.81,5.23,3.86
		c0.01,0.19,0.06,1.43,0.22,2.53C5.54,7,5.66,7.56,5.83,7.86c0.61,1.08,1.23,1.39,2.15,1.68c0.92-0.29,1.54-0.61,2.15-1.68
		c0.17-0.3,0.29-0.86,0.39-1.47c0.16-1.09,0.21-2.34,0.22-2.53C10.64,3.81,10.53,3.78,10.42,3.74L10.42,3.74z M10.42,3.74"/>
</g>
</svg>
