<?xml version="1.0" encoding="utf-8"?>
<!-- Generator: Adobe Illustrator 25.0.0, SVG Export Plug-In . SVG Version: 6.00 Build 0)  -->
<svg version="1.1" id="Capa_1" xmlns="http://www.w3.org/2000/svg" xmlns:xlink="http://www.w3.org/1999/xlink" x="0px" y="0px"
	 viewBox="0 0 32 18.62" style="enable-background:new 0 0 32 18.62;" xml:space="preserve">
<style type="text/css">
	.st0{fill:#FF4B55;}
	.st1{fill:#464655;}
	.st2{fill:#73AF00;}
	.st3{fill:#F5F5F5;}
	.st4{fill:#41479B;}
	.st5{fill:#FFF5DC;}
	.st6{fill:#D27D69;}
	.st7{fill:#FFE15A;}
	.st8{fill:#B95546;}
	.st9{fill:#DCBE82;}
	.st10{fill:#D2AA73;}
	.st11{fill:#4173CD;}
	.st12{fill:#82AFFF;}
	.st13{fill:#F09146;}
	.st14{fill:#FFB400;}
	.st15{fill:#965032;}
	.st16{fill:#BE7855;}
	.st17{fill:#FFBE3C;}
	.st18{fill:#EAF3F5;}
	.st19{fill:#8C5A28;}
	.st20{fill:#F0C850;}
	.st21{fill:#FF6E55;}
	.st22{fill:#FFBE5A;}
	.st23{fill:#3CC8FF;}
	.st24{fill:#825546;}
	.st25{fill:#FFD255;}
	.st26{fill:#FFD25A;}
	.st27{fill:#509664;}
	.st28{fill:#F0AA00;}
	.st29{fill:#A561CD;}
	.st30{fill:#B34900;}
	.st31{fill:#64B496;}
	.st32{fill:#FF6B71;}
	.st33{fill:#5F64B9;}
	.st34{fill:#F5F0F0;}
	.st35{fill:#5A4646;}
	.st36{fill:#E6E1CD;}
	.st37{fill:#FFD0AF;}
	.st38{fill:#FFAF94;}
	.st39{fill:#8CB400;}
	.st40{fill:#69C3FF;}
	.st41{fill:#009B64;}
	.st42{fill:#5AA0E6;}
	.st43{fill:#FFC88C;}
	.st44{fill:#E1E1E1;}
	.st45{fill:#966446;}
	.st46{fill:#BE915A;}
	.st47{fill:#B9B9B9;}
	.st48{fill:#F0C727;}
	.st49{fill:#50AF69;}
	.st50{fill:#FFE6E6;}
	.st51{fill:#FFB750;}
	.st52{fill:#FFC455;}
	.st53{fill:#FFCD55;}
	.st54{fill:#9BC800;}
	.st55{fill:#FFE14E;}
	.st56{fill:#FFB14E;}
	.st57{fill:#B46446;}
	.st58{fill:#5FA000;}
	.st59{fill:#F2DD30;}
	.st60{fill:#FFC855;}
	.st61{fill:#A0A0A0;}
	.st62{fill:#69B469;}
	.st63{fill:#F4E08F;}
	.st64{fill:#ECD077;}
	.st65{fill:#FCF0A8;}
	.st66{fill:#FAB446;}
	.st67{fill:#C8414B;}
	.st68{fill:#FF9B46;}
	.st69{fill:#FF9B55;}
	.st70{fill:#82C3D2;}
	.st71{fill:#5AA587;}
	.st72{fill:#CDCDCD;}
	.st73{fill:#B4A08C;}
	.st74{fill:#FFD250;}
	.st75{fill:#00C3A0;}
	.st76{fill:#00AADC;}
	.st77{fill:#732D37;}
	.st78{fill:#AAD264;}
	.st79{fill:#874150;}
	.st80{fill:#783C46;}
	.st81{fill:#FFB478;}
	.st82{fill:#9B4B5A;}
	.st83{fill:#FFCD5A;}
	.st84{fill:#FFAA5A;}
	.st85{fill:#FF875A;}
	.st86{fill:#E6B432;}
	.st87{fill:#C86464;}
	.st88{fill:#FFF5E1;}
	.st89{fill:#963C3C;}
	.st90{fill:#5A8250;}
	.st91{fill:#AFEBFF;}
	.st92{fill:#557DE6;}
	.st93{fill:#D23741;}
	.st94{fill:#64C86E;}
	.st95{fill:#873250;}
	.st96{fill:#41AA5A;}
	.st97{fill:#8CD7FF;}
	.st98{fill:#6EC86E;}
	.st99{fill:#FFF0E1;}
	.st100{fill:#FFC75A;}
	.st101{fill:#FFD350;}
	.st102{fill:#FFBE50;}
	.st103{fill:#A54B50;}
	.st104{fill:#C87878;}
	.st105{fill:#FF1722;}
	.st106{fill:#FFB441;}
	.st107{fill:#5064AA;}
	.st108{fill:#FFA0D2;}
	.st109{fill:#FF7350;}
	.st110{fill:#245DBD;}
	.st111{fill:#D35A10;}
	.st112{fill:#FFA033;}
	.st113{fill:#FF9480;}
	.st114{fill:#FFA0E4;}
	.st115{fill:#696E7D;}
	.st116{fill:#FFFCFF;}
	.st117{fill:#EBEBEB;}
	.st118{fill:#FF4B57;}
	.st119{fill:#D2D2D2;}
	.st120{fill:#F0C814;}
	.st121{fill:#F7B518;}
	.st122{fill:#2C2F38;}
	.st123{fill:#4C8056;}
	.st124{fill:#F0C419;}
	.st125{fill:#C03A2B;}
	.st126{fill:#EA3F3F;}
	.st127{fill:#E4E3E1;}
	.st128{fill:#2472B2;}
</style>
<g>
	<path class="st3" d="M31.97,9.3H0V0.53c0-0.27,0.25-0.49,0.55-0.49h30.87c0.3,0,0.55,0.22,0.55,0.49V9.3z M31.97,9.3"/>
	<path class="st12" d="M0,9.3h31.97v8.77c0,0.27-0.25,0.49-0.55,0.49H0.55c-0.3,0-0.55-0.22-0.55-0.49V9.3z M0,9.3"/>
	<path class="st57" d="M16.04,13.27c-0.09,0-2.3-0.1-3.4-1.44c-0.64-0.78-0.77-1.82-0.38-3.08l0.16,0.04
		C12.03,10,12.15,11,12.76,11.74c1.06,1.28,3.26,1.38,3.28,1.38L16.04,13.27z M16.04,13.27"/>
	<path class="st96" d="M12.25,8.18c-0.11,0.25-0.08,0.51,0.04,0.71c0.24-0.07,0.46-0.25,0.57-0.5c0.11-0.25,0.08-0.51-0.04-0.71
		C12.57,7.75,12.36,7.93,12.25,8.18L12.25,8.18z M12.25,8.18"/>
	<path class="st96" d="M13.63,11.64c-0.12,0.18-0.15,0.41-0.06,0.64c0.08,0.21,0.26,0.37,0.46,0.45c-0.19-0.09-0.44-0.11-0.68-0.04
		c-0.26,0.08-0.45,0.25-0.53,0.44c0.2,0.11,0.47,0.13,0.72,0.06c0.26-0.08,0.45-0.25,0.53-0.44c0.12-0.18,0.15-0.41,0.06-0.64
		C14.04,11.88,13.85,11.71,13.63,11.64L13.63,11.64z M13.63,11.64"/>
	<path class="st96" d="M13.16,11c-0.19,0.12-0.31,0.33-0.33,0.57c-0.01,0.23,0.08,0.43,0.23,0.57c-0.14-0.15-0.36-0.25-0.62-0.26
		c-0.27-0.01-0.52,0.08-0.68,0.23c0.14,0.16,0.38,0.28,0.65,0.29c0.27,0.01,0.52-0.08,0.68-0.23c0.18-0.12,0.31-0.33,0.33-0.57
		C13.43,11.36,13.33,11.14,13.16,11L13.16,11z M13.16,11"/>
	<path class="st96" d="M12.95,10.28c-0.23,0.05-0.43,0.2-0.55,0.42c-0.11,0.21-0.11,0.42-0.03,0.6c-0.07-0.18-0.23-0.35-0.46-0.45
		c-0.25-0.1-0.52-0.1-0.73-0.01c0.06,0.2,0.23,0.38,0.48,0.49c0.25,0.1,0.52,0.1,0.73,0.01v0c0.22-0.05,0.43-0.2,0.55-0.42
		C13.06,10.7,13.05,10.47,12.95,10.28L12.95,10.28z M12.95,10.28"/>
	<path class="st96" d="M13.07,9.57c-0.23-0.02-0.49,0.06-0.68,0.23c-0.18,0.16-0.27,0.36-0.26,0.56c0.01-0.19-0.08-0.4-0.25-0.56
		c-0.19-0.17-0.45-0.25-0.68-0.24c-0.02,0.2,0.06,0.43,0.26,0.6c0.19,0.17,0.45,0.25,0.68,0.24v0c0.23,0.02,0.48-0.06,0.68-0.23
		C13,10,13.09,9.77,13.07,9.57L13.07,9.57z M13.07,9.57"/>
	<path class="st96" d="M13.23,8.89c-0.22-0.05-0.49-0.02-0.71,0.12c-0.21,0.13-0.33,0.32-0.37,0.51c0.04-0.19,0-0.41-0.15-0.59
		c-0.16-0.2-0.39-0.31-0.62-0.33c-0.06,0.2-0.02,0.43,0.14,0.63c0.16,0.2,0.39,0.31,0.62,0.33v0c0.22,0.05,0.49,0.02,0.71-0.12
		C13.08,9.3,13.21,9.09,13.23,8.89L13.23,8.89z M13.23,8.89"/>
	<path class="st7" d="M13.47,12.64c0,0.08-0.08,0.15-0.17,0.15s-0.17-0.07-0.17-0.15c0-0.08,0.08-0.15,0.17-0.15
		S13.47,12.55,13.47,12.64L13.47,12.64z M13.47,12.64"/>
	<path class="st7" d="M14.25,12.72c0,0.08-0.08,0.15-0.17,0.15c-0.09,0-0.17-0.07-0.17-0.15c0-0.08,0.08-0.15,0.17-0.15
		C14.18,12.57,14.25,12.64,14.25,12.72L14.25,12.72z M14.25,12.72"/>
	<path class="st7" d="M13.02,11.5c0,0.08-0.08,0.15-0.17,0.15s-0.17-0.07-0.17-0.15c0-0.08,0.08-0.15,0.17-0.15
		S13.02,11.41,13.02,11.5L13.02,11.5z M13.02,11.5"/>
	<path class="st7" d="M11.93,10.36c0,0.08-0.08,0.15-0.17,0.15s-0.17-0.07-0.17-0.15c0-0.08,0.08-0.15,0.17-0.15
		S11.93,10.28,11.93,10.36L11.93,10.36z M11.93,10.36"/>
	<path class="st7" d="M12.69,9.6c0,0.08-0.08,0.15-0.17,0.15c-0.09,0-0.17-0.07-0.17-0.15c0-0.08,0.08-0.15,0.17-0.15
		C12.61,9.45,12.69,9.51,12.69,9.6L12.69,9.6z M12.69,9.6"/>
	<path class="st7" d="M12.4,8.81c0,0.08-0.08,0.15-0.17,0.15c-0.09,0-0.17-0.07-0.17-0.15c0-0.08,0.08-0.15,0.17-0.15
		C12.33,8.66,12.4,8.73,12.4,8.81L12.4,8.81z M12.4,8.81"/>
	<path class="st57" d="M16.04,13.27l-0.01-0.14c0.02,0,2.22-0.1,3.28-1.38C19.93,11,20.05,10,19.67,8.78l0.16-0.04
		c0.39,1.27,0.26,2.3-0.38,3.08C18.34,13.17,16.14,13.27,16.04,13.27L16.04,13.27z M16.04,13.27"/>
	<path class="st96" d="M19.83,8.18c0.11,0.25,0.08,0.51-0.04,0.71c-0.24-0.07-0.46-0.25-0.57-0.5c-0.11-0.25-0.08-0.51,0.04-0.71
		C19.5,7.75,19.72,7.93,19.83,8.18L19.83,8.18z M19.83,8.18"/>
	<path class="st96" d="M18.45,11.64c0.12,0.18,0.15,0.41,0.06,0.64c-0.08,0.21-0.26,0.37-0.46,0.45c0.19-0.09,0.44-0.11,0.68-0.04
		c0.26,0.08,0.45,0.25,0.53,0.44c-0.2,0.11-0.47,0.13-0.72,0.06c-0.26-0.08-0.45-0.25-0.53-0.44c-0.12-0.18-0.15-0.41-0.06-0.64
		C18.04,11.88,18.23,11.71,18.45,11.64L18.45,11.64z M18.45,11.64"/>
	<path class="st96" d="M18.92,11c0.19,0.12,0.31,0.33,0.33,0.57c0.01,0.23-0.08,0.43-0.23,0.57c0.14-0.15,0.36-0.25,0.62-0.26
		c0.27-0.01,0.52,0.08,0.68,0.23c-0.14,0.16-0.38,0.28-0.65,0.29c-0.27,0.01-0.52-0.08-0.68-0.23h0c-0.19-0.12-0.31-0.33-0.33-0.57
		C18.65,11.36,18.75,11.14,18.92,11L18.92,11z M18.92,11"/>
	<path class="st96" d="M19.13,10.28c0.23,0.05,0.43,0.2,0.55,0.42c0.11,0.21,0.11,0.42,0.03,0.6c0.07-0.18,0.23-0.35,0.46-0.45
		c0.25-0.1,0.52-0.1,0.73-0.01c-0.06,0.2-0.23,0.38-0.48,0.49c-0.25,0.1-0.52,0.1-0.73,0.01c0,0,0,0,0,0
		c-0.22-0.05-0.43-0.2-0.55-0.42C19.02,10.7,19.03,10.47,19.13,10.28L19.13,10.28z M19.13,10.28"/>
	<path class="st96" d="M19.01,9.57c0.23-0.02,0.49,0.06,0.68,0.23c0.18,0.16,0.27,0.36,0.26,0.56c-0.01-0.19,0.08-0.4,0.25-0.56
		c0.19-0.17,0.45-0.25,0.68-0.24c0.02,0.2-0.06,0.43-0.26,0.6c-0.19,0.17-0.45,0.25-0.68,0.24v0c-0.23,0.02-0.48-0.06-0.68-0.23
		C19.08,10,18.99,9.77,19.01,9.57L19.01,9.57z M19.01,9.57"/>
	<path class="st96" d="M18.85,8.89c0.22-0.05,0.49-0.02,0.71,0.12c0.21,0.13,0.33,0.32,0.37,0.51c-0.04-0.19,0-0.41,0.15-0.59
		c0.16-0.2,0.39-0.31,0.62-0.33c0.06,0.2,0.02,0.43-0.14,0.63c-0.16,0.2-0.39,0.31-0.62,0.33v0c-0.22,0.05-0.49,0.02-0.71-0.12
		C19,9.3,18.86,9.09,18.85,8.89L18.85,8.89z M18.85,8.89"/>
	<path class="st7" d="M18.95,12.64c0,0.08-0.08,0.15-0.17,0.15c-0.09,0-0.17-0.07-0.17-0.15c0-0.08,0.08-0.15,0.17-0.15
		C18.88,12.49,18.95,12.55,18.95,12.64L18.95,12.64z M18.95,12.64"/>
	<path class="st7" d="M18.17,12.72c0,0.08-0.08,0.15-0.17,0.15c-0.09,0-0.17-0.07-0.17-0.15c0-0.08,0.08-0.15,0.17-0.15
		C18.09,12.57,18.17,12.64,18.17,12.72L18.17,12.72z M18.17,12.72"/>
	<path class="st7" d="M19.4,11.5c0,0.08-0.08,0.15-0.17,0.15c-0.09,0-0.17-0.07-0.17-0.15c0-0.08,0.08-0.15,0.17-0.15
		C19.32,11.35,19.4,11.41,19.4,11.5L19.4,11.5z M19.4,11.5"/>
	<path class="st7" d="M20.49,10.36c0,0.08-0.08,0.15-0.17,0.15c-0.09,0-0.17-0.07-0.17-0.15c0-0.08,0.08-0.15,0.17-0.15
		C20.41,10.21,20.49,10.28,20.49,10.36L20.49,10.36z M20.49,10.36"/>
	<path class="st7" d="M19.73,9.6c0,0.08-0.08,0.15-0.17,0.15c-0.09,0-0.17-0.07-0.17-0.15c0-0.08,0.08-0.15,0.17-0.15
		C19.65,9.45,19.73,9.51,19.73,9.6L19.73,9.6z M19.73,9.6"/>
	<path class="st7" d="M20.02,8.81c0,0.08-0.08,0.15-0.17,0.15c-0.09,0-0.17-0.07-0.17-0.15c0-0.08,0.08-0.15,0.17-0.15
		C19.94,8.66,20.02,8.73,20.02,8.81L20.02,8.81z M20.02,8.81"/>
	<path class="st97" d="M17,8.21h-1.96c-0.61,0-1.1,0.44-1.1,0.97v1.52c0,0.54,0.49,0.97,1.1,0.97H17c0.61,0,1.1-0.44,1.1-0.97V9.18
		C18.1,8.64,17.61,8.21,17,8.21L17,8.21z M17,8.21"/>
	<path class="st3" d="M16.34,9.53v0.19h-0.22V9.53h-0.17v0.19h-0.22V9.53H15.6v0.39l0.11,0.12v1.42h0.65v-1.42l0.11-0.12V9.53H16.34
		z M16.34,9.53"/>
	<path class="st3" d="M16.07,8.92c0.11-0.05,0.14,0.15,0.14,0.15c0.23-0.1,0.17-0.26,0.11-0.34c-0.07-0.1-0.36-0.14-0.49,0.07
		c-0.12,0.22,0.21,0.65,0.21,0.65C16.06,9.32,15.93,8.98,16.07,8.92L16.07,8.92z M16.07,8.92"/>
	<path class="st3" d="M17.47,9.89v0.19h-0.22V9.89h-0.17v0.19h-0.22V9.89h-0.14v0.39l0.11,0.12v1.42h0.65V10.4l0.11-0.12V9.89H17.47
		z M17.47,9.89"/>
	<path class="st3" d="M17.19,9.28c0.11-0.05,0.14,0.15,0.14,0.15c0.23-0.1,0.17-0.26,0.11-0.34c-0.07-0.1-0.36-0.14-0.49,0.07
		c-0.12,0.22,0.21,0.65,0.21,0.65C17.18,9.68,17.05,9.34,17.19,9.28L17.19,9.28z M17.19,9.28"/>
	<path class="st3" d="M15.22,9.89v0.19H15V9.89h-0.17v0.19h-0.22V9.89h-0.14v0.39l0.11,0.12v1.42h0.65V10.4l0.11-0.12V9.89H15.22z
		 M15.22,9.89"/>
	<path class="st3" d="M14.95,9.28c0.11-0.05,0.14,0.15,0.14,0.15c0.23-0.1,0.17-0.26,0.11-0.34c-0.07-0.1-0.36-0.14-0.49,0.07
		c-0.12,0.22,0.21,0.65,0.21,0.65C14.94,9.68,14.81,9.34,14.95,9.28L14.95,9.28z M14.95,9.28"/>
	<path class="st98" d="M17.83,11.56c-0.15-0.06-0.31-0.1-0.48-0.1c-0.19,0-0.36,0.04-0.51,0.12c-0.2-0.19-0.48-0.31-0.8-0.31
		c-0.32,0-0.6,0.12-0.8,0.31c-0.15-0.07-0.33-0.12-0.51-0.12c-0.17,0-0.34,0.04-0.48,0.1c0.31,0.51,0.91,1.32,1.79,1.63
		C16.92,12.89,17.52,12.07,17.83,11.56L17.83,11.56z M17.83,11.56"/>
	<path class="st7" d="M16.03,5.1L16.03,5.1C16.04,5.1,16.04,5.1,16.03,5.1L16.03,5.1z M16.03,5.1"/>
	<path class="st7" d="M16.04,5.1l0.01,0C16.04,5.1,16.04,5.1,16.04,5.1L16.04,5.1z M16.04,5.1"/>
	<path class="st7" d="M18.13,5.92c-0.06-0.31-0.52-0.37-1.04-0.4c-0.53-0.03-0.75-0.3-0.75-0.3h-0.6c0,0-0.23,0.27-0.75,0.3
		c-0.53,0.03-0.98,0.08-1.04,0.4c-0.06,0.31,0.39,0.81,0.39,0.81l0.4-0.28c0,0-0.48-0.41-0.25-0.56c0.24-0.15,0.92-0.05,1.23-0.4
		c-0.01,0.07-0.01,0.17,0.04,0.28c0.1,0.22,0.06,0.49,0.06,0.49h0.44c0,0-0.04-0.27,0.06-0.49c0.05-0.11,0.06-0.21,0.04-0.28
		c0.31,0.36,0.99,0.25,1.23,0.4c0.24,0.15-0.25,0.56-0.25,0.56l0.4,0.28C17.74,6.73,18.19,6.24,18.13,5.92L18.13,5.92z M18.13,5.92"
		/>
	<path class="st7" d="M16.26,4.15h-0.11V4.04c0-0.05-0.05-0.1-0.11-0.1c-0.06,0-0.11,0.04-0.11,0.1v0.11h-0.12
		c-0.06,0-0.11,0.04-0.11,0.1c0,0.05,0.05,0.1,0.11,0.1h0.12v0.28c0,0.05,0.05,0.1,0.11,0.1c0.06,0,0.11-0.04,0.11-0.1V4.34h0.11
		c0.06,0,0.11-0.04,0.11-0.1C16.37,4.19,16.32,4.15,16.26,4.15L16.26,4.15z M16.26,4.15"/>
	<path class="st99" d="M16.26,4.71c0,0.11-0.1,0.19-0.22,0.19s-0.22-0.09-0.22-0.19c0-0.11,0.1-0.19,0.22-0.19
		S16.26,4.61,16.26,4.71L16.26,4.71z M16.26,4.71"/>
	<path class="st100" d="M14.48,8.59c0.09,0.04,0.19,0.07,0.3,0.07c0.36,0,0.54-0.18,0.54-0.5c0-0.32-0.22-0.56-0.58-0.56
		c0,0-0.04,0-0.11,0.01c-0.01,0-0.03,0-0.04,0.01c-0.35,0.06-1.21,0.34-1.38,1.72c-0.24,1.93,1.53,3.66,2.84,4.05V13.2
		C16.04,13.2,12.95,11.11,14.48,8.59L14.48,8.59z M14.48,8.59"/>
	<path class="st100" d="M14.73,7.8l1.31,0.39l-1.31,0.39V7.8z M14.73,7.8"/>
	<path class="st7" d="M17.35,8.57l-1.31-0.39l1.31-0.39V8.57z M17.35,8.57"/>
	<path class="st7" d="M13.42,9.36c0.16-1.24,0.89-1.5,1.21-1.55c0.01,0,0.01,0,0.03,0C14.7,7.8,14.72,7.8,14.73,7.8
		c0.24,0,0.4,0.16,0.4,0.35c0,0.21-0.14,0.29-0.28,0.3c0,0,0.11-0.21-0.12-0.27c-0.16-0.04-0.35,0.07-0.34,0.27
		c0.01,0.14,0.16,0.28,0.34,0.28c0.36,0,0.65-0.23,0.65-0.55c0-0.32-0.29-0.58-0.65-0.58c0,0-0.04,0-0.11,0.01
		c-0.01,0-0.03,0-0.04,0.01c-0.35,0.06-1.21,0.34-1.38,1.72c-0.24,1.93,1.53,3.66,2.84,4.05V13.2c0,0-0.46-0.2-0.78-0.4
		C14.28,12.18,13.24,10.77,13.42,9.36L13.42,9.36z M13.42,9.36"/>
	<path class="st100" d="M17.6,8.59c-0.09,0.04-0.19,0.07-0.3,0.07c-0.36,0-0.54-0.18-0.54-0.5c0-0.32,0.22-0.56,0.58-0.56
		c0,0,0.04,0,0.11,0.01c0.01,0,0.03,0,0.04,0.01c0.35,0.06,1.21,0.34,1.38,1.72c0.24,1.93-1.53,3.66-2.84,4.05V13.2
		C16.04,13.2,19.13,11.11,17.6,8.59L17.6,8.59z M17.6,8.59"/>
	<path class="st100" d="M17.35,7.8l-1.31,0.39l1.31,0.39V7.8z M17.35,7.8"/>
	<path class="st7" d="M18.66,9.36c-0.16-1.24-0.89-1.5-1.21-1.55c-0.01,0-0.01,0-0.03,0C17.38,7.8,17.35,7.8,17.35,7.8
		c-0.24,0-0.4,0.16-0.4,0.35c0,0.21,0.14,0.29,0.28,0.3c0,0-0.11-0.21,0.12-0.27c0.16-0.04,0.35,0.07,0.34,0.27
		c-0.01,0.14-0.16,0.28-0.34,0.28c-0.36,0-0.65-0.23-0.65-0.55c0-0.32,0.29-0.58,0.65-0.58c0,0,0.04,0,0.11,0.01
		c0.01,0,0.03,0,0.04,0.01c0.35,0.06,1.21,0.34,1.38,1.72c0.24,1.93-1.53,3.66-2.84,4.05V13.2c0,0,0.46-0.2,0.78-0.4
		C17.8,12.18,18.84,10.77,18.66,9.36L18.66,9.36z M18.66,9.36"/>
	<path class="st7" d="M16.26,8.18c0,0.11-0.1,0.19-0.22,0.19s-0.22-0.09-0.22-0.19c0-0.11,0.1-0.19,0.22-0.19S16.26,8.08,16.26,8.18
		L16.26,8.18z M16.26,8.18"/>
	<path class="st100" d="M17.6,6.63c0.06-0.13-0.02-0.31-0.02-0.31c-0.2-0.01-0.34,0.12-0.34,0.12c0.02-0.16-0.06-0.3-0.06-0.3
		c-0.26,0.03-0.34,0.16-0.34,0.16c-0.01-0.25-0.18-0.35-0.18-0.35c-0.22,0.06-0.29,0.28-0.29,0.28c-0.03-0.25-0.31-0.36-0.31-0.36
		s-0.28,0.11-0.31,0.36c0,0-0.07-0.22-0.29-0.28c0,0-0.17,0.1-0.18,0.35c0,0-0.09-0.14-0.34-0.16c0,0-0.08,0.14-0.06,0.3
		c0,0-0.14-0.13-0.34-0.12c0,0-0.08,0.18-0.02,0.31c0,0-0.23-0.06-0.42,0.03c0,0,0.34,0.12,0.46,0.26h3.03
		c0.11-0.14,0.46-0.26,0.46-0.26C17.83,6.57,17.6,6.63,17.6,6.63L17.6,6.63z M17.6,6.63"/>
	<path class="st7" d="M17.56,6.93c0,0.09-0.23,0.36-0.23,0.36s-0.74,0.09-1.29,0.09c-0.55,0-1.29-0.09-1.29-0.09
		s-0.22-0.27-0.22-0.35c0-0.25,0.68-0.45,1.52-0.45C16.88,6.48,17.56,6.68,17.56,6.93L17.56,6.93z M17.56,6.93"/>
	<path class="st100" d="M17.35,7.22c0,0.21-0.59,0.39-1.31,0.39c-0.72,0-1.31-0.17-1.31-0.39c0-0.21,0.59-0.39,1.31-0.39
		C16.76,6.83,17.35,7.01,17.35,7.22L17.35,7.22z M17.35,7.22"/>
	<path class="st100" d="M16.36,5.08c0-0.13-0.11-0.29-0.32-0.17c-0.21-0.11-0.32,0.05-0.32,0.17c0,0.13-0.16,0.14-0.18,0.13
		c0,0,0.14,0.16,0.29,0.05c0,0,0.08,0.11,0.21,0.11c0.13,0,0.21-0.11,0.21-0.11c0.16,0.1,0.29-0.05,0.29-0.05
		C16.52,5.22,16.36,5.21,16.36,5.08L16.36,5.08z M16.36,5.08"/>
	<path class="st57" d="M15.6,14.43c-0.01,0-0.02,0-0.04-0.01c-0.04-0.02-0.06-0.06-0.04-0.1l0.44-0.77
		c0.02-0.04,0.07-0.05,0.11-0.03c0.04,0.02,0.06,0.06,0.04,0.1l-0.44,0.77C15.66,14.41,15.63,14.43,15.6,14.43L15.6,14.43z
		 M15.6,14.43"/>
	<path class="st57" d="M16.48,14.43c-0.03,0-0.06-0.01-0.07-0.04l-0.44-0.77c-0.02-0.04,0-0.08,0.04-0.1c0.04-0.02,0.09,0,0.11,0.03
		l0.44,0.77c0.02,0.04,0,0.08-0.04,0.1C16.5,14.42,16.49,14.43,16.48,14.43L16.48,14.43z M16.48,14.43"/>
	<path class="st3" d="M18,13.75c-1.29,0.26-2.64,0.26-3.93,0V13c1.29,0.26,2.63,0.26,3.93,0V13.75z M18,13.75"/>
	<path class="st3" d="M15.16,13.47c-0.84,0.14-1.69,0.18-2.54,0.11c0.01,0.1,0.69,0.39,0.69,0.39s-0.59,0.25-0.58,0.35
		c0.82,0.07,1.63,0.04,2.44-0.09V13.47z M15.16,13.47"/>
	<path class="st3" d="M16.92,13.47c0.84,0.14,1.69,0.18,2.54,0.11c-0.01,0.1-0.69,0.39-0.69,0.39s0.59,0.25,0.58,0.35
		c-0.82,0.07-1.63,0.04-2.44-0.09V13.47z M16.92,13.47"/>
</g>
</svg>
