<?xml version="1.0" encoding="utf-8"?>
<!-- Generator: Adobe Illustrator 25.0.1, SVG Export Plug-In . SVG Version: 6.00 Build 0)  -->
<svg version="1.1" id="Layer_1" xmlns="http://www.w3.org/2000/svg" xmlns:xlink="http://www.w3.org/1999/xlink" x="0px" y="0px"
	 viewBox="0 0 32 20" style="enable-background:new 0 0 32 20;" xml:space="preserve">
<style type="text/css">
	.st0{fill:#73AF00;}
	.st1{fill:#FFE15A;}
	.st2{fill:#FF4B55;}
</style>
<g>
	<path class="st0" d="M10.67,20H0.55C0.25,20,0,19.76,0,19.47V0.53C0,0.24,0.25,0,0.55,0h10.11V20z"/>
	<rect x="10.67" y="0" class="st1" width="10.67" height="20"/>
	<path class="st2" d="M31.45,20H21.33V0h10.11C31.75,0,32,0.24,32,0.53v18.95C32,19.76,31.75,20,31.45,20z"/>
	<path class="st0" d="M16.13,7.01l0.73,2.09l2.31,0.02c0.13,0,0.18,0.16,0.08,0.23l-1.86,1.31l0.7,2.1c0.04,0.12-0.1,0.21-0.21,0.14
		L16,11.62l-1.88,1.28c-0.11,0.07-0.25-0.03-0.21-0.14l0.7-2.1l-1.86-1.31c-0.1-0.07-0.05-0.23,0.08-0.23l2.31-0.02l0.73-2.09
		C15.91,6.89,16.09,6.89,16.13,7.01z"/>
</g>
</svg>
