<?xml version="1.0" encoding="utf-8"?>
<!-- Generator: Adobe Illustrator 25.0.0, SVG Export Plug-In . SVG Version: 6.00 Build 0)  -->
<svg version="1.1" id="Capa_1" xmlns="http://www.w3.org/2000/svg" xmlns:xlink="http://www.w3.org/1999/xlink" x="0px" y="0px"
	 viewBox="0 0 32 18.62" style="enable-background:new 0 0 32 18.62;" xml:space="preserve">
<style type="text/css">
	.st0{fill:#FF4B55;}
	.st1{fill:#464655;}
	.st2{fill:#73AF00;}
	.st3{fill:#F5F5F5;}
	.st4{fill:#41479B;}
	.st5{fill:#FFF5DC;}
	.st6{fill:#D27D69;}
	.st7{fill:#FFE15A;}
	.st8{fill:#B95546;}
	.st9{fill:#DCBE82;}
	.st10{fill:#D2AA73;}
	.st11{fill:#4173CD;}
	.st12{fill:#82AFFF;}
	.st13{fill:#F09146;}
	.st14{fill:#FFB400;}
	.st15{fill:#965032;}
	.st16{fill:#BE7855;}
	.st17{fill:#FFBE3C;}
	.st18{fill:#EAF3F5;}
	.st19{fill:#8C5A28;}
	.st20{fill:#F0C850;}
	.st21{fill:#FF6E55;}
	.st22{fill:#FFBE5A;}
	.st23{fill:#3CC8FF;}
	.st24{fill:#825546;}
	.st25{fill:#FFD255;}
	.st26{fill:#FFD25A;}
	.st27{fill:#509664;}
	.st28{fill:#F0AA00;}
	.st29{fill:#A561CD;}
	.st30{fill:#B34900;}
	.st31{fill:#64B496;}
	.st32{fill:#FF6B71;}
	.st33{fill:#5F64B9;}
	.st34{fill:#F5F0F0;}
	.st35{fill:#5A4646;}
	.st36{fill:#E6E1CD;}
	.st37{fill:#FFD0AF;}
	.st38{fill:#FFAF94;}
	.st39{fill:#8CB400;}
	.st40{fill:#69C3FF;}
	.st41{fill:#009B64;}
	.st42{fill:#5AA0E6;}
	.st43{fill:#FFC88C;}
	.st44{fill:#E1E1E1;}
	.st45{fill:#966446;}
	.st46{fill:#BE915A;}
	.st47{fill:#B9B9B9;}
	.st48{fill:#F0C727;}
	.st49{fill:#50AF69;}
	.st50{fill:#FFE6E6;}
	.st51{fill:#FFB750;}
	.st52{fill:#FFC455;}
	.st53{fill:#FFCD55;}
	.st54{fill:#9BC800;}
	.st55{fill:#FFE14E;}
	.st56{fill:#FFB14E;}
	.st57{fill:#B46446;}
	.st58{fill:#5FA000;}
	.st59{fill:#F2DD30;}
	.st60{fill:#FFC855;}
	.st61{fill:#A0A0A0;}
	.st62{fill:#69B469;}
	.st63{fill:#F4E08F;}
	.st64{fill:#ECD077;}
	.st65{fill:#FCF0A8;}
	.st66{fill:#FAB446;}
	.st67{fill:#C8414B;}
	.st68{fill:#FF9B46;}
	.st69{fill:#FF9B55;}
	.st70{fill:#82C3D2;}
	.st71{fill:#5AA587;}
	.st72{fill:#CDCDCD;}
	.st73{fill:#B4A08C;}
	.st74{fill:#FFD250;}
	.st75{fill:#00C3A0;}
	.st76{fill:#00AADC;}
	.st77{fill:#732D37;}
	.st78{fill:#AAD264;}
	.st79{fill:#874150;}
	.st80{fill:#783C46;}
	.st81{fill:#FFB478;}
	.st82{fill:#9B4B5A;}
	.st83{fill:#FFCD5A;}
	.st84{fill:#FFAA5A;}
	.st85{fill:#FF875A;}
	.st86{fill:#E6B432;}
	.st87{fill:#C86464;}
	.st88{fill:#FFF5E1;}
	.st89{fill:#963C3C;}
	.st90{fill:#5A8250;}
	.st91{fill:#AFEBFF;}
	.st92{fill:#557DE6;}
	.st93{fill:#D23741;}
	.st94{fill:#64C86E;}
	.st95{fill:#873250;}
	.st96{fill:#41AA5A;}
	.st97{fill:#8CD7FF;}
	.st98{fill:#6EC86E;}
	.st99{fill:#FFF0E1;}
	.st100{fill:#FFC75A;}
	.st101{fill:#FFD350;}
	.st102{fill:#FFBE50;}
	.st103{fill:#A54B50;}
	.st104{fill:#C87878;}
	.st105{fill:#FF1722;}
	.st106{fill:#FFB441;}
	.st107{fill:#5064AA;}
	.st108{fill:#FFA0D2;}
	.st109{fill:#FF7350;}
	.st110{fill:#245DBD;}
	.st111{fill:#D35A10;}
	.st112{fill:#FFA033;}
	.st113{fill:#FF9480;}
	.st114{fill:#FFA0E4;}
	.st115{fill:#696E7D;}
	.st116{fill:#FFFCFF;}
	.st117{fill:#EBEBEB;}
	.st118{fill:#FF4B57;}
	.st119{fill:#D2D2D2;}
	.st120{fill:#F0C814;}
	.st121{fill:#F7B518;}
	.st122{fill:#2C2F38;}
	.st123{fill:#4C8056;}
	.st124{fill:#F0C419;}
	.st125{fill:#C03A2B;}
	.st126{fill:#EA3F3F;}
	.st127{fill:#E4E3E1;}
	.st128{fill:#2472B2;}
</style>
<g>
	<path class="st4" d="M31.97,6.21H0V0.53c0-0.27,0.25-0.49,0.55-0.49h30.87c0.3,0,0.55,0.22,0.55,0.49V6.21z M31.97,6.21"/>
	<path class="st4" d="M31.42,18.55H0.55c-0.3,0-0.55-0.22-0.55-0.49v-5.68h31.97v5.68C31.97,18.33,31.72,18.55,31.42,18.55
		L31.42,18.55z M31.42,18.55"/>
	<rect y="6.21" class="st3" width="31.97" height="6.17"/>
	<path class="st49" d="M15.97,11.37c-1.33,0-2.41-0.96-2.41-2.13c0-0.5,0.2-0.99,0.57-1.37l0.11,0.08
		c-0.34,0.36-0.53,0.82-0.53,1.29c0,1.11,1.02,2.01,2.27,2.01L15.97,11.37z M15.97,11.37"/>
	<path class="st49" d="M15.09,10.74c-0.03,0.05-0.04,0.11-0.05,0.17c-0.03-0.02-0.06-0.03-0.09-0.05c0,0-0.05,0.15-0.01,0.25
		c0,0-0.13,0.01-0.24,0.12c0,0,0.04,0.02,0.11,0.05c-0.11,0.08-0.15,0.16-0.15,0.16c0.68,0.3,1-0.12,1.01-0.14
		C15.51,10.89,15.09,10.74,15.09,10.74L15.09,10.74z M15.09,10.74"/>
	<path class="st49" d="M15.67,11.31C15.67,11.31,15.67,11.31,15.67,11.31L15.67,11.31C15.67,11.3,15.67,11.31,15.67,11.31
		L15.67,11.31z M15.67,11.31"/>
	<path class="st49" d="M14.46,10.34c-0.04,0.03-0.08,0.08-0.11,0.13c-0.02-0.02-0.03-0.05-0.05-0.07c0,0-0.1,0.11-0.11,0.21
		c0,0-0.11-0.03-0.25,0.02c0,0,0.02,0.03,0.07,0.08c-0.13,0.03-0.19,0.08-0.19,0.08c0.45,0.47,0.89,0.22,0.91,0.21
		C14.75,10.6,14.46,10.34,14.46,10.34L14.46,10.34z M14.46,10.34"/>
	<path class="st49" d="M14.72,11.01C14.72,11.01,14.72,11.01,14.72,11.01L14.72,11.01C14.72,11.01,14.72,11.01,14.72,11.01
		L14.72,11.01z M14.72,11.01"/>
	<path class="st49" d="M14.08,9.82c-0.05,0.01-0.1,0.04-0.15,0.07c0-0.02-0.01-0.05-0.02-0.07c0,0-0.13,0.06-0.18,0.14
		c0,0-0.08-0.06-0.21-0.07c0,0,0,0.04,0.03,0.09c-0.12-0.02-0.19,0.01-0.19,0.01c0.17,0.53,0.64,0.48,0.66,0.47
		C14.21,10.13,14.08,9.82,14.08,9.82L14.08,9.82z M14.08,9.82"/>
	<path class="st49" d="M14.01,10.45C14.01,10.45,14.01,10.45,14.01,10.45L14.01,10.45C14.01,10.45,14.01,10.45,14.01,10.45
		L14.01,10.45z M14.01,10.45"/>
	<path class="st49" d="M13.92,9.23c-0.05,0-0.1,0.02-0.15,0.04c0-0.02,0.01-0.04,0-0.07c0,0-0.13,0.04-0.2,0.1
		c0,0-0.06-0.06-0.18-0.08c0,0,0,0.03,0,0.08c-0.1-0.03-0.17-0.02-0.17-0.02c0.01,0.48,0.45,0.48,0.47,0.48
		C13.96,9.51,13.92,9.23,13.92,9.23L13.92,9.23z M13.92,9.23"/>
	<path class="st49" d="M13.7,9.77C13.7,9.77,13.7,9.77,13.7,9.77L13.7,9.77C13.7,9.77,13.7,9.77,13.7,9.77L13.7,9.77z M13.7,9.77"/>
	<path class="st49" d="M13.97,8.74c-0.04-0.01-0.09-0.01-0.14,0c0.01-0.02,0.02-0.04,0.02-0.05c0,0-0.12,0-0.2,0.04
		c0,0-0.03-0.06-0.12-0.11c0,0-0.01,0.03-0.02,0.07c-0.08-0.05-0.14-0.05-0.14-0.05c-0.13,0.41,0.24,0.51,0.25,0.51
		C13.92,8.98,13.97,8.74,13.97,8.74L13.97,8.74z M13.97,8.74"/>
	<path class="st49" d="M13.63,9.14C13.63,9.14,13.63,9.14,13.63,9.14L13.63,9.14C13.63,9.14,13.63,9.14,13.63,9.14L13.63,9.14z
		 M13.63,9.14"/>
	<path class="st49" d="M13.68,8.14c0,0-0.13,0.29,0.07,0.46c0,0,0.25-0.07,0.38-0.3l-0.11-0.02l-0.05-0.14l-0.18,0.07L13.68,8.14z
		 M13.68,8.14"/>
	<path class="st49" d="M14.04,7.68c0,0-0.2,0.26-0.05,0.46c0,0,0.26-0.01,0.44-0.21l-0.1-0.04l-0.02-0.15l-0.19,0.03L14.04,7.68z
		 M14.04,7.68"/>
	<path class="st49" d="M16,11.37v-0.12c1.25,0,2.27-0.9,2.27-2.01c0-0.47-0.19-0.93-0.53-1.29l0.11-0.08
		c0.37,0.38,0.57,0.87,0.57,1.37C18.41,10.41,17.33,11.37,16,11.37L16,11.37z M16,11.37"/>
	<path class="st49" d="M16.88,10.74c0.03,0.05,0.05,0.11,0.05,0.17c0.03-0.02,0.06-0.03,0.09-0.05c0,0,0.05,0.15,0.01,0.25
		c0,0,0.13,0.01,0.24,0.12c0,0-0.04,0.02-0.11,0.05c0.11,0.08,0.15,0.16,0.15,0.16c-0.68,0.3-1-0.12-1.01-0.14
		C16.46,10.89,16.88,10.74,16.88,10.74L16.88,10.74z M16.88,10.74"/>
	<path class="st49" d="M16.3,11.31C16.3,11.31,16.3,11.31,16.3,11.31L16.3,11.31C16.3,11.3,16.3,11.31,16.3,11.31L16.3,11.31z
		 M16.3,11.31"/>
	<path class="st49" d="M17.5,10.34c0.04,0.03,0.08,0.08,0.11,0.13c0.02-0.02,0.03-0.05,0.05-0.07c0,0,0.1,0.11,0.11,0.21
		c0,0,0.11-0.03,0.25,0.02c0,0-0.02,0.03-0.07,0.08c0.13,0.03,0.19,0.08,0.19,0.08c-0.45,0.47-0.89,0.22-0.91,0.21
		C17.21,10.6,17.5,10.34,17.5,10.34L17.5,10.34z M17.5,10.34"/>
	<path class="st49" d="M17.25,11.01C17.25,11.01,17.25,11.01,17.25,11.01L17.25,11.01C17.25,11.01,17.25,11.01,17.25,11.01
		L17.25,11.01z M17.25,11.01"/>
	<path class="st49" d="M17.89,9.82c0.05,0.01,0.1,0.04,0.15,0.07c0-0.02,0.01-0.05,0.02-0.07c0,0,0.13,0.06,0.18,0.14
		c0,0,0.08-0.06,0.21-0.07c0,0,0,0.04-0.02,0.09c0.12-0.02,0.19,0.01,0.19,0.01c-0.17,0.53-0.64,0.48-0.66,0.47
		C17.76,10.13,17.89,9.82,17.89,9.82L17.89,9.82z M17.89,9.82"/>
	<path class="st49" d="M17.96,10.45C17.96,10.45,17.96,10.45,17.96,10.45L17.96,10.45C17.96,10.45,17.96,10.45,17.96,10.45
		L17.96,10.45z M17.96,10.45"/>
	<path class="st49" d="M18.04,9.23c0.05,0,0.1,0.02,0.15,0.04c0-0.02-0.01-0.04,0-0.07c0,0,0.13,0.04,0.2,0.1
		c0,0,0.06-0.06,0.18-0.08c0,0,0,0.03,0,0.08c0.1-0.03,0.17-0.02,0.17-0.02c-0.01,0.48-0.45,0.48-0.47,0.48
		C18.01,9.51,18.04,9.23,18.04,9.23L18.04,9.23z M18.04,9.23"/>
	<path class="st49" d="M18.27,9.77C18.27,9.77,18.27,9.77,18.27,9.77L18.27,9.77C18.27,9.77,18.27,9.77,18.27,9.77L18.27,9.77z
		 M18.27,9.77"/>
	<path class="st49" d="M17.99,8.74c0.04-0.01,0.09-0.01,0.14,0c-0.01-0.02-0.02-0.04-0.02-0.05c0,0,0.12,0,0.2,0.04
		c0,0,0.03-0.06,0.12-0.11c0,0,0.01,0.03,0.02,0.07c0.08-0.05,0.14-0.05,0.14-0.05c0.13,0.41-0.24,0.51-0.25,0.51
		C18.05,8.98,17.99,8.74,17.99,8.74L17.99,8.74z M17.99,8.74"/>
	<path class="st49" d="M18.34,9.14C18.34,9.14,18.34,9.14,18.34,9.14L18.34,9.14C18.34,9.14,18.34,9.14,18.34,9.14L18.34,9.14z
		 M18.34,9.14"/>
	<path class="st49" d="M18.28,8.14c0,0,0.12,0.29-0.07,0.46c0,0-0.25-0.07-0.38-0.3l0.11-0.02L18,8.14l0.18,0.07L18.28,8.14z
		 M18.28,8.14"/>
	<path class="st49" d="M17.93,7.68c0,0,0.2,0.26,0.05,0.46c0,0-0.26-0.01-0.44-0.21l0.1-0.04l0.02-0.15l0.19,0.03L17.93,7.68z
		 M17.93,7.68"/>
	<path class="st4" d="M15.98,10.09l-0.21,0.28c-0.04,0.05-0.03,0.11,0.02,0.15l0.2,0.17l0.2-0.17c0.05-0.04,0.05-0.11,0.02-0.15
		L15.98,10.09z M15.98,10.09"/>
	<path class="st3" d="M16.08,10.37l-0.09-0.28l-0.09,0.28c-0.02,0.05-0.01,0.11,0.01,0.15l0.08,0.17l0.08-0.17
		C16.09,10.48,16.09,10.42,16.08,10.37L16.08,10.37z M16.08,10.37"/>
	<path class="st4" d="M15.98,7.56V6.8c0,0-0.33,0.42-0.28,1.02"/>
	<path class="st4" d="M14.52,7.57c-0.47,0.91,0.01,1.65,0.11,1.8c0,0,0.68-0.96,0.68-0.96L14.52,7.57"/>
	<path class="st3" d="M15.02,8.82c-0.07-0.21-0.09-0.45,0-0.72l-0.29-0.31c-0.24,0.57-0.14,1,0.1,1.3C14.89,9,14.95,8.91,15.02,8.82
		L15.02,8.82z M15.02,8.82"/>
	<path class="st7" d="M15.3,8.45c-0.02,0-0.04-0.01-0.05-0.02l-0.86-0.98c-0.02-0.03-0.02-0.06,0.01-0.09
		c0.03-0.02,0.07-0.02,0.1,0.01l0.86,0.98c0.02,0.03,0.02,0.06-0.01,0.09C15.33,8.45,15.31,8.45,15.3,8.45L15.3,8.45z M15.3,8.45"/>
	<path class="st4" d="M13.92,8.51c-0.28,2.44,1.93,1.83,2.07,1.58l-1.38-0.61L14.88,9L13.92,8.51"/>
	<path class="st3" d="M14.58,8.79l-0.38-0.2c-0.09,1.45,0.79,1.69,1.43,1.62C15.11,10.14,14.59,9.8,14.58,8.79L14.58,8.79z
		 M14.58,8.79"/>
	<path class="st7" d="M14.88,9.06c-0.01,0-0.03,0-0.04-0.01l-1.1-0.61c-0.03-0.02-0.04-0.06-0.02-0.08
		c0.02-0.03,0.06-0.04,0.09-0.02l1.1,0.61c0.03,0.02,0.04,0.06,0.02,0.08C14.93,9.05,14.9,9.06,14.88,9.06L14.88,9.06z M14.88,9.06"
		/>
	<path class="st4" d="M17.45,7.56c0.47,0.91-0.01,1.65-0.11,1.8c0,0-0.68-0.96-0.68-0.96L17.45,7.56"/>
	<path class="st3" d="M16.95,8.82c0.07-0.21,0.09-0.45,0-0.72l0.29-0.31c0.24,0.57,0.14,1-0.1,1.3C17.08,9,17.02,8.91,16.95,8.82
		L16.95,8.82z M16.95,8.82"/>
	<path class="st7" d="M16.67,8.45c-0.01,0-0.03,0-0.04-0.01c-0.03-0.02-0.04-0.06-0.01-0.09l0.86-0.98c0.02-0.03,0.07-0.03,0.1-0.01
		c0.03,0.02,0.04,0.06,0.01,0.09l-0.86,0.98C16.71,8.44,16.69,8.45,16.67,8.45L16.67,8.45z M16.67,8.45"/>
	<path class="st4" d="M18.05,8.51c0.28,2.44-1.93,1.83-2.07,1.58l1.38-0.61l-0.28-0.49L18.05,8.51"/>
	<path class="st3" d="M17.39,8.79l0.38-0.2c0.09,1.45-0.79,1.69-1.43,1.62C16.86,10.14,17.38,9.8,17.39,8.79L17.39,8.79z
		 M17.39,8.79"/>
	<path class="st7" d="M17.09,9.05c-0.02,0-0.05-0.01-0.06-0.03C17.01,9,17.02,8.96,17.05,8.94l1.1-0.61
		c0.03-0.02,0.08-0.01,0.1,0.02c0.02,0.03,0.01,0.07-0.02,0.08l-1.1,0.61C17.11,9.05,17.1,9.05,17.09,9.05L17.09,9.05z M17.09,9.05"
		/>
	<path class="st50" d="M16.54,8.63c0,0.27-0.25,0.49-0.55,0.49c-0.3,0-0.55-0.22-0.55-0.49c0-0.27,0.25-0.49,0.55-0.49
		C16.29,8.14,16.54,8.36,16.54,8.63L16.54,8.63z M16.54,8.63"/>
	<path class="st3" d="M16.26,8.63c0,0.13-0.12,0.24-0.28,0.24c-0.15,0-0.28-0.11-0.28-0.24c0-0.13,0.12-0.24,0.28-0.24
		C16.14,8.38,16.26,8.49,16.26,8.63L16.26,8.63z M16.26,8.63"/>
	<path class="st7" d="M15.98,9.42c-0.04,0-0.07-0.03-0.07-0.06V8.63c0-0.03,0.03-0.06,0.07-0.06c0.04,0,0.07,0.03,0.07,0.06v0.73
		C16.05,9.39,16.02,9.42,15.98,9.42L15.98,9.42z M15.98,9.42"/>
	<path class="st42" d="M17.87,10.08h-3.69l0.43-0.72h2.77L17.87,10.08z M17.87,10.08"/>
	<path class="st51" d="M16.1,9.49h0.96l-0.3-0.26c-0.01-0.01-0.03-0.02-0.05-0.03l-0.1-0.03c-0.04-0.01-0.08-0.01-0.11,0.01
		l-0.33,0.2L16.1,9.49z M16.1,9.49"/>
	<path class="st52" d="M15.77,9.54h1.15l-0.36-0.31c-0.02-0.01-0.04-0.03-0.06-0.03l-0.12-0.04c-0.04-0.01-0.09-0.01-0.13,0.02
		l-0.4,0.23L15.77,9.54z M15.77,9.54"/>
	<path class="st53" d="M15.37,9.59h1.38l-0.43-0.38c-0.02-0.02-0.04-0.03-0.07-0.04L16.1,9.12c-0.05-0.02-0.11-0.01-0.16,0.02
		l-0.48,0.28L15.37,9.59z M15.37,9.59"/>
	<path class="st26" d="M14.98,9.63h1.58L16.07,9.2c-0.02-0.02-0.05-0.04-0.08-0.05L15.81,9.1c-0.06-0.02-0.13-0.01-0.18,0.02
		l-0.55,0.32L14.98,9.63z M14.98,9.63"/>
	<path class="st7" d="M14.33,9.72h2.07l-0.64-0.57c-0.03-0.03-0.07-0.05-0.11-0.06l-0.22-0.07c-0.08-0.02-0.17-0.01-0.24,0.03
		l-0.71,0.42L14.33,9.72z M14.33,9.72"/>
	<path class="st0" d="M16.13,8.74h-0.3l0.07-0.25h0.1c0.03,0,0.06,0.02,0.07,0.05L16.13,8.74z M16.13,8.74"/>
	<path class="st0" d="M16.12,8.78h-0.27c-0.02,0-0.04-0.02-0.04-0.03V8.73c0-0.02,0.02-0.04,0.04-0.04h0.27
		c0.02,0,0.04,0.02,0.04,0.04v0.01C16.16,8.76,16.14,8.78,16.12,8.78L16.12,8.78z M16.12,8.78"/>
	<path class="st0" d="M15.94,8.6l-0.07-0.02c-0.02,0-0.03-0.03-0.02-0.04l0.05-0.06L15.94,8.6z M15.94,8.6"/>
	<path class="st4" d="M15.64,8c0,0.02-0.01,0.04-0.01,0.07c0.11-0.06,0.23-0.09,0.35-0.09c0.13,0,0.25,0.03,0.35,0.09
		c0-0.02-0.01-0.04-0.01-0.07c-0.11-0.05-0.22-0.08-0.34-0.08C15.86,7.93,15.75,7.95,15.64,8L15.64,8z M15.64,8"/>
	<path class="st42" d="M15.64,7.97c0,0.02-0.01,0.05-0.01,0.07c0.11-0.06,0.22-0.09,0.35-0.09c0.13,0,0.24,0.03,0.35,0.09
		c0-0.02-0.01-0.04-0.01-0.07c-0.11-0.05-0.22-0.08-0.34-0.08C15.86,7.9,15.75,7.92,15.64,7.97L15.64,7.97z M15.64,7.97"/>
	<path class="st54" d="M15.65,7.95c0,0.02-0.01,0.04-0.01,0.07c0.1-0.06,0.22-0.09,0.35-0.09c0.12,0,0.24,0.03,0.35,0.09
		c0-0.02-0.01-0.04-0.01-0.07c-0.1-0.05-0.22-0.08-0.34-0.08C15.86,7.87,15.75,7.9,15.65,7.95L15.65,7.95z M15.65,7.95"/>
	<path class="st55" d="M15.65,7.92c0,0.02-0.01,0.04-0.01,0.07c0.1-0.06,0.22-0.09,0.34-0.09s0.24,0.03,0.34,0.09
		c0-0.02-0.01-0.04-0.01-0.07c-0.1-0.05-0.21-0.08-0.33-0.08C15.87,7.84,15.76,7.87,15.65,7.92L15.65,7.92z M15.65,7.92"/>
	<path class="st56" d="M15.66,7.89c0,0.02-0.01,0.04-0.01,0.07c0.1-0.06,0.21-0.09,0.34-0.09c0.12,0,0.23,0.04,0.34,0.09
		c0-0.02-0.01-0.04-0.01-0.07c-0.1-0.05-0.21-0.08-0.33-0.08C15.87,7.81,15.76,7.84,15.66,7.89L15.66,7.89z M15.66,7.89"/>
	<path class="st0" d="M15.66,7.87c0,0.02,0,0.03-0.01,0.05c0.1-0.06,0.21-0.09,0.33-0.09c0.12,0,0.23,0.04,0.33,0.09
		c0-0.02,0-0.03-0.01-0.05c-0.1-0.05-0.21-0.08-0.32-0.08C15.87,7.79,15.76,7.82,15.66,7.87L15.66,7.87z M15.66,7.87"/>
	<path class="st7" d="M17.91,10.15h-3.86c-0.03,0-0.05-0.01-0.06-0.03c-0.01-0.02-0.01-0.04,0-0.06l1.93-2.56
		c0.03-0.03,0.09-0.03,0.11,0l1.93,2.56c0.01,0.02,0.02,0.04,0,0.06C17.96,10.14,17.94,10.15,17.91,10.15L17.91,10.15z M14.18,10.03
		h3.6l-1.8-2.39L14.18,10.03z M14.18,10.03"/>
	<path class="st7" d="M15.98,6.98c-0.04,0-0.07-0.03-0.07-0.06V6.68c0-0.03,0.03-0.06,0.07-0.06c0.04,0,0.07,0.03,0.07,0.06v0.24
		C16.05,6.96,16.02,6.98,15.98,6.98L15.98,6.98z M15.98,6.98"/>
	<path class="st7" d="M16.12,6.98h-0.28c-0.04,0-0.07-0.03-0.07-0.06c0-0.03,0.03-0.06,0.07-0.06h0.28c0.04,0,0.07,0.03,0.07,0.06
		C16.19,6.96,16.16,6.98,16.12,6.98L16.12,6.98z M16.12,6.98"/>
	<path class="st4" d="M15.98,11.37c0,0-0.01,0-0.01,0c-0.07-0.01-0.29-0.06-0.36-0.12c-0.08-0.07-0.08-0.19,0-0.27
		c0.04-0.04,0.09-0.06,0.15-0.06h0c0.06,0,0.11,0.02,0.15,0.06c0.07,0.06,0.12,0.26,0.14,0.32c0.01,0.02,0,0.04-0.02,0.06
		C16.02,11.36,16,11.37,15.98,11.37L15.98,11.37z M15.76,11.04c-0.02,0.01-0.04,0.01-0.06,0.02c-0.03,0.03-0.03,0.07,0,0.1
		c0.02,0.01,0.09,0.04,0.18,0.06c-0.03-0.08-0.05-0.14-0.07-0.16l0.05-0.04l-0.05,0.04C15.8,11.05,15.78,11.04,15.76,11.04
		L15.76,11.04z M15.76,11.04"/>
	<path class="st4" d="M15.98,11.37c-0.02,0-0.04-0.01-0.05-0.02c-0.02-0.01-0.02-0.04-0.02-0.06c0.02-0.06,0.07-0.26,0.14-0.32
		c0.04-0.04,0.09-0.05,0.15-0.06c0.06,0,0.11,0.02,0.15,0.06c0.08,0.07,0.08,0.2,0,0.27c-0.07,0.06-0.29,0.11-0.36,0.12
		C15.99,11.37,15.99,11.37,15.98,11.37L15.98,11.37z M16.1,11.02l0.05,0.04c-0.02,0.01-0.05,0.08-0.07,0.16
		c0.09-0.02,0.16-0.05,0.18-0.06c0.03-0.03,0.03-0.07,0-0.1c-0.01-0.01-0.03-0.02-0.05-0.02c-0.02,0-0.04,0.01-0.05,0.02L16.1,11.02
		z M16.1,11.02L16.1,11.02L16.1,11.02z M16.1,11.02"/>
	<path class="st4" d="M15.71,11.73c-0.04,0-0.07-0.03-0.07-0.06c0-0.28,0.3-0.41,0.31-0.42c0.03-0.02,0.08,0,0.09,0.03
		c0.02,0.03,0,0.07-0.03,0.08c0,0-0.24,0.11-0.24,0.31C15.78,11.71,15.75,11.73,15.71,11.73L15.71,11.73z M15.71,11.73"/>
	<path class="st4" d="M16.26,11.73c-0.04,0-0.07-0.03-0.07-0.06c0-0.2-0.24-0.31-0.24-0.31c-0.03-0.02-0.05-0.05-0.03-0.08
		c0.02-0.03,0.06-0.04,0.09-0.03c0.01,0.01,0.31,0.14,0.31,0.42C16.33,11.71,16.3,11.73,16.26,11.73L16.26,11.73z M16.26,11.73"/>
</g>
</svg>
