<?xml version="1.0" encoding="utf-8"?>
<!-- Generator: Adobe Illustrator 25.0.0, SVG Export Plug-In . SVG Version: 6.00 Build 0)  -->
<svg version="1.1" id="Capa_1" xmlns="http://www.w3.org/2000/svg" xmlns:xlink="http://www.w3.org/1999/xlink" x="0px" y="0px"
	 viewBox="0 0 32 18.62" style="enable-background:new 0 0 32 18.62;" xml:space="preserve">
<style type="text/css">
	.st0{fill:#FF4B55;}
	.st1{fill:#464655;}
	.st2{fill:#73AF00;}
	.st3{fill:#F5F5F5;}
	.st4{fill:#41479B;}
	.st5{fill:#FFF5DC;}
	.st6{fill:#D27D69;}
	.st7{fill:#FFE15A;}
	.st8{fill:#B95546;}
	.st9{fill:#DCBE82;}
	.st10{fill:#D2AA73;}
	.st11{fill:#4173CD;}
	.st12{fill:#82AFFF;}
	.st13{fill:#F09146;}
	.st14{fill:#FFB400;}
	.st15{fill:#965032;}
	.st16{fill:#BE7855;}
	.st17{fill:#FFBE3C;}
	.st18{fill:#EAF3F5;}
	.st19{fill:#8C5A28;}
	.st20{fill:#F0C850;}
	.st21{fill:#FF6E55;}
	.st22{fill:#FFBE5A;}
	.st23{fill:#3CC8FF;}
	.st24{fill:#825546;}
	.st25{fill:#FFD255;}
	.st26{fill:#FFD25A;}
	.st27{fill:#509664;}
	.st28{fill:#F0AA00;}
	.st29{fill:#A561CD;}
	.st30{fill:#B34900;}
	.st31{fill:#64B496;}
	.st32{fill:#FF6B71;}
	.st33{fill:#5F64B9;}
	.st34{fill:#F5F0F0;}
	.st35{fill:#5A4646;}
	.st36{fill:#E6E1CD;}
	.st37{fill:#FFD0AF;}
	.st38{fill:#FFAF94;}
	.st39{fill:#8CB400;}
	.st40{fill:#69C3FF;}
	.st41{fill:#009B64;}
	.st42{fill:#5AA0E6;}
	.st43{fill:#FFC88C;}
	.st44{fill:#E1E1E1;}
	.st45{fill:#966446;}
	.st46{fill:#BE915A;}
	.st47{fill:#B9B9B9;}
	.st48{fill:#F0C727;}
	.st49{fill:#50AF69;}
	.st50{fill:#FFE6E6;}
	.st51{fill:#FFB750;}
	.st52{fill:#FFC455;}
	.st53{fill:#FFCD55;}
	.st54{fill:#9BC800;}
	.st55{fill:#FFE14E;}
	.st56{fill:#FFB14E;}
	.st57{fill:#B46446;}
	.st58{fill:#5FA000;}
	.st59{fill:#F2DD30;}
	.st60{fill:#FFC855;}
	.st61{fill:#A0A0A0;}
	.st62{fill:#69B469;}
	.st63{fill:#F4E08F;}
	.st64{fill:#ECD077;}
	.st65{fill:#FCF0A8;}
	.st66{fill:#FAB446;}
	.st67{fill:#C8414B;}
	.st68{fill:#FF9B46;}
	.st69{fill:#FF9B55;}
	.st70{fill:#82C3D2;}
	.st71{fill:#5AA587;}
	.st72{fill:#CDCDCD;}
	.st73{fill:#B4A08C;}
	.st74{fill:#FFD250;}
	.st75{fill:#00C3A0;}
	.st76{fill:#00AADC;}
	.st77{fill:#732D37;}
	.st78{fill:#AAD264;}
	.st79{fill:#874150;}
	.st80{fill:#783C46;}
	.st81{fill:#FFB478;}
	.st82{fill:#9B4B5A;}
	.st83{fill:#FFCD5A;}
	.st84{fill:#FFAA5A;}
	.st85{fill:#FF875A;}
	.st86{fill:#E6B432;}
	.st87{fill:#C86464;}
	.st88{fill:#FFF5E1;}
	.st89{fill:#963C3C;}
	.st90{fill:#5A8250;}
	.st91{fill:#AFEBFF;}
	.st92{fill:#557DE6;}
	.st93{fill:#D23741;}
	.st94{fill:#64C86E;}
	.st95{fill:#873250;}
	.st96{fill:#41AA5A;}
	.st97{fill:#8CD7FF;}
	.st98{fill:#6EC86E;}
	.st99{fill:#FFF0E1;}
	.st100{fill:#FFC75A;}
	.st101{fill:#FFD350;}
	.st102{fill:#FFBE50;}
	.st103{fill:#A54B50;}
	.st104{fill:#C87878;}
	.st105{fill:#FF1722;}
	.st106{fill:#FFB441;}
	.st107{fill:#5064AA;}
	.st108{fill:#FFA0D2;}
	.st109{fill:#FF7350;}
	.st110{fill:#245DBD;}
	.st111{fill:#D35A10;}
	.st112{fill:#FFA033;}
	.st113{fill:#FF9480;}
	.st114{fill:#FFA0E4;}
	.st115{fill:#696E7D;}
	.st116{fill:#FFFCFF;}
	.st117{fill:#EBEBEB;}
	.st118{fill:#FF4B57;}
	.st119{fill:#D2D2D2;}
	.st120{fill:#F0C814;}
	.st121{fill:#F7B518;}
	.st122{fill:#2C2F38;}
	.st123{fill:#4C8056;}
	.st124{fill:#F0C419;}
	.st125{fill:#C03A2B;}
	.st126{fill:#EA3F3F;}
	.st127{fill:#E4E3E1;}
	.st128{fill:#2472B2;}
</style>
<g>
	<path class="st0" d="M0.55,0.04h30.87c0.3,0,0.55,0.22,0.55,0.49V9.3H0V0.53C0,0.26,0.25,0.04,0.55,0.04L0.55,0.04z M0.55,0.04"/>
	<path class="st4" d="M31.42,18.55H0.55c-0.3,0-0.55-0.22-0.55-0.49V9.3h31.97v8.77C31.97,18.33,31.72,18.55,31.42,18.55
		L31.42,18.55z M31.42,18.55"/>
	<path class="st3" d="M0.2,18.43L15.46,9.6c0.25-0.14,0.25-0.46,0-0.61L0.2,0.16C0.08,0.25,0,0.38,0,0.53v17.53
		C0,18.22,0.08,18.34,0.2,18.43L0.2,18.43z M0.2,18.43"/>
	<path class="st7" d="M7.38,7.42c0,0.84-0.77,1.53-1.73,1.53c-0.96,0-1.73-0.68-1.73-1.53c0-0.84,0.77-1.53,1.73-1.53
		C6.61,5.89,7.38,6.57,7.38,7.42L7.38,7.42z M7.38,7.42"/>
	<path class="st97" d="M7.77,8.83C7.77,9.02,7.8,9.21,7.82,9.4c0.09,0.73,0.16,1.35-0.63,1.6C7,11.05,6.75,11.08,6.5,11.11
		c-0.35,0.04-0.67,0.08-0.85,0.2c-0.18-0.11-0.5-0.15-0.85-0.2c-0.25-0.03-0.5-0.06-0.69-0.12c-0.79-0.24-0.71-0.87-0.63-1.6
		c0.02-0.19,0.04-0.38,0.05-0.56c0.02-0.66-0.13-1.3-0.24-1.67C3.48,7.24,3.73,7.3,4.04,7.29c0.13,0,0.29-0.02,0.45-0.04
		C4.85,7.21,5.27,7.17,5.6,7.28L5.65,7.3L5.7,7.28c0.33-0.12,0.74-0.07,1.11-0.03c0.16,0.02,0.31,0.03,0.45,0.04
		c0.31,0,0.57-0.06,0.75-0.12C7.9,7.53,7.74,8.18,7.77,8.83L7.77,8.83z M7.77,8.83"/>
	<path class="st0" d="M8.06,8.83C8.02,7.89,8.38,6.96,8.38,6.95L8.16,6.81c0,0-0.34,0.24-0.89,0.23C7.15,7.03,7,7.02,6.85,7
		c-0.38-0.04-0.81-0.09-1.2,0.03C5.26,6.91,4.83,6.96,4.45,7C4.3,7.02,4.16,7.03,4.04,7.04C3.49,7.05,3.15,6.81,3.15,6.81L2.92,6.95
		c0,0.01,0.36,0.94,0.33,1.88C3.24,9,3.22,9.19,3.2,9.37c-0.09,0.73-0.19,1.55,0.82,1.86c0.21,0.07,0.48,0.09,0.74,0.13
		c0.78,0.11,0.89,0.29,0.89,0.29s0.12-0.18,0.89-0.29c0.26-0.04,0.53-0.07,0.74-0.13c1.01-0.31,0.91-1.14,0.82-1.86
		C8.08,9.19,8.06,9,8.06,8.83L8.06,8.83z M7.77,8.83C7.77,9.02,7.8,9.21,7.82,9.4c0.09,0.73,0.16,1.35-0.63,1.6
		C7,11.05,6.75,11.08,6.5,11.11c-0.35,0.04-0.67,0.08-0.85,0.2c-0.18-0.11-0.5-0.15-0.85-0.2c-0.25-0.03-0.5-0.06-0.69-0.12
		c-0.79-0.24-0.71-0.87-0.63-1.6c0.02-0.19,0.04-0.38,0.05-0.56c0.02-0.66-0.13-1.3-0.24-1.67C3.48,7.24,3.73,7.3,4.04,7.29
		c0.13,0,0.29-0.02,0.45-0.04C4.85,7.21,5.27,7.17,5.6,7.28L5.65,7.3L5.7,7.28c0.33-0.12,0.74-0.07,1.11-0.03
		c0.16,0.02,0.31,0.03,0.45,0.04c0.31,0,0.57-0.06,0.75-0.12C7.9,7.53,7.74,8.18,7.77,8.83L7.77,8.83z M7.77,8.83"/>
	<path class="st3" d="M7.14,10.4V9.84h0.11V9.67H6.98V9.1h0.27L6.03,8.33V8.05H6.2L5.65,7.7L5.1,8.05h0.17v0.29L4.05,9.1h0.27v0.58
		H4.05v0.17h0.11v0.56H4v0.24H7.3V10.4H7.14z M7.14,10.4"/>
	<path class="st96" d="M4.07,8.1C4.03,8.18,4.04,8.27,4.08,8.33c0.08-0.02,0.15-0.07,0.19-0.16C4.31,8.1,4.31,8.01,4.26,7.95
		C4.18,7.97,4.11,8.02,4.07,8.1L4.07,8.1z M4.07,8.1"/>
	<path class="st96" d="M4.26,8.13c0.03,0.09,0.09,0.15,0.17,0.18C4.48,8.25,4.5,8.16,4.47,8.08C4.45,7.99,4.38,7.93,4.31,7.9
		C4.25,7.96,4.23,8.04,4.26,8.13L4.26,8.13z M4.26,8.13"/>
	<path class="st96" d="M4.55,7.99c0.09,0.03,0.19,0.02,0.26-0.02C4.79,7.9,4.72,7.83,4.63,7.8C4.54,7.77,4.44,7.78,4.37,7.82
		C4.39,7.89,4.46,7.96,4.55,7.99L4.55,7.99z M4.55,7.99"/>
	<path class="st96" d="M4.64,7.84c0.09-0.04,0.15-0.1,0.17-0.17c-0.07-0.04-0.17-0.04-0.26,0C4.46,7.7,4.4,7.76,4.38,7.84
		C4.45,7.87,4.55,7.88,4.64,7.84L4.64,7.84z M4.64,7.84"/>
	<path class="st96" d="M4.03,7.91c0.08-0.05,0.13-0.13,0.13-0.2C4.08,7.69,3.98,7.7,3.9,7.76c-0.08,0.05-0.13,0.13-0.13,0.2
		C3.85,7.98,3.94,7.97,4.03,7.91L4.03,7.91z M4.03,7.91"/>
	<path class="st96" d="M3.96,7.81c0.13,0.06,0.26,0.08,0.36,0.06C4.29,7.77,4.21,7.68,4.08,7.62C3.96,7.55,3.82,7.54,3.72,7.56
		C3.75,7.65,3.83,7.74,3.96,7.81L3.96,7.81z M3.96,7.81"/>
	<path class="st7" d="M4.49,7.94c0-0.04-0.04-0.08-0.09-0.08c0-0.04-0.04-0.08-0.09-0.08c-0.05,0-0.09,0.03-0.09,0.08
		c-0.05,0-0.09,0.04-0.09,0.08c0,0.04,0.04,0.08,0.09,0.08c0,0.04,0.04,0.08,0.09,0.08c0.05,0,0.09-0.03,0.09-0.08
		C4.45,8.02,4.49,7.98,4.49,7.94L4.49,7.94z M4.49,7.94"/>
	<path class="st3" d="M4.36,7.94c0,0.03-0.02,0.05-0.05,0.05S4.26,7.96,4.26,7.94c0-0.03,0.02-0.05,0.05-0.05S4.36,7.91,4.36,7.94
		L4.36,7.94z M4.36,7.94"/>
	<path class="st7" d="M4.2,7.86c0-0.04-0.03-0.06-0.07-0.06c0-0.04-0.03-0.06-0.07-0.06c-0.04,0-0.07,0.03-0.07,0.06
		c-0.04,0-0.07,0.03-0.07,0.06c0,0.04,0.03,0.06,0.07,0.07c0,0.04,0.03,0.06,0.07,0.06c0.04,0,0.07-0.03,0.07-0.06
		C4.17,7.92,4.2,7.89,4.2,7.86L4.2,7.86z M4.2,7.86"/>
	<path class="st3" d="M4.1,7.86c0,0.02-0.02,0.04-0.04,0.04c-0.02,0-0.04-0.02-0.04-0.04c0-0.02,0.02-0.04,0.04-0.04
		C4.08,7.82,4.1,7.84,4.1,7.86L4.1,7.86z M4.1,7.86"/>
	<path class="st7" d="M4.48,7.75c0-0.03-0.02-0.05-0.05-0.05c0-0.03-0.02-0.05-0.05-0.05c-0.03,0-0.05,0.02-0.05,0.05
		c-0.03,0-0.05,0.02-0.05,0.05c0,0.03,0.02,0.05,0.05,0.05c0,0.03,0.02,0.05,0.05,0.05c0.03,0,0.05-0.02,0.05-0.05
		C4.45,7.79,4.48,7.77,4.48,7.75L4.48,7.75z M4.48,7.75"/>
	<path class="st3" d="M4.4,7.75c0,0.02-0.01,0.03-0.03,0.03c-0.02,0-0.03-0.01-0.03-0.03c0-0.02,0.01-0.03,0.03-0.03
		C4.39,7.72,4.4,7.73,4.4,7.75L4.4,7.75z M4.4,7.75"/>
	<path class="st7" d="M4.28,7.67c0-0.03-0.02-0.05-0.05-0.05c0-0.03-0.02-0.05-0.05-0.05c-0.03,0-0.05,0.02-0.05,0.05
		c-0.03,0-0.05,0.02-0.05,0.05c0,0.03,0.02,0.05,0.05,0.05c0,0.03,0.02,0.05,0.05,0.05c0.03,0,0.05-0.02,0.05-0.05
		C4.25,7.71,4.28,7.69,4.28,7.67L4.28,7.67z M4.28,7.67"/>
	<path class="st3" d="M4.2,7.67c0,0.02-0.01,0.03-0.03,0.03c-0.02,0-0.03-0.01-0.03-0.03c0-0.02,0.01-0.03,0.03-0.03
		C4.19,7.64,4.2,7.65,4.2,7.67L4.2,7.67z M4.2,7.67"/>
	<path class="st3" d="M6.58,8.37h1C7.52,8.24,7.39,8.14,7.24,8.1c0.01-0.06,0.02-0.14,0.02-0.21c0-0.27-0.08-0.48-0.17-0.48
		c-0.1,0-0.17,0.22-0.17,0.48c0,0.08,0.01,0.15,0.02,0.21C6.77,8.14,6.65,8.24,6.58,8.37L6.58,8.37z M6.58,8.37"/>
	<path class="st7" d="M5.65,12.71c-2.11,0-3.82-1.52-3.82-3.38h0.72c0,1.51,1.39,2.74,3.1,2.74c1.71,0,3.1-1.23,3.1-2.74h0.72
		C9.47,11.19,7.76,12.71,5.65,12.71L5.65,12.71z M5.65,12.71"/>
	<path class="st104" d="M7.07,6.31H6.44c0.06,0,0.11-0.04,0.11-0.1c0-0.06-0.05-0.1-0.11-0.1H5.65c-0.06,0-0.11,0.05-0.11,0.1
		c0,0.06,0.05,0.1,0.11,0.1H4.23c-0.09,0-0.17,0.07-0.17,0.15c0,0.08,0.08,0.15,0.17,0.15h0.51c-0.06,0-0.11,0.04-0.11,0.1
		c0,0.06,0.05,0.1,0.11,0.1h1.02c0.06,0,0.11-0.04,0.11-0.1c0-0.06-0.05-0.1-0.11-0.1h1.3c0.09,0,0.17-0.07,0.17-0.15
		C7.24,6.38,7.16,6.31,7.07,6.31L7.07,6.31z M7.07,6.31"/>
</g>
</svg>
