<?xml version="1.0" encoding="utf-8"?>
<!-- Generator: Adobe Illustrator 25.0.1, SVG Export Plug-In . SVG Version: 6.00 Build 0)  -->
<svg version="1.1" id="Layer_1" xmlns="http://www.w3.org/2000/svg" xmlns:xlink="http://www.w3.org/1999/xlink" x="0px" y="0px"
	 viewBox="0 0 32 20" style="enable-background:new 0 0 32 20;" xml:space="preserve">
<style type="text/css">
	.st0{fill:#FF4B55;}
	.st1{fill:#464655;}
	.st2{fill:#F5F5F5;}
	.st3{fill:#73AF00;}
</style>
<g>
	<path class="st0" d="M32,6.67H0V0.53C0,0.24,0.25,0,0.55,0h30.9C31.75,0,32,0.24,32,0.53L32,6.67L32,6.67z"/>
	<path class="st1" d="M31.45,20H0.55C0.25,20,0,19.76,0,19.47v-6.14h32v6.14C32,19.76,31.75,20,31.45,20z"/>
	<rect y="6.67" class="st2" width="32" height="6.67"/>
	<g>
		<path class="st3" d="M9.38,8.05l0.46,1.32l1.45,0.01c0.19,0,0.27,0.23,0.11,0.34l-1.17,0.82l0.44,1.32
			c0.06,0.17-0.15,0.31-0.3,0.21l-1.18-0.81l-1.18,0.81c-0.15,0.1-0.36-0.04-0.3-0.21l0.44-1.32L6.98,9.71
			C6.83,9.61,6.9,9.38,7.09,9.38l1.45-0.01l0.46-1.32C9.06,7.88,9.32,7.88,9.38,8.05z"/>
		<path class="st3" d="M22.99,8.05l0.46,1.32l1.45,0.01c0.19,0,0.27,0.23,0.11,0.34l-1.17,0.82l0.44,1.32
			c0.06,0.17-0.15,0.31-0.3,0.21l-1.18-0.81l-1.18,0.81c-0.15,0.1-0.36-0.04-0.3-0.21l0.44-1.32l-1.17-0.82
			c-0.15-0.11-0.07-0.34,0.11-0.34l1.45-0.01l0.46-1.32C22.68,7.88,22.94,7.88,22.99,8.05z"/>
	</g>
</g>
</svg>
