<?xml version="1.0" encoding="utf-8"?>
<!-- Generator: Adobe Illustrator 25.0.0, SVG Export Plug-In . SVG Version: 6.00 Build 0)  -->
<svg version="1.1" id="Capa_1" xmlns="http://www.w3.org/2000/svg" xmlns:xlink="http://www.w3.org/1999/xlink" x="0px" y="0px"
	 viewBox="0 0 32 18.62" style="enable-background:new 0 0 32 18.62;" xml:space="preserve">
<style type="text/css">
	.st0{fill:#FF4B55;}
	.st1{fill:#464655;}
	.st2{fill:#73AF00;}
	.st3{fill:#F5F5F5;}
	.st4{fill:#41479B;}
	.st5{fill:#FFF5DC;}
	.st6{fill:#D27D69;}
	.st7{fill:#FFE15A;}
	.st8{fill:#B95546;}
	.st9{fill:#DCBE82;}
	.st10{fill:#D2AA73;}
	.st11{fill:#4173CD;}
	.st12{fill:#82AFFF;}
	.st13{fill:#F09146;}
	.st14{fill:#FFB400;}
	.st15{fill:#965032;}
	.st16{fill:#BE7855;}
	.st17{fill:#FFBE3C;}
	.st18{fill:#EAF3F5;}
	.st19{fill:#8C5A28;}
	.st20{fill:#F0C850;}
	.st21{fill:#FF6E55;}
	.st22{fill:#FFBE5A;}
	.st23{fill:#3CC8FF;}
	.st24{fill:#825546;}
	.st25{fill:#FFD255;}
	.st26{fill:#FFD25A;}
	.st27{fill:#509664;}
	.st28{fill:#F0AA00;}
	.st29{fill:#A561CD;}
	.st30{fill:#B34900;}
	.st31{fill:#64B496;}
	.st32{fill:#FF6B71;}
	.st33{fill:#5F64B9;}
	.st34{fill:#F5F0F0;}
	.st35{fill:#5A4646;}
	.st36{fill:#E6E1CD;}
	.st37{fill:#FFD0AF;}
	.st38{fill:#FFAF94;}
	.st39{fill:#8CB400;}
	.st40{fill:#69C3FF;}
	.st41{fill:#009B64;}
	.st42{fill:#5AA0E6;}
	.st43{fill:#FFC88C;}
	.st44{fill:#E1E1E1;}
	.st45{fill:#966446;}
	.st46{fill:#BE915A;}
	.st47{fill:#B9B9B9;}
	.st48{fill:#F0C727;}
	.st49{fill:#50AF69;}
	.st50{fill:#FFE6E6;}
	.st51{fill:#FFB750;}
	.st52{fill:#FFC455;}
	.st53{fill:#FFCD55;}
	.st54{fill:#9BC800;}
	.st55{fill:#FFE14E;}
	.st56{fill:#FFB14E;}
	.st57{fill:#B46446;}
	.st58{fill:#5FA000;}
	.st59{fill:#F2DD30;}
	.st60{fill:#FFC855;}
	.st61{fill:#A0A0A0;}
	.st62{fill:#69B469;}
	.st63{fill:#F4E08F;}
	.st64{fill:#ECD077;}
	.st65{fill:#FCF0A8;}
	.st66{fill:#FAB446;}
	.st67{fill:#C8414B;}
	.st68{fill:#FF9B46;}
	.st69{fill:#FF9B55;}
	.st70{fill:#82C3D2;}
	.st71{fill:#5AA587;}
	.st72{fill:#CDCDCD;}
	.st73{fill:#B4A08C;}
	.st74{fill:#FFD250;}
	.st75{fill:#00C3A0;}
	.st76{fill:#00AADC;}
	.st77{fill:#732D37;}
	.st78{fill:#AAD264;}
	.st79{fill:#874150;}
	.st80{fill:#783C46;}
	.st81{fill:#FFB478;}
	.st82{fill:#9B4B5A;}
	.st83{fill:#FFCD5A;}
	.st84{fill:#FFAA5A;}
	.st85{fill:#FF875A;}
	.st86{fill:#E6B432;}
	.st87{fill:#C86464;}
	.st88{fill:#FFF5E1;}
	.st89{fill:#963C3C;}
	.st90{fill:#5A8250;}
	.st91{fill:#AFEBFF;}
	.st92{fill:#557DE6;}
	.st93{fill:#D23741;}
	.st94{fill:#64C86E;}
	.st95{fill:#873250;}
	.st96{fill:#41AA5A;}
	.st97{fill:#8CD7FF;}
	.st98{fill:#6EC86E;}
	.st99{fill:#FFF0E1;}
	.st100{fill:#FFC75A;}
	.st101{fill:#FFD350;}
	.st102{fill:#FFBE50;}
	.st103{fill:#A54B50;}
	.st104{fill:#C87878;}
	.st105{fill:#FF1722;}
	.st106{fill:#FFB441;}
	.st107{fill:#5064AA;}
	.st108{fill:#FFA0D2;}
	.st109{fill:#FF7350;}
	.st110{fill:#245DBD;}
	.st111{fill:#D35A10;}
	.st112{fill:#FFA033;}
	.st113{fill:#FF9480;}
	.st114{fill:#FFA0E4;}
	.st115{fill:#696E7D;}
	.st116{fill:#FFFCFF;}
	.st117{fill:#EBEBEB;}
	.st118{fill:#FF4B57;}
	.st119{fill:#D2D2D2;}
	.st120{fill:#F0C814;}
	.st121{fill:#F7B518;}
	.st122{fill:#2C2F38;}
	.st123{fill:#4C8056;}
	.st124{fill:#F0C419;}
	.st125{fill:#C03A2B;}
	.st126{fill:#EA3F3F;}
	.st127{fill:#E4E3E1;}
	.st128{fill:#2472B2;}
</style>
<g>
	<path class="st11" d="M0,15.14h31.97v2.92c0,0.27-0.25,0.49-0.55,0.49H0.55c-0.3,0-0.55-0.22-0.55-0.49V15.14z M0,15.14"/>
	<path class="st11" d="M0.55,0.04h30.87c0.3,0,0.55,0.22,0.55,0.49v2.92H0V0.53C0,0.26,0.25,0.04,0.55,0.04L0.55,0.04z M0.55,0.04"
		/>
	<rect y="3.45" class="st0" width="31.97" height="11.69"/>
	<rect y="2.97" class="st7" width="31.97" height="0.97"/>
	<rect y="14.66" class="st7" width="31.97" height="0.97"/>
	<path class="st7" d="M28.03,9.77H3.92c-0.16,0-0.3-0.12-0.3-0.26V9.42c0-0.14,0.13-0.26,0.3-0.26h24.11c0.16,0,0.3,0.12,0.3,0.26
		v0.08C28.32,9.65,28.19,9.77,28.03,9.77L28.03,9.77z M28.03,9.77"/>
	<path class="st3" d="M23.35,8.56l1.2-0.45l1.2,0.45l-1.2,0.45L23.35,8.56z M23.35,8.56"/>
	<path class="st7" d="M23.65,8.36H6.02C5.9,8.36,5.8,8.45,5.8,8.56c0,0.11,0.1,0.19,0.22,0.19h17.62c0.12,0,0.22-0.09,0.22-0.19
		C23.86,8.45,23.77,8.36,23.65,8.36L23.65,8.36z M23.65,8.36"/>
	<path class="st3" d="M24.6,7.49l1.2-0.45L27,7.49l-1.2,0.45L24.6,7.49z M24.6,7.49"/>
	<path class="st7" d="M24.89,7.3H7.27c-0.12,0-0.22,0.09-0.22,0.19s0.1,0.19,0.22,0.19h17.62c0.12,0,0.22-0.09,0.22-0.19
		S25.01,7.3,24.89,7.3L24.89,7.3z M24.89,7.3"/>
	<path class="st3" d="M15.97,5.52c-3.05,0-5.71,1.52-7.13,3.79c1.42,2.26,4.08,3.79,7.13,3.79s5.71-1.52,7.13-3.79
		C21.68,7.05,19.02,5.52,15.97,5.52L15.97,5.52z M15.97,5.52"/>
	<path class="st1" d="M8.84,9.31c1.42,2.26,4.08,3.79,7.13,3.79c0.51,0,1.01-0.05,1.49-0.13c-0.37-0.72-1.67-0.71-1.75-0.98
		c-0.09-0.29,1.06-0.23,1.26-0.47c0.2-0.24-1.09-0.34-1.14-0.58c-0.06-0.24,0.51-0.4,0.61-0.78c0.1-0.38,0.33-0.49,0.5-0.72
		c0.17-0.23-0.29-0.3-0.4-1.06c-0.11-0.76-0.79-0.86-1.11-1.48c-0.33-0.62,0.2-1.07,0.54-1.38C12.93,5.52,10.27,7.05,8.84,9.31
		L8.84,9.31z M8.84,9.31"/>
	<rect x="11.51" y="7.95" class="st3" width="0.34" height="1.21"/>
	<rect x="12.2" y="7.95" class="st3" width="0.34" height="1.21"/>
	<rect x="12.89" y="7.95" class="st3" width="0.34" height="1.21"/>
	<rect x="13.57" y="7.95" class="st3" width="0.34" height="1.21"/>
	<rect x="14.26" y="7.95" class="st3" width="0.34" height="1.21"/>
	<rect x="14.94" y="7.95" class="st3" width="0.34" height="1.21"/>
	<rect x="11.51" y="9.77" class="st3" width="0.34" height="1.21"/>
	<rect x="12.2" y="9.77" class="st3" width="0.34" height="1.21"/>
	<rect x="12.89" y="9.77" class="st3" width="0.34" height="1.21"/>
	<rect x="13.57" y="9.77" class="st3" width="0.34" height="1.21"/>
	<rect x="14.26" y="9.77" class="st3" width="0.34" height="1.21"/>
	<rect x="14.94" y="9.77" class="st3" width="0.34" height="1.21"/>
	<rect x="16.66" y="7.95" class="st1" width="0.34" height="1.21"/>
	<rect x="17.34" y="7.95" class="st1" width="0.34" height="1.21"/>
	<rect x="18.03" y="7.95" class="st1" width="0.34" height="1.21"/>
	<rect x="18.72" y="7.95" class="st1" width="0.34" height="1.21"/>
	<rect x="19.4" y="7.95" class="st1" width="0.34" height="1.21"/>
	<rect x="20.09" y="7.95" class="st1" width="0.34" height="1.21"/>
	<rect x="16.66" y="9.77" class="st1" width="0.34" height="1.21"/>
	<rect x="17.34" y="9.77" class="st1" width="0.34" height="1.21"/>
	<rect x="18.03" y="9.77" class="st1" width="0.34" height="1.21"/>
	<rect x="18.72" y="9.77" class="st1" width="0.34" height="1.21"/>
	<rect x="19.4" y="9.77" class="st1" width="0.34" height="1.21"/>
	<rect x="20.09" y="9.77" class="st1" width="0.34" height="1.21"/>
	<path class="st110" d="M26.56,9.11c-0.27,0.56-1.06,0.63-0.62,2.07l0.22-0.2c0,0,0.23,0.54,0.79,0.91c0,0,0.69-0.51,0.74-1.32
		l0.29,0.11C27.98,10.68,27.84,9.21,26.56,9.11L26.56,9.11z M26.56,9.11"/>
	<path class="st0" d="M27.58,10.27c-0.02,0-0.04-0.01-0.06-0.03c-0.27-0.29-0.61-0.38-0.62-0.38c-0.05-0.01-0.07-0.06-0.06-0.11
		c0.01-0.05,0.06-0.08,0.1-0.06c0.02,0,0.39,0.1,0.7,0.43c0.03,0.03,0.03,0.09,0,0.12C27.62,10.26,27.6,10.27,27.58,10.27
		L27.58,10.27z M27.58,10.27"/>
	<path class="st0" d="M27.38,10.94c-0.03,0-0.05-0.01-0.07-0.03c-0.2-0.27-0.43-0.42-0.43-0.42c-0.04-0.03-0.05-0.08-0.03-0.12
		c0.02-0.04,0.08-0.05,0.12-0.03c0.01,0.01,0.26,0.17,0.47,0.46c0.03,0.04,0.02,0.09-0.02,0.12C27.42,10.93,27.4,10.94,27.38,10.94
		L27.38,10.94z M27.38,10.94"/>
	<path class="st0" d="M26.94,11.68c0,0-0.01,0-0.01,0c-0.05-0.01-0.08-0.05-0.07-0.1c0.03-0.2,0.01-0.53-0.04-0.71
		c-0.01-0.05,0.01-0.1,0.06-0.11c0.05-0.01,0.09,0.01,0.1,0.06c0.05,0.19,0.08,0.55,0.04,0.78C27.01,11.65,26.98,11.68,26.94,11.68
		L26.94,11.68z M26.94,11.68"/>
	<path class="st0" d="M26.34,10.87c-0.02,0-0.05-0.01-0.06-0.03c-0.03-0.04-0.03-0.09,0.01-0.12c0,0,0.22-0.2,0.27-0.46
		c0.01-0.05,0.05-0.08,0.1-0.07c0.05,0.01,0.07,0.06,0.06,0.11c-0.07,0.33-0.32,0.55-0.33,0.56C26.38,10.86,26.36,10.87,26.34,10.87
		L26.34,10.87z M26.34,10.87"/>
	<path class="st0" d="M26.11,10.3c-0.03,0-0.06-0.01-0.07-0.04c-0.02-0.04-0.01-0.1,0.03-0.12c0,0,0.31-0.2,0.4-0.42
		c0.02-0.04,0.07-0.06,0.11-0.04c0.04,0.02,0.06,0.07,0.04,0.12c-0.12,0.27-0.46,0.49-0.47,0.5C26.14,10.3,26.12,10.3,26.11,10.3
		L26.11,10.3z M26.11,10.3"/>
	<path class="st110" d="M5.14,9.3c-0.23,0.47-0.88,0.53-0.52,1.73l0.19-0.17c0,0,0.19,0.45,0.66,0.76c0,0,0.57-0.43,0.62-1.1
		l0.24,0.09C6.32,10.62,6.21,9.39,5.14,9.3L5.14,9.3z M5.14,9.3"/>
	<path class="st0" d="M5.99,10.27c-0.02,0-0.04-0.01-0.05-0.02c-0.23-0.24-0.51-0.32-0.51-0.32C5.38,9.92,5.36,9.88,5.37,9.84
		C5.38,9.8,5.42,9.78,5.46,9.79c0.01,0,0.33,0.09,0.58,0.36c0.03,0.03,0.03,0.08,0,0.1C6.02,10.26,6,10.27,5.99,10.27L5.99,10.27z
		 M5.99,10.27"/>
	<path class="st0" d="M5.82,10.83c-0.02,0-0.04-0.01-0.06-0.03c-0.17-0.23-0.36-0.35-0.36-0.35c-0.03-0.02-0.04-0.07-0.02-0.1
		c0.02-0.03,0.06-0.05,0.1-0.02c0.01,0.01,0.21,0.14,0.4,0.39c0.02,0.03,0.02,0.08-0.01,0.1C5.85,10.83,5.84,10.83,5.82,10.83
		L5.82,10.83z M5.82,10.83"/>
	<path class="st0" d="M5.45,11.45c0,0-0.01,0-0.01,0c-0.04-0.01-0.06-0.04-0.06-0.09c0.03-0.17,0-0.45-0.03-0.59
		c-0.01-0.04,0.01-0.08,0.05-0.09c0.04-0.01,0.08,0.01,0.09,0.05c0.04,0.16,0.07,0.46,0.04,0.66C5.52,11.43,5.49,11.45,5.45,11.45
		L5.45,11.45z M5.45,11.45"/>
	<path class="st0" d="M4.96,10.77c-0.02,0-0.04-0.01-0.05-0.03c-0.03-0.03-0.02-0.08,0.01-0.1c0,0,0.18-0.16,0.23-0.39
		c0.01-0.04,0.05-0.06,0.08-0.06c0.04,0.01,0.06,0.05,0.05,0.09C5.22,10.56,5.01,10.74,5,10.75C4.99,10.76,4.97,10.77,4.96,10.77
		L4.96,10.77z M4.96,10.77"/>
	<path class="st0" d="M4.76,10.3c-0.02,0-0.05-0.01-0.06-0.04c-0.02-0.03-0.01-0.08,0.02-0.1c0,0,0.26-0.17,0.34-0.35
		c0.02-0.04,0.06-0.05,0.09-0.04c0.04,0.02,0.05,0.06,0.03,0.1c-0.1,0.22-0.38,0.41-0.39,0.42C4.78,10.29,4.77,10.3,4.76,10.3
		L4.76,10.3z M4.76,10.3"/>
</g>
</svg>
