<?xml version="1.0" encoding="utf-8"?>
<!-- Generator: Adobe Illustrator 25.0.0, SVG Export Plug-In . SVG Version: 6.00 Build 0)  -->
<svg version="1.1" id="Capa_1" xmlns="http://www.w3.org/2000/svg" xmlns:xlink="http://www.w3.org/1999/xlink" x="0px" y="0px"
	 viewBox="0 0 32 18.62" style="enable-background:new 0 0 32 18.62;" xml:space="preserve">
<style type="text/css">
	.st0{fill:#FF4B55;}
	.st1{fill:#464655;}
	.st2{fill:#73AF00;}
	.st3{fill:#F5F5F5;}
	.st4{fill:#41479B;}
	.st5{fill:#FFF5DC;}
	.st6{fill:#D27D69;}
	.st7{fill:#FFE15A;}
	.st8{fill:#B95546;}
	.st9{fill:#DCBE82;}
	.st10{fill:#D2AA73;}
	.st11{fill:#4173CD;}
	.st12{fill:#82AFFF;}
	.st13{fill:#F09146;}
	.st14{fill:#FFB400;}
	.st15{fill:#965032;}
	.st16{fill:#BE7855;}
	.st17{fill:#FFBE3C;}
	.st18{fill:#EAF3F5;}
	.st19{fill:#8C5A28;}
	.st20{fill:#F0C850;}
	.st21{fill:#FF6E55;}
	.st22{fill:#FFBE5A;}
	.st23{fill:#3CC8FF;}
	.st24{fill:#825546;}
	.st25{fill:#FFD255;}
	.st26{fill:#FFD25A;}
	.st27{fill:#509664;}
	.st28{fill:#F0AA00;}
	.st29{fill:#A561CD;}
	.st30{fill:#B34900;}
	.st31{fill:#64B496;}
	.st32{fill:#FF6B71;}
	.st33{fill:#5F64B9;}
	.st34{fill:#F5F0F0;}
	.st35{fill:#5A4646;}
	.st36{fill:#E6E1CD;}
	.st37{fill:#FFD0AF;}
	.st38{fill:#FFAF94;}
	.st39{fill:#8CB400;}
	.st40{fill:#69C3FF;}
	.st41{fill:#009B64;}
	.st42{fill:#5AA0E6;}
	.st43{fill:#FFC88C;}
	.st44{fill:#E1E1E1;}
	.st45{fill:#966446;}
	.st46{fill:#BE915A;}
	.st47{fill:#B9B9B9;}
	.st48{fill:#F0C727;}
	.st49{fill:#50AF69;}
	.st50{fill:#FFE6E6;}
	.st51{fill:#FFB750;}
	.st52{fill:#FFC455;}
	.st53{fill:#FFCD55;}
	.st54{fill:#9BC800;}
	.st55{fill:#FFE14E;}
	.st56{fill:#FFB14E;}
	.st57{fill:#B46446;}
	.st58{fill:#5FA000;}
	.st59{fill:#F2DD30;}
	.st60{fill:#FFC855;}
	.st61{fill:#A0A0A0;}
	.st62{fill:#69B469;}
	.st63{fill:#F4E08F;}
	.st64{fill:#ECD077;}
	.st65{fill:#FCF0A8;}
	.st66{fill:#FAB446;}
	.st67{fill:#C8414B;}
	.st68{fill:#FF9B46;}
	.st69{fill:#FF9B55;}
	.st70{fill:#82C3D2;}
	.st71{fill:#5AA587;}
	.st72{fill:#CDCDCD;}
	.st73{fill:#B4A08C;}
	.st74{fill:#FFD250;}
	.st75{fill:#00C3A0;}
	.st76{fill:#00AADC;}
	.st77{fill:#732D37;}
	.st78{fill:#AAD264;}
	.st79{fill:#874150;}
	.st80{fill:#783C46;}
	.st81{fill:#FFB478;}
	.st82{fill:#9B4B5A;}
	.st83{fill:#FFCD5A;}
	.st84{fill:#FFAA5A;}
	.st85{fill:#FF875A;}
	.st86{fill:#E6B432;}
	.st87{fill:#C86464;}
	.st88{fill:#FFF5E1;}
	.st89{fill:#963C3C;}
	.st90{fill:#5A8250;}
	.st91{fill:#AFEBFF;}
	.st92{fill:#557DE6;}
	.st93{fill:#D23741;}
	.st94{fill:#64C86E;}
	.st95{fill:#873250;}
	.st96{fill:#41AA5A;}
	.st97{fill:#8CD7FF;}
	.st98{fill:#6EC86E;}
	.st99{fill:#FFF0E1;}
	.st100{fill:#FFC75A;}
	.st101{fill:#FFD350;}
	.st102{fill:#FFBE50;}
	.st103{fill:#A54B50;}
	.st104{fill:#C87878;}
	.st105{fill:#FF1722;}
	.st106{fill:#FFB441;}
	.st107{fill:#5064AA;}
	.st108{fill:#FFA0D2;}
	.st109{fill:#FF7350;}
	.st110{fill:#245DBD;}
	.st111{fill:#D35A10;}
	.st112{fill:#FFA033;}
	.st113{fill:#FF9480;}
	.st114{fill:#FFA0E4;}
	.st115{fill:#696E7D;}
	.st116{fill:#FFFCFF;}
	.st117{fill:#EBEBEB;}
	.st118{fill:#FF4B57;}
	.st119{fill:#D2D2D2;}
	.st120{fill:#F0C814;}
	.st121{fill:#F7B518;}
	.st122{fill:#2C2F38;}
	.st123{fill:#4C8056;}
	.st124{fill:#F0C419;}
	.st125{fill:#C03A2B;}
	.st126{fill:#EA3F3F;}
	.st127{fill:#E4E3E1;}
	.st128{fill:#2472B2;}
</style>
<g>
	<path class="st4" d="M31.42,18.55H0.55c-0.3,0-0.55-0.22-0.55-0.49V0.53c0-0.27,0.25-0.49,0.55-0.49h30.87
		c0.3,0,0.55,0.22,0.55,0.49v17.53C31.97,18.33,31.72,18.55,31.42,18.55L31.42,18.55z M31.42,18.55"/>
	<path class="st3" d="M15.43,0.04h-0.96L9.37,3V0.04H6.61V3L1.51,0.04H0.55C0.25,0.04,0,0.26,0,0.53v0.39l4.38,2.54H0v2.44h4.38
		L0,8.42v0.39C0,9.08,0.25,9.3,0.55,9.3h0.96l5.11-2.96V9.3h2.76V6.34l5.11,2.96h0.96c0.3,0,0.55-0.22,0.55-0.49V8.42L11.6,5.89
		h4.38V3.45H11.6l4.38-2.54V0.53C15.98,0.26,15.74,0.04,15.43,0.04L15.43,0.04z M15.43,0.04"/>
	<path class="st0" d="M15.98,3.94H8.82v-3.9H7.17v3.9H0V5.4h7.17v3.9h1.65V5.4h7.17V3.94z M15.98,3.94"/>
	<path class="st0" d="M6.06,3.45l-5.8-3.33C0.11,0.21,0,0.36,0,0.53v0.03l5.05,2.9H6.06z M6.06,3.45"/>
	<path class="st0" d="M10.38,3.45l5.52-3.16c-0.1-0.14-0.27-0.24-0.47-0.24h-0.12L9.37,3.45H10.38z M10.38,3.45"/>
	<path class="st0" d="M5.59,5.89L0.08,9.05C0.17,9.19,0.35,9.3,0.55,9.3h0.1L6.6,5.89H5.59z M5.59,5.89"/>
	<path class="st0" d="M15.98,8.85l-5.16-2.96H9.8l5.86,3.36C15.84,9.18,15.96,9.03,15.98,8.85L15.98,8.85z M15.98,8.85"/>
	<path class="st7" d="M21.48,6.54c-0.07,0-0.12,0.05-0.12,0.11v1.81c0,3.62,2.89,4.25,2.89,4.25s2.89-0.64,2.89-4.25V6.64
		c0-0.06-0.05-0.11-0.12-0.11H21.48z M21.48,6.54"/>
	<path class="st3" d="M26.84,6.8v1.65c0,3.08-2.15,3.85-2.59,3.98c-0.44-0.13-2.59-0.9-2.59-3.98V6.8H26.84 M27.02,6.54h-5.54
		c-0.07,0-0.12,0.05-0.12,0.11v1.81c0,3.62,2.89,4.25,2.89,4.25s2.89-0.64,2.89-4.25V6.64C27.14,6.59,27.09,6.54,27.02,6.54
		L27.02,6.54z M27.02,6.54"/>
	<path class="st2" d="M24.58,9.91h-0.62c0,0-0.5,0.44-0.61,1.4c0,0.03,0.01,0.06,0.04,0.08c0.1,0.07,0.4,0.24,0.88,0.24
		c0.48,0,0.78-0.17,0.88-0.24c0.03-0.02,0.04-0.05,0.04-0.08C25.07,10.35,24.58,9.91,24.58,9.91L24.58,9.91z M24.58,9.91"/>
	<path class="st0" d="M24.58,9.82h-0.62V9.36c0-0.15,0.14-0.27,0.31-0.27c0.17,0,0.31,0.12,0.31,0.27V9.82z M24.58,9.82"/>
	<path class="st0" d="M24.58,10h-0.62c-0.06,0-0.1-0.04-0.1-0.09c0-0.05,0.05-0.09,0.1-0.09h0.62c0.06,0,0.1,0.04,0.1,0.09
		C24.68,9.96,24.63,10,24.58,10L24.58,10z M24.58,10"/>
	<path class="st111" d="M26.63,7.99c-0.02,0-0.29,0-0.56,0.04V7.89c0.24-0.09,0.47-0.14,0.47-0.14c0.03-0.01,0.04-0.03,0.04-0.05
		c-0.01-0.02-0.03-0.04-0.06-0.03c-0.02,0-0.22,0.05-0.45,0.13c0-0.05-0.02-0.1-0.06-0.15c0.18-0.13,0.34-0.21,0.34-0.21
		c0.02-0.01,0.03-0.04,0.02-0.06c-0.01-0.02-0.05-0.03-0.07-0.02c-0.01,0.01-0.18,0.09-0.37,0.22c-0.05-0.03-0.11-0.05-0.17-0.05
		c-0.07,0-0.13,0.02-0.18,0.05c0.05-0.23,0.16-0.33,0.16-0.34c0.02-0.02,0.02-0.05,0-0.06c-0.02-0.02-0.05-0.02-0.07,0
		c-0.01,0.01-0.11,0.1-0.17,0.3c-0.06-0.2-0.16-0.3-0.17-0.3c-0.02-0.02-0.05-0.02-0.07,0c-0.02,0.02-0.02,0.05,0,0.06
		c0,0,0.11,0.1,0.16,0.34c-0.05-0.03-0.11-0.05-0.18-0.05c-0.06,0-0.12,0.02-0.17,0.05c-0.19-0.13-0.36-0.22-0.37-0.22
		c-0.02-0.01-0.06,0-0.07,0.02c-0.01,0.02-0.01,0.05,0.02,0.06c0,0,0.16,0.08,0.34,0.21c-0.03,0.04-0.06,0.09-0.06,0.15
		c-0.23-0.09-0.43-0.13-0.45-0.13c-0.03-0.01-0.06,0.01-0.06,0.03c-0.01,0.02,0.01,0.05,0.04,0.05c0,0,0.23,0.05,0.47,0.14v0.14
		c-0.28-0.04-0.55-0.04-0.56-0.04c-0.03,0-0.05,0.02-0.05,0.05c0,0.03,0.02,0.05,0.05,0.05c0,0,0.29,0,0.56,0.04v0.15
		c-0.15,0-0.33,0.01-0.49,0.09c-0.03,0.01-0.04,0.04-0.02,0.06c0.01,0.02,0.03,0.03,0.05,0.03c0.01,0,0.02,0,0.02,0
		c0.14-0.06,0.3-0.08,0.44-0.07v0.56c0,0.07-0.01,0.14-0.02,0.2l-0.08,0.35c-0.01,0.02,0.01,0.05,0.04,0.05c0,0,0.01,0,0.01,0
		c0.02,0,0.05-0.01,0.05-0.04l0.08-0.35c0.02-0.07,0.02-0.15,0.02-0.22V8.37c0.08,0.01,0.15,0.02,0.2,0.03l0.04,0.45
		c0,0.06,0.04,0.1,0.08,0.14l-0.17,0.22c-0.09,0.12,0.01,0.28,0.17,0.28h0.27c0.16,0,0.26-0.16,0.17-0.28l-0.17-0.22
		c0.05-0.03,0.08-0.08,0.08-0.14l0.04-0.45c0.06-0.01,0.12-0.02,0.2-0.03v0.55c0,0.07,0.01,0.15,0.02,0.22l0.08,0.35
		c0,0.02,0.03,0.04,0.05,0.04c0,0,0.01,0,0.01,0c0.03,0,0.05-0.03,0.04-0.05l-0.08-0.35c-0.02-0.07-0.02-0.14-0.02-0.2V8.37
		c0.14,0,0.3,0.01,0.44,0.07c0.01,0,0.02,0,0.02,0c0.02,0,0.04-0.01,0.05-0.03c0.01-0.02,0-0.05-0.02-0.06
		c-0.16-0.07-0.33-0.09-0.48-0.09V8.13c0.28-0.04,0.56-0.04,0.56-0.04c0.03,0,0.05-0.02,0.05-0.05C26.68,8.01,26.66,7.99,26.63,7.99
		L26.63,7.99z M25.96,8.05c-0.06,0.01-0.12,0.03-0.18,0.04c0-0.02,0-0.04-0.01-0.05c0.06-0.04,0.12-0.07,0.19-0.11L25.96,8.05
		L25.96,8.05z M25.96,7.81v0.03c-0.08,0.04-0.16,0.08-0.23,0.12c-0.01-0.02-0.03-0.03-0.05-0.05c0.08-0.08,0.16-0.14,0.25-0.21
		C25.95,7.74,25.96,7.77,25.96,7.81L25.96,7.81z M25.76,7.63c0.03,0,0.06,0.01,0.09,0.02c-0.09,0.07-0.18,0.14-0.26,0.22
		c-0.01,0-0.02-0.01-0.03-0.01v0c0-0.02,0-0.04,0-0.06C25.56,7.7,25.65,7.63,25.76,7.63L25.76,7.63z M25.24,7.63
		c0.11,0,0.2,0.07,0.2,0.17c0,0.02,0,0.04,0,0.06v0c-0.01,0-0.02,0-0.03,0.01c-0.08-0.08-0.17-0.16-0.26-0.22
		C25.18,7.64,25.21,7.63,25.24,7.63L25.24,7.63z M25.04,7.81c0-0.04,0.01-0.08,0.04-0.11c0.08,0.06,0.17,0.13,0.25,0.21
		c-0.02,0.01-0.04,0.03-0.05,0.05c-0.07-0.05-0.15-0.09-0.23-0.12V7.81z M25.04,7.94C25.1,7.97,25.17,8,25.22,8.04
		c0,0.02-0.01,0.03-0.01,0.05c-0.06-0.02-0.12-0.03-0.18-0.04V7.94z M25.04,8.28V8.15c0.06,0.01,0.13,0.03,0.18,0.05l0.01,0.12
		C25.17,8.3,25.11,8.29,25.04,8.28L25.04,8.28z M25.96,8.28c-0.07,0.01-0.14,0.02-0.19,0.03l0.01-0.12
		c0.06-0.02,0.12-0.03,0.18-0.05V8.28z M25.96,8.28"/>
	<path class="st112" d="M23.39,9.22h-0.23l-0.88-0.69c-0.1-0.08-0.14-0.19-0.11-0.3l0.25-0.87c0.02-0.08,0.13-0.1,0.19-0.05
		l0.4,0.35c0.02,0.02,0.05,0.03,0.08,0.03h0.3L23.39,9.22L23.39,9.22z M23.39,9.22"/>
	<path class="st113" d="M23.22,7.48l-0.14,0.56c-0.03,0.1-0.02,0.21,0.01,0.31l0.29,0.87h0.23l0.29-0.87
		c0.03-0.1,0.04-0.21,0.01-0.31l-0.14-0.56c-0.03-0.12-0.15-0.2-0.28-0.2h0C23.37,7.28,23.25,7.36,23.22,7.48L23.22,7.48z
		 M23.22,7.48"/>
	<path class="st114" d="M23.5,7.49c-0.06,0-0.12,0.05-0.12,0.1v1.63h0.23V7.59C23.62,7.53,23.56,7.49,23.5,7.49L23.5,7.49z
		 M23.5,7.49"/>
</g>
</svg>
