<?xml version="1.0" encoding="utf-8"?>
<!-- Generator: Adobe Illustrator 25.0.0, SVG Export Plug-In . SVG Version: 6.00 Build 0)  -->
<svg version="1.1" id="Capa_1" xmlns="http://www.w3.org/2000/svg" xmlns:xlink="http://www.w3.org/1999/xlink" x="0px" y="0px"
	 viewBox="0 0 32 18.62" style="enable-background:new 0 0 32 18.62;" xml:space="preserve">
<style type="text/css">
	.st0{fill:#FF4B55;}
	.st1{fill:#464655;}
	.st2{fill:#73AF00;}
	.st3{fill:#F5F5F5;}
	.st4{fill:#41479B;}
	.st5{fill:#FFF5DC;}
	.st6{fill:#D27D69;}
	.st7{fill:#FFE15A;}
	.st8{fill:#B95546;}
	.st9{fill:#DCBE82;}
	.st10{fill:#D2AA73;}
	.st11{fill:#4173CD;}
	.st12{fill:#82AFFF;}
	.st13{fill:#F09146;}
	.st14{fill:#FFB400;}
	.st15{fill:#965032;}
	.st16{fill:#BE7855;}
	.st17{fill:#FFBE3C;}
	.st18{fill:#EAF3F5;}
	.st19{fill:#8C5A28;}
	.st20{fill:#F0C850;}
	.st21{fill:#FF6E55;}
	.st22{fill:#FFBE5A;}
	.st23{fill:#3CC8FF;}
	.st24{fill:#825546;}
	.st25{fill:#FFD255;}
	.st26{fill:#FFD25A;}
	.st27{fill:#509664;}
	.st28{fill:#F0AA00;}
	.st29{fill:#A561CD;}
	.st30{fill:#B34900;}
	.st31{fill:#64B496;}
	.st32{fill:#FF6B71;}
	.st33{fill:#5F64B9;}
	.st34{fill:#F5F0F0;}
	.st35{fill:#5A4646;}
	.st36{fill:#E6E1CD;}
	.st37{fill:#FFD0AF;}
	.st38{fill:#FFAF94;}
	.st39{fill:#8CB400;}
	.st40{fill:#69C3FF;}
	.st41{fill:#009B64;}
	.st42{fill:#5AA0E6;}
	.st43{fill:#FFC88C;}
	.st44{fill:#E1E1E1;}
	.st45{fill:#966446;}
	.st46{fill:#BE915A;}
	.st47{fill:#B9B9B9;}
	.st48{fill:#F0C727;}
	.st49{fill:#50AF69;}
	.st50{fill:#FFE6E6;}
	.st51{fill:#FFB750;}
	.st52{fill:#FFC455;}
	.st53{fill:#FFCD55;}
	.st54{fill:#9BC800;}
	.st55{fill:#FFE14E;}
	.st56{fill:#FFB14E;}
	.st57{fill:#B46446;}
	.st58{fill:#5FA000;}
	.st59{fill:#F2DD30;}
	.st60{fill:#FFC855;}
	.st61{fill:#A0A0A0;}
	.st62{fill:#69B469;}
	.st63{fill:#F4E08F;}
	.st64{fill:#ECD077;}
	.st65{fill:#FCF0A8;}
	.st66{fill:#FAB446;}
	.st67{fill:#C8414B;}
	.st68{fill:#FF9B46;}
	.st69{fill:#FF9B55;}
	.st70{fill:#82C3D2;}
	.st71{fill:#5AA587;}
	.st72{fill:#CDCDCD;}
	.st73{fill:#B4A08C;}
	.st74{fill:#FFD250;}
	.st75{fill:#00C3A0;}
	.st76{fill:#00AADC;}
	.st77{fill:#732D37;}
	.st78{fill:#AAD264;}
	.st79{fill:#874150;}
	.st80{fill:#783C46;}
	.st81{fill:#FFB478;}
	.st82{fill:#9B4B5A;}
	.st83{fill:#FFCD5A;}
	.st84{fill:#FFAA5A;}
	.st85{fill:#FF875A;}
	.st86{fill:#E6B432;}
	.st87{fill:#C86464;}
	.st88{fill:#FFF5E1;}
	.st89{fill:#963C3C;}
	.st90{fill:#5A8250;}
	.st91{fill:#AFEBFF;}
	.st92{fill:#557DE6;}
	.st93{fill:#D23741;}
	.st94{fill:#64C86E;}
	.st95{fill:#873250;}
	.st96{fill:#41AA5A;}
	.st97{fill:#8CD7FF;}
	.st98{fill:#6EC86E;}
	.st99{fill:#FFF0E1;}
	.st100{fill:#FFC75A;}
	.st101{fill:#FFD350;}
	.st102{fill:#FFBE50;}
	.st103{fill:#A54B50;}
	.st104{fill:#C87878;}
	.st105{fill:#FF1722;}
	.st106{fill:#FFB441;}
	.st107{fill:#5064AA;}
	.st108{fill:#FFA0D2;}
	.st109{fill:#FF7350;}
	.st110{fill:#245DBD;}
	.st111{fill:#D35A10;}
	.st112{fill:#FFA033;}
	.st113{fill:#FF9480;}
	.st114{fill:#FFA0E4;}
	.st115{fill:#696E7D;}
	.st116{fill:#FFFCFF;}
	.st117{fill:#EBEBEB;}
	.st118{fill:#FF4B57;}
	.st119{fill:#D2D2D2;}
	.st120{fill:#F0C814;}
	.st121{fill:#F7B518;}
	.st122{fill:#2C2F38;}
	.st123{fill:#4C8056;}
	.st124{fill:#F0C419;}
	.st125{fill:#C03A2B;}
	.st126{fill:#EA3F3F;}
	.st127{fill:#E4E3E1;}
	.st128{fill:#2472B2;}
</style>
<g>
	<path class="st1" d="M31.97,3.13H0v-2.6c0-0.27,0.25-0.49,0.55-0.49h30.87c0.3,0,0.55,0.22,0.55,0.49V3.13z M31.97,3.13"/>
	<rect y="3.13" class="st7" width="31.97" height="3.08"/>
	<rect y="6.21" class="st0" width="31.97" height="3.08"/>
	<rect y="9.3" class="st1" width="31.97" height="3.08"/>
	<rect y="12.38" class="st7" width="31.97" height="3.08"/>
	<path class="st0" d="M31.42,18.55H0.55c-0.3,0-0.55-0.22-0.55-0.49v-2.6h31.97v2.6C31.97,18.33,31.72,18.55,31.42,18.55
		L31.42,18.55z M31.42,18.55"/>
	<path class="st3" d="M19.29,9.3c0,1.61-1.48,2.92-3.31,2.92c-1.83,0-3.31-1.31-3.31-2.92c0-1.61,1.48-2.92,3.31-2.92
		C17.81,6.38,19.29,7.68,19.29,9.3L19.29,9.3z M19.29,9.3"/>
	<path class="st0" d="M16.18,7.52l0.33-0.12c0.05-0.02,0.07-0.06,0.05-0.11c-0.07-0.14-0.27-0.44-0.64-0.45
		c-0.24-0.01-0.41,0.04-0.51,0.08C15.36,6.95,15.34,7,15.36,7.04l0.2,0.3L16.18,7.52z M16.18,7.52"/>
	<path class="st7" d="M15.92,6.85c-0.03,0-0.05,0-0.08,0l-0.04,0.46l0.19,0.09l0.41-0.33C16.3,6.96,16.14,6.86,15.92,6.85
		L15.92,6.85z M15.92,6.85"/>
	<path class="st1" d="M17.32,10.22L15.85,8.7c0-0.31,0.13-0.57,0.2-0.69c0.2-0.08,0.33-0.28,0.28-0.49
		c-0.04-0.16-0.18-0.29-0.36-0.32c-0.32-0.06-0.61,0.15-0.61,0.42c0,0.01,0,0.02,0,0.03c-0.32,0.07-0.38,0.16-0.38,0.16
		s0.21-0.05,0.39-0.09c0,0.01,0.01,0.03,0.01,0.04l-0.36,0.11l0.39-0.04c0.04,0.07,0.11,0.13,0.18,0.17
		c-0.29,0.21-0.74,0.6-0.74,1.04c0,0.4,0.34,0.67,0.76,0.85c0.15,0.06,0.28,0.14,0.4,0.25l0,0l0.04,0.5h-0.83
		c-0.31,0-0.39,0.18-0.39,0.47l0.15-0.18l0.12,0.2l0.02-0.23l0.13,0.15c0,0,0-0.19,0.16-0.22c0.09-0.01,0.39-0.03,0.65-0.03
		l0.05,0.74c-0.35,0-0.75,0.14-0.75,0.14c0.12-0.02,0.42,0.02,0.42,0.02l-0.05,0.13c0.35-0.17,0.98-0.17,0.98-0.17
		s-0.14-0.08-0.46-0.12l0.01-0.75h0.51l0.08-0.18c0,0-0.26-0.31-0.26-0.47C17,10.21,17.32,10.22,17.32,10.22L17.32,10.22z
		 M16.28,10.63l0-0.26c0.15,0.14,0.27,0.26,0.27,0.26H16.28z M16.28,10.63"/>
	<path class="st115" d="M17.32,10.44C17.2,10,16.66,9.87,16.09,9.57c-0.61-0.33-0.25-0.87-0.25-0.87s2.06,0.53,2.21,1.3
		c0.12,0.6-0.37,0.98-0.61,1.08l0.09-0.22h-0.46c0,0,0.48-0.33,0.49-0.65L17.32,10.44z M17.32,10.44"/>
	<path class="st116" d="M18.06,10c-0.1-0.51-1.05-0.92-1.68-1.14c-0.2-0.02-0.37,0.28,0.17,0.59c0.73,0.43,0.77,0.98,0.77,0.98
		l0.25-0.22c-0.01,0.32-0.49,0.65-0.49,0.65h0.46l-0.09,0.22C17.69,10.98,18.17,10.6,18.06,10L18.06,10z M18.06,10"/>
	<path class="st0" d="M18.06,10c-0.07-0.34-0.51-0.63-0.98-0.86c-0.23-0.06-0.42-0.05-0.42-0.05c0.14,0.07,0.2,0.26,0.2,0.26
		c-0.1-0.05-0.32-0.03-0.32-0.03c0.06,0.05,0.12,0.14,0.16,0.22c0.6,0.41,0.63,0.89,0.63,0.89l0.25-0.22
		c-0.01,0.32-0.49,0.65-0.49,0.65h0.46l-0.09,0.22C17.69,10.98,18.17,10.6,18.06,10L18.06,10z M18.06,10"/>
	<path class="st3" d="M15.73,7.58c0,0.04-0.04,0.07-0.08,0.07c-0.05,0-0.08-0.03-0.08-0.07c0-0.04,0.04-0.07,0.08-0.07
		C15.69,7.51,15.73,7.54,15.73,7.58L15.73,7.58z M15.73,7.58"/>
	<path class="st0" d="M15.43,7.85c0,0-0.18,0.19-0.06,0.24c0.12,0.05,0.23-0.1,0.23-0.1L15.43,7.85z M15.43,7.85"/>
</g>
</svg>
