<?xml version="1.0" encoding="utf-8"?>
<!-- Generator: Adobe Illustrator 25.0.0, SVG Export Plug-In . SVG Version: 6.00 Build 0)  -->
<svg version="1.1" id="Capa_1" xmlns="http://www.w3.org/2000/svg" xmlns:xlink="http://www.w3.org/1999/xlink" x="0px" y="0px"
	 viewBox="0 0 32 18.62" style="enable-background:new 0 0 32 18.62;" xml:space="preserve">
<style type="text/css">
	.st0{fill:#FF4B55;}
	.st1{fill:#464655;}
	.st2{fill:#73AF00;}
	.st3{fill:#F5F5F5;}
	.st4{fill:#41479B;}
	.st5{fill:#FFF5DC;}
	.st6{fill:#D27D69;}
	.st7{fill:#FFE15A;}
	.st8{fill:#B95546;}
	.st9{fill:#DCBE82;}
	.st10{fill:#D2AA73;}
	.st11{fill:#4173CD;}
	.st12{fill:#82AFFF;}
	.st13{fill:#F09146;}
	.st14{fill:#FFB400;}
	.st15{fill:#965032;}
	.st16{fill:#BE7855;}
	.st17{fill:#FFBE3C;}
	.st18{fill:#EAF3F5;}
	.st19{fill:#8C5A28;}
	.st20{fill:#F0C850;}
	.st21{fill:#FF6E55;}
	.st22{fill:#FFBE5A;}
	.st23{fill:#3CC8FF;}
	.st24{fill:#825546;}
	.st25{fill:#FFD255;}
	.st26{fill:#FFD25A;}
	.st27{fill:#509664;}
	.st28{fill:#F0AA00;}
	.st29{fill:#A561CD;}
	.st30{fill:#B34900;}
	.st31{fill:#64B496;}
	.st32{fill:#FF6B71;}
	.st33{fill:#5F64B9;}
	.st34{fill:#F5F0F0;}
	.st35{fill:#5A4646;}
	.st36{fill:#E6E1CD;}
	.st37{fill:#FFD0AF;}
	.st38{fill:#FFAF94;}
	.st39{fill:#8CB400;}
	.st40{fill:#69C3FF;}
	.st41{fill:#009B64;}
	.st42{fill:#5AA0E6;}
	.st43{fill:#FFC88C;}
	.st44{fill:#E1E1E1;}
	.st45{fill:#966446;}
	.st46{fill:#BE915A;}
	.st47{fill:#B9B9B9;}
	.st48{fill:#F0C727;}
	.st49{fill:#50AF69;}
	.st50{fill:#FFE6E6;}
	.st51{fill:#FFB750;}
	.st52{fill:#FFC455;}
	.st53{fill:#FFCD55;}
	.st54{fill:#9BC800;}
	.st55{fill:#FFE14E;}
	.st56{fill:#FFB14E;}
	.st57{fill:#B46446;}
	.st58{fill:#5FA000;}
	.st59{fill:#F2DD30;}
	.st60{fill:#FFC855;}
	.st61{fill:#A0A0A0;}
	.st62{fill:#69B469;}
	.st63{fill:#F4E08F;}
	.st64{fill:#ECD077;}
	.st65{fill:#FCF0A8;}
	.st66{fill:#FAB446;}
	.st67{fill:#C8414B;}
	.st68{fill:#FF9B46;}
	.st69{fill:#FF9B55;}
	.st70{fill:#82C3D2;}
	.st71{fill:#5AA587;}
	.st72{fill:#CDCDCD;}
	.st73{fill:#B4A08C;}
	.st74{fill:#FFD250;}
	.st75{fill:#00C3A0;}
	.st76{fill:#00AADC;}
	.st77{fill:#732D37;}
	.st78{fill:#AAD264;}
	.st79{fill:#874150;}
	.st80{fill:#783C46;}
	.st81{fill:#FFB478;}
	.st82{fill:#9B4B5A;}
	.st83{fill:#FFCD5A;}
	.st84{fill:#FFAA5A;}
	.st85{fill:#FF875A;}
	.st86{fill:#E6B432;}
	.st87{fill:#C86464;}
	.st88{fill:#FFF5E1;}
	.st89{fill:#963C3C;}
	.st90{fill:#5A8250;}
	.st91{fill:#AFEBFF;}
	.st92{fill:#557DE6;}
	.st93{fill:#D23741;}
	.st94{fill:#64C86E;}
	.st95{fill:#873250;}
	.st96{fill:#41AA5A;}
	.st97{fill:#8CD7FF;}
	.st98{fill:#6EC86E;}
	.st99{fill:#FFF0E1;}
	.st100{fill:#FFC75A;}
	.st101{fill:#FFD350;}
	.st102{fill:#FFBE50;}
	.st103{fill:#A54B50;}
	.st104{fill:#C87878;}
	.st105{fill:#FF1722;}
	.st106{fill:#FFB441;}
	.st107{fill:#5064AA;}
	.st108{fill:#FFA0D2;}
	.st109{fill:#FF7350;}
	.st110{fill:#245DBD;}
	.st111{fill:#D35A10;}
	.st112{fill:#FFA033;}
	.st113{fill:#FF9480;}
	.st114{fill:#FFA0E4;}
	.st115{fill:#696E7D;}
	.st116{fill:#FFFCFF;}
	.st117{fill:#EBEBEB;}
	.st118{fill:#FF4B57;}
	.st119{fill:#D2D2D2;}
	.st120{fill:#F0C814;}
	.st121{fill:#F7B518;}
	.st122{fill:#2C2F38;}
	.st123{fill:#4C8056;}
	.st124{fill:#F0C419;}
	.st125{fill:#C03A2B;}
	.st126{fill:#EA3F3F;}
	.st127{fill:#E4E3E1;}
	.st128{fill:#2472B2;}
</style>
<g>
	<path class="st3" d="M31.42,18.55H0.55c-0.3,0-0.55-0.22-0.55-0.49V0.53c0-0.27,0.25-0.49,0.55-0.49h30.87
		c0.3,0,0.55,0.22,0.55,0.49v17.53C31.97,18.33,31.72,18.55,31.42,18.55L31.42,18.55z M31.42,18.55"/>
	<path class="st0" d="M31.97,1.47H0V0.53c0-0.27,0.25-0.49,0.55-0.49h30.87c0.3,0,0.55,0.22,0.55,0.49V1.47z M31.97,1.47"/>
	<rect y="5.74" class="st0" width="31.97" height="1.42"/>
	<rect y="2.89" class="st0" width="31.97" height="1.42"/>
	<path class="st0" d="M31.97,10.01H0.55C0.25,10.01,0,9.79,0,9.52V8.59h31.97V10.01z M31.97,10.01"/>
	<rect y="14.28" class="st0" width="31.97" height="1.42"/>
	<path class="st0" d="M31.42,18.55H0.55c-0.3,0-0.55-0.22-0.55-0.49v-0.94h31.97v0.94C31.97,18.33,31.72,18.55,31.42,18.55
		L31.42,18.55z M31.42,18.55"/>
	<rect y="11.43" class="st0" width="31.97" height="1.42"/>
	<path class="st4" d="M14.33,0.04H0.55C0.25,0.04,0,0.26,0,0.53v8.99c0,0.27,0.25,0.49,0.55,0.49h13.78c0.3,0,0.55-0.22,0.55-0.49
		V0.53C14.88,0.26,14.64,0.04,14.33,0.04L14.33,0.04z M14.33,0.04"/>
	<path class="st3" d="M1.55,1.16l0.12,0.32l0.39,0c0.05,0,0.07,0.06,0.03,0.08l-0.31,0.2L1.89,2.1c0.02,0.04-0.04,0.08-0.08,0.05
		L1.5,1.95l-0.31,0.2C1.14,2.18,1.09,2.14,1.1,2.1l0.12-0.32l-0.31-0.2C0.87,1.54,0.89,1.49,0.94,1.49l0.39,0l0.12-0.32
		C1.46,1.12,1.53,1.12,1.55,1.16L1.55,1.16z M1.55,1.16"/>
	<path class="st3" d="M1.55,2.85l0.12,0.32l0.39,0c0.05,0,0.07,0.06,0.03,0.08l-0.31,0.2l0.12,0.32c0.02,0.04-0.04,0.08-0.08,0.05
		L1.5,3.64l-0.31,0.2C1.14,3.87,1.09,3.83,1.1,3.79l0.12-0.32l-0.31-0.2C0.87,3.24,0.89,3.18,0.94,3.18l0.39,0l0.12-0.32
		C1.46,2.81,1.53,2.81,1.55,2.85L1.55,2.85z M1.55,2.85"/>
	<path class="st3" d="M1.55,4.54l0.12,0.32l0.39,0c0.05,0,0.07,0.06,0.03,0.08l-0.31,0.2l0.12,0.32c0.02,0.04-0.04,0.08-0.08,0.05
		L1.5,5.33l-0.31,0.2C1.14,5.56,1.09,5.52,1.1,5.48l0.12-0.32l-0.31-0.2C0.87,4.93,0.89,4.87,0.94,4.87l0.39,0l0.12-0.32
		C1.46,4.5,1.53,4.5,1.55,4.54L1.55,4.54z M1.55,4.54"/>
	<path class="st3" d="M1.55,6.24l0.12,0.32l0.39,0c0.05,0,0.07,0.06,0.03,0.08l-0.31,0.2l0.12,0.32c0.02,0.04-0.04,0.08-0.08,0.05
		L1.5,7.03l-0.31,0.2C1.14,7.25,1.09,7.21,1.1,7.17l0.12-0.32l-0.31-0.2C0.87,6.62,0.89,6.56,0.94,6.56l0.39,0l0.12-0.32
		C1.46,6.19,1.53,6.19,1.55,6.24L1.55,6.24z M1.55,6.24"/>
	<path class="st3" d="M1.55,7.93l0.12,0.32l0.39,0c0.05,0,0.07,0.06,0.03,0.08l-0.31,0.2l0.12,0.32c0.02,0.04-0.04,0.08-0.08,0.05
		L1.5,8.72l-0.31,0.2C1.14,8.94,1.09,8.91,1.1,8.86l0.12-0.32l-0.31-0.2C0.87,8.31,0.89,8.25,0.94,8.25l0.39,0l0.12-0.32
		C1.46,7.89,1.53,7.89,1.55,7.93L1.55,7.93z M1.55,7.93"/>
	<path class="st3" d="M3.03,1.99l0.12,0.32l0.39,0c0.05,0,0.07,0.06,0.03,0.08L3.26,2.6l0.12,0.32C3.39,2.97,3.34,3,3.3,2.98
		l-0.31-0.2l-0.31,0.2C2.63,3,2.58,2.97,2.59,2.93L2.71,2.6L2.4,2.4C2.36,2.37,2.38,2.32,2.43,2.32l0.39,0l0.12-0.32
		C2.95,1.95,3.02,1.95,3.03,1.99L3.03,1.99z M3.03,1.99"/>
	<path class="st3" d="M3.03,3.68l0.12,0.32l0.39,0c0.05,0,0.07,0.06,0.03,0.08l-0.31,0.2l0.12,0.32C3.39,4.66,3.34,4.7,3.3,4.67
		l-0.31-0.2l-0.31,0.2C2.63,4.7,2.58,4.66,2.59,4.62l0.12-0.32L2.4,4.09C2.36,4.07,2.38,4.01,2.43,4.01l0.39,0l0.12-0.32
		C2.95,3.64,3.02,3.64,3.03,3.68L3.03,3.68z M3.03,3.68"/>
	<path class="st3" d="M3.03,5.37L3.16,5.7l0.39,0c0.05,0,0.07,0.06,0.03,0.08l-0.31,0.2l0.12,0.32C3.39,6.35,3.34,6.39,3.3,6.36
		l-0.31-0.2l-0.31,0.2C2.63,6.39,2.58,6.35,2.59,6.31l0.12-0.32L2.4,5.78C2.36,5.76,2.38,5.7,2.43,5.7l0.39,0l0.12-0.32
		C2.95,5.33,3.02,5.33,3.03,5.37L3.03,5.37z M3.03,5.37"/>
	<path class="st3" d="M3.03,7.07l0.12,0.32l0.39,0c0.05,0,0.07,0.06,0.03,0.08l-0.31,0.2L3.38,8C3.39,8.04,3.34,8.08,3.3,8.05
		l-0.31-0.2l-0.31,0.2C2.63,8.08,2.58,8.04,2.59,8l0.12-0.32L2.4,7.47C2.36,7.45,2.38,7.39,2.43,7.39l0.39,0l0.12-0.32
		C2.95,7.02,3.02,7.02,3.03,7.07L3.03,7.07z M3.03,7.07"/>
	<path class="st3" d="M4.52,1.16l0.12,0.32l0.39,0c0.05,0,0.07,0.06,0.03,0.08l-0.31,0.2L4.86,2.1c0.01,0.04-0.04,0.08-0.08,0.05
		l-0.31-0.2l-0.31,0.2C4.12,2.18,4.06,2.14,4.08,2.1l0.12-0.32l-0.31-0.2C3.84,1.54,3.86,1.49,3.91,1.49l0.39,0l0.12-0.32
		C4.44,1.12,4.5,1.12,4.52,1.16L4.52,1.16z M4.52,1.16"/>
	<path class="st3" d="M4.52,2.85l0.12,0.32l0.39,0c0.05,0,0.07,0.06,0.03,0.08l-0.31,0.2l0.12,0.32c0.01,0.04-0.04,0.08-0.08,0.05
		l-0.31-0.2l-0.31,0.2C4.12,3.87,4.06,3.83,4.08,3.79l0.12-0.32l-0.31-0.2C3.84,3.24,3.86,3.18,3.91,3.18l0.39,0l0.12-0.32
		C4.44,2.81,4.5,2.81,4.52,2.85L4.52,2.85z M4.52,2.85"/>
	<path class="st3" d="M4.52,4.54l0.12,0.32l0.39,0c0.05,0,0.07,0.06,0.03,0.08l-0.31,0.2l0.12,0.32c0.01,0.04-0.04,0.08-0.08,0.05
		l-0.31-0.2l-0.31,0.2C4.12,5.56,4.06,5.52,4.08,5.48l0.12-0.32l-0.31-0.2C3.84,4.93,3.86,4.87,3.91,4.87l0.39,0l0.12-0.32
		C4.44,4.5,4.5,4.5,4.52,4.54L4.52,4.54z M4.52,4.54"/>
	<path class="st3" d="M4.52,6.24l0.12,0.32l0.39,0c0.05,0,0.07,0.06,0.03,0.08l-0.31,0.2l0.12,0.32c0.01,0.04-0.04,0.08-0.08,0.05
		l-0.31-0.2l-0.31,0.2C4.12,7.25,4.06,7.21,4.08,7.17l0.12-0.32l-0.31-0.2C3.84,6.62,3.86,6.56,3.91,6.56l0.39,0l0.12-0.32
		C4.44,6.19,4.5,6.19,4.52,6.24L4.52,6.24z M4.52,6.24"/>
	<path class="st3" d="M4.52,7.93l0.12,0.32l0.39,0c0.05,0,0.07,0.06,0.03,0.08l-0.31,0.2l0.12,0.32c0.01,0.04-0.04,0.08-0.08,0.05
		l-0.31-0.2l-0.31,0.2C4.12,8.94,4.06,8.91,4.08,8.86l0.12-0.32l-0.31-0.2C3.84,8.31,3.86,8.25,3.91,8.25l0.39,0l0.12-0.32
		C4.44,7.89,4.5,7.89,4.52,7.93L4.52,7.93z M4.52,7.93"/>
	<path class="st3" d="M6,1.99l0.12,0.32l0.39,0c0.05,0,0.07,0.06,0.03,0.08L6.23,2.6l0.12,0.32C6.36,2.97,6.31,3,6.27,2.98
		l-0.31-0.2l-0.31,0.2C5.6,3,5.55,2.97,5.56,2.93L5.68,2.6L5.37,2.4C5.33,2.37,5.35,2.32,5.4,2.32l0.39,0l0.12-0.32
		C5.92,1.95,5.99,1.95,6,1.99L6,1.99z M6,1.99"/>
	<path class="st3" d="M6,3.68l0.12,0.32l0.39,0c0.05,0,0.07,0.06,0.03,0.08l-0.31,0.2l0.12,0.32C6.36,4.66,6.31,4.7,6.27,4.67
		l-0.31-0.2l-0.31,0.2C5.6,4.7,5.55,4.66,5.56,4.62l0.12-0.32l-0.31-0.2C5.33,4.07,5.35,4.01,5.4,4.01l0.39,0l0.12-0.32
		C5.92,3.64,5.99,3.64,6,3.68L6,3.68z M6,3.68"/>
	<path class="st3" d="M6,5.37L6.13,5.7l0.39,0c0.05,0,0.07,0.06,0.03,0.08l-0.31,0.2l0.12,0.32c0.01,0.04-0.04,0.08-0.08,0.05
		l-0.31-0.2l-0.31,0.2C5.6,6.39,5.55,6.35,5.56,6.31l0.12-0.32l-0.31-0.2C5.33,5.76,5.35,5.7,5.4,5.7l0.39,0l0.12-0.32
		C5.92,5.33,5.99,5.33,6,5.37L6,5.37z M6,5.37"/>
	<path class="st3" d="M6,7.07l0.12,0.32l0.39,0c0.05,0,0.07,0.06,0.03,0.08l-0.31,0.2L6.35,8c0.01,0.04-0.04,0.08-0.08,0.05
		l-0.31-0.2l-0.31,0.2C5.6,8.08,5.55,8.04,5.56,8l0.12-0.32l-0.31-0.2C5.33,7.45,5.35,7.39,5.4,7.39l0.39,0l0.12-0.32
		C5.92,7.02,5.99,7.02,6,7.07L6,7.07z M6,7.07"/>
	<path class="st3" d="M7.49,1.16l0.12,0.32l0.39,0c0.05,0,0.07,0.06,0.03,0.08l-0.31,0.2L7.83,2.1C7.85,2.14,7.8,2.18,7.75,2.15
		l-0.31-0.2l-0.31,0.2C7.09,2.18,7.03,2.14,7.05,2.1l0.12-0.32l-0.31-0.2C6.81,1.54,6.83,1.49,6.88,1.49l0.39,0l0.12-0.32
		C7.41,1.12,7.47,1.12,7.49,1.16L7.49,1.16z M7.49,1.16"/>
	<path class="st3" d="M7.49,2.85l0.12,0.32l0.39,0c0.05,0,0.07,0.06,0.03,0.08l-0.31,0.2l0.12,0.32C7.85,3.83,7.8,3.87,7.75,3.84
		l-0.31-0.2l-0.31,0.2C7.09,3.87,7.03,3.83,7.05,3.79l0.12-0.32l-0.31-0.2C6.81,3.24,6.83,3.18,6.88,3.18l0.39,0l0.12-0.32
		C7.41,2.81,7.47,2.81,7.49,2.85L7.49,2.85z M7.49,2.85"/>
	<path class="st3" d="M7.49,4.54l0.12,0.32l0.39,0c0.05,0,0.07,0.06,0.03,0.08l-0.31,0.2l0.12,0.32C7.85,5.52,7.8,5.56,7.75,5.53
		l-0.31-0.2l-0.31,0.2C7.09,5.56,7.03,5.52,7.05,5.48l0.12-0.32l-0.31-0.2C6.81,4.93,6.83,4.87,6.88,4.87l0.39,0l0.12-0.32
		C7.41,4.5,7.47,4.5,7.49,4.54L7.49,4.54z M7.49,4.54"/>
	<path class="st3" d="M7.49,6.24l0.12,0.32l0.39,0c0.05,0,0.07,0.06,0.03,0.08l-0.31,0.2l0.12,0.32C7.85,7.21,7.8,7.25,7.75,7.22
		l-0.31-0.2l-0.31,0.2C7.09,7.25,7.03,7.21,7.05,7.17l0.12-0.32l-0.31-0.2C6.81,6.62,6.83,6.56,6.88,6.56l0.39,0l0.12-0.32
		C7.41,6.19,7.47,6.19,7.49,6.24L7.49,6.24z M7.49,6.24"/>
	<path class="st3" d="M7.49,7.93l0.12,0.32l0.39,0c0.05,0,0.07,0.06,0.03,0.08l-0.31,0.2l0.12,0.32C7.85,8.91,7.8,8.94,7.75,8.91
		l-0.31-0.2l-0.31,0.2C7.09,8.94,7.03,8.91,7.05,8.86l0.12-0.32l-0.31-0.2C6.81,8.31,6.83,8.25,6.88,8.25l0.39,0l0.12-0.32
		C7.41,7.89,7.47,7.89,7.49,7.93L7.49,7.93z M7.49,7.93"/>
	<path class="st3" d="M8.98,1.99L9.1,2.31l0.39,0c0.05,0,0.07,0.06,0.03,0.08L9.2,2.6l0.12,0.32C9.34,2.97,9.28,3,9.24,2.98
		l-0.31-0.2l-0.31,0.2C8.57,3,8.52,2.97,8.53,2.93L8.65,2.6L8.34,2.4C8.3,2.37,8.32,2.32,8.37,2.32l0.39,0l0.12-0.32
		C8.89,1.95,8.96,1.95,8.98,1.99L8.98,1.99z M8.98,1.99"/>
	<path class="st3" d="M8.98,3.68L9.1,4.01l0.39,0c0.05,0,0.07,0.06,0.03,0.08L9.2,4.29l0.12,0.32C9.34,4.66,9.28,4.7,9.24,4.67
		l-0.31-0.2l-0.31,0.2C8.57,4.7,8.52,4.66,8.53,4.62l0.12-0.32l-0.31-0.2C8.3,4.07,8.32,4.01,8.37,4.01l0.39,0l0.12-0.32
		C8.89,3.64,8.96,3.64,8.98,3.68L8.98,3.68z M8.98,3.68"/>
	<path class="st3" d="M8.98,5.37L9.1,5.7l0.39,0c0.05,0,0.07,0.06,0.03,0.08L9.2,5.99l0.12,0.32c0.02,0.04-0.04,0.08-0.08,0.05
		l-0.31-0.2l-0.31,0.2C8.57,6.39,8.52,6.35,8.53,6.31l0.12-0.32l-0.31-0.2C8.3,5.76,8.32,5.7,8.37,5.7l0.39,0l0.12-0.32
		C8.89,5.33,8.96,5.33,8.98,5.37L8.98,5.37z M8.98,5.37"/>
	<path class="st3" d="M8.98,7.07L9.1,7.39l0.39,0c0.05,0,0.07,0.06,0.03,0.08L9.2,7.68L9.32,8c0.02,0.04-0.04,0.08-0.08,0.05
		l-0.31-0.2l-0.31,0.2C8.57,8.08,8.52,8.04,8.53,8l0.12-0.32l-0.31-0.2C8.3,7.45,8.32,7.39,8.37,7.39l0.39,0l0.12-0.32
		C8.89,7.02,8.96,7.02,8.98,7.07L8.98,7.07z M8.98,7.07"/>
	<path class="st3" d="M10.46,1.16l0.12,0.32l0.39,0c0.05,0,0.07,0.06,0.03,0.08l-0.31,0.2l0.12,0.32c0.02,0.04-0.04,0.08-0.08,0.05
		l-0.31-0.2l-0.31,0.2C10.06,2.18,10,2.14,10.02,2.1l0.12-0.32l-0.31-0.2C9.78,1.54,9.81,1.49,9.86,1.49l0.39,0l0.12-0.32
		C10.38,1.12,10.45,1.12,10.46,1.16L10.46,1.16z M10.46,1.16"/>
	<path class="st3" d="M10.46,2.85l0.12,0.32l0.39,0c0.05,0,0.07,0.06,0.03,0.08l-0.31,0.2l0.12,0.32c0.02,0.04-0.04,0.08-0.08,0.05
		l-0.31-0.2l-0.31,0.2C10.06,3.87,10,3.83,10.02,3.79l0.12-0.32l-0.31-0.2C9.78,3.24,9.81,3.18,9.86,3.18l0.39,0l0.12-0.32
		C10.38,2.81,10.45,2.81,10.46,2.85L10.46,2.85z M10.46,2.85"/>
	<path class="st3" d="M10.46,4.54l0.12,0.32l0.39,0c0.05,0,0.07,0.06,0.03,0.08l-0.31,0.2l0.12,0.32c0.02,0.04-0.04,0.08-0.08,0.05
		l-0.31-0.2l-0.31,0.2C10.06,5.56,10,5.52,10.02,5.48l0.12-0.32l-0.31-0.2C9.78,4.93,9.81,4.87,9.86,4.87l0.39,0l0.12-0.32
		C10.38,4.5,10.45,4.5,10.46,4.54L10.46,4.54z M10.46,4.54"/>
	<path class="st3" d="M10.46,6.24l0.12,0.32l0.39,0c0.05,0,0.07,0.06,0.03,0.08l-0.31,0.2l0.12,0.32c0.02,0.04-0.04,0.08-0.08,0.05
		l-0.31-0.2l-0.31,0.2C10.06,7.25,10,7.21,10.02,7.17l0.12-0.32l-0.31-0.2C9.78,6.62,9.81,6.56,9.86,6.56l0.39,0l0.12-0.32
		C10.38,6.19,10.45,6.19,10.46,6.24L10.46,6.24z M10.46,6.24"/>
	<path class="st3" d="M10.46,7.93l0.12,0.32l0.39,0c0.05,0,0.07,0.06,0.03,0.08l-0.31,0.2l0.12,0.32c0.02,0.04-0.04,0.08-0.08,0.05
		l-0.31-0.2l-0.31,0.2C10.06,8.94,10,8.91,10.02,8.86l0.12-0.32l-0.31-0.2C9.78,8.31,9.81,8.25,9.86,8.25l0.39,0l0.12-0.32
		C10.38,7.89,10.45,7.89,10.46,7.93L10.46,7.93z M10.46,7.93"/>
	<path class="st3" d="M11.95,1.99l0.12,0.32l0.39,0c0.05,0,0.07,0.06,0.03,0.08l-0.31,0.2l0.12,0.32c0.02,0.04-0.04,0.08-0.08,0.05
		l-0.31-0.2l-0.31,0.2C11.54,3,11.49,2.97,11.5,2.93l0.12-0.32l-0.31-0.2c-0.04-0.03-0.02-0.08,0.03-0.08l0.39,0l0.12-0.32
		C11.86,1.95,11.93,1.95,11.95,1.99L11.95,1.99z M11.95,1.99"/>
	<path class="st3" d="M11.95,3.68l0.12,0.32l0.39,0c0.05,0,0.07,0.06,0.03,0.08l-0.31,0.2l0.12,0.32c0.02,0.04-0.04,0.08-0.08,0.05
		l-0.31-0.2l-0.31,0.2c-0.04,0.03-0.09-0.01-0.08-0.05l0.12-0.32l-0.31-0.2c-0.04-0.03-0.02-0.08,0.03-0.08l0.39,0l0.12-0.32
		C11.86,3.64,11.93,3.64,11.95,3.68L11.95,3.68z M11.95,3.68"/>
	<path class="st3" d="M11.95,5.37l0.12,0.32l0.39,0c0.05,0,0.07,0.06,0.03,0.08l-0.31,0.2l0.12,0.32c0.02,0.04-0.04,0.08-0.08,0.05
		l-0.31-0.2l-0.31,0.2c-0.04,0.03-0.09-0.01-0.08-0.05l0.12-0.32l-0.31-0.2c-0.04-0.03-0.02-0.08,0.03-0.08l0.39,0l0.12-0.32
		C11.86,5.33,11.93,5.33,11.95,5.37L11.95,5.37z M11.95,5.37"/>
	<path class="st3" d="M11.95,7.07l0.12,0.32l0.39,0c0.05,0,0.07,0.06,0.03,0.08l-0.31,0.2L12.29,8c0.02,0.04-0.04,0.08-0.08,0.05
		l-0.31-0.2l-0.31,0.2C11.54,8.08,11.49,8.04,11.5,8l0.12-0.32l-0.31-0.2c-0.04-0.03-0.02-0.08,0.03-0.08l0.39,0l0.12-0.32
		C11.86,7.02,11.93,7.02,11.95,7.07L11.95,7.07z M11.95,7.07"/>
	<path class="st3" d="M13.43,1.16l0.12,0.32l0.39,0c0.05,0,0.07,0.06,0.03,0.08l-0.31,0.2l0.12,0.32c0.02,0.04-0.04,0.08-0.08,0.05
		l-0.31-0.2l-0.31,0.2c-0.04,0.03-0.09-0.01-0.08-0.05l0.12-0.32l-0.31-0.2c-0.04-0.03-0.02-0.08,0.03-0.08l0.39,0l0.12-0.32
		C13.35,1.12,13.42,1.12,13.43,1.16L13.43,1.16z M13.43,1.16"/>
	<path class="st3" d="M13.43,2.85l0.12,0.32l0.39,0c0.05,0,0.07,0.06,0.03,0.08l-0.31,0.2l0.12,0.32c0.02,0.04-0.04,0.08-0.08,0.05
		l-0.31-0.2l-0.31,0.2c-0.04,0.03-0.09-0.01-0.08-0.05l0.12-0.32l-0.31-0.2c-0.04-0.03-0.02-0.08,0.03-0.08l0.39,0l0.12-0.32
		C13.35,2.81,13.42,2.81,13.43,2.85L13.43,2.85z M13.43,2.85"/>
	<path class="st3" d="M13.43,4.54l0.12,0.32l0.39,0c0.05,0,0.07,0.06,0.03,0.08l-0.31,0.2l0.12,0.32c0.02,0.04-0.04,0.08-0.08,0.05
		l-0.31-0.2l-0.31,0.2c-0.04,0.03-0.09-0.01-0.08-0.05l0.12-0.32l-0.31-0.2c-0.04-0.03-0.02-0.08,0.03-0.08l0.39,0l0.12-0.32
		C13.35,4.5,13.42,4.5,13.43,4.54L13.43,4.54z M13.43,4.54"/>
	<path class="st3" d="M13.43,6.24l0.12,0.32l0.39,0c0.05,0,0.07,0.06,0.03,0.08l-0.31,0.2l0.12,0.32c0.02,0.04-0.04,0.08-0.08,0.05
		l-0.31-0.2l-0.31,0.2c-0.04,0.03-0.09-0.01-0.08-0.05l0.12-0.32l-0.31-0.2c-0.04-0.03-0.02-0.08,0.03-0.08l0.39,0l0.12-0.32
		C13.35,6.19,13.42,6.19,13.43,6.24L13.43,6.24z M13.43,6.24"/>
	<path class="st3" d="M13.43,7.93l0.12,0.32l0.39,0c0.05,0,0.07,0.06,0.03,0.08l-0.31,0.2l0.12,0.32c0.02,0.04-0.04,0.08-0.08,0.05
		l-0.31-0.2l-0.31,0.2c-0.04,0.03-0.09-0.01-0.08-0.05l0.12-0.32l-0.31-0.2c-0.04-0.03-0.02-0.08,0.03-0.08l0.39,0l0.12-0.32
		C13.35,7.89,13.42,7.89,13.43,7.93L13.43,7.93z M13.43,7.93"/>
</g>
</svg>
