<?xml version="1.0" encoding="utf-8"?>
<!-- Generator: Adobe Illustrator 25.0.0, SVG Export Plug-In . SVG Version: 6.00 Build 0)  -->
<svg version="1.1" id="Capa_1" xmlns="http://www.w3.org/2000/svg" xmlns:xlink="http://www.w3.org/1999/xlink" x="0px" y="0px"
	 viewBox="0 0 32 18.62" style="enable-background:new 0 0 32 18.62;" xml:space="preserve">
<style type="text/css">
	.st0{fill:#FF4B55;}
	.st1{fill:#464655;}
	.st2{fill:#73AF00;}
	.st3{fill:#F5F5F5;}
	.st4{fill:#41479B;}
	.st5{fill:#FFF5DC;}
	.st6{fill:#D27D69;}
	.st7{fill:#FFE15A;}
	.st8{fill:#B95546;}
	.st9{fill:#DCBE82;}
	.st10{fill:#D2AA73;}
	.st11{fill:#4173CD;}
	.st12{fill:#82AFFF;}
	.st13{fill:#F09146;}
	.st14{fill:#FFB400;}
	.st15{fill:#965032;}
	.st16{fill:#BE7855;}
	.st17{fill:#FFBE3C;}
	.st18{fill:#EAF3F5;}
	.st19{fill:#8C5A28;}
	.st20{fill:#F0C850;}
	.st21{fill:#FF6E55;}
	.st22{fill:#FFBE5A;}
	.st23{fill:#3CC8FF;}
	.st24{fill:#825546;}
	.st25{fill:#FFD255;}
	.st26{fill:#FFD25A;}
	.st27{fill:#509664;}
	.st28{fill:#F0AA00;}
	.st29{fill:#A561CD;}
	.st30{fill:#B34900;}
	.st31{fill:#64B496;}
	.st32{fill:#FF6B71;}
	.st33{fill:#5F64B9;}
	.st34{fill:#F5F0F0;}
	.st35{fill:#5A4646;}
	.st36{fill:#E6E1CD;}
	.st37{fill:#FFD0AF;}
	.st38{fill:#FFAF94;}
	.st39{fill:#8CB400;}
	.st40{fill:#69C3FF;}
	.st41{fill:#009B64;}
	.st42{fill:#5AA0E6;}
	.st43{fill:#FFC88C;}
	.st44{fill:#E1E1E1;}
	.st45{fill:#966446;}
	.st46{fill:#BE915A;}
	.st47{fill:#B9B9B9;}
	.st48{fill:#F0C727;}
	.st49{fill:#50AF69;}
	.st50{fill:#FFE6E6;}
	.st51{fill:#FFB750;}
	.st52{fill:#FFC455;}
	.st53{fill:#FFCD55;}
	.st54{fill:#9BC800;}
	.st55{fill:#FFE14E;}
	.st56{fill:#FFB14E;}
	.st57{fill:#B46446;}
	.st58{fill:#5FA000;}
	.st59{fill:#F2DD30;}
	.st60{fill:#FFC855;}
	.st61{fill:#A0A0A0;}
	.st62{fill:#69B469;}
	.st63{fill:#F4E08F;}
	.st64{fill:#ECD077;}
	.st65{fill:#FCF0A8;}
	.st66{fill:#FAB446;}
	.st67{fill:#C8414B;}
	.st68{fill:#FF9B46;}
	.st69{fill:#FF9B55;}
	.st70{fill:#82C3D2;}
	.st71{fill:#5AA587;}
	.st72{fill:#CDCDCD;}
	.st73{fill:#B4A08C;}
	.st74{fill:#FFD250;}
	.st75{fill:#00C3A0;}
	.st76{fill:#00AADC;}
	.st77{fill:#732D37;}
	.st78{fill:#AAD264;}
	.st79{fill:#874150;}
	.st80{fill:#783C46;}
	.st81{fill:#FFB478;}
	.st82{fill:#9B4B5A;}
	.st83{fill:#FFCD5A;}
	.st84{fill:#FFAA5A;}
	.st85{fill:#FF875A;}
	.st86{fill:#E6B432;}
	.st87{fill:#C86464;}
	.st88{fill:#FFF5E1;}
	.st89{fill:#963C3C;}
	.st90{fill:#5A8250;}
	.st91{fill:#AFEBFF;}
	.st92{fill:#557DE6;}
	.st93{fill:#D23741;}
	.st94{fill:#64C86E;}
	.st95{fill:#873250;}
	.st96{fill:#41AA5A;}
	.st97{fill:#8CD7FF;}
	.st98{fill:#6EC86E;}
	.st99{fill:#FFF0E1;}
	.st100{fill:#FFC75A;}
	.st101{fill:#FFD350;}
	.st102{fill:#FFBE50;}
	.st103{fill:#A54B50;}
	.st104{fill:#C87878;}
	.st105{fill:#FF1722;}
	.st106{fill:#FFB441;}
	.st107{fill:#5064AA;}
	.st108{fill:#FFA0D2;}
	.st109{fill:#FF7350;}
	.st110{fill:#245DBD;}
	.st111{fill:#D35A10;}
	.st112{fill:#FFA033;}
	.st113{fill:#FF9480;}
	.st114{fill:#FFA0E4;}
	.st115{fill:#696E7D;}
	.st116{fill:#FFFCFF;}
	.st117{fill:#EBEBEB;}
	.st118{fill:#FF4B57;}
	.st119{fill:#D2D2D2;}
	.st120{fill:#F0C814;}
	.st121{fill:#F7B518;}
	.st122{fill:#2C2F38;}
	.st123{fill:#4C8056;}
	.st124{fill:#F0C419;}
	.st125{fill:#C03A2B;}
	.st126{fill:#EA3F3F;}
	.st127{fill:#E4E3E1;}
	.st128{fill:#2472B2;}
</style>
<g>
	<path class="st3" d="M31.42,0.04H0.55C0.25,0.04,0,0.26,0,0.53v17.53c0,0.27,0.25,0.49,0.55,0.49h30.87c0.3,0,0.55-0.22,0.55-0.49
		V0.53C31.97,0.26,31.72,0.04,31.42,0.04L31.42,0.04z M31.42,0.04"/>
	<rect x="11.58" y="2.1" class="st11" width="20.39" height="2.06"/>
	<rect y="4.16" class="st3" width="31.97" height="2.06"/>
	<rect x="11.58" y="6.21" class="st11" width="20.39" height="2.06"/>
	<rect y="8.27" class="st3" width="31.97" height="2.06"/>
	<rect y="10.33" class="st11" width="31.97" height="2.06"/>
	<rect y="12.38" class="st3" width="31.97" height="2.06"/>
	<rect y="14.44" class="st11" width="31.97" height="2.06"/>
	<path class="st7" d="M3.99,1.33L4.92,5.1l1.44-0.53L3.99,1.33z M3.99,1.33"/>
	<path class="st83" d="M3.99,1.33l1.64,3.51L4.92,5.1L3.99,1.33z M3.99,1.33"/>
	<path class="st7" d="M7.58,8.98L6.66,5.21L5.22,5.74L7.58,8.98z M7.58,8.98"/>
	<path class="st83" d="M7.58,8.98L5.94,5.48l0.72-0.26L7.58,8.98z M7.58,8.98"/>
	<path class="st7" d="M10.12,3.57L5.85,4.39l0.6,1.27L10.12,3.57z M10.12,3.57"/>
	<path class="st83" d="M10.12,3.57L6.15,5.03l-0.3-0.64L10.12,3.57z M10.12,3.57"/>
	<path class="st7" d="M1.46,6.74l4.27-0.81l-0.6-1.27L1.46,6.74z M1.46,6.74"/>
	<path class="st83" d="M1.46,6.74l3.97-1.45l0.3,0.64L1.46,6.74z M1.46,6.74"/>
	<path class="st7" d="M7.58,1.33L5.22,4.58L6.66,5.1L7.58,1.33z M7.58,1.33"/>
	<path class="st83" d="M7.58,1.33L5.94,4.84L5.22,4.58L7.58,1.33z M7.58,1.33"/>
	<path class="st7" d="M3.99,8.98l2.36-3.24L4.92,5.21L3.99,8.98z M3.99,8.98"/>
	<path class="st83" d="M3.99,8.98l1.64-3.51l0.72,0.26L3.99,8.98z M3.99,8.98"/>
	<path class="st7" d="M10.12,6.74L6.45,4.65l-0.6,1.27L10.12,6.74z M10.12,6.74"/>
	<path class="st83" d="M10.12,6.74L6.15,5.29l0.3-0.64L10.12,6.74z M10.12,6.74"/>
	<path class="st7" d="M1.46,3.57l3.67,2.09l0.6-1.27L1.46,3.57z M1.46,3.57"/>
	<path class="st83" d="M1.46,3.57l3.97,1.45l-0.3,0.64L1.46,3.57z M1.46,3.57"/>
	<path class="st7" d="M5.79,1.02L5.01,4.81h1.56L5.79,1.02z M5.79,1.02"/>
	<path class="st83" d="M5.79,1.02v3.79H5.01L5.79,1.02z M5.79,1.02"/>
	<path class="st7" d="M5.79,9.3L6.57,5.5H5.01L5.79,9.3z M5.79,9.3"/>
	<path class="st83" d="M5.79,9.3V5.5h0.78L5.79,9.3z M5.79,9.3"/>
	<path class="st7" d="M10.47,5.16L6.18,4.47v1.38L10.47,5.16z M10.47,5.16"/>
	<path class="st83" d="M10.47,5.16H6.18V4.47L10.47,5.16z M10.47,5.16"/>
	<path class="st7" d="M1.1,5.16L5.4,5.85V4.47L1.1,5.16z M1.1,5.16"/>
	<path class="st83" d="M1.1,5.16H5.4v0.69L1.1,5.16z M1.1,5.16"/>
	<path class="st7" d="M9.1,2.23l-3.59,2.2l1.1,0.98L9.1,2.23z M9.1,2.23"/>
	<path class="st83" d="M9.1,2.23L6.06,4.91L5.51,4.43L9.1,2.23z M9.1,2.23"/>
	<path class="st7" d="M2.47,8.09l3.59-2.2l-1.1-0.98L2.47,8.09z M2.47,8.09"/>
	<path class="st83" d="M2.47,8.09L5.51,5.4l0.55,0.49L2.47,8.09z M2.47,8.09"/>
	<path class="st7" d="M9.1,8.09L6.62,4.91l-1.1,0.98L9.1,8.09z M9.1,8.09"/>
	<path class="st83" d="M9.1,8.09L6.06,5.4l0.55-0.49L9.1,8.09z M9.1,8.09"/>
	<path class="st7" d="M2.47,2.23L4.96,5.4l1.1-0.98L2.47,2.23z M2.47,2.23"/>
	<path class="st83" d="M2.47,2.23l3.04,2.68L4.96,5.4L2.47,2.23z M2.47,2.23"/>
	<path class="st7" d="M7.35,5.16c0,0.76-0.7,1.38-1.56,1.38c-0.86,0-1.56-0.62-1.56-1.38c0-0.76,0.7-1.38,1.56-1.38
		C6.65,3.78,7.35,4.4,7.35,5.16L7.35,5.16z M7.35,5.16"/>
</g>
</svg>
