<?xml version="1.0" encoding="utf-8"?>
<!-- Generator: Adobe Illustrator 25.0.0, SVG Export Plug-In . SVG Version: 6.00 Build 0)  -->
<svg version="1.1" id="Capa_1" xmlns="http://www.w3.org/2000/svg" xmlns:xlink="http://www.w3.org/1999/xlink" x="0px" y="0px"
	 viewBox="0 0 32 18.62" style="enable-background:new 0 0 32 18.62;" xml:space="preserve">
<style type="text/css">
	.st0{fill:#FF4B55;}
	.st1{fill:#464655;}
	.st2{fill:#73AF00;}
	.st3{fill:#F5F5F5;}
	.st4{fill:#41479B;}
	.st5{fill:#FFF5DC;}
	.st6{fill:#D27D69;}
	.st7{fill:#FFE15A;}
	.st8{fill:#B95546;}
	.st9{fill:#DCBE82;}
	.st10{fill:#D2AA73;}
	.st11{fill:#4173CD;}
	.st12{fill:#82AFFF;}
	.st13{fill:#F09146;}
	.st14{fill:#FFB400;}
	.st15{fill:#965032;}
	.st16{fill:#BE7855;}
	.st17{fill:#FFBE3C;}
	.st18{fill:#EAF3F5;}
	.st19{fill:#8C5A28;}
	.st20{fill:#F0C850;}
	.st21{fill:#FF6E55;}
	.st22{fill:#FFBE5A;}
	.st23{fill:#3CC8FF;}
	.st24{fill:#825546;}
	.st25{fill:#FFD255;}
	.st26{fill:#FFD25A;}
	.st27{fill:#509664;}
	.st28{fill:#F0AA00;}
	.st29{fill:#A561CD;}
	.st30{fill:#B34900;}
	.st31{fill:#64B496;}
	.st32{fill:#FF6B71;}
	.st33{fill:#5F64B9;}
	.st34{fill:#F5F0F0;}
	.st35{fill:#5A4646;}
	.st36{fill:#E6E1CD;}
	.st37{fill:#FFD0AF;}
	.st38{fill:#FFAF94;}
	.st39{fill:#8CB400;}
	.st40{fill:#69C3FF;}
	.st41{fill:#009B64;}
	.st42{fill:#5AA0E6;}
	.st43{fill:#FFC88C;}
	.st44{fill:#E1E1E1;}
	.st45{fill:#966446;}
	.st46{fill:#BE915A;}
	.st47{fill:#B9B9B9;}
	.st48{fill:#F0C727;}
	.st49{fill:#50AF69;}
	.st50{fill:#FFE6E6;}
	.st51{fill:#FFB750;}
	.st52{fill:#FFC455;}
	.st53{fill:#FFCD55;}
	.st54{fill:#9BC800;}
	.st55{fill:#FFE14E;}
	.st56{fill:#FFB14E;}
	.st57{fill:#B46446;}
	.st58{fill:#5FA000;}
	.st59{fill:#F2DD30;}
	.st60{fill:#FFC855;}
	.st61{fill:#A0A0A0;}
	.st62{fill:#69B469;}
	.st63{fill:#F4E08F;}
	.st64{fill:#ECD077;}
	.st65{fill:#FCF0A8;}
	.st66{fill:#FAB446;}
	.st67{fill:#C8414B;}
	.st68{fill:#FF9B46;}
	.st69{fill:#FF9B55;}
	.st70{fill:#82C3D2;}
	.st71{fill:#5AA587;}
	.st72{fill:#CDCDCD;}
	.st73{fill:#B4A08C;}
	.st74{fill:#FFD250;}
	.st75{fill:#00C3A0;}
	.st76{fill:#00AADC;}
	.st77{fill:#732D37;}
	.st78{fill:#AAD264;}
	.st79{fill:#874150;}
	.st80{fill:#783C46;}
	.st81{fill:#FFB478;}
	.st82{fill:#9B4B5A;}
	.st83{fill:#FFCD5A;}
	.st84{fill:#FFAA5A;}
	.st85{fill:#FF875A;}
	.st86{fill:#E6B432;}
	.st87{fill:#C86464;}
	.st88{fill:#FFF5E1;}
	.st89{fill:#963C3C;}
	.st90{fill:#5A8250;}
	.st91{fill:#AFEBFF;}
	.st92{fill:#557DE6;}
	.st93{fill:#D23741;}
	.st94{fill:#64C86E;}
	.st95{fill:#873250;}
	.st96{fill:#41AA5A;}
	.st97{fill:#8CD7FF;}
	.st98{fill:#6EC86E;}
	.st99{fill:#FFF0E1;}
	.st100{fill:#FFC75A;}
	.st101{fill:#FFD350;}
	.st102{fill:#FFBE50;}
	.st103{fill:#A54B50;}
	.st104{fill:#C87878;}
	.st105{fill:#FF1722;}
	.st106{fill:#FFB441;}
	.st107{fill:#5064AA;}
	.st108{fill:#FFA0D2;}
	.st109{fill:#FF7350;}
	.st110{fill:#245DBD;}
	.st111{fill:#D35A10;}
	.st112{fill:#FFA033;}
	.st113{fill:#FF9480;}
	.st114{fill:#FFA0E4;}
	.st115{fill:#696E7D;}
	.st116{fill:#FFFCFF;}
	.st117{fill:#EBEBEB;}
	.st118{fill:#FF4B57;}
	.st119{fill:#D2D2D2;}
	.st120{fill:#F0C814;}
	.st121{fill:#F7B518;}
	.st122{fill:#2C2F38;}
	.st123{fill:#4C8056;}
	.st124{fill:#F0C419;}
	.st125{fill:#C03A2B;}
	.st126{fill:#EA3F3F;}
	.st127{fill:#E4E3E1;}
	.st128{fill:#2472B2;}
</style>
<g>
	<path class="st7" d="M31.97,6.21H0V0.53c0-0.27,0.25-0.49,0.55-0.49h30.87c0.3,0,0.55,0.22,0.55,0.49V6.21z M31.97,6.21"/>
	<path class="st0" d="M31.42,18.55H0.55c-0.3,0-0.55-0.22-0.55-0.49v-5.68h31.97v5.68C31.97,18.33,31.72,18.55,31.42,18.55
		L31.42,18.55z M31.42,18.55"/>
	<rect y="6.21" class="st4" width="31.97" height="6.17"/>
	<path class="st3" d="M11.12,10.48l0.14,0.37l0.44,0c0.06,0,0.08,0.06,0.03,0.09l-0.35,0.23l0.13,0.37
		c0.02,0.05-0.04,0.09-0.09,0.06l-0.36-0.22l-0.36,0.22c-0.05,0.03-0.11-0.01-0.09-0.06l0.13-0.37l-0.35-0.23
		c-0.05-0.03-0.02-0.09,0.03-0.09l0.44,0l0.14-0.37C11.03,10.44,11.1,10.44,11.12,10.48L11.12,10.48z M11.12,10.48"/>
	<path class="st3" d="M11.97,9.32L11.9,9.7l0.38,0.18c0.05,0.02,0.04,0.09-0.02,0.1l-0.43,0.06l-0.08,0.38
		c-0.01,0.05-0.09,0.06-0.11,0.01l-0.19-0.35l-0.43,0.05c-0.06,0.01-0.09-0.05-0.05-0.09l0.31-0.27l-0.19-0.35
		c-0.02-0.05,0.03-0.09,0.08-0.07l0.39,0.18l0.32-0.26C11.91,9.24,11.98,9.27,11.97,9.32L11.97,9.32z M11.97,9.32"/>
	<path class="st3" d="M13.04,8.3l-0.2,0.34l0.3,0.28c0.04,0.04,0,0.1-0.05,0.09l-0.43-0.07l-0.21,0.34
		c-0.03,0.04-0.1,0.03-0.11-0.02l-0.06-0.38l-0.43-0.07c-0.06-0.01-0.07-0.08-0.01-0.1l0.39-0.17l-0.05-0.38
		c-0.01-0.05,0.06-0.08,0.1-0.04l0.3,0.28l0.4-0.16C13.02,8.21,13.07,8.26,13.04,8.3L13.04,8.3z M13.04,8.3"/>
	<path class="st3" d="M14.34,7.67l-0.3,0.28l0.2,0.34c0.03,0.04-0.03,0.09-0.08,0.07l-0.39-0.17l-0.31,0.28
		c-0.04,0.04-0.11,0.01-0.1-0.04l0.06-0.38l-0.39-0.17c-0.05-0.02-0.04-0.09,0.02-0.1l0.43-0.07l0.06-0.38
		c0.01-0.05,0.08-0.06,0.11-0.02l0.21,0.34l0.43-0.06C14.34,7.57,14.37,7.63,14.34,7.67L14.34,7.67z M14.34,7.67"/>
	<path class="st3" d="M15.82,7.37l-0.37,0.2l0.09,0.38C15.55,8,15.48,8.03,15.44,8l-0.33-0.25l-0.38,0.19
		c-0.05,0.02-0.11-0.02-0.08-0.07l0.17-0.35L14.5,7.26c-0.04-0.03-0.01-0.09,0.04-0.09l0.44,0.03l0.18-0.35
		c0.02-0.05,0.1-0.04,0.11,0.01l0.1,0.38l0.43,0.04C15.85,7.28,15.87,7.35,15.82,7.37L15.82,7.37z M15.82,7.37"/>
	<path class="st3" d="M20.85,10.48l-0.14,0.37l-0.44,0c-0.06,0-0.08,0.06-0.03,0.09l0.35,0.23l-0.13,0.37
		c-0.02,0.05,0.04,0.09,0.09,0.06l0.36-0.22l0.36,0.22c0.05,0.03,0.11-0.01,0.09-0.06l-0.13-0.37l0.35-0.23
		c0.05-0.03,0.02-0.09-0.03-0.09l-0.44,0l-0.14-0.37C20.94,10.44,20.86,10.44,20.85,10.48L20.85,10.48z M20.85,10.48"/>
	<path class="st3" d="M20,9.32l0.07,0.38l-0.38,0.18c-0.05,0.02-0.04,0.09,0.02,0.1l0.43,0.06l0.08,0.38
		c0.01,0.05,0.09,0.06,0.11,0.01l0.19-0.35l0.43,0.05c0.06,0.01,0.09-0.05,0.05-0.09l-0.31-0.27l0.19-0.35
		c0.02-0.05-0.03-0.09-0.08-0.07l-0.39,0.18L20.1,9.27C20.06,9.24,19.99,9.27,20,9.32L20,9.32z M20,9.32"/>
	<path class="st3" d="M18.92,8.3l0.2,0.34l-0.3,0.28c-0.04,0.04,0,0.1,0.05,0.09l0.43-0.07l0.21,0.34c0.03,0.04,0.1,0.03,0.11-0.02
		l0.06-0.38l0.43-0.07c0.06-0.01,0.07-0.08,0.01-0.1l-0.39-0.17l0.05-0.38c0.01-0.05-0.06-0.08-0.1-0.04l-0.3,0.28L19,8.23
		C18.95,8.21,18.9,8.26,18.92,8.3L18.92,8.3z M18.92,8.3"/>
	<path class="st3" d="M17.63,7.67l0.3,0.28l-0.2,0.34c-0.03,0.04,0.03,0.09,0.08,0.07l0.39-0.17l0.31,0.28
		c0.04,0.04,0.11,0.01,0.1-0.04l-0.06-0.38l0.39-0.17c0.05-0.02,0.04-0.09-0.02-0.1L18.5,7.7l-0.06-0.38
		c-0.01-0.05-0.08-0.06-0.11-0.02l-0.21,0.34l-0.43-0.06C17.63,7.57,17.59,7.63,17.63,7.67L17.63,7.67z M17.63,7.67"/>
	<path class="st3" d="M16.15,7.37l0.37,0.2l-0.09,0.38C16.42,8,16.49,8.03,16.53,8l0.33-0.25l0.38,0.19
		c0.05,0.02,0.11-0.02,0.08-0.07l-0.17-0.35l0.32-0.26c0.04-0.03,0.01-0.09-0.04-0.09L16.99,7.2l-0.18-0.35
		c-0.02-0.05-0.1-0.04-0.11,0.01l-0.1,0.38l-0.43,0.04C16.12,7.28,16.1,7.35,16.15,7.37L16.15,7.37z M16.15,7.37"/>
</g>
</svg>
