<?xml version="1.0" encoding="utf-8"?>
<!-- Generator: Adobe Illustrator 25.0.0, SVG Export Plug-In . SVG Version: 6.00 Build 0)  -->
<svg version="1.1" id="Capa_1" xmlns="http://www.w3.org/2000/svg" xmlns:xlink="http://www.w3.org/1999/xlink" x="0px" y="0px"
	 viewBox="0 0 32 18.62" style="enable-background:new 0 0 32 18.62;" xml:space="preserve">
<style type="text/css">
	.st0{fill:#FF4B55;}
	.st1{fill:#464655;}
	.st2{fill:#73AF00;}
	.st3{fill:#F5F5F5;}
	.st4{fill:#41479B;}
	.st5{fill:#FFF5DC;}
	.st6{fill:#D27D69;}
	.st7{fill:#FFE15A;}
	.st8{fill:#B95546;}
	.st9{fill:#DCBE82;}
	.st10{fill:#D2AA73;}
	.st11{fill:#4173CD;}
	.st12{fill:#82AFFF;}
	.st13{fill:#F09146;}
	.st14{fill:#FFB400;}
	.st15{fill:#965032;}
	.st16{fill:#BE7855;}
	.st17{fill:#FFBE3C;}
	.st18{fill:#EAF3F5;}
	.st19{fill:#8C5A28;}
	.st20{fill:#F0C850;}
	.st21{fill:#FF6E55;}
	.st22{fill:#FFBE5A;}
	.st23{fill:#3CC8FF;}
	.st24{fill:#825546;}
	.st25{fill:#FFD255;}
	.st26{fill:#FFD25A;}
	.st27{fill:#509664;}
	.st28{fill:#F0AA00;}
	.st29{fill:#A561CD;}
	.st30{fill:#B34900;}
	.st31{fill:#64B496;}
	.st32{fill:#FF6B71;}
	.st33{fill:#5F64B9;}
	.st34{fill:#F5F0F0;}
	.st35{fill:#5A4646;}
	.st36{fill:#E6E1CD;}
	.st37{fill:#FFD0AF;}
	.st38{fill:#FFAF94;}
	.st39{fill:#8CB400;}
	.st40{fill:#69C3FF;}
	.st41{fill:#009B64;}
	.st42{fill:#5AA0E6;}
	.st43{fill:#FFC88C;}
	.st44{fill:#E1E1E1;}
	.st45{fill:#966446;}
	.st46{fill:#BE915A;}
	.st47{fill:#B9B9B9;}
	.st48{fill:#F0C727;}
	.st49{fill:#50AF69;}
	.st50{fill:#FFE6E6;}
	.st51{fill:#FFB750;}
	.st52{fill:#FFC455;}
	.st53{fill:#FFCD55;}
	.st54{fill:#9BC800;}
	.st55{fill:#FFE14E;}
	.st56{fill:#FFB14E;}
	.st57{fill:#B46446;}
	.st58{fill:#5FA000;}
	.st59{fill:#F2DD30;}
	.st60{fill:#FFC855;}
	.st61{fill:#A0A0A0;}
	.st62{fill:#69B469;}
	.st63{fill:#F4E08F;}
	.st64{fill:#ECD077;}
	.st65{fill:#FCF0A8;}
	.st66{fill:#FAB446;}
	.st67{fill:#C8414B;}
	.st68{fill:#FF9B46;}
	.st69{fill:#FF9B55;}
	.st70{fill:#82C3D2;}
	.st71{fill:#5AA587;}
	.st72{fill:#CDCDCD;}
	.st73{fill:#B4A08C;}
	.st74{fill:#FFD250;}
	.st75{fill:#00C3A0;}
	.st76{fill:#00AADC;}
	.st77{fill:#732D37;}
	.st78{fill:#AAD264;}
	.st79{fill:#874150;}
	.st80{fill:#783C46;}
	.st81{fill:#FFB478;}
	.st82{fill:#9B4B5A;}
	.st83{fill:#FFCD5A;}
	.st84{fill:#FFAA5A;}
	.st85{fill:#FF875A;}
	.st86{fill:#E6B432;}
	.st87{fill:#C86464;}
	.st88{fill:#FFF5E1;}
	.st89{fill:#963C3C;}
	.st90{fill:#5A8250;}
	.st91{fill:#AFEBFF;}
	.st92{fill:#557DE6;}
	.st93{fill:#D23741;}
	.st94{fill:#64C86E;}
	.st95{fill:#873250;}
	.st96{fill:#41AA5A;}
	.st97{fill:#8CD7FF;}
	.st98{fill:#6EC86E;}
	.st99{fill:#FFF0E1;}
	.st100{fill:#FFC75A;}
	.st101{fill:#FFD350;}
	.st102{fill:#FFBE50;}
	.st103{fill:#A54B50;}
	.st104{fill:#C87878;}
	.st105{fill:#FF1722;}
	.st106{fill:#FFB441;}
	.st107{fill:#5064AA;}
	.st108{fill:#FFA0D2;}
	.st109{fill:#FF7350;}
	.st110{fill:#245DBD;}
	.st111{fill:#D35A10;}
	.st112{fill:#FFA033;}
	.st113{fill:#FF9480;}
	.st114{fill:#FFA0E4;}
	.st115{fill:#696E7D;}
	.st116{fill:#FFFCFF;}
	.st117{fill:#EBEBEB;}
	.st118{fill:#FF4B57;}
	.st119{fill:#D2D2D2;}
	.st120{fill:#F0C814;}
	.st121{fill:#F7B518;}
	.st122{fill:#2C2F38;}
	.st123{fill:#4C8056;}
	.st124{fill:#F0C419;}
	.st125{fill:#C03A2B;}
	.st126{fill:#EA3F3F;}
	.st127{fill:#E4E3E1;}
	.st128{fill:#2472B2;}
</style>
<g>
	<path class="st3" d="M31.42,18.55H0.55c-0.3,0-0.55-0.22-0.55-0.49V0.53c0-0.27,0.25-0.49,0.55-0.49h30.87
		c0.3,0,0.55,0.22,0.55,0.49v17.53C31.97,18.33,31.72,18.55,31.42,18.55L31.42,18.55z M31.42,18.55"/>
	<path class="st11" d="M24.92,11.17l0.2,0.62l0.7-1.84l-1.94,0.9l0.73,0.08l-2.33,2.42l-0.02-0.05l1.86-3.4l0.37,0.56l0.15-1.93
		l-1.62,1.31l0.73-0.09l-1.86,3.4l-0.06,0.02l0.69-3.11l0.52,0.46l-0.4-1.9l-1.19,1.63l0.68-0.25l-0.75,3.36l-0.24,0.45l-0.26,0.16
		l-0.11,0.49l-0.92,0.96l0.72-0.05l-0.13,0.58l0.25-0.15l0.02,0.27l0.44-0.45l0.4,0.53l0.28-1.23l0.36-0.38l-0.03-0.28l0.24-0.45
		L24.92,11.17z M24.92,11.17"/>
	<path class="st2" d="M8.17,9.35C8.25,9.04,8.2,8.74,8.07,8.56c-0.21,0.11-0.4,0.36-0.47,0.68C7.56,9.38,7.55,9.52,7.57,9.65
		L7.13,9.08c0.18-0.13,0.33-0.35,0.4-0.62c0.08-0.31,0.03-0.61-0.11-0.79c-0.21,0.11-0.4,0.36-0.47,0.68
		C6.91,8.51,6.9,8.67,6.93,8.81L6.63,8.42c0.01-0.2-0.05-0.44-0.22-0.66c-0.2-0.27-0.47-0.45-0.71-0.49
		c-0.06,0.21,0.01,0.5,0.21,0.77C6.08,8.27,6.3,8.43,6.51,8.5l0.27,0.4c-0.14-0.08-0.3-0.14-0.49-0.18C5.94,8.64,5.6,8.68,5.4,8.8
		c0.13,0.19,0.41,0.35,0.76,0.42c0.31,0.06,0.6,0.03,0.81-0.06l0.4,0.59C7.25,9.69,7.1,9.64,6.94,9.61C6.58,9.54,6.25,9.58,6.04,9.7
		c0.13,0.19,0.41,0.35,0.76,0.42c0.3,0.06,0.58,0.03,0.78-0.04l0.37,0.54c-0.11-0.05-0.24-0.1-0.39-0.13
		c-0.36-0.07-0.69-0.03-0.89,0.09c0.13,0.19,0.41,0.35,0.76,0.42c0.28,0.06,0.55,0.04,0.75-0.03l0.36,0.53
		c-0.1-0.04-0.21-0.08-0.34-0.11c-0.36-0.07-0.69-0.03-0.89,0.09c0.13,0.19,0.41,0.35,0.76,0.42c0.27,0.05,0.53,0.04,0.73-0.02
		l0.33,0.48c-0.09-0.03-0.19-0.07-0.29-0.09c-0.36-0.07-0.69-0.03-0.89,0.09c0.13,0.19,0.41,0.35,0.76,0.42
		c0.26,0.05,0.5,0.04,0.7-0.01l1.04,1.52l0.44-0.25l-1.12-1.47c0.14-0.13,0.25-0.32,0.31-0.55c0.08-0.31,0.03-0.61-0.11-0.79
		c-0.21,0.11-0.4,0.36-0.47,0.68c-0.02,0.09-0.03,0.18-0.03,0.27L9.12,11.7c0.15-0.13,0.27-0.33,0.33-0.57
		c0.08-0.31,0.03-0.61-0.11-0.79c-0.21,0.11-0.39,0.36-0.47,0.68c-0.03,0.11-0.03,0.22-0.03,0.32l-0.39-0.51
		c0.16-0.13,0.29-0.34,0.35-0.59C8.89,9.92,8.84,9.62,8.7,9.44C8.49,9.56,8.31,9.8,8.23,10.12c-0.03,0.13-0.04,0.25-0.03,0.36
		L7.8,9.95C7.97,9.82,8.11,9.61,8.17,9.35L8.17,9.35z M8.17,9.35"/>
	<path class="st7" d="M12.68,9.3l-0.55-2.92h-0.09c-0.5,0-0.85-0.43-0.7-0.85l0,0c0.13-0.34-0.07-0.7-0.45-0.82L3.33,2.34
		C2.9,2.21,2.49,2.59,2.67,2.96l0.82,1.69c0.24,0.49,0.65,0.89,1.17,1.16l2.1,1.06C7.39,7.18,8.1,7.35,8.82,7.35l0.19,0.33
		c0.56,0.99,1.71,1.62,2.96,1.62H12.68z M12.68,9.3"/>
	<path class="st7" d="M19.29,9.3l0.55-2.92h0.09c0.5,0,0.85-0.43,0.7-0.85l0,0c-0.13-0.34,0.07-0.7,0.45-0.82l7.56-2.36
		c0.43-0.13,0.84,0.25,0.66,0.62l-0.82,1.69c-0.24,0.49-0.65,0.89-1.17,1.16l-2.1,1.06c-0.63,0.32-1.34,0.48-2.06,0.48h0l-0.19,0.33
		C22.4,8.67,21.26,9.3,20,9.3H19.29z M19.29,9.3"/>
	<path class="st7" d="M18.19,5.89l-1.37-2.82c-0.17-0.36-0.57-0.59-1.01-0.59h-0.38l-0.55,0.49h-0.55l-0.55,0.49h0.77
		c0.19,0,0.33,0.18,0.25,0.33l-1.02,2.1H18.19z M18.19,5.89"/>
	<path class="st7" d="M14.33,10.76l-1.1-1.46l-1.01,0.89c-0.42,0.37-0.74,0.83-0.93,1.33l-0.26,0.7l-0.55,0.49H9.76
		c-0.24,0-0.45,0.12-0.56,0.3l-0.16,0.27c-0.1,0.18,0.05,0.39,0.28,0.39h1.15l0.37-0.65l1.76-0.78c0.05-0.02,0.1-0.05,0.14-0.09
		L14.33,10.76z M14.33,10.76"/>
	<path class="st7" d="M17.64,10.76l1.1-1.46l1.01,0.89c0.42,0.37,0.74,0.83,0.93,1.33l0.26,0.7l0.55,0.49h0.72
		c0.24,0,0.45,0.12,0.56,0.3l0.16,0.27c0.1,0.18-0.05,0.39-0.28,0.39H21.5l-0.37-0.65l-1.76-0.78c-0.05-0.02-0.1-0.05-0.14-0.09
		L17.64,10.76z M17.64,10.76"/>
	<path class="st7" d="M14.33,11.25l-1.34,1.97c-0.18,0.27-0.11,0.61,0.15,0.81l2.03,1.5c0.47,0.34,1.14,0.34,1.61,0l2.03-1.5
		c0.27-0.2,0.34-0.54,0.15-0.81l-1.34-1.97H14.33z M14.33,11.25"/>
	<path class="st3" d="M15.98,5.4c0,0-1.65,0.49-3.86,0v1.95c0,0.97,0.55,3.9,3.86,4.87c3.31-0.97,3.86-3.9,3.86-4.87V5.4
		C17.64,5.89,15.98,5.4,15.98,5.4L15.98,5.4z M15.98,5.4"/>
	<path class="st4" d="M15.98,5.4c0,0-1.65,0.49-3.86,0v1.95h7.72V5.4C17.64,5.89,15.98,5.4,15.98,5.4L15.98,5.4z M15.98,5.4"/>
	<path class="st0" d="M13.28,10.47V7.35h-0.6v2.17C12.83,9.83,13.03,10.16,13.28,10.47L13.28,10.47z M13.28,10.47"/>
	<path class="st0" d="M14.48,7.35h-0.6v3.74c0.18,0.16,0.38,0.31,0.6,0.45V7.35z M14.48,7.35"/>
	<path class="st0" d="M18.69,10.47c0.25-0.31,0.45-0.63,0.6-0.95V7.35h-0.6V10.47z M18.69,10.47"/>
	<path class="st0" d="M15.68,7.35h-0.6v4.52c0.19,0.09,0.39,0.17,0.6,0.25V7.35z M15.68,7.35"/>
	<path class="st0" d="M18.09,7.35h-0.6v4.19c0.22-0.14,0.42-0.29,0.6-0.45V7.35z M18.09,7.35"/>
	<path class="st0" d="M16.89,11.87V7.35h-0.6v4.77C16.5,12.04,16.7,11.96,16.89,11.87L16.89,11.87z M16.89,11.87"/>
	<path class="st2" d="M10.19,13.1L9.8,13.32l0.66,0.96l0.44-0.25L10.19,13.1z M10.19,13.1"/>
	<path class="st11" d="M22.39,13.81l-0.35-0.61h-0.63l-0.03,0.15l-0.24,0.45l-0.26,0.16l-0.11,0.49l-0.92,0.96l0.72-0.05l-0.13,0.58
		l0.25-0.15l0.02,0.27l0.44-0.45l0.4,0.53l0.28-1.23l0.36-0.38l-0.03-0.28L22.39,13.81z M22.39,13.81"/>
	<path class="st11" d="M5.28,7.35H3.86l0.13,0.34l-0.84,2.59L2.31,7.69l0.13-0.34H1.02L1.41,7.8l1.16,3.6l-0.13,0.34h1.42L3.73,11.4
		l1.16-3.6L5.28,7.35z M5.28,7.35"/>
	<path class="st11" d="M29.29,7.66l0.24-0.31h-1.42l0.24,0.31v3.76l-0.24,0.31h1.42l-0.24-0.31V7.66z M29.29,7.66"/>
</g>
</svg>
