<?xml version="1.0" encoding="utf-8"?>
<!-- Generator: Adobe Illustrator 25.0.0, SVG Export Plug-In . SVG Version: 6.00 Build 0)  -->
<svg version="1.1" id="Capa_1" xmlns="http://www.w3.org/2000/svg" xmlns:xlink="http://www.w3.org/1999/xlink" x="0px" y="0px"
	 viewBox="0 0 32 18.62" style="enable-background:new 0 0 32 18.62;" xml:space="preserve">
<style type="text/css">
	.st0{fill:#FF4B55;}
	.st1{fill:#464655;}
	.st2{fill:#73AF00;}
	.st3{fill:#F5F5F5;}
	.st4{fill:#41479B;}
	.st5{fill:#FFF5DC;}
	.st6{fill:#D27D69;}
	.st7{fill:#FFE15A;}
	.st8{fill:#B95546;}
	.st9{fill:#DCBE82;}
	.st10{fill:#D2AA73;}
	.st11{fill:#4173CD;}
	.st12{fill:#82AFFF;}
	.st13{fill:#F09146;}
	.st14{fill:#FFB400;}
	.st15{fill:#965032;}
	.st16{fill:#BE7855;}
	.st17{fill:#FFBE3C;}
	.st18{fill:#EAF3F5;}
	.st19{fill:#8C5A28;}
	.st20{fill:#F0C850;}
	.st21{fill:#FF6E55;}
	.st22{fill:#FFBE5A;}
	.st23{fill:#3CC8FF;}
	.st24{fill:#825546;}
	.st25{fill:#FFD255;}
	.st26{fill:#FFD25A;}
	.st27{fill:#509664;}
	.st28{fill:#F0AA00;}
	.st29{fill:#A561CD;}
	.st30{fill:#B34900;}
	.st31{fill:#64B496;}
	.st32{fill:#FF6B71;}
	.st33{fill:#5F64B9;}
	.st34{fill:#F5F0F0;}
	.st35{fill:#5A4646;}
	.st36{fill:#E6E1CD;}
	.st37{fill:#FFD0AF;}
	.st38{fill:#FFAF94;}
	.st39{fill:#8CB400;}
	.st40{fill:#69C3FF;}
	.st41{fill:#009B64;}
	.st42{fill:#5AA0E6;}
	.st43{fill:#FFC88C;}
	.st44{fill:#E1E1E1;}
	.st45{fill:#966446;}
	.st46{fill:#BE915A;}
	.st47{fill:#B9B9B9;}
	.st48{fill:#F0C727;}
	.st49{fill:#50AF69;}
	.st50{fill:#FFE6E6;}
	.st51{fill:#FFB750;}
	.st52{fill:#FFC455;}
	.st53{fill:#FFCD55;}
	.st54{fill:#9BC800;}
	.st55{fill:#FFE14E;}
	.st56{fill:#FFB14E;}
	.st57{fill:#B46446;}
	.st58{fill:#5FA000;}
	.st59{fill:#F2DD30;}
	.st60{fill:#FFC855;}
	.st61{fill:#A0A0A0;}
	.st62{fill:#69B469;}
	.st63{fill:#F4E08F;}
	.st64{fill:#ECD077;}
	.st65{fill:#FCF0A8;}
	.st66{fill:#FAB446;}
	.st67{fill:#C8414B;}
	.st68{fill:#FF9B46;}
	.st69{fill:#FF9B55;}
	.st70{fill:#82C3D2;}
	.st71{fill:#5AA587;}
	.st72{fill:#CDCDCD;}
	.st73{fill:#B4A08C;}
	.st74{fill:#FFD250;}
	.st75{fill:#00C3A0;}
	.st76{fill:#00AADC;}
	.st77{fill:#732D37;}
	.st78{fill:#AAD264;}
	.st79{fill:#874150;}
	.st80{fill:#783C46;}
	.st81{fill:#FFB478;}
	.st82{fill:#9B4B5A;}
	.st83{fill:#FFCD5A;}
	.st84{fill:#FFAA5A;}
	.st85{fill:#FF875A;}
	.st86{fill:#E6B432;}
	.st87{fill:#C86464;}
	.st88{fill:#FFF5E1;}
	.st89{fill:#963C3C;}
	.st90{fill:#5A8250;}
	.st91{fill:#AFEBFF;}
	.st92{fill:#557DE6;}
	.st93{fill:#D23741;}
	.st94{fill:#64C86E;}
	.st95{fill:#873250;}
	.st96{fill:#41AA5A;}
	.st97{fill:#8CD7FF;}
	.st98{fill:#6EC86E;}
	.st99{fill:#FFF0E1;}
	.st100{fill:#FFC75A;}
	.st101{fill:#FFD350;}
	.st102{fill:#FFBE50;}
	.st103{fill:#A54B50;}
	.st104{fill:#C87878;}
	.st105{fill:#FF1722;}
	.st106{fill:#FFB441;}
	.st107{fill:#5064AA;}
	.st108{fill:#FFA0D2;}
	.st109{fill:#FF7350;}
	.st110{fill:#245DBD;}
	.st111{fill:#D35A10;}
	.st112{fill:#FFA033;}
	.st113{fill:#FF9480;}
	.st114{fill:#FFA0E4;}
	.st115{fill:#696E7D;}
	.st116{fill:#FFFCFF;}
	.st117{fill:#EBEBEB;}
	.st118{fill:#FF4B57;}
	.st119{fill:#D2D2D2;}
	.st120{fill:#F0C814;}
	.st121{fill:#F7B518;}
	.st122{fill:#2C2F38;}
	.st123{fill:#4C8056;}
	.st124{fill:#F0C419;}
	.st125{fill:#C03A2B;}
	.st126{fill:#EA3F3F;}
	.st127{fill:#E4E3E1;}
	.st128{fill:#2472B2;}
</style>
<g>
	<path class="st1" d="M31.42,18.55H0.55c-0.3,0-0.55-0.22-0.55-0.49V0.53c0-0.27,0.25-0.49,0.55-0.49h30.87
		c0.3,0,0.55,0.22,0.55,0.49v17.53C31.97,18.33,31.72,18.55,31.42,18.55L31.42,18.55z M31.42,18.55"/>
	<path class="st7" d="M31.97,8.81H15.58L0,1.22v1.11L14.29,9.3L0,16.27v1.11l15.58-7.59h16.39V8.81z M31.97,8.81"/>
	<path class="st2" d="M0.22,18.44c0.09,0.06,0.2,0.11,0.33,0.11h30.87c0.3,0,0.55-0.22,0.55-0.49v-7.31H15.98L0.22,18.44z
		 M0.22,18.44"/>
	<path class="st0" d="M31.42,0.04H0.55c-0.13,0-0.24,0.04-0.33,0.11l15.76,7.69h15.98V0.53C31.97,0.26,31.72,0.04,31.42,0.04
		L31.42,0.04z M31.42,0.04"/>
	<path class="st7" d="M4.77,6.57C3.2,6.13,2.01,7.14,1.74,7.66C1.51,8.1,1.08,10.1,3.21,10.41c2.13,0.32,2.11-1.46,2.11-1.46
		c-0.1,0.28-0.27,1.09-1.81,1.09c-0.58,0-1.4-0.76-1.25-1.59C2.41,7.67,3.2,7.27,3.8,7.25C4.37,7.22,5.7,7.57,5.7,9
		c0,1.6-1.87,1.78-1.87,1.78v0.97c1.63-0.14,2.55-0.94,2.79-2.21C6.86,8.26,6.37,7.01,4.77,6.57L4.77,6.57z M4.77,6.57"/>
	<path class="st7" d="M3.03,8.94C2.99,8.98,2.97,9.04,2.97,9.09l0,0.26L2.91,9.44C2.89,9.47,2.9,9.51,2.94,9.53
		c0.04,0.02,0.08,0.01,0.1-0.02L3.1,9.41l0.24-0.08C3.41,9.31,3.47,9.27,3.5,9.21C3.56,9.09,3.69,8.86,3.9,8.63
		c0.21,0.23,0.35,0.45,0.41,0.58C4.34,9.27,4.4,9.31,4.47,9.34l0.24,0.08L4.76,9.5c0.02,0.03,0.07,0.04,0.1,0.02
		C4.9,9.51,4.92,9.47,4.9,9.44L4.84,9.35l0-0.26c0-0.05-0.02-0.1-0.06-0.15c-0.2-0.22-0.41-0.39-0.61-0.55
		c0.16-0.14,0.35-0.27,0.59-0.37C4.8,8,4.83,7.95,4.82,7.9C4.8,7.82,4.71,7.79,4.64,7.82C4.48,7.88,4.21,8.01,3.9,8.21
		c-0.3-0.2-0.58-0.32-0.73-0.39C3.1,7.79,3.01,7.82,2.99,7.9C2.97,7.95,3,8,3.06,8.02c0.24,0.1,0.42,0.23,0.59,0.37
		C3.44,8.55,3.23,8.72,3.03,8.94L3.03,8.94z M3.03,8.94"/>
</g>
</svg>
