<?xml version="1.0" encoding="utf-8"?>
<!-- Generator: Adobe Illustrator 25.0.0, SVG Export Plug-In . SVG Version: 6.00 Build 0)  -->
<svg version="1.1" id="Capa_1" xmlns="http://www.w3.org/2000/svg" xmlns:xlink="http://www.w3.org/1999/xlink" x="0px" y="0px"
	 viewBox="0 0 32 18.62" style="enable-background:new 0 0 32 18.62;" xml:space="preserve">
<style type="text/css">
	.st0{fill:#FF4B55;}
	.st1{fill:#464655;}
	.st2{fill:#73AF00;}
	.st3{fill:#F5F5F5;}
	.st4{fill:#41479B;}
	.st5{fill:#FFF5DC;}
	.st6{fill:#D27D69;}
	.st7{fill:#FFE15A;}
	.st8{fill:#B95546;}
	.st9{fill:#DCBE82;}
	.st10{fill:#D2AA73;}
	.st11{fill:#4173CD;}
	.st12{fill:#82AFFF;}
	.st13{fill:#F09146;}
	.st14{fill:#FFB400;}
	.st15{fill:#965032;}
	.st16{fill:#BE7855;}
	.st17{fill:#FFBE3C;}
	.st18{fill:#EAF3F5;}
	.st19{fill:#8C5A28;}
	.st20{fill:#F0C850;}
	.st21{fill:#FF6E55;}
	.st22{fill:#FFBE5A;}
	.st23{fill:#3CC8FF;}
	.st24{fill:#825546;}
	.st25{fill:#FFD255;}
	.st26{fill:#FFD25A;}
	.st27{fill:#509664;}
	.st28{fill:#F0AA00;}
	.st29{fill:#A561CD;}
	.st30{fill:#B34900;}
	.st31{fill:#64B496;}
	.st32{fill:#FF6B71;}
	.st33{fill:#5F64B9;}
	.st34{fill:#F5F0F0;}
	.st35{fill:#5A4646;}
	.st36{fill:#E6E1CD;}
	.st37{fill:#FFD0AF;}
	.st38{fill:#FFAF94;}
	.st39{fill:#8CB400;}
	.st40{fill:#69C3FF;}
	.st41{fill:#009B64;}
	.st42{fill:#5AA0E6;}
	.st43{fill:#FFC88C;}
	.st44{fill:#E1E1E1;}
	.st45{fill:#966446;}
	.st46{fill:#BE915A;}
	.st47{fill:#B9B9B9;}
	.st48{fill:#F0C727;}
	.st49{fill:#50AF69;}
	.st50{fill:#FFE6E6;}
	.st51{fill:#FFB750;}
	.st52{fill:#FFC455;}
	.st53{fill:#FFCD55;}
	.st54{fill:#9BC800;}
	.st55{fill:#FFE14E;}
	.st56{fill:#FFB14E;}
	.st57{fill:#B46446;}
	.st58{fill:#5FA000;}
	.st59{fill:#F2DD30;}
	.st60{fill:#FFC855;}
	.st61{fill:#A0A0A0;}
	.st62{fill:#69B469;}
	.st63{fill:#F4E08F;}
	.st64{fill:#ECD077;}
	.st65{fill:#FCF0A8;}
	.st66{fill:#FAB446;}
	.st67{fill:#C8414B;}
	.st68{fill:#FF9B46;}
	.st69{fill:#FF9B55;}
	.st70{fill:#82C3D2;}
	.st71{fill:#5AA587;}
	.st72{fill:#CDCDCD;}
	.st73{fill:#B4A08C;}
	.st74{fill:#FFD250;}
	.st75{fill:#00C3A0;}
	.st76{fill:#00AADC;}
	.st77{fill:#732D37;}
	.st78{fill:#AAD264;}
	.st79{fill:#874150;}
	.st80{fill:#783C46;}
	.st81{fill:#FFB478;}
	.st82{fill:#9B4B5A;}
	.st83{fill:#FFCD5A;}
	.st84{fill:#FFAA5A;}
	.st85{fill:#FF875A;}
	.st86{fill:#E6B432;}
	.st87{fill:#C86464;}
	.st88{fill:#FFF5E1;}
	.st89{fill:#963C3C;}
	.st90{fill:#5A8250;}
	.st91{fill:#AFEBFF;}
	.st92{fill:#557DE6;}
	.st93{fill:#D23741;}
	.st94{fill:#64C86E;}
	.st95{fill:#873250;}
	.st96{fill:#41AA5A;}
	.st97{fill:#8CD7FF;}
	.st98{fill:#6EC86E;}
	.st99{fill:#FFF0E1;}
	.st100{fill:#FFC75A;}
	.st101{fill:#FFD350;}
	.st102{fill:#FFBE50;}
	.st103{fill:#A54B50;}
	.st104{fill:#C87878;}
	.st105{fill:#FF1722;}
	.st106{fill:#FFB441;}
	.st107{fill:#5064AA;}
	.st108{fill:#FFA0D2;}
	.st109{fill:#FF7350;}
	.st110{fill:#245DBD;}
	.st111{fill:#D35A10;}
	.st112{fill:#FFA033;}
	.st113{fill:#FF9480;}
	.st114{fill:#FFA0E4;}
	.st115{fill:#696E7D;}
	.st116{fill:#FFFCFF;}
	.st117{fill:#EBEBEB;}
	.st118{fill:#FF4B57;}
	.st119{fill:#D2D2D2;}
	.st120{fill:#F0C814;}
	.st121{fill:#F7B518;}
	.st122{fill:#2C2F38;}
	.st123{fill:#4C8056;}
	.st124{fill:#F0C419;}
	.st125{fill:#C03A2B;}
	.st126{fill:#EA3F3F;}
	.st127{fill:#E4E3E1;}
	.st128{fill:#2472B2;}
</style>
<g>
	<path class="st2" d="M31.97,2.69H0V0.53c0-0.27,0.25-0.49,0.55-0.49h30.87c0.3,0,0.55,0.22,0.55,0.49V2.69z M31.97,2.69"/>
	<rect y="2.69" class="st7" width="31.97" height="2.64"/>
	<rect y="5.33" class="st0" width="31.97" height="2.64"/>
	<path class="st2" d="M0,15.91h31.97v2.16c0,0.27-0.25,0.49-0.55,0.49H0.55c-0.3,0-0.55-0.22-0.55-0.49V15.91z M0,15.91"/>
	<rect y="13.26" class="st7" width="31.97" height="2.64"/>
	<rect y="10.62" class="st0" width="31.97" height="2.64"/>
	<path class="st1" d="M31.97,7.98H12.23L0.89,0.04H0.55c-0.14,0-0.27,0.05-0.37,0.13v18.25c0.1,0.08,0.22,0.13,0.37,0.13h0.34
		l11.34-7.93h19.74V7.98z M31.97,7.98"/>
	<path class="st3" d="M0.18,18.42L13.23,9.3L0.18,0.17C0.07,0.26,0,0.39,0,0.53v17.53C0,18.21,0.07,18.33,0.18,18.42L0.18,18.42z
		 M0.18,18.42"/>
	<path class="st0" d="M5.37,5.74l1.16,2.08l2.6,0.33L7.25,9.77l0.44,2.29l-2.32-1.08l-2.32,1.08l0.44-2.29L1.61,8.15l2.6-0.33
		L5.37,5.74z M5.37,5.74"/>
	<path class="st7" d="M8.39,9.56L5.3,7.45C4.94,6.7,4.43,6.22,3.99,6.22c-0.37,0-0.55,0.3-0.6,0.49C3.12,6.82,3.06,7.03,3.06,7.04
		c0,0.02,0,0.03,0.01,0.04C3.08,7.1,3.09,7.11,3.11,7.11l0.06,0C3.42,7.1,3.83,7.09,3.94,7.79C4,8.22,3.9,9,3.59,9.59
		C3.37,10,3.45,10.33,3.45,10.34c0.01,0.03,0.03,0.04,0.06,0.04c0,0,0.02,0,0.03,0l0.25,1.25c0,0.02,0.03,0.04,0.06,0.04h3.73
		c0.03,0,0.05-0.02,0.06-0.04l0.42-1.51c0,0,0,0,0,0c0,0,0,0,0,0l0.13-0.48c0.1,0.01,0.16,0.02,0.16,0.02
		c0.03,0,0.05-0.01,0.06-0.03C8.42,9.6,8.41,9.58,8.39,9.56L8.39,9.56z M8.39,9.56"/>
	<path class="st1" d="M8.39,9.56L5.3,7.45C4.94,6.7,4.43,6.22,3.99,6.22c-0.37,0-0.55,0.3-0.6,0.49C3.12,6.82,3.06,7.03,3.06,7.04
		c0,0.02,0,0.03,0.01,0.04C3.08,7.1,3.09,7.11,3.11,7.11l0.06,0C3.42,7.1,3.83,7.09,3.94,7.79C4,8.22,3.9,9,3.59,9.59
		C3.37,10,3.45,10.33,3.45,10.34c0.01,0.03,0.03,0.04,0.06,0.04c0,0,0.02,0,0.03,0l0.25,1.25c0,0.02,0.03,0.04,0.06,0.04h3.73
		c0.03,0,0.05-0.02,0.06-0.04l0.42-1.51c0,0,0,0,0,0c0,0,0,0,0,0l0.13-0.48c0.1,0.01,0.16,0.02,0.16,0.02
		c0.03,0,0.05-0.01,0.06-0.03C8.42,9.6,8.41,9.58,8.39,9.56L8.39,9.56z M3.7,9.63C3.98,9.1,4.13,8.3,4.05,7.77
		C3.94,7.02,3.46,7,3.2,7c0.04-0.06,0.11-0.16,0.26-0.21C3.48,6.79,3.49,6.77,3.5,6.75c0-0.02,0.1-0.43,0.49-0.43
		c0.38,0,0.87,0.47,1.21,1.18c0,0.01,0.01,0.02,0.02,0.02l2.93,2.01c-0.52-0.06-1.87-0.22-2.67-0.5c-0.42-0.15-0.51-0.37-0.6-0.56
		C4.87,8.44,4.84,8.43,4.81,8.44C4.78,8.45,4.76,8.48,4.77,8.51c0.08,0.19,0.2,0.46,0.66,0.62c0.1,0.03,0.2,0.06,0.31,0.09
		C5.72,9.28,5.6,9.53,5.07,9.7c-0.43,0.14-0.74,0.37-0.78,0.57c-0.16,0-0.3,0-0.41,0v-0.15c0-0.11,0.13-0.28,0.26-0.46
		c0.18-0.24,0.39-0.52,0.39-0.81c0-0.03-0.03-0.05-0.06-0.05c-0.03,0-0.06,0.02-0.06,0.05c0,0.25-0.2,0.52-0.37,0.75
		c-0.15,0.2-0.28,0.37-0.28,0.51v0.15c-0.09,0-0.16,0-0.2,0C3.55,10.18,3.54,9.93,3.7,9.63L3.7,9.63z M6.04,9.3
		C5.98,9.47,5.77,9.53,5.62,9.54C5.79,9.42,5.84,9.3,5.86,9.26C5.92,9.27,5.98,9.29,6.04,9.3L6.04,9.3z M6.16,9.33
		c0.06,0.01,0.13,0.03,0.2,0.04C6.3,9.48,6.13,9.53,5.96,9.55C6.05,9.5,6.12,9.43,6.16,9.33L6.16,9.33z M7.83,10.49
		c-0.6-0.16-2.33-0.21-3.41-0.21c0.04-0.12,0.21-0.27,0.5-0.4c0,0,0.01,0,0.01,0c1.62,0.01,2.75,0.22,3,0.27L7.83,10.49z
		 M7.75,10.76l-0.24-0.23c0.11,0.02,0.21,0.04,0.28,0.06L7.75,10.76z M4.69,10.8l0.12,0.1c-0.04,0-0.07,0-0.11,0
		C4.7,10.86,4.7,10.83,4.69,10.8L4.69,10.8z M7.68,11.02l-0.3-0.29c-0.02-0.02-0.05-0.02-0.08-0.01l-0.35,0.21l-0.27-0.26
		c-0.02-0.02-0.06-0.02-0.08-0.01l-0.32,0.22L6,10.63c-0.02-0.02-0.06-0.02-0.08,0l-0.31,0.23l-0.29-0.24
		c-0.02-0.02-0.06-0.02-0.08,0l-0.3,0.24l-0.25-0.21c0-0.06-0.01-0.13-0.01-0.19l0.22,0.19c0.02,0.02,0.06,0.02,0.08,0l0.31-0.24
		l0.29,0.25c0.02,0.02,0.06,0.02,0.08,0l0.31-0.23l0.3,0.25c0.02,0.02,0.05,0.02,0.08,0l0.32-0.21l0.26,0.27
		c0.02,0.02,0.05,0.02,0.08,0.01l0.35-0.22l0.35,0.34c0,0,0.01,0.01,0.01,0.01L7.68,11.02z M7.51,11c-0.09-0.01-0.23-0.02-0.4-0.04
		l0.23-0.13L7.51,11z M6.81,10.95c-0.12-0.01-0.25-0.01-0.4-0.02l0.22-0.15L6.81,10.95z M6.17,10.92c-0.14,0-0.28-0.01-0.44-0.01
		l0.23-0.17L6.17,10.92z M5.49,10.9c-0.14,0-0.28,0-0.43-0.01l0.22-0.17L5.49,10.9z M4.76,10.38c0.12,0,0.25,0,0.38,0.01l-0.2,0.15
		L4.76,10.38z M5.44,10.4c0.13,0,0.26,0.01,0.38,0.01l-0.2,0.15L5.44,10.4z M6.12,10.42c0.14,0.01,0.27,0.01,0.4,0.02l-0.21,0.14
		L6.12,10.42z M6.8,10.46c0.15,0.01,0.28,0.02,0.41,0.04l-0.23,0.15L6.8,10.46z M3.66,10.38c0.18,0,0.5,0,0.89,0
		c0.02,0.5,0.07,0.9,0.15,1.19H3.9L3.66,10.38z M7.53,11.57H4.82c-0.04-0.16-0.08-0.35-0.1-0.57c1.98,0.01,2.73,0.1,2.92,0.13
		c0.01,0,0.01,0.01,0.02,0.01L7.53,11.57z M7.95,10.05C7.7,9.99,6.67,9.8,5.18,9.78C5.29,9.74,5.37,9.7,5.45,9.66
		c0.04,0,0.14,0.01,0.27,0.01c0.27,0,0.65-0.05,0.75-0.28c0.61,0.12,1.24,0.2,1.59,0.24L7.95,10.05z M7.95,10.05"/>
	<path class="st1" d="M4.16,6.68c0-0.1-0.09-0.17-0.2-0.17c-0.11,0-0.2,0.08-0.2,0.17c0,0.1,0.09,0.17,0.2,0.17
		C4.07,6.86,4.16,6.78,4.16,6.68L4.16,6.68z M3.96,6.75c-0.04,0-0.08-0.03-0.08-0.07c0-0.04,0.04-0.07,0.08-0.07
		c0.04,0,0.08,0.03,0.08,0.07C4.04,6.72,4,6.75,3.96,6.75L3.96,6.75z M3.96,6.75"/>
	<path class="st1" d="M5.61,9.92c-0.11,0-0.19,0.08-0.19,0.17c0,0.09,0.09,0.17,0.19,0.17c0.11,0,0.19-0.08,0.19-0.17
		C5.81,10,5.72,9.92,5.61,9.92L5.61,9.92z M5.61,10.16c-0.04,0-0.08-0.03-0.08-0.07c0-0.04,0.03-0.07,0.08-0.07
		c0.04,0,0.08,0.03,0.08,0.07C5.69,10.13,5.66,10.16,5.61,10.16L5.61,10.16z M5.61,10.16"/>
	<path class="st1" d="M6.19,9.95C6.09,9.95,6,10.03,6,10.12c0,0.09,0.09,0.17,0.19,0.17c0.11,0,0.19-0.08,0.19-0.17
		C6.39,10.03,6.3,9.95,6.19,9.95L6.19,9.95z M6.19,10.19c-0.04,0-0.08-0.03-0.08-0.07c0-0.04,0.03-0.07,0.08-0.07
		c0.04,0,0.08,0.03,0.08,0.07C6.27,10.16,6.24,10.19,6.19,10.19L6.19,10.19z M6.19,10.19"/>
</g>
</svg>
