<?xml version="1.0" encoding="utf-8"?>
<!-- Generator: Adobe Illustrator 21.0.1, SVG Export Plug-In . SVG Version: 6.00 Build 0)  -->
<svg version="1.1" id="Layer_1" xmlns="http://www.w3.org/2000/svg" xmlns:xlink="http://www.w3.org/1999/xlink" x="0px" y="0px"
	 viewBox="0 0 184 70" style="enable-background:new 0 0 184 70;" xml:space="preserve">
<style type="text/css">
	.st0{fill-rule:evenodd;clip-rule:evenodd;fill:#FFFFFF;}
	.st1{fill:#FFFFFF;}
</style>
<path class="st0" d="M175.7,35h-2c-0.3,0-0.5,0.2-0.6,0.5l-0.2,0.7c-0.1,0.3,0,0.5,0.4,0.5h2L175.7,35z M181.7,31.7l-1.8,6.6H169
	c-0.4,0-0.7-0.1-0.9-0.3c-0.2-0.2-0.3-0.5-0.3-0.9c0-0.1,0-0.3,0.1-0.4l0.4-1.6c0.1-0.5,0.4-0.9,0.8-1.2c0.4-0.3,0.8-0.5,1.3-0.5
	h5.9l0.3-1.2c0.1-0.3,0-0.5-0.4-0.5h-1.5c-0.3,0-0.5,0.2-0.6,0.5l-0.1,0.3h-4.7l0.2-0.8c0.1-0.5,0.4-0.9,0.8-1.2
	c0.4-0.3,0.8-0.5,1.3-0.5h8.9c0.4,0,0.7,0.1,0.9,0.4c0.2,0.2,0.4,0.5,0.4,0.9C181.7,31.4,181.7,31.5,181.7,31.7"/>
<g>
	<g>
		<path class="st0" d="M95.4,24c0,0.9-0.8,1.7-1.7,1.7c-0.9,0-1.7-0.8-1.7-1.7c0-0.9,0.8-1.7,1.7-1.7C94.7,22.3,95.4,23,95.4,24"/>
	</g>
	<g>
		<path class="st0" d="M15.5,18.1c0,1-0.8,1.8-1.8,1.8c-1,0-1.8-0.8-1.8-1.8c0-1,0.8-1.8,1.8-1.8C14.7,16.3,15.5,17.1,15.5,18.1"/>
	</g>
	<g>
		<path class="st0" d="M131.7,36.6l-0.4,1.6h-8.4c-0.3,0-0.6-0.1-0.9-0.3c-0.2-0.2-0.3-0.5-0.3-0.8c0-0.1,0-0.3,0.1-0.4l2.9-10.8h5
			l-2.8,10.4c-0.1,0.3,0,0.5,0.3,0.5H131.7z"/>
	</g>
	<g>
		<path class="st0" d="M98.8,32.4c0.1-0.3,0-0.5-0.3-0.5h-1.4c-0.3,0-0.5,0.2-0.6,0.5l-0.3,1.1h2.3L98.8,32.4z M103.6,32l-0.8,3.1
			h-7l-0.3,1.1c-0.1,0.3,0,0.5,0.3,0.5h1.4c0.3,0,0.5-0.2,0.6-0.5l0.1-0.3h4.7l-0.2,0.8c-0.1,0.4-0.3,0.8-0.7,1.1
			c-0.4,0.3-0.8,0.5-1.2,0.5h-8.7c-0.3,0-0.6-0.1-0.9-0.3c-0.2-0.2-0.3-0.5-0.3-0.8c0-0.1,0-0.3,0.1-0.4l1.3-4.6
			c0.1-0.4,0.4-0.8,0.7-1.1c0.4-0.3,0.8-0.5,1.2-0.5h8.7c0.3,0,0.6,0.1,0.9,0.3c0.2,0.2,0.3,0.5,0.3,0.8
			C103.7,31.7,103.7,31.8,103.6,32"/>
	</g>
	<g>
		<path class="st0" d="M162.2,32.4c0.1-0.3,0-0.5-0.4-0.5h-1.4c-0.3,0-0.5,0.2-0.6,0.5l-0.3,1.1h2.3L162.2,32.4z M167,32l-0.8,3.1
			h-7l-0.3,1.1c-0.1,0.3,0,0.5,0.3,0.5h1.4c0.3,0,0.5-0.2,0.6-0.5l0.1-0.3h4.7l-0.2,0.8c-0.1,0.4-0.3,0.8-0.7,1.1
			c-0.4,0.3-0.8,0.5-1.2,0.5h-8.7c-0.3,0-0.6-0.1-0.9-0.3c-0.2-0.2-0.3-0.5-0.3-0.8c0-0.1,0-0.3,0.1-0.4l1.3-4.6
			c0.1-0.4,0.4-0.8,0.7-1.1c0.4-0.3,0.8-0.5,1.2-0.5h8.7c0.3,0,0.6,0.1,0.9,0.3c0.2,0.2,0.3,0.5,0.3,0.8
			C167.1,31.7,167.1,31.8,167,32"/>
	</g>
	<g>
		<path class="st0" d="M140,30.4l-2.1,7.7h-4.7l2.1-7.7H140z M143.2,25.8l-3,3.9h-4.7l2.7-4L143.2,25.8z"/>
	</g>
	<g>
		<path class="st0" d="M116.5,32l-1.7,6.2h-4.7l1.5-5.7c0.1-0.3,0-0.5-0.3-0.5h-1.9l-1.7,6.2h-4.7l2.1-7.7h10.2
			c0.3,0,0.6,0.1,0.9,0.3c0.2,0.2,0.3,0.5,0.3,0.8C116.5,31.7,116.5,31.8,116.5,32"/>
	</g>
	<g>
		<path class="st0" d="M153,32l-1.7,6.2h-4.7l1.5-5.7c0.1-0.3,0-0.5-0.3-0.5H146l-1.7,6.2h-4.7l2.1-7.7h10.2c0.3,0,0.6,0.1,0.9,0.3
			c0.2,0.2,0.3,0.5,0.3,0.8C153.1,31.7,153.1,31.8,153,32"/>
	</g>
	<g>
		<path class="st1" d="M53,66c-17.4,0-31.5-14.1-31.5-31.5C21.5,17.1,35.6,3,53,3s31.5,14.1,31.5,31.5C84.5,51.9,70.4,66,53,66z
			 M53,5.6c-15.9,0-28.9,13-28.9,28.9c0,15.9,13,28.9,28.9,28.9s28.9-13,28.9-28.9C81.9,18.6,69,5.6,53,5.6z"/>
	</g>
	<g>
		<path class="st0" d="M51.2,33.1l0.8-3c0-0.1,0-0.1,0-0.2c0-0.2-0.1-0.3-0.4-0.3h-1.9l-1.1,4h1.9C51,33.6,51.2,33.4,51.2,33.1
			 M49.7,39.1l0.9-3.3c0-0.1,0-0.1,0-0.2c0-0.2-0.1-0.3-0.4-0.3h-1.9l-1.1,4.3H49C49.4,39.5,49.6,39.4,49.7,39.1 M63.5,32.6h-5.2
			l1.3-4.8h5.2L63.5,32.6z M61.2,41.2h-5.2l2-7.6h5.2L61.2,41.2z M55,39.5c-0.1,0.5-0.4,0.9-0.8,1.2c-0.4,0.3-0.8,0.5-1.3,0.5H41.2
			l3.6-13.3h11.7c0.4,0,0.7,0.1,0.9,0.3c0.2,0.2,0.4,0.5,0.4,0.9c0,0.1,0,0.3-0.1,0.5l-0.8,3.2c-0.1,0.5-0.4,0.9-0.8,1.2
			c-0.4,0.3-0.9,0.5-1.3,0.5c0.5,0,0.8,0.2,1.1,0.5c0.2,0.3,0.3,0.7,0.2,1.2L55,39.5z"/>
	</g>
	<g>
		<path class="st0" d="M27.1,41.2c3,11.5,13.4,20,25.9,20c9.2,0,17.3-4.7,22.1-11.8c2.4-3.5,3.4-7.9,3.4-12.4c0-6.8-2.8-13-7.2-17.4
			c-3.7-3.7-8.7-5.9-14.3-5.9c-9.1,0-16.7,6-19.3,14.2H38c2.6-5.9,8.1-10,15-10c9.2,0,16.7,7.5,16.7,16.7v1.2
			c0,11.7-9.5,21.2-21.2,21.2c-5.9,0-11.2-2.4-15-6.2c-2.7-2.7-4.7-5.9-5.9-9.6H27.1z M78.8,27.9c-3-11.5-13.4-20-25.9-20
			c-9.2,0-17.3,4.7-22.1,11.8c-2.4,3.5-3.4,7.9-3.4,12.4c0,6.8,2.8,13,7.2,17.4c3.7,3.7,8.7,5.9,14.3,5.9c9.1,0,16.7-6,19.3-14.2
			h-0.3c-2.6,5.9-8.1,10-15,10c-9.2,0-16.7-7.5-16.7-16.7v-1.2c0-11.7,9.5-21.2,21.2-21.2c5.9,0,11.2,2.4,15,6.2
			c2.7,2.7,4.7,5.9,5.9,9.6H78.8z"/>
	</g>
	<g>
		<g>
			<path class="st0" d="M22.3,38.2C9.5,33.2,1.6,27.8,2.5,23.7c0.9-4.1,10.3-5.9,24-5.2c0.1-0.1,0.1-0.2,0.2-0.3
				c-14.3-0.7-24.1,1.2-25,5.5c-0.9,4.3,7.3,10,20.7,15.1C22.3,38.6,22.3,38.4,22.3,38.2z"/>
		</g>
		<g>
			<path class="st0" d="M83.6,29.8c0,0.1,0,0.2,0,0.3c14.4,5.3,23.6,11.2,22.6,15.6c-0.9,4.4-11.6,6.1-26.9,5.1
				c-0.1,0.2-0.2,0.3-0.3,0.5c15.8,1.1,26.8-0.8,27.8-5.3C107.8,41.4,98.5,35.2,83.6,29.8z"/>
		</g>
	</g>
	<g>
		<path class="st0" d="M92.6,24.7c0,0-3.2,3.1-8.7,7.1c0,0.4,0.1,0.7,0.1,1.1c6.2-4.6,9.7-8.2,9.7-8.2H92.6z"/>
	</g>
	<g>
		<path class="st0" d="M26.5,50.5c-7.2-0.2-12.9-2.6-13.3-6.2c-0.4-3.2,3.3-7,8.9-9.7c0,0,0-0.1,0-0.1c0-0.2,0-0.4,0-0.6
			c-6.3,2.9-10.6,7.4-10.1,11c0.5,4.3,7.2,7,15.5,7C27.1,51.5,26.8,51,26.5,50.5z"/>
	</g>
</g>
</svg>
